M48
;Layer_Color=9474304
;FILE_FORMAT=2:4
INCH,TZ
;TYPE=PLATED
T1F00S00C0.0118
T2F00S00C0.0197
T3F00S00C0.1142
%
T01
X94341Y23041
X94321Y23839
X95354Y23937
X95207Y23307
X96388
X96240Y23937
Y28209
X96398Y28819
X95217
X95354Y28209
X94331Y28278
Y29124
X89026Y29114
X89016Y26063
X88819Y23031
X88533Y21959
Y21093
X87411Y21152
X87018
Y21545
X87411
Y21939
X87018
X87008Y22943
X87677Y22470
Y20630
X87018Y20187
X86211Y20285
X85915Y20522
X86093Y21043
Y22057
X85915Y22569
X85305Y22343
X85138Y21919
X84577Y22343
X82844Y22628
X82018Y22667
X82195Y22136
X82047Y21870
X82343
X81339Y21742
X81053Y20502
X79980Y20295
Y20738
X79026
Y20295
X78888Y21992
X79183Y21988
X79429Y21821
X78642
X79350Y22667
X79665Y22687
X79961
X80276Y22667
X80226Y24144
Y24577
X80344Y25098
X80069Y25778
X80610Y25984
X79154Y25778
X79244Y24565
X79450Y24359
X79400Y23937
X79213Y24124
X80581Y23957
X81063Y23739
X81554Y25136
X82067Y20886
X83071Y20502
X84094Y20295
X85305Y20315
X85315Y20758
X88819Y20177
X80846Y30433
X80866Y30856
X80010Y30846
X79154Y30856
X79144Y30423
X76516Y29931
X75522Y29360
X75423Y28789
X75226Y28563
X74793Y28740
X74892Y27037
X74596Y27045
X74341Y26880
X74045Y27067
X74075Y27493
X73150Y26870
X72352Y26969
X72726Y26122
X73091Y25930
X73091Y25285
Y24882
X72854Y24675
Y24380
X72923Y23957
X72854Y23406
X72870Y22992
X72844Y22697
X72776Y22402
X72972Y22086
X72874Y21329
X73306Y21205
X73740Y21211
X73789Y20905
X73494Y20915
X74054Y21132
X74264Y21358
X74606Y21319
X75030
X75384Y21388
X75906Y21388
X76299Y21437
X76417Y20374
X75984Y20364
X75305Y20464
X74764Y20463
X74498Y20089
X73150Y19961
X72274
X72648Y20699
X72451Y21545
X72136Y21831
X71467Y22047
X71319Y22668
X70935Y22904
X71230Y23278
Y23573
X70935Y23770
X71260Y24232
X71260Y24892
X71093Y25335
X70935Y26348
X71014Y27343
X70945Y28494
X70945Y28809
Y29124
Y29449
X69941
X69941Y28494
X68868Y28228
X67795
X67392Y27844
X66565Y27539
X66516Y28189
X66663Y28819
X67589
X67805Y29409
X68878
X69892Y30768
X70079Y31178
X72766Y30089
Y29774
Y29459
Y29154
X72431Y28593
X72303Y28287
X71998Y28287
X71860Y28002
X71939Y25846
X72598Y25659
X72018Y24705
X72165Y24114
Y23819
X71683Y23829
X72205Y23150
X72106Y22707
X71278Y21368
X71260Y20148
X70089Y20955
X69882Y22835
Y23780
X69880Y24094
X69921Y25000
X69902Y25669
X69832Y25974
X69921Y26260
X69459Y25394
X69193Y24724
Y24419
X68937Y24577
X68878Y23898
X69311Y23317
X68878Y22717
X67805
X67579Y23307
X67805Y23898
X67392Y24281
X66565Y24587
X66516Y23937
X66663Y23307
X65482
X65630Y23937
X65551Y24596
X65915Y25472
X66545Y25620
Y26506
X65915Y26654
X65551Y27549
X65630Y28189
X65482Y28819
X73169Y30236
X75650Y27411
X75571Y26880
X75148
X76043Y26870
X76516
X76329Y27224
Y27628
X76348Y25896
X76043Y25994
X75531Y26004
X75600Y25305
X75935Y25325
X75974Y24636
X76063Y24242
X76772Y24429
X76742Y23189
X76722Y22894
X76752Y22431
X76004Y22589
X75970Y22982
X76083Y23297
X75148Y23346
X75138Y23691
X74823
X74537
X74242
X74203Y23425
Y23189
X74675Y23337
X74675Y22982
X75148
X74990Y22401
X74685Y22402
X75020Y22096
X75384
X75679
X74242Y22096
X74203Y24134
Y24370
X74675Y24400
Y24045
X75148
Y24400
Y25266
X74872Y25148
X74528Y25256
X74232Y25265
X74567Y24951
X74419Y26043
X76750Y25878
X77648Y25778
X78051Y25797
X77648Y25148
X77648Y24882
X77638Y23986
X77638Y23051
Y22510
X77638Y21762
X77421Y21024
X77156Y20719
X76850Y20541
X77923Y20295
X78054Y22920
X76457Y32205
X71250Y31978
X78169Y31457
X81467Y32165
X82500Y32264
X89016Y32136
T02
X95797Y23937
Y28209
X73868Y30748
X73435
X66073Y28189
X66545Y26063
X66073Y23937
T03
X93720Y26063
X68130
M30
