G04*
G04 #@! TF.GenerationSoftware,Altium Limited,Altium Designer,18.1.6 (161)*
G04*
G04 Layer_Physical_Order=1*
G04 Layer_Color=255*
%FSLAX24Y24*%
%MOIN*%
G70*
G01*
G75*
%ADD12C,0.0079*%
%ADD13C,0.0080*%
%ADD16R,0.0787X0.0197*%
%ADD17R,0.0197X0.0197*%
%ADD18R,0.0866X0.0433*%
%ADD19R,0.0413X0.0394*%
%ADD20C,0.0394*%
%ADD21R,0.0315X0.0315*%
%ADD22R,0.0315X0.0276*%
%ADD23R,0.1496X0.0591*%
%ADD24R,0.1457X0.0394*%
%ADD25R,0.0394X0.1457*%
%ADD26R,0.0591X0.1496*%
%ADD27R,0.0512X0.1496*%
G04:AMPARAMS|DCode=28|XSize=90.6mil|YSize=126mil|CornerRadius=0mil|HoleSize=0mil|Usage=FLASHONLY|Rotation=270.000|XOffset=0mil|YOffset=0mil|HoleType=Round|Shape=Octagon|*
%AMOCTAGOND28*
4,1,8,0.0630,0.0226,0.0630,-0.0226,0.0404,-0.0453,-0.0404,-0.0453,-0.0630,-0.0226,-0.0630,0.0226,-0.0404,0.0453,0.0404,0.0453,0.0630,0.0226,0.0*
%
%ADD28OCTAGOND28*%

%ADD29C,0.0236*%
%ADD47C,0.0065*%
%ADD48C,0.0256*%
%ADD49C,0.0197*%
%ADD50C,0.0059*%
%ADD51C,0.0295*%
%ADD52C,0.2165*%
%ADD53C,0.0237*%
%ADD54C,0.0315*%
G36*
X80762Y32234D02*
X80763Y32235D01*
X80767Y32241D01*
X80769Y32248D01*
X80770Y32255D01*
Y32095D01*
X80769Y32103D01*
X80767Y32110D01*
X80763Y32116D01*
X80762Y32117D01*
Y32071D01*
X80747Y32083D01*
X80728Y32094D01*
X80705Y32104D01*
X80678Y32112D01*
X80646Y32119D01*
X80611Y32125D01*
X80528Y32133D01*
X80480Y32135D01*
X80429Y32135D01*
Y32215D01*
X80480Y32216D01*
X80611Y32226D01*
X80646Y32231D01*
X80678Y32238D01*
X80705Y32247D01*
X80728Y32256D01*
X80747Y32267D01*
X80762Y32280D01*
Y32234D01*
D02*
G37*
G36*
X71043Y32437D02*
X80677Y32437D01*
X80700Y32387D01*
X80689Y32374D01*
X80668D01*
Y32342D01*
X80651Y32337D01*
X80627Y32331D01*
X80599Y32327D01*
X80479Y32318D01*
X76941D01*
X76941Y32318D01*
X76886Y32307D01*
X76840Y32276D01*
X74313Y29749D01*
X74155D01*
Y30038D01*
Y30186D01*
X73661D01*
X73168D01*
Y30038D01*
Y29723D01*
Y29408D01*
Y29093D01*
Y28778D01*
Y28463D01*
Y28148D01*
X74155D01*
Y28328D01*
X74201Y28347D01*
X74583Y27966D01*
X74627Y27936D01*
X74679Y27926D01*
X76464D01*
X76515Y27936D01*
X76559Y27966D01*
X78106Y29512D01*
X79214D01*
X79266Y29522D01*
X79309Y29552D01*
X80105Y30348D01*
X80135Y30391D01*
X80145Y30443D01*
Y30664D01*
X80145Y30665D01*
X80146Y30667D01*
X80148Y30670D01*
X80150Y30674D01*
X80154Y30678D01*
X80158Y30683D01*
X80167Y30689D01*
X80215Y30761D01*
X80232Y30846D01*
X80215Y30932D01*
X80167Y31004D01*
X80095Y31052D01*
X80010Y31069D01*
X79925Y31052D01*
X79853Y31004D01*
X79804Y30932D01*
X79787Y30846D01*
X79804Y30761D01*
X79853Y30689D01*
X79862Y30683D01*
X79866Y30678D01*
X79869Y30674D01*
X79872Y30670D01*
X79874Y30667D01*
X79875Y30665D01*
X79875Y30664D01*
Y30499D01*
X79535Y30159D01*
X79488Y30178D01*
Y30656D01*
X79478Y30708D01*
X79449Y30752D01*
X79378Y30823D01*
X79378Y30823D01*
X79377Y30826D01*
X79376Y30829D01*
X79375Y30833D01*
X79374Y30839D01*
X79374Y30846D01*
X79376Y30856D01*
X79359Y30941D01*
X79311Y31014D01*
X79239Y31062D01*
X79154Y31079D01*
X79068Y31062D01*
X78996Y31014D01*
X78969Y30973D01*
X78919Y30988D01*
Y31065D01*
X78404D01*
Y30962D01*
X78396D01*
X78344Y30952D01*
X78300Y30922D01*
X77162Y29784D01*
X77123Y29816D01*
X77133Y29830D01*
X77143Y29882D01*
Y29959D01*
X77265D01*
Y30435D01*
X76872D01*
X76853Y30481D01*
X76954Y30582D01*
X76962Y30589D01*
X77265D01*
Y31065D01*
X76872D01*
X76853Y31111D01*
X76954Y31212D01*
X76962Y31219D01*
X77265D01*
Y31694D01*
X76750D01*
Y31391D01*
X76747Y31387D01*
X76190Y30830D01*
X76161Y30786D01*
X76150Y30734D01*
Y29550D01*
X75744Y29144D01*
X75306D01*
X75254Y29134D01*
X75210Y29104D01*
X75002Y28896D01*
X74951Y28897D01*
X74878Y28946D01*
X74793Y28963D01*
X74708Y28946D01*
X74636Y28897D01*
X74598Y28840D01*
X74541Y28827D01*
X74456Y28912D01*
Y28944D01*
X74446Y28995D01*
X74416Y29039D01*
X74162Y29294D01*
X74155Y29301D01*
Y29464D01*
X74372D01*
X74372Y29464D01*
X74427Y29474D01*
X74473Y29505D01*
X77000Y32032D01*
X80482D01*
X80521Y32031D01*
X80598Y32024D01*
X80614Y32021D01*
Y30856D01*
X80633Y30760D01*
X80688Y30678D01*
X80770Y30623D01*
X80866Y30604D01*
X80963Y30623D01*
X81045Y30678D01*
X81099Y30760D01*
X81119Y30856D01*
Y32175D01*
X81099Y32272D01*
X81065Y32324D01*
Y32374D01*
X81043D01*
X81032Y32387D01*
X81055Y32437D01*
X89346Y32437D01*
Y29528D01*
X89346D01*
X89357Y29445D01*
X89389Y29368D01*
X89440Y29302D01*
X89506Y29251D01*
X89583Y29219D01*
X89665Y29208D01*
Y29209D01*
X93307D01*
Y29208D01*
X93390Y29219D01*
X93467Y29251D01*
X93533Y29302D01*
X93584Y29368D01*
X93615Y29445D01*
X93626Y29528D01*
X93626D01*
Y30075D01*
X94366D01*
Y30016D01*
X94329Y30001D01*
X94262Y29950D01*
X94212Y29884D01*
X94180Y29807D01*
X94169Y29724D01*
X94180Y29642D01*
X94212Y29565D01*
X94262Y29499D01*
X94329Y29448D01*
X94406Y29416D01*
X94488Y29405D01*
Y29406D01*
X95443D01*
Y27872D01*
X96118D01*
Y29406D01*
X97240D01*
Y27799D01*
X95787D01*
Y27800D01*
X95705Y27789D01*
X95628Y27757D01*
X95562Y27706D01*
X95511Y27640D01*
X95479Y27563D01*
X95468Y27480D01*
X95469D01*
Y24646D01*
X95468D01*
X95479Y24563D01*
X95511Y24486D01*
X95562Y24420D01*
X95628Y24369D01*
X95705Y24337D01*
X95787Y24326D01*
Y24327D01*
X97240D01*
Y22720D01*
X96132D01*
Y24254D01*
X95457D01*
Y22720D01*
X94488D01*
Y22721D01*
X94406Y22710D01*
X94329Y22678D01*
X94262Y22627D01*
X94212Y22561D01*
X94180Y22484D01*
X94169Y22402D01*
X94180Y22319D01*
X94212Y22242D01*
X94262Y22176D01*
X94329Y22125D01*
X94366Y22110D01*
Y22051D01*
X93626D01*
Y22598D01*
X93626D01*
X93615Y22681D01*
X93584Y22758D01*
X93533Y22824D01*
X93467Y22875D01*
X93390Y22907D01*
X93307Y22918D01*
Y22917D01*
X89665D01*
Y22918D01*
X89583Y22907D01*
X89506Y22875D01*
X89440Y22824D01*
X89389Y22758D01*
X89357Y22681D01*
X89346Y22598D01*
X89346D01*
Y19689D01*
X85182D01*
X85170Y19717D01*
X85166Y19739D01*
X85194Y19781D01*
X85198Y19802D01*
X85464D01*
Y19985D01*
X85470Y19992D01*
X85620Y20142D01*
X85649Y20186D01*
X85660Y20238D01*
Y20433D01*
X85710Y20437D01*
X85710Y20437D01*
X85758Y20364D01*
X85830Y20316D01*
X85915Y20299D01*
X85945Y20305D01*
X85993Y20264D01*
X86005Y20200D01*
X86053Y20128D01*
X86126Y20080D01*
X86211Y20063D01*
X86296Y20080D01*
X86368Y20128D01*
X86416Y20200D01*
X86433Y20285D01*
X86416Y20371D01*
X86368Y20443D01*
X86296Y20491D01*
X86211Y20508D01*
X86181Y20502D01*
X86133Y20543D01*
X86121Y20607D01*
X86073Y20679D01*
X86000Y20727D01*
X85915Y20744D01*
X85830Y20727D01*
X85758Y20679D01*
X85710Y20607D01*
X85710Y20606D01*
X85660Y20611D01*
Y20845D01*
X85649Y20896D01*
X85620Y20940D01*
X84988Y21572D01*
X84945Y21601D01*
X84893Y21611D01*
X82417D01*
X82412Y21661D01*
X82428Y21665D01*
X82500Y21713D01*
X82548Y21785D01*
X82565Y21870D01*
X82548Y21955D01*
X82500Y22027D01*
X82428Y22076D01*
X82343Y22092D01*
X82257Y22076D01*
X82195Y22034D01*
X82132Y22076D01*
X82047Y22092D01*
X81962Y22076D01*
X81890Y22027D01*
X81842Y21955D01*
X81825Y21870D01*
X81842Y21785D01*
X81890Y21713D01*
X81962Y21665D01*
X81978Y21661D01*
X81973Y21611D01*
X77672D01*
X77001Y22282D01*
X76957Y22311D01*
X76949Y22333D01*
X76957Y22346D01*
X76974Y22431D01*
X76957Y22516D01*
X76909Y22588D01*
X76837Y22637D01*
X76819Y22640D01*
X76812Y22668D01*
X76814Y22692D01*
X76880Y22736D01*
X76928Y22809D01*
X76945Y22894D01*
X76928Y22979D01*
X76895Y23029D01*
X76899Y23032D01*
X76948Y23104D01*
X76965Y23189D01*
X76948Y23274D01*
X76899Y23346D01*
X76827Y23394D01*
X76742Y23411D01*
X76657Y23394D01*
X76585Y23346D01*
X76537Y23274D01*
X76520Y23189D01*
X76537Y23104D01*
X76570Y23054D01*
X76565Y23051D01*
X76517Y22979D01*
X76500Y22894D01*
X76517Y22809D01*
X76565Y22736D01*
X76637Y22688D01*
X76656Y22685D01*
X76662Y22657D01*
X76661Y22633D01*
X76595Y22588D01*
X76547Y22516D01*
X76530Y22431D01*
X76541Y22372D01*
X76507Y22322D01*
X76163D01*
X76125Y22362D01*
X76130Y22411D01*
X76161Y22431D01*
X76209Y22503D01*
X76226Y22589D01*
X76209Y22674D01*
X76161Y22746D01*
X76130Y22767D01*
X76127Y22825D01*
X76176Y22897D01*
X76192Y22982D01*
X76176Y23067D01*
X76127Y23140D01*
X76055Y23188D01*
X75970Y23205D01*
X75885Y23188D01*
X75813Y23140D01*
X75765Y23067D01*
X75748Y22982D01*
X75765Y22897D01*
X75813Y22825D01*
X75844Y22804D01*
X75847Y22746D01*
X75826Y22714D01*
X75761Y22708D01*
X75609Y22860D01*
X75565Y22890D01*
X75513Y22900D01*
X74367D01*
X74179Y23088D01*
X74155Y23104D01*
Y23257D01*
X73661D01*
X73168D01*
Y23109D01*
Y22794D01*
Y22479D01*
Y22164D01*
Y21849D01*
Y21782D01*
X73661D01*
X74155D01*
Y21849D01*
Y22227D01*
X74220D01*
X74722Y21725D01*
X74766Y21696D01*
X74817Y21686D01*
X74844D01*
X74863Y21640D01*
X74725Y21502D01*
X74691Y21524D01*
X74606Y21541D01*
X74521Y21524D01*
X74449Y21476D01*
X74447D01*
X74421Y21516D01*
X74349Y21564D01*
X74264Y21581D01*
X74205Y21569D01*
X74155Y21604D01*
Y21682D01*
X73661D01*
X73168D01*
Y21404D01*
X73131Y21375D01*
X73084Y21391D01*
X73079Y21414D01*
X73031Y21486D01*
X72959Y21534D01*
X72874Y21551D01*
X72789Y21534D01*
X72717Y21486D01*
X72710Y21477D01*
X72663Y21496D01*
X72673Y21545D01*
X72656Y21630D01*
X72608Y21703D01*
X72536Y21751D01*
X72451Y21768D01*
X72394Y21756D01*
X72351Y21797D01*
X72358Y21831D01*
X72341Y21916D01*
X72293Y21988D01*
X72221Y22036D01*
X72136Y22053D01*
X72051Y22036D01*
X71979Y21988D01*
X71930Y21916D01*
X71913Y21831D01*
X71930Y21746D01*
X71979Y21673D01*
X72051Y21625D01*
X72136Y21608D01*
X72192Y21620D01*
X72235Y21579D01*
X72228Y21545D01*
X72242Y21476D01*
X72240Y21473D01*
X72203Y21442D01*
X72202Y21442D01*
X72135Y21469D01*
X72047Y21481D01*
X71959Y21469D01*
X71878Y21435D01*
X71807Y21382D01*
X71754Y21311D01*
X71720Y21230D01*
X71708Y21142D01*
X71720Y21054D01*
X71754Y20972D01*
X71807Y20902D01*
X71878Y20848D01*
X71959Y20814D01*
X72047Y20803D01*
X72135Y20814D01*
X72217Y20848D01*
X72287Y20902D01*
X72341Y20972D01*
X72375Y21054D01*
X72386Y21142D01*
X72375Y21230D01*
X72347Y21296D01*
X72348Y21298D01*
X72379Y21335D01*
X72382Y21337D01*
X72451Y21323D01*
X72536Y21340D01*
X72608Y21388D01*
X72614Y21397D01*
X72661Y21378D01*
X72652Y21329D01*
X72669Y21244D01*
X72717Y21171D01*
X72789Y21123D01*
X72874Y21106D01*
X72888Y21109D01*
X72923Y21074D01*
X72919Y21051D01*
Y20195D01*
X72902D01*
X72813Y20177D01*
X72789Y20161D01*
X72704D01*
Y20076D01*
X72687Y20051D01*
X72670Y19962D01*
X72687Y19873D01*
X72704Y19849D01*
Y19764D01*
X72789D01*
X72813Y19747D01*
X72856Y19739D01*
X72851Y19689D01*
X71043D01*
X71041Y19689D01*
X70878Y19701D01*
X70716Y19740D01*
X70562Y19804D01*
X70420Y19891D01*
X70294Y19999D01*
X70186Y20125D01*
X70128Y20220D01*
X70124Y20217D01*
X70111Y20237D01*
X69433Y21401D01*
Y21732D01*
X69433D01*
X69423Y21815D01*
X69391Y21892D01*
X69340Y21958D01*
X69274Y22009D01*
X69197Y22041D01*
X69114Y22052D01*
Y22051D01*
X67484D01*
Y22110D01*
X67522Y22125D01*
X67588Y22176D01*
X67639Y22242D01*
X67671Y22319D01*
X67681Y22402D01*
X67671Y22484D01*
X67639Y22561D01*
X67588Y22627D01*
X67522Y22678D01*
X67445Y22710D01*
X67362Y22721D01*
Y22720D01*
X66407D01*
Y24254D01*
X65732D01*
Y22720D01*
X64787D01*
Y24480D01*
X64837Y24505D01*
X64860Y24487D01*
X64937Y24455D01*
X65020Y24445D01*
X65102Y24455D01*
X65179Y24487D01*
X65245Y24538D01*
X65296Y24604D01*
X65328Y24681D01*
X65339Y24764D01*
X65339D01*
X65339Y24764D01*
Y25732D01*
X66870D01*
Y25766D01*
X66872D01*
Y26360D01*
X66870D01*
Y26407D01*
X65339D01*
Y27362D01*
X65339D01*
X65328Y27445D01*
X65296Y27522D01*
X65245Y27588D01*
X65179Y27639D01*
X65102Y27671D01*
X65020Y27681D01*
X64937Y27671D01*
X64860Y27639D01*
X64837Y27621D01*
X64787Y27646D01*
Y29406D01*
X65718D01*
Y27872D01*
X66394D01*
Y29406D01*
X67362D01*
Y29405D01*
X67445Y29416D01*
X67522Y29448D01*
X67588Y29499D01*
X67639Y29565D01*
X67671Y29642D01*
X67681Y29724D01*
X67671Y29807D01*
X67639Y29884D01*
X67588Y29950D01*
X67522Y30001D01*
X67484Y30016D01*
Y30075D01*
X69114D01*
Y30074D01*
X69197Y30085D01*
X69274Y30117D01*
X69340Y30168D01*
X69387Y30230D01*
X69401Y30234D01*
X69444Y30233D01*
X69483Y30182D01*
X69545Y30134D01*
X69617Y30104D01*
X69695Y30094D01*
X69772Y30104D01*
X69845Y30134D01*
X69864Y30150D01*
X69878Y30150D01*
X69918Y30128D01*
X69920Y30101D01*
X69048Y29229D01*
X69019Y29186D01*
X69009Y29134D01*
Y29116D01*
X68730D01*
Y29183D01*
X68120D01*
X67933Y28996D01*
Y28642D01*
X68120Y28455D01*
X68730D01*
Y28522D01*
X69273D01*
Y28968D01*
X69279Y28996D01*
Y29078D01*
X69893Y29692D01*
X69939Y29673D01*
Y29499D01*
X70433D01*
X70927D01*
Y29565D01*
Y29880D01*
Y30195D01*
Y30510D01*
Y30907D01*
X70061D01*
X70049Y30925D01*
X69977Y30973D01*
X69892Y30990D01*
X69807Y30973D01*
X69734Y30925D01*
X69686Y30853D01*
X69669Y30768D01*
X69677Y30728D01*
X69648Y30687D01*
X69617Y30683D01*
X69545Y30653D01*
X69483Y30605D01*
X69483Y30605D01*
X69433Y30622D01*
Y30725D01*
X70111Y31889D01*
X70124Y31909D01*
X70128Y31906D01*
X70186Y32001D01*
X70294Y32127D01*
X70420Y32235D01*
X70562Y32322D01*
X70716Y32386D01*
X70878Y32425D01*
X71041Y32437D01*
X71043Y32437D01*
D02*
G37*
G36*
X76963Y31321D02*
X76957Y31324D01*
X76951Y31325D01*
X76943Y31324D01*
X76935Y31322D01*
X76927Y31318D01*
X76917Y31313D01*
X76907Y31306D01*
X76896Y31297D01*
X76871Y31274D01*
X76806Y31300D01*
X76819Y31315D01*
X76841Y31340D01*
X76849Y31351D01*
X76855Y31361D01*
X76858Y31369D01*
X76860Y31377D01*
X76860Y31383D01*
X76857Y31388D01*
X76853Y31392D01*
X76963Y31321D01*
D02*
G37*
G36*
X78506Y30762D02*
X78506Y30768D01*
X78504Y30773D01*
X78500Y30778D01*
X78496Y30783D01*
X78490Y30786D01*
X78483Y30789D01*
X78474Y30791D01*
X78464Y30793D01*
X78453Y30794D01*
X78440Y30794D01*
Y30859D01*
X78453Y30860D01*
X78464Y30861D01*
X78474Y30862D01*
X78483Y30864D01*
X78490Y30867D01*
X78496Y30871D01*
X78500Y30875D01*
X78504Y30880D01*
X78506Y30886D01*
X78506Y30892D01*
Y30762D01*
D02*
G37*
G36*
X79272Y30841D02*
X79273Y30828D01*
X79275Y30816D01*
X79277Y30804D01*
X79280Y30793D01*
X79284Y30783D01*
X79289Y30774D01*
X79294Y30765D01*
X79300Y30756D01*
X79307Y30749D01*
X79261Y30703D01*
X79253Y30710D01*
X79245Y30716D01*
X79236Y30721D01*
X79227Y30726D01*
X79216Y30730D01*
X79205Y30733D01*
X79194Y30735D01*
X79181Y30737D01*
X79168Y30738D01*
X79155Y30738D01*
X79272Y30855D01*
X79272Y30841D01*
D02*
G37*
G36*
X76963Y30691D02*
X76957Y30694D01*
X76951Y30695D01*
X76943Y30694D01*
X76935Y30692D01*
X76927Y30688D01*
X76917Y30683D01*
X76907Y30676D01*
X76896Y30667D01*
X76871Y30644D01*
X76806Y30670D01*
X76819Y30685D01*
X76841Y30710D01*
X76849Y30721D01*
X76855Y30731D01*
X76858Y30739D01*
X76860Y30747D01*
X76860Y30753D01*
X76857Y30758D01*
X76853Y30762D01*
X76963Y30691D01*
D02*
G37*
G36*
X80083Y30752D02*
X80074Y30742D01*
X80067Y30732D01*
X80060Y30722D01*
X80055Y30712D01*
X80050Y30702D01*
X80047Y30692D01*
X80044Y30682D01*
X80043Y30672D01*
X80042Y30662D01*
X79977D01*
X79977Y30672D01*
X79975Y30682D01*
X79973Y30692D01*
X79969Y30702D01*
X79965Y30712D01*
X79959Y30722D01*
X79953Y30732D01*
X79945Y30742D01*
X79937Y30752D01*
X79927Y30762D01*
X80093D01*
X80083Y30752D01*
D02*
G37*
G36*
X70009Y30788D02*
X70013Y30780D01*
X70018Y30772D01*
X70024Y30766D01*
X70028Y30763D01*
X70028Y30763D01*
X70033Y30768D01*
X70037Y30774D01*
X70040Y30781D01*
X70041Y30789D01*
Y30756D01*
X70047Y30753D01*
X70057Y30751D01*
X70068Y30749D01*
X70079Y30749D01*
X70041Y30690D01*
Y30629D01*
X70040Y30636D01*
X70037Y30643D01*
X70033Y30649D01*
X70028Y30654D01*
X70021Y30659D01*
X70012Y30662D01*
X70001Y30665D01*
X69991Y30667D01*
X69973Y30665D01*
X69964Y30664D01*
X69937Y30658D01*
X69929Y30655D01*
X69961Y30714D01*
Y30749D01*
X69976Y30749D01*
X69980Y30749D01*
X70006Y30797D01*
X70009Y30788D01*
D02*
G37*
G36*
X70041Y30339D02*
X70040Y30345D01*
X70038Y30350D01*
X70035Y30355D01*
X70030Y30359D01*
X70024Y30363D01*
X70017Y30366D01*
X70009Y30368D01*
X69999Y30370D01*
X69988Y30371D01*
X69976Y30371D01*
Y30436D01*
X69988Y30436D01*
X69999Y30437D01*
X70009Y30439D01*
X70017Y30441D01*
X70024Y30444D01*
X70030Y30448D01*
X70035Y30452D01*
X70038Y30457D01*
X70040Y30462D01*
X70041Y30469D01*
Y30339D01*
D02*
G37*
G36*
X69880Y30462D02*
X69884Y30456D01*
X69889Y30452D01*
X69895Y30448D01*
X69902Y30444D01*
X69910Y30441D01*
X69919Y30439D01*
X69929Y30437D01*
X69940Y30436D01*
X69952Y30436D01*
X69955Y30371D01*
X69944Y30371D01*
X69933Y30370D01*
X69923Y30368D01*
X69914Y30366D01*
X69906Y30363D01*
X69900Y30359D01*
X69894Y30355D01*
X69890Y30350D01*
X69886Y30344D01*
X69884Y30338D01*
X69877Y30468D01*
X69880Y30462D01*
D02*
G37*
G36*
X79217Y30329D02*
X79208Y30319D01*
X79201Y30309D01*
X79194Y30299D01*
X79189Y30289D01*
X79184Y30279D01*
X79181Y30269D01*
X79178Y30259D01*
X79177Y30249D01*
X79176Y30239D01*
X79111D01*
X79111Y30249D01*
X79109Y30259D01*
X79107Y30269D01*
X79103Y30279D01*
X79099Y30289D01*
X79093Y30299D01*
X79087Y30309D01*
X79079Y30319D01*
X79071Y30329D01*
X79061Y30339D01*
X79226D01*
X79217Y30329D01*
D02*
G37*
G36*
X76549Y30105D02*
X76550Y30095D01*
X76553Y30085D01*
X76556Y30075D01*
X76561Y30065D01*
X76566Y30055D01*
X76573Y30045D01*
X76580Y30035D01*
X76589Y30025D01*
X76598Y30015D01*
X76433D01*
X76443Y30025D01*
X76451Y30035D01*
X76459Y30045D01*
X76465Y30055D01*
X76471Y30065D01*
X76475Y30075D01*
X76479Y30085D01*
X76481Y30095D01*
X76483Y30105D01*
X76483Y30116D01*
X76548D01*
X76549Y30105D01*
D02*
G37*
G36*
X77067Y30061D02*
X77061Y30059D01*
X77056Y30055D01*
X77052Y30051D01*
X77049Y30045D01*
X77046Y30038D01*
X77043Y30029D01*
X77042Y30019D01*
X77041Y30008D01*
X77040Y29995D01*
X76975D01*
X76975Y30008D01*
X76974Y30019D01*
X76972Y30029D01*
X76970Y30038D01*
X76967Y30045D01*
X76964Y30051D01*
X76959Y30055D01*
X76955Y30059D01*
X76949Y30061D01*
X76943Y30061D01*
X77073D01*
X77067Y30061D01*
D02*
G37*
G36*
X70041Y29982D02*
X70040Y29982D01*
X70039Y29981D01*
X70036Y29979D01*
X70029Y29972D01*
X69995Y29939D01*
Y30031D01*
X70003Y30040D01*
X70011Y30049D01*
X70018Y30058D01*
X70024Y30068D01*
X70029Y30077D01*
X70033Y30086D01*
X70036Y30095D01*
X70039Y30104D01*
X70040Y30113D01*
X70041Y30123D01*
Y29982D01*
D02*
G37*
G36*
X74054Y29679D02*
X74056Y29672D01*
X74060Y29666D01*
X74066Y29661D01*
X74073Y29656D01*
X74082Y29653D01*
X74093Y29650D01*
X74105Y29648D01*
X74118Y29647D01*
X74134Y29646D01*
Y29566D01*
X74118Y29566D01*
X74105Y29565D01*
X74093Y29563D01*
X74082Y29560D01*
X74073Y29556D01*
X74066Y29552D01*
X74060Y29547D01*
X74056Y29541D01*
X74054Y29534D01*
X74053Y29526D01*
Y29686D01*
X74054Y29679D01*
D02*
G37*
G36*
X74050Y29297D02*
X74049Y29290D01*
X74049Y29283D01*
X74051Y29275D01*
X74055Y29266D01*
X74061Y29257D01*
X74068Y29246D01*
X74077Y29235D01*
X74100Y29211D01*
X74070Y29148D01*
X74056Y29162D01*
X74031Y29183D01*
X74020Y29191D01*
X74011Y29197D01*
X74002Y29200D01*
X73994Y29202D01*
X73988Y29202D01*
X73983Y29200D01*
X73979Y29195D01*
X74053Y29303D01*
X74050Y29297D01*
D02*
G37*
G36*
X69176Y29067D02*
X69173Y29015D01*
X69172Y29015D01*
X69079D01*
X69085Y29015D01*
X69090Y29017D01*
X69095Y29020D01*
X69099Y29025D01*
X69103Y29031D01*
X69106Y29038D01*
X69108Y29046D01*
X69110Y29056D01*
X69111Y29067D01*
X69111Y29080D01*
X69176D01*
X69176Y29067D01*
D02*
G37*
G36*
X74050Y28988D02*
X74049Y28981D01*
X74050Y28974D01*
X74052Y28966D01*
X74056Y28957D01*
X74062Y28947D01*
X74069Y28937D01*
X74078Y28926D01*
X74100Y28902D01*
X74077Y28833D01*
X74062Y28847D01*
X74037Y28869D01*
X74026Y28877D01*
X74016Y28883D01*
X74007Y28886D01*
X74000Y28888D01*
X73994Y28887D01*
X73989Y28885D01*
X73985Y28880D01*
X74053Y28994D01*
X74050Y28988D01*
D02*
G37*
G36*
X75517Y28863D02*
X75527Y28854D01*
X75537Y28846D01*
X75547Y28840D01*
X75557Y28834D01*
X75567Y28830D01*
X75577Y28826D01*
X75587Y28824D01*
X75597Y28822D01*
X75608Y28822D01*
Y28757D01*
X75597Y28756D01*
X75587Y28755D01*
X75577Y28752D01*
X75567Y28749D01*
X75557Y28744D01*
X75547Y28739D01*
X75537Y28732D01*
X75527Y28725D01*
X75517Y28716D01*
X75508Y28707D01*
Y28872D01*
X75517Y28863D01*
D02*
G37*
G36*
X74888Y28813D02*
X74897Y28805D01*
X74907Y28797D01*
X74917Y28791D01*
X74927Y28785D01*
X74937Y28781D01*
X74947Y28777D01*
X74957Y28775D01*
X74968Y28773D01*
X74978Y28773D01*
Y28708D01*
X74968Y28707D01*
X74957Y28706D01*
X74947Y28703D01*
X74937Y28700D01*
X74927Y28695D01*
X74917Y28690D01*
X74907Y28683D01*
X74897Y28676D01*
X74888Y28667D01*
X74878Y28657D01*
Y28823D01*
X74888Y28813D01*
D02*
G37*
G36*
X75321Y28636D02*
X75330Y28628D01*
X75340Y28620D01*
X75350Y28614D01*
X75360Y28608D01*
X75370Y28604D01*
X75380Y28600D01*
X75391Y28598D01*
X75401Y28596D01*
X75411Y28595D01*
Y28530D01*
X75401Y28530D01*
X75391Y28528D01*
X75380Y28526D01*
X75370Y28522D01*
X75360Y28518D01*
X75350Y28512D01*
X75340Y28506D01*
X75330Y28498D01*
X75321Y28490D01*
X75311Y28480D01*
Y28646D01*
X75321Y28636D01*
D02*
G37*
G36*
X74053Y22685D02*
X74055Y22679D01*
X74059Y22674D01*
X74063Y22670D01*
X74069Y22666D01*
X74077Y22664D01*
X74085Y22661D01*
X74095Y22660D01*
X74106Y22659D01*
X74119Y22658D01*
Y22593D01*
X74107Y22593D01*
X74077Y22591D01*
X74070Y22590D01*
X74064Y22589D01*
X74060Y22587D01*
X74057Y22585D01*
X74055Y22582D01*
X74054Y22580D01*
X74053Y22691D01*
X74053Y22685D01*
D02*
G37*
G36*
X74053Y22421D02*
X74055Y22415D01*
X74059Y22411D01*
X74063Y22406D01*
X74069Y22403D01*
X74077Y22400D01*
X74085Y22398D01*
X74095Y22396D01*
X74106Y22395D01*
X74119Y22395D01*
Y22330D01*
X74106Y22329D01*
X74095Y22328D01*
X74085Y22327D01*
X74077Y22325D01*
X74069Y22322D01*
X74063Y22318D01*
X74059Y22314D01*
X74055Y22309D01*
X74053Y22303D01*
X74053Y22297D01*
Y22427D01*
X74053Y22421D01*
D02*
G37*
G36*
X77321Y21170D02*
X77330Y21164D01*
X77339Y21159D01*
X77348Y21154D01*
X77358Y21150D01*
X77369Y21147D01*
X77381Y21145D01*
X77393Y21143D01*
X77406Y21142D01*
X77420Y21142D01*
X77303Y21025D01*
X77303Y21039D01*
X77302Y21052D01*
X77300Y21064D01*
X77298Y21076D01*
X77295Y21086D01*
X77291Y21097D01*
X77286Y21106D01*
X77281Y21115D01*
X77275Y21123D01*
X77268Y21131D01*
X77314Y21177D01*
X77321Y21170D01*
D02*
G37*
G36*
X73611Y20893D02*
X73611Y20880D01*
X73612Y20868D01*
X73614Y20856D01*
X73617Y20845D01*
X73620Y20835D01*
X73625Y20826D01*
X73630Y20817D01*
X73636Y20808D01*
X73643Y20801D01*
X73594Y20758D01*
X73586Y20765D01*
X73578Y20771D01*
X73569Y20776D01*
X73560Y20781D01*
X73550Y20785D01*
X73539Y20789D01*
X73527Y20792D01*
X73514Y20794D01*
X73501Y20796D01*
X73487Y20797D01*
X73611Y20906D01*
X73611Y20893D01*
D02*
G37*
G36*
X85231Y20675D02*
X85221Y20685D01*
X85211Y20693D01*
X85201Y20701D01*
X85191Y20707D01*
X85181Y20713D01*
X85171Y20717D01*
X85161Y20721D01*
X85151Y20723D01*
X85148Y20724D01*
X85143Y20723D01*
X85133Y20720D01*
X85125Y20715D01*
X85118Y20709D01*
X85112Y20702D01*
X85107Y20694D01*
X85104Y20684D01*
X85102Y20673D01*
X85101Y20660D01*
X85036D01*
X85036Y20673D01*
X85034Y20684D01*
X85031Y20694D01*
X85026Y20702D01*
X85020Y20709D01*
X85013Y20715D01*
X85005Y20720D01*
X84995Y20723D01*
X84984Y20725D01*
X84971Y20725D01*
X85069Y20790D01*
X85131Y20749D01*
Y20790D01*
X85141Y20791D01*
X85151Y20792D01*
X85161Y20795D01*
X85171Y20798D01*
X85181Y20803D01*
X85191Y20808D01*
X85201Y20815D01*
X85211Y20822D01*
X85221Y20831D01*
X85231Y20841D01*
Y20675D01*
D02*
G37*
G36*
X77197Y21057D02*
X77197Y21056D01*
X77198Y21054D01*
X77199Y21051D01*
X77200Y21047D01*
X77201Y21041D01*
X77201Y21034D01*
X77199Y21024D01*
X77216Y20939D01*
X77264Y20866D01*
X77336Y20818D01*
X77421Y20801D01*
X77485Y20814D01*
X77535Y20782D01*
Y20208D01*
X77459D01*
Y19988D01*
X77409Y19967D01*
X77380Y19996D01*
X77374Y20003D01*
Y20208D01*
X76977D01*
Y19811D01*
X77182D01*
X77187Y19807D01*
X77259Y19735D01*
X77240Y19689D01*
X74429Y19689D01*
X74424Y19739D01*
X74459Y19746D01*
X74534Y19796D01*
X74662Y19924D01*
X74713Y20000D01*
X74730Y20089D01*
X74713Y20178D01*
X74662Y20253D01*
X74587Y20303D01*
X74498Y20321D01*
X74409Y20303D01*
X74334Y20253D01*
X74274Y20193D01*
X73384D01*
Y20671D01*
X73434Y20705D01*
X73478Y20696D01*
X73479Y20696D01*
X73480Y20695D01*
X73494Y20693D01*
X73498Y20694D01*
X73505Y20692D01*
X73510Y20691D01*
X73514Y20690D01*
X73517Y20688D01*
X73519Y20687D01*
X73607Y20600D01*
X73650Y20571D01*
X73702Y20561D01*
X74280D01*
X74331Y20571D01*
X74375Y20600D01*
X74909Y21134D01*
X74933Y21121D01*
X74944Y21113D01*
X74949Y21113D01*
X74951Y21112D01*
X75093Y20969D01*
X75159Y20925D01*
X75236Y20910D01*
X75636D01*
X75713Y20925D01*
X75779Y20969D01*
X75906Y21096D01*
X76215Y20786D01*
Y20566D01*
X76074D01*
X76069Y20570D01*
X75984Y20587D01*
X75899Y20570D01*
X75827Y20521D01*
X75779Y20449D01*
X75762Y20364D01*
X75779Y20279D01*
X75827Y20207D01*
X75899Y20159D01*
X75984Y20142D01*
X76069Y20159D01*
X76074Y20162D01*
X76366D01*
X76417Y20152D01*
X76502Y20169D01*
X76575Y20217D01*
X76623Y20289D01*
X76640Y20374D01*
X76623Y20459D01*
X76620Y20464D01*
Y20870D01*
X76604Y20948D01*
X76560Y21013D01*
X76388Y21185D01*
X76401Y21243D01*
X76456Y21280D01*
X76505Y21352D01*
X76522Y21437D01*
X76514Y21473D01*
X76546Y21512D01*
X76742D01*
X77197Y21057D01*
D02*
G37*
G36*
X81912Y20476D02*
Y20352D01*
X81866Y20333D01*
X81818Y20381D01*
X81774Y20410D01*
X81722Y20421D01*
X80371D01*
X80191Y20600D01*
X80147Y20630D01*
X80095Y20640D01*
X79875D01*
X79823Y20630D01*
X79779Y20600D01*
X79324Y20145D01*
X79318Y20139D01*
X78994D01*
Y19689D01*
X78919D01*
Y20139D01*
X78532D01*
X78504Y20145D01*
X78250D01*
Y20208D01*
X77805D01*
Y21071D01*
X77799Y21104D01*
X77830Y21154D01*
X81233D01*
X81912Y20476D01*
D02*
G37*
G36*
X85193Y20985D02*
X85188Y20935D01*
X85158Y20915D01*
X85152Y20906D01*
X85147Y20902D01*
X85142Y20898D01*
X85138Y20896D01*
X85135Y20894D01*
X85133Y20893D01*
X85133Y20893D01*
X82953D01*
X82901Y20883D01*
X82857Y20853D01*
X82232Y20229D01*
X82182Y20249D01*
Y20531D01*
X82172Y20583D01*
X82143Y20627D01*
X81475Y21295D01*
X81494Y21341D01*
X84837D01*
X85193Y20985D01*
D02*
G37*
G36*
X83817Y20573D02*
X83537Y20293D01*
X82874D01*
X82822Y20282D01*
X82778Y20253D01*
X82671Y20145D01*
X82664Y20139D01*
X82591D01*
X82571Y20186D01*
X83009Y20623D01*
X83796D01*
X83817Y20573D01*
D02*
G37*
G36*
X77703Y20160D02*
X77704Y20149D01*
X77706Y20139D01*
X77708Y20130D01*
X77711Y20123D01*
X77714Y20117D01*
X77719Y20113D01*
X77723Y20110D01*
X77729Y20108D01*
X77735Y20107D01*
X77605D01*
X77611Y20108D01*
X77617Y20110D01*
X77622Y20113D01*
X77626Y20117D01*
X77629Y20123D01*
X77632Y20130D01*
X77635Y20139D01*
X77636Y20149D01*
X77637Y20160D01*
X77638Y20172D01*
X77703D01*
X77703Y20160D01*
D02*
G37*
G36*
X84541Y20150D02*
X84542Y20139D01*
X84543Y20129D01*
X84546Y20121D01*
X84549Y20113D01*
X84552Y20108D01*
X84556Y20103D01*
X84561Y20100D01*
X84567Y20098D01*
X84573Y20097D01*
X84443D01*
X84449Y20098D01*
X84455Y20100D01*
X84459Y20103D01*
X84464Y20108D01*
X84467Y20113D01*
X84470Y20121D01*
X84472Y20129D01*
X84474Y20139D01*
X84475Y20150D01*
X84475Y20162D01*
X84540D01*
X84541Y20150D01*
D02*
G37*
G36*
X82080Y20150D02*
X82081Y20138D01*
X82083Y20128D01*
X82085Y20120D01*
X82088Y20113D01*
X82091Y20107D01*
X82096Y20102D01*
X82101Y20099D01*
X82106Y20097D01*
X82112Y20096D01*
X81982D01*
X81988Y20097D01*
X81994Y20099D01*
X81999Y20102D01*
X82003Y20107D01*
X82007Y20113D01*
X82010Y20120D01*
X82012Y20128D01*
X82013Y20138D01*
X82014Y20150D01*
X82015Y20162D01*
X82080D01*
X82080Y20150D01*
D02*
G37*
G36*
X85409Y20076D02*
X85397Y20064D01*
X85378Y20041D01*
X85370Y20031D01*
X85365Y20021D01*
X85361Y20012D01*
X85359Y20004D01*
X85358Y19997D01*
X85359Y19990D01*
X85362Y19984D01*
X85292Y20096D01*
X85296Y20092D01*
X85301Y20089D01*
X85307Y20089D01*
X85315Y20090D01*
X85324Y20094D01*
X85333Y20100D01*
X85344Y20108D01*
X85356Y20117D01*
X85384Y20143D01*
X85409Y20076D01*
D02*
G37*
G36*
X82801Y20038D02*
X82788Y20025D01*
X82767Y20001D01*
X82760Y19990D01*
X82754Y19980D01*
X82750Y19972D01*
X82748Y19964D01*
X82748Y19957D01*
X82750Y19951D01*
X82753Y19946D01*
X82663Y20037D01*
X82668Y20033D01*
X82674Y20032D01*
X82680Y20032D01*
X82688Y20034D01*
X82697Y20038D01*
X82707Y20043D01*
X82717Y20051D01*
X82729Y20060D01*
X82755Y20084D01*
X82801Y20038D01*
D02*
G37*
G36*
X80832D02*
X80819Y20025D01*
X80799Y20001D01*
X80791Y19990D01*
X80786Y19980D01*
X80782Y19972D01*
X80780Y19964D01*
X80780Y19957D01*
X80781Y19951D01*
X80785Y19946D01*
X80694Y20037D01*
X80699Y20033D01*
X80705Y20032D01*
X80712Y20032D01*
X80720Y20034D01*
X80728Y20038D01*
X80738Y20043D01*
X80749Y20051D01*
X80760Y20060D01*
X80786Y20084D01*
X80832Y20038D01*
D02*
G37*
G36*
X79454D02*
X79441Y20025D01*
X79421Y20001D01*
X79413Y19990D01*
X79408Y19980D01*
X79404Y19972D01*
X79402Y19964D01*
X79402Y19957D01*
X79403Y19951D01*
X79407Y19946D01*
X79316Y20037D01*
X79321Y20033D01*
X79327Y20032D01*
X79334Y20032D01*
X79342Y20034D01*
X79351Y20038D01*
X79360Y20043D01*
X79371Y20051D01*
X79382Y20060D01*
X79408Y20084D01*
X79454Y20038D01*
D02*
G37*
G36*
X80219Y20190D02*
X80263Y20161D01*
X80315Y20150D01*
X80327D01*
X80372Y20139D01*
Y20017D01*
X80267D01*
Y20070D01*
X79870D01*
Y19689D01*
X79509D01*
Y19948D01*
X79514Y19952D01*
X79931Y20370D01*
X80039D01*
X80219Y20190D01*
D02*
G37*
G36*
X81570Y20130D02*
X81594Y20110D01*
X81604Y20102D01*
X81614Y20097D01*
X81623Y20093D01*
X81631Y20091D01*
X81637Y20091D01*
X81643Y20092D01*
X81648Y20096D01*
X81558Y20005D01*
X81561Y20010D01*
X81563Y20016D01*
X81563Y20023D01*
X81561Y20031D01*
X81557Y20039D01*
X81551Y20049D01*
X81544Y20060D01*
X81535Y20071D01*
X81510Y20097D01*
X81556Y20143D01*
X81570Y20130D01*
D02*
G37*
G36*
X78148Y20069D02*
X78150Y20063D01*
X78153Y20058D01*
X78158Y20054D01*
X78164Y20050D01*
X78171Y20048D01*
X78180Y20045D01*
X78190Y20044D01*
X78201Y20043D01*
X78213Y20042D01*
Y19977D01*
X78201Y19977D01*
X78190Y19976D01*
X78180Y19974D01*
X78171Y19972D01*
X78164Y19969D01*
X78158Y19966D01*
X78153Y19961D01*
X78150Y19957D01*
X78148Y19951D01*
X78147Y19945D01*
Y20075D01*
X78148Y20069D01*
D02*
G37*
G36*
X84776Y19935D02*
X84775Y19941D01*
X84773Y19947D01*
X84770Y19952D01*
X84765Y19956D01*
X84759Y19959D01*
X84752Y19962D01*
X84744Y19965D01*
X84734Y19966D01*
X84722Y19967D01*
X84710Y19967D01*
Y20032D01*
X84722Y20033D01*
X84734Y20034D01*
X84744Y20035D01*
X84752Y20038D01*
X84759Y20041D01*
X84765Y20044D01*
X84770Y20048D01*
X84773Y20053D01*
X84775Y20059D01*
X84776Y20065D01*
Y19935D01*
D02*
G37*
G36*
X84605Y20059D02*
X84607Y20053D01*
X84610Y20048D01*
X84614Y20044D01*
X84620Y20041D01*
X84628Y20038D01*
X84636Y20035D01*
X84646Y20034D01*
X84658Y20033D01*
X84670Y20032D01*
Y19967D01*
X84658Y19967D01*
X84646Y19966D01*
X84636Y19965D01*
X84628Y19962D01*
X84620Y19959D01*
X84614Y19956D01*
X84610Y19952D01*
X84607Y19947D01*
X84605Y19941D01*
X84604Y19935D01*
Y20065D01*
X84605Y20059D01*
D02*
G37*
G36*
X84297Y20246D02*
X84309Y20198D01*
X84309D01*
X84309Y20198D01*
Y19919D01*
X83446D01*
Y20022D01*
X83593D01*
X83644Y20033D01*
X83688Y20062D01*
X84013Y20387D01*
X84157D01*
X84297Y20246D01*
D02*
G37*
G36*
X78046Y19914D02*
X78041Y19917D01*
X78035Y19919D01*
X78028Y19919D01*
X78020Y19917D01*
X78012Y19913D01*
X78002Y19908D01*
X77991Y19900D01*
X77980Y19891D01*
X77954Y19867D01*
X77908Y19913D01*
X77921Y19926D01*
X77941Y19950D01*
X77949Y19961D01*
X77955Y19970D01*
X77958Y19979D01*
X77960Y19987D01*
X77960Y19994D01*
X77959Y20000D01*
X77955Y20005D01*
X78046Y19914D01*
D02*
G37*
G36*
X77268Y20000D02*
X77266Y19994D01*
X77266Y19987D01*
X77268Y19979D01*
X77272Y19970D01*
X77277Y19961D01*
X77285Y19950D01*
X77294Y19939D01*
X77318Y19913D01*
X77272Y19867D01*
X77259Y19880D01*
X77235Y19900D01*
X77224Y19908D01*
X77215Y19913D01*
X77206Y19917D01*
X77198Y19919D01*
X77191Y19919D01*
X77185Y19917D01*
X77181Y19914D01*
X77271Y20005D01*
X77268Y20000D01*
D02*
G37*
G36*
X80475Y19817D02*
X80474Y19823D01*
X80472Y19829D01*
X80469Y19833D01*
X80464Y19838D01*
X80458Y19841D01*
X80451Y19844D01*
X80442Y19846D01*
X80432Y19848D01*
X80421Y19849D01*
X80409Y19849D01*
Y19914D01*
X80421Y19915D01*
X80432Y19916D01*
X80442Y19917D01*
X80451Y19920D01*
X80458Y19923D01*
X80464Y19926D01*
X80469Y19930D01*
X80472Y19935D01*
X80474Y19941D01*
X80475Y19947D01*
Y19817D01*
D02*
G37*
G36*
X80166Y19941D02*
X80168Y19935D01*
X80171Y19930D01*
X80176Y19926D01*
X80181Y19923D01*
X80189Y19920D01*
X80197Y19917D01*
X80207Y19916D01*
X80219Y19915D01*
X80231Y19914D01*
Y19849D01*
X80219Y19849D01*
X80207Y19848D01*
X80197Y19846D01*
X80189Y19844D01*
X80181Y19841D01*
X80176Y19838D01*
X80171Y19833D01*
X80168Y19829D01*
X80166Y19823D01*
X80165Y19817D01*
Y19947D01*
X80166Y19941D01*
D02*
G37*
G36*
X81884Y19849D02*
X81885Y19838D01*
X81889Y19828D01*
X81893Y19820D01*
X81899Y19813D01*
X81906Y19807D01*
X81915Y19802D01*
X81924Y19799D01*
X81936Y19797D01*
X81948Y19796D01*
X81850Y19731D01*
X81753Y19796D01*
X81765Y19797D01*
X81776Y19799D01*
X81786Y19802D01*
X81794Y19807D01*
X81802Y19813D01*
X81807Y19820D01*
X81812Y19828D01*
X81815Y19838D01*
X81817Y19849D01*
X81818Y19861D01*
X81883D01*
X81884Y19849D01*
D02*
G37*
G36*
X83345Y19842D02*
X83347Y19837D01*
X83350Y19832D01*
X83355Y19828D01*
X83361Y19824D01*
X83368Y19821D01*
X83377Y19819D01*
X83387Y19817D01*
X83398Y19816D01*
X83410Y19816D01*
Y19751D01*
X83398Y19751D01*
X83377Y19749D01*
X83369Y19747D01*
X83362Y19745D01*
X83356Y19742D01*
X83351Y19739D01*
X83348Y19735D01*
X83346Y19730D01*
X83345Y19726D01*
X83344Y19848D01*
X83345Y19842D01*
D02*
G37*
G36*
X81376Y19823D02*
X81378Y19817D01*
X81382Y19812D01*
X81386Y19808D01*
X81392Y19804D01*
X81400Y19801D01*
X81408Y19799D01*
X81418Y19798D01*
X81429Y19797D01*
X81442Y19796D01*
Y19731D01*
X81429Y19731D01*
X81383Y19728D01*
X81379Y19728D01*
X81377Y19727D01*
X81377Y19726D01*
X81376Y19829D01*
X81376Y19823D01*
D02*
G37*
%LPC*%
G36*
X73868Y31008D02*
X73801Y30999D01*
X73756Y30980D01*
X73547D01*
X73502Y30999D01*
X73435Y31008D01*
X73368Y30999D01*
X73305Y30973D01*
X73251Y30932D01*
X73210Y30878D01*
X73184Y30815D01*
X73176Y30750D01*
X73168D01*
Y30689D01*
X73164Y30669D01*
Y30561D01*
X73168Y30541D01*
Y30286D01*
X73661D01*
X74155D01*
Y30353D01*
Y30551D01*
X74159Y30571D01*
Y30669D01*
X74155Y30689D01*
Y30750D01*
X74142D01*
X74124Y30776D01*
X74119Y30815D01*
X74093Y30878D01*
X74052Y30932D01*
X73998Y30973D01*
X73935Y30999D01*
X73868Y31008D01*
D02*
G37*
G36*
X72047Y31423D02*
X71934Y31408D01*
X71828Y31364D01*
X71737Y31294D01*
X71668Y31203D01*
X71624Y31098D01*
X71609Y30984D01*
X71624Y30871D01*
X71668Y30765D01*
X71737Y30674D01*
X71828Y30605D01*
X71934Y30561D01*
X72047Y30546D01*
X72161Y30561D01*
X72266Y30605D01*
X72357Y30674D01*
X72427Y30765D01*
X72471Y30871D01*
X72486Y30984D01*
X72471Y31098D01*
X72427Y31203D01*
X72357Y31294D01*
X72266Y31364D01*
X72161Y31408D01*
X72047Y31423D01*
D02*
G37*
G36*
X72766Y29996D02*
X72681Y29979D01*
X72608Y29931D01*
X72560Y29859D01*
X72543Y29774D01*
X72560Y29689D01*
X72608Y29616D01*
Y29616D01*
X72560Y29544D01*
X72543Y29459D01*
X72560Y29374D01*
X72608Y29301D01*
X72681Y29253D01*
X72766Y29236D01*
X72851Y29253D01*
X72923Y29301D01*
X72971Y29374D01*
X72988Y29459D01*
X72971Y29544D01*
X72923Y29616D01*
Y29616D01*
X72971Y29689D01*
X72988Y29774D01*
X72971Y29859D01*
X72923Y29931D01*
X72851Y29979D01*
X72766Y29996D01*
D02*
G37*
G36*
X86831Y28548D02*
Y28547D01*
X86831Y28547D01*
X82500D01*
X82500Y28547D01*
Y28548D01*
X82417Y28537D01*
X82340Y28505D01*
X82274Y28454D01*
X82224Y28388D01*
X82192Y28311D01*
X82181Y28228D01*
X82181D01*
Y23898D01*
X82181D01*
X82192Y23815D01*
X82224Y23738D01*
X82274Y23672D01*
X82340Y23621D01*
X82417Y23589D01*
X82500Y23578D01*
Y23579D01*
X86831D01*
Y23578D01*
X86913Y23589D01*
X86990Y23621D01*
X87056Y23672D01*
X87107Y23738D01*
X87139Y23815D01*
X87150Y23898D01*
X87150D01*
X87150Y23898D01*
Y28228D01*
X87150Y28228D01*
X87150D01*
X87139Y28311D01*
X87107Y28388D01*
X87056Y28454D01*
X86990Y28505D01*
X86913Y28537D01*
X86831Y28548D01*
D02*
G37*
G36*
X70927Y29399D02*
X70433D01*
X69939D01*
Y29250D01*
Y28935D01*
Y28620D01*
Y28554D01*
X70433D01*
Y28504D01*
D01*
Y28554D01*
X70927D01*
Y28572D01*
X70945Y28587D01*
X71030Y28604D01*
X71102Y28652D01*
X71150Y28724D01*
X71167Y28809D01*
X71150Y28894D01*
X71102Y28966D01*
Y28967D01*
X71150Y29039D01*
X71167Y29124D01*
X71150Y29209D01*
X71102Y29281D01*
X71030Y29329D01*
X70945Y29346D01*
X70927Y29361D01*
Y29399D01*
D02*
G37*
G36*
X72303Y28510D02*
X72218Y28493D01*
X72151Y28448D01*
X72083Y28493D01*
X71998Y28510D01*
X71913Y28493D01*
X71841Y28445D01*
X71793Y28372D01*
X71776Y28287D01*
X71793Y28202D01*
X71841Y28130D01*
X71913Y28082D01*
X71998Y28065D01*
X72083Y28082D01*
X72151Y28127D01*
X72218Y28082D01*
X72303Y28065D01*
X72388Y28082D01*
X72460Y28130D01*
X72509Y28202D01*
X72526Y28287D01*
X72509Y28372D01*
X72460Y28445D01*
X72388Y28493D01*
X72303Y28510D01*
D02*
G37*
G36*
X70927Y28454D02*
X70483D01*
Y28306D01*
X70927D01*
Y28454D01*
D02*
G37*
G36*
X70383D02*
X69939D01*
Y28306D01*
X70383D01*
Y28454D01*
D02*
G37*
G36*
X75650Y27634D02*
X75564Y27617D01*
X75492Y27569D01*
X75444Y27497D01*
X75427Y27411D01*
X75444Y27326D01*
X75492Y27254D01*
X75564Y27206D01*
X75650Y27189D01*
X75735Y27206D01*
X75807Y27254D01*
X75855Y27326D01*
X75872Y27411D01*
X75855Y27497D01*
X75807Y27569D01*
X75735Y27617D01*
X75650Y27634D01*
D02*
G37*
G36*
X76329Y27850D02*
X76244Y27833D01*
X76171Y27785D01*
X76123Y27713D01*
X76106Y27628D01*
X76123Y27543D01*
X76171Y27471D01*
X76201Y27451D01*
Y27401D01*
X76171Y27382D01*
X76123Y27310D01*
X76106Y27224D01*
X76123Y27139D01*
X76171Y27067D01*
X76244Y27019D01*
X76329Y27002D01*
X76414Y27019D01*
X76486Y27067D01*
X76534Y27139D01*
X76551Y27224D01*
X76534Y27310D01*
X76486Y27382D01*
X76457Y27401D01*
Y27451D01*
X76486Y27471D01*
X76534Y27543D01*
X76551Y27628D01*
X76534Y27713D01*
X76486Y27785D01*
X76414Y27833D01*
X76329Y27850D01*
D02*
G37*
G36*
X74075Y27716D02*
X73990Y27699D01*
X73918Y27651D01*
X73869Y27578D01*
X73852Y27493D01*
X73869Y27408D01*
X73918Y27336D01*
X73945Y27318D01*
X73946Y27314D01*
X73942Y27260D01*
X73888Y27224D01*
X73840Y27152D01*
X73823Y27067D01*
X73832Y27020D01*
X73792Y26970D01*
X73711D01*
Y26822D01*
X74155D01*
Y26878D01*
X74203Y26910D01*
X74251Y26982D01*
X74268Y27067D01*
X74251Y27152D01*
X74203Y27224D01*
X74175Y27242D01*
X74174Y27246D01*
X74179Y27300D01*
X74232Y27336D01*
X74280Y27408D01*
X74297Y27493D01*
X74280Y27578D01*
X74232Y27651D01*
X74160Y27699D01*
X74075Y27716D01*
D02*
G37*
G36*
X73611Y26970D02*
X73168D01*
Y26822D01*
X73611D01*
Y26970D01*
D02*
G37*
G36*
X74596Y27267D02*
X74511Y27250D01*
X74439Y27202D01*
X74391Y27130D01*
X74374Y27045D01*
X74391Y26960D01*
X74439Y26887D01*
X74511Y26839D01*
X74596Y26822D01*
X74682Y26839D01*
X74739Y26877D01*
X74807Y26832D01*
X74892Y26815D01*
X74977Y26832D01*
X75049Y26880D01*
X75097Y26952D01*
X75114Y27037D01*
X75097Y27122D01*
X75049Y27195D01*
X74977Y27243D01*
X74892Y27260D01*
X74807Y27243D01*
X74750Y27205D01*
X74682Y27250D01*
X74596Y27267D01*
D02*
G37*
G36*
X74616Y26756D02*
X74539Y26746D01*
X74466Y26716D01*
X74404Y26668D01*
X74357Y26606D01*
X74351Y26592D01*
X74155D01*
Y26722D01*
X73661D01*
X73168D01*
Y26573D01*
Y26333D01*
X72836D01*
X72795Y26334D01*
X72780Y26336D01*
X72779Y26336D01*
X72777Y26336D01*
X72777D01*
X72777Y26336D01*
X72767Y26336D01*
X72726Y26344D01*
X72641Y26328D01*
X72569Y26279D01*
X72521Y26207D01*
X72504Y26122D01*
X72521Y26037D01*
X72569Y25965D01*
X72641Y25917D01*
X72726Y25900D01*
X72811Y25917D01*
X72819Y25922D01*
X72874Y25899D01*
X72885Y25845D01*
X72933Y25773D01*
X73005Y25725D01*
X73091Y25708D01*
X73129Y25715D01*
X73168Y25684D01*
Y25562D01*
X73661D01*
X74155D01*
Y25628D01*
Y25997D01*
X74205Y26002D01*
X74214Y25958D01*
X74262Y25886D01*
X74334Y25838D01*
X74419Y25821D01*
X74504Y25838D01*
X74577Y25886D01*
X74625Y25958D01*
X74642Y26043D01*
X74629Y26109D01*
X74654Y26156D01*
X74662Y26163D01*
X74694Y26168D01*
X74766Y26197D01*
X74828Y26245D01*
X74875Y26307D01*
X74905Y26379D01*
X74916Y26457D01*
X74905Y26534D01*
X74875Y26606D01*
X74828Y26668D01*
X74766Y26716D01*
X74694Y26746D01*
X74616Y26756D01*
D02*
G37*
G36*
X69685Y27531D02*
X69608Y27520D01*
X69535Y27490D01*
X69473Y27443D01*
X69426Y27381D01*
X69396Y27309D01*
X69386Y27231D01*
X69396Y27154D01*
X69426Y27081D01*
X69473Y27019D01*
X69496Y27002D01*
Y26952D01*
X69473Y26934D01*
X69426Y26872D01*
X69396Y26800D01*
X69386Y26722D01*
X69396Y26645D01*
X69426Y26573D01*
X69473Y26511D01*
X69535Y26463D01*
X69608Y26433D01*
X69685Y26423D01*
X69763Y26433D01*
X69835Y26463D01*
X69853Y26477D01*
X69855Y26478D01*
X69856Y26478D01*
X69873Y26479D01*
X69939D01*
Y26349D01*
X70433D01*
X70927D01*
Y26416D01*
Y26731D01*
Y27128D01*
X70018D01*
X70009Y27133D01*
X69977Y27177D01*
X69984Y27231D01*
X69974Y27309D01*
X69944Y27381D01*
X69897Y27443D01*
X69835Y27490D01*
X69763Y27520D01*
X69685Y27531D01*
D02*
G37*
G36*
X70927Y26249D02*
X70433D01*
X69939D01*
Y26221D01*
X69889Y26185D01*
X69832Y26197D01*
X69747Y26180D01*
X69675Y26132D01*
X69627Y26060D01*
X69610Y25974D01*
X69627Y25889D01*
X69675Y25817D01*
X69719Y25788D01*
X69696Y25754D01*
X69679Y25669D01*
X69696Y25584D01*
X69744Y25512D01*
X69816Y25464D01*
X69902Y25447D01*
X69939Y25416D01*
Y25404D01*
X70433D01*
X70927D01*
Y25471D01*
Y25786D01*
Y26101D01*
Y26249D01*
D02*
G37*
G36*
X75531Y26226D02*
X75446Y26209D01*
X75374Y26161D01*
X75326Y26089D01*
X75309Y26004D01*
X75326Y25919D01*
X75374Y25847D01*
X75446Y25798D01*
X75531Y25782D01*
X75616Y25798D01*
X75688Y25847D01*
X75737Y25919D01*
X75754Y26004D01*
X75737Y26089D01*
X75688Y26161D01*
X75616Y26209D01*
X75531Y26226D01*
D02*
G37*
G36*
X76043Y26216D02*
X75958Y26200D01*
X75886Y26151D01*
X75838Y26079D01*
X75821Y25994D01*
X75838Y25909D01*
X75886Y25837D01*
X75958Y25789D01*
X76043Y25772D01*
X76128Y25789D01*
X76148Y25802D01*
X76191Y25738D01*
X76263Y25690D01*
X76348Y25673D01*
X76433Y25690D01*
X76505Y25738D01*
X76513Y25750D01*
X76573D01*
X76593Y25720D01*
X76665Y25672D01*
X76750Y25655D01*
X76835Y25672D01*
X76908Y25720D01*
X76956Y25792D01*
X76973Y25878D01*
X76956Y25963D01*
X76908Y26035D01*
X76835Y26083D01*
X76750Y26100D01*
X76665Y26083D01*
X76593Y26035D01*
X76585Y26023D01*
X76525D01*
X76505Y26053D01*
X76433Y26101D01*
X76348Y26118D01*
X76263Y26101D01*
X76243Y26088D01*
X76201Y26151D01*
X76128Y26200D01*
X76043Y26216D01*
D02*
G37*
G36*
X80069Y26000D02*
X79984Y25983D01*
X79912Y25935D01*
X79863Y25863D01*
X79847Y25778D01*
X79863Y25692D01*
X79912Y25620D01*
X79984Y25572D01*
X80069Y25555D01*
X80154Y25572D01*
X80226Y25620D01*
X80274Y25692D01*
X80291Y25778D01*
X80274Y25863D01*
X80226Y25935D01*
X80154Y25983D01*
X80069Y26000D01*
D02*
G37*
G36*
X79154D02*
X79068Y25983D01*
X78996Y25935D01*
X78948Y25863D01*
X78931Y25778D01*
X78948Y25692D01*
X78996Y25620D01*
X79068Y25572D01*
X79154Y25555D01*
X79239Y25572D01*
X79311Y25620D01*
X79359Y25692D01*
X79376Y25778D01*
X79359Y25863D01*
X79311Y25935D01*
X79239Y25983D01*
X79154Y26000D01*
D02*
G37*
G36*
X75600Y25528D02*
X75515Y25511D01*
X75443Y25462D01*
X75395Y25390D01*
X75393Y25381D01*
X75340Y25370D01*
X75305Y25423D01*
X75233Y25471D01*
X75148Y25488D01*
X75063Y25471D01*
X74990Y25423D01*
X74945Y25355D01*
X74872Y25370D01*
X74787Y25353D01*
X74779Y25348D01*
X74716Y25366D01*
X74685Y25413D01*
X74613Y25461D01*
X74528Y25478D01*
X74442Y25461D01*
X74370Y25413D01*
X74322Y25341D01*
X74305Y25256D01*
X74322Y25171D01*
X74370Y25099D01*
X74393Y25083D01*
X74361Y25036D01*
X74345Y24951D01*
X74361Y24866D01*
X74391Y24821D01*
X74365Y24771D01*
X74155D01*
Y24998D01*
Y25313D01*
Y25462D01*
X73661D01*
X73168D01*
Y25128D01*
X73129Y25097D01*
X73091Y25104D01*
X73005Y25087D01*
X72933Y25039D01*
X72885Y24967D01*
X72871Y24894D01*
X72854Y24898D01*
X72769Y24881D01*
X72697Y24832D01*
X72649Y24760D01*
X72632Y24675D01*
X72649Y24590D01*
X72697Y24518D01*
X72769Y24470D01*
X72854Y24453D01*
X72939Y24470D01*
X73012Y24518D01*
X73060Y24590D01*
X73074Y24663D01*
X73091Y24660D01*
X73129Y24667D01*
X73168Y24635D01*
Y24369D01*
Y24302D01*
X73661D01*
X74155D01*
Y24501D01*
X74698D01*
X74700Y24501D01*
X74703Y24500D01*
X74762Y24455D01*
X74834Y24425D01*
X74911Y24415D01*
X74989Y24425D01*
X75061Y24455D01*
X75123Y24503D01*
X75171Y24565D01*
X75201Y24637D01*
X75211Y24715D01*
X75201Y24792D01*
X75171Y24864D01*
X75123Y24926D01*
X75069Y24968D01*
X75064Y25021D01*
X75096Y25054D01*
X75148Y25043D01*
X75233Y25060D01*
X75305Y25108D01*
X75353Y25181D01*
X75355Y25190D01*
X75408Y25200D01*
X75443Y25148D01*
X75515Y25100D01*
X75600Y25083D01*
X75686Y25100D01*
X75758Y25148D01*
X75806Y25220D01*
X75823Y25305D01*
X75806Y25390D01*
X75758Y25462D01*
X75686Y25511D01*
X75600Y25528D01*
D02*
G37*
G36*
X70927Y25304D02*
X70433D01*
X69939D01*
Y25089D01*
X70433D01*
X70927D01*
Y25156D01*
Y25304D01*
D02*
G37*
G36*
Y24989D02*
X70433D01*
X69939D01*
Y24923D01*
X69289D01*
X69278Y24930D01*
X69193Y24947D01*
X69108Y24930D01*
X69036Y24882D01*
X68987Y24810D01*
X68971Y24724D01*
X68987Y24639D01*
X69033Y24572D01*
X68987Y24504D01*
X68971Y24419D01*
X68987Y24334D01*
X69036Y24262D01*
X69108Y24214D01*
X69193Y24197D01*
X69264Y24211D01*
X69939D01*
Y24144D01*
X70433D01*
X70927D01*
Y24211D01*
Y24526D01*
Y24841D01*
Y24989D01*
D02*
G37*
G36*
X81554Y25359D02*
X81468Y25342D01*
X81396Y25294D01*
X81348Y25221D01*
X81331Y25136D01*
X81348Y25051D01*
X81396Y24979D01*
X81468Y24931D01*
X81554Y24914D01*
X81639Y24931D01*
X81711Y24979D01*
X81759Y25051D01*
X81776Y25136D01*
X81759Y25221D01*
X81711Y25294D01*
X81639Y25342D01*
X81554Y25359D01*
D02*
G37*
G36*
X80344Y25321D02*
X80259Y25304D01*
X80187Y25256D01*
X80139Y25184D01*
X80122Y25098D01*
X80139Y25013D01*
X80187Y24941D01*
X80259Y24893D01*
X80344Y24876D01*
X80430Y24893D01*
X80502Y24941D01*
X80550Y25013D01*
X80567Y25098D01*
X80550Y25184D01*
X80502Y25256D01*
X80430Y25304D01*
X80344Y25321D01*
D02*
G37*
G36*
X72018Y24927D02*
X71933Y24910D01*
X71860Y24862D01*
X71812Y24790D01*
X71795Y24705D01*
X71812Y24620D01*
X71860Y24547D01*
X71933Y24499D01*
X72018Y24482D01*
X72103Y24499D01*
X72175Y24547D01*
X72223Y24620D01*
X72240Y24705D01*
X72223Y24790D01*
X72175Y24862D01*
X72103Y24910D01*
X72018Y24927D01*
D02*
G37*
G36*
X76772Y24652D02*
X76687Y24635D01*
X76614Y24586D01*
X76566Y24514D01*
X76549Y24429D01*
X76566Y24344D01*
X76614Y24272D01*
X76687Y24224D01*
X76772Y24207D01*
X76857Y24224D01*
X76929Y24272D01*
X76977Y24344D01*
X76994Y24429D01*
X76977Y24514D01*
X76929Y24586D01*
X76857Y24635D01*
X76772Y24652D01*
D02*
G37*
G36*
X74155Y24202D02*
X73661D01*
X73168D01*
Y24073D01*
X73118Y24058D01*
X73080Y24114D01*
X73008Y24162D01*
X72923Y24179D01*
X72838Y24162D01*
X72766Y24114D01*
X72718Y24042D01*
X72701Y23957D01*
X72718Y23872D01*
X72766Y23799D01*
X72838Y23751D01*
X72923Y23734D01*
X73008Y23751D01*
X73080Y23799D01*
X73118Y23855D01*
X73168Y23840D01*
Y23424D01*
Y23357D01*
X73661D01*
X74155D01*
Y23424D01*
Y23739D01*
Y24054D01*
Y24202D01*
D02*
G37*
G36*
X75974Y24858D02*
X75889Y24841D01*
X75817Y24793D01*
X75769Y24721D01*
X75752Y24636D01*
X75769Y24551D01*
X75817Y24479D01*
X75877Y24439D01*
X75890Y24421D01*
X75892Y24379D01*
X75858Y24327D01*
X75841Y24242D01*
X75858Y24157D01*
X75906Y24085D01*
X75978Y24037D01*
X76063Y24020D01*
X76148Y24037D01*
X76220Y24085D01*
X76268Y24157D01*
X76285Y24242D01*
X76268Y24327D01*
X76220Y24399D01*
X76161Y24439D01*
X76148Y24457D01*
X76145Y24499D01*
X76180Y24551D01*
X76197Y24636D01*
X76180Y24721D01*
X76132Y24793D01*
X76060Y24841D01*
X75974Y24858D01*
D02*
G37*
G36*
X70927Y24044D02*
X70433D01*
X69939D01*
Y23896D01*
Y23830D01*
X70433D01*
X70927D01*
Y23896D01*
Y24044D01*
D02*
G37*
G36*
X80226Y24799D02*
X80141Y24782D01*
X80069Y24734D01*
X80021Y24662D01*
X80004Y24577D01*
X80021Y24492D01*
X80069Y24420D01*
X80113Y24390D01*
Y24330D01*
X80069Y24301D01*
X80021Y24229D01*
X80004Y24144D01*
X80021Y24059D01*
X80069Y23986D01*
X80141Y23938D01*
X80226Y23921D01*
X80311Y23938D01*
X80367Y23915D01*
X80375Y23872D01*
X80423Y23799D01*
X80496Y23751D01*
X80581Y23734D01*
X80666Y23751D01*
X80738Y23799D01*
X80786Y23872D01*
X80803Y23957D01*
X80786Y24042D01*
X80738Y24114D01*
X80666Y24162D01*
X80581Y24179D01*
X80496Y24162D01*
X80440Y24185D01*
X80432Y24229D01*
X80384Y24301D01*
X80340Y24330D01*
Y24390D01*
X80384Y24420D01*
X80432Y24492D01*
X80449Y24577D01*
X80432Y24662D01*
X80384Y24734D01*
X80311Y24782D01*
X80226Y24799D01*
D02*
G37*
G36*
X79244Y24788D02*
X79159Y24771D01*
X79086Y24723D01*
X79038Y24650D01*
X79021Y24565D01*
X79038Y24480D01*
X79086Y24408D01*
X79128Y24380D01*
X79128Y24356D01*
X79121Y24325D01*
X79055Y24281D01*
X79007Y24209D01*
X78990Y24124D01*
X79007Y24039D01*
X79055Y23967D01*
X79127Y23918D01*
X79183Y23907D01*
X79194Y23852D01*
X79242Y23780D01*
X79314Y23732D01*
X79400Y23715D01*
X79485Y23732D01*
X79557Y23780D01*
X79605Y23852D01*
X79622Y23937D01*
X79605Y24022D01*
X79557Y24094D01*
X79543Y24104D01*
X79540Y24120D01*
X79547Y24161D01*
X79608Y24201D01*
X79656Y24274D01*
X79673Y24359D01*
X79656Y24444D01*
X79608Y24516D01*
X79535Y24564D01*
X79463Y24578D01*
X79449Y24650D01*
X79401Y24723D01*
X79329Y24771D01*
X79244Y24788D01*
D02*
G37*
G36*
X72165Y24337D02*
X72080Y24320D01*
X72008Y24271D01*
X71960Y24199D01*
X71943Y24114D01*
X71960Y24029D01*
X72002Y23967D01*
X71960Y23904D01*
X71943Y23819D01*
X71960Y23734D01*
X72008Y23662D01*
X72080Y23613D01*
X72165Y23597D01*
X72250Y23613D01*
X72323Y23662D01*
X72371Y23734D01*
X72388Y23819D01*
X72371Y23904D01*
X72329Y23967D01*
X72371Y24029D01*
X72388Y24114D01*
X72371Y24199D01*
X72323Y24271D01*
X72250Y24320D01*
X72165Y24337D01*
D02*
G37*
G36*
X81063Y23961D02*
X80978Y23944D01*
X80906Y23896D01*
X80858Y23824D01*
X80841Y23739D01*
X80858Y23653D01*
X80906Y23581D01*
X80978Y23533D01*
X81063Y23516D01*
X81148Y23533D01*
X81220Y23581D01*
X81268Y23653D01*
X81285Y23739D01*
X81268Y23824D01*
X81220Y23896D01*
X81148Y23944D01*
X81063Y23961D01*
D02*
G37*
G36*
X71230Y23795D02*
X71145Y23778D01*
X71073Y23730D01*
X71025Y23658D01*
X71008Y23573D01*
X71025Y23488D01*
X71067Y23425D01*
X71025Y23363D01*
X71008Y23278D01*
X71025Y23192D01*
X71073Y23120D01*
X71145Y23072D01*
X71230Y23055D01*
X71315Y23072D01*
X71388Y23120D01*
X71436Y23192D01*
X71453Y23278D01*
X71436Y23363D01*
X71394Y23425D01*
X71436Y23488D01*
X71453Y23573D01*
X71436Y23658D01*
X71388Y23730D01*
X71315Y23778D01*
X71230Y23795D01*
D02*
G37*
G36*
X68730Y23671D02*
X68120D01*
X67933Y23484D01*
Y23130D01*
X68120Y22943D01*
X68730D01*
Y23010D01*
X69273D01*
Y23064D01*
X69311Y23095D01*
X69396Y23111D01*
X69468Y23160D01*
X69516Y23232D01*
X69533Y23317D01*
X69516Y23402D01*
X69468Y23474D01*
X69396Y23522D01*
X69311Y23539D01*
X69273Y23570D01*
Y23604D01*
X68730D01*
Y23671D01*
D02*
G37*
G36*
X70927Y23730D02*
X70433D01*
X69939D01*
Y23581D01*
Y23266D01*
Y22951D01*
Y22885D01*
X70433D01*
X70927D01*
Y22951D01*
Y23266D01*
Y23581D01*
Y23730D01*
D02*
G37*
G36*
X79961Y22909D02*
X79876Y22892D01*
X79813Y22851D01*
X79750Y22892D01*
X79665Y22909D01*
X79580Y22892D01*
X79508Y22844D01*
X79460Y22772D01*
X79443Y22687D01*
X79460Y22602D01*
X79508Y22530D01*
X79580Y22482D01*
X79665Y22465D01*
X79750Y22482D01*
X79813Y22523D01*
X79876Y22482D01*
X79961Y22465D01*
X80046Y22482D01*
X80118Y22530D01*
X80166Y22602D01*
X80183Y22687D01*
X80166Y22772D01*
X80118Y22844D01*
X80046Y22892D01*
X79961Y22909D01*
D02*
G37*
G36*
X78051Y26020D02*
X77966Y26003D01*
X77894Y25954D01*
X77846Y25882D01*
X77829Y25797D01*
X77846Y25712D01*
X77894Y25640D01*
X77904Y25633D01*
X77907Y25631D01*
X77911Y25626D01*
X77915Y25622D01*
X77917Y25618D01*
X77918Y25616D01*
X77919Y25614D01*
X77919Y25614D01*
Y23103D01*
X77919Y23102D01*
X77918Y23100D01*
X77916Y23097D01*
X77914Y23093D01*
X77910Y23089D01*
X77906Y23084D01*
X77897Y23078D01*
X77849Y23005D01*
X77832Y22920D01*
X77849Y22835D01*
X77897Y22763D01*
X77969Y22715D01*
X78054Y22698D01*
X78139Y22715D01*
X78212Y22763D01*
X78260Y22835D01*
X78277Y22920D01*
X78260Y23005D01*
X78212Y23078D01*
X78203Y23084D01*
X78198Y23089D01*
X78195Y23093D01*
X78192Y23097D01*
X78191Y23100D01*
X78190Y23102D01*
X78189Y23103D01*
Y25616D01*
X78190Y25617D01*
X78191Y25620D01*
X78193Y25623D01*
X78195Y25627D01*
X78199Y25632D01*
X78201Y25635D01*
X78208Y25640D01*
X78257Y25712D01*
X78274Y25797D01*
X78257Y25882D01*
X78208Y25954D01*
X78136Y26003D01*
X78051Y26020D01*
D02*
G37*
G36*
X72106Y22929D02*
X72021Y22912D01*
X71949Y22864D01*
X71901Y22792D01*
X71884Y22707D01*
X71901Y22622D01*
X71949Y22549D01*
X72021Y22501D01*
X72106Y22484D01*
X72191Y22501D01*
X72264Y22549D01*
X72312Y22622D01*
X72329Y22707D01*
X72312Y22792D01*
X72264Y22864D01*
X72191Y22912D01*
X72106Y22929D01*
D02*
G37*
G36*
X72870Y23215D02*
X72785Y23198D01*
X72712Y23149D01*
X72664Y23077D01*
X72647Y22992D01*
X72664Y22907D01*
X72696Y22860D01*
X72687Y22854D01*
X72639Y22782D01*
X72622Y22697D01*
X72639Y22612D01*
X72687Y22540D01*
X72759Y22491D01*
X72844Y22474D01*
X72930Y22491D01*
X73002Y22540D01*
X73050Y22612D01*
X73067Y22697D01*
X73050Y22782D01*
X73018Y22829D01*
X73027Y22835D01*
X73075Y22907D01*
X73092Y22992D01*
X73075Y23077D01*
X73027Y23149D01*
X72955Y23198D01*
X72870Y23215D01*
D02*
G37*
G36*
X82844Y22850D02*
X82759Y22833D01*
X82687Y22785D01*
X82639Y22713D01*
X82622Y22628D01*
X82639Y22543D01*
X82687Y22471D01*
X82759Y22422D01*
X82844Y22406D01*
X82930Y22422D01*
X83002Y22471D01*
X83050Y22543D01*
X83067Y22628D01*
X83050Y22713D01*
X83002Y22785D01*
X82930Y22833D01*
X82844Y22850D01*
D02*
G37*
G36*
X85915Y22791D02*
X85830Y22774D01*
X85758Y22726D01*
X85710Y22654D01*
X85693Y22569D01*
X85710Y22484D01*
X85758Y22412D01*
X85830Y22363D01*
X85915Y22347D01*
X86000Y22363D01*
X86073Y22412D01*
X86121Y22484D01*
X86138Y22569D01*
X86121Y22654D01*
X86073Y22726D01*
X86000Y22774D01*
X85915Y22791D01*
D02*
G37*
G36*
X87677Y22693D02*
X87592Y22676D01*
X87520Y22628D01*
X87472Y22556D01*
X87455Y22470D01*
X87472Y22385D01*
X87520Y22313D01*
X87592Y22265D01*
X87677Y22248D01*
X87762Y22265D01*
X87834Y22313D01*
X87883Y22385D01*
X87900Y22470D01*
X87883Y22556D01*
X87834Y22628D01*
X87762Y22676D01*
X87677Y22693D01*
D02*
G37*
G36*
X85305Y22565D02*
X85220Y22548D01*
X85148Y22500D01*
X85100Y22428D01*
X85083Y22343D01*
X85100Y22257D01*
X85148Y22185D01*
X85220Y22137D01*
X85305Y22120D01*
X85390Y22137D01*
X85462Y22185D01*
X85511Y22257D01*
X85527Y22343D01*
X85511Y22428D01*
X85462Y22500D01*
X85390Y22548D01*
X85305Y22565D01*
D02*
G37*
G36*
X84577D02*
X84492Y22548D01*
X84420Y22500D01*
X84371Y22428D01*
X84354Y22343D01*
X84371Y22257D01*
X84420Y22185D01*
X84492Y22137D01*
X84577Y22120D01*
X84662Y22137D01*
X84734Y22185D01*
X84782Y22257D01*
X84799Y22343D01*
X84782Y22428D01*
X84734Y22500D01*
X84662Y22548D01*
X84577Y22565D01*
D02*
G37*
G36*
X78888Y22215D02*
X78803Y22198D01*
X78731Y22150D01*
X78682Y22077D01*
X78665Y21992D01*
X78682Y21907D01*
X78731Y21835D01*
X78803Y21787D01*
X78888Y21770D01*
X78973Y21787D01*
X79032Y21827D01*
X79098Y21783D01*
X79183Y21766D01*
X79268Y21783D01*
X79340Y21831D01*
X79389Y21903D01*
X79405Y21988D01*
X79389Y22073D01*
X79340Y22145D01*
X79268Y22194D01*
X79183Y22211D01*
X79098Y22194D01*
X79039Y22154D01*
X78973Y22198D01*
X78888Y22215D01*
D02*
G37*
G36*
X70927Y22785D02*
X70433D01*
X69939D01*
Y22636D01*
Y22321D01*
Y22006D01*
Y21691D01*
Y21376D01*
X70927D01*
Y21691D01*
Y22006D01*
Y22321D01*
Y22636D01*
Y22785D01*
D02*
G37*
G36*
X71278Y21590D02*
X71193Y21574D01*
X71121Y21525D01*
X71073Y21453D01*
X71056Y21368D01*
X71073Y21283D01*
X71121Y21211D01*
X71193Y21163D01*
X71278Y21146D01*
X71363Y21163D01*
X71435Y21211D01*
X71483Y21283D01*
X71500Y21368D01*
X71483Y21453D01*
X71435Y21525D01*
X71363Y21574D01*
X71278Y21590D01*
D02*
G37*
G36*
X87677Y20852D02*
X87592Y20835D01*
X87520Y20787D01*
X87472Y20715D01*
X87455Y20630D01*
X87472Y20545D01*
X87520Y20473D01*
X87592Y20424D01*
X87677Y20408D01*
X87762Y20424D01*
X87834Y20473D01*
X87883Y20545D01*
X87900Y20630D01*
X87883Y20715D01*
X87834Y20787D01*
X87762Y20835D01*
X87677Y20852D01*
D02*
G37*
%LPD*%
G36*
X70864Y29165D02*
X70873Y29164D01*
X70885Y29163D01*
Y29104D01*
X70873Y29104D01*
X70863Y29103D01*
X70858Y29102D01*
X70854Y29049D01*
X70845Y29059D01*
X70835Y29069D01*
X70826Y29077D01*
X70825Y29078D01*
X70824Y29075D01*
Y29078D01*
X70816Y29084D01*
X70807Y29090D01*
X70797Y29095D01*
X70787Y29099D01*
X70777Y29102D01*
X70768Y29104D01*
X70758Y29104D01*
X70763Y29163D01*
X70772Y29164D01*
X70782Y29165D01*
X70792Y29168D01*
X70802Y29171D01*
X70812Y29176D01*
X70823Y29181D01*
X70824Y29182D01*
Y29193D01*
X70825Y29187D01*
X70826Y29183D01*
X70834Y29188D01*
X70845Y29195D01*
X70868Y29213D01*
X70864Y29165D01*
D02*
G37*
G36*
X70864Y28850D02*
X70873Y28849D01*
X70885Y28848D01*
Y28789D01*
X70873Y28789D01*
X70863Y28788D01*
X70858Y28787D01*
X70854Y28734D01*
X70845Y28744D01*
X70835Y28754D01*
X70826Y28762D01*
X70825Y28763D01*
X70824Y28760D01*
Y28763D01*
X70816Y28769D01*
X70807Y28775D01*
X70797Y28780D01*
X70787Y28784D01*
X70777Y28787D01*
X70768Y28789D01*
X70758Y28789D01*
X70763Y28848D01*
X70772Y28849D01*
X70782Y28850D01*
X70792Y28853D01*
X70802Y28856D01*
X70812Y28861D01*
X70823Y28866D01*
X70824Y28867D01*
Y28878D01*
X70825Y28872D01*
X70826Y28868D01*
X70834Y28873D01*
X70845Y28880D01*
X70868Y28898D01*
X70864Y28850D01*
D02*
G37*
G36*
X74430Y26392D02*
X74428Y26398D01*
X74424Y26403D01*
X74419Y26408D01*
X74413Y26412D01*
X74406Y26416D01*
X74399Y26419D01*
X74390Y26421D01*
X74380Y26423D01*
X74369Y26424D01*
X74357Y26424D01*
X74357Y26489D01*
X74369Y26490D01*
X74380Y26490D01*
X74390Y26492D01*
X74398Y26494D01*
X74406Y26497D01*
X74413Y26501D01*
X74419Y26505D01*
X74424Y26510D01*
X74428Y26516D01*
X74430Y26522D01*
X74430Y26392D01*
D02*
G37*
G36*
X74053Y26516D02*
X74055Y26510D01*
X74059Y26505D01*
X74063Y26501D01*
X74069Y26497D01*
X74077Y26494D01*
X74085Y26492D01*
X74095Y26490D01*
X74106Y26490D01*
X74119Y26489D01*
Y26424D01*
X74106Y26424D01*
X74095Y26423D01*
X74085Y26421D01*
X74077Y26419D01*
X74069Y26416D01*
X74063Y26412D01*
X74059Y26408D01*
X74055Y26403D01*
X74053Y26398D01*
X74053Y26392D01*
Y26522D01*
X74053Y26516D01*
D02*
G37*
G36*
X73269Y26112D02*
X73268Y26120D01*
X73266Y26126D01*
X73262Y26132D01*
X73256Y26137D01*
X73249Y26142D01*
X73241Y26145D01*
X73230Y26148D01*
X73219Y26150D01*
X73205Y26151D01*
X73190Y26152D01*
Y26230D01*
X73205Y26230D01*
X73256Y26233D01*
X73262Y26235D01*
X73266Y26236D01*
X73268Y26237D01*
X73269Y26239D01*
Y26112D01*
D02*
G37*
G36*
X72762Y26235D02*
X72769Y26234D01*
X72789Y26232D01*
X72851Y26231D01*
X72893Y26230D01*
X72912Y26152D01*
X72900Y26151D01*
X72889Y26150D01*
X72880Y26147D01*
X72871Y26144D01*
X72864Y26140D01*
X72858Y26134D01*
X72852Y26128D01*
X72848Y26121D01*
X72845Y26113D01*
X72843Y26104D01*
X72756Y26236D01*
X72762Y26235D01*
D02*
G37*
G36*
X69860Y27139D02*
X69859Y27133D01*
X69859Y27126D01*
X69860Y27119D01*
X69862Y27111D01*
X69866Y27104D01*
X69870Y27096D01*
X69876Y27088D01*
X69883Y27079D01*
X69891Y27071D01*
X69845Y27025D01*
X69837Y27033D01*
X69828Y27040D01*
X69820Y27046D01*
X69812Y27051D01*
X69805Y27054D01*
X69797Y27056D01*
X69790Y27057D01*
X69783Y27057D01*
X69777Y27056D01*
X69770Y27054D01*
X69862Y27146D01*
X69860Y27139D01*
D02*
G37*
G36*
X70041Y26876D02*
X70040Y26880D01*
X70038Y26883D01*
X70036Y26886D01*
X70032Y26889D01*
X70027Y26891D01*
X70021Y26893D01*
X70014Y26895D01*
X70006Y26896D01*
X69997Y26896D01*
X69987Y26897D01*
Y26962D01*
X69997Y26962D01*
X70014Y26964D01*
X70021Y26965D01*
X70027Y26967D01*
X70032Y26969D01*
X70036Y26972D01*
X70038Y26975D01*
X70040Y26979D01*
X70041Y26983D01*
Y26876D01*
D02*
G37*
G36*
X69932Y26647D02*
X69888Y26582D01*
X69876Y26582D01*
X69844Y26579D01*
X69836Y26578D01*
X69828Y26576D01*
X69821Y26574D01*
X69814Y26572D01*
X69809Y26569D01*
X69804Y26566D01*
X69876Y26675D01*
X69932Y26647D01*
D02*
G37*
G36*
X70041Y26549D02*
X70040Y26555D01*
X70038Y26561D01*
X70035Y26566D01*
X70030Y26570D01*
X70024Y26574D01*
X70017Y26576D01*
X70009Y26579D01*
X69999Y26580D01*
X69988Y26581D01*
X69976Y26582D01*
Y26647D01*
X69988Y26647D01*
X69999Y26648D01*
X70009Y26650D01*
X70017Y26652D01*
X70024Y26655D01*
X70030Y26658D01*
X70035Y26663D01*
X70038Y26667D01*
X70040Y26673D01*
X70041Y26679D01*
Y26549D01*
D02*
G37*
G36*
X69950Y25993D02*
X69954Y25983D01*
X69959Y25974D01*
X69965Y25966D01*
X69972Y25960D01*
X69979Y25954D01*
X69988Y25950D01*
X69997Y25947D01*
X70003Y25946D01*
X70012Y25948D01*
X70019Y25950D01*
X70026Y25952D01*
X70031Y25956D01*
X70035Y25959D01*
X70038Y25964D01*
X70040Y25969D01*
X70041Y25974D01*
Y25887D01*
X70040Y25887D01*
X70038Y25887D01*
X70035Y25886D01*
X69982Y25886D01*
Y25886D01*
X69981Y25886D01*
X69973Y25886D01*
X69954Y25884D01*
X69944Y25882D01*
X69909Y25874D01*
X69883Y25867D01*
X69869Y25862D01*
X69947Y26004D01*
X69950Y25993D01*
D02*
G37*
G36*
X69954Y25776D02*
X69989Y25766D01*
X70000Y25763D01*
X70021Y25760D01*
X70022Y25760D01*
X70026Y25760D01*
X70031Y25761D01*
X70035Y25762D01*
X70038Y25763D01*
X70040Y25765D01*
X70041Y25767D01*
Y25758D01*
X70051Y25758D01*
X70069Y25699D01*
X70061Y25698D01*
X70053Y25697D01*
X70047Y25694D01*
X70041Y25691D01*
Y25669D01*
X70040Y25675D01*
X70038Y25680D01*
X70035Y25684D01*
X70034Y25685D01*
X70030Y25681D01*
X70026Y25674D01*
X70023Y25667D01*
X70020Y25658D01*
X70018Y25649D01*
X69989Y25699D01*
X69982Y25699D01*
Y25712D01*
X69942Y25780D01*
X69954Y25776D01*
D02*
G37*
G36*
X73185Y24955D02*
X73195Y24946D01*
X73205Y24939D01*
X73215Y24932D01*
X73225Y24927D01*
X73235Y24922D01*
X73244Y24919D01*
X73246Y24920D01*
X73253Y24923D01*
X73259Y24926D01*
X73263Y24930D01*
X73266Y24935D01*
X73268Y24941D01*
X73269Y24947D01*
Y24915D01*
X73275Y24914D01*
Y24849D01*
X73269Y24849D01*
Y24817D01*
X73268Y24823D01*
X73266Y24829D01*
X73263Y24833D01*
X73259Y24838D01*
X73253Y24841D01*
X73246Y24844D01*
X73244Y24845D01*
X73235Y24841D01*
X73225Y24837D01*
X73215Y24831D01*
X73205Y24825D01*
X73195Y24817D01*
X73185Y24809D01*
X73175Y24799D01*
Y24965D01*
X73185Y24955D01*
D02*
G37*
G36*
X74767Y24581D02*
X74763Y24585D01*
X74757Y24589D01*
X74751Y24592D01*
X74744Y24595D01*
X74736Y24598D01*
X74727Y24600D01*
X74718Y24601D01*
X74707Y24602D01*
X74684Y24603D01*
X74655Y24668D01*
X74667Y24669D01*
X74677Y24670D01*
X74687Y24671D01*
X74695Y24673D01*
X74701Y24676D01*
X74707Y24680D01*
X74711Y24684D01*
X74714Y24688D01*
X74715Y24694D01*
X74715Y24700D01*
X74767Y24581D01*
D02*
G37*
G36*
X74119Y24603D02*
X74106Y24603D01*
X74095Y24602D01*
X74085Y24600D01*
X74077Y24598D01*
X74069Y24595D01*
X74064Y24592D01*
X74059Y24587D01*
X74056Y24583D01*
X74053Y24577D01*
X74053Y24571D01*
X74054Y24664D01*
X74055Y24665D01*
X74057Y24666D01*
X74060Y24666D01*
X74064Y24667D01*
X74077Y24668D01*
X74119Y24668D01*
Y24603D01*
D02*
G37*
G36*
X70041Y24665D02*
X70040Y24671D01*
X70038Y24676D01*
X70035Y24680D01*
X70031Y24684D01*
X70026Y24688D01*
X70019Y24690D01*
X70012Y24692D01*
X70003Y24694D01*
X69993Y24695D01*
X69982Y24695D01*
Y24754D01*
X69993Y24754D01*
X70003Y24755D01*
X70012Y24757D01*
X70019Y24759D01*
X70026Y24761D01*
X70031Y24765D01*
X70035Y24768D01*
X70038Y24773D01*
X70040Y24778D01*
X70041Y24783D01*
Y24665D01*
D02*
G37*
G36*
X69890Y24778D02*
X69892Y24773D01*
X69895Y24768D01*
X69899Y24765D01*
X69904Y24761D01*
X69911Y24759D01*
X69919Y24757D01*
X69928Y24755D01*
X69938Y24754D01*
X69950Y24754D01*
Y24695D01*
X69938Y24695D01*
X69928Y24694D01*
X69919Y24692D01*
X69911Y24690D01*
X69904Y24688D01*
X69899Y24684D01*
X69895Y24680D01*
X69892Y24676D01*
X69890Y24671D01*
X69889Y24665D01*
Y24783D01*
X69890Y24778D01*
D02*
G37*
G36*
X69288Y24797D02*
X69308Y24780D01*
X69318Y24773D01*
X69329Y24767D01*
X69339Y24762D01*
X69349Y24759D01*
X69358Y24756D01*
X69368Y24754D01*
X69378Y24754D01*
Y24695D01*
X69368Y24694D01*
X69358Y24693D01*
X69349Y24690D01*
X69339Y24686D01*
X69329Y24682D01*
X69318Y24676D01*
X69308Y24669D01*
X69298Y24661D01*
X69288Y24652D01*
X69277Y24642D01*
Y24691D01*
X69274Y24692D01*
X69265Y24694D01*
X69255Y24695D01*
X69243Y24695D01*
Y24754D01*
X69255Y24754D01*
X69265Y24755D01*
X69274Y24757D01*
X69277Y24757D01*
Y24807D01*
X69288Y24797D01*
D02*
G37*
G36*
X70041Y24350D02*
X70040Y24356D01*
X70038Y24361D01*
X70035Y24365D01*
X70031Y24369D01*
X70026Y24373D01*
X70019Y24375D01*
X70012Y24377D01*
X70003Y24379D01*
X69993Y24380D01*
X69982Y24380D01*
Y24439D01*
X69993Y24439D01*
X70003Y24440D01*
X70012Y24442D01*
X70019Y24444D01*
X70026Y24446D01*
X70031Y24450D01*
X70035Y24453D01*
X70038Y24458D01*
X70040Y24463D01*
X70041Y24469D01*
Y24350D01*
D02*
G37*
G36*
X69890Y24463D02*
X69892Y24458D01*
X69895Y24453D01*
X69899Y24450D01*
X69904Y24446D01*
X69911Y24444D01*
X69919Y24442D01*
X69928Y24440D01*
X69938Y24439D01*
X69950Y24439D01*
Y24380D01*
X69938Y24380D01*
X69928Y24379D01*
X69919Y24377D01*
X69911Y24375D01*
X69904Y24373D01*
X69899Y24369D01*
X69895Y24365D01*
X69892Y24361D01*
X69890Y24356D01*
X69889Y24350D01*
Y24469D01*
X69890Y24463D01*
D02*
G37*
G36*
X69288Y24492D02*
X69308Y24475D01*
X69318Y24468D01*
X69329Y24462D01*
X69339Y24457D01*
X69349Y24454D01*
X69358Y24451D01*
X69368Y24449D01*
X69378Y24449D01*
Y24439D01*
X69380Y24439D01*
X69378Y24415D01*
Y24390D01*
X69376Y24390D01*
X69375Y24380D01*
X69366Y24379D01*
X69356Y24378D01*
X69346Y24375D01*
X69336Y24372D01*
X69325Y24367D01*
X69315Y24362D01*
X69304Y24355D01*
X69304Y24355D01*
Y24350D01*
X69303Y24355D01*
X69293Y24348D01*
X69270Y24330D01*
X69274Y24377D01*
X69265Y24379D01*
X69255Y24380D01*
X69243Y24380D01*
Y24390D01*
Y24439D01*
Y24449D01*
X69255Y24449D01*
X69265Y24450D01*
X69274Y24451D01*
X69277Y24452D01*
Y24502D01*
X69288Y24492D01*
D02*
G37*
G36*
X69227Y23350D02*
X69237Y23349D01*
Y23284D01*
X69227Y23284D01*
Y23234D01*
X69217Y23244D01*
X69207Y23252D01*
X69197Y23260D01*
X69187Y23266D01*
X69179Y23271D01*
X69177Y23268D01*
X69173Y23264D01*
X69171Y23258D01*
X69171Y23252D01*
Y23275D01*
X69167Y23276D01*
X69157Y23280D01*
X69147Y23282D01*
X69137Y23284D01*
X69127Y23284D01*
Y23349D01*
X69137Y23350D01*
X69147Y23351D01*
X69157Y23354D01*
X69167Y23357D01*
X69171Y23359D01*
Y23382D01*
X69171Y23376D01*
X69173Y23370D01*
X69177Y23365D01*
X69179Y23363D01*
X69187Y23367D01*
X69197Y23374D01*
X69207Y23382D01*
X69217Y23390D01*
X69227Y23400D01*
Y23350D01*
D02*
G37*
G36*
X78127Y25705D02*
X78118Y25695D01*
X78111Y25685D01*
X78105Y25674D01*
X78099Y25664D01*
X78095Y25654D01*
X78091Y25644D01*
X78089Y25634D01*
X78087Y25624D01*
X78087Y25614D01*
X78022Y25612D01*
X78021Y25622D01*
X78020Y25632D01*
X78017Y25642D01*
X78014Y25652D01*
X78009Y25662D01*
X78003Y25672D01*
X77997Y25682D01*
X77989Y25692D01*
X77980Y25701D01*
X77971Y25711D01*
X78136Y25715D01*
X78127Y25705D01*
D02*
G37*
G36*
X78087Y23095D02*
X78089Y23084D01*
X78091Y23074D01*
X78095Y23064D01*
X78099Y23054D01*
X78105Y23044D01*
X78111Y23034D01*
X78119Y23024D01*
X78127Y23015D01*
X78137Y23005D01*
X77972D01*
X77981Y23015D01*
X77990Y23024D01*
X77997Y23034D01*
X78004Y23044D01*
X78009Y23054D01*
X78014Y23064D01*
X78017Y23074D01*
X78020Y23084D01*
X78021Y23095D01*
X78022Y23105D01*
X78087D01*
X78087Y23095D01*
D02*
G37*
G54D12*
X72795Y26191D02*
X73612D01*
X72726Y26122D02*
X72795Y26191D01*
X73661Y26142D02*
X73671D01*
X73612Y26191D02*
X73661Y26142D01*
G54D13*
X80866Y32175D02*
X80886D01*
X80866Y30856D02*
X80876Y30846D01*
X69902Y30758D02*
X69951Y30709D01*
X70433D01*
X70443D01*
X79675Y19990D02*
X79980Y20295D01*
X79675Y19872D02*
Y19990D01*
X73671Y29606D02*
X74372D01*
X76941Y32175D01*
X80866D01*
G54D16*
X70433Y25669D02*
D03*
Y25984D02*
D03*
Y28504D02*
D03*
Y29449D02*
D03*
Y29764D02*
D03*
Y30079D02*
D03*
Y30394D02*
D03*
Y30709D02*
D03*
X73661Y30551D02*
D03*
Y30236D02*
D03*
Y29921D02*
D03*
Y29606D02*
D03*
Y29291D02*
D03*
Y28976D02*
D03*
Y28661D02*
D03*
Y28346D02*
D03*
Y26772D02*
D03*
Y26457D02*
D03*
Y26142D02*
D03*
Y25827D02*
D03*
Y25512D02*
D03*
Y25197D02*
D03*
Y24882D02*
D03*
Y24567D02*
D03*
Y24252D02*
D03*
Y23937D02*
D03*
Y23622D02*
D03*
Y23307D02*
D03*
Y22992D02*
D03*
Y22677D02*
D03*
Y22362D02*
D03*
Y22047D02*
D03*
Y21732D02*
D03*
Y21417D02*
D03*
X70433Y21575D02*
D03*
Y21890D02*
D03*
Y22205D02*
D03*
Y22520D02*
D03*
Y22835D02*
D03*
Y23150D02*
D03*
Y23465D02*
D03*
Y23780D02*
D03*
Y24094D02*
D03*
Y24409D02*
D03*
Y24724D02*
D03*
Y25039D02*
D03*
Y25354D02*
D03*
Y26299D02*
D03*
Y26614D02*
D03*
Y26929D02*
D03*
Y29134D02*
D03*
Y28819D02*
D03*
G54D17*
X69400Y24724D02*
D03*
X69793D02*
D03*
X69400Y24409D02*
D03*
X69793D02*
D03*
X84114Y20000D02*
D03*
X84508D02*
D03*
X79675Y19872D02*
D03*
X80069D02*
D03*
X76782Y20010D02*
D03*
X77175D02*
D03*
X78051D02*
D03*
X77657D02*
D03*
X81654Y20000D02*
D03*
X82047D02*
D03*
X84872Y20000D02*
D03*
X85266D02*
D03*
X81260Y32175D02*
D03*
X80866D02*
D03*
X72508Y19962D02*
D03*
X72902D02*
D03*
G54D18*
X68337Y28228D02*
D03*
Y29409D02*
D03*
Y22717D02*
D03*
Y23898D02*
D03*
G54D19*
X68967Y28819D02*
D03*
Y23307D02*
D03*
G54D20*
X69685Y27231D02*
D03*
X69695Y30394D02*
D03*
X74616Y26457D02*
D03*
X69685Y26722D02*
D03*
X74911Y24715D02*
D03*
G54D21*
X78661Y19882D02*
D03*
X79252D02*
D03*
X82598D02*
D03*
X83189D02*
D03*
X81220D02*
D03*
X80630D02*
D03*
G54D22*
X77008Y31457D02*
D03*
Y30197D02*
D03*
Y30827D02*
D03*
X78661Y30197D02*
D03*
Y30827D02*
D03*
Y31457D02*
D03*
G54D23*
X66063Y24980D02*
D03*
Y27146D02*
D03*
G54D24*
X66043Y26063D02*
D03*
G54D25*
X66063Y28701D02*
D03*
Y23425D02*
D03*
X95787Y28701D02*
D03*
Y23425D02*
D03*
G54D26*
X67146Y28681D02*
D03*
Y23445D02*
D03*
X96870Y28681D02*
D03*
X94705D02*
D03*
X96870Y23445D02*
D03*
X94705D02*
D03*
G54D27*
X65020Y28681D02*
D03*
Y23445D02*
D03*
G54D28*
X70669Y20551D02*
D03*
Y31575D02*
D03*
G54D29*
X75970Y22982D02*
D03*
X76722Y22894D02*
D03*
X79665Y22687D02*
D03*
X79961D02*
D03*
X80276Y22667D02*
D03*
X79350D02*
D03*
X74793Y28740D02*
D03*
X75226Y28563D02*
D03*
X75423Y28789D02*
D03*
X73091Y25930D02*
D03*
X72726Y26122D02*
D03*
X72352Y26969D02*
D03*
X73091Y24882D02*
D03*
X72451Y21545D02*
D03*
X72136Y21831D02*
D03*
X76004Y22589D02*
D03*
X72923Y23957D02*
D03*
X84577Y22343D02*
D03*
X85138Y21919D02*
D03*
X69832Y25974D02*
D03*
X69902Y25669D02*
D03*
X69921Y26260D02*
D03*
X72018Y24705D02*
D03*
X69921Y25000D02*
D03*
X69459Y25394D02*
D03*
X80846Y30433D02*
D03*
X82844Y22628D02*
D03*
X76299Y21437D02*
D03*
X72854Y24675D02*
D03*
X73091Y25285D02*
D03*
X74232Y25265D02*
D03*
X74567Y24951D02*
D03*
X74872Y25148D02*
D03*
X76043Y25994D02*
D03*
X74528Y25256D02*
D03*
X75600Y25305D02*
D03*
X75935Y25325D02*
D03*
X75148Y25266D02*
D03*
X75974Y24636D02*
D03*
X76750Y25878D02*
D03*
X76348Y25896D02*
D03*
X75531Y26004D02*
D03*
X74685Y22402D02*
D03*
X74990Y22401D02*
D03*
X72870Y22992D02*
D03*
X82067Y20886D02*
D03*
X82195Y22136D02*
D03*
X82343Y21870D02*
D03*
X81053Y20502D02*
D03*
X83071D02*
D03*
X88533Y21093D02*
D03*
X74764Y20463D02*
D03*
X75984Y20364D02*
D03*
X77156Y20719D02*
D03*
X71014Y27343D02*
D03*
X70935Y26348D02*
D03*
X72165Y23819D02*
D03*
Y24114D02*
D03*
X69193Y24419D02*
D03*
Y24724D02*
D03*
X71683Y23829D02*
D03*
X68937Y24577D02*
D03*
X81339Y21742D02*
D03*
X94341Y23041D02*
D03*
X67392Y24281D02*
D03*
X94331Y29124D02*
D03*
Y28278D02*
D03*
X66565Y27539D02*
D03*
X65551Y27549D02*
D03*
X66565Y24587D02*
D03*
X94321Y23839D02*
D03*
X67392Y27844D02*
D03*
X76772Y24429D02*
D03*
X71467Y22047D02*
D03*
X78169Y31457D02*
D03*
X79154Y30856D02*
D03*
X80866D02*
D03*
X81467Y32165D02*
D03*
X80010Y30846D02*
D03*
X79144Y30423D02*
D03*
X82500Y32264D02*
D03*
X76457Y32205D02*
D03*
X80610Y25984D02*
D03*
X76329Y27628D02*
D03*
X76043Y26870D02*
D03*
X76516D02*
D03*
X75571Y26880D02*
D03*
X70945Y28494D02*
D03*
X70945Y29449D02*
D03*
X72766Y29154D02*
D03*
X73169Y30236D02*
D03*
X69941Y29449D02*
D03*
X67805Y29409D02*
D03*
X68878D02*
D03*
X67795Y28228D02*
D03*
X68868D02*
D03*
X68878Y23898D02*
D03*
Y22717D02*
D03*
X67805Y23898D02*
D03*
X65482Y23307D02*
D03*
X66663D02*
D03*
X65915Y25472D02*
D03*
Y26654D02*
D03*
X65482Y28819D02*
D03*
X66663D02*
D03*
X95217D02*
D03*
X96398D02*
D03*
X96388Y23307D02*
D03*
X95207D02*
D03*
X87677Y20630D02*
D03*
Y22470D02*
D03*
X75522Y29360D02*
D03*
X77638Y22510D02*
D03*
X82018Y22667D02*
D03*
X81554Y25136D02*
D03*
X66545Y25620D02*
D03*
Y26506D02*
D03*
X66516Y23937D02*
D03*
X65630D02*
D03*
X66516Y28189D02*
D03*
X65630D02*
D03*
X96240Y28209D02*
D03*
X95354D02*
D03*
X96240Y23937D02*
D03*
X95354D02*
D03*
X71319Y22668D02*
D03*
X73150Y26870D02*
D03*
X72766Y30089D02*
D03*
X65551Y24596D02*
D03*
X72854Y23406D02*
D03*
X72766Y29774D02*
D03*
Y29459D02*
D03*
X69892Y30768D02*
D03*
X77638Y23051D02*
D03*
X67805Y22717D02*
D03*
X75384Y22096D02*
D03*
X76752Y22431D02*
D03*
X82047Y21870D02*
D03*
X79429Y21821D02*
D03*
X74419Y26043D02*
D03*
X76329Y27224D02*
D03*
X72303Y28287D02*
D03*
X71998Y28287D02*
D03*
X70945Y28809D02*
D03*
Y29124D02*
D03*
X72431Y28593D02*
D03*
X71860Y28002D02*
D03*
X75650Y27411D02*
D03*
X75148Y26880D02*
D03*
X74892Y27037D02*
D03*
X69880Y24094D02*
D03*
X69882Y23780D02*
D03*
X79980Y20295D02*
D03*
X77923D02*
D03*
X84094D02*
D03*
X79980Y20738D02*
D03*
X79026Y20295D02*
D03*
Y20738D02*
D03*
X74075Y27493D02*
D03*
X74596Y27045D02*
D03*
X74045Y27067D02*
D03*
X74341Y26880D02*
D03*
X71260Y20148D02*
D03*
X70089Y20955D02*
D03*
X69882Y22835D02*
D03*
X69941Y28494D02*
D03*
X71250Y31978D02*
D03*
X70079Y31178D02*
D03*
X73150Y19961D02*
D03*
X72274D02*
D03*
X69311Y23317D02*
D03*
X78642Y21821D02*
D03*
X78888Y21992D02*
D03*
X79183Y21988D02*
D03*
X72648Y20699D02*
D03*
X73740Y21211D02*
D03*
X72844Y22697D02*
D03*
X72776Y22402D02*
D03*
X72106Y22707D02*
D03*
X77638Y21762D02*
D03*
X72874Y21329D02*
D03*
X73494Y20915D02*
D03*
X76083Y23297D02*
D03*
X75906Y21388D02*
D03*
X75679Y22096D02*
D03*
X75305Y20464D02*
D03*
X78054Y22920D02*
D03*
X78051Y25797D02*
D03*
X77648Y25778D02*
D03*
X77648Y25148D02*
D03*
X75384Y21388D02*
D03*
X71278Y21368D02*
D03*
X80226Y24144D02*
D03*
X81063Y23739D02*
D03*
X87008Y22943D02*
D03*
X87018Y20187D02*
D03*
X74498Y20089D02*
D03*
X76417Y20374D02*
D03*
X76850Y20541D02*
D03*
X75020Y22096D02*
D03*
X72854Y24380D02*
D03*
X76742Y23189D02*
D03*
X76063Y24242D02*
D03*
X75030Y21319D02*
D03*
X74606D02*
D03*
X74242Y22096D02*
D03*
X72972Y22086D02*
D03*
X80226Y24577D02*
D03*
X80344Y25098D02*
D03*
X80581Y23957D02*
D03*
X79450Y24359D02*
D03*
X79213Y24124D02*
D03*
X79400Y23937D02*
D03*
X79244Y24565D02*
D03*
X85915Y22569D02*
D03*
X85305Y20315D02*
D03*
X85315Y20758D02*
D03*
X88819Y20177D02*
D03*
X85305Y22343D02*
D03*
X85915Y20522D02*
D03*
X86093Y21043D02*
D03*
Y22057D02*
D03*
X87411Y21939D02*
D03*
Y21545D02*
D03*
Y21152D02*
D03*
X87018D02*
D03*
Y21939D02*
D03*
Y21545D02*
D03*
X72598Y25659D02*
D03*
X79154Y25778D02*
D03*
X80069D02*
D03*
X77638Y23986D02*
D03*
X77648Y24882D02*
D03*
X88533Y21959D02*
D03*
X86211Y20285D02*
D03*
X89016Y32136D02*
D03*
X89026Y29114D02*
D03*
X88819Y23031D02*
D03*
X89016Y26063D02*
D03*
X67579Y23307D02*
D03*
X67589Y28819D02*
D03*
X76516Y29931D02*
D03*
X73306Y21205D02*
D03*
X73789Y20905D02*
D03*
X74264Y21358D02*
D03*
X74054Y21132D02*
D03*
X76722Y22894D02*
D03*
X75970Y22982D02*
D03*
X77421Y21024D02*
D03*
X71260Y24232D02*
D03*
X71093Y25335D02*
D03*
X71260Y24892D02*
D03*
X71939Y25846D02*
D03*
X70935Y22904D02*
D03*
X71230Y23278D02*
D03*
X72205Y23150D02*
D03*
X71230Y23573D02*
D03*
X70935Y23770D02*
D03*
G54D47*
X78661Y30827D02*
X78770D01*
X78396D02*
X78661D01*
X76132Y28563D02*
X78396Y30827D01*
X76285Y30734D02*
X77008Y31457D01*
X76285Y29494D02*
Y30734D01*
X75800Y29009D02*
X76285Y29494D01*
X75306Y29009D02*
X75800D01*
X77008Y29882D02*
Y30197D01*
X75915Y28789D02*
X77008Y29882D01*
X75423Y28789D02*
X75915D01*
X77106Y30827D02*
Y30925D01*
X77008Y30827D02*
X77106Y30925D01*
X76516Y30335D02*
X77008Y30827D01*
X76516Y29931D02*
Y30335D01*
X78050Y29647D02*
X79214D01*
X76464Y28061D02*
X78050Y29647D01*
X74679Y28061D02*
X76464D01*
X77799Y29943D02*
X79047D01*
X76209Y28353D02*
X77799Y29943D01*
X74823Y28353D02*
X76209D01*
X77913Y29793D02*
X79126D01*
X76323Y28202D02*
X77913Y29793D01*
X74753Y28202D02*
X76323D01*
X74015Y28941D02*
X74753Y28202D01*
X74078Y28661D02*
X74679Y28061D01*
X73671Y28661D02*
X74078D01*
X73973Y29291D02*
X74321Y28944D01*
Y28856D02*
Y28944D01*
Y28856D02*
X74823Y28353D01*
X73671Y29291D02*
X73973D01*
X73707Y28941D02*
X74015D01*
X75037Y28740D02*
X75306Y29009D01*
X74793Y28740D02*
X75037D01*
X75226Y28563D02*
X76132D01*
X73091Y24882D02*
X73661D01*
X74833Y24636D02*
X74911Y24715D01*
X73730Y24636D02*
X74833D01*
X73661Y24567D02*
X73730Y24636D01*
X82953Y20758D02*
X85069D01*
X82303Y20108D02*
X82953Y20758D01*
X82303Y19852D02*
Y20108D01*
X82215Y19764D02*
X82303Y19852D01*
X81850Y19764D02*
X82215D01*
X85069Y20758D02*
X85315D01*
X85069Y19833D02*
Y20758D01*
X75446Y22626D02*
X76064Y22008D01*
X73713Y22626D02*
X75446D01*
X76064Y22008D02*
X76909D01*
X76091Y22187D02*
X76906D01*
X75513Y22765D02*
X76091Y22187D01*
X74311Y22765D02*
X75513D01*
X85315Y20758D02*
X85320D01*
X77616Y21476D02*
X84893D01*
X85266Y20000D02*
X85287D01*
X84893Y21476D02*
X85525Y20845D01*
Y20238D02*
Y20845D01*
X85287Y20000D02*
X85525Y20238D01*
X79154Y30856D02*
X79353Y30656D01*
X74816Y21402D02*
X75061Y21647D01*
X74616Y26457D02*
X74616Y26457D01*
X73661Y26457D02*
X74616D01*
X69695Y30394D02*
X69705Y30404D01*
X70433D01*
X68967Y28819D02*
X69144Y28996D01*
Y29134D01*
X70079Y30069D01*
X70443D01*
X77106Y30827D02*
X77116D01*
X77106Y31457D02*
X77116D01*
X77825Y19783D02*
X78051Y20010D01*
X77402Y19783D02*
X77825D01*
X77175Y20010D02*
X77402Y19783D01*
X73661Y22992D02*
X74084D01*
X73661Y22677D02*
X73713Y22626D01*
X84508Y20000D02*
X84872D01*
X84675D02*
X84675Y20000D01*
X78504Y20010D02*
X78647Y19867D01*
X78051Y20010D02*
X78504D01*
X79252Y19882D02*
X79875Y20505D01*
X82047Y20000D02*
Y20531D01*
X81220Y19882D02*
X81339Y19764D01*
X81850D01*
X83189Y19882D02*
X83287Y19783D01*
X80630Y19882D02*
X80909Y20161D01*
X81492D01*
X81654Y20000D01*
X82598Y19882D02*
X82874Y20157D01*
X81722Y20285D02*
X81850Y20157D01*
Y19764D02*
Y20157D01*
X80069Y19872D02*
X80079Y19882D01*
X80630D01*
X79875Y20505D02*
X80095D01*
X80315Y20285D01*
X81722D01*
X69987Y26929D02*
X70433D01*
X69685Y27231D02*
X69987Y26929D01*
X69793Y26614D02*
X70433D01*
X69685Y26722D02*
X69793Y26614D01*
X69094Y23317D02*
X69311D01*
X68967Y23307D02*
X69085D01*
X69094Y23317D01*
X74084Y22992D02*
X74311Y22765D01*
X78051Y25797D02*
X78054Y25794D01*
Y22920D02*
Y25794D01*
X73661Y22362D02*
X74276D01*
X74817Y21821D01*
X74816Y21232D02*
Y21402D01*
X73671Y28976D02*
X73707Y28941D01*
X79047Y29943D02*
X79144Y30039D01*
Y30423D01*
X79126Y29793D02*
X79353Y30021D01*
Y30656D01*
X79214Y29647D02*
X80010Y30443D01*
Y30846D01*
X74280Y20696D02*
X74816Y21232D01*
X73496Y20900D02*
Y20902D01*
X73702Y20696D01*
X74280D01*
X83287Y19783D02*
X85020D01*
X85069Y19833D01*
X82874Y20157D02*
X83593D01*
X84508Y20000D02*
Y20226D01*
X83593Y20157D02*
X83957Y20522D01*
X84213D01*
X84508Y20226D01*
X77657Y20010D02*
X77670Y20022D01*
X81289Y21289D02*
X82047Y20531D01*
X77627Y21289D02*
X81289D01*
X76906Y22187D02*
X77616Y21476D01*
X76909Y22008D02*
X77627Y21289D01*
X74817Y21821D02*
X76921D01*
X77670Y21071D01*
Y20022D02*
Y21071D01*
X75061Y21647D02*
X76798D01*
X77421Y21024D01*
G54D48*
X73445Y30748D02*
X73868D01*
X73321Y21220D02*
X73730D01*
X72902Y19962D02*
X73151D01*
X73150Y19961D02*
X73151Y19962D01*
Y21051D01*
X73730Y21220D02*
X73740Y21211D01*
X73311D02*
X73321Y21220D01*
X73150Y19961D02*
X74370D01*
X74498Y20089D01*
X73151Y21051D02*
X73306Y21205D01*
G54D49*
X73366Y30669D02*
X73445Y30748D01*
X73376Y30551D02*
X73661D01*
X75984Y20364D02*
X76407D01*
X76417Y20374D01*
X73366Y30561D02*
X73376Y30551D01*
X73366Y30561D02*
Y30669D01*
X73878Y30748D02*
X73957Y30669D01*
Y30571D02*
Y30669D01*
X73868Y30748D02*
X73878Y30738D01*
X73661Y30551D02*
X73671D01*
X75906Y21382D02*
Y21388D01*
X75636Y21112D02*
X75906Y21382D01*
X76417Y20870D01*
Y20374D02*
Y20870D01*
X75030Y21319D02*
X75236Y21112D01*
X75636D01*
X73306Y21205D02*
X73311Y21211D01*
G54D50*
X69832Y25974D02*
X69891Y25915D01*
X69902Y25679D02*
X69951Y25728D01*
X69902Y25669D02*
Y25679D01*
X70364Y25915D02*
X70433Y25984D01*
X69891Y25915D02*
X70364D01*
X69951Y25728D02*
X70069D01*
X70128Y25669D01*
X70433D01*
X69793Y24724D02*
X70433D01*
X70443Y29134D02*
X70925D01*
X70935Y29124D01*
X70443Y28819D02*
X70955D01*
X69193Y24419D02*
X69400D01*
X69793Y24409D02*
X70433D01*
X69203D02*
X69400D01*
X69193Y24724D02*
X69400D01*
G54D51*
X80866Y30856D02*
Y32175D01*
G54D52*
X93720Y26063D02*
D03*
X68130D02*
D03*
G54D53*
X74203Y24370D02*
D03*
X74675Y24400D02*
D03*
X74675Y22982D02*
D03*
X74203Y24134D02*
D03*
X74242Y23691D02*
D03*
X74537D02*
D03*
X74823D02*
D03*
X75148Y24400D02*
D03*
X74675Y24045D02*
D03*
X75148D02*
D03*
X74675Y23337D02*
D03*
X75138Y23691D02*
D03*
X75148Y23346D02*
D03*
X75148Y22982D02*
D03*
X74203Y23189D02*
D03*
Y23425D02*
D03*
G54D54*
X73868Y30748D02*
D03*
X73435D02*
D03*
X95797Y23937D02*
D03*
Y28209D02*
D03*
X66073Y28189D02*
D03*
X66545Y26063D02*
D03*
X66073Y23937D02*
D03*
M02*
