G04*
G04 #@! TF.GenerationSoftware,Altium Limited,Altium Designer,18.1.6 (161)*
G04*
G04 Layer_Color=8388736*
%FSLAX24Y24*%
%MOIN*%
G70*
G01*
G75*
%ADD30R,0.0827X0.0236*%
%ADD31R,0.0252X0.0252*%
%ADD32R,0.0921X0.0488*%
%ADD33R,0.0469X0.0449*%
%ADD34C,0.0449*%
%ADD35R,0.0370X0.0370*%
%ADD36R,0.0370X0.0331*%
%ADD37R,0.1551X0.0646*%
%ADD38R,0.1512X0.0449*%
%ADD39R,0.0449X0.1512*%
%ADD40R,0.0646X0.1551*%
%ADD41R,0.0567X0.1551*%
G04:AMPARAMS|DCode=42|XSize=96.1mil|YSize=131.5mil|CornerRadius=0mil|HoleSize=0mil|Usage=FLASHONLY|Rotation=270.000|XOffset=0mil|YOffset=0mil|HoleType=Round|Shape=Octagon|*
%AMOCTAGOND42*
4,1,8,0.0657,0.0240,0.0657,-0.0240,0.0417,-0.0480,-0.0417,-0.0480,-0.0657,-0.0240,-0.0657,0.0240,-0.0417,0.0480,0.0417,0.0480,0.0657,0.0240,0.0*
%
%ADD42OCTAGOND42*%

%ADD43C,0.0291*%
%ADD44C,0.2220*%
%ADD45C,0.0157*%
%ADD46C,0.0157*%
G54D30*
X70433Y25669D02*
D03*
Y25984D02*
D03*
Y28504D02*
D03*
Y29449D02*
D03*
Y29764D02*
D03*
Y30079D02*
D03*
Y30394D02*
D03*
Y30709D02*
D03*
X73661Y30551D02*
D03*
Y30236D02*
D03*
Y29921D02*
D03*
Y29606D02*
D03*
Y29291D02*
D03*
Y28976D02*
D03*
Y28661D02*
D03*
Y28346D02*
D03*
Y26772D02*
D03*
Y26457D02*
D03*
Y26142D02*
D03*
Y25827D02*
D03*
Y25512D02*
D03*
Y25197D02*
D03*
Y24882D02*
D03*
Y24567D02*
D03*
Y24252D02*
D03*
Y23937D02*
D03*
Y23622D02*
D03*
Y23307D02*
D03*
Y22992D02*
D03*
Y22677D02*
D03*
Y22362D02*
D03*
Y22047D02*
D03*
Y21732D02*
D03*
Y21417D02*
D03*
X70433Y21575D02*
D03*
Y21890D02*
D03*
Y22205D02*
D03*
Y22520D02*
D03*
Y22835D02*
D03*
Y23150D02*
D03*
Y23465D02*
D03*
Y23780D02*
D03*
Y24094D02*
D03*
Y24409D02*
D03*
Y24724D02*
D03*
Y25039D02*
D03*
Y25354D02*
D03*
Y26299D02*
D03*
Y26614D02*
D03*
Y26929D02*
D03*
Y29134D02*
D03*
Y28819D02*
D03*
G54D31*
X69400Y24724D02*
D03*
X69793D02*
D03*
X69400Y24409D02*
D03*
X69793D02*
D03*
X84114Y20000D02*
D03*
X84508D02*
D03*
X79675Y19872D02*
D03*
X80069D02*
D03*
X76782Y20010D02*
D03*
X77175D02*
D03*
X78051D02*
D03*
X77657D02*
D03*
X81654Y20000D02*
D03*
X82047D02*
D03*
X84872Y20000D02*
D03*
X85266D02*
D03*
X81260Y32175D02*
D03*
X80866D02*
D03*
X72508Y19962D02*
D03*
X72902D02*
D03*
G54D32*
X68337Y28228D02*
D03*
Y29409D02*
D03*
Y22717D02*
D03*
Y23898D02*
D03*
G54D33*
X68967Y28819D02*
D03*
Y23307D02*
D03*
G54D34*
X69685Y27231D02*
D03*
X69695Y30394D02*
D03*
X74616Y26457D02*
D03*
X69685Y26722D02*
D03*
X74911Y24715D02*
D03*
G54D35*
X78661Y19882D02*
D03*
X79252D02*
D03*
X82598D02*
D03*
X83189D02*
D03*
X81220D02*
D03*
X80630D02*
D03*
G54D36*
X77008Y31457D02*
D03*
Y30197D02*
D03*
Y30827D02*
D03*
X78661Y30197D02*
D03*
Y30827D02*
D03*
Y31457D02*
D03*
G54D37*
X66063Y24980D02*
D03*
Y27146D02*
D03*
G54D38*
X66043Y26063D02*
D03*
G54D39*
X66063Y28701D02*
D03*
Y23425D02*
D03*
X95787Y28701D02*
D03*
Y23425D02*
D03*
G54D40*
X67146Y28681D02*
D03*
Y23445D02*
D03*
X96870Y28681D02*
D03*
X94705D02*
D03*
X96870Y23445D02*
D03*
X94705D02*
D03*
G54D41*
X65020Y28681D02*
D03*
Y23445D02*
D03*
G54D42*
X70669Y20551D02*
D03*
Y31575D02*
D03*
G54D43*
X75970Y22982D02*
D03*
X76722Y22894D02*
D03*
G54D44*
X93720Y26063D02*
D03*
X68130D02*
D03*
G54D45*
X74203Y24370D02*
D03*
X74675Y24400D02*
D03*
X74675Y22982D02*
D03*
X74203Y24134D02*
D03*
X74242Y23691D02*
D03*
X74537D02*
D03*
X74823D02*
D03*
X75148Y24400D02*
D03*
X74675Y24045D02*
D03*
X75148D02*
D03*
X74675Y23337D02*
D03*
X75138Y23691D02*
D03*
X75148Y23346D02*
D03*
X75148Y22982D02*
D03*
X74203Y23189D02*
D03*
Y23425D02*
D03*
G54D46*
X65482Y23307D02*
D03*
X66663D02*
D03*
X65915Y25472D02*
D03*
Y26654D02*
D03*
X65482Y28819D02*
D03*
X66663D02*
D03*
X95217D02*
D03*
X96398D02*
D03*
X96388Y23307D02*
D03*
X95207D02*
D03*
X87411Y21939D02*
D03*
Y21545D02*
D03*
Y21152D02*
D03*
X87018D02*
D03*
Y21939D02*
D03*
Y21545D02*
D03*
M02*
