G04*
G04 #@! TF.GenerationSoftware,Altium Limited,Altium Designer,18.1.6 (161)*
G04*
G04 Layer_Physical_Order=6*
G04 Layer_Color=16711680*
%FSLAX24Y24*%
%MOIN*%
G70*
G01*
G75*
%ADD10C,0.0100*%
%ADD11C,0.0060*%
%ADD12C,0.0079*%
%ADD13C,0.0080*%
%ADD15C,0.0059*%
%ADD17R,0.0197X0.0197*%
%ADD18R,0.0866X0.0433*%
%ADD19R,0.0413X0.0394*%
%ADD21R,0.0315X0.0315*%
%ADD23R,0.1496X0.0591*%
%ADD26R,0.0591X0.1496*%
%ADD27R,0.0512X0.1496*%
%ADD29C,0.0236*%
%ADD47C,0.0065*%
%ADD48C,0.0256*%
%ADD49C,0.0197*%
%ADD50C,0.0059*%
%ADD51C,0.0295*%
%ADD52C,0.2165*%
%ADD53C,0.0237*%
%ADD54C,0.0315*%
%ADD60C,0.0150*%
%ADD61C,0.0394*%
%ADD62R,0.0197X0.0197*%
G04:AMPARAMS|DCode=63|XSize=9.1mil|YSize=29.5mil|CornerRadius=2.3mil|HoleSize=0mil|Usage=FLASHONLY|Rotation=0.000|XOffset=0mil|YOffset=0mil|HoleType=Round|Shape=RoundedRectangle|*
%AMROUNDEDRECTD63*
21,1,0.0091,0.0250,0,0,0.0*
21,1,0.0045,0.0295,0,0,0.0*
1,1,0.0045,0.0023,-0.0125*
1,1,0.0045,-0.0023,-0.0125*
1,1,0.0045,-0.0023,0.0125*
1,1,0.0045,0.0023,0.0125*
%
%ADD63ROUNDEDRECTD63*%
%ADD64R,0.0433X0.0866*%
%ADD65R,0.0394X0.0413*%
%ADD66R,0.0118X0.0650*%
%ADD67R,0.0630X0.0197*%
%ADD68R,0.0472X0.0512*%
%ADD69R,0.0906X0.0748*%
%ADD70R,0.0748X0.0748*%
%ADD71R,0.0709X0.0748*%
%ADD72R,0.0157X0.0531*%
%ADD73R,0.0689X0.0512*%
%ADD74R,0.0394X0.0433*%
%ADD75R,0.0394X0.0256*%
%ADD76R,0.0472X0.0925*%
%ADD77R,0.0472X0.0551*%
%ADD78R,0.0472X0.0315*%
%ADD79R,0.0197X0.0630*%
G04:AMPARAMS|DCode=80|XSize=9.1mil|YSize=29.5mil|CornerRadius=2.3mil|HoleSize=0mil|Usage=FLASHONLY|Rotation=90.000|XOffset=0mil|YOffset=0mil|HoleType=Round|Shape=RoundedRectangle|*
%AMROUNDEDRECTD80*
21,1,0.0091,0.0250,0,0,90.0*
21,1,0.0045,0.0295,0,0,90.0*
1,1,0.0045,0.0125,0.0023*
1,1,0.0045,0.0125,-0.0023*
1,1,0.0045,-0.0125,-0.0023*
1,1,0.0045,-0.0125,0.0023*
%
%ADD80ROUNDEDRECTD80*%
%ADD81R,0.2126X0.2126*%
%ADD82R,0.0630X0.1024*%
G04:AMPARAMS|DCode=83|XSize=9.8mil|YSize=19.7mil|CornerRadius=2.5mil|HoleSize=0mil|Usage=FLASHONLY|Rotation=0.000|XOffset=0mil|YOffset=0mil|HoleType=Round|Shape=RoundedRectangle|*
%AMROUNDEDRECTD83*
21,1,0.0098,0.0148,0,0,0.0*
21,1,0.0049,0.0197,0,0,0.0*
1,1,0.0049,0.0025,-0.0074*
1,1,0.0049,-0.0025,-0.0074*
1,1,0.0049,-0.0025,0.0074*
1,1,0.0049,0.0025,0.0074*
%
%ADD83ROUNDEDRECTD83*%
G04:AMPARAMS|DCode=84|XSize=9.8mil|YSize=19.7mil|CornerRadius=2.5mil|HoleSize=0mil|Usage=FLASHONLY|Rotation=270.000|XOffset=0mil|YOffset=0mil|HoleType=Round|Shape=RoundedRectangle|*
%AMROUNDEDRECTD84*
21,1,0.0098,0.0148,0,0,270.0*
21,1,0.0049,0.0197,0,0,270.0*
1,1,0.0049,-0.0074,-0.0025*
1,1,0.0049,-0.0074,0.0025*
1,1,0.0049,0.0074,0.0025*
1,1,0.0049,0.0074,-0.0025*
%
%ADD84ROUNDEDRECTD84*%
%ADD85R,0.0433X0.0252*%
%ADD86C,0.0118*%
%ADD87C,0.0200*%
%ADD88C,0.0120*%
G36*
X71043Y32437D02*
X78200Y32437D01*
X78245Y32378D01*
Y31112D01*
X78252Y31073D01*
X78274Y31040D01*
X78307Y31018D01*
X78346Y31010D01*
X78455D01*
Y30609D01*
Y30289D01*
X78366D01*
X78327Y30281D01*
X78294Y30259D01*
X78272Y30226D01*
X78264Y30187D01*
Y28317D01*
X78272Y28278D01*
X78294Y28245D01*
X78327Y28223D01*
X78366Y28215D01*
X80965D01*
X81004Y28223D01*
X81037Y28245D01*
X81059Y28278D01*
X81067Y28317D01*
Y30187D01*
X81059Y30226D01*
X81037Y30259D01*
X81004Y30281D01*
X80965Y30289D01*
X80852D01*
Y30383D01*
X80516D01*
Y30483D01*
X80852D01*
Y30577D01*
X80866Y30634D01*
X80951Y30651D01*
X81023Y30699D01*
X81072Y30771D01*
X81089Y30856D01*
X81072Y30941D01*
X81060Y30958D01*
X81088Y31010D01*
X81152D01*
X81191Y31018D01*
X81224Y31040D01*
X81246Y31073D01*
X81254Y31112D01*
Y32402D01*
X81283Y32437D01*
X89346Y32437D01*
Y29528D01*
X89346D01*
X89357Y29445D01*
X89389Y29368D01*
X89440Y29302D01*
X89506Y29251D01*
X89583Y29219D01*
X89665Y29208D01*
Y29209D01*
X93307D01*
Y29208D01*
X93390Y29219D01*
X93467Y29251D01*
X93533Y29302D01*
X93584Y29368D01*
X93615Y29445D01*
X93626Y29528D01*
X93626D01*
Y30075D01*
X94366D01*
Y30016D01*
X94329Y30001D01*
X94262Y29950D01*
X94212Y29884D01*
X94180Y29807D01*
X94169Y29724D01*
X94180Y29642D01*
X94212Y29565D01*
X94262Y29499D01*
X94329Y29448D01*
X94406Y29416D01*
X94488Y29405D01*
Y29406D01*
X97240D01*
Y27799D01*
X95787D01*
Y27800D01*
X95705Y27789D01*
X95628Y27757D01*
X95562Y27706D01*
X95511Y27640D01*
X95479Y27563D01*
X95468Y27480D01*
X95469D01*
Y24646D01*
X95468D01*
X95479Y24563D01*
X95511Y24486D01*
X95562Y24420D01*
X95628Y24369D01*
X95705Y24337D01*
X95787Y24326D01*
Y24327D01*
X97240D01*
Y22720D01*
X94488D01*
Y22721D01*
X94406Y22710D01*
X94329Y22678D01*
X94262Y22627D01*
X94212Y22561D01*
X94180Y22484D01*
X94169Y22402D01*
X94180Y22319D01*
X94212Y22242D01*
X94262Y22176D01*
X94329Y22125D01*
X94366Y22110D01*
Y22051D01*
X93626D01*
Y22598D01*
X93626D01*
X93615Y22681D01*
X93584Y22758D01*
X93533Y22824D01*
X93467Y22875D01*
X93390Y22907D01*
X93307Y22918D01*
Y22917D01*
X89665D01*
Y22918D01*
X89583Y22907D01*
X89506Y22875D01*
X89440Y22824D01*
X89389Y22758D01*
X89357Y22681D01*
X89346Y22598D01*
X89346D01*
Y19689D01*
X87365D01*
X87347Y19748D01*
X87377Y19768D01*
X87420Y19811D01*
X87531D01*
Y19990D01*
X87535Y20010D01*
X87531Y20029D01*
Y20205D01*
X88240D01*
Y20371D01*
X88255Y20387D01*
X88290Y20440D01*
X88303Y20502D01*
Y20648D01*
X88338D01*
Y20745D01*
X88339Y20749D01*
X88338Y20753D01*
Y21045D01*
X88178D01*
X88174Y21048D01*
X88142Y21075D01*
X88112Y21105D01*
X88134Y21160D01*
X88338D01*
Y21557D01*
X88338D01*
Y21921D01*
X88160D01*
X88136Y21980D01*
X88139Y21983D01*
X88155Y21999D01*
X88171Y22011D01*
X88178Y22016D01*
X88338D01*
Y22308D01*
X88339Y22312D01*
X88338Y22316D01*
Y22413D01*
X88303D01*
Y22608D01*
X88290Y22671D01*
X88255Y22724D01*
X88250Y22729D01*
Y22895D01*
X87531D01*
Y23071D01*
X87535Y23091D01*
X87531Y23110D01*
Y23289D01*
X87420D01*
X87348Y23362D01*
X87282Y23405D01*
X87205Y23421D01*
X86742D01*
X86665Y23405D01*
X86599Y23362D01*
X86530Y23293D01*
X85699D01*
X85621Y23277D01*
X85556Y23234D01*
X85359Y23037D01*
X83445D01*
X83425Y23033D01*
X82853D01*
Y22857D01*
X82844Y22850D01*
X82759Y22833D01*
X82687Y22785D01*
X82681Y22776D01*
X82676Y22772D01*
X82672Y22768D01*
X82668Y22766D01*
X82665Y22764D01*
X82663Y22763D01*
X82662Y22763D01*
X82605D01*
X82547Y22821D01*
X82541Y22827D01*
X82542Y22829D01*
X82541Y22833D01*
Y23033D01*
X82144D01*
Y22636D01*
X82344D01*
X82348Y22635D01*
X82350Y22636D01*
X82354Y22632D01*
X82454Y22532D01*
X82498Y22503D01*
X82549Y22493D01*
X82576D01*
X82597Y22443D01*
X82597D01*
Y21988D01*
X82538Y21970D01*
X82500Y22027D01*
X82428Y22076D01*
X82343Y22092D01*
X82257Y22076D01*
X82195Y22034D01*
X82132Y22076D01*
X82047Y22092D01*
X81962Y22076D01*
X81890Y22027D01*
X81842Y21955D01*
X81825Y21870D01*
X81827Y21858D01*
X81790Y21813D01*
X81632D01*
Y21081D01*
X82757D01*
Y21357D01*
X82766Y21369D01*
X82781Y21447D01*
Y21540D01*
X82785Y21545D01*
X82829Y21598D01*
X82997Y21766D01*
X83041Y21832D01*
X83057Y21909D01*
Y21928D01*
X83112D01*
Y22443D01*
X83054D01*
X83022Y22502D01*
X83050Y22543D01*
X83067Y22628D01*
X83074Y22636D01*
X83243D01*
Y22481D01*
X83242Y22474D01*
X83240Y22451D01*
X83239Y22443D01*
X83187D01*
Y22345D01*
X83187Y22341D01*
X83187Y22338D01*
Y21928D01*
X83597D01*
X83601Y21927D01*
X83605Y21928D01*
X83702D01*
Y21966D01*
X83761Y21976D01*
X84758Y20979D01*
Y20111D01*
X84774Y20034D01*
X84818Y19968D01*
X85018Y19768D01*
X85048Y19748D01*
X85030Y19689D01*
X76399Y19689D01*
Y20137D01*
X76417Y20152D01*
X76502Y20169D01*
X76575Y20217D01*
X76623Y20289D01*
X76640Y20374D01*
X76623Y20459D01*
X76575Y20531D01*
X76502Y20579D01*
X76417Y20596D01*
X76332Y20579D01*
X76260Y20531D01*
X76248Y20513D01*
X76147D01*
X76142Y20521D01*
X76069Y20570D01*
X75984Y20587D01*
X75899Y20570D01*
X75856Y20541D01*
X75809Y20513D01*
X75412D01*
Y20324D01*
X75395Y20310D01*
X75363Y20288D01*
X75359Y20287D01*
X75021D01*
X74969Y20322D01*
X74872Y20341D01*
X73425D01*
X73415Y20355D01*
Y20573D01*
X73421Y20600D01*
X73420Y20602D01*
Y20661D01*
X73466Y20698D01*
X73494Y20693D01*
X73579Y20710D01*
X73651Y20758D01*
X73699Y20830D01*
X73716Y20915D01*
X73712Y20938D01*
X73761Y20992D01*
X73825Y21005D01*
X73860Y21029D01*
X73896Y20975D01*
X73968Y20926D01*
X74054Y20910D01*
X74139Y20926D01*
X74142Y20929D01*
X74152Y20928D01*
X74201Y20897D01*
Y20856D01*
X74197Y20837D01*
X74201Y20817D01*
Y20638D01*
X74380D01*
X74400Y20634D01*
X74419Y20638D01*
X74485D01*
X74485Y20638D01*
X74486Y20638D01*
X74493D01*
X74497Y20637D01*
X74501Y20638D01*
X74598D01*
Y20727D01*
X74598Y20728D01*
X74598Y20729D01*
X74600Y20733D01*
X74606Y20743D01*
X74613Y20754D01*
X74672Y20823D01*
X74687Y20838D01*
X74721Y20867D01*
X74740Y20881D01*
X74758Y20892D01*
X74774Y20901D01*
X74788Y20907D01*
X74798Y20911D01*
X74806Y20912D01*
X74819Y20913D01*
X74821Y20914D01*
X75438D01*
X75442Y20913D01*
X75444Y20914D01*
X75447Y20913D01*
X75449Y20914D01*
X75555D01*
X75557Y20913D01*
X75560Y20914D01*
X75562Y20913D01*
X75566Y20914D01*
X76393D01*
X76396Y20913D01*
X76399Y20914D01*
X76402Y20913D01*
X76404Y20914D01*
X76509D01*
X76512Y20913D01*
X76514Y20914D01*
X76517Y20913D01*
X76521Y20914D01*
X76682D01*
X76708Y20914D01*
X76711Y20913D01*
X76717Y20913D01*
X76717Y20913D01*
X76741Y20914D01*
X76741Y20914D01*
X76834D01*
X76837Y20913D01*
X76839Y20914D01*
X76842Y20913D01*
X76846Y20914D01*
X77137D01*
Y21219D01*
X77223D01*
X77255Y21168D01*
X77216Y21109D01*
X77199Y21024D01*
X77216Y20939D01*
X77264Y20866D01*
X77336Y20818D01*
X77421Y20801D01*
X77506Y20818D01*
X77579Y20866D01*
X77627Y20939D01*
X77644Y21024D01*
X77642Y21034D01*
X77642Y21041D01*
X77643Y21047D01*
X77644Y21051D01*
X77645Y21054D01*
X77645Y21056D01*
X77646Y21057D01*
X78150Y21561D01*
X78179Y21605D01*
X78189Y21657D01*
Y22738D01*
X78190Y22739D01*
X78191Y22741D01*
X78192Y22744D01*
X78195Y22747D01*
X78198Y22752D01*
X78203Y22757D01*
X78212Y22763D01*
X78260Y22835D01*
X78277Y22920D01*
X78260Y23005D01*
X78212Y23078D01*
X78139Y23126D01*
X78054Y23143D01*
X77987Y23129D01*
X77978Y23137D01*
X77967Y23188D01*
X77943Y23224D01*
X77955Y23269D01*
X77960Y23283D01*
X80420D01*
Y23001D01*
X80579D01*
Y22951D01*
X80629D01*
Y22526D01*
X80682D01*
Y22502D01*
X80694Y22443D01*
X80727Y22393D01*
X80876Y22244D01*
X80926Y22211D01*
X80984Y22199D01*
X81447D01*
X81505Y22211D01*
X81555Y22244D01*
X81703Y22392D01*
X81736Y22442D01*
X81747Y22500D01*
Y23556D01*
X81736Y23614D01*
X81703Y23664D01*
X81688Y23678D01*
Y24963D01*
X81690Y24965D01*
X81711Y24979D01*
X81759Y25051D01*
X81776Y25136D01*
X81759Y25221D01*
X81711Y25294D01*
X81639Y25342D01*
X81554Y25359D01*
X81552Y25358D01*
X81506Y25396D01*
Y25456D01*
X81507Y25460D01*
X81506Y25464D01*
Y25540D01*
X81547D01*
Y25637D01*
X81548Y25641D01*
X81547Y25645D01*
Y25650D01*
X81548Y25652D01*
X81547Y25652D01*
Y25937D01*
X81151D01*
Y25653D01*
X81151Y25653D01*
X81151Y25652D01*
Y25645D01*
X81150Y25641D01*
X81151Y25637D01*
Y25561D01*
X80420D01*
Y25352D01*
X80374Y25315D01*
X80344Y25321D01*
X80259Y25304D01*
X80187Y25256D01*
X80139Y25184D01*
X80122Y25098D01*
X80104Y25079D01*
X80064Y25084D01*
X80041Y25105D01*
Y25346D01*
X79654D01*
X79626Y25352D01*
X79598Y25346D01*
X79211D01*
Y24949D01*
X79457D01*
X79458Y24947D01*
X79462Y24931D01*
X79465Y24910D01*
X79467Y24895D01*
Y24785D01*
X79472Y24757D01*
Y24722D01*
X79413Y24705D01*
X79401Y24723D01*
X79329Y24771D01*
X79244Y24788D01*
X79159Y24771D01*
X79135Y24755D01*
X79076Y24787D01*
Y25307D01*
X78576D01*
X78572Y25310D01*
X78429Y25453D01*
X78385Y25482D01*
X78334Y25492D01*
X77237D01*
X77236Y25494D01*
Y25679D01*
Y26076D01*
X76952D01*
X76951Y26076D01*
X76950Y26076D01*
X76944D01*
X76940Y26077D01*
X76936Y26076D01*
X76846D01*
X76835Y26083D01*
X76750Y26100D01*
X76746Y26099D01*
X76744Y26101D01*
X76742Y26102D01*
X76582Y26263D01*
X76567Y26279D01*
X76557Y26291D01*
X76557Y26291D01*
Y26310D01*
X76557Y26314D01*
X76557Y26318D01*
Y26468D01*
X76273D01*
X76272Y26468D01*
X76271Y26468D01*
X76265D01*
X76261Y26469D01*
X76257Y26468D01*
X76144D01*
X76141Y26469D01*
X76137Y26468D01*
X76131D01*
X76129Y26468D01*
X76129Y26468D01*
X75748D01*
X75743Y26472D01*
X75655Y26560D01*
X75612Y26589D01*
X75561Y26599D01*
X75266D01*
X75215Y26589D01*
X75172Y26560D01*
X75082Y26470D01*
X75080Y26468D01*
X74975D01*
Y26832D01*
X74977Y26832D01*
X75049Y26880D01*
X75097Y26952D01*
X75114Y27037D01*
X75097Y27122D01*
X75049Y27195D01*
X74977Y27243D01*
X74892Y27260D01*
X74807Y27243D01*
X74750Y27205D01*
X74682Y27250D01*
X74596Y27267D01*
X74511Y27250D01*
X74439Y27202D01*
X74391Y27130D01*
X74374Y27045D01*
X74391Y26960D01*
X74439Y26887D01*
X74511Y26839D01*
X74543Y26833D01*
Y26468D01*
X74419D01*
X74400Y26472D01*
X74380Y26468D01*
X74234D01*
Y26749D01*
X74234Y26749D01*
X74234Y26751D01*
Y26757D01*
X74235Y26761D01*
X74234Y26764D01*
Y26862D01*
X74234D01*
X74213Y26912D01*
X74210Y26921D01*
X74251Y26982D01*
X74268Y27067D01*
X74251Y27152D01*
X74203Y27224D01*
X74201Y27225D01*
X74196Y27290D01*
X74223Y27320D01*
X74227Y27321D01*
X74519D01*
Y27718D01*
X74271D01*
X74249Y27773D01*
X74747Y28271D01*
X75070D01*
X75122Y28282D01*
X75165Y28311D01*
X75193Y28338D01*
X75194Y28339D01*
X75196Y28340D01*
X75199Y28341D01*
X75203Y28341D01*
X75209Y28342D01*
X75216Y28343D01*
X75226Y28341D01*
X75311Y28358D01*
X75384Y28406D01*
X75432Y28478D01*
X75449Y28563D01*
X75447Y28572D01*
X75508Y28584D01*
X75580Y28632D01*
X75629Y28704D01*
X75646Y28789D01*
X75629Y28874D01*
X75580Y28947D01*
X75508Y28995D01*
X75423Y29012D01*
X75338Y28995D01*
X75266Y28947D01*
X75260Y28938D01*
X75255Y28933D01*
X75250Y28930D01*
X75247Y28927D01*
X75244Y28926D01*
X75241Y28925D01*
X75241Y28924D01*
X75149D01*
X75097Y28914D01*
X75053Y28885D01*
X75030Y28861D01*
X74971Y28867D01*
X74951Y28897D01*
X74878Y28946D01*
X74793Y28963D01*
X74708Y28946D01*
X74636Y28897D01*
X74630Y28888D01*
X74625Y28884D01*
X74620Y28881D01*
X74617Y28878D01*
X74614Y28876D01*
X74612Y28875D01*
X74611Y28875D01*
X74557D01*
X74505Y28865D01*
X74462Y28836D01*
X73117Y27491D01*
X72097D01*
X72045Y27481D01*
X72001Y27452D01*
X71628Y27079D01*
X71599Y27035D01*
X71589Y26984D01*
Y25763D01*
X71599Y25711D01*
X71628Y25667D01*
X71708Y25588D01*
X71685Y25533D01*
X71544D01*
Y25241D01*
X71543Y25237D01*
X71544Y25234D01*
Y25136D01*
X71602D01*
X71618Y25120D01*
X71622Y25114D01*
X71661Y25075D01*
X71686Y25048D01*
X71704Y25026D01*
X71711Y25016D01*
Y24976D01*
X71711Y24976D01*
X71711Y24975D01*
Y24964D01*
X71710Y24959D01*
X71699Y24903D01*
X71622D01*
Y24506D01*
X71681D01*
Y24296D01*
X71681Y24293D01*
X71681Y24290D01*
X71681Y24287D01*
X71681Y24285D01*
Y24180D01*
X71681Y24177D01*
X71681Y24175D01*
X71681Y24172D01*
X71681Y24168D01*
Y23876D01*
X71908D01*
X71945Y23831D01*
X71943Y23819D01*
X71943Y23817D01*
X71906Y23771D01*
X71326D01*
X71315Y23778D01*
X71230Y23795D01*
X71145Y23778D01*
X71073Y23730D01*
X71025Y23658D01*
X71008Y23573D01*
X71025Y23488D01*
X71067Y23425D01*
X71025Y23363D01*
X71008Y23278D01*
X71025Y23192D01*
X71073Y23120D01*
X71145Y23072D01*
X71230Y23055D01*
X71281Y23065D01*
X71288Y23059D01*
Y23059D01*
X72078D01*
Y23224D01*
X72238D01*
X72259Y23204D01*
X72292Y23181D01*
X72296Y23225D01*
X72302Y23218D01*
X72309Y23212D01*
X72316Y23207D01*
X72324Y23202D01*
X72333Y23199D01*
X72342Y23195D01*
X72353Y23193D01*
X72363Y23191D01*
X72375Y23190D01*
X72387Y23190D01*
X72377Y23090D01*
X72365Y23089D01*
X72354Y23089D01*
X72343Y23087D01*
X72333Y23085D01*
X72323Y23082D01*
X72314Y23079D01*
X72305Y23075D01*
X72297Y23071D01*
X72289Y23066D01*
X72287Y23064D01*
X72279Y23053D01*
X72270Y23005D01*
Y22960D01*
X72272Y22947D01*
X72263Y22945D01*
X72216Y22915D01*
X72205Y22903D01*
X72191Y22912D01*
X72106Y22929D01*
X72021Y22912D01*
X71966Y22876D01*
X71711D01*
X71711Y22479D01*
X71655Y22472D01*
X71554D01*
Y22075D01*
X71719D01*
X71750Y22029D01*
Y21632D01*
X72040D01*
X72051Y21625D01*
X72136Y21608D01*
X72183Y21618D01*
X72233Y21568D01*
X72228Y21545D01*
X72239Y21490D01*
X72188Y21447D01*
X72135Y21469D01*
X72047Y21481D01*
X71959Y21469D01*
X71878Y21435D01*
X71807Y21382D01*
X71754Y21311D01*
X71720Y21230D01*
X71716Y21200D01*
X71654Y21179D01*
X71502Y21330D01*
X71502Y21333D01*
X71501Y21337D01*
X71500Y21340D01*
X71498Y21357D01*
X71500Y21368D01*
X71483Y21453D01*
X71435Y21525D01*
X71363Y21574D01*
X71278Y21590D01*
X71193Y21574D01*
X71121Y21525D01*
X71073Y21453D01*
X71056Y21368D01*
X71073Y21283D01*
X71121Y21211D01*
X71193Y21163D01*
X71278Y21146D01*
X71289Y21148D01*
X71290Y21148D01*
X71298Y21147D01*
X71304Y21147D01*
X71309Y21146D01*
X71313Y21144D01*
X71316Y21144D01*
X71790Y20669D01*
X71833Y20641D01*
X71883Y20631D01*
X72154Y20631D01*
Y20166D01*
X72551D01*
Y20221D01*
X72952D01*
X72964Y20207D01*
Y20129D01*
X72916Y20057D01*
X72897Y19961D01*
X72916Y19864D01*
X72971Y19782D01*
X73022Y19748D01*
X73004Y19689D01*
X71043D01*
X71041Y19689D01*
X70878Y19701D01*
X70716Y19740D01*
X70562Y19804D01*
X70420Y19891D01*
X70294Y19999D01*
X70186Y20125D01*
X70128Y20220D01*
X70124Y20217D01*
X70111Y20237D01*
X69433Y21401D01*
Y21732D01*
X69433D01*
X69423Y21815D01*
X69391Y21892D01*
X69340Y21958D01*
X69274Y22009D01*
X69197Y22041D01*
X69114Y22052D01*
Y22051D01*
X67484D01*
Y22110D01*
X67522Y22125D01*
X67588Y22176D01*
X67639Y22242D01*
X67671Y22319D01*
X67681Y22402D01*
X67671Y22484D01*
X67639Y22561D01*
X67588Y22627D01*
X67522Y22678D01*
X67445Y22710D01*
X67362Y22721D01*
Y22720D01*
X64787D01*
Y24469D01*
X64846Y24498D01*
X64860Y24487D01*
X64937Y24455D01*
X65020Y24445D01*
X65102Y24455D01*
X65179Y24487D01*
X65245Y24538D01*
X65296Y24604D01*
X65328Y24681D01*
X65339Y24764D01*
X65339D01*
X65339Y24764D01*
Y27362D01*
X65339D01*
X65328Y27445D01*
X65296Y27522D01*
X65245Y27588D01*
X65179Y27639D01*
X65102Y27671D01*
X65020Y27681D01*
X64937Y27671D01*
X64860Y27639D01*
X64846Y27628D01*
X64787Y27657D01*
Y29406D01*
X67362D01*
Y29405D01*
X67445Y29416D01*
X67522Y29448D01*
X67588Y29499D01*
X67639Y29565D01*
X67671Y29642D01*
X67681Y29724D01*
X67671Y29807D01*
X67639Y29884D01*
X67588Y29950D01*
X67522Y30001D01*
X67484Y30016D01*
Y30075D01*
X69114D01*
Y30074D01*
X69197Y30085D01*
X69274Y30117D01*
X69340Y30168D01*
X69391Y30234D01*
X69423Y30311D01*
X69433Y30394D01*
X69433D01*
Y30725D01*
X70111Y31889D01*
X70124Y31909D01*
X70128Y31906D01*
X70186Y32001D01*
X70294Y32127D01*
X70420Y32235D01*
X70562Y32322D01*
X70716Y32386D01*
X70878Y32425D01*
X71041Y32437D01*
X71043Y32437D01*
D02*
G37*
G36*
X79026Y30939D02*
X79028Y30932D01*
X79032Y30926D01*
X79038Y30921D01*
X79038Y30920D01*
X79048Y30926D01*
X79058Y30931D01*
X79067Y30938D01*
X79076Y30946D01*
X79073Y30908D01*
X79077Y30908D01*
X79091Y30907D01*
X79106Y30906D01*
Y30826D01*
X79091Y30826D01*
X79077Y30825D01*
X79066Y30823D01*
X79063Y30781D01*
X79055Y30790D01*
X79047Y30797D01*
X79038Y30804D01*
X79033Y30807D01*
X79032Y30807D01*
X79028Y30801D01*
X79026Y30794D01*
X79025Y30786D01*
Y30812D01*
X79020Y30815D01*
X79011Y30819D01*
X79001Y30822D01*
X78990Y30824D01*
X78980Y30826D01*
X78968Y30826D01*
X78976Y30906D01*
X78986Y30907D01*
X78997Y30908D01*
X79008Y30910D01*
X79018Y30912D01*
X79025Y30915D01*
Y30946D01*
X79026Y30939D01*
D02*
G37*
G36*
X79888D02*
X79891Y30932D01*
X79895Y30926D01*
X79900Y30921D01*
X79902Y30920D01*
X79910Y30924D01*
X79921Y30929D01*
X79931Y30935D01*
X79940Y30942D01*
X79935Y30908D01*
X79939Y30908D01*
X79953Y30907D01*
X79969Y30906D01*
Y30826D01*
X79953Y30826D01*
X79939Y30825D01*
X79927Y30823D01*
X79920Y30821D01*
X79913Y30779D01*
X79906Y30788D01*
X79899Y30796D01*
X79892Y30802D01*
X79891Y30801D01*
X79888Y30794D01*
X79887Y30786D01*
Y30806D01*
X79883Y30809D01*
X79874Y30814D01*
X79865Y30819D01*
X79855Y30822D01*
X79845Y30824D01*
X79834Y30826D01*
X79823Y30826D01*
X79837Y30906D01*
X79848Y30907D01*
X79858Y30908D01*
X79869Y30909D01*
X79879Y30912D01*
X79887Y30914D01*
Y30946D01*
X79888Y30939D01*
D02*
G37*
G36*
X80751Y30968D02*
X80754Y30966D01*
X80760Y30963D01*
X80768Y30961D01*
X80779Y30959D01*
X80792Y30957D01*
X80824Y30955D01*
X80866Y30955D01*
Y30758D01*
X80844Y30758D01*
X80779Y30754D01*
X80768Y30752D01*
X80760Y30750D01*
X80754Y30747D01*
X80751Y30744D01*
X80750Y30741D01*
Y30972D01*
X80751Y30968D01*
D02*
G37*
G36*
X79026Y30505D02*
X79028Y30499D01*
X79032Y30493D01*
X79035Y30491D01*
X79038Y30492D01*
X79048Y30498D01*
X79057Y30505D01*
X79067Y30513D01*
X79064Y30477D01*
X79065Y30477D01*
X79077Y30475D01*
X79091Y30473D01*
X79106Y30473D01*
Y30393D01*
X79091Y30393D01*
X79077Y30391D01*
X79065Y30389D01*
X79056Y30387D01*
X79053Y30348D01*
X79045Y30356D01*
X79037Y30364D01*
X79030Y30370D01*
X79028Y30367D01*
X79026Y30361D01*
X79025Y30353D01*
Y30373D01*
X79020Y30377D01*
X79011Y30382D01*
X79001Y30386D01*
X78991Y30389D01*
X78981Y30391D01*
X78970Y30393D01*
X78959Y30393D01*
X78966Y30473D01*
X78977Y30473D01*
X78987Y30475D01*
X78998Y30477D01*
X79008Y30479D01*
X79018Y30483D01*
X79025Y30486D01*
Y30513D01*
X79026Y30505D01*
D02*
G37*
G36*
X75339Y28707D02*
X75329Y28716D01*
X75319Y28725D01*
X75309Y28732D01*
X75299Y28739D01*
X75289Y28744D01*
X75279Y28749D01*
X75269Y28752D01*
X75259Y28755D01*
X75249Y28756D01*
X75239Y28757D01*
Y28822D01*
X75249Y28822D01*
X75259Y28824D01*
X75269Y28826D01*
X75279Y28830D01*
X75289Y28834D01*
X75299Y28840D01*
X75309Y28846D01*
X75319Y28854D01*
X75329Y28863D01*
X75339Y28872D01*
Y28707D01*
D02*
G37*
G36*
X74709Y28657D02*
X74699Y28667D01*
X74689Y28676D01*
X74679Y28683D01*
X74669Y28690D01*
X74659Y28695D01*
X74649Y28700D01*
X74639Y28703D01*
X74629Y28706D01*
X74619Y28707D01*
X74609Y28708D01*
Y28773D01*
X74619Y28773D01*
X74629Y28775D01*
X74639Y28777D01*
X74649Y28781D01*
X74659Y28785D01*
X74669Y28791D01*
X74679Y28797D01*
X74689Y28805D01*
X74699Y28813D01*
X74709Y28823D01*
Y28657D01*
D02*
G37*
G36*
X75225Y28445D02*
X75211Y28445D01*
X75198Y28444D01*
X75186Y28442D01*
X75174Y28440D01*
X75164Y28436D01*
X75153Y28433D01*
X75144Y28428D01*
X75135Y28423D01*
X75127Y28416D01*
X75119Y28410D01*
X75073Y28456D01*
X75080Y28463D01*
X75086Y28471D01*
X75091Y28480D01*
X75096Y28490D01*
X75100Y28500D01*
X75103Y28511D01*
X75105Y28523D01*
X75107Y28535D01*
X75108Y28548D01*
X75108Y28562D01*
X75225Y28445D01*
D02*
G37*
G36*
X74170Y27565D02*
X74178Y27558D01*
X74187Y27552D01*
X74196Y27546D01*
X74206Y27541D01*
X74206Y27541D01*
X74212Y27545D01*
X74217Y27550D01*
X74221Y27556D01*
X74224Y27563D01*
X74225Y27570D01*
X74225Y27534D01*
X74226Y27534D01*
X74236Y27532D01*
X74247Y27531D01*
X74258Y27530D01*
X74256Y27450D01*
X74245Y27450D01*
X74234Y27448D01*
X74224Y27446D01*
X74224Y27422D01*
X74223Y27428D01*
X74220Y27432D01*
X74216Y27437D01*
X74211Y27440D01*
X74208Y27441D01*
X74203Y27440D01*
X74193Y27435D01*
X74184Y27430D01*
X74175Y27423D01*
X74166Y27416D01*
X74157Y27408D01*
X74158Y27450D01*
X74144Y27450D01*
Y27530D01*
X74159Y27531D01*
X74160Y27531D01*
X74161Y27574D01*
X74170Y27565D01*
D02*
G37*
G36*
X74121Y26976D02*
X74114Y26970D01*
X74108Y26963D01*
X74103Y26956D01*
X74098Y26947D01*
X74094Y26939D01*
X74091Y26929D01*
X74089Y26919D01*
X74087Y26908D01*
X74086Y26897D01*
X74085Y26885D01*
X73985Y26894D01*
X73985Y26906D01*
X73984Y26918D01*
X73983Y26929D01*
X73981Y26939D01*
X73978Y26949D01*
X73975Y26958D01*
X73971Y26967D01*
X73966Y26975D01*
X73961Y26983D01*
X73956Y26990D01*
X74121Y26976D01*
D02*
G37*
G36*
X74711Y27014D02*
X74708Y26982D01*
X74706Y26939D01*
X74705Y26886D01*
X74646Y26867D01*
X74645Y26878D01*
X74644Y26887D01*
X74641Y26896D01*
X74637Y26904D01*
X74632Y26910D01*
X74626Y26916D01*
X74619Y26920D01*
X74611Y26924D01*
X74602Y26926D01*
X74591Y26927D01*
X74713Y27023D01*
X74711Y27014D01*
D02*
G37*
G36*
X74932Y26926D02*
X74920Y26922D01*
X74910Y26916D01*
X74901Y26910D01*
X74894Y26904D01*
X74887Y26896D01*
X74882Y26889D01*
X74877Y26880D01*
X74874Y26871D01*
X74873Y26861D01*
X74872Y26850D01*
X74813Y26878D01*
X74813Y26886D01*
X74812Y26895D01*
X74810Y26904D01*
X74805Y26926D01*
X74798Y26951D01*
X74782Y26994D01*
X74932Y26926D01*
D02*
G37*
G36*
X74086Y26842D02*
X74087Y26825D01*
X74090Y26810D01*
X74093Y26797D01*
X74097Y26786D01*
X74102Y26777D01*
X74109Y26770D01*
X74116Y26765D01*
X74124Y26762D01*
X74133Y26761D01*
X73938D01*
X73947Y26762D01*
X73955Y26765D01*
X73962Y26770D01*
X73968Y26777D01*
X73974Y26786D01*
X73978Y26797D01*
X73981Y26810D01*
X73984Y26825D01*
X73985Y26842D01*
X73985Y26861D01*
X74085D01*
X74086Y26842D01*
D02*
G37*
G36*
X72703Y26636D02*
X72699Y26640D01*
X72694Y26642D01*
X72688Y26642D01*
X72681Y26640D01*
X72673Y26637D01*
X72664Y26632D01*
X72654Y26625D01*
X72644Y26616D01*
X72619Y26593D01*
X72587Y26645D01*
X72599Y26657D01*
X72617Y26678D01*
X72623Y26687D01*
X72629Y26696D01*
X72632Y26704D01*
X72634Y26711D01*
X72634Y26718D01*
X72633Y26723D01*
X72630Y26728D01*
X72703Y26636D01*
D02*
G37*
G36*
X72072Y26714D02*
X72071Y26709D01*
Y26702D01*
X72072Y26695D01*
X72076Y26687D01*
X72081Y26678D01*
X72087Y26669D01*
X72096Y26658D01*
X72117Y26635D01*
X72076Y26593D01*
X72063Y26605D01*
X72042Y26623D01*
X72032Y26630D01*
X72023Y26635D01*
X72015Y26638D01*
X72008Y26640D01*
X72002D01*
X71997Y26638D01*
X71992Y26635D01*
X72076Y26719D01*
X72072Y26714D01*
D02*
G37*
G36*
X72819Y26743D02*
X72817Y26736D01*
X72817Y26728D01*
X72820Y26718D01*
X72824Y26707D01*
X72831Y26696D01*
X72840Y26683D01*
X72851Y26669D01*
X72879Y26638D01*
X72827Y26579D01*
X72810Y26595D01*
X72781Y26620D01*
X72768Y26629D01*
X72757Y26635D01*
X72746Y26640D01*
X72737Y26642D01*
X72729Y26642D01*
X72721Y26640D01*
X72715Y26635D01*
X72824Y26750D01*
X72819Y26743D01*
D02*
G37*
G36*
X73559Y27474D02*
Y26458D01*
X73190D01*
X73189Y26459D01*
X73186Y26460D01*
X73183Y26461D01*
X73178Y26464D01*
X73173Y26467D01*
X73167Y26472D01*
X73165Y26474D01*
X73057Y26582D01*
X73055Y26593D01*
X73024Y26639D01*
X72939Y26724D01*
X72928Y26736D01*
X72925Y26740D01*
Y26748D01*
X72926Y26752D01*
X72925Y26756D01*
Y26931D01*
X72528D01*
Y26731D01*
X72526Y26729D01*
X72455Y26658D01*
X72240D01*
X72180Y26717D01*
X72177Y26720D01*
X72177Y26722D01*
Y26931D01*
X71939D01*
X71917Y26985D01*
X72153Y27221D01*
X73173D01*
X73225Y27232D01*
X73269Y27261D01*
X73504Y27496D01*
X73559Y27474D01*
D02*
G37*
G36*
X75238Y26396D02*
X75225Y26383D01*
X75204Y26359D01*
X75197Y26348D01*
X75191Y26339D01*
X75188Y26331D01*
X75187Y26325D01*
X75187Y26319D01*
X75190Y26315D01*
X75194Y26311D01*
X75081Y26366D01*
X75087Y26364D01*
X75094Y26363D01*
X75101Y26364D01*
X75108Y26366D01*
X75117Y26370D01*
X75125Y26375D01*
X75135Y26381D01*
X75145Y26389D01*
X75155Y26399D01*
X75166Y26409D01*
X75238Y26396D01*
D02*
G37*
G36*
X73092Y26402D02*
X73103Y26392D01*
X73114Y26384D01*
X73125Y26377D01*
X73137Y26370D01*
X73148Y26365D01*
X73159Y26361D01*
X73170Y26358D01*
X73181Y26357D01*
X73192Y26356D01*
X73023Y26357D01*
X73022Y26358D01*
X73021Y26360D01*
X73014Y26367D01*
X72969Y26413D01*
X73081D01*
X73092Y26402D01*
D02*
G37*
G36*
X76261Y26172D02*
X76260Y26181D01*
X76257Y26189D01*
X76252Y26197D01*
X76245Y26203D01*
X76236Y26208D01*
X76225Y26212D01*
X76212Y26215D01*
X76201Y26217D01*
X76190Y26215D01*
X76177Y26212D01*
X76166Y26208D01*
X76157Y26203D01*
X76150Y26197D01*
X76145Y26189D01*
X76142Y26181D01*
X76141Y26172D01*
X76132Y26171D01*
X76124Y26168D01*
X76116Y26163D01*
X76110Y26156D01*
X76105Y26147D01*
X76101Y26136D01*
X76099Y26127D01*
X76101Y26118D01*
X76105Y26109D01*
X76109Y26100D01*
X76114Y26092D01*
X76120Y26085D01*
X76126Y26078D01*
X76093D01*
X76093Y26072D01*
X75993D01*
X75993Y26078D01*
X75961D01*
X75967Y26085D01*
X75972Y26092D01*
X75977Y26100D01*
X75982Y26109D01*
X75985Y26118D01*
X75988Y26127D01*
X75986Y26136D01*
X75981Y26147D01*
X75976Y26156D01*
X75970Y26163D01*
X75963Y26168D01*
X75955Y26171D01*
X75946Y26172D01*
X76141D01*
Y26367D01*
X76142Y26358D01*
X76145Y26350D01*
X76150Y26343D01*
X76157Y26337D01*
X76166Y26331D01*
X76177Y26327D01*
X76190Y26324D01*
X76201Y26322D01*
X76212Y26324D01*
X76225Y26327D01*
X76236Y26331D01*
X76245Y26337D01*
X76252Y26343D01*
X76257Y26350D01*
X76260Y26358D01*
X76261Y26367D01*
Y26172D01*
D02*
G37*
G36*
X75672Y26399D02*
X75692Y26381D01*
X75702Y26375D01*
X75710Y26370D01*
X75719Y26366D01*
X75726Y26364D01*
X75733Y26363D01*
X75740Y26364D01*
X75746Y26366D01*
X75632Y26312D01*
X75637Y26315D01*
X75640Y26319D01*
X75640Y26325D01*
X75639Y26332D01*
X75635Y26339D01*
X75630Y26349D01*
X75623Y26359D01*
X75613Y26370D01*
X75589Y26396D01*
X75661Y26409D01*
X75672Y26399D01*
D02*
G37*
G36*
X73338Y26181D02*
X73337Y26189D01*
X73335Y26195D01*
X73331Y26201D01*
X73325Y26206D01*
X73318Y26211D01*
X73309Y26214D01*
X73299Y26217D01*
X73287Y26219D01*
X73277Y26220D01*
X73267Y26219D01*
X73255Y26217D01*
X73245Y26214D01*
X73236Y26211D01*
X73229Y26206D01*
X73223Y26201D01*
X73219Y26195D01*
X73217Y26189D01*
X73216Y26181D01*
Y26339D01*
X73217Y26331D01*
X73219Y26324D01*
X73223Y26319D01*
X73229Y26313D01*
X73236Y26309D01*
X73245Y26306D01*
X73255Y26303D01*
X73267Y26301D01*
X73277Y26300D01*
X73287Y26301D01*
X73299Y26303D01*
X73309Y26306D01*
X73318Y26309D01*
X73325Y26313D01*
X73331Y26319D01*
X73335Y26324D01*
X73337Y26331D01*
X73338Y26339D01*
Y26181D01*
D02*
G37*
G36*
X72766Y26304D02*
X72766Y26293D01*
X72767Y26283D01*
X72770Y26272D01*
X72773Y26262D01*
X72777Y26252D01*
X72781Y26243D01*
X72805D01*
X72798Y26242D01*
X72791Y26239D01*
X72785Y26236D01*
X72787Y26233D01*
X72793Y26224D01*
X72801Y26215D01*
X72809Y26206D01*
X72770D01*
X72769Y26203D01*
X72767Y26191D01*
X72766Y26178D01*
X72766Y26163D01*
X72687D01*
X72687Y26178D01*
X72685Y26191D01*
X72683Y26203D01*
X72683Y26206D01*
X72644D01*
X72652Y26215D01*
X72659Y26224D01*
X72666Y26233D01*
X72667Y26236D01*
X72662Y26239D01*
X72655Y26242D01*
X72648Y26243D01*
X72671D01*
X72676Y26252D01*
X72680Y26262D01*
X72683Y26272D01*
X72685Y26283D01*
X72687Y26293D01*
X72687Y26304D01*
X72766Y26304D01*
D02*
G37*
G36*
X72425Y26242D02*
X72418Y26239D01*
X72412Y26235D01*
X72407Y26230D01*
X72402Y26222D01*
X72399Y26213D01*
X72396Y26203D01*
X72394Y26191D01*
X72393Y26177D01*
X72392Y26161D01*
X72312D01*
X72312Y26177D01*
X72311Y26191D01*
X72309Y26203D01*
X72306Y26213D01*
X72302Y26222D01*
X72298Y26230D01*
X72293Y26235D01*
X72287Y26239D01*
X72280Y26242D01*
X72272Y26243D01*
X72432D01*
X72425Y26242D01*
D02*
G37*
G36*
X72076Y26241D02*
X72076Y26237D01*
X72077Y26232D01*
X72079Y26227D01*
X72081Y26221D01*
X72084Y26216D01*
X72087Y26210D01*
X72092Y26204D01*
X72096Y26198D01*
X72108Y26186D01*
X72025Y26158D01*
X72008Y26174D01*
X71977Y26201D01*
X71962Y26212D01*
X71948Y26221D01*
X71934Y26229D01*
X71921Y26235D01*
X71909Y26239D01*
X71897Y26242D01*
X71885Y26243D01*
X72076Y26241D01*
D02*
G37*
G36*
X74072Y26173D02*
X74071Y26172D01*
X74069Y26170D01*
X74068Y26167D01*
X74068Y26164D01*
X74067Y26159D01*
X74066Y26154D01*
X74066Y26142D01*
X74065Y26134D01*
X74005D01*
X74005Y26142D01*
X74004Y26159D01*
X74003Y26164D01*
X74002Y26167D01*
X74001Y26170D01*
X74000Y26172D01*
X73999Y26173D01*
X73997Y26174D01*
X74074D01*
X74072Y26173D01*
D02*
G37*
G36*
X75793Y26173D02*
X75788Y26171D01*
X75783Y26168D01*
X75779Y26164D01*
X75776Y26158D01*
X75773Y26152D01*
X75771Y26144D01*
X75770Y26134D01*
X75769Y26124D01*
X75768Y26112D01*
X75708D01*
X75708Y26124D01*
X75707Y26134D01*
X75706Y26144D01*
X75704Y26152D01*
X75701Y26158D01*
X75698Y26164D01*
X75694Y26168D01*
X75689Y26171D01*
X75684Y26173D01*
X75678Y26174D01*
X75798D01*
X75793Y26173D01*
D02*
G37*
G36*
X76450Y26306D02*
X76447Y26297D01*
Y26286D01*
X76450Y26274D01*
X76455Y26261D01*
X76464Y26246D01*
X76475Y26230D01*
X76489Y26212D01*
X76526Y26172D01*
X76455Y26102D01*
X76435Y26122D01*
X76398Y26153D01*
X76382Y26164D01*
X76367Y26172D01*
X76354Y26178D01*
X76342Y26181D01*
X76331D01*
X76322Y26178D01*
X76314Y26172D01*
X76455Y26314D01*
X76450Y26306D01*
D02*
G37*
G36*
X76940Y25780D02*
X76939Y25789D01*
X76936Y25797D01*
X76931Y25804D01*
X76924Y25811D01*
X76915Y25816D01*
X76904Y25820D01*
X76891Y25823D01*
X76889Y25824D01*
X76884Y25822D01*
X76874Y25819D01*
X76865Y25816D01*
X76857Y25812D01*
X76849Y25807D01*
X76841Y25801D01*
X76835Y25795D01*
Y25960D01*
X76841Y25954D01*
X76849Y25948D01*
X76857Y25944D01*
X76865Y25939D01*
X76874Y25936D01*
X76884Y25933D01*
X76889Y25932D01*
X76891Y25932D01*
X76904Y25935D01*
X76915Y25939D01*
X76924Y25945D01*
X76931Y25951D01*
X76936Y25958D01*
X76939Y25966D01*
X76940Y25975D01*
Y25780D01*
D02*
G37*
G36*
X76011Y25880D02*
X76000Y25883D01*
X75990Y25884D01*
X75980Y25885D01*
X75970Y25884D01*
X75960Y25882D01*
X75951Y25878D01*
X75942Y25874D01*
X75933Y25869D01*
X75925Y25862D01*
X75916Y25854D01*
X75876Y25928D01*
X75883Y25935D01*
X75890Y25944D01*
X75897Y25952D01*
X75903Y25961D01*
X75908Y25970D01*
X75913Y25980D01*
X75922Y26001D01*
X75926Y26013D01*
X75929Y26024D01*
X76011Y25880D01*
D02*
G37*
G36*
X76669Y26030D02*
X76677Y26023D01*
X76686Y26017D01*
X76695Y26011D01*
X76704Y26006D01*
X76713Y26002D01*
X76722Y25999D01*
X76731Y25997D01*
X76740Y25996D01*
X76749Y25996D01*
X76632Y25879D01*
X76632Y25888D01*
X76631Y25897D01*
X76629Y25906D01*
X76626Y25915D01*
X76622Y25924D01*
X76617Y25933D01*
X76611Y25942D01*
X76605Y25950D01*
X76598Y25959D01*
X76589Y25968D01*
X76660Y26039D01*
X76669Y26030D01*
D02*
G37*
G36*
X75550Y25887D02*
X75540Y25885D01*
X75532Y25882D01*
X75525Y25878D01*
X75519Y25873D01*
X75514Y25866D01*
X75510Y25859D01*
X75506Y25851D01*
X75504Y25841D01*
X75502Y25830D01*
X75502Y25819D01*
X75423Y25837D01*
X75417Y25974D01*
X75550Y25887D01*
D02*
G37*
G36*
X76299Y25788D02*
X76287Y25793D01*
X76276Y25796D01*
X76266Y25799D01*
X76256Y25799D01*
X76246Y25799D01*
X76236Y25797D01*
X76227Y25794D01*
X76219Y25789D01*
X76210Y25783D01*
X76202Y25776D01*
X76180Y25839D01*
X76186Y25845D01*
X76191Y25851D01*
X76197Y25859D01*
X76208Y25878D01*
X76220Y25901D01*
X76240Y25942D01*
X76299Y25788D01*
D02*
G37*
G36*
X75650Y25791D02*
X75652Y25771D01*
X75652Y25766D01*
X75653Y25761D01*
X75655Y25758D01*
X75656Y25755D01*
X75657Y25753D01*
X75659Y25752D01*
X75581D01*
X75583Y25753D01*
X75584Y25755D01*
X75586Y25758D01*
X75587Y25761D01*
X75588Y25766D01*
X75589Y25771D01*
X75590Y25784D01*
X75590Y25800D01*
X75650D01*
X75650Y25791D01*
D02*
G37*
G36*
X74390Y25799D02*
X74392Y25768D01*
X74393Y25763D01*
X74395Y25758D01*
X74396Y25755D01*
X74398Y25753D01*
X74399Y25752D01*
X74321D01*
X74323Y25753D01*
X74324Y25755D01*
X74326Y25758D01*
X74327Y25763D01*
X74328Y25768D01*
X74329Y25774D01*
X74330Y25790D01*
X74330Y25809D01*
X74390D01*
X74390Y25799D01*
D02*
G37*
G36*
X73448Y25801D02*
X73450Y25763D01*
X73451Y25758D01*
X73452Y25755D01*
X73453Y25753D01*
X73454Y25752D01*
X73376D01*
X73378Y25753D01*
X73379Y25755D01*
X73380Y25758D01*
X73380Y25763D01*
X73381Y25768D01*
X73382Y25782D01*
X73383Y25812D01*
X73448D01*
X73448Y25801D01*
D02*
G37*
G36*
X73172Y26163D02*
X73165Y26161D01*
X73159Y26156D01*
X73154Y26151D01*
X73150Y26144D01*
X73146Y26135D01*
X73143Y26125D01*
X73141Y26113D01*
X73140Y26099D01*
X73140Y26098D01*
X73140Y26098D01*
X73141Y26087D01*
X73143Y26076D01*
X73146Y26066D01*
X73150Y26056D01*
X73154Y26046D01*
X73159Y26036D01*
X73165Y26026D01*
X73172Y26017D01*
X73180Y26007D01*
X73104Y25930D01*
X73180Y25853D01*
X73172Y25844D01*
X73165Y25834D01*
X73159Y25824D01*
X73154Y25814D01*
X73150Y25804D01*
X73146Y25794D01*
X73143Y25784D01*
X73141Y25773D01*
X73140Y25763D01*
X73140Y25752D01*
X73061Y25745D01*
X73061Y25756D01*
X73059Y25767D01*
X73057Y25777D01*
X73054Y25787D01*
X73050Y25797D01*
X73045Y25806D01*
X73039Y25815D01*
X73032Y25823D01*
X73024Y25831D01*
X73015Y25839D01*
X73104Y25930D01*
X73015Y26021D01*
X73024Y26029D01*
X73032Y26037D01*
X73039Y26046D01*
X73045Y26054D01*
X73050Y26064D01*
X73054Y26073D01*
X73057Y26083D01*
X73059Y26094D01*
X73060Y26102D01*
X73060Y26112D01*
X73058Y26124D01*
X73055Y26134D01*
X73051Y26143D01*
X73047Y26150D01*
X73042Y26156D01*
X73037Y26159D01*
X73030Y26162D01*
X73023Y26163D01*
X73179Y26164D01*
X73172Y26163D01*
D02*
G37*
G36*
X71935Y26102D02*
X72023Y26014D01*
Y25732D01*
X71969Y25709D01*
X71859Y25819D01*
Y26086D01*
X71860Y26087D01*
X71866Y26095D01*
X71876Y26104D01*
X71895Y26113D01*
X71918Y26117D01*
X71935Y26102D01*
D02*
G37*
G36*
X74588Y25855D02*
X74584Y25845D01*
X74580Y25833D01*
X74577Y25819D01*
X74574Y25802D01*
X74570Y25761D01*
X74568Y25711D01*
X74568Y25682D01*
X74468D01*
X74467Y25711D01*
X74461Y25802D01*
X74459Y25819D01*
X74455Y25833D01*
X74452Y25845D01*
X74447Y25855D01*
X74443Y25862D01*
X74593D01*
X74588Y25855D01*
D02*
G37*
G36*
X76181Y25754D02*
X76169Y25743D01*
X76151Y25721D01*
X76144Y25711D01*
X76139Y25703D01*
X76136Y25694D01*
X76134Y25687D01*
X76133Y25681D01*
X76134Y25675D01*
X76137Y25670D01*
X76070Y25758D01*
X76076Y25759D01*
X76082Y25760D01*
X76089Y25762D01*
X76096Y25765D01*
X76103Y25769D01*
X76110Y25774D01*
X76118Y25779D01*
X76126Y25786D01*
X76142Y25801D01*
X76181Y25754D01*
D02*
G37*
G36*
X75655Y25646D02*
X75585D01*
X75586Y25648D01*
X75587Y25651D01*
X75587Y25657D01*
X75589Y25674D01*
X75590Y25750D01*
X75650D01*
X75655Y25646D01*
D02*
G37*
G36*
X76941Y25503D02*
X76941Y25508D01*
X76939Y25513D01*
X76936Y25518D01*
X76932Y25522D01*
X76926Y25525D01*
X76919Y25528D01*
X76911Y25530D01*
X76902Y25531D01*
X76892Y25532D01*
X76880Y25533D01*
Y25593D01*
X76892Y25593D01*
X76902Y25594D01*
X76911Y25595D01*
X76919Y25597D01*
X76926Y25600D01*
X76932Y25603D01*
X76936Y25607D01*
X76939Y25612D01*
X76941Y25617D01*
X76941Y25623D01*
Y25503D01*
D02*
G37*
G36*
X81437Y25640D02*
X81428Y25637D01*
X81421Y25632D01*
X81415Y25625D01*
X81409Y25616D01*
X81405Y25605D01*
X81401Y25592D01*
X81399Y25577D01*
X81397Y25560D01*
X81397Y25544D01*
X81397Y25541D01*
X81402Y25464D01*
X81403Y25461D01*
X81405Y25460D01*
X81289D01*
X81290Y25461D01*
X81292Y25464D01*
X81293Y25469D01*
X81294Y25476D01*
X81296Y25496D01*
X81297Y25550D01*
X81296Y25560D01*
X81295Y25577D01*
X81293Y25592D01*
X81290Y25605D01*
X81286Y25616D01*
X81281Y25625D01*
X81275Y25632D01*
X81268Y25637D01*
X81260Y25640D01*
X81252Y25641D01*
X81446D01*
X81437Y25640D01*
D02*
G37*
G36*
X72566Y25969D02*
X72569Y25965D01*
X72582Y25956D01*
X72592Y25948D01*
X72595Y25934D01*
X72626Y25888D01*
X72795Y25718D01*
Y25485D01*
X72800Y25462D01*
X72744Y25439D01*
X72733Y25456D01*
X72693Y25483D01*
X72645Y25492D01*
X72495D01*
Y25966D01*
X72548Y25984D01*
X72566Y25969D01*
D02*
G37*
G36*
X74084Y25468D02*
X74084Y25467D01*
X74085Y25420D01*
X74026D01*
X74025Y25429D01*
X74024Y25450D01*
X74023Y25455D01*
X74021Y25460D01*
X74020Y25463D01*
X74018Y25465D01*
X74016Y25467D01*
X74014Y25467D01*
X74084Y25469D01*
X74084Y25468D01*
D02*
G37*
G36*
X75185Y25468D02*
X75183Y25465D01*
X75182Y25462D01*
X75181Y25457D01*
X75180Y25451D01*
X75179Y25444D01*
X75178Y25427D01*
X75178Y25405D01*
X75118Y25405D01*
X75118Y25417D01*
X75115Y25451D01*
X75114Y25457D01*
X75113Y25462D01*
X75112Y25465D01*
X75110Y25468D01*
X75109Y25469D01*
X75187D01*
X75185Y25468D01*
D02*
G37*
G36*
X75670Y25471D02*
X75670Y25459D01*
X75672Y25437D01*
X75674Y25426D01*
X75677Y25417D01*
X75679Y25407D01*
X75683Y25398D01*
X75687Y25390D01*
X75691Y25382D01*
X75696Y25375D01*
X75533Y25402D01*
X75540Y25408D01*
X75546Y25414D01*
X75552Y25421D01*
X75557Y25429D01*
X75561Y25437D01*
X75564Y25446D01*
X75567Y25456D01*
X75569Y25467D01*
X75570Y25478D01*
X75570Y25490D01*
X75670Y25471D01*
D02*
G37*
G36*
X76501Y25382D02*
X76503Y25380D01*
X76507Y25379D01*
X76512Y25378D01*
X76517Y25377D01*
X76524Y25376D01*
X76542Y25375D01*
X76563Y25374D01*
Y25314D01*
X76552Y25314D01*
X76517Y25312D01*
X76512Y25311D01*
X76507Y25310D01*
X76503Y25309D01*
X76501Y25307D01*
X76500Y25305D01*
Y25384D01*
X76501Y25382D01*
D02*
G37*
G36*
X77181Y25255D02*
X77168Y25241D01*
X77147Y25217D01*
X77140Y25207D01*
X77135Y25197D01*
X77131Y25189D01*
X77129Y25181D01*
Y25174D01*
X77131Y25168D01*
X77135Y25163D01*
X77043Y25255D01*
X77048Y25251D01*
X77054Y25249D01*
X77061D01*
X77068Y25251D01*
X77077Y25255D01*
X77087Y25260D01*
X77097Y25268D01*
X77109Y25277D01*
X77135Y25301D01*
X77181Y25255D01*
D02*
G37*
G36*
X75500Y25244D02*
X75498Y25246D01*
X75495Y25248D01*
X75490Y25249D01*
X75485Y25251D01*
X75479Y25252D01*
X75471Y25253D01*
X75452Y25255D01*
X75430Y25255D01*
Y25355D01*
X75442Y25355D01*
X75479Y25358D01*
X75485Y25359D01*
X75490Y25361D01*
X75495Y25363D01*
X75498Y25364D01*
X75500Y25367D01*
Y25244D01*
D02*
G37*
G36*
X74839Y25308D02*
X74855Y25294D01*
X74864Y25288D01*
X74881Y25276D01*
X74891Y25270D01*
X74910Y25260D01*
X74920Y25256D01*
X74766Y25199D01*
X74769Y25208D01*
X74772Y25217D01*
X74773Y25227D01*
X74773Y25236D01*
X74772Y25245D01*
X74769Y25254D01*
X74765Y25262D01*
X74760Y25271D01*
X74754Y25280D01*
X74746Y25288D01*
X74832Y25315D01*
X74839Y25308D01*
D02*
G37*
G36*
X74253Y25440D02*
X74254Y25429D01*
X74256Y25419D01*
X74259Y25409D01*
X74262Y25400D01*
X74267Y25392D01*
X74272Y25385D01*
X74277Y25378D01*
X74278Y25378D01*
X74290Y25370D01*
X74290Y25368D01*
X74291Y25368D01*
X74291Y25367D01*
X74315Y25305D01*
X74305Y25256D01*
X74309Y25234D01*
X74265Y25190D01*
X74200D01*
X74158Y25232D01*
Y25306D01*
X74167Y25320D01*
X74170Y25336D01*
X74131Y25326D01*
X74135Y25334D01*
X74139Y25342D01*
X74142Y25350D01*
X74145Y25359D01*
X74147Y25368D01*
X74149Y25378D01*
X74152Y25400D01*
X74153Y25411D01*
X74153Y25423D01*
X74253Y25452D01*
X74253Y25440D01*
D02*
G37*
G36*
X81290Y25036D02*
X81289Y25046D01*
X81286Y25054D01*
X81281Y25062D01*
X81274Y25068D01*
X81265Y25074D01*
X81254Y25078D01*
X81241Y25082D01*
X81225Y25084D01*
X81219Y25085D01*
X81212Y25084D01*
X81197Y25082D01*
X81184Y25078D01*
X81173Y25074D01*
X81164Y25068D01*
X81157Y25062D01*
X81152Y25054D01*
X81149Y25046D01*
X81148Y25036D01*
Y25236D01*
X81149Y25227D01*
X81152Y25218D01*
X81157Y25211D01*
X81164Y25204D01*
X81173Y25199D01*
X81184Y25194D01*
X81197Y25191D01*
X81212Y25188D01*
X81219Y25188D01*
X81225Y25188D01*
X81241Y25191D01*
X81254Y25194D01*
X81265Y25199D01*
X81274Y25204D01*
X81281Y25211D01*
X81286Y25218D01*
X81289Y25227D01*
X81290Y25236D01*
Y25036D01*
D02*
G37*
G36*
X78500Y25238D02*
X78525Y25216D01*
X78536Y25208D01*
X78546Y25202D01*
X78554Y25199D01*
X78562Y25197D01*
X78568Y25197D01*
X78573Y25200D01*
X78577Y25204D01*
X78506Y25094D01*
X78509Y25100D01*
X78510Y25106D01*
X78509Y25114D01*
X78507Y25122D01*
X78503Y25130D01*
X78498Y25140D01*
X78491Y25150D01*
X78482Y25161D01*
X78459Y25186D01*
X78485Y25251D01*
X78500Y25238D01*
D02*
G37*
G36*
X75985Y25491D02*
X75986Y25479D01*
X75988Y25468D01*
X75990Y25458D01*
X75993Y25449D01*
X75997Y25439D01*
X76001Y25431D01*
X76006Y25423D01*
X76012Y25416D01*
X76018Y25409D01*
X75973D01*
X75981Y25397D01*
X76022Y25370D01*
X76070Y25360D01*
X76108D01*
Y25322D01*
X76118Y25274D01*
X76123Y25266D01*
X76118Y25257D01*
X76108Y25210D01*
Y25164D01*
X76118Y25117D01*
X76123Y25108D01*
X76118Y25100D01*
X76108Y25052D01*
Y25007D01*
X76118Y24959D01*
X76123Y24951D01*
X76118Y24943D01*
X76108Y24895D01*
Y24880D01*
X76085Y24861D01*
X76052Y24843D01*
X76051Y24843D01*
X75974Y24858D01*
X75889Y24841D01*
X75817Y24793D01*
X75769Y24721D01*
X75752Y24636D01*
X75769Y24551D01*
X75817Y24479D01*
X75870Y24444D01*
X75889Y24420D01*
X75887Y24371D01*
X75858Y24327D01*
X75841Y24242D01*
X75858Y24157D01*
X75906Y24085D01*
X75978Y24037D01*
X76063Y24020D01*
X76067Y24020D01*
X76068Y24020D01*
X76112Y23969D01*
X76108Y23950D01*
Y23905D01*
X76118Y23857D01*
X76123Y23848D01*
X76118Y23840D01*
X76108Y23792D01*
Y23747D01*
X76118Y23699D01*
X76123Y23691D01*
X76118Y23683D01*
X76108Y23635D01*
Y23590D01*
X76118Y23542D01*
X76123Y23533D01*
X76118Y23525D01*
X76108Y23477D01*
Y23432D01*
X76118Y23384D01*
X76145Y23344D01*
X76165Y23330D01*
X76166Y23329D01*
Y23266D01*
X76165Y23264D01*
X76145Y23251D01*
X76118Y23210D01*
X76056Y23188D01*
X76053Y23188D01*
X75970Y23205D01*
X75885Y23188D01*
X75813Y23140D01*
X75765Y23067D01*
X75748Y22982D01*
X75765Y22897D01*
X75813Y22825D01*
X75836Y22810D01*
X75847Y22746D01*
X75798Y22674D01*
X75782Y22589D01*
X75798Y22503D01*
X75847Y22431D01*
X75919Y22383D01*
X76004Y22366D01*
X76049Y22375D01*
X76108Y22330D01*
Y22330D01*
X76118Y22282D01*
X76123Y22274D01*
X76118Y22265D01*
X76108Y22218D01*
Y22172D01*
X76118Y22124D01*
X76123Y22116D01*
X76118Y22108D01*
X76108Y22060D01*
Y22022D01*
X76070D01*
X76022Y22012D01*
X76014Y22007D01*
X76006Y22012D01*
X75958Y22022D01*
X75912D01*
X75865Y22012D01*
X75856Y22007D01*
X75848Y22012D01*
X75800Y22022D01*
X75755D01*
X75707Y22012D01*
X75683Y21996D01*
X75709Y21982D01*
X75699Y21979D01*
X75691Y21975D01*
X75684Y21970D01*
X75678Y21964D01*
X75672Y21958D01*
X75668Y21950D01*
X75664Y21941D01*
X75662Y21931D01*
X75661Y21921D01*
X75660Y21909D01*
X75580Y21961D01*
X75580Y21973D01*
X75577Y22015D01*
X75575Y22025D01*
X75569Y22051D01*
X75567Y22060D01*
X75606Y22039D01*
X75604Y22047D01*
X75598Y22055D01*
X75606Y22096D01*
X75589Y22182D01*
X75541Y22254D01*
X75469Y22302D01*
X75384Y22319D01*
X75299Y22302D01*
X75227Y22254D01*
X75178Y22182D01*
X75161Y22096D01*
X75165Y22081D01*
X75129Y22027D01*
X75116Y22020D01*
X75077Y22012D01*
X75058Y21999D01*
X75079Y21994D01*
X75069Y21988D01*
X75061Y21982D01*
X75054Y21975D01*
X75048Y21967D01*
X75042Y21959D01*
X75038Y21950D01*
X75035Y21940D01*
X75032Y21930D01*
X75031Y21919D01*
X75030Y21908D01*
X74950Y21930D01*
X74950Y21941D01*
X74949Y21951D01*
X74947Y21962D01*
X74945Y21972D01*
X74942Y21983D01*
X74941Y21987D01*
X74905Y22011D01*
X74920Y22033D01*
X74919Y22035D01*
X74921Y22035D01*
X74933Y22053D01*
X74943Y22103D01*
Y22128D01*
X74982Y22167D01*
X74994Y22173D01*
X74997Y22174D01*
X75029Y22184D01*
X75041Y22187D01*
X75048Y22191D01*
X75075Y22196D01*
X75147Y22244D01*
X75195Y22316D01*
X75212Y22401D01*
X75195Y22487D01*
X75147Y22559D01*
X75075Y22607D01*
X74990Y22624D01*
X74905Y22607D01*
X74838Y22562D01*
X74770Y22607D01*
X74685Y22624D01*
X74600Y22607D01*
X74528Y22559D01*
X74480Y22487D01*
X74463Y22402D01*
X74480Y22316D01*
X74528Y22244D01*
X74527Y22185D01*
X74434Y22092D01*
X74405Y22049D01*
X74399Y22018D01*
X74383Y22022D01*
X74338D01*
X74290Y22012D01*
X74268Y21998D01*
X74292Y21989D01*
X74283Y21984D01*
X74274Y21979D01*
X74267Y21972D01*
X74260Y21965D01*
X74255Y21957D01*
X74251Y21949D01*
X74247Y21939D01*
X74245Y21929D01*
X74243Y21919D01*
X74243Y21907D01*
X74163Y21938D01*
X74162Y21948D01*
X74160Y21969D01*
X74158Y21980D01*
X74158Y21983D01*
X74156Y21985D01*
X74116Y22012D01*
X74068Y22022D01*
X74023D01*
X73975Y22012D01*
X73967Y22007D01*
X73958Y22012D01*
X73910Y22022D01*
X73865D01*
X73817Y22012D01*
X73777Y21985D01*
X73772Y21978D01*
X73771Y21972D01*
X73770Y21957D01*
X73690D01*
Y21957D01*
X73690D01*
X73690Y21972D01*
X73688Y21978D01*
X73684Y21985D01*
X73643Y22012D01*
X73595Y22022D01*
X73550D01*
X73502Y22012D01*
X73462Y21985D01*
X73448Y21965D01*
X73447Y21964D01*
X73384D01*
X73383Y21965D01*
X73369Y21985D01*
X73328Y22012D01*
X73281Y22022D01*
X73235D01*
X73187Y22012D01*
X73179Y22007D01*
X73171Y22012D01*
X73123Y22022D01*
X73078D01*
X73077Y22022D01*
X73074Y22019D01*
X73065Y22012D01*
X73056Y22004D01*
Y22017D01*
X73030Y22012D01*
X73000Y21992D01*
X73031Y21984D01*
X73024Y21979D01*
X73018Y21974D01*
X73012Y21967D01*
X73007Y21960D01*
X73003Y21952D01*
X72999Y21943D01*
X72996Y21933D01*
X72994Y21923D01*
X72993Y21911D01*
X72993Y21899D01*
X72893Y21928D01*
X72893Y21940D01*
X72891Y21962D01*
X72889Y21973D01*
X72885Y21992D01*
X72885Y21993D01*
X72856Y22012D01*
X72808Y22022D01*
X72770D01*
Y22060D01*
X72760Y22108D01*
X72755Y22116D01*
X72760Y22124D01*
X72770Y22172D01*
Y22218D01*
X72760Y22265D01*
X72733Y22306D01*
X72723Y22313D01*
X72732Y22292D01*
X72726Y22294D01*
X72720Y22296D01*
X72713Y22297D01*
X72696Y22300D01*
X72676Y22301D01*
X72641Y22302D01*
X72619Y22343D01*
X72395D01*
X72370Y22338D01*
X71992D01*
X71950Y22379D01*
X71950Y22463D01*
X72007Y22478D01*
X72007Y22478D01*
X72007Y22478D01*
X72010Y22479D01*
X72108D01*
Y22485D01*
X72191Y22501D01*
X72264Y22549D01*
X72329Y22541D01*
X72347Y22529D01*
X72395Y22520D01*
X72645D01*
X72693Y22529D01*
X72698Y22533D01*
X72759Y22491D01*
X72844Y22474D01*
X72930Y22491D01*
X73002Y22540D01*
X73050Y22612D01*
X73067Y22697D01*
X73050Y22782D01*
X73018Y22829D01*
X73027Y22835D01*
X73075Y22907D01*
X73092Y22992D01*
X73075Y23077D01*
X73027Y23149D01*
X72955Y23198D01*
X72870Y23215D01*
X72834Y23207D01*
X72829Y23202D01*
X72824Y23205D01*
X72811Y23203D01*
X72808Y23204D01*
X72784Y23230D01*
X72741Y23256D01*
X72750Y23265D01*
X72757Y23273D01*
X72763Y23282D01*
X72767Y23290D01*
X72770Y23296D01*
Y23320D01*
X72770Y23321D01*
X72769Y23323D01*
X72765Y23329D01*
X72768Y23328D01*
X72760Y23368D01*
X72755Y23376D01*
X72760Y23384D01*
X72770Y23432D01*
Y23456D01*
X72742Y23441D01*
X72744Y23449D01*
X72745Y23458D01*
X72744Y23466D01*
X72743Y23475D01*
X72740Y23483D01*
X72737Y23492D01*
X72732Y23501D01*
X72726Y23510D01*
X72719Y23518D01*
X72710Y23527D01*
X72747Y23545D01*
X72733Y23566D01*
X72729Y23569D01*
X72734Y23607D01*
X72744Y23629D01*
X72791Y23638D01*
X72837Y23669D01*
X72899Y23732D01*
X72900Y23732D01*
X72902Y23733D01*
X72904Y23734D01*
X72906Y23735D01*
X72909Y23736D01*
X72912Y23736D01*
X72914Y23736D01*
X72923Y23734D01*
X73008Y23751D01*
X73080Y23799D01*
X73129Y23872D01*
X73146Y23957D01*
X73129Y24042D01*
X73080Y24114D01*
X73008Y24162D01*
X72985Y24167D01*
X72980Y24169D01*
X72971Y24172D01*
X72965Y24174D01*
X72951Y24180D01*
X72947Y24182D01*
X72942Y24184D01*
X72938Y24187D01*
X72935Y24189D01*
X72782Y24343D01*
X72764Y24354D01*
X72757Y24312D01*
X72752Y24320D01*
X72746Y24326D01*
X72739Y24331D01*
X72731Y24336D01*
X72722Y24340D01*
X72713Y24344D01*
X72703Y24346D01*
X72693Y24348D01*
X72681Y24349D01*
X72669Y24350D01*
X72688Y24450D01*
X72700Y24450D01*
X72723Y24452D01*
X72733Y24454D01*
X72739Y24455D01*
X72741Y24458D01*
X72758Y24477D01*
X72769Y24470D01*
X72774Y24469D01*
X72778Y24471D01*
X72785Y24476D01*
X72783Y24467D01*
X72854Y24453D01*
X72939Y24470D01*
X73012Y24518D01*
X73060Y24590D01*
X73074Y24663D01*
X73091Y24660D01*
X73176Y24676D01*
X73248Y24725D01*
X73296Y24797D01*
X73313Y24882D01*
X73296Y24967D01*
X73248Y25039D01*
X73176Y25087D01*
X73091Y25104D01*
X73005Y25087D01*
X72933Y25039D01*
X72885Y24967D01*
X72875Y24915D01*
X72814Y24900D01*
X72761Y24939D01*
X72760Y24943D01*
X72755Y24951D01*
X72760Y24959D01*
X72770Y25007D01*
Y25052D01*
X72760Y25100D01*
X72755Y25108D01*
X72760Y25117D01*
X72770Y25164D01*
Y25210D01*
X72760Y25257D01*
X72755Y25266D01*
X72760Y25274D01*
X72770Y25322D01*
Y25367D01*
X72765Y25390D01*
X72821Y25413D01*
X72832Y25397D01*
X72872Y25370D01*
X72920Y25360D01*
X72963D01*
X72974Y25371D01*
X72984Y25364D01*
X73013Y25370D01*
X73022Y25375D01*
X73030Y25370D01*
X73078Y25360D01*
X73123D01*
X73171Y25370D01*
X73211Y25397D01*
X73225Y25417D01*
X73227Y25418D01*
X73289D01*
X73291Y25417D01*
X73304Y25397D01*
X73345Y25370D01*
X73393Y25360D01*
X73438D01*
X73486Y25370D01*
X73494Y25375D01*
X73502Y25370D01*
X73550Y25360D01*
X73595D01*
X73643Y25370D01*
X73675Y25391D01*
X73710Y25380D01*
X73734Y25365D01*
Y25306D01*
X73731Y25294D01*
Y25103D01*
X73741Y25053D01*
X73770Y25010D01*
X73993Y24787D01*
X74036Y24758D01*
X74086Y24748D01*
X74388D01*
X74439Y24758D01*
X74451Y24766D01*
X74482Y24745D01*
X74567Y24728D01*
X74652Y24745D01*
X74724Y24794D01*
X74772Y24866D01*
X74788Y24942D01*
X74872Y24925D01*
X74957Y24942D01*
X75029Y24990D01*
X75074Y25058D01*
X75148Y25043D01*
X75233Y25060D01*
X75305Y25108D01*
X75337Y25157D01*
X75371Y25164D01*
X75430Y25152D01*
X75440D01*
X75443Y25148D01*
X75515Y25100D01*
X75600Y25083D01*
X75686Y25100D01*
X75758Y25148D01*
X75806Y25220D01*
X75823Y25305D01*
X75819Y25326D01*
X75848Y25370D01*
X75889Y25397D01*
X75897Y25409D01*
X75852D01*
X75859Y25416D01*
X75864Y25423D01*
X75869Y25431D01*
X75873Y25439D01*
X75877Y25449D01*
X75880Y25458D01*
X75882Y25468D01*
X75884Y25479D01*
X75885Y25491D01*
X75885Y25503D01*
X75985D01*
X75985Y25491D01*
D02*
G37*
G36*
X76993Y25061D02*
X76990Y25067D01*
X76985Y25070D01*
X76979Y25071D01*
X76972Y25069D01*
X76963Y25066D01*
X76954Y25060D01*
X76942Y25052D01*
X76930Y25042D01*
X76901Y25014D01*
X76894Y25100D01*
X76905Y25111D01*
X76924Y25133D01*
X76930Y25143D01*
X76936Y25153D01*
X76940Y25161D01*
X76942Y25170D01*
X76944Y25178D01*
X76943Y25185D01*
X76941Y25192D01*
X76993Y25061D01*
D02*
G37*
G36*
X80439Y25171D02*
X80460Y25154D01*
X80470Y25147D01*
X80480Y25141D01*
X80490Y25136D01*
X80500Y25133D01*
X80501Y25133D01*
X80501Y25133D01*
X80507Y25135D01*
X80513Y25139D01*
X80517Y25142D01*
X80520Y25147D01*
X80522Y25152D01*
X80522Y25157D01*
Y25128D01*
X80530Y25128D01*
Y25069D01*
X80522Y25069D01*
Y25039D01*
X80522Y25045D01*
X80520Y25050D01*
X80517Y25054D01*
X80513Y25058D01*
X80507Y25062D01*
X80501Y25064D01*
X80501Y25064D01*
X80500Y25064D01*
X80490Y25060D01*
X80480Y25056D01*
X80470Y25050D01*
X80460Y25043D01*
X80450Y25035D01*
X80439Y25026D01*
X80429Y25016D01*
Y25181D01*
X80439Y25171D01*
D02*
G37*
G36*
X72378Y24990D02*
X72377Y24992D01*
X72375Y24993D01*
X72371Y24994D01*
X72366Y24995D01*
X72360Y24995D01*
X72334Y24997D01*
X72311Y24997D01*
Y25062D01*
X72323Y25062D01*
X72371Y25065D01*
X72375Y25066D01*
X72377Y25067D01*
X72378Y25069D01*
Y24990D01*
D02*
G37*
G36*
X71829Y25351D02*
X71823Y25339D01*
X71822Y25325D01*
X71825Y25307D01*
X71833Y25287D01*
X71846Y25265D01*
X71864Y25240D01*
X71886Y25212D01*
X71909Y25187D01*
X71971Y25134D01*
X71982Y25126D01*
X71992Y25121D01*
X72000Y25118D01*
X72007Y25117D01*
X71812Y24964D01*
X71822Y24974D01*
X71827Y24987D01*
X71828Y25003D01*
X71824Y25020D01*
X71815Y25040D01*
X71803Y25063D01*
X71785Y25087D01*
X71763Y25115D01*
X71706Y25176D01*
X71706Y25176D01*
X71645Y25237D01*
X71839Y25361D01*
X71829Y25351D01*
D02*
G37*
G36*
X81405Y25227D02*
X81408Y25218D01*
X81413Y25211D01*
X81420Y25204D01*
X81429Y25199D01*
X81435Y25196D01*
X81439Y25198D01*
X81447Y25202D01*
X81455Y25207D01*
X81462Y25213D01*
X81469Y25219D01*
Y25188D01*
X81485Y25187D01*
X81505Y25186D01*
Y25086D01*
X81485Y25086D01*
X81469Y25084D01*
Y25064D01*
X81622Y25040D01*
X81615Y25035D01*
X81609Y25028D01*
X81603Y25021D01*
X81599Y25013D01*
X81595Y25005D01*
X81591Y24996D01*
X81589Y24986D01*
X81587Y24975D01*
X81586Y24964D01*
X81585Y24952D01*
X81485Y24969D01*
X81485Y24981D01*
X81483Y25003D01*
X81481Y25014D01*
X81479Y25024D01*
X81476Y25033D01*
X81472Y25042D01*
X81468Y25050D01*
X81464Y25058D01*
X81464Y25059D01*
X81462Y25060D01*
X81455Y25065D01*
X81447Y25070D01*
X81439Y25074D01*
X81435Y25076D01*
X81429Y25074D01*
X81420Y25068D01*
X81413Y25062D01*
X81408Y25054D01*
X81405Y25046D01*
X81404Y25036D01*
Y25084D01*
X81399Y25085D01*
X81388Y25086D01*
X81376Y25086D01*
X81376Y25186D01*
X81388Y25187D01*
X81399Y25188D01*
X81404Y25188D01*
Y25236D01*
X81405Y25227D01*
D02*
G37*
G36*
X74487Y24864D02*
X74480Y24870D01*
X74473Y24875D01*
X74466Y24878D01*
X74460Y24881D01*
X74453Y24882D01*
X74447Y24882D01*
X74441Y24881D01*
X74435Y24878D01*
X74429Y24874D01*
X74424Y24870D01*
X74403Y24932D01*
X74410Y24939D01*
X74436Y24969D01*
X74442Y24978D01*
X74467Y25014D01*
X74487Y24864D01*
D02*
G37*
G36*
X79851Y25050D02*
X79834Y25044D01*
X79819Y25034D01*
X79806Y25019D01*
X79795Y25001D01*
X79786Y24979D01*
X79779Y24953D01*
X79774Y24923D01*
X79771Y24889D01*
X79770Y24850D01*
X79570D01*
X79569Y24889D01*
X79566Y24923D01*
X79561Y24953D01*
X79554Y24979D01*
X79545Y25001D01*
X79534Y25019D01*
X79521Y25034D01*
X79506Y25044D01*
X79489Y25050D01*
X79470Y25052D01*
X79870D01*
X79851Y25050D01*
D02*
G37*
G36*
X76501Y24910D02*
X76503Y24909D01*
X76507Y24908D01*
X76512Y24907D01*
X76518Y24906D01*
X76544Y24905D01*
X76567Y24905D01*
Y24840D01*
X76555Y24839D01*
X76507Y24836D01*
X76503Y24835D01*
X76501Y24834D01*
X76500Y24833D01*
Y24911D01*
X76501Y24910D01*
D02*
G37*
G36*
X72110Y25011D02*
X72113Y25008D01*
X72126Y24994D01*
X72215Y24903D01*
X72144Y24832D01*
X72034Y24938D01*
X72109Y25013D01*
X72110Y25011D01*
D02*
G37*
G36*
X80888Y24812D02*
X80883Y24810D01*
X80878Y24807D01*
X80875Y24803D01*
X80872Y24798D01*
X80869Y24791D01*
X80867Y24784D01*
X80866Y24775D01*
X80865Y24765D01*
X80865Y24754D01*
X80806D01*
X80805Y24765D01*
X80804Y24775D01*
X80803Y24784D01*
X80801Y24791D01*
X80798Y24798D01*
X80795Y24803D01*
X80792Y24807D01*
X80787Y24810D01*
X80783Y24812D01*
X80777Y24813D01*
X80893D01*
X80888Y24812D01*
D02*
G37*
G36*
X77002Y24746D02*
X77000Y24747D01*
X76997Y24747D01*
X76993Y24745D01*
X76988Y24742D01*
X76983Y24738D01*
X76969Y24726D01*
X76951Y24710D01*
X76940Y24699D01*
X76894Y24745D01*
X76904Y24756D01*
X76937Y24793D01*
X76940Y24798D01*
X76942Y24802D01*
X76942Y24805D01*
X76941Y24807D01*
X77002Y24746D01*
D02*
G37*
G36*
X77735Y24748D02*
X77680Y24726D01*
X77674Y24731D01*
X77630Y24761D01*
X77579Y24771D01*
X77300D01*
X77242Y24829D01*
X77236Y24836D01*
Y25159D01*
X77237Y25163D01*
X77236Y25165D01*
X77240Y25169D01*
X77293Y25222D01*
X77735D01*
Y24748D01*
D02*
G37*
G36*
X77130Y24832D02*
X77128Y24826D01*
X77128Y24820D01*
X77130Y24812D01*
X77134Y24803D01*
X77140Y24793D01*
X77147Y24783D01*
X77156Y24771D01*
X77181Y24745D01*
X77135Y24699D01*
X77121Y24712D01*
X77097Y24733D01*
X77087Y24740D01*
X77077Y24746D01*
X77068Y24750D01*
X77060Y24752D01*
X77054Y24752D01*
X77048Y24750D01*
X77043Y24746D01*
X77133Y24837D01*
X77130Y24832D01*
D02*
G37*
G36*
X76501Y24752D02*
X76503Y24751D01*
X76507Y24750D01*
X76512Y24749D01*
X76518Y24749D01*
X76544Y24747D01*
X76567Y24747D01*
Y24682D01*
X76555Y24682D01*
X76507Y24679D01*
X76503Y24678D01*
X76501Y24677D01*
X76500Y24676D01*
Y24754D01*
X76501Y24752D01*
D02*
G37*
G36*
X72747Y24625D02*
X72742Y24635D01*
X72737Y24643D01*
X72730Y24650D01*
X72723Y24657D01*
X72715Y24662D01*
X72707Y24667D01*
X72698Y24670D01*
X72688Y24673D01*
X72677Y24674D01*
X72665Y24675D01*
X72696Y24755D01*
X72706Y24755D01*
X72727Y24757D01*
X72738Y24759D01*
X72759Y24764D01*
X72770Y24768D01*
X72792Y24776D01*
X72802Y24781D01*
X72747Y24625D01*
D02*
G37*
G36*
X71919Y24798D02*
X71922Y24794D01*
X71927Y24791D01*
X71934Y24788D01*
X71943Y24785D01*
X71954Y24783D01*
X71967Y24782D01*
X71999Y24780D01*
X72018Y24780D01*
Y24633D01*
X72093Y24707D01*
X72094Y24702D01*
X72097Y24695D01*
X72102Y24687D01*
X72109Y24677D01*
X72109Y24677D01*
X72136Y24704D01*
X72136Y24692D01*
X72137Y24680D01*
X72139Y24669D01*
X72142Y24658D01*
X72145Y24648D01*
X72149Y24639D01*
X72154Y24629D01*
X72160Y24620D01*
X72167Y24612D01*
X72193Y24585D01*
X72138Y24529D01*
X72118Y24548D01*
X72104Y24561D01*
X72102Y24562D01*
X72093Y24568D01*
X72084Y24573D01*
X72074Y24577D01*
X72064Y24581D01*
X72053Y24583D01*
X72042Y24585D01*
X72031Y24586D01*
X72019Y24587D01*
X72045Y24612D01*
X72036Y24620D01*
X72027Y24625D01*
X72020Y24629D01*
X72015Y24630D01*
X71999Y24629D01*
X71954Y24626D01*
X71943Y24624D01*
X71934Y24622D01*
X71927Y24619D01*
X71922Y24615D01*
X71919Y24612D01*
X71918Y24608D01*
Y24627D01*
X71917Y24627D01*
X71902Y24629D01*
X71881Y24629D01*
X71856Y24630D01*
Y24780D01*
X71869Y24780D01*
X71918Y24783D01*
Y24802D01*
X71919Y24798D01*
D02*
G37*
G36*
X76091Y24612D02*
X76091Y24598D01*
X76092Y24586D01*
X76094Y24574D01*
X76096Y24563D01*
X76100Y24552D01*
X76104Y24543D01*
X76109Y24534D01*
X76115Y24525D01*
X76121Y24518D01*
X76076Y24479D01*
X76069Y24486D01*
X76061Y24492D01*
X76052Y24497D01*
X76043Y24502D01*
X76032Y24506D01*
X76021Y24509D01*
X76008Y24512D01*
X75995Y24515D01*
X75967Y24518D01*
X76092Y24626D01*
X76091Y24612D01*
D02*
G37*
G36*
X76680Y24577D02*
X76689Y24569D01*
X76698Y24563D01*
X76706Y24558D01*
X76715Y24554D01*
X76724Y24550D01*
X76732Y24548D01*
X76741Y24546D01*
X76749Y24546D01*
X76758Y24546D01*
X76654Y24443D01*
X76655Y24451D01*
X76654Y24460D01*
X76653Y24469D01*
X76651Y24477D01*
X76647Y24486D01*
X76643Y24495D01*
X76638Y24503D01*
X76631Y24512D01*
X76624Y24521D01*
X76616Y24529D01*
X76672Y24585D01*
X76680Y24577D01*
D02*
G37*
G36*
X71977Y24461D02*
X71979Y24454D01*
X71983Y24448D01*
X71989Y24443D01*
X71996Y24439D01*
X72005Y24435D01*
X72015Y24433D01*
X72027Y24431D01*
X72032Y24430D01*
X72066Y24429D01*
X72094Y24429D01*
Y24350D01*
X72066Y24350D01*
X72019Y24348D01*
X72015Y24347D01*
X72005Y24344D01*
X71996Y24341D01*
X71989Y24336D01*
X71983Y24331D01*
X71979Y24325D01*
X71977Y24319D01*
X71976Y24311D01*
Y24345D01*
X71953Y24344D01*
X71944Y24342D01*
X71937Y24339D01*
X71933Y24337D01*
Y24443D01*
X71937Y24440D01*
X71944Y24438D01*
X71953Y24436D01*
X71965Y24434D01*
X71976Y24433D01*
Y24469D01*
X71977Y24461D01*
D02*
G37*
G36*
X76865Y24504D02*
X76873Y24496D01*
X76883Y24490D01*
X76892Y24484D01*
X76902Y24479D01*
X76912Y24475D01*
X76913Y24475D01*
X76921Y24478D01*
X76929Y24483D01*
X76934Y24488D01*
X76938Y24494D01*
X76941Y24500D01*
X76941Y24508D01*
Y24469D01*
X76943Y24469D01*
X76954Y24469D01*
Y24390D01*
X76943Y24389D01*
X76941Y24389D01*
Y24350D01*
X76941Y24358D01*
X76938Y24365D01*
X76934Y24370D01*
X76929Y24376D01*
X76921Y24380D01*
X76913Y24383D01*
X76912Y24383D01*
X76902Y24379D01*
X76892Y24374D01*
X76883Y24369D01*
X76873Y24362D01*
X76865Y24355D01*
X76856Y24346D01*
Y24512D01*
X76865Y24504D01*
D02*
G37*
G36*
X77887Y24374D02*
X77909Y24356D01*
X77919Y24349D01*
X77928Y24344D01*
X77937Y24340D01*
X77945Y24337D01*
X77953Y24336D01*
X77960Y24336D01*
X77967Y24338D01*
X77837Y24287D01*
X77842Y24290D01*
X77845Y24295D01*
X77846Y24300D01*
X77845Y24308D01*
X77841Y24316D01*
X77835Y24326D01*
X77827Y24337D01*
X77817Y24350D01*
X77790Y24379D01*
X77875Y24385D01*
X77887Y24374D01*
D02*
G37*
G36*
X76156Y24317D02*
X76165Y24309D01*
X76174Y24303D01*
X76183Y24297D01*
X76193Y24292D01*
X76203Y24288D01*
X76213Y24285D01*
X76224Y24283D01*
X76234Y24282D01*
X76245Y24281D01*
Y24203D01*
X76234Y24202D01*
X76224Y24201D01*
X76213Y24199D01*
X76203Y24196D01*
X76193Y24192D01*
X76183Y24187D01*
X76174Y24182D01*
X76165Y24175D01*
X76156Y24168D01*
X76147Y24159D01*
Y24325D01*
X76156Y24317D01*
D02*
G37*
G36*
X71955Y24294D02*
X71955Y24293D01*
X71977D01*
X71973Y24291D01*
X71969Y24287D01*
X71966Y24279D01*
X71963Y24269D01*
X71960Y24255D01*
X71959Y24239D01*
X71960Y24210D01*
X71963Y24196D01*
X71966Y24186D01*
X71969Y24178D01*
X71973Y24174D01*
X71977Y24172D01*
X71955D01*
X71955Y24143D01*
X71805D01*
X71805Y24171D01*
X71805Y24172D01*
X71783D01*
X71787Y24174D01*
X71791Y24178D01*
X71794Y24186D01*
X71797Y24196D01*
X71799Y24210D01*
X71801Y24225D01*
X71799Y24255D01*
X71797Y24269D01*
X71794Y24279D01*
X71791Y24287D01*
X71787Y24291D01*
X71783Y24293D01*
X71804D01*
X71805Y24322D01*
X71955D01*
X71955Y24294D01*
D02*
G37*
G36*
X72275Y24162D02*
X72282Y24152D01*
X72290Y24143D01*
X72298Y24135D01*
X72306Y24129D01*
X72315Y24124D01*
X72324Y24119D01*
X72334Y24117D01*
X72341Y24115D01*
X72361Y24117D01*
X72366Y24118D01*
X72371Y24119D01*
X72375Y24120D01*
X72377Y24122D01*
X72378Y24124D01*
Y24046D01*
X72377Y24047D01*
X72375Y24049D01*
X72371Y24050D01*
X72366Y24052D01*
X72361Y24053D01*
X72354Y24054D01*
X72337Y24055D01*
X72332Y24055D01*
X72330Y24055D01*
X72320Y24053D01*
X72311Y24051D01*
X72300Y24048D01*
X72289Y24045D01*
X72266Y24035D01*
X72253Y24028D01*
X72226Y24013D01*
X72268Y24173D01*
X72275Y24162D01*
D02*
G37*
G36*
X76501Y24122D02*
X76503Y24120D01*
X76507Y24119D01*
X76512Y24118D01*
X76517Y24117D01*
X76524Y24116D01*
X76541Y24115D01*
X76563Y24114D01*
Y24055D01*
X76551Y24055D01*
X76517Y24053D01*
X76512Y24052D01*
X76507Y24050D01*
X76503Y24049D01*
X76501Y24047D01*
X76500Y24046D01*
Y24124D01*
X76501Y24122D01*
D02*
G37*
G36*
X76941Y24026D02*
X76941Y24033D01*
X76938Y24040D01*
X76934Y24046D01*
X76929Y24051D01*
X76921Y24055D01*
X76913Y24059D01*
X76902Y24061D01*
X76890Y24063D01*
X76877Y24065D01*
X76861Y24065D01*
Y24144D01*
X76877Y24144D01*
X76890Y24145D01*
X76902Y24147D01*
X76913Y24150D01*
X76921Y24154D01*
X76929Y24158D01*
X76934Y24163D01*
X76938Y24169D01*
X76941Y24176D01*
X76941Y24183D01*
Y24026D01*
D02*
G37*
G36*
X72863Y24116D02*
X72871Y24110D01*
X72880Y24103D01*
X72889Y24097D01*
X72898Y24092D01*
X72908Y24087D01*
X72929Y24078D01*
X72941Y24074D01*
X72953Y24071D01*
X72809Y23988D01*
X72812Y23999D01*
X72813Y24010D01*
X72814Y24020D01*
X72813Y24030D01*
X72811Y24039D01*
X72807Y24049D01*
X72803Y24058D01*
X72798Y24067D01*
X72791Y24076D01*
X72784Y24084D01*
X72855Y24124D01*
X72863Y24116D01*
D02*
G37*
G36*
X77730Y24293D02*
X77735Y24289D01*
Y23907D01*
X77728Y23902D01*
X77293D01*
X77236Y23906D01*
Y24231D01*
X77236D01*
Y24494D01*
X77244Y24501D01*
X77523D01*
X77730Y24293D01*
D02*
G37*
G36*
X76501Y23964D02*
X76503Y23963D01*
X76507Y23961D01*
X76512Y23960D01*
X76517Y23959D01*
X76524Y23958D01*
X76541Y23957D01*
X76563Y23957D01*
Y23898D01*
X76551Y23898D01*
X76517Y23895D01*
X76512Y23894D01*
X76507Y23893D01*
X76503Y23892D01*
X76501Y23890D01*
X76500Y23888D01*
Y23966D01*
X76501Y23964D01*
D02*
G37*
G36*
X72395Y23881D02*
X72395Y23881D01*
X72394Y23880D01*
X72391Y23880D01*
X72385Y23879D01*
X72345Y23878D01*
X72338Y23878D01*
X72339Y23878D01*
X72327Y23877D01*
X72317Y23876D01*
X72309Y23873D01*
X72301Y23870D01*
X72295Y23865D01*
X72290Y23860D01*
X72287Y23853D01*
X72284Y23846D01*
X72283Y23837D01*
X72283Y23827D01*
X72179Y23936D01*
X72312Y23937D01*
Y23937D01*
X72323Y23937D01*
X72332Y23938D01*
X72341Y23940D01*
X72349Y23942D01*
X72356Y23944D01*
X72362Y23948D01*
X72367Y23951D01*
X72372Y23956D01*
X72375Y23961D01*
X72378Y23966D01*
X72395Y23881D01*
D02*
G37*
G36*
X80580Y23839D02*
X80565Y23838D01*
X80538Y23836D01*
X80526Y23834D01*
X80515Y23831D01*
X80505Y23827D01*
X80495Y23822D01*
X80486Y23817D01*
X80478Y23811D01*
X80471Y23805D01*
X80429Y23847D01*
X80435Y23854D01*
X80441Y23862D01*
X80446Y23871D01*
X80451Y23881D01*
X80455Y23891D01*
X80458Y23902D01*
X80460Y23914D01*
X80461Y23927D01*
X80462Y23941D01*
X80463Y23956D01*
X80580Y23839D01*
D02*
G37*
G36*
X72922D02*
X72910Y23838D01*
X72899Y23837D01*
X72888Y23835D01*
X72877Y23833D01*
X72867Y23829D01*
X72857Y23825D01*
X72848Y23820D01*
X72839Y23814D01*
X72830Y23807D01*
X72822Y23800D01*
X72767Y23856D01*
X72774Y23864D01*
X72781Y23872D01*
X72786Y23881D01*
X72792Y23890D01*
X72796Y23900D01*
X72799Y23910D01*
X72802Y23921D01*
X72804Y23932D01*
X72805Y23944D01*
X72805Y23956D01*
X72922Y23839D01*
D02*
G37*
G36*
X76501Y23807D02*
X76503Y23805D01*
X76506Y23804D01*
X76511Y23803D01*
X76516Y23802D01*
X76522Y23801D01*
X76537Y23800D01*
X76556Y23799D01*
Y23740D01*
X76546Y23740D01*
X76516Y23738D01*
X76511Y23737D01*
X76506Y23735D01*
X76503Y23734D01*
X76501Y23732D01*
X76500Y23731D01*
Y23809D01*
X76501Y23807D01*
D02*
G37*
G36*
X81181Y23723D02*
X81184Y23696D01*
X81186Y23684D01*
X81189Y23673D01*
X81193Y23662D01*
X81197Y23653D01*
X81202Y23644D01*
X81208Y23636D01*
X81215Y23628D01*
X81173Y23587D01*
X81166Y23593D01*
X81158Y23599D01*
X81149Y23604D01*
X81139Y23609D01*
X81129Y23612D01*
X81117Y23615D01*
X81105Y23618D01*
X81092Y23619D01*
X81079Y23620D01*
X81064Y23620D01*
X81181Y23737D01*
X81181Y23723D01*
D02*
G37*
G36*
X71977Y23577D02*
X71978Y23572D01*
X71982Y23568D01*
X71986Y23564D01*
X71991Y23561D01*
X71998Y23558D01*
X72006Y23556D01*
X72015Y23554D01*
X72025Y23553D01*
X72036Y23553D01*
Y23494D01*
X72025Y23494D01*
X72006Y23492D01*
X71998Y23491D01*
X71992Y23489D01*
X71987Y23487D01*
X71982Y23485D01*
X71980Y23482D01*
X71978Y23479D01*
X71977Y23476D01*
X71976Y23583D01*
X71977Y23577D01*
D02*
G37*
G36*
X71389Y23476D02*
X71330Y23455D01*
Y23514D01*
X71341Y23514D01*
X71351Y23515D01*
X71360Y23516D01*
X71368Y23519D01*
X71375Y23521D01*
X71380Y23524D01*
X71385Y23528D01*
X71388Y23533D01*
X71389Y23538D01*
X71390Y23543D01*
X71389Y23476D01*
D02*
G37*
G36*
X76501Y23492D02*
X76503Y23491D01*
X76507Y23489D01*
X76512Y23488D01*
X76517Y23487D01*
X76524Y23486D01*
X76542Y23485D01*
X76563Y23485D01*
Y23425D01*
X76552Y23425D01*
X76517Y23422D01*
X76512Y23421D01*
X76507Y23420D01*
X76503Y23419D01*
X76501Y23417D01*
X76500Y23416D01*
Y23494D01*
X76501Y23492D01*
D02*
G37*
G36*
X72343Y23525D02*
X72358Y23513D01*
X72364Y23509D01*
X72370Y23505D01*
X72376Y23502D01*
X72381Y23500D01*
X72386Y23499D01*
X72391Y23499D01*
X72395Y23501D01*
X72378Y23416D01*
X72379Y23414D01*
X72378Y23413D01*
X72375Y23415D01*
X72370Y23418D01*
X72364Y23423D01*
X72336Y23450D01*
X72309Y23476D01*
X72335Y23533D01*
X72343Y23525D01*
D02*
G37*
G36*
X81377Y23323D02*
X81378Y23313D01*
X81379Y23304D01*
X81381Y23296D01*
X81383Y23290D01*
X81387Y23284D01*
X81390Y23280D01*
X81395Y23277D01*
X81399Y23275D01*
X81405Y23275D01*
X81289D01*
X81294Y23275D01*
X81299Y23277D01*
X81303Y23280D01*
X81307Y23284D01*
X81310Y23290D01*
X81313Y23296D01*
X81315Y23304D01*
X81316Y23313D01*
X81317Y23323D01*
X81317Y23334D01*
X81376D01*
X81377Y23323D01*
D02*
G37*
G36*
X81121Y23323D02*
X81122Y23313D01*
X81123Y23304D01*
X81125Y23296D01*
X81128Y23290D01*
X81131Y23284D01*
X81134Y23280D01*
X81139Y23277D01*
X81143Y23275D01*
X81149Y23275D01*
X81033D01*
X81038Y23275D01*
X81043Y23277D01*
X81048Y23280D01*
X81051Y23284D01*
X81054Y23290D01*
X81057Y23296D01*
X81059Y23304D01*
X81060Y23313D01*
X81061Y23323D01*
X81061Y23334D01*
X81120D01*
X81121Y23323D01*
D02*
G37*
G36*
X76829Y23270D02*
X76832Y23269D01*
X76837Y23268D01*
X76843Y23267D01*
X76858Y23265D01*
X76879Y23264D01*
X76904Y23264D01*
Y23238D01*
X76940Y23227D01*
X76941Y23070D01*
X76940Y23078D01*
X76936Y23086D01*
X76930Y23092D01*
X76922Y23098D01*
X76911Y23103D01*
X76898Y23107D01*
X76882Y23110D01*
X76865Y23112D01*
X76837Y23110D01*
X76832Y23109D01*
X76829Y23108D01*
X76826Y23106D01*
Y23114D01*
X76826Y23114D01*
X76824Y23114D01*
X76818Y23112D01*
X76813Y23111D01*
X76807Y23109D01*
X76802Y23107D01*
X76797Y23105D01*
X76793Y23102D01*
X76788Y23099D01*
X76784Y23095D01*
X76780Y23092D01*
X76724Y23148D01*
X76727Y23152D01*
X76731Y23156D01*
X76734Y23161D01*
X76736Y23165D01*
X76739Y23170D01*
X76741Y23175D01*
X76743Y23181D01*
X76744Y23186D01*
X76746Y23192D01*
X76746Y23198D01*
X76821Y23123D01*
Y23264D01*
X76826Y23262D01*
Y23272D01*
X76829Y23270D01*
D02*
G37*
G36*
X71325Y23350D02*
X71346Y23333D01*
X71356Y23326D01*
X71366Y23320D01*
X71376Y23316D01*
X71377Y23315D01*
X71381Y23318D01*
X71385Y23322D01*
X71388Y23326D01*
X71390Y23331D01*
X71390Y23337D01*
Y23311D01*
X71396Y23309D01*
X71406Y23308D01*
X71416Y23307D01*
Y23248D01*
X71406Y23247D01*
X71396Y23246D01*
X71390Y23244D01*
Y23219D01*
X71390Y23224D01*
X71388Y23229D01*
X71385Y23234D01*
X71381Y23237D01*
X71377Y23240D01*
X71376Y23240D01*
X71366Y23235D01*
X71356Y23229D01*
X71346Y23222D01*
X71335Y23214D01*
X71325Y23205D01*
X71315Y23195D01*
Y23360D01*
X71325Y23350D01*
D02*
G37*
G36*
X76699Y23079D02*
X76688Y23083D01*
X76667Y23090D01*
X76657Y23092D01*
X76636Y23096D01*
X76625Y23098D01*
X76604Y23100D01*
X76594Y23100D01*
X76554Y23180D01*
X76565Y23180D01*
X76576Y23182D01*
X76586Y23184D01*
X76595Y23188D01*
X76603Y23192D01*
X76610Y23197D01*
X76617Y23204D01*
X76622Y23211D01*
X76627Y23220D01*
X76631Y23229D01*
X76699Y23079D01*
D02*
G37*
G36*
X72793Y22903D02*
X72781Y22912D01*
X72759Y22928D01*
X72748Y22934D01*
X72738Y22940D01*
X72727Y22944D01*
X72717Y22948D01*
X72707Y22950D01*
X72700Y22951D01*
X72679Y22950D01*
X72673Y22949D01*
X72668Y22948D01*
X72665Y22946D01*
X72662Y22945D01*
X72661Y22943D01*
Y23021D01*
X72662Y23020D01*
X72665Y23018D01*
X72668Y23017D01*
X72673Y23016D01*
X72679Y23015D01*
X72686Y23014D01*
X72695Y23013D01*
X72702Y23014D01*
X72712Y23017D01*
X72722Y23021D01*
X72732Y23026D01*
X72741Y23032D01*
X72751Y23039D01*
X72760Y23048D01*
X72770Y23057D01*
X72779Y23067D01*
X72793Y22903D01*
D02*
G37*
G36*
X76063Y23057D02*
X76072Y23050D01*
X76081Y23043D01*
X76090Y23038D01*
X76100Y23033D01*
X76110Y23029D01*
X76120Y23026D01*
X76130Y23024D01*
X76141Y23023D01*
X76152Y23022D01*
Y22942D01*
X76141Y22942D01*
X76130Y22941D01*
X76120Y22938D01*
X76110Y22935D01*
X76100Y22932D01*
X76090Y22927D01*
X76081Y22921D01*
X76072Y22915D01*
X76063Y22908D01*
X76054Y22900D01*
Y23065D01*
X76063Y23057D01*
D02*
G37*
G36*
X72302Y22743D02*
X72206Y22644D01*
X72180Y22799D01*
X72188Y22794D01*
X72195Y22790D01*
X72203Y22788D01*
X72211Y22787D01*
X72219Y22788D01*
X72227Y22790D01*
X72235Y22793D01*
X72243Y22799D01*
X72252Y22805D01*
X72260Y22813D01*
X72302Y22743D01*
D02*
G37*
G36*
X76693Y22779D02*
X76688Y22780D01*
X76681Y22781D01*
X76661Y22783D01*
X76578Y22785D01*
X76556Y22785D01*
X76537Y22865D01*
X76549Y22865D01*
X76559Y22867D01*
X76569Y22869D01*
X76578Y22872D01*
X76585Y22877D01*
X76591Y22882D01*
X76596Y22888D01*
X76601Y22895D01*
X76604Y22903D01*
X76606Y22912D01*
X76693Y22779D01*
D02*
G37*
G36*
X72008Y22770D02*
X72011Y22766D01*
X72016Y22763D01*
X72023Y22760D01*
X72032Y22758D01*
X72043Y22756D01*
X72055Y22754D01*
X72087Y22752D01*
X72106Y22752D01*
Y22602D01*
X72087Y22602D01*
X72043Y22599D01*
X72032Y22597D01*
X72023Y22594D01*
X72016Y22591D01*
X72011Y22588D01*
X72008Y22584D01*
X72007Y22580D01*
Y22604D01*
X71980Y22602D01*
X71926Y22752D01*
X71940Y22752D01*
X71981Y22756D01*
X71988Y22757D01*
X71994Y22759D01*
X71998Y22761D01*
X72002Y22763D01*
X72004Y22766D01*
X72007Y22755D01*
Y22774D01*
X72008Y22770D01*
D02*
G37*
G36*
X83046Y22737D02*
X83041Y22741D01*
X83035Y22743D01*
X83028D01*
X83020Y22741D01*
X83011Y22737D01*
X83002Y22732D01*
X82991Y22725D01*
X82985Y22720D01*
X82980Y22711D01*
X82975Y22701D01*
X82971Y22691D01*
X82968Y22680D01*
X82965Y22668D01*
X82964Y22656D01*
X82963Y22643D01*
X82963Y22629D01*
X82846Y22746D01*
X82859Y22746D01*
X82872Y22747D01*
X82885Y22749D01*
X82896Y22751D01*
X82907Y22755D01*
X82918Y22758D01*
X82927Y22763D01*
X82935Y22768D01*
X82941Y22775D01*
X82948Y22785D01*
X82954Y22795D01*
X82958Y22804D01*
X82959Y22811D01*
Y22818D01*
X82958Y22824D01*
X82954Y22829D01*
X83046Y22737D01*
D02*
G37*
G36*
X78127Y22826D02*
X78119Y22816D01*
X78111Y22806D01*
X78105Y22796D01*
X78099Y22786D01*
X78095Y22776D01*
X78091Y22766D01*
X78089Y22756D01*
X78087Y22746D01*
X78087Y22736D01*
X78022D01*
X78021Y22746D01*
X78020Y22756D01*
X78017Y22766D01*
X78014Y22776D01*
X78009Y22786D01*
X78004Y22796D01*
X77997Y22806D01*
X77990Y22816D01*
X77981Y22826D01*
X77972Y22836D01*
X78137D01*
X78127Y22826D01*
D02*
G37*
G36*
X82436Y22824D02*
X82434Y22818D01*
Y22811D01*
X82436Y22804D01*
X82440Y22795D01*
X82445Y22785D01*
X82453Y22775D01*
X82462Y22763D01*
X82486Y22737D01*
X82440Y22691D01*
X82426Y22704D01*
X82403Y22725D01*
X82392Y22732D01*
X82382Y22737D01*
X82374Y22741D01*
X82366Y22743D01*
X82359D01*
X82353Y22741D01*
X82348Y22737D01*
X82440Y22829D01*
X82436Y22824D01*
D02*
G37*
G36*
X72737Y22648D02*
X72719Y22646D01*
X72676Y22689D01*
X72736Y22744D01*
X72737Y22648D01*
D02*
G37*
G36*
X76186Y22628D02*
X76174Y22628D01*
X76164Y22626D01*
X76154Y22624D01*
X76146Y22621D01*
X76139Y22617D01*
X76133Y22612D01*
X76129Y22606D01*
X76125Y22599D01*
X76123Y22592D01*
X76122Y22583D01*
X76026Y22705D01*
X76163Y22707D01*
X76186Y22628D01*
D02*
G37*
G36*
X82760Y22545D02*
X82750Y22555D01*
X82740Y22563D01*
X82730Y22571D01*
X82721Y22577D01*
X82711Y22583D01*
X82701Y22587D01*
X82690Y22591D01*
X82680Y22593D01*
X82670Y22595D01*
X82660Y22595D01*
Y22660D01*
X82670Y22661D01*
X82680Y22662D01*
X82690Y22665D01*
X82701Y22668D01*
X82711Y22673D01*
X82721Y22679D01*
X82730Y22685D01*
X82740Y22693D01*
X82750Y22701D01*
X82760Y22711D01*
Y22545D01*
D02*
G37*
G36*
X80891Y22627D02*
X80890Y22624D01*
X80889Y22619D01*
X80888Y22612D01*
X80886Y22592D01*
X80885Y22528D01*
X80785D01*
X80785Y22547D01*
X80780Y22624D01*
X80779Y22627D01*
X80777Y22628D01*
X80893D01*
X80891Y22627D01*
D02*
G37*
G36*
X76940Y22334D02*
X77135D01*
X77130Y22332D01*
X77127Y22328D01*
X77123Y22320D01*
X77120Y22310D01*
X77118Y22296D01*
X77116Y22280D01*
X77115Y22266D01*
X77118Y22221D01*
X77120Y22208D01*
X77123Y22197D01*
X77127Y22190D01*
X77130Y22185D01*
X77135Y22184D01*
X76940D01*
X76944Y22185D01*
X76948Y22190D01*
X76952Y22197D01*
X76954Y22208D01*
X76957Y22221D01*
X76959Y22238D01*
X76960Y22251D01*
X76957Y22296D01*
X76954Y22310D01*
X76952Y22320D01*
X76948Y22328D01*
X76944Y22332D01*
X76940Y22334D01*
X76939Y22338D01*
X76934Y22342D01*
X76927Y22345D01*
X76916Y22348D01*
X76903Y22351D01*
X76886Y22353D01*
X76867Y22354D01*
X76846Y22352D01*
X76842Y22351D01*
X76838Y22350D01*
X76836Y22348D01*
Y22355D01*
X76790Y22356D01*
Y22506D01*
X76819Y22506D01*
X76836Y22507D01*
Y22514D01*
X76838Y22512D01*
X76842Y22511D01*
X76846Y22510D01*
X76852Y22509D01*
X76855Y22509D01*
X76903Y22512D01*
X76916Y22514D01*
X76927Y22517D01*
X76934Y22520D01*
X76939Y22524D01*
X76940Y22528D01*
Y22334D01*
D02*
G37*
G36*
X87733Y22632D02*
X87735Y22600D01*
X87755D01*
X87750Y22599D01*
X87747Y22595D01*
X87743Y22590D01*
X87740Y22582D01*
X87739Y22576D01*
X87740Y22573D01*
X87742Y22570D01*
X87745Y22567D01*
X87737Y22566D01*
X87736Y22560D01*
X87734Y22546D01*
X87733Y22511D01*
X87732Y22490D01*
X87584D01*
X87607Y22376D01*
X87604Y22377D01*
X87602Y22377D01*
X87599Y22376D01*
X87595Y22375D01*
X87591Y22372D01*
X87586Y22369D01*
X87581Y22365D01*
X87569Y22355D01*
X87563Y22349D01*
X87457Y22455D01*
X87576Y22531D01*
X87582Y22497D01*
X87582Y22511D01*
X87579Y22560D01*
X87577Y22572D01*
X87574Y22582D01*
X87572Y22590D01*
X87568Y22595D01*
X87564Y22599D01*
X87560Y22600D01*
X87582D01*
X87582Y22612D01*
X87732Y22646D01*
X87733Y22632D01*
D02*
G37*
G36*
X88158Y22598D02*
X88167Y22595D01*
X88175Y22589D01*
X88181Y22580D01*
X88187Y22570D01*
X88192Y22556D01*
X88195Y22541D01*
X88198Y22523D01*
X88199Y22502D01*
X88200Y22480D01*
X88080D01*
X88079Y22502D01*
X88077Y22523D01*
X88074Y22541D01*
X88070Y22556D01*
X88065Y22570D01*
X88058Y22580D01*
X88050Y22589D01*
X88041Y22595D01*
X88031Y22598D01*
X88020Y22600D01*
X88148D01*
X88158Y22598D01*
D02*
G37*
G36*
X87419D02*
X87409Y22595D01*
X87401Y22589D01*
X87393Y22580D01*
X87387Y22570D01*
X87382Y22556D01*
X87378Y22541D01*
X87375Y22523D01*
X87374Y22502D01*
X87373Y22480D01*
X87253D01*
X87253Y22502D01*
X87249Y22570D01*
X87247Y22580D01*
X87244Y22589D01*
X87242Y22595D01*
X87239Y22598D01*
X87235Y22600D01*
X87430D01*
X87419Y22598D01*
D02*
G37*
G36*
X86055Y22430D02*
X86054Y22430D01*
X86054Y22429D01*
X86054Y22429D01*
X86054Y22429D01*
X86054Y22429D01*
X86054Y22429D01*
X86054Y22429D01*
X86054Y22429D01*
X86054Y22429D01*
X86054Y22429D01*
X85498D01*
X85501Y22431D01*
X85634Y22566D01*
X85776Y22708D01*
X86055Y22430D01*
D02*
G37*
G36*
X76730Y22547D02*
X76634Y22426D01*
X76633Y22434D01*
X76631Y22442D01*
X76627Y22448D01*
X76623Y22454D01*
X76617Y22459D01*
X76610Y22463D01*
X76602Y22466D01*
X76592Y22468D01*
X76581Y22469D01*
X76570Y22470D01*
X76593Y22550D01*
X76730Y22547D01*
D02*
G37*
G36*
X86709Y22776D02*
X86703Y22758D01*
X86704Y22737D01*
X86709Y22714D01*
X86720Y22687D01*
X86737Y22658D01*
X86760Y22626D01*
X86788Y22591D01*
X86860Y22513D01*
X86704Y22391D01*
X86664Y22431D01*
X86524Y22591D01*
X86523Y22598D01*
X86527Y22600D01*
X86720Y22791D01*
X86709Y22776D01*
D02*
G37*
G36*
X83544Y22501D02*
X83549Y22438D01*
X83553Y22412D01*
X83558Y22391D01*
X83564Y22373D01*
X83572Y22359D01*
X83580Y22349D01*
X83590Y22343D01*
X83601Y22341D01*
X83289D01*
X83300Y22343D01*
X83309Y22349D01*
X83318Y22359D01*
X83326Y22373D01*
X83332Y22391D01*
X83337Y22412D01*
X83341Y22438D01*
X83344Y22467D01*
X83346Y22538D01*
X83543D01*
X83544Y22501D01*
D02*
G37*
G36*
X88200Y22409D02*
X88203Y22371D01*
X88206Y22355D01*
X88209Y22342D01*
X88213Y22331D01*
X88218Y22323D01*
X88224Y22317D01*
X88230Y22313D01*
X88237Y22312D01*
X88043D01*
X88050Y22313D01*
X88056Y22317D01*
X88062Y22323D01*
X88066Y22331D01*
X88070Y22342D01*
X88074Y22355D01*
X88076Y22371D01*
X88078Y22389D01*
X88080Y22432D01*
X88200D01*
X88200Y22409D01*
D02*
G37*
G36*
X77712Y23082D02*
Y22349D01*
X77677Y22313D01*
X77630Y22285D01*
Y22285D01*
X77630Y22285D01*
X77273D01*
X77259Y22302D01*
X77237Y22334D01*
X77236Y22338D01*
Y22567D01*
Y22931D01*
Y23282D01*
X77512D01*
X77712Y23082D01*
D02*
G37*
G36*
X75017Y22286D02*
X75002Y22283D01*
X74962Y22270D01*
X74950Y22265D01*
X74931Y22255D01*
X74922Y22249D01*
X74915Y22244D01*
X74908Y22238D01*
X74855Y22269D01*
X74862Y22277D01*
X74868Y22285D01*
X74872Y22294D01*
X74876Y22304D01*
X74879Y22314D01*
X74880Y22324D01*
X74881Y22335D01*
X74880Y22347D01*
X74878Y22359D01*
X74875Y22372D01*
X75017Y22286D01*
D02*
G37*
G36*
X74758Y22307D02*
X74749Y22297D01*
X74741Y22286D01*
X74734Y22276D01*
X74728Y22266D01*
X74723Y22256D01*
X74720Y22246D01*
X74717Y22236D01*
X74716Y22226D01*
X74715Y22216D01*
X74655D01*
X74655Y22226D01*
X74653Y22236D01*
X74650Y22246D01*
X74647Y22256D01*
X74642Y22266D01*
X74636Y22276D01*
X74629Y22286D01*
X74621Y22297D01*
X74612Y22307D01*
X74602Y22317D01*
X74768D01*
X74758Y22307D01*
D02*
G37*
G36*
X71849Y22267D02*
X71851Y22260D01*
X71856Y22254D01*
X71861Y22249D01*
X71869Y22245D01*
X71877Y22241D01*
X71888Y22238D01*
X71900Y22236D01*
X71914Y22235D01*
X71929Y22235D01*
Y22155D01*
X71849Y22176D01*
X71848Y22275D01*
X71849Y22267D01*
D02*
G37*
G36*
X88202Y22119D02*
X88194Y22124D01*
X88184Y22127D01*
X88173Y22126D01*
X88159Y22122D01*
X88144Y22115D01*
X88127Y22105D01*
X88109Y22092D01*
X88088Y22075D01*
X88043Y22032D01*
X87958Y22117D01*
X87981Y22141D01*
X88017Y22183D01*
X88030Y22202D01*
X88041Y22219D01*
X88048Y22234D01*
X88052Y22247D01*
X88052Y22259D01*
X88050Y22269D01*
X88044Y22277D01*
X88202Y22119D01*
D02*
G37*
G36*
X83603Y22330D02*
X83609Y22320D01*
X83619Y22312D01*
X83633Y22304D01*
X83650Y22298D01*
X83672Y22293D01*
X83698Y22289D01*
X83727Y22286D01*
X83798Y22283D01*
Y22087D01*
X83761Y22086D01*
X83698Y22081D01*
X83672Y22077D01*
X83650Y22072D01*
X83633Y22066D01*
X83619Y22058D01*
X83609Y22050D01*
X83603Y22040D01*
X83601Y22029D01*
Y22341D01*
X83603Y22330D01*
D02*
G37*
G36*
X77528Y22141D02*
X77530Y22136D01*
X77533Y22131D01*
X77537Y22127D01*
X77542Y22124D01*
X77549Y22121D01*
X77557Y22119D01*
X77566Y22118D01*
X77577Y22117D01*
X77588Y22117D01*
Y22057D01*
X77577Y22056D01*
X77566Y22055D01*
X77557Y22054D01*
X77549Y22052D01*
X77542Y22049D01*
X77537Y22046D01*
X77533Y22042D01*
X77530Y22037D01*
X77528Y22032D01*
X77527Y22027D01*
Y22147D01*
X77528Y22141D01*
D02*
G37*
G36*
X74715Y21971D02*
X74714Y21913D01*
X74636D01*
X74640Y21915D01*
X74643Y21918D01*
X74646Y21922D01*
X74648Y21927D01*
X74650Y21933D01*
X74652Y21940D01*
X74653Y21948D01*
X74654Y21957D01*
X74655Y21978D01*
X74715Y21971D01*
D02*
G37*
G36*
X74558D02*
X74557Y21913D01*
X74479D01*
X74482Y21915D01*
X74485Y21918D01*
X74488Y21922D01*
X74491Y21927D01*
X74493Y21934D01*
X74495Y21941D01*
X74496Y21949D01*
X74497Y21958D01*
X74498Y21980D01*
X74558Y21971D01*
D02*
G37*
G36*
X82970Y22028D02*
X82966Y22024D01*
X82963Y22018D01*
X82960Y22010D01*
X82958Y21999D01*
X82956Y21986D01*
X82954Y21952D01*
X82953Y21909D01*
X82756D01*
X82756Y21932D01*
X82751Y21999D01*
X82748Y22010D01*
X82746Y22018D01*
X82743Y22024D01*
X82739Y22028D01*
X82735Y22029D01*
X82974D01*
X82970Y22028D01*
D02*
G37*
G36*
X87134Y23003D02*
Y22603D01*
X87133Y22600D01*
X87134Y22597D01*
X87134Y22595D01*
X87134Y22592D01*
Y22498D01*
X87150D01*
Y22313D01*
X87161Y22255D01*
Y22239D01*
X87171Y22191D01*
X87199Y22149D01*
X87240Y22122D01*
X87288Y22112D01*
X87338D01*
X87386Y22122D01*
X87411Y22139D01*
X87437Y22122D01*
X87485Y22112D01*
X87534D01*
X87585Y22062D01*
Y22013D01*
X87594Y21964D01*
X87611Y21939D01*
X87594Y21914D01*
X87585Y21865D01*
Y21816D01*
X87594Y21767D01*
X87611Y21742D01*
X87594Y21717D01*
X87585Y21668D01*
Y21619D01*
X87594Y21570D01*
X87611Y21545D01*
X87594Y21520D01*
X87585Y21471D01*
Y21422D01*
X87594Y21374D01*
X87611Y21348D01*
X87594Y21323D01*
X87585Y21275D01*
Y21225D01*
X87594Y21177D01*
X87611Y21152D01*
X87594Y21126D01*
X87585Y21078D01*
Y21029D01*
X87534Y20978D01*
X87485D01*
X87437Y20969D01*
X87411Y20952D01*
X87386Y20969D01*
X87338Y20978D01*
X87288D01*
X87240Y20969D01*
X87199Y20941D01*
X87171Y20900D01*
X87161Y20851D01*
Y20835D01*
X87150Y20778D01*
Y20602D01*
X87134D01*
Y20508D01*
X87134Y20506D01*
X87134Y20503D01*
X87133Y20501D01*
X87134Y20497D01*
Y20114D01*
X86891D01*
X86874Y20117D01*
X86859Y20122D01*
X86850Y20126D01*
X86844Y20132D01*
X86839Y20138D01*
X86834Y20147D01*
X86829Y20161D01*
X86826Y20178D01*
Y20517D01*
X86888Y20578D01*
X86895Y20577D01*
X86944D01*
X86993Y20586D01*
X87034Y20614D01*
X87061Y20655D01*
X87071Y20704D01*
Y20851D01*
X87061Y20900D01*
X87034Y20941D01*
X86993Y20969D01*
X86970Y20973D01*
X86850Y21094D01*
X86840Y21100D01*
X86835Y21126D01*
X86807Y21168D01*
X86766Y21195D01*
X86718Y21205D01*
X86574D01*
X86563Y21214D01*
X86534Y21258D01*
X86539Y21268D01*
X86644D01*
X86712Y21282D01*
X86738Y21299D01*
X86766Y21305D01*
X86807Y21332D01*
X86835Y21374D01*
X86845Y21422D01*
Y21471D01*
X86835Y21520D01*
X86818Y21545D01*
X86835Y21570D01*
X86845Y21619D01*
Y21668D01*
X86835Y21717D01*
X86807Y21758D01*
X86766Y21786D01*
X86718Y21795D01*
X86701D01*
X86644Y21807D01*
X86500D01*
X86497Y21820D01*
X86473Y21857D01*
X86516Y21899D01*
X86521Y21895D01*
X86570Y21886D01*
X86718D01*
X86766Y21895D01*
X86807Y21923D01*
X86835Y21964D01*
X86845Y22013D01*
Y22014D01*
X86860Y22037D01*
X86864Y22058D01*
X86895Y22112D01*
X86944D01*
X86993Y22122D01*
X87034Y22149D01*
X87061Y22191D01*
X87071Y22239D01*
Y22387D01*
X87061Y22435D01*
X87034Y22477D01*
X87021Y22485D01*
X86993Y22527D01*
X86898Y22622D01*
X86865Y22658D01*
X86841Y22687D01*
X86826Y22708D01*
Y23016D01*
X87121D01*
X87134Y23003D01*
D02*
G37*
G36*
X84390Y22573D02*
X84365Y22554D01*
X84317Y22492D01*
X84288Y22420D01*
X84277Y22343D01*
X84288Y22265D01*
X84317Y22193D01*
X84365Y22131D01*
X84427Y22083D01*
X84499Y22053D01*
X84577Y22043D01*
X85673D01*
X85748Y22033D01*
X85826Y22043D01*
X85898Y22073D01*
X85960Y22121D01*
X85970Y22134D01*
X86163D01*
Y22252D01*
X86290D01*
X86309Y22248D01*
X86329Y22252D01*
X86410D01*
Y22175D01*
X86425Y22098D01*
X86444Y22069D01*
X86443Y22062D01*
Y22013D01*
X86443Y22013D01*
X86447Y22007D01*
X86491Y21960D01*
X86406Y21875D01*
X86382Y21899D01*
X86338Y21936D01*
X86329Y21942D01*
X86309Y21946D01*
X85748D01*
X85720Y21941D01*
X85333D01*
Y21544D01*
X85333D01*
X85333Y21537D01*
X85333D01*
Y21140D01*
X85720D01*
X85748Y21135D01*
X86211D01*
X86212Y21141D01*
Y21135D01*
X86220D01*
X86220Y21135D01*
X86309D01*
X86387Y21150D01*
X86406Y21163D01*
X86443Y21134D01*
X86452Y21122D01*
X86443Y21078D01*
Y21029D01*
X86450Y20993D01*
X86441Y20951D01*
Y20861D01*
X86432Y20852D01*
X86309D01*
X86290Y20848D01*
X86163D01*
Y20946D01*
X85973D01*
X85960Y20960D01*
X85898Y21007D01*
X85826Y21037D01*
X85748Y21047D01*
X85390D01*
X85315Y21057D01*
X85237Y21047D01*
X85222Y21041D01*
X85197Y21050D01*
X85160Y21079D01*
X85148Y21140D01*
X85104Y21206D01*
X83981Y22328D01*
X83916Y22372D01*
X83838Y22387D01*
X83741D01*
X83734Y22388D01*
X83711Y22390D01*
X83702Y22391D01*
Y22443D01*
X83651D01*
X83650Y22450D01*
X83647Y22486D01*
Y22632D01*
X84370D01*
X84390Y22573D01*
D02*
G37*
G36*
X72297Y21921D02*
X72289Y21912D01*
X72281Y21904D01*
X72275Y21895D01*
X72269Y21886D01*
X72264Y21877D01*
X72261Y21868D01*
X72258Y21859D01*
X72256Y21850D01*
X72254Y21841D01*
X72254Y21832D01*
X72137Y21949D01*
X72146Y21949D01*
X72155Y21950D01*
X72164Y21952D01*
X72173Y21955D01*
X72182Y21959D01*
X72191Y21964D01*
X72200Y21970D01*
X72209Y21976D01*
X72218Y21984D01*
X72226Y21992D01*
X72297Y21921D01*
D02*
G37*
G36*
X72046Y21754D02*
X72043Y21757D01*
X72038Y21760D01*
X72033Y21762D01*
X72026Y21765D01*
X72018Y21767D01*
X72009Y21768D01*
X71999Y21769D01*
X71976Y21771D01*
X71963Y21771D01*
X71959Y21871D01*
X71971Y21871D01*
X71992Y21873D01*
X72001Y21874D01*
X72009Y21876D01*
X72017Y21878D01*
X72023Y21881D01*
X72028Y21884D01*
X72032Y21888D01*
X72035Y21892D01*
X72046Y21754D01*
D02*
G37*
G36*
X76941Y21702D02*
X76941Y21705D01*
X76939Y21709D01*
X76936Y21712D01*
X76932Y21715D01*
X76926Y21717D01*
X76919Y21719D01*
X76911Y21720D01*
X76902Y21721D01*
X76880Y21722D01*
Y21802D01*
X76892Y21802D01*
X76911Y21804D01*
X76919Y21805D01*
X76926Y21807D01*
X76932Y21809D01*
X76936Y21812D01*
X76939Y21815D01*
X76941Y21818D01*
X76941Y21822D01*
Y21702D01*
D02*
G37*
G36*
X82410Y21773D02*
X82399Y21765D01*
X82389Y21757D01*
X82381Y21748D01*
X82373Y21739D01*
X82367Y21730D01*
X82363Y21722D01*
X82364Y21721D01*
X82368Y21717D01*
X82372Y21714D01*
X82377Y21712D01*
X82383Y21711D01*
X82358D01*
X82355Y21702D01*
X82353Y21692D01*
X82353Y21682D01*
X82293Y21692D01*
X82292Y21701D01*
X82291Y21711D01*
X82291Y21711D01*
X82263D01*
X82269Y21712D01*
X82274Y21714D01*
X82278Y21717D01*
X82282Y21721D01*
X82285Y21726D01*
X82286Y21729D01*
X82285Y21731D01*
X82281Y21742D01*
X82276Y21753D01*
X82270Y21764D01*
X82256Y21788D01*
X82247Y21801D01*
X82410Y21773D01*
D02*
G37*
G36*
X82134Y21788D02*
X82119Y21764D01*
X82113Y21753D01*
X82108Y21742D01*
X82104Y21731D01*
X82103Y21729D01*
X82104Y21726D01*
X82108Y21721D01*
X82112Y21717D01*
X82116Y21714D01*
X82121Y21712D01*
X82127Y21711D01*
X82099D01*
X82099Y21711D01*
X82097Y21701D01*
X82097Y21692D01*
X82037Y21682D01*
X82036Y21692D01*
X82035Y21702D01*
X82032Y21711D01*
X82007D01*
X82013Y21712D01*
X82018Y21714D01*
X82022Y21717D01*
X82026Y21721D01*
X82027Y21722D01*
X82023Y21730D01*
X82016Y21739D01*
X82009Y21748D01*
X82000Y21757D01*
X81991Y21765D01*
X81980Y21773D01*
X82143Y21801D01*
X82134Y21788D01*
D02*
G37*
G36*
X72746Y21630D02*
X72744Y21635D01*
X72741Y21639D01*
X72736Y21642D01*
X72731Y21645D01*
X72725Y21648D01*
X72718Y21650D01*
X72710Y21651D01*
X72701Y21653D01*
X72691Y21653D01*
X72681Y21654D01*
Y21713D01*
X72692Y21713D01*
X72703Y21714D01*
X72712Y21715D01*
X72720Y21717D01*
X72726Y21720D01*
X72732Y21723D01*
X72736Y21727D01*
X72739Y21732D01*
X72740Y21737D01*
X72741Y21742D01*
X72746Y21630D01*
D02*
G37*
G36*
X86409Y21749D02*
X86411Y21742D01*
X86414Y21736D01*
X86417Y21729D01*
X86421Y21722D01*
X86425Y21715D01*
X86430Y21708D01*
X86443Y21694D01*
X86450Y21686D01*
X86365Y21601D01*
X86358Y21608D01*
X86343Y21621D01*
X86336Y21626D01*
X86329Y21630D01*
X86322Y21634D01*
X86315Y21637D01*
X86309Y21640D01*
X86302Y21642D01*
X86296Y21643D01*
X86408Y21755D01*
X86409Y21749D01*
D02*
G37*
G36*
X88043Y21625D02*
X88041Y21617D01*
X88038Y21610D01*
X88032Y21604D01*
X88023Y21599D01*
X88013Y21594D01*
X87999Y21590D01*
X87984Y21587D01*
X87966Y21585D01*
X87945Y21584D01*
X87923Y21584D01*
Y21704D01*
X87945Y21704D01*
X87966Y21706D01*
X87984Y21709D01*
X88000Y21713D01*
X88013Y21719D01*
X88024Y21725D01*
X88033Y21733D01*
X88039Y21742D01*
X88042Y21752D01*
X88044Y21764D01*
X88043Y21625D01*
D02*
G37*
G36*
X74083Y21629D02*
X74081Y21627D01*
X74080Y21623D01*
X74079Y21618D01*
X74078Y21612D01*
X74077Y21606D01*
X74076Y21588D01*
X74075Y21567D01*
X74015D01*
X74015Y21578D01*
X74013Y21612D01*
X74012Y21618D01*
X74011Y21623D01*
X74009Y21627D01*
X74008Y21629D01*
X74006Y21630D01*
X74084D01*
X74083Y21629D01*
D02*
G37*
G36*
X73925D02*
X73924Y21627D01*
X73922Y21623D01*
X73921Y21618D01*
X73920Y21612D01*
X73919Y21606D01*
X73918Y21588D01*
X73918Y21567D01*
X73858D01*
X73858Y21578D01*
X73856Y21612D01*
X73855Y21618D01*
X73853Y21623D01*
X73852Y21627D01*
X73850Y21629D01*
X73849Y21630D01*
X73927D01*
X73925Y21629D01*
D02*
G37*
G36*
X73610D02*
X73609Y21627D01*
X73607Y21623D01*
X73606Y21618D01*
X73605Y21612D01*
X73604Y21606D01*
X73603Y21588D01*
X73603Y21567D01*
X73543D01*
X73543Y21578D01*
X73541Y21612D01*
X73540Y21618D01*
X73538Y21623D01*
X73537Y21627D01*
X73536Y21629D01*
X73534Y21630D01*
X73612D01*
X73610Y21629D01*
D02*
G37*
G36*
X72603Y21655D02*
X72596Y21648D01*
X72590Y21640D01*
X72585Y21631D01*
X72581Y21621D01*
X72577Y21611D01*
X72574Y21600D01*
X72572Y21588D01*
X72570Y21575D01*
X72569Y21561D01*
X72569Y21546D01*
X72452Y21663D01*
X72466Y21664D01*
X72493Y21666D01*
X72505Y21668D01*
X72516Y21671D01*
X72527Y21675D01*
X72537Y21680D01*
X72545Y21685D01*
X72554Y21691D01*
X72561Y21697D01*
X72603Y21655D01*
D02*
G37*
G36*
X74787Y21429D02*
X74754Y21395D01*
X74752Y21392D01*
X74745Y21383D01*
X74740Y21374D01*
X74735Y21365D01*
X74731Y21356D01*
X74728Y21347D01*
X74726Y21338D01*
X74725Y21329D01*
X74724Y21320D01*
X74703Y21341D01*
X74681Y21319D01*
X74606Y21394D01*
X74608Y21395D01*
X74612Y21398D01*
X74626Y21411D01*
X74630Y21415D01*
X74612Y21432D01*
X74489Y21333D01*
X74490Y21342D01*
X74489Y21351D01*
X74488Y21360D01*
X74485Y21369D01*
X74482Y21378D01*
X74478Y21387D01*
X74472Y21396D01*
X74466Y21404D01*
X74459Y21413D01*
X74451Y21422D01*
X74530Y21484D01*
X74539Y21476D01*
X74556Y21462D01*
X74565Y21456D01*
X74574Y21451D01*
X74582Y21446D01*
X74591Y21443D01*
X74600Y21440D01*
X74609Y21438D01*
X74613Y21437D01*
X74617Y21437D01*
X74626Y21439D01*
X74635Y21441D01*
X74644Y21444D01*
X74653Y21448D01*
X74662Y21452D01*
X74670Y21458D01*
X74679Y21464D01*
X74688Y21472D01*
X74717Y21500D01*
X74787Y21429D01*
D02*
G37*
G36*
X82795Y21711D02*
X82760Y21675D01*
X82704Y21607D01*
X82682Y21576D01*
X82666Y21547D01*
X82655Y21520D01*
X82648Y21496D01*
X82646Y21473D01*
X82649Y21452D01*
X82656Y21433D01*
X82501Y21711D01*
X82506Y21713D01*
X82512Y21717D01*
X82522Y21724D01*
X82548Y21746D01*
X82630Y21824D01*
X82656Y21851D01*
X82795Y21711D01*
D02*
G37*
G36*
X75183Y21402D02*
X75175Y21394D01*
X75148Y21363D01*
X75146Y21359D01*
X75144Y21356D01*
X75143Y21354D01*
X75143Y21352D01*
X75140Y21355D01*
X75108Y21319D01*
X75105Y21314D01*
X75105Y21312D01*
X75105Y21298D01*
X75108Y21249D01*
X75110Y21237D01*
X75111Y21235D01*
X75112D01*
X75111Y21233D01*
X75113Y21227D01*
X75115Y21219D01*
X75119Y21214D01*
X75123Y21211D01*
X75127Y21209D01*
X75106D01*
X75106Y21203D01*
X75105Y21182D01*
X75105Y21157D01*
X74955D01*
X74954Y21170D01*
X74952Y21209D01*
X74932D01*
X74937Y21211D01*
X74940Y21214D01*
X74944Y21219D01*
X74947Y21227D01*
X74948Y21233D01*
X74947Y21235D01*
X74948D01*
X74949Y21237D01*
X74951Y21249D01*
X74953Y21263D01*
X74954Y21298D01*
X74955Y21319D01*
X75096D01*
X75021Y21393D01*
X75025Y21395D01*
X75029Y21397D01*
X75035Y21401D01*
X75042Y21407D01*
X75066Y21428D01*
X75062Y21432D01*
X75064Y21432D01*
X75067Y21433D01*
X75070Y21435D01*
X75074Y21438D01*
X75079Y21441D01*
X75090Y21451D01*
X75112Y21472D01*
X75183Y21402D01*
D02*
G37*
G36*
X75964Y21491D02*
X75946Y21487D01*
X75946Y21478D01*
X75948Y21438D01*
X75949Y21433D01*
X75950Y21429D01*
X75951Y21426D01*
X75953Y21423D01*
X75858D01*
X75860Y21426D01*
X75861Y21429D01*
X75862Y21433D01*
X75863Y21438D01*
X75864Y21451D01*
X75865Y21468D01*
X75865Y21468D01*
X75808Y21455D01*
X75813Y21463D01*
X75817Y21471D01*
X75818Y21479D01*
X75819Y21487D01*
X75818Y21496D01*
X75816Y21504D01*
X75812Y21512D01*
X75807Y21521D01*
X75800Y21529D01*
X75793Y21538D01*
X75861Y21582D01*
X75964Y21491D01*
D02*
G37*
G36*
X76181Y21568D02*
X76189Y21561D01*
X76198Y21555D01*
X76207Y21550D01*
X76215Y21547D01*
X76224Y21544D01*
X76232Y21543D01*
X76240Y21543D01*
X76248Y21545D01*
X76256Y21547D01*
X76188Y21396D01*
X76185Y21403D01*
X76182Y21411D01*
X76178Y21418D01*
X76168Y21433D01*
X76162Y21441D01*
X76148Y21458D01*
X76132Y21475D01*
X76172Y21576D01*
X76181Y21568D01*
D02*
G37*
G36*
X75346Y21558D02*
X75347Y21548D01*
X75349Y21538D01*
X75352Y21530D01*
X75356Y21523D01*
X75361Y21517D01*
X75367Y21512D01*
X75373Y21509D01*
X75381Y21507D01*
X75389Y21506D01*
X75354Y21478D01*
X75357Y21476D01*
X75363Y21473D01*
X75369Y21469D01*
X75375Y21467D01*
X75381Y21465D01*
X75388Y21463D01*
X75394Y21462D01*
X75310Y21378D01*
X75308Y21384D01*
X75307Y21390D01*
X75305Y21397D01*
X75302Y21403D01*
X75299Y21409D01*
X75296Y21415D01*
X75292Y21421D01*
X75288Y21426D01*
X75268Y21410D01*
X75265Y21547D01*
X75345Y21570D01*
X75346Y21558D01*
D02*
G37*
G36*
X76941Y21337D02*
X76941Y21345D01*
X76938Y21352D01*
X76934Y21358D01*
X76928Y21363D01*
X76921Y21367D01*
X76912Y21371D01*
X76902Y21374D01*
X76889Y21376D01*
X76876Y21377D01*
X76860Y21377D01*
Y21457D01*
X76876Y21458D01*
X76889Y21459D01*
X76902Y21461D01*
X76912Y21464D01*
X76921Y21467D01*
X76928Y21472D01*
X76934Y21477D01*
X76938Y21483D01*
X76941Y21490D01*
X76941Y21497D01*
Y21337D01*
D02*
G37*
G36*
X88043Y21455D02*
X88044Y21327D01*
X88042Y21338D01*
X88039Y21348D01*
X88033Y21357D01*
X88024Y21365D01*
X88013Y21372D01*
X88000Y21377D01*
X87984Y21381D01*
X87966Y21384D01*
X87945Y21386D01*
X87923Y21387D01*
Y21507D01*
X88043Y21455D01*
D02*
G37*
G36*
X86470Y21394D02*
X86408Y21325D01*
X86295Y21438D01*
X86297Y21438D01*
X86300Y21440D01*
X86305Y21444D01*
X86316Y21454D01*
X86364Y21500D01*
X86470Y21394D01*
D02*
G37*
G36*
X74118Y21457D02*
X74126Y21451D01*
X74134Y21447D01*
X74143Y21444D01*
X74152Y21442D01*
X74161Y21442D01*
X74170Y21444D01*
X74179Y21447D01*
X74189Y21451D01*
X74199Y21457D01*
X74160Y21302D01*
X74154Y21313D01*
X74122Y21363D01*
X74115Y21371D01*
X74097Y21392D01*
X74110Y21464D01*
X74118Y21457D01*
D02*
G37*
G36*
X72945Y21400D02*
X72972Y21383D01*
X72980Y21379D01*
X72987Y21375D01*
X72994Y21372D01*
X73000Y21370D01*
X73006Y21369D01*
X73012Y21369D01*
Y21289D01*
X73006Y21288D01*
X73000Y21287D01*
X72994Y21285D01*
X72987Y21282D01*
X72980Y21279D01*
X72972Y21275D01*
X72954Y21264D01*
X72935Y21250D01*
Y21408D01*
X72945Y21400D01*
D02*
G37*
G36*
X74084Y21274D02*
X74085Y21254D01*
X74085Y21251D01*
X74086Y21249D01*
X74087Y21247D01*
X74088Y21245D01*
X74089Y21245D01*
X74019D01*
X74020Y21245D01*
X74020Y21247D01*
X74021Y21249D01*
X74022Y21251D01*
X74022Y21254D01*
X74023Y21258D01*
X74023Y21268D01*
X74024Y21280D01*
X74084D01*
X74084Y21274D01*
D02*
G37*
G36*
X77919Y22103D02*
Y21713D01*
X77455Y21248D01*
X77454Y21248D01*
X77452Y21247D01*
X77449Y21246D01*
X77444Y21245D01*
X77438Y21244D01*
X77432Y21244D01*
X77421Y21246D01*
X77336Y21229D01*
X77285Y21195D01*
X77236Y21233D01*
Y21563D01*
Y21888D01*
X77630D01*
Y21954D01*
X77638D01*
X77689Y21964D01*
X77732Y21993D01*
X77865Y22126D01*
X77919Y22103D01*
D02*
G37*
G36*
X71396Y21352D02*
X71399Y21326D01*
X71401Y21314D01*
X71404Y21302D01*
X71408Y21292D01*
X71412Y21282D01*
X71417Y21273D01*
X71423Y21265D01*
X71430Y21258D01*
X71388Y21216D01*
X71381Y21223D01*
X71373Y21229D01*
X71364Y21234D01*
X71354Y21238D01*
X71344Y21242D01*
X71332Y21245D01*
X71320Y21247D01*
X71307Y21249D01*
X71294Y21250D01*
X71279Y21250D01*
X71396Y21367D01*
X71396Y21352D01*
D02*
G37*
G36*
X76374Y21353D02*
X76382D01*
X76380Y21351D01*
X76379Y21347D01*
X76378Y21342D01*
X76377Y21337D01*
X76375Y21321D01*
X76375Y21318D01*
X76380Y21247D01*
X76382Y21233D01*
X76385Y21223D01*
X76388Y21215D01*
X76392Y21211D01*
X76396Y21209D01*
X76202D01*
X76206Y21211D01*
X76210Y21215D01*
X76213Y21223D01*
X76216Y21233D01*
X76219Y21247D01*
X76221Y21263D01*
X76223Y21303D01*
X76220Y21342D01*
X76219Y21347D01*
X76218Y21351D01*
X76217Y21353D01*
X76224D01*
X76224Y21359D01*
X76374D01*
X76374Y21353D01*
D02*
G37*
G36*
X76028Y21319D02*
X76049D01*
X76050Y21298D01*
X76053Y21249D01*
X76055Y21237D01*
X76057Y21227D01*
X76060Y21219D01*
X76064Y21214D01*
X76067Y21211D01*
X76072Y21209D01*
X75971D01*
X75899Y21199D01*
X75899Y21209D01*
X75877D01*
X75881Y21211D01*
X75885Y21214D01*
X75889Y21219D01*
X75891Y21227D01*
X75894Y21237D01*
X75896Y21249D01*
X75896Y21253D01*
X75895Y21259D01*
X75894Y21264D01*
X75892Y21268D01*
X75890Y21270D01*
X75888Y21271D01*
X75898Y21278D01*
X75899Y21298D01*
X75899Y21319D01*
X75960D01*
X76020Y21358D01*
X76028Y21319D01*
D02*
G37*
G36*
X76517Y21188D02*
X76546Y21187D01*
Y21037D01*
X76518Y21037D01*
X76517Y21037D01*
Y21015D01*
X76515Y21019D01*
X76511Y21023D01*
X76503Y21026D01*
X76493Y21029D01*
X76479Y21032D01*
X76464Y21034D01*
X76434Y21032D01*
X76420Y21029D01*
X76410Y21026D01*
X76402Y21023D01*
X76398Y21019D01*
X76396Y21015D01*
Y21037D01*
X76367Y21037D01*
Y21187D01*
X76395Y21187D01*
X76396Y21187D01*
Y21209D01*
X76398Y21205D01*
X76402Y21201D01*
X76410Y21198D01*
X76420Y21195D01*
X76434Y21193D01*
X76450Y21191D01*
X76479Y21193D01*
X76493Y21195D01*
X76503Y21198D01*
X76511Y21201D01*
X76515Y21205D01*
X76517Y21209D01*
Y21188D01*
D02*
G37*
G36*
X77575Y21131D02*
X77568Y21123D01*
X77562Y21115D01*
X77556Y21106D01*
X77552Y21097D01*
X77548Y21086D01*
X77545Y21076D01*
X77542Y21064D01*
X77541Y21052D01*
X77540Y21039D01*
X77539Y21025D01*
X77422Y21142D01*
X77436Y21142D01*
X77449Y21143D01*
X77462Y21145D01*
X77473Y21147D01*
X77484Y21150D01*
X77494Y21154D01*
X77504Y21159D01*
X77513Y21164D01*
X77521Y21170D01*
X77529Y21177D01*
X77575Y21131D01*
D02*
G37*
G36*
X75452Y21303D02*
X75467D01*
X75465Y21301D01*
X75464Y21298D01*
X75463Y21293D01*
X75462Y21287D01*
X75460Y21272D01*
X75459Y21251D01*
X75459Y21226D01*
X75444D01*
X75442Y21209D01*
X75443Y21205D01*
X75448Y21201D01*
X75455Y21198D01*
X75466Y21195D01*
X75479Y21193D01*
X75495Y21191D01*
X75525Y21193D01*
X75538Y21195D01*
X75549Y21198D01*
X75556Y21201D01*
X75561Y21205D01*
X75562Y21209D01*
Y21188D01*
X75592Y21187D01*
Y21037D01*
X75563Y21037D01*
X75562Y21037D01*
Y21015D01*
X75561Y21019D01*
X75556Y21023D01*
X75549Y21026D01*
X75538Y21029D01*
X75525Y21032D01*
X75509Y21034D01*
X75479Y21032D01*
X75466Y21029D01*
X75455Y21026D01*
X75448Y21023D01*
X75443Y21019D01*
X75442Y21015D01*
Y21037D01*
X75412Y21037D01*
Y21187D01*
X75441Y21187D01*
X75442Y21187D01*
Y21209D01*
X75247D01*
X75259Y21211D01*
X75269Y21215D01*
X75279Y21223D01*
X75287Y21233D01*
X75293Y21247D01*
X75299Y21263D01*
X75303Y21283D01*
X75305Y21294D01*
X75304Y21298D01*
X75303Y21301D01*
X75301Y21303D01*
X75306D01*
X75306Y21305D01*
X75308Y21331D01*
X75309Y21359D01*
X75459D01*
X75452Y21303D01*
D02*
G37*
G36*
X76713Y21205D02*
X76717Y21201D01*
X76725Y21198D01*
X76735Y21195D01*
X76749Y21193D01*
X76765Y21191D01*
X76769Y21191D01*
X76804Y21193D01*
X76818Y21195D01*
X76828Y21198D01*
X76836Y21201D01*
X76840Y21205D01*
X76842Y21209D01*
Y21188D01*
X76861Y21187D01*
Y21037D01*
X76842Y21037D01*
Y21015D01*
X76840Y21019D01*
X76836Y21023D01*
X76828Y21026D01*
X76818Y21029D01*
X76804Y21032D01*
X76788Y21034D01*
X76784Y21034D01*
X76749Y21032D01*
X76735Y21029D01*
X76725Y21026D01*
X76717Y21023D01*
X76713Y21019D01*
X76711Y21015D01*
Y21037D01*
X76692Y21037D01*
Y21187D01*
X76711Y21187D01*
Y21209D01*
X76713Y21205D01*
D02*
G37*
G36*
X73554Y21088D02*
X73554Y21079D01*
X73555Y21070D01*
X73557Y21060D01*
X73560Y21049D01*
X73564Y21038D01*
X73574Y21015D01*
X73580Y21002D01*
X73595Y20976D01*
X73435Y21018D01*
X73446Y21025D01*
X73456Y21032D01*
X73465Y21039D01*
X73473Y21048D01*
X73479Y21056D01*
X73484Y21065D01*
X73488Y21074D01*
X73491Y21084D01*
X73493Y21094D01*
X73494Y21104D01*
X73554Y21088D01*
D02*
G37*
G36*
X72973Y21195D02*
X72980Y21186D01*
X72990Y21174D01*
X73075Y21083D01*
X73183Y20974D01*
X73011Y20864D01*
X72983Y20891D01*
X72930Y20936D01*
X72905Y20954D01*
X72881Y20970D01*
X72859Y20983D01*
X72837Y20992D01*
X72816Y20999D01*
X72796Y21004D01*
X72777Y21005D01*
X72971Y21200D01*
X72973Y21195D01*
D02*
G37*
G36*
X72491Y20855D02*
X72480Y20843D01*
X72461Y20821D01*
X72454Y20811D01*
X72449Y20803D01*
X72446Y20795D01*
X72444Y20788D01*
X72444Y20781D01*
X72445Y20776D01*
X72448Y20772D01*
X72366Y20854D01*
X72371Y20851D01*
X72376Y20849D01*
X72382Y20849D01*
X72389Y20851D01*
X72397Y20854D01*
X72406Y20860D01*
X72416Y20866D01*
X72426Y20875D01*
X72450Y20897D01*
X72491Y20855D01*
D02*
G37*
G36*
X88067Y21005D02*
X88112Y20967D01*
X88131Y20953D01*
X88149Y20943D01*
X88165Y20936D01*
X88179Y20933D01*
X88192Y20933D01*
X88203Y20936D01*
X88212Y20942D01*
X88044Y20774D01*
X88050Y20783D01*
X88054Y20794D01*
X88054Y20807D01*
X88050Y20821D01*
X88043Y20837D01*
X88033Y20855D01*
X88019Y20875D01*
X88002Y20896D01*
X87958Y20944D01*
X88043Y21029D01*
X88067Y21005D01*
D02*
G37*
G36*
X74812Y21015D02*
X74792Y21014D01*
X74772Y21009D01*
X74751Y21002D01*
X74729Y20993D01*
X74706Y20980D01*
X74682Y20965D01*
X74657Y20947D01*
X74606Y20903D01*
X74532Y20816D01*
X74519Y20797D01*
X74509Y20780D01*
X74502Y20765D01*
X74498Y20751D01*
X74497Y20739D01*
X74302Y20934D01*
X74314Y20935D01*
X74328Y20939D01*
X74343Y20946D01*
X74360Y20956D01*
X74379Y20969D01*
X74399Y20984D01*
X74442Y21021D01*
X74617Y21209D01*
X74812Y21015D01*
D02*
G37*
G36*
X72255Y20704D02*
X72255Y20709D01*
X72253Y20714D01*
X72250Y20719D01*
X72246Y20723D01*
X72240Y20726D01*
X72234Y20729D01*
X72226Y20731D01*
X72217Y20732D01*
X72207Y20733D01*
X72196Y20733D01*
Y20792D01*
X72207Y20793D01*
X72217Y20794D01*
X72226Y20795D01*
X72234Y20797D01*
X72240Y20800D01*
X72246Y20803D01*
X72250Y20807D01*
X72253Y20811D01*
X72255Y20816D01*
X72255Y20822D01*
Y20704D01*
D02*
G37*
G36*
X88230Y20748D02*
X88224Y20744D01*
X88218Y20738D01*
X88213Y20730D01*
X88209Y20719D01*
X88206Y20706D01*
X88203Y20690D01*
X88201Y20672D01*
X88200Y20629D01*
X88080D01*
X88079Y20652D01*
X88076Y20690D01*
X88074Y20706D01*
X88070Y20719D01*
X88066Y20730D01*
X88062Y20738D01*
X88056Y20744D01*
X88050Y20748D01*
X88043Y20749D01*
X88237D01*
X88230Y20748D01*
D02*
G37*
G36*
X73233Y20503D02*
X73227Y20508D01*
X73219Y20510D01*
X73211D01*
X73208Y20509D01*
X73217Y20500D01*
X73207Y20499D01*
X73196Y20495D01*
X73183Y20488D01*
X73168Y20479D01*
X73151Y20467D01*
X73111Y20434D01*
X73065Y20391D01*
X73039Y20366D01*
X72982Y20422D01*
X73008Y20448D01*
X73083Y20534D01*
X73095Y20551D01*
X73105Y20566D01*
X73112Y20579D01*
X73116Y20591D01*
X73117Y20600D01*
X73126Y20592D01*
X73126Y20594D01*
Y20603D01*
X73124Y20610D01*
X73120Y20616D01*
X73233Y20503D01*
D02*
G37*
G36*
X72769Y20903D02*
X72781Y20903D01*
X72789Y20901D01*
X72799Y20897D01*
X72813Y20891D01*
X72829Y20882D01*
X72847Y20870D01*
X72867Y20856D01*
X72900Y20827D01*
X73013Y20715D01*
Y20611D01*
X73011Y20608D01*
X73003Y20598D01*
X72938Y20524D01*
X72922Y20507D01*
X72551D01*
Y20559D01*
Y20769D01*
X72552Y20771D01*
X72672Y20891D01*
X72681Y20904D01*
X72767D01*
X72769Y20903D01*
D02*
G37*
G36*
X87374Y20598D02*
X87375Y20578D01*
X87378Y20560D01*
X87382Y20544D01*
X87387Y20531D01*
X87393Y20520D01*
X87401Y20512D01*
X87409Y20506D01*
X87419Y20502D01*
X87430Y20501D01*
X87235D01*
X87239Y20502D01*
X87242Y20506D01*
X87244Y20512D01*
X87247Y20520D01*
X87249Y20531D01*
X87250Y20544D01*
X87252Y20578D01*
X87253Y20621D01*
X87373D01*
X87374Y20598D01*
D02*
G37*
G36*
X87558Y20859D02*
X87565Y20846D01*
X87575Y20832D01*
X87602Y20799D01*
X87633Y20763D01*
X87639Y20758D01*
X87645Y20754D01*
X87651Y20751D01*
X87655Y20748D01*
X87659Y20747D01*
X87662Y20747D01*
X87656Y20739D01*
X87711Y20683D01*
X87628Y20600D01*
X87723D01*
X87723Y20581D01*
X87726Y20537D01*
X87727Y20530D01*
X87736Y20528D01*
X87734Y20525D01*
X87731Y20522D01*
X87730Y20519D01*
X87731Y20517D01*
X87734Y20510D01*
X87737Y20505D01*
X87741Y20502D01*
X87745Y20501D01*
X87725D01*
X87725Y20496D01*
X87723Y20475D01*
X87723Y20450D01*
X87582Y20501D01*
X87550D01*
X87555Y20502D01*
X87558Y20505D01*
X87562Y20510D01*
X87565Y20517D01*
X87567Y20526D01*
X87569Y20537D01*
X87571Y20550D01*
X87572Y20581D01*
X87573Y20600D01*
X87580D01*
X87560Y20618D01*
X87560Y20617D01*
X87559Y20619D01*
X87559Y20619D01*
X87496Y20674D01*
X87490Y20677D01*
X87485Y20678D01*
X87552Y20869D01*
X87558Y20859D01*
D02*
G37*
G36*
X86414Y20744D02*
X86424Y20736D01*
X86455Y20708D01*
X86457Y20710D01*
X86497Y20670D01*
X86652Y20534D01*
X86674Y20520D01*
X86693Y20509D01*
X86709Y20503D01*
X86721Y20501D01*
X86527Y20306D01*
X86525Y20319D01*
X86518Y20335D01*
X86508Y20353D01*
X86493Y20375D01*
X86475Y20400D01*
X86424Y20459D01*
X86408Y20476D01*
X86363Y20514D01*
X86335Y20535D01*
X86308Y20551D01*
X86285Y20561D01*
X86264Y20567D01*
X86245Y20567D01*
X86230Y20563D01*
X86217Y20554D01*
X86406Y20747D01*
X86408Y20747D01*
X86414Y20744D01*
D02*
G37*
G36*
X72449Y20437D02*
X72452Y20430D01*
X72456Y20424D01*
X72461Y20419D01*
X72469Y20414D01*
X72478Y20411D01*
X72488Y20408D01*
X72500Y20406D01*
X72514Y20405D01*
X72530Y20404D01*
Y20324D01*
X72514Y20324D01*
X72500Y20323D01*
X72488Y20321D01*
X72478Y20318D01*
X72469Y20314D01*
X72461Y20310D01*
X72456Y20305D01*
X72452Y20299D01*
X72449Y20292D01*
X72448Y20284D01*
Y20444D01*
X72449Y20437D01*
D02*
G37*
G36*
X75514Y19939D02*
X75513Y19953D01*
X75508Y19966D01*
X75501Y19977D01*
X75490Y19987D01*
X75476Y19995D01*
X75460Y20002D01*
X75440Y20007D01*
X75424Y20010D01*
X75400Y20008D01*
X75387Y20006D01*
X75376Y20003D01*
X75369Y19999D01*
X75364Y19996D01*
X75363Y19991D01*
Y20186D01*
X75364Y20182D01*
X75369Y20178D01*
X75376Y20174D01*
X75387Y20172D01*
X75400Y20169D01*
X75417Y20167D01*
X75420Y20167D01*
X75440Y20170D01*
X75460Y20176D01*
X75476Y20182D01*
X75490Y20191D01*
X75501Y20200D01*
X75508Y20212D01*
X75513Y20224D01*
X75514Y20239D01*
Y19939D01*
D02*
G37*
G36*
X85247Y20459D02*
X85325Y20449D01*
X85616D01*
Y20299D01*
X85626Y20222D01*
X85646Y20173D01*
X85615Y20114D01*
X85244D01*
X85163Y20195D01*
Y20430D01*
X85181Y20450D01*
X85222Y20469D01*
X85247Y20459D01*
D02*
G37*
G36*
X86724Y20169D02*
X86730Y20136D01*
X86740Y20106D01*
X86754Y20081D01*
X86772Y20059D01*
X86793Y20041D01*
X86819Y20028D01*
X86848Y20018D01*
X86882Y20012D01*
X86919Y20010D01*
X86624Y19813D01*
X86329Y20010D01*
X86366Y20012D01*
X86400Y20018D01*
X86429Y20028D01*
X86455Y20041D01*
X86476Y20059D01*
X86494Y20081D01*
X86508Y20106D01*
X86518Y20136D01*
X86524Y20169D01*
X86526Y20207D01*
X86722D01*
X86724Y20169D01*
D02*
G37*
%LPC*%
G36*
X74588Y31547D02*
X74073D01*
Y31032D01*
X74169D01*
Y30850D01*
X74109Y30838D01*
X74093Y30878D01*
X74052Y30932D01*
X73998Y30973D01*
X73998Y30973D01*
X73998Y31032D01*
X73998D01*
Y31129D01*
X73998Y31133D01*
X73998Y31136D01*
X73998Y31138D01*
X73998Y31141D01*
Y31547D01*
X73483D01*
Y31141D01*
X73482Y31138D01*
X73482Y31136D01*
X73482Y31133D01*
X73483Y31129D01*
Y31107D01*
X73424Y31076D01*
X73386Y31101D01*
X73297Y31118D01*
X73051D01*
X72962Y31101D01*
X72938Y31084D01*
X72853D01*
Y30999D01*
X72836Y30975D01*
X72819Y30886D01*
X72836Y30797D01*
X72853Y30772D01*
Y30687D01*
X72938D01*
X72962Y30671D01*
X73051Y30653D01*
X73196D01*
X73210Y30618D01*
X73251Y30564D01*
X73305Y30523D01*
X73368Y30497D01*
X73435Y30488D01*
X73502Y30497D01*
X73522Y30505D01*
X73581Y30473D01*
Y30166D01*
X73873D01*
X73877Y30165D01*
X73935Y30162D01*
X73935Y30136D01*
Y30088D01*
X73935Y30077D01*
Y30001D01*
X73888Y29974D01*
X73169D01*
Y29974D01*
X72859D01*
X72851Y29979D01*
X72766Y29996D01*
X72681Y29979D01*
X72608Y29931D01*
X72560Y29859D01*
X72543Y29774D01*
X72560Y29689D01*
X72608Y29616D01*
Y29616D01*
X72560Y29544D01*
X72543Y29459D01*
X72560Y29374D01*
X72608Y29301D01*
X72681Y29253D01*
X72766Y29236D01*
X72851Y29253D01*
X72864Y29262D01*
X73169D01*
Y29262D01*
X73888D01*
X73935Y29234D01*
Y29136D01*
X74569D01*
Y29577D01*
X74569Y29588D01*
X74569D01*
Y29636D01*
X74569D01*
Y30077D01*
X74569Y30088D01*
Y30141D01*
X74584Y30200D01*
X74826D01*
X74841Y30141D01*
Y30088D01*
X74841Y30077D01*
Y29647D01*
X74841Y29636D01*
Y29588D01*
X74841Y29577D01*
Y29412D01*
X75157D01*
X75349D01*
X75350Y29421D01*
X75362Y29421D01*
X75373Y29422D01*
Y29480D01*
X75374Y29468D01*
X75378Y29459D01*
X75383Y29450D01*
X75392Y29442D01*
X75402Y29436D01*
X75415Y29431D01*
X75416Y29430D01*
X75421Y29433D01*
X75428Y29436D01*
X75434Y29440D01*
X75439Y29444D01*
X75438Y29425D01*
X75448Y29424D01*
X75468Y29422D01*
X75474Y29422D01*
Y29577D01*
X75474Y29588D01*
Y29636D01*
X75474Y29647D01*
Y30077D01*
X75474Y30088D01*
Y30136D01*
X75474Y30147D01*
Y30588D01*
X74841D01*
Y30524D01*
X74569D01*
Y30588D01*
X74493D01*
Y31032D01*
X74588D01*
Y31547D01*
D02*
G37*
G36*
X72047Y31423D02*
X71934Y31408D01*
X71828Y31364D01*
X71737Y31294D01*
X71668Y31203D01*
X71624Y31098D01*
X71609Y30984D01*
X71624Y30871D01*
X71668Y30765D01*
X71737Y30674D01*
X71828Y30605D01*
X71934Y30561D01*
X72047Y30546D01*
X72161Y30561D01*
X72266Y30605D01*
X72357Y30674D01*
X72427Y30765D01*
X72471Y30871D01*
X72486Y30984D01*
X72471Y31098D01*
X72427Y31203D01*
X72357Y31294D01*
X72266Y31364D01*
X72161Y31408D01*
X72047Y31423D01*
D02*
G37*
G36*
X69892Y30990D02*
X69807Y30973D01*
X69734Y30925D01*
X69686Y30853D01*
X69669Y30768D01*
X69686Y30683D01*
X69734Y30610D01*
X69807Y30562D01*
X69892Y30545D01*
X69977Y30562D01*
X70049Y30610D01*
X70097Y30683D01*
X70114Y30768D01*
X70097Y30853D01*
X70049Y30925D01*
X69977Y30973D01*
X69892Y30990D01*
D02*
G37*
G36*
X76516Y30153D02*
X76431Y30137D01*
X76358Y30088D01*
X76310Y30016D01*
X76293Y29931D01*
X76310Y29846D01*
X76358Y29774D01*
X76431Y29726D01*
X76516Y29709D01*
X76601Y29726D01*
X76673Y29774D01*
X76721Y29846D01*
X76738Y29931D01*
X76721Y30016D01*
X76673Y30088D01*
X76601Y30137D01*
X76516Y30153D01*
D02*
G37*
G36*
X75348Y29312D02*
X75207D01*
Y29136D01*
X75474D01*
Y29303D01*
X75468Y29303D01*
X75448Y29301D01*
X75436Y29299D01*
X75436Y29279D01*
X75431Y29284D01*
X75425Y29288D01*
X75418Y29291D01*
X75414Y29293D01*
X75402Y29289D01*
X75392Y29282D01*
X75383Y29275D01*
X75378Y29266D01*
X75374Y29256D01*
X75373Y29245D01*
Y29302D01*
X75372Y29302D01*
X75347Y29303D01*
X75348Y29312D01*
D02*
G37*
G36*
X75107D02*
X74841D01*
Y29136D01*
X75107D01*
Y29312D01*
D02*
G37*
G36*
X86831Y28548D02*
Y28547D01*
X86831Y28547D01*
X82500D01*
X82500Y28547D01*
Y28548D01*
X82417Y28537D01*
X82340Y28505D01*
X82274Y28454D01*
X82224Y28388D01*
X82192Y28311D01*
X82181Y28228D01*
X82181D01*
Y23898D01*
X82181D01*
X82192Y23815D01*
X82224Y23738D01*
X82274Y23672D01*
X82340Y23621D01*
X82417Y23589D01*
X82500Y23578D01*
Y23579D01*
X86831D01*
Y23578D01*
X86913Y23589D01*
X86990Y23621D01*
X87056Y23672D01*
X87107Y23738D01*
X87139Y23815D01*
X87150Y23898D01*
X87150D01*
X87150Y23898D01*
Y28228D01*
X87150Y28228D01*
X87150D01*
X87139Y28311D01*
X87107Y28388D01*
X87056Y28454D01*
X86990Y28505D01*
X86913Y28537D01*
X86831Y28548D01*
D02*
G37*
G36*
X70945Y29346D02*
X70860Y29329D01*
X70788Y29281D01*
X70739Y29209D01*
X70722Y29124D01*
X70739Y29039D01*
X70788Y28967D01*
Y28966D01*
X70739Y28894D01*
X70722Y28809D01*
X70739Y28724D01*
X70788Y28652D01*
X70860Y28604D01*
X70945Y28587D01*
X71030Y28604D01*
X71055Y28620D01*
X71350D01*
Y28620D01*
X71925D01*
Y28495D01*
X71913Y28493D01*
X71841Y28445D01*
X71793Y28372D01*
X71776Y28287D01*
X71793Y28202D01*
X71841Y28130D01*
X71913Y28082D01*
X71998Y28065D01*
X72083Y28082D01*
X72151Y28127D01*
X72218Y28082D01*
X72303Y28065D01*
X72388Y28082D01*
X72460Y28130D01*
X72509Y28202D01*
X72526Y28287D01*
X72509Y28372D01*
X72460Y28445D01*
X72388Y28493D01*
X72356Y28499D01*
Y28923D01*
X72346Y28973D01*
X72318Y29016D01*
X72180Y29153D01*
X72137Y29182D01*
X72087Y29192D01*
X72059D01*
Y29332D01*
X71016D01*
X70945Y29346D01*
D02*
G37*
G36*
X95965Y29222D02*
X95610D01*
X95423Y29035D01*
Y28425D01*
X95491D01*
Y27882D01*
X96084D01*
Y28425D01*
X96152D01*
Y29035D01*
X95965Y29222D01*
D02*
G37*
G36*
X66240D02*
X65886D01*
X65699Y29035D01*
Y28425D01*
X65766D01*
Y27882D01*
X66360D01*
Y28425D01*
X66427D01*
Y29035D01*
X66240Y29222D01*
D02*
G37*
G36*
X76329Y27850D02*
X76244Y27833D01*
X76233Y27826D01*
X75884D01*
Y27559D01*
X75825Y27541D01*
X75807Y27569D01*
X75735Y27617D01*
X75650Y27634D01*
X75600Y27624D01*
X75543Y27620D01*
X75543Y27620D01*
X75543Y27620D01*
X75146D01*
Y27223D01*
X75539D01*
X75564Y27206D01*
X75650Y27189D01*
X75735Y27206D01*
X75807Y27254D01*
X75825Y27282D01*
X75884Y27264D01*
Y27036D01*
X76218D01*
X76244Y27019D01*
X76329Y27002D01*
X76414Y27019D01*
X76486Y27067D01*
X76534Y27139D01*
X76551Y27224D01*
X76534Y27310D01*
X76486Y27382D01*
X76464Y27397D01*
Y27456D01*
X76486Y27471D01*
X76534Y27543D01*
X76551Y27628D01*
X76534Y27713D01*
X76486Y27785D01*
X76414Y27833D01*
X76329Y27850D01*
D02*
G37*
G36*
X80177Y27878D02*
X78366D01*
X78327Y27870D01*
X78294Y27848D01*
X78272Y27815D01*
X78264Y27776D01*
Y26447D01*
X78272Y26408D01*
X78294Y26375D01*
X78327Y26353D01*
X78366Y26345D01*
X79565D01*
Y26015D01*
X79565Y26002D01*
X79535Y25956D01*
X79279D01*
X79239Y25983D01*
X79154Y26000D01*
X79068Y25983D01*
X78996Y25935D01*
X78948Y25863D01*
X78931Y25778D01*
X78948Y25692D01*
X78996Y25620D01*
X79068Y25572D01*
X79154Y25555D01*
X79185Y25561D01*
X79211Y25540D01*
Y25540D01*
X79308D01*
X79312Y25539D01*
X79316Y25540D01*
X80041D01*
Y25540D01*
X80092Y25560D01*
X80154Y25572D01*
X80226Y25620D01*
X80274Y25692D01*
X80291Y25778D01*
X80274Y25863D01*
X80226Y25935D01*
X80193Y25957D01*
X80159Y26002D01*
X80159Y26042D01*
Y26345D01*
X80177D01*
X80216Y26353D01*
X80249Y26375D01*
X80271Y26408D01*
X80279Y26447D01*
Y27776D01*
X80271Y27815D01*
X80249Y27848D01*
X80216Y27870D01*
X80177Y27878D01*
D02*
G37*
G36*
X66299Y26427D02*
X65689D01*
X65502Y26240D01*
Y25886D01*
X65689Y25699D01*
X66299D01*
Y25766D01*
X66842D01*
Y26360D01*
X66299D01*
Y26427D01*
D02*
G37*
G36*
X78051Y26020D02*
X77966Y26003D01*
X77894Y25954D01*
X77846Y25882D01*
X77829Y25797D01*
X77846Y25712D01*
X77894Y25640D01*
X77966Y25592D01*
X78051Y25575D01*
X78136Y25592D01*
X78208Y25640D01*
X78257Y25712D01*
X78274Y25797D01*
X78257Y25882D01*
X78208Y25954D01*
X78136Y26003D01*
X78051Y26020D01*
D02*
G37*
G36*
X69832Y26197D02*
X69747Y26180D01*
X69675Y26132D01*
X69627Y26060D01*
X69610Y25974D01*
X69627Y25889D01*
X69675Y25817D01*
X69719Y25788D01*
X69696Y25754D01*
X69679Y25669D01*
X69696Y25584D01*
X69744Y25512D01*
X69816Y25464D01*
X69902Y25447D01*
X69987Y25464D01*
X70059Y25512D01*
X70107Y25584D01*
X70124Y25669D01*
X70107Y25754D01*
X70059Y25827D01*
X70015Y25856D01*
X70038Y25889D01*
X70055Y25974D01*
X70038Y26060D01*
X69989Y26132D01*
X69917Y26180D01*
X69832Y26197D01*
D02*
G37*
G36*
X69193Y24947D02*
X69108Y24930D01*
X69036Y24882D01*
X68987Y24810D01*
X68971Y24724D01*
X68987Y24639D01*
X69033Y24572D01*
X68987Y24504D01*
X68971Y24419D01*
X68987Y24334D01*
X69036Y24262D01*
X69108Y24214D01*
X69193Y24197D01*
X69278Y24214D01*
X69350Y24262D01*
X69398Y24334D01*
X69415Y24419D01*
X69398Y24504D01*
X69353Y24572D01*
X69398Y24639D01*
X69415Y24724D01*
X69398Y24810D01*
X69350Y24882D01*
X69278Y24930D01*
X69193Y24947D01*
D02*
G37*
G36*
X69311Y23539D02*
X69226Y23522D01*
X69154Y23474D01*
X69106Y23402D01*
X69089Y23317D01*
X69106Y23232D01*
X69154Y23160D01*
X69226Y23111D01*
X69311Y23095D01*
X69396Y23111D01*
X69468Y23160D01*
X69516Y23232D01*
X69533Y23317D01*
X69516Y23402D01*
X69468Y23474D01*
X69396Y23522D01*
X69311Y23539D01*
D02*
G37*
G36*
X96084Y24244D02*
X95491D01*
Y23701D01*
X95423D01*
Y23091D01*
X95610Y22904D01*
X95965D01*
X96152Y23091D01*
Y23701D01*
X96084D01*
Y24244D01*
D02*
G37*
G36*
X66360D02*
X65766D01*
Y23701D01*
X65699D01*
Y23091D01*
X65886Y22904D01*
X66240D01*
X66427Y23091D01*
Y23701D01*
X66360D01*
Y24244D01*
D02*
G37*
G36*
X79961Y22909D02*
X79876Y22892D01*
X79813Y22851D01*
X79750Y22892D01*
X79665Y22909D01*
X79580Y22892D01*
X79508Y22844D01*
X79460Y22772D01*
X79443Y22687D01*
X79457Y22616D01*
Y22262D01*
Y22031D01*
X79398Y22025D01*
X79389Y22073D01*
X79340Y22145D01*
X79268Y22194D01*
X79183Y22211D01*
X79098Y22194D01*
X79039Y22154D01*
X78973Y22198D01*
X78888Y22215D01*
X78803Y22198D01*
X78731Y22150D01*
X78682Y22077D01*
X78665Y21992D01*
X78682Y21907D01*
X78713Y21861D01*
X78739Y21813D01*
Y21081D01*
X79352D01*
Y21813D01*
X79352Y21813D01*
X79352D01*
X79352Y21813D01*
X79364Y21867D01*
X79389Y21903D01*
X79398Y21951D01*
X79457Y21945D01*
Y21869D01*
X79499D01*
X79506Y21813D01*
X79506D01*
Y21081D01*
X80120D01*
Y21813D01*
X80120D01*
X80127Y21869D01*
X80169D01*
Y22262D01*
Y22616D01*
X80183Y22687D01*
X80166Y22772D01*
X80118Y22844D01*
X80046Y22892D01*
X79961Y22909D01*
D02*
G37*
G36*
X80529Y22901D02*
X80420D01*
Y22526D01*
X80529D01*
Y22901D01*
D02*
G37*
%LPD*%
G36*
X74438Y31133D02*
X74428Y31130D01*
X74419Y31124D01*
X74411Y31115D01*
X74405Y31104D01*
X74399Y31091D01*
X74395Y31076D01*
X74392Y31058D01*
X74390Y31038D01*
X74390Y31015D01*
X74272D01*
X74271Y31038D01*
X74269Y31058D01*
X74266Y31076D01*
X74262Y31091D01*
X74257Y31104D01*
X74250Y31115D01*
X74243Y31124D01*
X74234Y31130D01*
X74224Y31133D01*
X74213Y31134D01*
X74449D01*
X74438Y31133D01*
D02*
G37*
G36*
X73891Y31131D02*
X73886Y31123D01*
X73882Y31110D01*
X73878Y31092D01*
X73875Y31069D01*
X73871Y31008D01*
X73868Y30877D01*
X73612D01*
X73612Y30926D01*
X73602Y31092D01*
X73598Y31110D01*
X73594Y31123D01*
X73589Y31131D01*
X73584Y31133D01*
X73896D01*
X73891Y31131D01*
D02*
G37*
G36*
X74390Y30582D02*
X74392Y30562D01*
X74395Y30544D01*
X74399Y30529D01*
X74405Y30516D01*
X74411Y30505D01*
X74419Y30497D01*
X74428Y30491D01*
X74438Y30487D01*
X74449Y30486D01*
X74213D01*
X74224Y30487D01*
X74234Y30491D01*
X74243Y30497D01*
X74250Y30505D01*
X74257Y30516D01*
X74262Y30529D01*
X74266Y30544D01*
X74269Y30562D01*
X74271Y30582D01*
X74272Y30605D01*
X74390D01*
X74390Y30582D01*
D02*
G37*
G36*
X74038Y30244D02*
X74037Y30255D01*
X74033Y30265D01*
X74027Y30274D01*
X74019Y30282D01*
X74008Y30288D01*
X73995Y30294D01*
X73979Y30298D01*
X73961Y30301D01*
X73954Y30301D01*
X73935Y30300D01*
X73919Y30297D01*
X73906Y30294D01*
X73896Y30290D01*
X73887Y30285D01*
X73881Y30280D01*
X73878Y30274D01*
X73877Y30267D01*
Y30461D01*
X73878Y30454D01*
X73881Y30447D01*
X73887Y30441D01*
X73896Y30436D01*
X73906Y30431D01*
X73919Y30428D01*
X73935Y30425D01*
X73952Y30423D01*
X73953Y30423D01*
X73961Y30424D01*
X73979Y30427D01*
X73995Y30431D01*
X74008Y30436D01*
X74019Y30443D01*
X74027Y30450D01*
X74033Y30459D01*
X74037Y30469D01*
X74038Y30480D01*
Y30244D01*
D02*
G37*
G36*
X74943D02*
X74942Y30255D01*
X74939Y30265D01*
X74933Y30274D01*
X74924Y30282D01*
X74914Y30288D01*
X74900Y30294D01*
X74885Y30298D01*
X74867Y30301D01*
X74847Y30303D01*
X74824Y30303D01*
Y30421D01*
X74847Y30422D01*
X74867Y30424D01*
X74885Y30427D01*
X74900Y30431D01*
X74914Y30436D01*
X74924Y30443D01*
X74933Y30450D01*
X74939Y30459D01*
X74942Y30469D01*
X74943Y30480D01*
Y30244D01*
D02*
G37*
G36*
X74468Y30469D02*
X74472Y30459D01*
X74478Y30450D01*
X74486Y30443D01*
X74497Y30436D01*
X74510Y30431D01*
X74525Y30427D01*
X74543Y30424D01*
X74563Y30422D01*
X74585Y30421D01*
Y30303D01*
X74563Y30303D01*
X74543Y30301D01*
X74525Y30298D01*
X74510Y30294D01*
X74497Y30288D01*
X74486Y30282D01*
X74478Y30274D01*
X74472Y30265D01*
X74468Y30255D01*
X74467Y30244D01*
Y30480D01*
X74468Y30469D01*
D02*
G37*
G36*
X74122Y29739D02*
X74118Y29740D01*
X74113Y29741D01*
X74108Y29740D01*
X74102Y29738D01*
X74095Y29734D01*
X74087Y29729D01*
X74078Y29723D01*
X74069Y29715D01*
X74048Y29696D01*
X73995Y29726D01*
X74006Y29737D01*
X74031Y29766D01*
X74036Y29774D01*
X74039Y29781D01*
X74041Y29787D01*
X74042Y29792D01*
X74041Y29796D01*
X74038Y29799D01*
X74122Y29739D01*
D02*
G37*
G36*
X73198Y29678D02*
X73139Y29677D01*
Y29736D01*
X73151Y29736D01*
X73161Y29737D01*
X73170Y29738D01*
X73178Y29741D01*
X73184Y29743D01*
X73190Y29746D01*
X73194Y29750D01*
X73197Y29755D01*
X73199Y29760D01*
X73200Y29765D01*
X73198Y29678D01*
D02*
G37*
G36*
X73069Y29760D02*
X73070Y29755D01*
X73073Y29750D01*
X73078Y29746D01*
X73083Y29743D01*
X73089Y29741D01*
X73097Y29738D01*
X73106Y29737D01*
X73116Y29736D01*
X73127Y29736D01*
Y29677D01*
X73068Y29678D01*
Y29765D01*
X73069Y29760D01*
D02*
G37*
G36*
X73786Y29754D02*
X73788Y29749D01*
X73791Y29745D01*
X73795Y29741D01*
X73801Y29738D01*
X73807Y29735D01*
X73815Y29733D01*
X73824Y29732D01*
X73834Y29731D01*
X73846Y29730D01*
Y29671D01*
X73787Y29678D01*
X73785Y29760D01*
X73786Y29754D01*
D02*
G37*
G36*
X73198Y29557D02*
X73200Y29470D01*
X73199Y29476D01*
X73197Y29481D01*
X73194Y29485D01*
X73190Y29489D01*
X73184Y29492D01*
X73178Y29495D01*
X73170Y29497D01*
X73161Y29498D01*
X73151Y29499D01*
X73139Y29500D01*
Y29559D01*
X73198Y29557D01*
D02*
G37*
G36*
X73127Y29500D02*
X73116Y29499D01*
X73106Y29498D01*
X73097Y29497D01*
X73089Y29495D01*
X73082Y29492D01*
X73077Y29489D01*
X73072Y29485D01*
X73069Y29481D01*
X73068Y29476D01*
X73067Y29470D01*
X73068Y29557D01*
X73069Y29558D01*
X73070Y29558D01*
X73073Y29558D01*
X73127Y29559D01*
Y29500D01*
D02*
G37*
G36*
X73787Y29557D02*
X73789Y29556D01*
X73792Y29555D01*
X73796Y29555D01*
X73808Y29554D01*
X73846Y29553D01*
Y29494D01*
X73834Y29494D01*
X73824Y29493D01*
X73815Y29491D01*
X73807Y29489D01*
X73801Y29487D01*
X73795Y29483D01*
X73791Y29480D01*
X73788Y29475D01*
X73786Y29470D01*
X73785Y29465D01*
X73787Y29557D01*
X73787Y29557D01*
D02*
G37*
G36*
X74076Y29519D02*
X74095Y29503D01*
X74103Y29497D01*
X74110Y29492D01*
X74117Y29488D01*
X74124Y29486D01*
X74130Y29485D01*
X74135Y29485D01*
X74139Y29486D01*
X74038Y29443D01*
X74041Y29445D01*
X74043Y29448D01*
X74044Y29452D01*
X74043Y29457D01*
X74041Y29463D01*
X74038Y29469D01*
X74033Y29476D01*
X74026Y29484D01*
X74009Y29503D01*
X74066Y29529D01*
X74076Y29519D01*
D02*
G37*
G36*
X71034Y29204D02*
X71055Y29188D01*
X71056Y29193D01*
Y29188D01*
X71056Y29188D01*
X71067Y29181D01*
X71077Y29176D01*
X71088Y29171D01*
X71098Y29168D01*
X71108Y29165D01*
X71118Y29164D01*
X71127Y29163D01*
X71132Y29104D01*
X71122Y29104D01*
X71112Y29102D01*
X71102Y29099D01*
X71093Y29095D01*
X71083Y29090D01*
X71073Y29084D01*
X71064Y29077D01*
X71054Y29069D01*
X71045Y29059D01*
X71036Y29049D01*
X71032Y29100D01*
X71026Y29102D01*
X71017Y29103D01*
X71007Y29104D01*
X70995Y29104D01*
Y29163D01*
X71007Y29164D01*
X71017Y29165D01*
X71026Y29166D01*
X71022Y29213D01*
X71034Y29204D01*
D02*
G37*
G36*
X71369Y29037D02*
X71310Y29035D01*
Y29094D01*
X71322Y29095D01*
X71332Y29096D01*
X71341Y29097D01*
X71349Y29099D01*
X71355Y29102D01*
X71361Y29105D01*
X71365Y29109D01*
X71368Y29113D01*
X71370Y29118D01*
X71371Y29124D01*
X71369Y29037D01*
D02*
G37*
G36*
X71249Y29118D02*
X71251Y29113D01*
X71254Y29109D01*
X71258Y29105D01*
X71264Y29102D01*
X71270Y29099D01*
X71278Y29097D01*
X71287Y29096D01*
X71297Y29095D01*
X71308Y29094D01*
Y29035D01*
X71249Y29037D01*
Y29124D01*
X71249Y29118D01*
D02*
G37*
G36*
X71957Y29113D02*
X71959Y29108D01*
X71962Y29104D01*
X71966Y29100D01*
X71972Y29097D01*
X71978Y29094D01*
X71986Y29092D01*
X71995Y29091D01*
X72005Y29090D01*
X72017Y29089D01*
Y29030D01*
X71957Y29037D01*
X71956Y29119D01*
X71957Y29113D01*
D02*
G37*
G36*
X72017Y28863D02*
X72005Y28863D01*
X71995Y28862D01*
X71986Y28861D01*
X71978Y28859D01*
X71972Y28856D01*
X71966Y28853D01*
X71962Y28849D01*
X71959Y28844D01*
X71957Y28839D01*
X71956Y28834D01*
X71957Y28916D01*
X71958Y28917D01*
X71960Y28918D01*
X71963Y28919D01*
X71967Y28920D01*
X71972Y28921D01*
X71986Y28922D01*
X72017Y28922D01*
Y28863D01*
D02*
G37*
G36*
X71369Y28916D02*
X71371Y28829D01*
X71370Y28834D01*
X71368Y28839D01*
X71365Y28844D01*
X71361Y28848D01*
X71355Y28851D01*
X71349Y28854D01*
X71341Y28856D01*
X71332Y28857D01*
X71322Y28858D01*
X71310Y28858D01*
Y28917D01*
X71369Y28916D01*
D02*
G37*
G36*
X71308Y28858D02*
X71296Y28858D01*
X71286Y28857D01*
X71277Y28856D01*
X71269Y28854D01*
X71263Y28851D01*
X71257Y28848D01*
X71253Y28844D01*
X71250Y28839D01*
X71248Y28834D01*
X71248Y28829D01*
X71249Y28916D01*
X71249Y28916D01*
X71251Y28917D01*
X71254Y28917D01*
X71308Y28917D01*
Y28858D01*
D02*
G37*
G36*
X71040Y28882D02*
X71060Y28865D01*
X71070Y28858D01*
X71080Y28852D01*
X71091Y28847D01*
X71101Y28843D01*
X71110Y28841D01*
X71120Y28839D01*
X71130Y28839D01*
Y28780D01*
X71120Y28779D01*
X71110Y28777D01*
X71101Y28775D01*
X71091Y28771D01*
X71080Y28766D01*
X71070Y28760D01*
X71060Y28753D01*
X71050Y28746D01*
X71040Y28736D01*
X71029Y28726D01*
Y28776D01*
X71025Y28777D01*
X71017Y28778D01*
X71007Y28779D01*
X70995Y28780D01*
Y28839D01*
X71007Y28839D01*
X71017Y28840D01*
X71025Y28841D01*
X71029Y28842D01*
Y28892D01*
X71040Y28882D01*
D02*
G37*
G36*
X72087Y28436D02*
X72087Y28428D01*
X72089Y28409D01*
X72090Y28399D01*
X72098Y28365D01*
X72106Y28338D01*
X72110Y28324D01*
X71969Y28402D01*
X71980Y28405D01*
X71990Y28409D01*
X71999Y28415D01*
X72006Y28420D01*
X72013Y28427D01*
X72018Y28435D01*
X72022Y28443D01*
X72025Y28452D01*
X72027Y28462D01*
X72028Y28473D01*
X72087Y28436D01*
D02*
G37*
G36*
X72254Y28455D02*
X72256Y28445D01*
X72259Y28436D01*
X72262Y28428D01*
X72267Y28422D01*
X72273Y28416D01*
X72280Y28412D01*
X72289Y28409D01*
X72298Y28406D01*
X72308Y28405D01*
X72187Y28309D01*
X72189Y28318D01*
X72192Y28350D01*
X72194Y28393D01*
X72195Y28446D01*
X72254Y28466D01*
X72254Y28455D01*
D02*
G37*
G36*
X76244Y27545D02*
X76234Y27555D01*
X76224Y27564D01*
X76214Y27572D01*
X76203Y27579D01*
X76193Y27585D01*
X76188Y27587D01*
X76184Y27583D01*
X76181Y27579D01*
X76179Y27574D01*
X76179Y27568D01*
Y27591D01*
X76173Y27593D01*
X76163Y27596D01*
X76153Y27597D01*
X76144Y27598D01*
X76144Y27658D01*
X76153Y27658D01*
X76163Y27660D01*
X76173Y27663D01*
X76179Y27665D01*
Y27688D01*
X76179Y27682D01*
X76181Y27677D01*
X76184Y27673D01*
X76188Y27669D01*
X76193Y27671D01*
X76203Y27677D01*
X76214Y27684D01*
X76224Y27692D01*
X76234Y27701D01*
X76244Y27711D01*
X76244Y27545D01*
D02*
G37*
G36*
X75559Y27336D02*
X75549Y27347D01*
X75540Y27356D01*
X75531Y27364D01*
X75521Y27371D01*
X75512Y27377D01*
X75502Y27382D01*
X75492Y27386D01*
X75482Y27389D01*
X75478Y27390D01*
X75470Y27389D01*
X75463Y27386D01*
X75456Y27384D01*
X75450Y27380D01*
X75446Y27377D01*
X75443Y27372D01*
X75441Y27367D01*
X75441Y27361D01*
Y27481D01*
X75441Y27476D01*
X75443Y27470D01*
X75446Y27466D01*
X75450Y27462D01*
X75456Y27459D01*
X75463Y27456D01*
X75470Y27454D01*
X75480Y27452D01*
X75481Y27452D01*
X75487Y27453D01*
X75497Y27456D01*
X75507Y27459D01*
X75517Y27464D01*
X75528Y27469D01*
X75539Y27476D01*
X75550Y27483D01*
X75572Y27501D01*
X75559Y27336D01*
D02*
G37*
G36*
X76180Y27307D02*
X76182Y27300D01*
X76186Y27294D01*
X76192Y27289D01*
X76199Y27284D01*
X76201Y27283D01*
X76203Y27284D01*
X76213Y27288D01*
X76223Y27294D01*
X76233Y27300D01*
X76242Y27306D01*
X76252Y27314D01*
X76248Y27275D01*
X76260Y27274D01*
Y27194D01*
X76244Y27194D01*
X76242Y27194D01*
X76238Y27149D01*
X76230Y27158D01*
X76222Y27165D01*
X76214Y27172D01*
X76205Y27178D01*
X76196Y27183D01*
X76192Y27180D01*
X76186Y27175D01*
X76182Y27169D01*
X76180Y27162D01*
X76179Y27154D01*
Y27189D01*
X76176Y27190D01*
X76166Y27192D01*
X76155Y27194D01*
X76144Y27194D01*
X76151Y27274D01*
X76162Y27275D01*
X76172Y27276D01*
X76179Y27277D01*
Y27314D01*
X76180Y27307D01*
D02*
G37*
G36*
X79240Y25859D02*
X79243Y25857D01*
X79248Y25856D01*
X79254Y25855D01*
X79269Y25854D01*
X79290Y25853D01*
X79316Y25853D01*
Y25703D01*
X79312Y25703D01*
Y25641D01*
X79311Y25653D01*
X79306Y25663D01*
X79299Y25672D01*
X79288Y25680D01*
X79275Y25687D01*
X79258Y25693D01*
X79241Y25697D01*
X79240Y25696D01*
X79238Y25695D01*
Y25697D01*
X79216Y25700D01*
X79191Y25702D01*
X79162Y25703D01*
Y25853D01*
X79238Y25844D01*
Y25860D01*
X79240Y25859D01*
D02*
G37*
G36*
X79985Y25850D02*
X79986Y25850D01*
X80044Y25852D01*
X80069Y25853D01*
Y25703D01*
X80044Y25702D01*
X80003Y25698D01*
X79986Y25694D01*
X79972Y25689D01*
X79960Y25683D01*
X79951Y25676D01*
X79945Y25668D01*
X79941Y25659D01*
X79940Y25648D01*
Y25702D01*
X79932Y25702D01*
X79907Y25703D01*
Y25853D01*
X79920Y25853D01*
X79974Y25856D01*
X79979Y25857D01*
X79982Y25859D01*
X79985Y25860D01*
Y25850D01*
D02*
G37*
G36*
X79982Y22606D02*
X79983Y22601D01*
X80037Y22597D01*
X80026Y22587D01*
X80017Y22578D01*
X80009Y22569D01*
X80002Y22559D01*
X80002Y22559D01*
X80006Y22557D01*
X80012Y22557D01*
X80000D01*
X79996Y22549D01*
X79991Y22540D01*
X79987Y22530D01*
X79984Y22520D01*
X79982Y22510D01*
X79982Y22500D01*
X79922Y22505D01*
X79921Y22514D01*
X79920Y22524D01*
X79917Y22534D01*
X79914Y22544D01*
X79909Y22555D01*
X79908Y22557D01*
X79892D01*
X79898Y22557D01*
X79903Y22559D01*
X79906Y22561D01*
X79904Y22565D01*
X79897Y22576D01*
X79890Y22587D01*
X79872Y22609D01*
X79922Y22605D01*
X79922Y22606D01*
X79922Y22618D01*
X79982D01*
X79982Y22606D01*
D02*
G37*
G36*
X79704D02*
X79704Y22605D01*
X79754Y22609D01*
X79745Y22598D01*
X79729Y22576D01*
X79722Y22565D01*
X79720Y22561D01*
X79723Y22559D01*
X79728Y22557D01*
X79734Y22557D01*
X79718D01*
X79717Y22555D01*
X79712Y22544D01*
X79709Y22534D01*
X79706Y22524D01*
X79705Y22514D01*
X79704Y22505D01*
X79644Y22500D01*
X79644Y22510D01*
X79642Y22520D01*
X79639Y22530D01*
X79635Y22540D01*
X79630Y22549D01*
X79626Y22557D01*
X79614D01*
X79620Y22557D01*
X79624Y22559D01*
X79624Y22559D01*
X79617Y22569D01*
X79609Y22578D01*
X79600Y22587D01*
X79589Y22597D01*
X79643Y22601D01*
X79644Y22606D01*
X79644Y22618D01*
X79704D01*
X79704Y22606D01*
D02*
G37*
G36*
X79995Y21970D02*
X79990Y21968D01*
X79986Y21965D01*
X79982Y21961D01*
X79978Y21956D01*
X79976Y21949D01*
X79974Y21941D01*
X79972Y21932D01*
X79971Y21921D01*
X79971Y21910D01*
X79911D01*
X79911Y21921D01*
X79910Y21932D01*
X79908Y21941D01*
X79906Y21949D01*
X79903Y21956D01*
X79900Y21961D01*
X79896Y21965D01*
X79892Y21968D01*
X79887Y21970D01*
X79881Y21971D01*
X80001D01*
X79995Y21970D01*
D02*
G37*
G36*
X79739D02*
X79734Y21968D01*
X79730Y21965D01*
X79726Y21961D01*
X79723Y21956D01*
X79720Y21949D01*
X79718Y21941D01*
X79716Y21932D01*
X79715Y21921D01*
X79715Y21910D01*
X79655D01*
X79655Y21921D01*
X79654Y21932D01*
X79652Y21941D01*
X79650Y21949D01*
X79648Y21956D01*
X79644Y21961D01*
X79640Y21965D01*
X79636Y21968D01*
X79631Y21970D01*
X79625Y21971D01*
X79745D01*
X79739Y21970D01*
D02*
G37*
G36*
X78981Y21918D02*
X78962Y21880D01*
X78958Y21869D01*
X78951Y21848D01*
X78949Y21838D01*
X78948Y21828D01*
X78947Y21820D01*
X78887Y21803D01*
X78887Y21814D01*
X78885Y21824D01*
X78882Y21833D01*
X78878Y21843D01*
X78873Y21852D01*
X78866Y21860D01*
X78859Y21868D01*
X78850Y21876D01*
X78840Y21883D01*
X78829Y21890D01*
X78989Y21931D01*
X78981Y21918D01*
D02*
G37*
G36*
X79258Y21897D02*
X79248Y21888D01*
X79239Y21879D01*
X79230Y21869D01*
X79223Y21860D01*
X79217Y21850D01*
X79212Y21841D01*
X79208Y21831D01*
X79205Y21821D01*
X79204Y21811D01*
X79203Y21801D01*
X79143Y21806D01*
X79143Y21816D01*
X79141Y21826D01*
X79139Y21835D01*
X79135Y21846D01*
X79131Y21856D01*
X79125Y21867D01*
X79119Y21877D01*
X79111Y21888D01*
X79094Y21911D01*
X79258Y21897D01*
D02*
G37*
G36*
X79971Y21760D02*
X79972Y21750D01*
X79974Y21741D01*
X79976Y21733D01*
X79978Y21726D01*
X79982Y21721D01*
X79986Y21717D01*
X79990Y21714D01*
X79995Y21712D01*
X80001Y21711D01*
X79881D01*
X79887Y21712D01*
X79892Y21714D01*
X79896Y21717D01*
X79900Y21721D01*
X79903Y21726D01*
X79906Y21733D01*
X79908Y21741D01*
X79910Y21750D01*
X79911Y21760D01*
X79911Y21771D01*
X79971D01*
X79971Y21760D01*
D02*
G37*
G36*
X79715D02*
X79716Y21750D01*
X79718Y21741D01*
X79720Y21733D01*
X79723Y21726D01*
X79726Y21721D01*
X79730Y21717D01*
X79734Y21714D01*
X79739Y21712D01*
X79745Y21711D01*
X79625D01*
X79631Y21712D01*
X79636Y21714D01*
X79640Y21717D01*
X79644Y21721D01*
X79648Y21726D01*
X79650Y21733D01*
X79652Y21741D01*
X79654Y21750D01*
X79655Y21760D01*
X79655Y21771D01*
X79715D01*
X79715Y21760D01*
D02*
G37*
G36*
X79204D02*
X79204Y21750D01*
X79206Y21741D01*
X79208Y21733D01*
X79211Y21726D01*
X79214Y21721D01*
X79218Y21717D01*
X79222Y21714D01*
X79228Y21712D01*
X79233Y21711D01*
X79113D01*
X79119Y21712D01*
X79124Y21714D01*
X79129Y21717D01*
X79132Y21721D01*
X79136Y21726D01*
X79138Y21733D01*
X79141Y21741D01*
X79142Y21750D01*
X79143Y21760D01*
X79143Y21771D01*
X79203D01*
X79204Y21760D01*
D02*
G37*
G36*
X78948D02*
X78949Y21750D01*
X78950Y21741D01*
X78952Y21733D01*
X78955Y21726D01*
X78958Y21721D01*
X78962Y21717D01*
X78967Y21714D01*
X78972Y21712D01*
X78977Y21711D01*
X78857D01*
X78863Y21712D01*
X78868Y21714D01*
X78873Y21717D01*
X78877Y21721D01*
X78880Y21726D01*
X78883Y21733D01*
X78885Y21741D01*
X78886Y21750D01*
X78887Y21760D01*
X78887Y21771D01*
X78947D01*
X78948Y21760D01*
D02*
G37*
G54D10*
X81517Y25136D02*
X81535Y25118D01*
X72057Y21821D02*
X72136Y21900D01*
X72343Y22037D02*
X72520D01*
X72136Y21831D02*
X72343Y22037D01*
X71959Y21821D02*
X72057D01*
X81594Y22500D02*
Y23556D01*
X81535Y23615D02*
X81594Y23556D01*
X81535Y23615D02*
Y25118D01*
X76093Y21585D02*
X76289Y21388D01*
X74695Y21112D02*
X74705Y21122D01*
X75098Y26229D02*
X75159Y26169D01*
Y26036D02*
Y26169D01*
Y26036D02*
X75305Y25889D01*
X72884Y25335D02*
X72939D01*
X72785Y25434D02*
X72884Y25335D01*
X72785Y25434D02*
Y25610D01*
X72989Y25285D02*
X73091D01*
X73268D01*
X72939Y25335D02*
X72989Y25285D01*
X72835Y24400D02*
X72854Y24380D01*
X72520Y24400D02*
X72835D01*
X74518Y25610D02*
X74521Y25613D01*
Y25679D01*
X74518Y25682D02*
X74521Y25679D01*
X74518Y25682D02*
Y25925D01*
X73268Y25285D02*
X73656D01*
X73258Y25295D02*
X73268Y25285D01*
X73258Y25295D02*
Y25610D01*
X72598Y25659D02*
X72648Y25610D01*
X72785D01*
X73656Y25285D02*
X73727Y25357D01*
Y25607D01*
X73730Y25610D01*
X74203Y25295D02*
X74232Y25265D01*
X76043Y25994D02*
Y26270D01*
X75430Y25305D02*
X75600D01*
X75620Y25325D01*
X75935Y25325D02*
Y25610D01*
X76358Y26270D02*
X76750Y25878D01*
X77037D01*
X75305Y25610D02*
Y25889D01*
X76083Y23297D02*
X76083Y23297D01*
X76358D01*
X72520Y23612D02*
X72523Y23615D01*
X72693D01*
X72854Y23454D01*
Y23406D02*
Y23454D01*
Y23298D02*
Y23406D01*
X72699Y23143D02*
X72854Y23298D01*
X72523Y23143D02*
X72699D01*
X72520Y23140D02*
X72523Y23143D01*
X72215Y23140D02*
X72520D01*
X74203Y25295D02*
Y25610D01*
X76093Y21585D02*
Y21772D01*
X74705Y21122D02*
X74715Y21112D01*
X72520Y22510D02*
X72667D01*
X72520Y22352D02*
X72726D01*
X75620Y25325D02*
Y25610D01*
X75098Y26229D02*
Y26270D01*
X76043Y26270D02*
X76358D01*
X75305Y25430D02*
Y25610D01*
Y25430D02*
X75430Y25305D01*
X74035Y26663D02*
Y27057D01*
X74045Y27067D01*
X72667Y22510D02*
X72776Y22402D01*
X72726Y22352D02*
X72776Y22402D01*
X75384Y22067D02*
Y22096D01*
Y22067D02*
X75463Y21988D01*
Y21772D02*
Y21988D01*
X80835Y22502D02*
Y22951D01*
Y22502D02*
X80984Y22352D01*
X81447D01*
X81594Y22500D01*
X81535Y25118D02*
X81554Y25136D01*
X81091Y25136D02*
X81347D01*
X81517D01*
X81347D02*
Y25736D01*
X81349Y25738D01*
X75030Y21319D02*
X75148Y21437D01*
Y21772D01*
X74606Y21319D02*
Y21337D01*
Y21319D02*
X74833Y21545D01*
Y21772D01*
X72943Y22057D02*
X72972Y22086D01*
X72943Y21772D02*
Y22057D01*
X72776Y22402D02*
X72972Y22205D01*
Y22086D02*
Y22205D01*
X74360Y21583D02*
Y21772D01*
Y21583D02*
X74606Y21337D01*
X72034Y25013D02*
X72333Y24715D01*
X72205Y23150D02*
X72215Y23140D01*
G54D11*
X79952Y22479D02*
Y22687D01*
X74685Y21772D02*
Y21978D01*
X79952Y22479D02*
X79970Y22461D01*
X79674Y22479D02*
Y22687D01*
X74528Y21772D02*
Y21998D01*
X79656Y22461D02*
X79674Y22479D01*
X79665Y22687D02*
X79674D01*
X79952D02*
X79961D01*
X76795Y25563D02*
X77037D01*
X76577Y25344D02*
X76795Y25563D01*
X76358Y25344D02*
X76577D01*
X79941Y22037D02*
X79970Y22067D01*
X79941Y21447D02*
Y22037D01*
X79656Y22067D02*
X79685Y22037D01*
Y21447D02*
Y22037D01*
X79173Y21978D02*
X79183Y21988D01*
X79173Y21447D02*
Y21978D01*
X78888Y21988D02*
X78917Y21959D01*
X74035Y26134D02*
X74360Y25809D01*
Y25610D02*
Y25809D01*
X74035Y26134D02*
Y26270D01*
X75738Y25918D02*
Y26260D01*
X75620Y25800D02*
X75738Y25918D01*
X75148Y25266D02*
Y25610D01*
X76280Y25896D02*
X76348D01*
X74811Y22103D02*
Y22183D01*
X74685Y21978D02*
X74811Y22103D01*
Y22183D02*
X74990Y22362D01*
X74685Y22156D02*
Y22402D01*
X74990Y22362D02*
Y22401D01*
X72844Y22992D02*
X72870D01*
X72835Y22982D02*
X72844Y22992D01*
X82323Y21850D02*
X82343Y21870D01*
X77431Y22087D02*
X77638D01*
X78917Y21447D02*
Y21959D01*
X72520Y22667D02*
X72697D01*
X72727Y22697D01*
X82323Y21447D02*
Y21850D01*
X72520Y22982D02*
X72835D01*
X82067Y21447D02*
Y21850D01*
X82047Y21870D02*
X82067Y21850D01*
X74045Y21486D02*
X74173Y21358D01*
X74045Y21486D02*
Y21772D01*
X73888Y21446D02*
Y21772D01*
X75620Y25610D02*
Y25800D01*
X75728Y26270D02*
X75738Y26260D01*
X75098Y26299D02*
X75266Y26467D01*
X75098Y26270D02*
Y26299D01*
X75266Y26467D02*
X75561D01*
X75728Y26299D01*
Y26270D02*
Y26299D01*
X76093Y25610D02*
Y25709D01*
X76280Y25896D01*
X75148Y25610D02*
X75148Y25610D01*
X76083Y27628D02*
X76329D01*
X76329Y27628D01*
X75344Y27421D02*
X75640D01*
X75650Y27411D01*
X78888Y21988D02*
Y21992D01*
X72727Y22697D02*
X72844D01*
X77638Y22087D02*
X77845Y22294D01*
Y23137D01*
X74528Y21998D02*
X74685Y22156D01*
X76703Y23455D02*
X76743Y23415D01*
X77567D01*
X77845Y23137D01*
X76368Y23455D02*
X76703D01*
X73573Y21486D02*
Y21772D01*
X73524Y21437D02*
X73573Y21486D01*
X73494Y20915D02*
X73524Y20945D01*
Y21437D01*
X73888Y21446D02*
X74054Y21280D01*
X74173Y21358D02*
X74264D01*
X74054Y21132D02*
Y21280D01*
G54D12*
X72726Y26004D02*
Y26339D01*
Y25988D02*
Y26004D01*
Y25988D02*
X72929Y25785D01*
Y25772D02*
X72943Y25758D01*
X72929Y25772D02*
Y25785D01*
X72943Y25610D02*
Y25758D01*
X72726Y26004D02*
Y26122D01*
Y26004D02*
X72726Y26004D01*
X71978Y26260D02*
Y26339D01*
X75531Y26151D02*
X75532Y26152D01*
X72723Y26739D02*
X72923Y26539D01*
X73100Y25610D02*
Y26240D01*
X72106Y22677D02*
X72136Y22707D01*
X73120Y26260D02*
Y26318D01*
X72923Y26514D02*
X73120Y26318D01*
X72923Y26514D02*
Y26539D01*
X76004Y22589D02*
X76004D01*
X76083Y22667D01*
X76358D01*
X72736Y23770D02*
X72923Y23957D01*
X72530Y23770D02*
X72736D01*
X72681Y24242D02*
X72923Y24000D01*
Y23957D02*
Y24000D01*
X72018Y24705D02*
X72165Y24557D01*
X77028Y24104D02*
X77037Y24114D01*
X73120Y26260D02*
X73435D01*
X73100Y26240D02*
X73120Y26260D01*
X71880Y24390D02*
X72205D01*
X71880D02*
X71880D01*
X75531Y26004D02*
Y26151D01*
Y25994D02*
Y26004D01*
X72355Y22825D02*
X72520D01*
X72344Y22814D02*
X72355Y22825D01*
X72317Y22814D02*
X72344D01*
X72210Y22707D02*
X72317Y22814D01*
X72136Y22707D02*
X72210D01*
X76368Y22667D02*
X76593D01*
X76368Y24557D02*
X76644D01*
X76772Y24429D01*
X77037D01*
X76593Y22667D02*
X76593Y22667D01*
X76939D02*
X77037Y22766D01*
X76652Y24242D02*
X76790Y24104D01*
X77028D01*
X72352Y24242D02*
X72520D01*
X76358Y22667D02*
X76368D01*
X76358Y24242D02*
X76652D01*
X72205Y24390D02*
X72352Y24242D01*
X72165Y24557D02*
X72520D01*
X76593Y22667D02*
X76939D01*
X75413Y26270D02*
X75532Y26152D01*
X75463Y25610D02*
Y25925D01*
X75531Y25994D01*
X72520Y24715D02*
X72530D01*
X72520Y25187D02*
X72530D01*
X72520Y24242D02*
X72681D01*
X76358Y24242D02*
X76358Y24242D01*
X76063Y24242D02*
X76358D01*
X72343Y25187D02*
X72520D01*
X72165Y25364D02*
X72343Y25187D01*
X72165Y25364D02*
Y26073D01*
X71978Y26260D02*
X72165Y26073D01*
G54D13*
X76752Y23120D02*
X76821Y23189D01*
X75899Y21488D02*
X75906D01*
X72815Y24715D02*
X72854Y24675D01*
X72530Y24715D02*
X72815D01*
X74872Y25148D02*
Y25219D01*
X75999Y25994D02*
X76043D01*
X74990Y22067D02*
X75020Y22096D01*
X74990Y21772D02*
Y22067D01*
X74675Y25415D02*
Y25610D01*
Y25415D02*
X74872Y25219D01*
X76368Y22037D02*
X76535D01*
X76624Y21949D01*
Y21624D02*
Y21949D01*
Y21624D02*
X76831Y21417D01*
X77037D01*
X76772Y21870D02*
X76880Y21762D01*
X77037D01*
X76368Y22510D02*
X76673D01*
X79663Y30866D02*
X79990D01*
X80010Y30846D01*
X78801Y30866D02*
X79144D01*
X79154Y30856D01*
X78801Y30433D02*
X79144D01*
X79144Y30433D01*
X76673Y22510D02*
X76752Y22431D01*
X71752Y22274D02*
X71831Y22195D01*
X72520D01*
X74203Y21772D02*
Y22037D01*
X74242Y22077D01*
X73415Y21772D02*
Y22077D01*
X73415Y22077D02*
X73415Y22077D01*
X73730Y21772D02*
Y22077D01*
X73730Y22077D02*
X73730Y22077D01*
X73415Y22077D02*
X73730D01*
X74242D01*
X73258Y21575D02*
Y21772D01*
X75778Y25610D02*
Y25772D01*
X75999Y25994D01*
X76083Y27234D02*
X76319D01*
X76329Y27224D01*
X76043Y26270D02*
X76043Y26270D01*
X76043D02*
X76043Y26270D01*
X76368Y23140D02*
X76693D01*
X74078Y27490D02*
X74321D01*
X74075Y27493D02*
X74078Y27490D01*
X72352Y20364D02*
X72981D01*
X73217Y20600D01*
X72874Y21329D02*
X73012D01*
X73258Y21575D01*
X76358Y22825D02*
X76654D01*
X76722Y22894D01*
X76368Y22352D02*
X76526D01*
X76535Y22343D01*
Y22341D02*
Y22343D01*
X76772Y21870D02*
Y22104D01*
X76535Y22341D02*
X76772Y22104D01*
X75620Y21772D02*
Y22037D01*
X75679Y22096D01*
X75906Y21388D02*
Y21488D01*
X75778Y21609D02*
X75899Y21488D01*
X75778Y21609D02*
Y21772D01*
X75305Y21467D02*
Y21772D01*
Y21467D02*
X75384Y21388D01*
X76693Y23140D02*
X76742Y23189D01*
X74242Y22077D02*
X74242Y22077D01*
X74242Y22077D02*
Y22096D01*
X73406Y22086D02*
X73415Y22077D01*
X72972Y22086D02*
X73406D01*
X72418Y25344D02*
X72520D01*
X72352Y25410D02*
X72418Y25344D01*
X72352Y25410D02*
Y26339D01*
X75970Y22982D02*
X76358D01*
X72333Y24715D02*
X72520D01*
G54D15*
X80344Y25098D02*
X80579D01*
Y25136D01*
X81347Y22951D02*
Y23455D01*
X81063Y23739D02*
X81347Y23455D01*
G54D17*
X71880Y24390D02*
D03*
X71486D02*
D03*
X81349Y25738D02*
D03*
X80955D02*
D03*
X71909Y22677D02*
D03*
X71516D02*
D03*
X77037Y24104D02*
D03*
X77431D02*
D03*
X77037Y23130D02*
D03*
X77431D02*
D03*
X74400Y20837D02*
D03*
X74006D02*
D03*
X88140Y21722D02*
D03*
X88533D02*
D03*
X86624Y22697D02*
D03*
X87018D02*
D03*
X85915Y20305D02*
D03*
X85522D02*
D03*
X73780Y30364D02*
D03*
X73386D02*
D03*
X86624Y20404D02*
D03*
X87018D02*
D03*
X71427Y24705D02*
D03*
X71821D02*
D03*
X71555Y21831D02*
D03*
X71949D02*
D03*
X88140Y21358D02*
D03*
X88533D02*
D03*
X71752Y22274D02*
D03*
X71358D02*
D03*
X77037Y24843D02*
D03*
X77431D02*
D03*
X77037Y25563D02*
D03*
X77431D02*
D03*
X77431Y22087D02*
D03*
X77037D02*
D03*
X79675Y24360D02*
D03*
X80069D02*
D03*
X79670Y24785D02*
D03*
X80064D02*
D03*
X75266Y20089D02*
D03*
X74872D02*
D03*
X88041Y20404D02*
D03*
X87648D02*
D03*
X88140Y20846D02*
D03*
X88533D02*
D03*
X87657Y22697D02*
D03*
X88051D02*
D03*
X88533Y22215D02*
D03*
X88140D02*
D03*
X71742Y25335D02*
D03*
X71348D02*
D03*
X77037Y24429D02*
D03*
X77431D02*
D03*
X77037Y22766D02*
D03*
X77431D02*
D03*
X77037Y25878D02*
D03*
X77431D02*
D03*
X71516Y25020D02*
D03*
X71909D02*
D03*
X77037Y22431D02*
D03*
X77431D02*
D03*
X73689Y29775D02*
D03*
Y29460D02*
D03*
X81949Y22835D02*
D03*
X82343D02*
D03*
X83051D02*
D03*
X83445D02*
D03*
X77037Y25157D02*
D03*
X77431D02*
D03*
X71880Y24075D02*
D03*
X71486D02*
D03*
X77037Y21417D02*
D03*
X77431D02*
D03*
X77037Y21762D02*
D03*
X77431D02*
D03*
X71467Y29134D02*
D03*
Y28819D02*
D03*
X73296Y29775D02*
D03*
Y29460D02*
D03*
X71880Y23573D02*
D03*
Y23258D02*
D03*
X71860Y29134D02*
D03*
Y28819D02*
D03*
X80069Y23937D02*
D03*
X79675D02*
D03*
X71486Y23573D02*
D03*
Y23258D02*
D03*
G54D18*
X65906Y25472D02*
D03*
Y26654D02*
D03*
G54D19*
X66535Y26063D02*
D03*
G54D21*
X73740Y31289D02*
D03*
X74331D02*
D03*
X82854Y22185D02*
D03*
X83445D02*
D03*
G54D23*
X66063Y24980D02*
D03*
Y27146D02*
D03*
G54D26*
X67146Y28681D02*
D03*
Y23445D02*
D03*
X96870Y28681D02*
D03*
X94705D02*
D03*
X96870Y23445D02*
D03*
X94705D02*
D03*
G54D27*
X65020Y28681D02*
D03*
Y23445D02*
D03*
G54D29*
X79665Y22687D02*
D03*
X79961D02*
D03*
X80276Y22667D02*
D03*
X79350D02*
D03*
X74793Y28740D02*
D03*
X75226Y28563D02*
D03*
X75423Y28789D02*
D03*
X73091Y25930D02*
D03*
X72726Y26122D02*
D03*
X72352Y26969D02*
D03*
X73091Y24882D02*
D03*
X72451Y21545D02*
D03*
X72136Y21831D02*
D03*
X76004Y22589D02*
D03*
X72923Y23957D02*
D03*
X84577Y22343D02*
D03*
X85138Y21919D02*
D03*
X69832Y25974D02*
D03*
X69902Y25669D02*
D03*
X69921Y26260D02*
D03*
X72018Y24705D02*
D03*
X69921Y25000D02*
D03*
X69459Y25394D02*
D03*
X80846Y30433D02*
D03*
X82844Y22628D02*
D03*
X76299Y21437D02*
D03*
X72854Y24675D02*
D03*
X73091Y25285D02*
D03*
X74232Y25265D02*
D03*
X74567Y24951D02*
D03*
X74872Y25148D02*
D03*
X76043Y25994D02*
D03*
X74528Y25256D02*
D03*
X75600Y25305D02*
D03*
X75935Y25325D02*
D03*
X75148Y25266D02*
D03*
X75974Y24636D02*
D03*
X76750Y25878D02*
D03*
X76348Y25896D02*
D03*
X75531Y26004D02*
D03*
X74685Y22402D02*
D03*
X74990Y22401D02*
D03*
X72870Y22992D02*
D03*
X82067Y20886D02*
D03*
X82195Y22136D02*
D03*
X82343Y21870D02*
D03*
X81053Y20502D02*
D03*
X83071D02*
D03*
X88533Y21093D02*
D03*
X74764Y20463D02*
D03*
X75984Y20364D02*
D03*
X77156Y20719D02*
D03*
X71014Y27343D02*
D03*
X70935Y26348D02*
D03*
X72165Y23819D02*
D03*
Y24114D02*
D03*
X69193Y24419D02*
D03*
Y24724D02*
D03*
X71683Y23829D02*
D03*
X68937Y24577D02*
D03*
X81339Y21742D02*
D03*
X94341Y23041D02*
D03*
X67392Y24281D02*
D03*
X94331Y29124D02*
D03*
Y28278D02*
D03*
X66565Y27539D02*
D03*
X65551Y27549D02*
D03*
X66565Y24587D02*
D03*
X94321Y23839D02*
D03*
X67392Y27844D02*
D03*
X76772Y24429D02*
D03*
X71467Y22047D02*
D03*
X78169Y31457D02*
D03*
X79154Y30856D02*
D03*
X80866D02*
D03*
X81467Y32165D02*
D03*
X80010Y30846D02*
D03*
X79144Y30423D02*
D03*
X82500Y32264D02*
D03*
X76457Y32205D02*
D03*
X80610Y25984D02*
D03*
X76329Y27628D02*
D03*
X76043Y26870D02*
D03*
X76516D02*
D03*
X75571Y26880D02*
D03*
X70945Y28494D02*
D03*
X70945Y29449D02*
D03*
X72766Y29154D02*
D03*
X73169Y30236D02*
D03*
X69941Y29449D02*
D03*
X67805Y29409D02*
D03*
X68878D02*
D03*
X67795Y28228D02*
D03*
X68868D02*
D03*
X68878Y23898D02*
D03*
Y22717D02*
D03*
X67805Y23898D02*
D03*
X65482Y23307D02*
D03*
X66663D02*
D03*
X65915Y25472D02*
D03*
Y26654D02*
D03*
X65482Y28819D02*
D03*
X66663D02*
D03*
X95217D02*
D03*
X96398D02*
D03*
X96388Y23307D02*
D03*
X95207D02*
D03*
X87677Y20630D02*
D03*
Y22470D02*
D03*
X75522Y29360D02*
D03*
X77638Y22510D02*
D03*
X82018Y22667D02*
D03*
X81554Y25136D02*
D03*
X66545Y25620D02*
D03*
Y26506D02*
D03*
X66516Y23937D02*
D03*
X65630D02*
D03*
X66516Y28189D02*
D03*
X65630D02*
D03*
X96240Y28209D02*
D03*
X95354D02*
D03*
X96240Y23937D02*
D03*
X95354D02*
D03*
X71319Y22668D02*
D03*
X73150Y26870D02*
D03*
X72766Y30089D02*
D03*
X65551Y24596D02*
D03*
X72854Y23406D02*
D03*
X72766Y29774D02*
D03*
Y29459D02*
D03*
X69892Y30768D02*
D03*
X77638Y23051D02*
D03*
X67805Y22717D02*
D03*
X75384Y22096D02*
D03*
X76752Y22431D02*
D03*
X82047Y21870D02*
D03*
X79429Y21821D02*
D03*
X74419Y26043D02*
D03*
X76329Y27224D02*
D03*
X72303Y28287D02*
D03*
X71998Y28287D02*
D03*
X70945Y28809D02*
D03*
Y29124D02*
D03*
X72431Y28593D02*
D03*
X71860Y28002D02*
D03*
X75650Y27411D02*
D03*
X75148Y26880D02*
D03*
X74892Y27037D02*
D03*
X69880Y24094D02*
D03*
X69882Y23780D02*
D03*
X79980Y20295D02*
D03*
X77923D02*
D03*
X84094D02*
D03*
X79980Y20738D02*
D03*
X79026Y20295D02*
D03*
Y20738D02*
D03*
X74075Y27493D02*
D03*
X74596Y27045D02*
D03*
X74045Y27067D02*
D03*
X74341Y26880D02*
D03*
X71260Y20148D02*
D03*
X70089Y20955D02*
D03*
X69882Y22835D02*
D03*
X69941Y28494D02*
D03*
X71250Y31978D02*
D03*
X70079Y31178D02*
D03*
X73150Y19961D02*
D03*
X72274D02*
D03*
X69311Y23317D02*
D03*
X78642Y21821D02*
D03*
X78888Y21992D02*
D03*
X79183Y21988D02*
D03*
X72648Y20699D02*
D03*
X73740Y21211D02*
D03*
X72844Y22697D02*
D03*
X72776Y22402D02*
D03*
X72106Y22707D02*
D03*
X77638Y21762D02*
D03*
X72874Y21329D02*
D03*
X73494Y20915D02*
D03*
X76083Y23297D02*
D03*
X75906Y21388D02*
D03*
X75679Y22096D02*
D03*
X75305Y20464D02*
D03*
X78054Y22920D02*
D03*
X78051Y25797D02*
D03*
X77648Y25778D02*
D03*
X77648Y25148D02*
D03*
X75384Y21388D02*
D03*
X71278Y21368D02*
D03*
X80226Y24144D02*
D03*
X81063Y23739D02*
D03*
X87008Y22943D02*
D03*
X87018Y20187D02*
D03*
X74498Y20089D02*
D03*
X76417Y20374D02*
D03*
X76850Y20541D02*
D03*
X75020Y22096D02*
D03*
X72854Y24380D02*
D03*
X76742Y23189D02*
D03*
X76063Y24242D02*
D03*
X75030Y21319D02*
D03*
X74606D02*
D03*
X74242Y22096D02*
D03*
X72972Y22086D02*
D03*
X80226Y24577D02*
D03*
X80344Y25098D02*
D03*
X80581Y23957D02*
D03*
X79450Y24359D02*
D03*
X79213Y24124D02*
D03*
X79400Y23937D02*
D03*
X79244Y24565D02*
D03*
X85915Y22569D02*
D03*
X85305Y20315D02*
D03*
X85315Y20758D02*
D03*
X88819Y20177D02*
D03*
X85305Y22343D02*
D03*
X85915Y20522D02*
D03*
X86093Y21043D02*
D03*
Y22057D02*
D03*
X87411Y21939D02*
D03*
Y21545D02*
D03*
Y21152D02*
D03*
X87018D02*
D03*
Y21939D02*
D03*
Y21545D02*
D03*
X72598Y25659D02*
D03*
X79154Y25778D02*
D03*
X80069D02*
D03*
X77638Y23986D02*
D03*
X77648Y24882D02*
D03*
X88533Y21959D02*
D03*
X86211Y20285D02*
D03*
X89016Y32136D02*
D03*
X89026Y29114D02*
D03*
X88819Y23031D02*
D03*
X89016Y26063D02*
D03*
X67579Y23307D02*
D03*
X67589Y28819D02*
D03*
X76516Y29931D02*
D03*
X73306Y21205D02*
D03*
X73789Y20905D02*
D03*
X74264Y21358D02*
D03*
X74054Y21132D02*
D03*
X76722Y22894D02*
D03*
X75970Y22982D02*
D03*
X77421Y21024D02*
D03*
X71260Y24232D02*
D03*
X71093Y25335D02*
D03*
X71260Y24892D02*
D03*
X71939Y25846D02*
D03*
X70935Y22904D02*
D03*
X71230Y23278D02*
D03*
X72205Y23150D02*
D03*
X71230Y23573D02*
D03*
X70935Y23770D02*
D03*
G54D47*
X74557Y28740D02*
X74793D01*
X73173Y27356D02*
X74557Y28740D01*
X74640Y28530D02*
X74890D01*
X73694Y27584D02*
X74640Y28530D01*
X74890D02*
X75149Y28789D01*
X75070Y28406D02*
X75226Y28563D01*
X74691Y28406D02*
X75070D01*
X73829Y27544D02*
X74691Y28406D01*
X75149Y28789D02*
X75423D01*
X72097Y27356D02*
X73173D01*
X82343Y22835D02*
X82549Y22628D01*
X82844D02*
X83051Y22835D01*
X82549Y22628D02*
X82844D01*
X76998Y25157D02*
X77037D01*
X76713Y24872D02*
X76998Y25157D01*
X76909Y24715D02*
X77037Y24843D01*
X76368Y24715D02*
X76909D01*
X76368Y24872D02*
X76713D01*
X78071Y24085D02*
Y24144D01*
X73573Y25610D02*
Y25772D01*
X78334Y25357D02*
X78740Y24951D01*
X77037Y25157D02*
X77237Y25357D01*
X73415Y25610D02*
Y25812D01*
X73694Y26090D01*
X73573Y25772D02*
X73829Y26028D01*
X77237Y25357D02*
X78334D01*
X77037Y24843D02*
X77244Y24636D01*
X77579D01*
X78071Y24144D01*
X73829Y26028D02*
Y27544D01*
X73694Y26090D02*
Y27584D01*
X77421Y21024D02*
X78054Y21657D01*
Y22920D01*
X71997Y25296D02*
X72264Y25030D01*
X72520D01*
X71724Y26984D02*
X72097Y27356D01*
X71724Y25763D02*
Y26984D01*
Y25763D02*
X71997Y25489D01*
Y25296D02*
Y25489D01*
G54D48*
X73740Y30876D02*
Y31289D01*
Y30876D02*
X73868Y30748D01*
X73435D02*
X73868D01*
X73051Y30886D02*
X73297D01*
X73435Y30748D01*
G54D49*
X86673Y22206D02*
X86850Y22383D01*
X86468Y22610D02*
X86624D01*
X86432Y22574D02*
X86624Y22382D01*
X86742Y23219D02*
X87205D01*
X86624Y23100D02*
X86742Y23219D01*
X86624Y22697D02*
Y23100D01*
X86614Y23091D02*
X86624Y23100D01*
X85699Y23091D02*
X86614D01*
X85443Y22835D02*
X85699Y23091D01*
X83445Y22835D02*
X85443D01*
X84961Y20111D02*
X85161Y19911D01*
X84961Y20111D02*
Y21063D01*
X85161Y19911D02*
X86624D01*
X74518Y25925D02*
Y25945D01*
X74419Y26043D02*
X74518Y25945D01*
X74400Y26063D02*
X74419Y26043D01*
X74400Y26063D02*
Y26270D01*
X86624Y19911D02*
X87234D01*
X86624D02*
Y20404D01*
X74675Y21112D02*
X74695D01*
X74400Y20837D02*
X74675Y21112D01*
X82579Y21447D02*
Y21634D01*
X82854Y21909D01*
Y22185D01*
X83445D02*
Y22835D01*
X87333Y20010D02*
Y20010D01*
X87234Y19911D02*
X87333Y20010D01*
X86309Y20650D02*
X86378D01*
X86516D02*
X86644Y20778D01*
X86535Y20492D02*
Y20512D01*
X86378Y20650D02*
X86535Y20492D01*
X86378Y20650D02*
X86516D01*
X86535Y20492D02*
X86624Y20404D01*
Y20600D01*
X86535Y20512D02*
X86624Y20600D01*
X86555Y22697D02*
X86624D01*
X86612Y22175D02*
X86673Y22115D01*
X86612Y22175D02*
Y22321D01*
X86624Y22333D01*
Y22382D01*
X86309Y22451D02*
X86432Y22574D01*
X86468Y22610D01*
X86624D02*
Y22697D01*
X86468Y22610D02*
X86555Y22697D01*
X87205Y23219D02*
X87333Y23091D01*
X86644Y20778D02*
Y20951D01*
X86707D01*
X86841Y20817D01*
X86624Y20600D02*
X86841Y20817D01*
X86673Y22115D02*
Y22206D01*
X86624Y22610D02*
X86850Y22383D01*
X80512Y30856D02*
X80866D01*
X83445Y22185D02*
X83838D01*
X84961Y21063D01*
G54D50*
X72352Y20763D02*
X72357D01*
X71883Y20763D02*
X72352Y20763D01*
X72721Y26737D02*
X72723Y26739D01*
X72569Y26585D02*
X72721Y26737D01*
X72185Y26526D02*
X72510D01*
X71978Y26732D02*
X72185Y26526D01*
X72510D02*
X72569Y26585D01*
X72785Y21762D02*
X72795Y21772D01*
X72589Y21683D02*
X72776D01*
X72451Y21545D02*
X72589Y21683D01*
X74828Y25787D02*
X74833D01*
X74995Y25787D02*
Y25968D01*
X74828Y25787D02*
Y25899D01*
X74675Y26052D02*
X74828Y25899D01*
Y25787D02*
X74828Y25787D01*
X74833Y25610D02*
Y25787D01*
X74843Y26121D02*
Y26988D01*
Y26121D02*
X74995Y25968D01*
X74675Y26052D02*
Y26966D01*
X73866Y25427D02*
X73878Y25440D01*
X73866Y25296D02*
Y25427D01*
X73863Y25294D02*
X73866Y25296D01*
X73863Y25103D02*
Y25294D01*
X74026Y25351D02*
X74045Y25370D01*
X74026Y25177D02*
Y25351D01*
X74045Y25370D02*
Y25410D01*
X74319Y25057D02*
X74419Y25157D01*
X74429D01*
X74528Y25256D01*
X74403Y24890D02*
X74493Y24980D01*
X74537D01*
X73863Y25103D02*
X74086Y24880D01*
X74388D01*
X74398Y24890D01*
X74403D01*
X74026Y25177D02*
X74145Y25057D01*
X74319D01*
X74537Y24980D02*
X74567Y24951D01*
X73878Y25440D02*
Y25600D01*
X75974Y24623D02*
Y24636D01*
X74045Y25410D02*
X74055Y25420D01*
X76368Y22667D02*
X76368Y22667D01*
X71142Y28809D02*
X71152Y28819D01*
X70945Y29134D02*
X71152D01*
X70935Y29124D02*
X70945Y29134D01*
X73689Y29775D02*
X73764Y29701D01*
X73689Y29460D02*
X73753Y29524D01*
X73227Y29529D02*
X73296Y29460D01*
X73227Y29706D02*
X73296Y29775D01*
X73040Y29706D02*
X73227D01*
X72971Y29775D02*
X73040Y29706D01*
X72971Y29460D02*
X73040Y29529D01*
X73227D01*
X72902D02*
X72971Y29460D01*
X72864Y29529D02*
X72902D01*
Y29706D02*
X72971Y29775D01*
X72864Y29706D02*
X72902D01*
X72785Y21693D02*
Y21762D01*
X72215Y23907D02*
X72382D01*
X72402Y23927D01*
X73764Y29701D02*
X74012D01*
X74173Y29862D01*
X74252D01*
X73753Y29524D02*
X74030D01*
X74191Y29362D01*
X74252D01*
X72195Y24085D02*
X72520D01*
X72530D01*
X72165Y24114D02*
X72195Y24085D01*
X72402Y23927D02*
X72520D01*
X72530D01*
X74055Y25420D02*
Y25600D01*
X76358Y24400D02*
X76368D01*
X71152Y28819D02*
X71220Y28888D01*
X70935Y28809D02*
X70945D01*
X71142D01*
X71220Y28888D02*
X71398D01*
X71467Y28819D01*
X71152Y29134D02*
X71220Y29065D01*
X71398D01*
X71467Y29134D01*
X71934Y28893D02*
X72018D01*
X71934Y29060D02*
X72087D01*
X72018Y28893D02*
X72057Y28853D01*
Y28346D02*
Y28853D01*
X72087Y29060D02*
X72224Y28923D01*
Y28366D02*
Y28923D01*
X71860Y28819D02*
X71934Y28893D01*
X71860Y29134D02*
X71934Y29060D01*
X71998Y28287D02*
X72057Y28346D01*
X72224Y28366D02*
X72303Y28287D01*
X76368Y24085D02*
X76575D01*
X74990Y25610D02*
Y25787D01*
X74995D02*
X74995Y25787D01*
X74843Y26988D02*
X74892Y27037D01*
X74990Y25787D02*
X74995D01*
X74596Y27045D02*
X74675Y26966D01*
X73012Y21535D02*
X73100Y21624D01*
Y21772D01*
X71278Y21368D02*
X71883Y20763D01*
X72357Y20763D02*
X72579Y20984D01*
X72776Y21683D02*
X72785Y21693D01*
X72766Y21535D02*
X73012D01*
X72579Y20984D02*
Y21348D01*
X72766Y21535D01*
X76198Y24400D02*
X76358D01*
X75974Y24623D02*
X76198Y24400D01*
X80669Y23681D02*
X80835Y23847D01*
Y25136D01*
X81091Y22951D02*
Y23372D01*
X80939Y23524D02*
X81091Y23372D01*
X80563Y23524D02*
X80939D01*
X80512Y23681D02*
X80669D01*
X76575Y24085D02*
X76890Y23770D01*
X77728D01*
X76841Y23652D02*
X77679D01*
X76792Y23533D02*
X77630D01*
X76368Y23927D02*
X76565D01*
X76841Y23652D01*
X76368Y23770D02*
X76556D01*
X76792Y23533D01*
X77630D02*
X77748Y23415D01*
X80454D01*
X80563Y23524D01*
X77679Y23652D02*
X77797Y23533D01*
X80364D01*
X80512Y23681D01*
X77728Y23770D02*
X77846Y23652D01*
X80276D01*
X80581Y23957D01*
X72146Y23839D02*
X72215Y23907D01*
X72372Y23455D02*
X72520D01*
X71978Y23356D02*
X72293D01*
X72352Y23297D01*
X72520D01*
X72303Y23524D02*
X72372Y23455D01*
X71929Y23524D02*
X72303D01*
X71880Y23573D02*
X71929Y23524D01*
X71880Y23258D02*
X71978Y23356D01*
X71398Y23484D02*
X71486Y23573D01*
X71316Y23484D02*
X71398D01*
X71230Y23570D02*
X71316Y23484D01*
X71230Y23570D02*
Y23573D01*
Y23278D02*
X71467D01*
X71486Y23258D01*
G54D51*
X74498Y20089D02*
X74872D01*
X73217Y20028D02*
Y20207D01*
Y20020D02*
Y20028D01*
X73278Y20089D01*
X73150Y19961D02*
X73217Y20028D01*
X73278Y20089D02*
X74498D01*
X73159Y19963D02*
X73217Y20020D01*
G54D52*
X93720Y26063D02*
D03*
X68130D02*
D03*
G54D53*
X74203Y24370D02*
D03*
X74675Y24400D02*
D03*
X74675Y22982D02*
D03*
X74203Y24134D02*
D03*
X74242Y23691D02*
D03*
X74537D02*
D03*
X74823D02*
D03*
X75148Y24400D02*
D03*
X74675Y24045D02*
D03*
X75148D02*
D03*
X74675Y23337D02*
D03*
X75138Y23691D02*
D03*
X75148Y23346D02*
D03*
X75148Y22982D02*
D03*
X74203Y23189D02*
D03*
Y23425D02*
D03*
G54D54*
X73868Y30748D02*
D03*
X73435D02*
D03*
X95797Y23937D02*
D03*
Y28209D02*
D03*
X66073Y28189D02*
D03*
X66545Y26063D02*
D03*
X66073Y23937D02*
D03*
G54D60*
X71909Y22677D02*
X72106D01*
X71748Y25240D02*
X71975Y25013D01*
X71821Y24705D02*
X72018D01*
X74606Y21221D02*
X74606Y21221D01*
X71748Y25240D02*
Y25329D01*
X71742Y25335D02*
X71748Y25329D01*
X71880Y24390D02*
Y24390D01*
Y24075D02*
Y24390D01*
X75600Y20089D02*
X75610Y20098D01*
X75266Y20089D02*
X75600D01*
X76614Y21112D02*
X76939D01*
X76614Y21112D02*
X76614Y21112D01*
X76614Y21112D02*
Y21112D01*
X76299D02*
X76614D01*
X76299D02*
Y21378D01*
X75974Y21112D02*
Y21319D01*
X77037Y22087D02*
Y22431D01*
X76782Y22431D02*
X77037D01*
X74636Y21191D02*
X74705Y21122D01*
X76821Y23189D02*
X76978D01*
X77037Y23130D01*
X75344Y21112D02*
X75659D01*
X75344D02*
X75384Y21152D01*
Y21388D01*
X74606Y21221D02*
X74636Y21191D01*
X75030Y21112D02*
X75030Y21112D01*
X75030Y21112D02*
Y21319D01*
X74606Y21221D02*
Y21319D01*
X79587Y25778D02*
X79626Y25738D01*
X79154Y25778D02*
X79587D01*
X79626Y25738D02*
X79665Y25778D01*
X80069D01*
X87510Y20778D02*
X87657Y20630D01*
X87677D01*
X87648Y20600D02*
X87677Y20630D01*
X87648Y20404D02*
Y20600D01*
X87510Y22313D02*
Y22402D01*
X87579Y22470D01*
X87677D01*
X87657Y22490D02*
X87677Y22470D01*
X87657Y22490D02*
Y22697D01*
X86417Y21447D02*
X86644D01*
X86309Y21339D02*
X86417Y21447D01*
X71975Y25013D02*
X72034D01*
G54D61*
X85915Y20305D02*
Y20581D01*
X80064Y24360D02*
Y24785D01*
Y23942D02*
Y24360D01*
X84577Y22343D02*
X85305D01*
X85738D01*
X85748Y22402D02*
X85915Y22569D01*
X85748Y22333D02*
Y22402D01*
X85929Y20285D02*
X86211D01*
X85915Y20299D02*
X85929Y20285D01*
X85915Y20299D02*
Y20305D01*
X80064Y23942D02*
X80069Y23937D01*
X85748Y20748D02*
X85915Y20581D01*
X85325Y20748D02*
X85748D01*
X85315Y20758D02*
X85325Y20748D01*
G54D62*
X79656Y22461D02*
D03*
X79970D02*
D03*
X73051Y30492D02*
D03*
Y30886D02*
D03*
X74400Y26270D02*
D03*
Y26663D02*
D03*
X76299Y21112D02*
D03*
Y20719D02*
D03*
X75413Y26270D02*
D03*
Y26663D02*
D03*
X72874Y21102D02*
D03*
Y20709D02*
D03*
X73435Y26260D02*
D03*
Y26654D02*
D03*
X75344Y21112D02*
D03*
Y20719D02*
D03*
X76614Y21112D02*
D03*
Y20719D02*
D03*
X75728Y26270D02*
D03*
Y26663D02*
D03*
X73120Y26260D02*
D03*
Y26654D02*
D03*
X84911Y22334D02*
D03*
Y21941D02*
D03*
X76358Y26663D02*
D03*
Y26270D02*
D03*
X75098Y26663D02*
D03*
Y26270D02*
D03*
X74035Y26663D02*
D03*
Y26270D02*
D03*
X72352Y20758D02*
D03*
Y20364D02*
D03*
X86309Y20650D02*
D03*
Y21043D02*
D03*
X79970Y22067D02*
D03*
X79656D02*
D03*
X87333Y20404D02*
D03*
Y20010D02*
D03*
Y23091D02*
D03*
Y22697D02*
D03*
X73217Y20600D02*
D03*
Y20207D02*
D03*
X76939Y21112D02*
D03*
Y20719D02*
D03*
X75030Y21112D02*
D03*
Y20719D02*
D03*
X75974Y21112D02*
D03*
Y20719D02*
D03*
X75659D02*
D03*
Y21112D02*
D03*
X76043Y26270D02*
D03*
Y26663D02*
D03*
X74715Y21112D02*
D03*
Y20719D02*
D03*
X86309Y22451D02*
D03*
Y22057D02*
D03*
X72971Y29067D02*
D03*
X71152Y29528D02*
D03*
Y28425D02*
D03*
X72352Y26339D02*
D03*
Y26732D02*
D03*
X76083Y27628D02*
D03*
Y27234D02*
D03*
X72971Y30169D02*
D03*
X74321Y27126D02*
D03*
Y27520D02*
D03*
X71978Y26339D02*
D03*
Y26732D02*
D03*
X72726Y26339D02*
D03*
Y26732D02*
D03*
X75344Y27421D02*
D03*
Y27028D02*
D03*
X71152Y29134D02*
D03*
Y28819D02*
D03*
X72971Y29775D02*
D03*
Y29460D02*
D03*
G54D63*
X74518Y21772D02*
D03*
X74675D02*
D03*
X73888D02*
D03*
X74045D02*
D03*
X72943D02*
D03*
X73100D02*
D03*
X73258D02*
D03*
X72785D02*
D03*
X75935Y25610D02*
D03*
X76093D02*
D03*
X73415Y21772D02*
D03*
X73573D02*
D03*
X73730D02*
D03*
X74203D02*
D03*
X74360D02*
D03*
X74833D02*
D03*
X74990D02*
D03*
X75148D02*
D03*
X75305D02*
D03*
X75463D02*
D03*
X75620D02*
D03*
X75778D02*
D03*
X75935D02*
D03*
X76093D02*
D03*
X75778Y25610D02*
D03*
X75620D02*
D03*
X75463D02*
D03*
X75305D02*
D03*
X75148D02*
D03*
X74675D02*
D03*
X74518D02*
D03*
X74360D02*
D03*
X74203D02*
D03*
X73730D02*
D03*
X73573D02*
D03*
X73415D02*
D03*
X73258D02*
D03*
X73100D02*
D03*
X72943D02*
D03*
X72785D02*
D03*
X74045D02*
D03*
X73888D02*
D03*
X74990D02*
D03*
X74833D02*
D03*
G54D64*
X96378Y23307D02*
D03*
X95197D02*
D03*
Y28819D02*
D03*
X96378D02*
D03*
X66654Y23307D02*
D03*
X65472D02*
D03*
Y28819D02*
D03*
X66654D02*
D03*
G54D65*
X95787Y23937D02*
D03*
Y28189D02*
D03*
X66063Y23937D02*
D03*
Y28189D02*
D03*
G54D66*
X80579Y25136D02*
D03*
X80835D02*
D03*
X81347D02*
D03*
X80579Y22951D02*
D03*
X80835D02*
D03*
X81091D02*
D03*
X81347D02*
D03*
X81091Y25136D02*
D03*
G54D67*
X85748Y22333D02*
D03*
Y21742D02*
D03*
X85748Y21339D02*
D03*
Y20748D02*
D03*
X79626Y25738D02*
D03*
Y25148D02*
D03*
G54D68*
X78740Y24085D02*
D03*
Y24951D02*
D03*
X78071Y24085D02*
D03*
Y24951D02*
D03*
G54D69*
X78484Y20404D02*
D03*
G54D70*
X82490D02*
D03*
X81644D02*
D03*
X80472D02*
D03*
X79488D02*
D03*
G54D71*
X83642D02*
D03*
G54D72*
X81555Y21447D02*
D03*
X81811D02*
D03*
X82579D02*
D03*
X79429D02*
D03*
X79173D02*
D03*
X78917D02*
D03*
X79941D02*
D03*
X79685D02*
D03*
X82323D02*
D03*
X82067D02*
D03*
G54D73*
X80598Y26358D02*
D03*
G54D74*
X82185Y32264D02*
D03*
G54D75*
X79862Y26230D02*
D03*
G54D76*
X76949Y26742D02*
D03*
G54D77*
X76791Y32205D02*
D03*
G54D78*
X79654Y30866D02*
D03*
X78791Y30433D02*
D03*
X80516D02*
D03*
X79654D02*
D03*
X80516Y30866D02*
D03*
X78791D02*
D03*
G54D79*
X75610Y20098D02*
D03*
X76201D02*
D03*
G54D80*
X76358Y22352D02*
D03*
Y22195D02*
D03*
Y22037D02*
D03*
X72520Y25187D02*
D03*
X76358Y22510D02*
D03*
Y22667D02*
D03*
Y22825D02*
D03*
Y22982D02*
D03*
Y23140D02*
D03*
Y23297D02*
D03*
Y23455D02*
D03*
Y23612D02*
D03*
Y23770D02*
D03*
Y23927D02*
D03*
Y24085D02*
D03*
Y24242D02*
D03*
Y24400D02*
D03*
Y24557D02*
D03*
Y24715D02*
D03*
Y24872D02*
D03*
Y25030D02*
D03*
Y25187D02*
D03*
Y25344D02*
D03*
X72520Y25344D02*
D03*
Y25030D02*
D03*
Y24872D02*
D03*
Y24715D02*
D03*
Y24557D02*
D03*
Y24400D02*
D03*
Y24242D02*
D03*
Y24085D02*
D03*
Y23927D02*
D03*
Y23770D02*
D03*
Y23612D02*
D03*
Y23140D02*
D03*
Y22825D02*
D03*
Y22667D02*
D03*
Y22510D02*
D03*
Y22352D02*
D03*
Y22195D02*
D03*
Y22037D02*
D03*
Y22982D02*
D03*
Y23455D02*
D03*
Y23297D02*
D03*
G54D81*
X74439Y23691D02*
D03*
G54D82*
X87215Y21545D02*
D03*
G54D83*
X86919Y20778D02*
D03*
X87116D02*
D03*
X87313D02*
D03*
X87510D02*
D03*
Y22313D02*
D03*
X87313D02*
D03*
X87116D02*
D03*
X86919D02*
D03*
G54D84*
X87785Y21053D02*
D03*
Y21250D02*
D03*
Y21447D02*
D03*
Y21644D02*
D03*
Y21841D02*
D03*
Y22037D02*
D03*
X86644Y22037D02*
D03*
Y21841D02*
D03*
Y21644D02*
D03*
Y21447D02*
D03*
Y21250D02*
D03*
Y21053D02*
D03*
G54D85*
X74252Y30362D02*
D03*
Y29862D02*
D03*
X75157Y29362D02*
D03*
X74252D02*
D03*
X75157Y29862D02*
D03*
Y30362D02*
D03*
G54D86*
X74331Y30453D02*
Y31289D01*
X73770Y30354D02*
X73778Y30362D01*
X74264D02*
X75157D01*
X74262Y30364D02*
X74264Y30362D01*
X73778D02*
X74252D01*
X74242Y30364D02*
X74331Y30453D01*
X75157Y29362D02*
X75490D01*
X75492Y29360D01*
X77037Y22431D02*
X77037Y22431D01*
X76772Y22421D02*
X76782Y22431D01*
X75906Y21388D02*
X75974Y21319D01*
G54D87*
X72874Y21102D02*
X72913D01*
X72874D02*
Y21329D01*
X73217Y20601D02*
X73217Y20600D01*
X72913Y21102D02*
X73217Y20799D01*
Y20601D02*
Y20799D01*
X79670Y24785D02*
Y25103D01*
X79626Y25148D02*
X79670Y25103D01*
X79450Y24359D02*
X79452Y24360D01*
X79675D01*
X79244Y24565D02*
X79450Y24359D01*
X79400Y23937D02*
X79675D01*
X79399D02*
X79400D01*
X79213Y24124D02*
X79399Y23937D01*
X86220Y21339D02*
X86309D01*
X85748Y21742D02*
X86309D01*
X86220Y21339D02*
X86220Y21339D01*
X85748Y21339D02*
X86220D01*
G54D88*
X88051Y22697D02*
X88140Y22608D01*
Y22215D02*
Y22608D01*
X88061Y21644D02*
X88140Y21722D01*
X87785Y21644D02*
X88061D01*
X87785Y21447D02*
X88051D01*
X88140Y21358D01*
X87785Y21053D02*
X87933D01*
X88140Y20846D01*
X88140D01*
Y20502D02*
Y20846D01*
X88041Y20404D02*
X88140Y20502D01*
X87963Y22037D02*
X88140Y22215D01*
X87785Y22037D02*
X87963D01*
X87313Y20423D02*
X87333Y20404D01*
X87313Y20423D02*
Y20778D01*
Y22677D02*
X87333Y22697D01*
X87313Y22313D02*
Y22677D01*
X87115Y20777D02*
X87116Y20778D01*
X87115Y20501D02*
Y20777D01*
X87018Y20404D02*
X87115Y20501D01*
X87018Y20187D02*
Y20404D01*
Y20187D02*
X87018Y20187D01*
X86644Y21250D02*
X86919D01*
X86093Y21043D02*
X86309D01*
X86528Y21250D02*
X86644D01*
X86324Y21043D02*
X86528Y21248D01*
X86309Y21043D02*
X86324D01*
X86528Y21248D02*
Y21250D01*
X86407Y21644D02*
X86644D01*
X86309Y21742D02*
X86407Y21644D01*
X86526Y21841D02*
X86644D01*
X86309Y22057D02*
X86526Y21841D01*
X86093Y22057D02*
X86309D01*
X86093Y22057D02*
X86093Y22057D01*
X86644Y21841D02*
X86919D01*
X86919Y21250D02*
X87116Y21447D01*
X86919Y21841D02*
X87116Y21644D01*
X87215Y21545D01*
X87116Y21447D02*
X87215Y21545D01*
X87116Y20778D02*
Y21447D01*
X87115Y22314D02*
X87116Y22313D01*
X87115Y22314D02*
Y22618D01*
X87018Y22697D02*
X87036D01*
X87116Y21644D02*
Y22313D01*
X87008Y22725D02*
Y22943D01*
X87036Y22697D02*
X87115Y22618D01*
X87008Y22725D02*
X87036Y22697D01*
M02*
