G04*
G04 #@! TF.GenerationSoftware,Altium Limited,Altium Designer,18.1.6 (161)*
G04*
G04 Layer_Physical_Order=3*
G04 Layer_Color=36540*
%FSLAX24Y24*%
%MOIN*%
G70*
G01*
G75*
%ADD10C,0.0100*%
%ADD11C,0.0060*%
%ADD13C,0.0080*%
%ADD15C,0.0059*%
%ADD29C,0.0236*%
%ADD47C,0.0065*%
%ADD49C,0.0197*%
%ADD51C,0.0295*%
%ADD52C,0.2165*%
%ADD53C,0.0237*%
%ADD60C,0.0150*%
%ADD61C,0.0394*%
G36*
X71043Y32437D02*
X89346Y32437D01*
Y29528D01*
X89346D01*
X89357Y29445D01*
X89389Y29368D01*
X89440Y29302D01*
X89506Y29251D01*
X89583Y29219D01*
X89665Y29208D01*
Y29209D01*
X93307D01*
Y29208D01*
X93390Y29219D01*
X93467Y29251D01*
X93533Y29302D01*
X93584Y29368D01*
X93615Y29445D01*
X93626Y29528D01*
X93626D01*
Y30075D01*
X94366D01*
Y30016D01*
X94329Y30001D01*
X94262Y29950D01*
X94212Y29884D01*
X94180Y29807D01*
X94169Y29724D01*
X94180Y29642D01*
X94212Y29565D01*
X94262Y29499D01*
X94329Y29448D01*
X94406Y29416D01*
X94488Y29405D01*
Y29406D01*
X97240D01*
Y27799D01*
X95787D01*
Y27800D01*
X95705Y27789D01*
X95628Y27757D01*
X95562Y27706D01*
X95511Y27640D01*
X95479Y27563D01*
X95468Y27480D01*
X95469D01*
Y24646D01*
X95468D01*
X95479Y24563D01*
X95511Y24486D01*
X95562Y24420D01*
X95628Y24369D01*
X95705Y24337D01*
X95787Y24326D01*
Y24327D01*
X97240D01*
Y22720D01*
X94488D01*
Y22721D01*
X94406Y22710D01*
X94329Y22678D01*
X94262Y22627D01*
X94212Y22561D01*
X94180Y22484D01*
X94169Y22402D01*
X94180Y22319D01*
X94212Y22242D01*
X94262Y22176D01*
X94329Y22125D01*
X94366Y22110D01*
Y22051D01*
X93626D01*
Y22598D01*
X93626D01*
X93615Y22681D01*
X93584Y22758D01*
X93533Y22824D01*
X93467Y22875D01*
X93390Y22907D01*
X93307Y22918D01*
Y22917D01*
X89665D01*
Y22918D01*
X89583Y22907D01*
X89506Y22875D01*
X89440Y22824D01*
X89389Y22758D01*
X89357Y22681D01*
X89346Y22598D01*
X89346D01*
Y19689D01*
X75660Y19689D01*
X75641Y19735D01*
X76064Y20158D01*
X76069Y20159D01*
X76074Y20162D01*
X76366D01*
X76417Y20152D01*
X76502Y20169D01*
X76575Y20217D01*
X76598Y20252D01*
X76648Y20257D01*
X76675Y20229D01*
X76719Y20200D01*
X76770Y20190D01*
X77255D01*
X77307Y20200D01*
X77351Y20229D01*
X78082Y20960D01*
X82562D01*
X82614Y20971D01*
X82658Y21000D01*
X82940Y21282D01*
X82969Y21326D01*
X82980Y21378D01*
Y22446D01*
X82980Y22446D01*
X82981Y22448D01*
X82982Y22451D01*
X82985Y22455D01*
X82988Y22460D01*
X82993Y22465D01*
X83002Y22471D01*
X83050Y22543D01*
X83067Y22628D01*
X83050Y22713D01*
X83002Y22785D01*
X82930Y22833D01*
X82844Y22850D01*
X82759Y22833D01*
X82687Y22785D01*
X82639Y22713D01*
X82622Y22628D01*
X82639Y22543D01*
X82687Y22471D01*
X82696Y22465D01*
X82701Y22460D01*
X82704Y22455D01*
X82707Y22451D01*
X82708Y22448D01*
X82709Y22446D01*
X82709Y22446D01*
Y21434D01*
X82506Y21231D01*
X78026D01*
X77974Y21220D01*
X77930Y21191D01*
X77678Y20938D01*
X77632Y20963D01*
X77644Y21024D01*
X77627Y21109D01*
X77579Y21181D01*
X77506Y21229D01*
X77421Y21246D01*
X77336Y21229D01*
X77264Y21181D01*
X77216Y21109D01*
X77199Y21024D01*
X77216Y20939D01*
X77264Y20866D01*
X77336Y20818D01*
X77421Y20801D01*
X77482Y20813D01*
X77507Y20767D01*
X77199Y20460D01*
X76826D01*
X76607Y20679D01*
X76563Y20708D01*
X76512Y20719D01*
X75879D01*
X75827Y20708D01*
X75783Y20679D01*
X75492Y20388D01*
X74733D01*
X74592Y20529D01*
X74548Y20558D01*
X74497Y20568D01*
X73529D01*
X73446Y20651D01*
X73471Y20697D01*
X73494Y20693D01*
X73579Y20710D01*
X73651Y20758D01*
X73699Y20830D01*
X73716Y20915D01*
X73709Y20952D01*
X73752Y20991D01*
X73825Y21005D01*
X73860Y21029D01*
X73896Y20975D01*
X73968Y20926D01*
X74054Y20910D01*
X74139Y20926D01*
X74211Y20975D01*
X74259Y21047D01*
X74276Y21132D01*
X74275Y21138D01*
X74349Y21153D01*
X74421Y21201D01*
X74423D01*
X74449Y21162D01*
X74521Y21113D01*
X74606Y21097D01*
X74691Y21113D01*
X74764Y21162D01*
X74788Y21198D01*
X74848D01*
X74872Y21162D01*
X74944Y21113D01*
X75030Y21097D01*
X75115Y21113D01*
X75187Y21162D01*
X75231Y21228D01*
X75299Y21182D01*
X75384Y21165D01*
X75469Y21182D01*
X75541Y21231D01*
X75589Y21303D01*
X75606Y21388D01*
X75589Y21473D01*
X75541Y21545D01*
X75469Y21593D01*
X75422Y21603D01*
X75417Y21607D01*
X75327Y21697D01*
X75269Y21736D01*
X75201Y21749D01*
X74635D01*
X74414Y21970D01*
X74356Y22009D01*
X74288Y22023D01*
X73106D01*
X73057Y22013D01*
X72942D01*
X72649Y22305D01*
Y22514D01*
X72699Y22532D01*
X72759Y22491D01*
X72844Y22474D01*
X72930Y22491D01*
X73002Y22540D01*
X73050Y22612D01*
X73067Y22697D01*
X73050Y22782D01*
X73018Y22829D01*
X73027Y22835D01*
X73075Y22907D01*
X73092Y22992D01*
X73075Y23077D01*
X73027Y23149D01*
X72955Y23198D01*
X72870Y23215D01*
X72785Y23198D01*
X72712Y23149D01*
X72699Y23129D01*
X72649Y23144D01*
Y23304D01*
X72824Y23479D01*
X73087D01*
X73155Y23493D01*
X73213Y23532D01*
X73402Y23721D01*
X73441Y23779D01*
X73455Y23847D01*
Y24434D01*
X73456Y24443D01*
X73459Y24450D01*
X73460Y24454D01*
X73461Y24455D01*
X73462Y24455D01*
X73465Y24457D01*
X73472Y24459D01*
X73482Y24461D01*
X74558D01*
X74621Y24474D01*
X75181D01*
X75820Y23834D01*
X75878Y23796D01*
X75946Y23782D01*
X77255D01*
X77324Y23796D01*
X77382Y23834D01*
X77607Y24060D01*
X79003D01*
X79007Y24039D01*
X79055Y23967D01*
X79127Y23918D01*
X79175Y23909D01*
X79180Y23905D01*
X79185Y23900D01*
X79194Y23852D01*
X79242Y23780D01*
X79314Y23732D01*
X79400Y23715D01*
X79485Y23732D01*
X79557Y23780D01*
X79605Y23852D01*
X79622Y23937D01*
X79605Y24022D01*
X79565Y24082D01*
X79558Y24098D01*
X79574Y24143D01*
X79629Y24180D01*
X79684Y24262D01*
X79703Y24359D01*
X79684Y24455D01*
X79629Y24537D01*
X79422Y24744D01*
X79422Y24744D01*
X79340Y24799D01*
X79244Y24818D01*
X79202Y24810D01*
X77452D01*
X77290Y24972D01*
X77208Y25027D01*
X77111Y25046D01*
X76443D01*
X76340Y25149D01*
X76258Y25204D01*
X76161Y25223D01*
X75922D01*
X75853Y25292D01*
Y25305D01*
X75834Y25402D01*
X75806Y25444D01*
X75836Y25489D01*
X75846Y25487D01*
X75959D01*
X76086Y25359D01*
X76152Y25315D01*
X76229Y25300D01*
X80170D01*
X80183Y25250D01*
X80139Y25184D01*
X80122Y25098D01*
X80139Y25013D01*
X80187Y24941D01*
X80212Y24925D01*
X80200Y24873D01*
X80149Y24866D01*
X80077Y24836D01*
X80015Y24788D01*
X79967Y24726D01*
X79937Y24654D01*
X79927Y24577D01*
Y24144D01*
X79937Y24066D01*
X79967Y23994D01*
X80015Y23932D01*
X80077Y23884D01*
X80149Y23854D01*
X80226Y23844D01*
X80304Y23854D01*
X80362Y23879D01*
X80375Y23872D01*
X80423Y23799D01*
X80496Y23751D01*
X80581Y23734D01*
X80666Y23751D01*
X80738Y23799D01*
X80744Y23809D01*
X80745Y23809D01*
X80751Y23814D01*
X80756Y23819D01*
X80760Y23822D01*
X80764Y23824D01*
X80766Y23825D01*
X80790D01*
X80839Y23776D01*
X80839Y23774D01*
X80840Y23770D01*
X80841Y23766D01*
X80843Y23749D01*
X80841Y23739D01*
X80858Y23653D01*
X80906Y23581D01*
X80978Y23533D01*
X81063Y23516D01*
X81148Y23533D01*
X81220Y23581D01*
X81263Y23646D01*
X81317Y23663D01*
X81973Y23007D01*
X82035Y22959D01*
X82108Y22929D01*
X82185Y22919D01*
X83577D01*
X84365Y22131D01*
X84427Y22083D01*
X84499Y22053D01*
X84577Y22043D01*
X85689D01*
X85766Y22053D01*
X85839Y22083D01*
X85901Y22131D01*
X86039Y22269D01*
X87455D01*
X87465Y22259D01*
X87465Y22259D01*
X87564Y22160D01*
X87626Y22113D01*
X87698Y22083D01*
X87776Y22073D01*
X87853Y22083D01*
X87925Y22113D01*
X87987Y22160D01*
X88035Y22222D01*
X88065Y22295D01*
X88075Y22372D01*
X88065Y22450D01*
X88035Y22522D01*
X87987Y22584D01*
X87889Y22682D01*
X87889Y22682D01*
X87790Y22781D01*
X87728Y22828D01*
X87656Y22858D01*
X87579Y22868D01*
X85915D01*
X85838Y22858D01*
X85796Y22841D01*
X85766Y22828D01*
X85704Y22781D01*
X85565Y22642D01*
X84701D01*
X83912Y23430D01*
X83850Y23478D01*
X83778Y23508D01*
X83701Y23518D01*
X82309D01*
X81038Y24788D01*
X80976Y24836D01*
X80904Y24866D01*
X80827Y24876D01*
X80494D01*
X80479Y24926D01*
X80502Y24941D01*
X80550Y25013D01*
X80567Y25098D01*
X80550Y25184D01*
X80506Y25250D01*
X80519Y25300D01*
X81104D01*
X81347Y25057D01*
X81348Y25051D01*
X81396Y24979D01*
X81468Y24931D01*
X81554Y24914D01*
X81639Y24931D01*
X81711Y24979D01*
X81759Y25051D01*
X81776Y25136D01*
X81759Y25221D01*
X81711Y25294D01*
X81639Y25342D01*
X81633Y25343D01*
X81331Y25645D01*
X81265Y25689D01*
X81188Y25704D01*
X80316D01*
X80284Y25743D01*
X80291Y25778D01*
X80274Y25863D01*
X80226Y25935D01*
X80154Y25983D01*
X80069Y26000D01*
X79984Y25983D01*
X79912Y25935D01*
X79863Y25863D01*
X79847Y25778D01*
X79853Y25743D01*
X79822Y25704D01*
X79401D01*
X79369Y25743D01*
X79376Y25778D01*
X79359Y25863D01*
X79311Y25935D01*
X79239Y25983D01*
X79154Y26000D01*
X79068Y25983D01*
X78996Y25935D01*
X78948Y25863D01*
X78931Y25778D01*
X78938Y25743D01*
X78906Y25704D01*
X78306D01*
X78265Y25754D01*
X78274Y25797D01*
X78257Y25882D01*
X78208Y25954D01*
X78199Y25961D01*
X78199Y25961D01*
X78194Y25967D01*
X78190Y25972D01*
X78187Y25976D01*
X78185Y25980D01*
X78184Y25982D01*
Y28396D01*
X78174Y28446D01*
X78145Y28489D01*
X76740Y29894D01*
X76739Y29897D01*
X76738Y29900D01*
X76737Y29905D01*
X76736Y29912D01*
X76736Y29920D01*
X76736Y29920D01*
X76738Y29931D01*
X76721Y30016D01*
X76673Y30088D01*
X76601Y30137D01*
X76516Y30153D01*
X76431Y30137D01*
X76358Y30088D01*
X76310Y30016D01*
X76293Y29931D01*
X76310Y29846D01*
X76358Y29774D01*
X76431Y29726D01*
X76516Y29709D01*
X76527Y29711D01*
X76527Y29711D01*
X76535Y29710D01*
X76542Y29710D01*
X76547Y29709D01*
X76550Y29708D01*
X76553Y29707D01*
X77919Y28341D01*
Y25982D01*
X77918Y25980D01*
X77916Y25976D01*
X77913Y25972D01*
X77909Y25967D01*
X77904Y25961D01*
X77903Y25961D01*
X77894Y25954D01*
X77846Y25882D01*
X77829Y25797D01*
X77837Y25754D01*
X77796Y25704D01*
X76957D01*
X76930Y25754D01*
X76956Y25792D01*
X76973Y25878D01*
X76956Y25963D01*
X76908Y26035D01*
X76835Y26083D01*
X76750Y26100D01*
X76665Y26083D01*
X76593Y26035D01*
X76585Y26023D01*
X76525D01*
X76505Y26053D01*
X76496Y26059D01*
X76496Y26059D01*
X76491Y26065D01*
X76487Y26071D01*
X76484Y26075D01*
X76482Y26078D01*
X76481Y26081D01*
Y26274D01*
X76817Y26609D01*
X76845Y26653D01*
X76855Y26703D01*
Y27234D01*
X76845Y27285D01*
X76817Y27327D01*
X76553Y27591D01*
X76552Y27593D01*
X76551Y27597D01*
X76550Y27602D01*
X76549Y27609D01*
X76549Y27617D01*
X76549Y27617D01*
X76551Y27628D01*
X76534Y27713D01*
X76486Y27785D01*
X76414Y27833D01*
X76329Y27850D01*
X76244Y27833D01*
X76171Y27785D01*
X76123Y27713D01*
X76106Y27628D01*
X76123Y27543D01*
X76171Y27471D01*
X76201Y27451D01*
Y27401D01*
X76171Y27382D01*
X76123Y27310D01*
X76106Y27224D01*
X76123Y27139D01*
X76171Y27067D01*
X76244Y27019D01*
X76329Y27002D01*
X76414Y27019D01*
X76486Y27067D01*
X76534Y27139D01*
X76587Y27147D01*
X76590Y27145D01*
Y26758D01*
X76254Y26422D01*
X76226Y26379D01*
X76216Y26329D01*
Y26201D01*
X76166Y26175D01*
X76128Y26200D01*
X76043Y26216D01*
X75958Y26200D01*
X75886Y26151D01*
X75838Y26079D01*
X75832Y26051D01*
X75784Y26037D01*
X75738Y26083D01*
X75737Y26089D01*
X75688Y26161D01*
X75616Y26209D01*
X75531Y26226D01*
X75446Y26209D01*
X75427Y26196D01*
X74579D01*
X74577Y26201D01*
X74504Y26249D01*
X74419Y26266D01*
X74334Y26249D01*
X74262Y26201D01*
X74248Y26180D01*
X74198Y26195D01*
Y26903D01*
X74198Y26905D01*
X74199Y26907D01*
X74203Y26910D01*
X74251Y26982D01*
X74268Y27067D01*
X74251Y27152D01*
X74203Y27224D01*
X74175Y27242D01*
X74174Y27246D01*
X74179Y27300D01*
X74232Y27336D01*
X74280Y27408D01*
X74297Y27493D01*
X74280Y27578D01*
X74232Y27651D01*
X74160Y27699D01*
X74075Y27716D01*
X73990Y27699D01*
X73918Y27651D01*
X73869Y27578D01*
X73852Y27493D01*
X73869Y27408D01*
X73918Y27336D01*
X73945Y27318D01*
X73946Y27314D01*
X73942Y27260D01*
X73888Y27224D01*
X73840Y27152D01*
X73823Y27067D01*
X73840Y26982D01*
X73888Y26910D01*
X73891Y26907D01*
X73892Y26905D01*
X73892Y26903D01*
Y25991D01*
X73904Y25932D01*
X73937Y25883D01*
X74236Y25584D01*
X74285Y25551D01*
X74344Y25539D01*
X75096D01*
X75102Y25530D01*
X75080Y25475D01*
X75063Y25471D01*
X74990Y25423D01*
X74945Y25355D01*
X74872Y25370D01*
X74787Y25353D01*
X74779Y25348D01*
X74716Y25366D01*
X74685Y25413D01*
X74613Y25461D01*
X74528Y25478D01*
X74442Y25461D01*
X74370Y25413D01*
X74322Y25341D01*
X74305Y25256D01*
X74322Y25171D01*
X74370Y25099D01*
X74393Y25083D01*
X74361Y25036D01*
X74345Y24951D01*
X74361Y24868D01*
X74362Y24859D01*
X74336Y24818D01*
X73340D01*
X73308Y24857D01*
X73313Y24882D01*
X73296Y24967D01*
X73248Y25039D01*
X73176Y25087D01*
X73091Y25104D01*
X73005Y25087D01*
X72933Y25039D01*
X72885Y24967D01*
X72871Y24894D01*
X72854Y24898D01*
X72769Y24881D01*
X72697Y24832D01*
X72649Y24760D01*
X72632Y24675D01*
X72649Y24590D01*
X72697Y24518D01*
X72769Y24470D01*
X72854Y24453D01*
X72878Y24458D01*
X72897Y24454D01*
X72949D01*
X72961Y24451D01*
X72961Y24451D01*
X73098D01*
Y24162D01*
X73048Y24136D01*
X73008Y24162D01*
X72923Y24179D01*
X72838Y24162D01*
X72766Y24114D01*
X72718Y24042D01*
X72701Y23957D01*
X72718Y23872D01*
X72699Y23826D01*
X72682Y23823D01*
X72624Y23784D01*
X72624Y23784D01*
X72344Y23504D01*
X72306Y23447D01*
X72292Y23378D01*
Y22904D01*
X72242Y22878D01*
X72191Y22912D01*
X72106Y22929D01*
X72021Y22912D01*
X71949Y22864D01*
X71901Y22792D01*
X71884Y22707D01*
X71901Y22622D01*
X71949Y22549D01*
X72021Y22501D01*
X72106Y22484D01*
X72191Y22501D01*
X72242Y22535D01*
X72292Y22509D01*
Y22231D01*
X72306Y22163D01*
X72344Y22105D01*
X72741Y21708D01*
X72741Y21708D01*
X72799Y21669D01*
X72868Y21656D01*
X72868Y21656D01*
X73096D01*
X73146Y21666D01*
X74214D01*
X74251Y21629D01*
X74234Y21575D01*
X74179Y21564D01*
X74107Y21516D01*
X74058Y21443D01*
X74041Y21358D01*
X74043Y21352D01*
X73968Y21337D01*
X73933Y21314D01*
X73897Y21368D01*
X73825Y21416D01*
X73740Y21433D01*
X73655Y21416D01*
X73583Y21368D01*
X73551Y21320D01*
X73492Y21319D01*
X73463Y21362D01*
X73391Y21411D01*
X73306Y21428D01*
X73221Y21411D01*
X73149Y21362D01*
X73142Y21353D01*
X73089Y21364D01*
X73079Y21414D01*
X73031Y21486D01*
X72959Y21534D01*
X72874Y21551D01*
X72789Y21534D01*
X72717Y21486D01*
X72710Y21477D01*
X72663Y21496D01*
X72673Y21545D01*
X72656Y21630D01*
X72608Y21703D01*
X72536Y21751D01*
X72451Y21768D01*
X72394Y21756D01*
X72351Y21797D01*
X72358Y21831D01*
X72341Y21916D01*
X72293Y21988D01*
X72221Y22036D01*
X72136Y22053D01*
X72051Y22036D01*
X71979Y21988D01*
X71930Y21916D01*
X71929Y21910D01*
X71515Y21496D01*
X71503Y21492D01*
X71454Y21497D01*
X71435Y21525D01*
X71363Y21574D01*
X71278Y21590D01*
X71193Y21574D01*
X71121Y21525D01*
X71115Y21517D01*
X71114Y21516D01*
X71112Y21515D01*
X71109Y21513D01*
X71107Y21512D01*
X71106Y21512D01*
X71104Y21511D01*
X71103Y21511D01*
X70670D01*
X69746Y22435D01*
X69699Y22466D01*
X69645Y22477D01*
X69645Y22477D01*
X68596D01*
X68038Y23035D01*
X67992Y23066D01*
X67937Y23076D01*
X67937Y23076D01*
X67704D01*
X67318Y23463D01*
Y24191D01*
X67318Y24191D01*
X67317Y24194D01*
Y24369D01*
X67318Y24372D01*
X67318Y24372D01*
Y25296D01*
X67318Y25296D01*
X67307Y25351D01*
X67276Y25397D01*
X67276Y25397D01*
X67091Y25582D01*
Y26535D01*
X68337Y27780D01*
X68888D01*
X68888Y27780D01*
X68942Y27791D01*
X68989Y27822D01*
X69825Y28658D01*
X69825Y28658D01*
X69856Y28705D01*
X69867Y28759D01*
Y30502D01*
X69892Y30545D01*
X69977Y30562D01*
X70049Y30610D01*
X70097Y30683D01*
X70114Y30768D01*
X70097Y30853D01*
X70049Y30925D01*
X69977Y30973D01*
X69892Y30990D01*
X69807Y30973D01*
X69734Y30925D01*
X69686Y30853D01*
X69669Y30768D01*
X69671Y30758D01*
X69671Y30757D01*
X69671Y30754D01*
X69670Y30751D01*
X69669Y30749D01*
X69668Y30747D01*
X69667Y30745D01*
X69667Y30745D01*
X69623Y30701D01*
X69592Y30654D01*
X69581Y30600D01*
X69581Y30600D01*
Y28818D01*
X68829Y28066D01*
X68278D01*
X68278Y28066D01*
X68223Y28055D01*
X68177Y28024D01*
X68177Y28024D01*
X66847Y26695D01*
X66816Y26648D01*
X66805Y26594D01*
X66805Y26594D01*
Y26229D01*
X66755Y26212D01*
X66729Y26247D01*
X66675Y26288D01*
X66612Y26314D01*
X66545Y26323D01*
X66478Y26314D01*
X66415Y26288D01*
X66362Y26247D01*
X66320Y26193D01*
X66294Y26130D01*
X66286Y26063D01*
X66294Y25996D01*
X66320Y25933D01*
X66362Y25879D01*
X66415Y25838D01*
X66478Y25812D01*
X66545Y25803D01*
X66612Y25812D01*
X66675Y25838D01*
X66729Y25879D01*
X66755Y25914D01*
X66805Y25897D01*
Y25523D01*
X66805Y25523D01*
X66816Y25469D01*
X66847Y25422D01*
X67032Y25237D01*
Y24375D01*
X67032Y24371D01*
X67032Y24371D01*
Y24192D01*
X67032Y24192D01*
X67032Y24188D01*
Y23404D01*
X67032Y23404D01*
X67043Y23349D01*
X67074Y23303D01*
X67544Y22833D01*
X67544Y22833D01*
X67590Y22802D01*
X67645Y22791D01*
X67645Y22791D01*
X67878D01*
X68436Y22233D01*
X68436Y22233D01*
X68482Y22202D01*
X68537Y22192D01*
X68537Y22192D01*
X69586D01*
X70510Y21267D01*
X70510Y21267D01*
X70556Y21236D01*
X70611Y21225D01*
X70611Y21225D01*
X71103D01*
X71104Y21225D01*
X71106Y21225D01*
X71107Y21224D01*
X71109Y21223D01*
X71112Y21222D01*
X71114Y21220D01*
X71115Y21219D01*
X71121Y21211D01*
X71193Y21163D01*
X71278Y21146D01*
X71363Y21163D01*
X71401Y21188D01*
X71451Y21161D01*
Y20876D01*
X71467Y20799D01*
X71510Y20733D01*
X72150Y20093D01*
X72216Y20049D01*
X72293Y20034D01*
X72902D01*
X72934Y19995D01*
X72927Y19961D01*
X72944Y19876D01*
X72992Y19803D01*
X73064Y19755D01*
X73150Y19738D01*
X73235Y19755D01*
X73307Y19803D01*
X73355Y19876D01*
X73372Y19961D01*
X73365Y19995D01*
X73397Y20034D01*
X73863D01*
X74162Y19735D01*
X74143Y19689D01*
X71043D01*
X71041Y19689D01*
X70878Y19701D01*
X70716Y19740D01*
X70562Y19804D01*
X70420Y19891D01*
X70294Y19999D01*
X70186Y20125D01*
X70128Y20220D01*
X70124Y20217D01*
X70111Y20237D01*
X69433Y21401D01*
Y21732D01*
X69433D01*
X69423Y21815D01*
X69391Y21892D01*
X69340Y21958D01*
X69274Y22009D01*
X69197Y22041D01*
X69114Y22052D01*
Y22051D01*
X67484D01*
Y22110D01*
X67522Y22125D01*
X67588Y22176D01*
X67639Y22242D01*
X67671Y22319D01*
X67681Y22402D01*
X67671Y22484D01*
X67639Y22561D01*
X67588Y22627D01*
X67522Y22678D01*
X67445Y22710D01*
X67362Y22721D01*
Y22720D01*
X64787D01*
Y24480D01*
X64837Y24505D01*
X64860Y24487D01*
X64937Y24455D01*
X65020Y24445D01*
X65102Y24455D01*
X65179Y24487D01*
X65245Y24538D01*
X65296Y24604D01*
X65328Y24681D01*
X65339Y24764D01*
X65339D01*
X65339Y24764D01*
Y27362D01*
X65339D01*
X65328Y27445D01*
X65296Y27522D01*
X65245Y27588D01*
X65179Y27639D01*
X65102Y27671D01*
X65020Y27681D01*
X64937Y27671D01*
X64860Y27639D01*
X64837Y27621D01*
X64787Y27646D01*
Y29406D01*
X67362D01*
Y29405D01*
X67445Y29416D01*
X67522Y29448D01*
X67588Y29499D01*
X67639Y29565D01*
X67671Y29642D01*
X67681Y29724D01*
X67671Y29807D01*
X67639Y29884D01*
X67588Y29950D01*
X67522Y30001D01*
X67484Y30016D01*
Y30075D01*
X69114D01*
Y30074D01*
X69197Y30085D01*
X69274Y30117D01*
X69340Y30168D01*
X69391Y30234D01*
X69423Y30311D01*
X69433Y30394D01*
X69433D01*
Y30725D01*
X70111Y31889D01*
X70124Y31909D01*
X70128Y31906D01*
X70186Y32001D01*
X70294Y32127D01*
X70420Y32235D01*
X70562Y32322D01*
X70716Y32386D01*
X70878Y32425D01*
X71041Y32437D01*
X71043Y32437D01*
D02*
G37*
G36*
X69891Y30650D02*
X69879Y30649D01*
X69867Y30648D01*
X69857Y30646D01*
X69846Y30644D01*
X69836Y30640D01*
X69826Y30636D01*
X69817Y30631D01*
X69808Y30625D01*
X69799Y30618D01*
X69791Y30611D01*
X69735Y30667D01*
X69742Y30675D01*
X69749Y30684D01*
X69755Y30693D01*
X69760Y30702D01*
X69764Y30712D01*
X69768Y30722D01*
X69770Y30733D01*
X69772Y30743D01*
X69773Y30755D01*
X69774Y30767D01*
X69891Y30650D01*
D02*
G37*
G36*
X76634Y29916D02*
X76635Y29902D01*
X76637Y29889D01*
X76639Y29877D01*
X76642Y29866D01*
X76646Y29855D01*
X76650Y29846D01*
X76655Y29837D01*
X76661Y29829D01*
X76668Y29821D01*
X76625Y29779D01*
X76618Y29786D01*
X76610Y29791D01*
X76601Y29797D01*
X76591Y29801D01*
X76581Y29805D01*
X76570Y29808D01*
X76558Y29810D01*
X76545Y29812D01*
X76531Y29813D01*
X76517Y29813D01*
X76634Y29930D01*
X76634Y29916D01*
D02*
G37*
G36*
X76447Y27612D02*
X76448Y27599D01*
X76450Y27586D01*
X76452Y27574D01*
X76455Y27563D01*
X76459Y27552D01*
X76463Y27543D01*
X76468Y27534D01*
X76474Y27526D01*
X76481Y27518D01*
X76438Y27476D01*
X76431Y27482D01*
X76423Y27488D01*
X76414Y27494D01*
X76404Y27498D01*
X76394Y27502D01*
X76383Y27505D01*
X76371Y27507D01*
X76358Y27509D01*
X76344Y27510D01*
X76330Y27510D01*
X76447Y27627D01*
X76447Y27612D01*
D02*
G37*
G36*
X74122Y26976D02*
X74116Y26969D01*
X74111Y26961D01*
X74107Y26952D01*
X74103Y26943D01*
X74100Y26934D01*
X74098Y26923D01*
X74097Y26912D01*
X74096Y26901D01*
X74095Y26889D01*
X73995D01*
X73995Y26901D01*
X73994Y26912D01*
X73992Y26923D01*
X73990Y26934D01*
X73987Y26943D01*
X73984Y26952D01*
X73979Y26961D01*
X73974Y26969D01*
X73969Y26976D01*
X73963Y26983D01*
X74128D01*
X74122Y26976D01*
D02*
G37*
G36*
X76379Y26071D02*
X76380Y26061D01*
X76383Y26051D01*
X76387Y26041D01*
X76391Y26031D01*
X76397Y26021D01*
X76404Y26011D01*
X76412Y26001D01*
X76421Y25990D01*
X76431Y25980D01*
X76266D01*
X76276Y25990D01*
X76284Y26001D01*
X76292Y26011D01*
X76299Y26021D01*
X76305Y26031D01*
X76310Y26041D01*
X76313Y26051D01*
X76316Y26061D01*
X76318Y26071D01*
X76318Y26081D01*
X76378D01*
X76379Y26071D01*
D02*
G37*
G36*
X78082Y25972D02*
X78083Y25963D01*
X78086Y25953D01*
X78090Y25943D01*
X78094Y25933D01*
X78100Y25923D01*
X78107Y25912D01*
X78115Y25902D01*
X78124Y25892D01*
X78134Y25882D01*
X77969D01*
X77979Y25892D01*
X77987Y25902D01*
X77995Y25912D01*
X78002Y25923D01*
X78008Y25933D01*
X78013Y25943D01*
X78016Y25953D01*
X78019Y25963D01*
X78021Y25972D01*
X78021Y25982D01*
X78081D01*
X78082Y25972D01*
D02*
G37*
G36*
X75514Y25456D02*
X75523Y25449D01*
X75532Y25442D01*
X75541Y25437D01*
X75550Y25432D01*
X75559Y25429D01*
X75568Y25426D01*
X75577Y25424D01*
X75586Y25423D01*
X75595Y25423D01*
X75482Y25302D01*
X75482Y25311D01*
X75480Y25320D01*
X75478Y25329D01*
X75475Y25338D01*
X75471Y25347D01*
X75466Y25356D01*
X75460Y25365D01*
X75453Y25373D01*
X75446Y25382D01*
X75438Y25391D01*
X75505Y25464D01*
X75514Y25456D01*
D02*
G37*
G36*
X72966Y24716D02*
X72969Y24714D01*
X72973Y24712D01*
X72979Y24710D01*
X72986Y24708D01*
X72994Y24707D01*
X73014Y24705D01*
X73040Y24705D01*
X73034Y24555D01*
X72900Y24566D01*
X72964Y24719D01*
X72966Y24716D01*
D02*
G37*
G36*
X73501Y24565D02*
X73473Y24563D01*
X73447Y24559D01*
X73425Y24551D01*
X73405Y24541D01*
X73389Y24527D01*
X73375Y24511D01*
X73365Y24491D01*
X73357Y24469D01*
X73353Y24443D01*
X73351Y24415D01*
X73276Y24640D01*
X73501Y24565D01*
D02*
G37*
G36*
X79331Y24120D02*
X79333Y24117D01*
X79335Y24113D01*
X79338Y24108D01*
X79348Y24096D01*
X79355Y24089D01*
X79388Y24060D01*
X79393Y24057D01*
X79396Y24056D01*
X79398Y24055D01*
X79282Y23938D01*
X79281Y23941D01*
X79280Y23944D01*
X79277Y23948D01*
X79274Y23953D01*
X79264Y23965D01*
X79257Y23972D01*
X79224Y24001D01*
X79220Y24004D01*
X79216Y24005D01*
X79214Y24006D01*
X79331Y24123D01*
X79331Y24120D01*
D02*
G37*
G36*
X80675Y24029D02*
X80696Y24012D01*
X80706Y24005D01*
X80716Y24000D01*
X80726Y23995D01*
X80736Y23991D01*
X80746Y23988D01*
X80756Y23987D01*
X80766Y23986D01*
Y23927D01*
X80756Y23927D01*
X80746Y23925D01*
X80736Y23922D01*
X80726Y23919D01*
X80716Y23914D01*
X80706Y23908D01*
X80696Y23901D01*
X80686Y23893D01*
X80675Y23884D01*
X80665Y23874D01*
Y24039D01*
X80675Y24029D01*
D02*
G37*
G36*
X80960Y23884D02*
X80968Y23878D01*
X80977Y23873D01*
X80987Y23868D01*
X80997Y23865D01*
X81009Y23862D01*
X81021Y23859D01*
X81034Y23858D01*
X81047Y23857D01*
X81062Y23857D01*
X80945Y23740D01*
X80945Y23754D01*
X80942Y23781D01*
X80940Y23793D01*
X80937Y23804D01*
X80933Y23815D01*
X80929Y23824D01*
X80924Y23833D01*
X80918Y23841D01*
X80911Y23849D01*
X80953Y23890D01*
X80960Y23884D01*
D02*
G37*
G36*
X82918Y22534D02*
X82909Y22524D01*
X82902Y22514D01*
X82895Y22504D01*
X82890Y22494D01*
X82885Y22484D01*
X82881Y22474D01*
X82879Y22464D01*
X82877Y22454D01*
X82877Y22444D01*
X82812D01*
X82811Y22454D01*
X82810Y22464D01*
X82807Y22474D01*
X82804Y22484D01*
X82799Y22494D01*
X82794Y22504D01*
X82787Y22514D01*
X82780Y22524D01*
X82771Y22534D01*
X82762Y22544D01*
X82927D01*
X82918Y22534D01*
D02*
G37*
G36*
X75332Y21546D02*
X75373Y21510D01*
X75377Y21508D01*
X75380Y21506D01*
X75383Y21506D01*
X75266Y21389D01*
X75265Y21392D01*
X75264Y21395D01*
X75261Y21399D01*
X75258Y21404D01*
X75248Y21416D01*
X75234Y21431D01*
X75216Y21449D01*
X75322Y21555D01*
X75332Y21546D01*
D02*
G37*
G36*
X72544Y21471D02*
X72540Y21462D01*
X72538Y21453D01*
X72536Y21444D01*
X72537Y21435D01*
X72538Y21426D01*
X72542Y21418D01*
X72546Y21409D01*
X72552Y21401D01*
X72560Y21393D01*
X72482Y21379D01*
X72475Y21385D01*
X72451Y21405D01*
X72443Y21411D01*
X72415Y21430D01*
X72395Y21441D01*
X72550Y21481D01*
X72544Y21471D01*
D02*
G37*
G36*
X71194Y21285D02*
X71185Y21294D01*
X71176Y21301D01*
X71167Y21307D01*
X71158Y21313D01*
X71148Y21317D01*
X71138Y21321D01*
X71128Y21324D01*
X71118Y21326D01*
X71107Y21328D01*
X71096Y21328D01*
Y21408D01*
X71107Y21409D01*
X71118Y21410D01*
X71128Y21412D01*
X71138Y21415D01*
X71148Y21419D01*
X71158Y21423D01*
X71167Y21429D01*
X71176Y21435D01*
X71185Y21443D01*
X71194Y21451D01*
Y21285D01*
D02*
G37*
G36*
X72418Y21297D02*
X73230Y20485D01*
X73211Y20439D01*
X72377D01*
X72062Y20754D01*
X72079Y20807D01*
X72135Y20814D01*
X72217Y20848D01*
X72287Y20902D01*
X72341Y20972D01*
X72375Y21054D01*
X72386Y21142D01*
X72375Y21230D01*
X72367Y21249D01*
X72401Y21298D01*
X72418Y21297D01*
D02*
G37*
%LPC*%
G36*
X73868Y31008D02*
X73801Y30999D01*
X73738Y30973D01*
X73684Y30932D01*
X73677Y30921D01*
X73627D01*
X73619Y30932D01*
X73565Y30973D01*
X73502Y30999D01*
X73435Y31008D01*
X73368Y30999D01*
X73305Y30973D01*
X73251Y30932D01*
X73210Y30878D01*
X73184Y30815D01*
X73175Y30748D01*
X73184Y30681D01*
X73210Y30618D01*
X73251Y30564D01*
X73305Y30523D01*
X73368Y30497D01*
X73435Y30488D01*
X73502Y30497D01*
X73565Y30523D01*
X73619Y30564D01*
X73627Y30575D01*
X73677D01*
X73684Y30564D01*
X73738Y30523D01*
X73801Y30497D01*
X73868Y30488D01*
X73935Y30497D01*
X73998Y30523D01*
X74052Y30564D01*
X74093Y30618D01*
X74119Y30681D01*
X74128Y30748D01*
X74119Y30815D01*
X74093Y30878D01*
X74052Y30932D01*
X73998Y30973D01*
X73935Y30999D01*
X73868Y31008D01*
D02*
G37*
G36*
X80866Y31079D02*
X80781Y31062D01*
X80709Y31014D01*
X80661Y30941D01*
X80644Y30856D01*
X80661Y30771D01*
X80709Y30699D01*
X80781Y30651D01*
X80866Y30634D01*
X80951Y30651D01*
X81023Y30699D01*
X81072Y30771D01*
X81089Y30856D01*
X81072Y30941D01*
X81023Y31014D01*
X80951Y31062D01*
X80866Y31079D01*
D02*
G37*
G36*
X80010Y31069D02*
X79925Y31052D01*
X79853Y31004D01*
X79804Y30932D01*
X79787Y30846D01*
X79804Y30761D01*
X79853Y30689D01*
X79925Y30641D01*
X80010Y30624D01*
X80095Y30641D01*
X80167Y30689D01*
X80215Y30761D01*
X80232Y30846D01*
X80215Y30932D01*
X80167Y31004D01*
X80095Y31052D01*
X80010Y31069D01*
D02*
G37*
G36*
X72047Y31423D02*
X71934Y31408D01*
X71828Y31364D01*
X71737Y31294D01*
X71668Y31203D01*
X71624Y31098D01*
X71609Y30984D01*
X71624Y30871D01*
X71668Y30765D01*
X71737Y30674D01*
X71828Y30605D01*
X71934Y30561D01*
X72047Y30546D01*
X72161Y30561D01*
X72266Y30605D01*
X72357Y30674D01*
X72427Y30765D01*
X72471Y30871D01*
X72486Y30984D01*
X72471Y31098D01*
X72427Y31203D01*
X72357Y31294D01*
X72266Y31364D01*
X72161Y31408D01*
X72047Y31423D01*
D02*
G37*
G36*
X79154Y31079D02*
X79068Y31062D01*
X78996Y31014D01*
X78948Y30941D01*
X78931Y30856D01*
X78948Y30771D01*
X78996Y30699D01*
X79037Y30672D01*
X79035Y30613D01*
X78986Y30580D01*
X78938Y30508D01*
X78921Y30423D01*
X78938Y30338D01*
X78986Y30266D01*
X79059Y30218D01*
X79144Y30201D01*
X79229Y30218D01*
X79301Y30266D01*
X79349Y30338D01*
X79366Y30423D01*
X79349Y30508D01*
X79301Y30580D01*
X79260Y30608D01*
X79262Y30667D01*
X79311Y30699D01*
X79359Y30771D01*
X79376Y30856D01*
X79359Y30941D01*
X79311Y31014D01*
X79239Y31062D01*
X79154Y31079D01*
D02*
G37*
G36*
X72766Y29996D02*
X72681Y29979D01*
X72608Y29931D01*
X72560Y29859D01*
X72543Y29774D01*
X72560Y29689D01*
X72608Y29616D01*
Y29616D01*
X72560Y29544D01*
X72543Y29459D01*
X72560Y29374D01*
X72608Y29301D01*
X72681Y29253D01*
X72766Y29236D01*
X72851Y29253D01*
X72923Y29301D01*
X72971Y29374D01*
X72988Y29459D01*
X72971Y29544D01*
X72923Y29616D01*
Y29616D01*
X72971Y29689D01*
X72988Y29774D01*
X72971Y29859D01*
X72923Y29931D01*
X72851Y29979D01*
X72766Y29996D01*
D02*
G37*
G36*
X75423Y29012D02*
X75338Y28995D01*
X75266Y28947D01*
X75218Y28874D01*
X75201Y28789D01*
X75203Y28781D01*
X75141Y28768D01*
X75069Y28720D01*
X75060Y28707D01*
X75013Y28726D01*
X75016Y28740D01*
X74999Y28825D01*
X74951Y28897D01*
X74878Y28946D01*
X74793Y28963D01*
X74708Y28946D01*
X74636Y28897D01*
X74588Y28825D01*
X74571Y28740D01*
X74588Y28655D01*
X74636Y28583D01*
X74708Y28535D01*
X74793Y28518D01*
X74878Y28535D01*
X74951Y28583D01*
X74960Y28597D01*
X75007Y28577D01*
X75004Y28563D01*
X75021Y28478D01*
X75069Y28406D01*
X75141Y28358D01*
X75226Y28341D01*
X75311Y28358D01*
X75384Y28406D01*
X75432Y28478D01*
X75449Y28563D01*
X75447Y28572D01*
X75508Y28584D01*
X75580Y28632D01*
X75629Y28704D01*
X75646Y28789D01*
X75629Y28874D01*
X75580Y28947D01*
X75508Y28995D01*
X75423Y29012D01*
D02*
G37*
G36*
X70945Y29346D02*
X70860Y29329D01*
X70788Y29281D01*
X70739Y29209D01*
X70722Y29124D01*
X70739Y29039D01*
X70788Y28967D01*
Y28966D01*
X70739Y28894D01*
X70722Y28809D01*
X70739Y28724D01*
X70788Y28652D01*
X70860Y28604D01*
X70945Y28587D01*
X71030Y28604D01*
X71102Y28652D01*
X71150Y28724D01*
X71167Y28809D01*
X71150Y28894D01*
X71102Y28966D01*
Y28967D01*
X71150Y29039D01*
X71167Y29124D01*
X71150Y29209D01*
X71102Y29281D01*
X71030Y29329D01*
X70945Y29346D01*
D02*
G37*
G36*
X86831Y28548D02*
Y28547D01*
X86831Y28547D01*
X82500D01*
X82500Y28547D01*
Y28548D01*
X82417Y28537D01*
X82340Y28505D01*
X82274Y28454D01*
X82224Y28388D01*
X82192Y28311D01*
X82181Y28228D01*
X82181D01*
Y23898D01*
X82181D01*
X82192Y23815D01*
X82224Y23738D01*
X82274Y23672D01*
X82340Y23621D01*
X82417Y23589D01*
X82500Y23578D01*
Y23579D01*
X86831D01*
Y23578D01*
X86913Y23589D01*
X86990Y23621D01*
X87056Y23672D01*
X87107Y23738D01*
X87139Y23815D01*
X87150Y23898D01*
X87150D01*
X87150Y23898D01*
Y28228D01*
X87150Y28228D01*
X87150D01*
X87139Y28311D01*
X87107Y28388D01*
X87056Y28454D01*
X86990Y28505D01*
X86913Y28537D01*
X86831Y28548D01*
D02*
G37*
G36*
X72303Y28510D02*
X72218Y28493D01*
X72151Y28448D01*
X72083Y28493D01*
X71998Y28510D01*
X71913Y28493D01*
X71841Y28445D01*
X71793Y28372D01*
X71776Y28287D01*
X71793Y28202D01*
X71841Y28130D01*
X71913Y28082D01*
X71998Y28065D01*
X72083Y28082D01*
X72151Y28127D01*
X72218Y28082D01*
X72303Y28065D01*
X72388Y28082D01*
X72460Y28130D01*
X72509Y28202D01*
X72526Y28287D01*
X72509Y28372D01*
X72460Y28445D01*
X72388Y28493D01*
X72303Y28510D01*
D02*
G37*
G36*
X95797Y28468D02*
X95730Y28460D01*
X95667Y28434D01*
X95614Y28392D01*
X95572Y28339D01*
X95546Y28276D01*
X95538Y28209D01*
X95546Y28141D01*
X95572Y28079D01*
X95614Y28025D01*
X95667Y27984D01*
X95730Y27958D01*
X95797Y27949D01*
X95864Y27958D01*
X95927Y27984D01*
X95981Y28025D01*
X96022Y28079D01*
X96048Y28141D01*
X96057Y28209D01*
X96048Y28276D01*
X96022Y28339D01*
X95981Y28392D01*
X95927Y28434D01*
X95864Y28460D01*
X95797Y28468D01*
D02*
G37*
G36*
X66073Y28449D02*
X66006Y28440D01*
X65943Y28414D01*
X65889Y28373D01*
X65848Y28319D01*
X65822Y28256D01*
X65813Y28189D01*
X65822Y28122D01*
X65848Y28059D01*
X65889Y28005D01*
X65943Y27964D01*
X66006Y27938D01*
X66073Y27929D01*
X66140Y27938D01*
X66203Y27964D01*
X66256Y28005D01*
X66298Y28059D01*
X66324Y28122D01*
X66333Y28189D01*
X66324Y28256D01*
X66298Y28319D01*
X66256Y28373D01*
X66203Y28414D01*
X66140Y28440D01*
X66073Y28449D01*
D02*
G37*
G36*
X75650Y27634D02*
X75564Y27617D01*
X75492Y27569D01*
X75444Y27497D01*
X75427Y27411D01*
X75444Y27326D01*
X75492Y27254D01*
X75564Y27206D01*
X75650Y27189D01*
X75735Y27206D01*
X75807Y27254D01*
X75855Y27326D01*
X75872Y27411D01*
X75855Y27497D01*
X75807Y27569D01*
X75735Y27617D01*
X75650Y27634D01*
D02*
G37*
G36*
X74596Y27267D02*
X74511Y27250D01*
X74439Y27202D01*
X74391Y27130D01*
X74374Y27045D01*
X74391Y26960D01*
X74439Y26887D01*
X74511Y26839D01*
X74596Y26822D01*
X74682Y26839D01*
X74739Y26877D01*
X74807Y26832D01*
X74892Y26815D01*
X74977Y26832D01*
X75049Y26880D01*
X75097Y26952D01*
X75114Y27037D01*
X75097Y27122D01*
X75049Y27195D01*
X74977Y27243D01*
X74892Y27260D01*
X74807Y27243D01*
X74750Y27205D01*
X74682Y27250D01*
X74596Y27267D01*
D02*
G37*
G36*
X72726Y26344D02*
X72641Y26328D01*
X72569Y26279D01*
X72521Y26207D01*
X72504Y26122D01*
X72521Y26037D01*
X72569Y25965D01*
X72641Y25917D01*
X72726Y25900D01*
X72811Y25917D01*
X72819Y25922D01*
X72874Y25899D01*
X72885Y25845D01*
X72933Y25773D01*
X73005Y25725D01*
X73091Y25708D01*
X73176Y25725D01*
X73248Y25773D01*
X73296Y25845D01*
X73313Y25930D01*
X73296Y26015D01*
X73248Y26087D01*
X73176Y26136D01*
X73091Y26153D01*
X73005Y26136D01*
X72998Y26130D01*
X72942Y26154D01*
X72932Y26207D01*
X72884Y26279D01*
X72811Y26328D01*
X72726Y26344D01*
D02*
G37*
G36*
X69832Y26197D02*
X69747Y26180D01*
X69675Y26132D01*
X69627Y26060D01*
X69610Y25974D01*
X69627Y25889D01*
X69675Y25817D01*
X69719Y25788D01*
X69696Y25754D01*
X69679Y25669D01*
X69696Y25584D01*
X69744Y25512D01*
X69816Y25464D01*
X69902Y25447D01*
X69987Y25464D01*
X70059Y25512D01*
X70107Y25584D01*
X70124Y25669D01*
X70107Y25754D01*
X70059Y25827D01*
X70015Y25856D01*
X70038Y25889D01*
X70055Y25974D01*
X70038Y26060D01*
X69989Y26132D01*
X69917Y26180D01*
X69832Y26197D01*
D02*
G37*
G36*
X72018Y24927D02*
X71933Y24910D01*
X71860Y24862D01*
X71812Y24790D01*
X71795Y24705D01*
X71812Y24620D01*
X71860Y24547D01*
X71933Y24499D01*
X72018Y24482D01*
X72103Y24499D01*
X72175Y24547D01*
X72223Y24620D01*
X72240Y24705D01*
X72223Y24790D01*
X72175Y24862D01*
X72103Y24910D01*
X72018Y24927D01*
D02*
G37*
G36*
X69193Y24947D02*
X69108Y24930D01*
X69036Y24882D01*
X68987Y24810D01*
X68971Y24724D01*
X68987Y24639D01*
X69033Y24572D01*
X68987Y24504D01*
X68971Y24419D01*
X68987Y24334D01*
X69036Y24262D01*
X69108Y24214D01*
X69193Y24197D01*
X69278Y24214D01*
X69350Y24262D01*
X69398Y24334D01*
X69415Y24419D01*
X69398Y24504D01*
X69353Y24572D01*
X69398Y24639D01*
X69415Y24724D01*
X69398Y24810D01*
X69350Y24882D01*
X69278Y24930D01*
X69193Y24947D01*
D02*
G37*
G36*
X95797Y24197D02*
X95730Y24188D01*
X95667Y24162D01*
X95614Y24121D01*
X95572Y24067D01*
X95546Y24004D01*
X95538Y23937D01*
X95546Y23870D01*
X95572Y23807D01*
X95614Y23753D01*
X95667Y23712D01*
X95730Y23686D01*
X95797Y23677D01*
X95864Y23686D01*
X95927Y23712D01*
X95981Y23753D01*
X96022Y23807D01*
X96048Y23870D01*
X96057Y23937D01*
X96048Y24004D01*
X96022Y24067D01*
X95981Y24121D01*
X95927Y24162D01*
X95864Y24188D01*
X95797Y24197D01*
D02*
G37*
G36*
X66073D02*
X66006Y24188D01*
X65943Y24162D01*
X65889Y24121D01*
X65848Y24067D01*
X65822Y24004D01*
X65813Y23937D01*
X65822Y23870D01*
X65848Y23807D01*
X65889Y23753D01*
X65943Y23712D01*
X66006Y23686D01*
X66073Y23677D01*
X66140Y23686D01*
X66203Y23712D01*
X66256Y23753D01*
X66298Y23807D01*
X66324Y23870D01*
X66333Y23937D01*
X66324Y24004D01*
X66298Y24067D01*
X66256Y24121D01*
X66203Y24162D01*
X66140Y24188D01*
X66073Y24197D01*
D02*
G37*
G36*
X72165Y24337D02*
X72080Y24320D01*
X72008Y24271D01*
X71960Y24199D01*
X71943Y24114D01*
X71960Y24029D01*
X72002Y23967D01*
X71960Y23904D01*
X71943Y23819D01*
X71960Y23734D01*
X72008Y23662D01*
X72080Y23613D01*
X72165Y23597D01*
X72250Y23613D01*
X72323Y23662D01*
X72371Y23734D01*
X72388Y23819D01*
X72371Y23904D01*
X72329Y23967D01*
X72371Y24029D01*
X72388Y24114D01*
X72371Y24199D01*
X72323Y24271D01*
X72250Y24320D01*
X72165Y24337D01*
D02*
G37*
G36*
X69311Y23539D02*
X69226Y23522D01*
X69154Y23474D01*
X69106Y23402D01*
X69089Y23317D01*
X69106Y23232D01*
X69154Y23160D01*
X69226Y23111D01*
X69311Y23095D01*
X69396Y23111D01*
X69468Y23160D01*
X69516Y23232D01*
X69533Y23317D01*
X69516Y23402D01*
X69468Y23474D01*
X69396Y23522D01*
X69311Y23539D01*
D02*
G37*
G36*
X71230Y23795D02*
X71145Y23778D01*
X71073Y23730D01*
X71025Y23658D01*
X71008Y23573D01*
X71025Y23488D01*
X71067Y23425D01*
X71025Y23363D01*
X71008Y23278D01*
X71025Y23192D01*
X71073Y23120D01*
X71145Y23072D01*
X71230Y23055D01*
X71315Y23072D01*
X71388Y23120D01*
X71436Y23192D01*
X71453Y23278D01*
X71436Y23363D01*
X71394Y23425D01*
X71436Y23488D01*
X71453Y23573D01*
X71436Y23658D01*
X71388Y23730D01*
X71315Y23778D01*
X71230Y23795D01*
D02*
G37*
G36*
X79961Y22909D02*
X79876Y22892D01*
X79813Y22851D01*
X79750Y22892D01*
X79665Y22909D01*
X79580Y22892D01*
X79508Y22844D01*
X79460Y22772D01*
X79443Y22687D01*
X79460Y22602D01*
X79508Y22530D01*
X79580Y22482D01*
X79665Y22465D01*
X79750Y22482D01*
X79813Y22523D01*
X79876Y22482D01*
X79961Y22465D01*
X80046Y22482D01*
X80118Y22530D01*
X80166Y22602D01*
X80183Y22687D01*
X80166Y22772D01*
X80118Y22844D01*
X80046Y22892D01*
X79961Y22909D01*
D02*
G37*
G36*
X78054Y23143D02*
X77969Y23126D01*
X77897Y23078D01*
X77849Y23005D01*
X77832Y22920D01*
X77849Y22835D01*
X77897Y22763D01*
X77969Y22715D01*
X78054Y22698D01*
X78139Y22715D01*
X78212Y22763D01*
X78260Y22835D01*
X78277Y22920D01*
X78260Y23005D01*
X78212Y23078D01*
X78139Y23126D01*
X78054Y23143D01*
D02*
G37*
G36*
X75970Y23205D02*
X75885Y23188D01*
X75813Y23140D01*
X75765Y23067D01*
X75748Y22982D01*
X75765Y22897D01*
X75813Y22825D01*
X75844Y22804D01*
X75847Y22746D01*
X75798Y22674D01*
X75782Y22589D01*
X75798Y22503D01*
X75847Y22431D01*
X75919Y22383D01*
X76004Y22366D01*
X76089Y22383D01*
X76161Y22431D01*
X76209Y22503D01*
X76226Y22589D01*
X76209Y22674D01*
X76161Y22746D01*
X76130Y22767D01*
X76127Y22825D01*
X76176Y22897D01*
X76192Y22982D01*
X76176Y23067D01*
X76127Y23140D01*
X76055Y23188D01*
X75970Y23205D01*
D02*
G37*
G36*
X76742Y23411D02*
X76657Y23394D01*
X76585Y23346D01*
X76537Y23274D01*
X76520Y23189D01*
X76537Y23104D01*
X76570Y23054D01*
X76565Y23051D01*
X76517Y22979D01*
X76500Y22894D01*
X76517Y22809D01*
X76565Y22736D01*
X76637Y22688D01*
X76656Y22685D01*
X76662Y22657D01*
X76661Y22633D01*
X76595Y22588D01*
X76547Y22516D01*
X76530Y22431D01*
X76547Y22346D01*
X76595Y22274D01*
X76667Y22226D01*
X76752Y22209D01*
X76837Y22226D01*
X76909Y22274D01*
X76957Y22346D01*
X76974Y22431D01*
X76957Y22516D01*
X76909Y22588D01*
X76837Y22637D01*
X76819Y22640D01*
X76812Y22668D01*
X76814Y22692D01*
X76880Y22736D01*
X76928Y22809D01*
X76945Y22894D01*
X76928Y22979D01*
X76895Y23029D01*
X76899Y23032D01*
X76948Y23104D01*
X76965Y23189D01*
X76948Y23274D01*
X76899Y23346D01*
X76827Y23394D01*
X76742Y23411D01*
D02*
G37*
G36*
X74685Y22624D02*
X74600Y22607D01*
X74528Y22559D01*
X74480Y22487D01*
X74463Y22402D01*
X74480Y22316D01*
X74528Y22244D01*
X74600Y22196D01*
X74685Y22179D01*
X74770Y22196D01*
X74837Y22241D01*
X74905Y22196D01*
X74990Y22179D01*
X75075Y22196D01*
X75147Y22244D01*
X75195Y22316D01*
X75212Y22401D01*
X75195Y22487D01*
X75147Y22559D01*
X75075Y22607D01*
X74990Y22624D01*
X74905Y22607D01*
X74838Y22562D01*
X74770Y22607D01*
X74685Y22624D01*
D02*
G37*
G36*
X82343Y22092D02*
X82257Y22076D01*
X82195Y22034D01*
X82132Y22076D01*
X82047Y22092D01*
X81962Y22076D01*
X81890Y22027D01*
X81842Y21955D01*
X81825Y21870D01*
X81842Y21785D01*
X81890Y21713D01*
X81962Y21665D01*
X82047Y21648D01*
X82132Y21665D01*
X82195Y21706D01*
X82257Y21665D01*
X82343Y21648D01*
X82428Y21665D01*
X82500Y21713D01*
X82548Y21785D01*
X82565Y21870D01*
X82548Y21955D01*
X82500Y22027D01*
X82428Y22076D01*
X82343Y22092D01*
D02*
G37*
G36*
X75384Y22319D02*
X75299Y22302D01*
X75227Y22254D01*
X75178Y22182D01*
X75161Y22096D01*
X75178Y22011D01*
X75227Y21939D01*
X75299Y21891D01*
X75384Y21874D01*
X75469Y21891D01*
X75541Y21939D01*
X75589Y22011D01*
X75606Y22096D01*
X75589Y22182D01*
X75541Y22254D01*
X75469Y22302D01*
X75384Y22319D01*
D02*
G37*
G36*
X78888Y22215D02*
X78803Y22198D01*
X78731Y22150D01*
X78682Y22077D01*
X78665Y21992D01*
X78682Y21907D01*
X78731Y21835D01*
X78803Y21787D01*
X78888Y21770D01*
X78973Y21787D01*
X79032Y21827D01*
X79098Y21783D01*
X79183Y21766D01*
X79268Y21783D01*
X79340Y21831D01*
X79389Y21903D01*
X79405Y21988D01*
X79389Y22073D01*
X79340Y22145D01*
X79268Y22194D01*
X79183Y22211D01*
X79098Y22194D01*
X79039Y22154D01*
X78973Y22198D01*
X78888Y22215D01*
D02*
G37*
G36*
X76299Y21659D02*
X76214Y21642D01*
X76142Y21594D01*
X76116Y21555D01*
X76063Y21545D01*
X75991Y21593D01*
X75906Y21610D01*
X75820Y21593D01*
X75748Y21545D01*
X75700Y21473D01*
X75683Y21388D01*
X75700Y21303D01*
X75748Y21231D01*
X75820Y21182D01*
X75906Y21165D01*
X75991Y21182D01*
X76063Y21231D01*
X76089Y21269D01*
X76142Y21280D01*
X76214Y21232D01*
X76299Y21215D01*
X76384Y21232D01*
X76456Y21280D01*
X76505Y21352D01*
X76522Y21437D01*
X76505Y21522D01*
X76456Y21594D01*
X76384Y21642D01*
X76299Y21659D01*
D02*
G37*
G36*
X85315Y20980D02*
X85230Y20963D01*
X85158Y20915D01*
X85110Y20843D01*
X85093Y20758D01*
X85110Y20673D01*
X85158Y20601D01*
X85230Y20552D01*
X85315Y20535D01*
X85400Y20552D01*
X85472Y20601D01*
X85520Y20673D01*
X85537Y20758D01*
X85520Y20843D01*
X85472Y20915D01*
X85400Y20963D01*
X85315Y20980D01*
D02*
G37*
G36*
X87677Y20852D02*
X87592Y20835D01*
X87520Y20787D01*
X87472Y20715D01*
X87455Y20630D01*
X87472Y20545D01*
X87520Y20473D01*
X87592Y20424D01*
X87677Y20408D01*
X87762Y20424D01*
X87834Y20473D01*
X87883Y20545D01*
X87900Y20630D01*
X87883Y20715D01*
X87834Y20787D01*
X87762Y20835D01*
X87677Y20852D01*
D02*
G37*
G36*
X85915Y20744D02*
X85830Y20727D01*
X85758Y20679D01*
X85710Y20607D01*
X85693Y20522D01*
X85710Y20437D01*
X85758Y20364D01*
X85830Y20316D01*
X85915Y20299D01*
X85945Y20305D01*
X85993Y20264D01*
X86005Y20200D01*
X86053Y20128D01*
X86126Y20080D01*
X86211Y20063D01*
X86296Y20080D01*
X86368Y20128D01*
X86416Y20200D01*
X86433Y20285D01*
X86416Y20371D01*
X86368Y20443D01*
X86296Y20491D01*
X86211Y20508D01*
X86181Y20502D01*
X86133Y20543D01*
X86121Y20607D01*
X86073Y20679D01*
X86000Y20727D01*
X85915Y20744D01*
D02*
G37*
%LPD*%
G54D10*
X75594Y25305D02*
X75600D01*
X74045Y25991D02*
Y27067D01*
Y25991D02*
X74344Y25692D01*
X75207D01*
X75594Y25305D01*
G54D11*
X76348Y25896D02*
Y26329D01*
X76329Y27628D02*
X76723Y27234D01*
X76348Y26329D02*
X76723Y26703D01*
Y27234D01*
X76516Y29931D02*
X78051Y28396D01*
Y25797D02*
Y28396D01*
G54D13*
X67645Y22934D02*
X67937D01*
X68537Y22334D01*
X69645D01*
X70611Y21368D01*
X67175Y23404D02*
X67645Y22934D01*
X67175Y23404D02*
Y24191D01*
X66948Y25523D02*
X67175Y25296D01*
X66948Y25523D02*
Y26594D01*
X67175Y24372D02*
Y25296D01*
X68278Y27923D02*
X68888D01*
X66948Y26594D02*
X68278Y27923D01*
X67175Y24192D02*
X67175Y24191D01*
X67175Y24192D02*
Y24371D01*
X67175Y24372D01*
X70611Y21368D02*
X71278D01*
X69724Y30600D02*
X69892Y30768D01*
X69724Y28759D02*
Y30600D01*
X68888Y27923D02*
X69724Y28759D01*
G54D15*
X80845Y23957D02*
X81063Y23739D01*
X80581Y23957D02*
X80845D01*
G54D29*
X80276Y22667D02*
D03*
X79350D02*
D03*
X72352Y26969D02*
D03*
X72451Y21545D02*
D03*
X72136Y21831D02*
D03*
X84577Y22343D02*
D03*
X85138Y21919D02*
D03*
X69921Y26260D02*
D03*
Y25000D02*
D03*
X69459Y25394D02*
D03*
X80846Y30433D02*
D03*
X82844Y22628D02*
D03*
X72854Y24675D02*
D03*
X73091Y25285D02*
D03*
X74232Y25265D02*
D03*
X75600Y25305D02*
D03*
X75935Y25325D02*
D03*
X76348Y25896D02*
D03*
X75531Y26004D02*
D03*
X82067Y20886D02*
D03*
X82195Y22136D02*
D03*
X81053Y20502D02*
D03*
X83071D02*
D03*
X88533Y21093D02*
D03*
X74764Y20463D02*
D03*
X75984Y20364D02*
D03*
X77156Y20719D02*
D03*
X71014Y27343D02*
D03*
X70935Y26348D02*
D03*
X71683Y23829D02*
D03*
X68937Y24577D02*
D03*
X81339Y21742D02*
D03*
X94341Y23041D02*
D03*
X67392Y24281D02*
D03*
X94331Y29124D02*
D03*
Y28278D02*
D03*
X66565Y27539D02*
D03*
X65551Y27549D02*
D03*
X66565Y24587D02*
D03*
X94321Y23839D02*
D03*
X67392Y27844D02*
D03*
X71467Y22047D02*
D03*
X78169Y31457D02*
D03*
X81467Y32165D02*
D03*
X82500Y32264D02*
D03*
X76457Y32205D02*
D03*
X80610Y25984D02*
D03*
X76329Y27628D02*
D03*
X76043Y26870D02*
D03*
X76516D02*
D03*
X75571Y26880D02*
D03*
X70945Y28494D02*
D03*
X70945Y29449D02*
D03*
X72766Y29154D02*
D03*
X73169Y30236D02*
D03*
X69941Y29449D02*
D03*
X67805Y29409D02*
D03*
X68878D02*
D03*
X67795Y28228D02*
D03*
X68868D02*
D03*
X68878Y23898D02*
D03*
Y22717D02*
D03*
X67805Y23898D02*
D03*
X65482Y23307D02*
D03*
X66663D02*
D03*
X65915Y25472D02*
D03*
Y26654D02*
D03*
X65482Y28819D02*
D03*
X66663D02*
D03*
X95217D02*
D03*
X96398D02*
D03*
X96388Y23307D02*
D03*
X95207D02*
D03*
X87677Y22470D02*
D03*
X75522Y29360D02*
D03*
X77638Y22510D02*
D03*
X82018Y22667D02*
D03*
X81554Y25136D02*
D03*
X66545Y25620D02*
D03*
Y26506D02*
D03*
X66516Y23937D02*
D03*
X65630D02*
D03*
X66516Y28189D02*
D03*
X65630D02*
D03*
X96240Y28209D02*
D03*
X95354D02*
D03*
X96240Y23937D02*
D03*
X95354D02*
D03*
X71319Y22668D02*
D03*
X73150Y26870D02*
D03*
X72766Y30089D02*
D03*
X65551Y24596D02*
D03*
X72854Y23406D02*
D03*
X69892Y30768D02*
D03*
X77638Y23051D02*
D03*
X67805Y22717D02*
D03*
X79429Y21821D02*
D03*
X74419Y26043D02*
D03*
X72431Y28593D02*
D03*
X71860Y28002D02*
D03*
X75148Y26880D02*
D03*
X69880Y24094D02*
D03*
X69882Y23780D02*
D03*
X79980Y20295D02*
D03*
X77923D02*
D03*
X84094D02*
D03*
X79980Y20738D02*
D03*
X79026Y20295D02*
D03*
Y20738D02*
D03*
X74045Y27067D02*
D03*
X74341Y26880D02*
D03*
X71260Y20148D02*
D03*
X70089Y20955D02*
D03*
X69882Y22835D02*
D03*
X69941Y28494D02*
D03*
X71250Y31978D02*
D03*
X70079Y31178D02*
D03*
X72274Y19961D02*
D03*
X78642Y21821D02*
D03*
X72648Y20699D02*
D03*
X72776Y22402D02*
D03*
X77638Y21762D02*
D03*
X76083Y23297D02*
D03*
X75679Y22096D02*
D03*
X75305Y20464D02*
D03*
X78051Y25797D02*
D03*
X77648Y25778D02*
D03*
X77648Y25148D02*
D03*
X75384Y21388D02*
D03*
X71278Y21368D02*
D03*
X80226Y24144D02*
D03*
X81063Y23739D02*
D03*
X87008Y22943D02*
D03*
X87018Y20187D02*
D03*
X76417Y20374D02*
D03*
X76850Y20541D02*
D03*
X75020Y22096D02*
D03*
X72854Y24380D02*
D03*
X76063Y24242D02*
D03*
X74242Y22096D02*
D03*
X72972Y22086D02*
D03*
X80226Y24577D02*
D03*
X80581Y23957D02*
D03*
X79450Y24359D02*
D03*
X79213Y24124D02*
D03*
X79400Y23937D02*
D03*
X79244Y24565D02*
D03*
X85915Y22569D02*
D03*
X85305Y20315D02*
D03*
X88819Y20177D02*
D03*
X85305Y22343D02*
D03*
X86093Y21043D02*
D03*
Y22057D02*
D03*
X87411Y21939D02*
D03*
Y21545D02*
D03*
Y21152D02*
D03*
X87018D02*
D03*
Y21939D02*
D03*
Y21545D02*
D03*
X72598Y25659D02*
D03*
X77638Y23986D02*
D03*
X77648Y24882D02*
D03*
X88533Y21959D02*
D03*
X89016Y32136D02*
D03*
X89026Y29114D02*
D03*
X88819Y23031D02*
D03*
X89016Y26063D02*
D03*
X67579Y23307D02*
D03*
X67589Y28819D02*
D03*
X76516Y29931D02*
D03*
X73789Y20905D02*
D03*
X71260Y24232D02*
D03*
X71093Y25335D02*
D03*
X71260Y24892D02*
D03*
X71939Y25846D02*
D03*
X70935Y22904D02*
D03*
X72205Y23150D02*
D03*
X70935Y23770D02*
D03*
G54D47*
X72451Y21455D02*
X73473Y20433D01*
X72451Y21455D02*
Y21545D01*
X82844Y21378D02*
Y22628D01*
X82562Y21095D02*
X82844Y21378D01*
X78026Y21095D02*
X82562D01*
X75879Y20584D02*
X76512D01*
X76770Y20325D01*
X77255D02*
X78026Y21095D01*
X76770Y20325D02*
X77255D01*
X73473Y20433D02*
X74497D01*
X74677Y20253D01*
X75548D01*
X75879Y20584D01*
G54D49*
X74469Y25994D02*
X75531D01*
X71654Y21348D02*
X72136Y21831D01*
X71654Y20876D02*
Y21348D01*
X74419Y26043D02*
X74469Y25994D01*
X76229Y25502D02*
X81188D01*
X76042Y25689D02*
X76229Y25502D01*
X75846Y25689D02*
X76042D01*
X75531Y26004D02*
X75846Y25689D01*
X75531Y25994D02*
Y26004D01*
X75984Y20364D02*
X76407D01*
X75433Y19813D02*
X75984Y20364D01*
X76407D02*
X76417Y20374D01*
X71654Y20876D02*
X72293Y20236D01*
X74370Y19813D02*
X75433D01*
X72293Y20236D02*
X73947D01*
X74370Y19813D01*
X81188Y25502D02*
X81554Y25136D01*
G54D51*
X75817Y24970D02*
X76161D01*
X75600Y25187D02*
X75817Y24970D01*
X75600Y25187D02*
Y25305D01*
X76161Y24970D02*
X76339Y24793D01*
Y24518D02*
Y24793D01*
X76063Y24242D02*
X76339Y24518D01*
X79244Y24565D02*
X79450Y24359D01*
X76339Y24793D02*
X77111D01*
X77347Y24557D01*
X79235D01*
X79244Y24565D01*
G54D52*
X93720Y26063D02*
D03*
X68130D02*
D03*
G54D53*
X74203Y24370D02*
D03*
X74675Y24400D02*
D03*
X74675Y22982D02*
D03*
X74203Y24134D02*
D03*
X74242Y23691D02*
D03*
X74537D02*
D03*
X74823D02*
D03*
X75148Y24400D02*
D03*
X74675Y24045D02*
D03*
X75148D02*
D03*
X74675Y23337D02*
D03*
X75138Y23691D02*
D03*
X75148Y23346D02*
D03*
X75148Y22982D02*
D03*
X74203Y23189D02*
D03*
Y23425D02*
D03*
G54D60*
X72961Y24630D02*
X73267D01*
X72959Y24632D02*
X72961Y24630D01*
X72897Y24632D02*
X72959D01*
X72854Y24675D02*
X72897Y24632D01*
X73267Y24630D02*
X73276Y24640D01*
Y23847D02*
Y24640D01*
X73087Y23658D02*
X73276Y23847D01*
X72750Y23658D02*
X73087D01*
X73276Y24640D02*
X74558D01*
X72470Y22231D02*
Y23378D01*
Y22231D02*
X72868Y21834D01*
X72470Y23378D02*
X72750Y23658D01*
X74558Y24640D02*
X74571Y24652D01*
X75255D01*
X75946Y23960D01*
X75201Y21571D02*
X75384Y21388D01*
X74561Y21571D02*
X75201D01*
X74288Y21844D02*
X74561Y21571D01*
X73106Y21844D02*
X74288D01*
X73096Y21834D02*
X73106Y21844D01*
X72868Y21834D02*
X73096D01*
X79213Y24124D02*
X79213D01*
X79400Y23937D01*
X75946Y23960D02*
X77255D01*
X77533Y24238D01*
X79098D01*
X79213Y24124D01*
G54D61*
X84577Y22343D02*
X85305D01*
X83701Y23219D02*
X84577Y22343D01*
X82185Y23219D02*
X83701D01*
X85305Y22343D02*
X85689D01*
X80827Y24577D02*
X82185Y23219D01*
X80226Y24577D02*
X80827D01*
X87677Y22470D02*
X87776Y22372D01*
X87579Y22569D02*
X87677Y22470D01*
X80226Y24144D02*
Y24577D01*
X85915Y22569D02*
X87579D01*
X85689Y22343D02*
X85915Y22569D01*
M02*
