G04*
G04 #@! TF.GenerationSoftware,Altium Limited,Altium Designer,18.1.6 (161)*
G04*
G04 Layer_Color=8421504*
%FSLAX24Y24*%
%MOIN*%
G70*
G01*
G75*
%ADD17R,0.0197X0.0197*%
%ADD18R,0.0866X0.0433*%
%ADD19R,0.0413X0.0394*%
%ADD21R,0.0315X0.0315*%
%ADD23R,0.1496X0.0591*%
%ADD26R,0.0591X0.1496*%
%ADD27R,0.0512X0.1496*%
%ADD62R,0.0197X0.0197*%
G04:AMPARAMS|DCode=63|XSize=9.1mil|YSize=29.5mil|CornerRadius=2.3mil|HoleSize=0mil|Usage=FLASHONLY|Rotation=0.000|XOffset=0mil|YOffset=0mil|HoleType=Round|Shape=RoundedRectangle|*
%AMROUNDEDRECTD63*
21,1,0.0091,0.0250,0,0,0.0*
21,1,0.0045,0.0295,0,0,0.0*
1,1,0.0045,0.0023,-0.0125*
1,1,0.0045,-0.0023,-0.0125*
1,1,0.0045,-0.0023,0.0125*
1,1,0.0045,0.0023,0.0125*
%
%ADD63ROUNDEDRECTD63*%
%ADD64R,0.0433X0.0866*%
%ADD65R,0.0394X0.0413*%
%ADD66R,0.0118X0.0650*%
%ADD67R,0.0630X0.0197*%
%ADD68R,0.0472X0.0512*%
%ADD69R,0.0906X0.0748*%
%ADD70R,0.0748X0.0748*%
%ADD71R,0.0709X0.0748*%
%ADD72R,0.0157X0.0531*%
%ADD73R,0.0689X0.0512*%
%ADD74R,0.0394X0.0433*%
%ADD75R,0.0394X0.0256*%
%ADD76R,0.0472X0.0925*%
%ADD77R,0.0472X0.0551*%
%ADD78R,0.0472X0.0315*%
%ADD79R,0.0197X0.0630*%
G04:AMPARAMS|DCode=80|XSize=9.1mil|YSize=29.5mil|CornerRadius=2.3mil|HoleSize=0mil|Usage=FLASHONLY|Rotation=90.000|XOffset=0mil|YOffset=0mil|HoleType=Round|Shape=RoundedRectangle|*
%AMROUNDEDRECTD80*
21,1,0.0091,0.0250,0,0,90.0*
21,1,0.0045,0.0295,0,0,90.0*
1,1,0.0045,0.0125,0.0023*
1,1,0.0045,0.0125,-0.0023*
1,1,0.0045,-0.0125,-0.0023*
1,1,0.0045,-0.0125,0.0023*
%
%ADD80ROUNDEDRECTD80*%
G04:AMPARAMS|DCode=83|XSize=9.8mil|YSize=19.7mil|CornerRadius=2.5mil|HoleSize=0mil|Usage=FLASHONLY|Rotation=0.000|XOffset=0mil|YOffset=0mil|HoleType=Round|Shape=RoundedRectangle|*
%AMROUNDEDRECTD83*
21,1,0.0098,0.0148,0,0,0.0*
21,1,0.0049,0.0197,0,0,0.0*
1,1,0.0049,0.0025,-0.0074*
1,1,0.0049,-0.0025,-0.0074*
1,1,0.0049,-0.0025,0.0074*
1,1,0.0049,0.0025,0.0074*
%
%ADD83ROUNDEDRECTD83*%
G04:AMPARAMS|DCode=84|XSize=9.8mil|YSize=19.7mil|CornerRadius=2.5mil|HoleSize=0mil|Usage=FLASHONLY|Rotation=270.000|XOffset=0mil|YOffset=0mil|HoleType=Round|Shape=RoundedRectangle|*
%AMROUNDEDRECTD84*
21,1,0.0098,0.0148,0,0,270.0*
21,1,0.0049,0.0197,0,0,270.0*
1,1,0.0049,-0.0074,-0.0025*
1,1,0.0049,-0.0074,0.0025*
1,1,0.0049,0.0074,0.0025*
1,1,0.0049,0.0074,-0.0025*
%
%ADD84ROUNDEDRECTD84*%
%ADD85R,0.0433X0.0252*%
%ADD123R,0.0315X0.0472*%
%ADD124R,0.0197X0.0472*%
%ADD125R,0.0197X0.0394*%
%ADD126R,0.0197X0.0394*%
%ADD127R,0.0315X0.0394*%
%ADD128R,0.0315X0.0354*%
%ADD129R,0.0315X0.0354*%
%ADD130R,0.0315X0.0354*%
%ADD131R,0.0226X0.0453*%
%ADD132R,0.0591X0.0236*%
%ADD133R,0.0591X0.0236*%
%ADD134R,0.0236X0.0453*%
G54D17*
X71880Y24390D02*
D03*
X71486D02*
D03*
X81349Y25738D02*
D03*
X80955D02*
D03*
X71909Y22677D02*
D03*
X71516D02*
D03*
X77037Y24104D02*
D03*
X77431D02*
D03*
X77037Y23130D02*
D03*
X77431D02*
D03*
X74400Y20837D02*
D03*
X74006D02*
D03*
X88140Y21722D02*
D03*
X88533D02*
D03*
X86624Y22697D02*
D03*
X87018D02*
D03*
X85915Y20305D02*
D03*
X85522D02*
D03*
X73780Y30364D02*
D03*
X73386D02*
D03*
X86624Y20404D02*
D03*
X87018D02*
D03*
X71427Y24705D02*
D03*
X71821D02*
D03*
X71555Y21831D02*
D03*
X71949D02*
D03*
X88140Y21358D02*
D03*
X88533D02*
D03*
X71752Y22274D02*
D03*
X71358D02*
D03*
X77037Y24843D02*
D03*
X77431D02*
D03*
X77037Y25563D02*
D03*
X77431D02*
D03*
X77431Y22087D02*
D03*
X77037D02*
D03*
X79675Y24360D02*
D03*
X80069D02*
D03*
X79670Y24785D02*
D03*
X80064D02*
D03*
X75266Y20089D02*
D03*
X74872D02*
D03*
X88041Y20404D02*
D03*
X87648D02*
D03*
X88140Y20846D02*
D03*
X88533D02*
D03*
X87657Y22697D02*
D03*
X88051D02*
D03*
X88533Y22215D02*
D03*
X88140D02*
D03*
X71742Y25335D02*
D03*
X71348D02*
D03*
X77037Y24429D02*
D03*
X77431D02*
D03*
X77037Y22766D02*
D03*
X77431D02*
D03*
X77037Y25878D02*
D03*
X77431D02*
D03*
X71516Y25020D02*
D03*
X71909D02*
D03*
X77037Y22431D02*
D03*
X77431D02*
D03*
X73689Y29775D02*
D03*
Y29460D02*
D03*
X81949Y22835D02*
D03*
X82343D02*
D03*
X83051D02*
D03*
X83445D02*
D03*
X77037Y25157D02*
D03*
X77431D02*
D03*
X71880Y24075D02*
D03*
X71486D02*
D03*
X77037Y21417D02*
D03*
X77431D02*
D03*
X77037Y21762D02*
D03*
X77431D02*
D03*
X71467Y29134D02*
D03*
Y28819D02*
D03*
X73296Y29775D02*
D03*
Y29460D02*
D03*
X71880Y23573D02*
D03*
Y23258D02*
D03*
X71860Y29134D02*
D03*
Y28819D02*
D03*
X80069Y23937D02*
D03*
X79675D02*
D03*
X71486Y23573D02*
D03*
Y23258D02*
D03*
G54D18*
X65906Y25472D02*
D03*
Y26654D02*
D03*
G54D19*
X66535Y26063D02*
D03*
G54D21*
X73740Y31289D02*
D03*
X74331D02*
D03*
X82854Y22185D02*
D03*
X83445D02*
D03*
G54D23*
X66063Y24980D02*
D03*
Y27146D02*
D03*
G54D26*
X67146Y28681D02*
D03*
Y23445D02*
D03*
X96870Y28681D02*
D03*
X94705D02*
D03*
X96870Y23445D02*
D03*
X94705D02*
D03*
G54D27*
X65020Y28681D02*
D03*
Y23445D02*
D03*
G54D62*
X79656Y22461D02*
D03*
X79970D02*
D03*
X73051Y30492D02*
D03*
Y30886D02*
D03*
X74400Y26270D02*
D03*
Y26663D02*
D03*
X76299Y21112D02*
D03*
Y20719D02*
D03*
X75413Y26270D02*
D03*
Y26663D02*
D03*
X72874Y21102D02*
D03*
Y20709D02*
D03*
X73435Y26260D02*
D03*
Y26654D02*
D03*
X75344Y21112D02*
D03*
Y20719D02*
D03*
X76614Y21112D02*
D03*
Y20719D02*
D03*
X75728Y26270D02*
D03*
Y26663D02*
D03*
X73120Y26260D02*
D03*
Y26654D02*
D03*
X84911Y22334D02*
D03*
Y21941D02*
D03*
X76358Y26663D02*
D03*
Y26270D02*
D03*
X75098Y26663D02*
D03*
Y26270D02*
D03*
X74035Y26663D02*
D03*
Y26270D02*
D03*
X72352Y20758D02*
D03*
Y20364D02*
D03*
X86309Y20650D02*
D03*
Y21043D02*
D03*
X79970Y22067D02*
D03*
X79656D02*
D03*
X87333Y20404D02*
D03*
Y20010D02*
D03*
Y23091D02*
D03*
Y22697D02*
D03*
X73217Y20600D02*
D03*
Y20207D02*
D03*
X76939Y21112D02*
D03*
Y20719D02*
D03*
X75030Y21112D02*
D03*
Y20719D02*
D03*
X75974Y21112D02*
D03*
Y20719D02*
D03*
X75659D02*
D03*
Y21112D02*
D03*
X76043Y26270D02*
D03*
Y26663D02*
D03*
X74715Y21112D02*
D03*
Y20719D02*
D03*
X86309Y22451D02*
D03*
Y22057D02*
D03*
X72971Y29067D02*
D03*
X71152Y29528D02*
D03*
Y28425D02*
D03*
X72352Y26339D02*
D03*
Y26732D02*
D03*
X76083Y27628D02*
D03*
Y27234D02*
D03*
X72971Y30169D02*
D03*
X74321Y27126D02*
D03*
Y27520D02*
D03*
X71978Y26339D02*
D03*
Y26732D02*
D03*
X72726Y26339D02*
D03*
Y26732D02*
D03*
X75344Y27421D02*
D03*
Y27028D02*
D03*
X71152Y29134D02*
D03*
Y28819D02*
D03*
X72971Y29775D02*
D03*
Y29460D02*
D03*
G54D63*
X74518Y21772D02*
D03*
X74675D02*
D03*
X73888D02*
D03*
X74045D02*
D03*
X72943D02*
D03*
X73100D02*
D03*
X73258D02*
D03*
X72785D02*
D03*
X75935Y25610D02*
D03*
X76093D02*
D03*
X73415Y21772D02*
D03*
X73573D02*
D03*
X73730D02*
D03*
X74203D02*
D03*
X74360D02*
D03*
X74833D02*
D03*
X74990D02*
D03*
X75148D02*
D03*
X75305D02*
D03*
X75463D02*
D03*
X75620D02*
D03*
X75778D02*
D03*
X75935D02*
D03*
X76093D02*
D03*
X75778Y25610D02*
D03*
X75620D02*
D03*
X75463D02*
D03*
X75305D02*
D03*
X75148D02*
D03*
X74675D02*
D03*
X74518D02*
D03*
X74360D02*
D03*
X74203D02*
D03*
X73730D02*
D03*
X73573D02*
D03*
X73415D02*
D03*
X73258D02*
D03*
X73100D02*
D03*
X72943D02*
D03*
X72785D02*
D03*
X74045D02*
D03*
X73888D02*
D03*
X74990D02*
D03*
X74833D02*
D03*
G54D64*
X96378Y23307D02*
D03*
X95197D02*
D03*
Y28819D02*
D03*
X96378D02*
D03*
X66654Y23307D02*
D03*
X65472D02*
D03*
Y28819D02*
D03*
X66654D02*
D03*
G54D65*
X95787Y23937D02*
D03*
Y28189D02*
D03*
X66063Y23937D02*
D03*
Y28189D02*
D03*
G54D66*
X80579Y25136D02*
D03*
X80835D02*
D03*
X81347D02*
D03*
X80579Y22951D02*
D03*
X80835D02*
D03*
X81091D02*
D03*
X81347D02*
D03*
X81091Y25136D02*
D03*
G54D67*
X85748Y22333D02*
D03*
Y21742D02*
D03*
X85748Y21339D02*
D03*
Y20748D02*
D03*
X79626Y25738D02*
D03*
Y25148D02*
D03*
G54D68*
X78740Y24085D02*
D03*
Y24951D02*
D03*
X78071Y24085D02*
D03*
Y24951D02*
D03*
G54D69*
X78484Y20404D02*
D03*
G54D70*
X82490D02*
D03*
X81644D02*
D03*
X80472D02*
D03*
X79488D02*
D03*
G54D71*
X83642D02*
D03*
G54D72*
X81555Y21447D02*
D03*
X81811D02*
D03*
X82579D02*
D03*
X79429D02*
D03*
X79173D02*
D03*
X78917D02*
D03*
X79941D02*
D03*
X79685D02*
D03*
X82323D02*
D03*
X82067D02*
D03*
G54D73*
X80598Y26358D02*
D03*
G54D74*
X82185Y32264D02*
D03*
G54D75*
X79862Y26230D02*
D03*
G54D76*
X76949Y26742D02*
D03*
G54D77*
X76791Y32205D02*
D03*
G54D78*
X79654Y30866D02*
D03*
X78791Y30433D02*
D03*
X80516D02*
D03*
X79654D02*
D03*
X80516Y30866D02*
D03*
X78791D02*
D03*
G54D79*
X75610Y20098D02*
D03*
X76201D02*
D03*
G54D80*
X76358Y22352D02*
D03*
Y22195D02*
D03*
Y22037D02*
D03*
X72520Y25187D02*
D03*
X76358Y22510D02*
D03*
Y22667D02*
D03*
Y22825D02*
D03*
Y22982D02*
D03*
Y23140D02*
D03*
Y23297D02*
D03*
Y23455D02*
D03*
Y23612D02*
D03*
Y23770D02*
D03*
Y23927D02*
D03*
Y24085D02*
D03*
Y24242D02*
D03*
Y24400D02*
D03*
Y24557D02*
D03*
Y24715D02*
D03*
Y24872D02*
D03*
Y25030D02*
D03*
Y25187D02*
D03*
Y25344D02*
D03*
X72520Y25344D02*
D03*
Y25030D02*
D03*
Y24872D02*
D03*
Y24715D02*
D03*
Y24557D02*
D03*
Y24400D02*
D03*
Y24242D02*
D03*
Y24085D02*
D03*
Y23927D02*
D03*
Y23770D02*
D03*
Y23612D02*
D03*
Y23140D02*
D03*
Y22825D02*
D03*
Y22667D02*
D03*
Y22510D02*
D03*
Y22352D02*
D03*
Y22195D02*
D03*
Y22037D02*
D03*
Y22982D02*
D03*
Y23455D02*
D03*
Y23297D02*
D03*
G54D83*
X86919Y20778D02*
D03*
X87116D02*
D03*
X87313D02*
D03*
X87510D02*
D03*
Y22313D02*
D03*
X87313D02*
D03*
X87116D02*
D03*
X86919D02*
D03*
G54D84*
X87785Y21053D02*
D03*
Y21250D02*
D03*
Y21447D02*
D03*
Y21644D02*
D03*
Y21841D02*
D03*
Y22037D02*
D03*
X86644Y22037D02*
D03*
Y21841D02*
D03*
Y21644D02*
D03*
Y21447D02*
D03*
Y21250D02*
D03*
Y21053D02*
D03*
G54D85*
X74252Y30362D02*
D03*
Y29862D02*
D03*
X75157Y29362D02*
D03*
X74252D02*
D03*
X75157Y29862D02*
D03*
Y30362D02*
D03*
G54D123*
X74911Y22943D02*
D03*
X74439D02*
D03*
X73967D02*
D03*
X74911Y24439D02*
D03*
X74439D02*
D03*
X73967D02*
D03*
G54D124*
X73553Y22943D02*
D03*
X75325Y22943D02*
D03*
X73553Y24439D02*
D03*
X75325D02*
D03*
G54D125*
X75325Y23455D02*
D03*
X73553Y23927D02*
D03*
G54D126*
X73553Y23455D02*
D03*
X75325Y23927D02*
D03*
G54D127*
X73967Y23455D02*
D03*
X73967Y23927D02*
D03*
G54D128*
X74439Y23435D02*
D03*
G54D129*
X74911Y23435D02*
D03*
G54D130*
X74439Y23947D02*
D03*
X74911D02*
D03*
G54D131*
X87210Y21280D02*
D03*
G54D132*
X87215Y21742D02*
D03*
G54D133*
X87215Y21348D02*
D03*
G54D134*
X87215Y21811D02*
D03*
M02*
