G04*
G04 #@! TF.GenerationSoftware,Altium Limited,Altium Designer,18.1.6 (161)*
G04*
G04 Layer_Physical_Order=4*
G04 Layer_Color=16440176*
%FSLAX24Y24*%
%MOIN*%
G70*
G01*
G75*
%ADD11C,0.0060*%
%ADD13C,0.0080*%
%ADD29C,0.0236*%
%ADD47C,0.0065*%
%ADD49C,0.0197*%
%ADD50C,0.0059*%
%ADD51C,0.0295*%
%ADD52C,0.2165*%
%ADD53C,0.0237*%
%ADD60C,0.0150*%
%ADD61C,0.0394*%
G36*
X71043Y32437D02*
X89346Y32437D01*
Y29528D01*
X89346D01*
X89357Y29445D01*
X89389Y29368D01*
X89440Y29302D01*
X89506Y29251D01*
X89583Y29219D01*
X89665Y29208D01*
Y29209D01*
X93307D01*
Y29208D01*
X93390Y29219D01*
X93467Y29251D01*
X93533Y29302D01*
X93584Y29368D01*
X93615Y29445D01*
X93626Y29528D01*
X93626D01*
Y30075D01*
X94366D01*
Y30016D01*
X94329Y30001D01*
X94262Y29950D01*
X94212Y29884D01*
X94180Y29807D01*
X94169Y29724D01*
X94180Y29642D01*
X94212Y29565D01*
X94262Y29499D01*
X94329Y29448D01*
X94406Y29416D01*
X94488Y29405D01*
Y29406D01*
X97240D01*
Y27799D01*
X95787D01*
Y27800D01*
X95705Y27789D01*
X95628Y27757D01*
X95562Y27706D01*
X95511Y27640D01*
X95479Y27563D01*
X95468Y27480D01*
X95469D01*
Y24646D01*
X95468D01*
X95479Y24563D01*
X95511Y24486D01*
X95562Y24420D01*
X95628Y24369D01*
X95705Y24337D01*
X95787Y24326D01*
Y24327D01*
X97240D01*
Y22720D01*
X94488D01*
Y22721D01*
X94406Y22710D01*
X94329Y22678D01*
X94262Y22627D01*
X94212Y22561D01*
X94180Y22484D01*
X94169Y22402D01*
X94180Y22319D01*
X94212Y22242D01*
X94262Y22176D01*
X94329Y22125D01*
X94366Y22110D01*
Y22051D01*
X93626D01*
Y22598D01*
X93626D01*
X93615Y22681D01*
X93584Y22758D01*
X93533Y22824D01*
X93467Y22875D01*
X93390Y22907D01*
X93307Y22918D01*
Y22917D01*
X89665D01*
Y22918D01*
X89583Y22907D01*
X89506Y22875D01*
X89440Y22824D01*
X89389Y22758D01*
X89357Y22681D01*
X89346Y22598D01*
X89346D01*
Y19689D01*
X84511Y19689D01*
X84491Y19739D01*
X85210Y20458D01*
X85555D01*
X85704Y20310D01*
X85746Y20277D01*
X85950Y20074D01*
X86012Y20026D01*
X86084Y19996D01*
X86161Y19986D01*
X86186Y19989D01*
X86211Y19986D01*
X86288Y19996D01*
X86360Y20026D01*
X86422Y20074D01*
X86679Y20331D01*
X87677D01*
X87755Y20341D01*
X87827Y20371D01*
X87889Y20418D01*
X87936Y20480D01*
X87966Y20552D01*
X87977Y20630D01*
X87966Y20707D01*
X87936Y20780D01*
X87889Y20842D01*
X87827Y20889D01*
X87755Y20919D01*
X87677Y20929D01*
X86555D01*
X86478Y20919D01*
X86405Y20889D01*
X86343Y20842D01*
X86186Y20684D01*
X86137Y20733D01*
X86095Y20766D01*
X85891Y20970D01*
X85829Y21017D01*
X85757Y21047D01*
X85679Y21057D01*
X85086D01*
X85009Y21047D01*
X84966Y21030D01*
X84936Y21017D01*
X84874Y20970D01*
X84125Y20221D01*
X76630D01*
X76607Y20265D01*
X76623Y20289D01*
X76640Y20374D01*
X76623Y20459D01*
X76575Y20531D01*
X76502Y20579D01*
X76417Y20596D01*
X76332Y20579D01*
X76260Y20531D01*
X76228Y20483D01*
X76169Y20480D01*
X76142Y20521D01*
X76069Y20570D01*
X75984Y20587D01*
X75899Y20570D01*
X75827Y20521D01*
X75779Y20449D01*
X75762Y20364D01*
X75779Y20279D01*
X75788Y20265D01*
X75765Y20221D01*
X74789D01*
X74710Y20300D01*
X74648Y20348D01*
X74576Y20378D01*
X74498Y20388D01*
X74421Y20378D01*
X74348Y20348D01*
X74286Y20300D01*
X74246Y20260D01*
X73372D01*
Y20678D01*
X73422Y20707D01*
X73494Y20693D01*
X73579Y20710D01*
X73651Y20758D01*
X73699Y20830D01*
X73716Y20915D01*
X73710Y20947D01*
X73723Y20964D01*
X73752Y20991D01*
X73825Y21005D01*
X73860Y21029D01*
X73896Y20975D01*
X73968Y20926D01*
X74054Y20910D01*
X74139Y20926D01*
X74170Y20948D01*
X74279Y20839D01*
X74279Y20839D01*
X74536Y20582D01*
X74579Y20553D01*
X74630Y20543D01*
X74799D01*
X74850Y20553D01*
X74893Y20582D01*
X75127Y20816D01*
X75269Y20674D01*
X75312Y20645D01*
X75363Y20635D01*
X75531D01*
X75582Y20645D01*
X75625Y20674D01*
X75809Y20858D01*
X75914Y20753D01*
X75957Y20724D01*
X76008Y20714D01*
X76174D01*
X76225Y20724D01*
X76268Y20753D01*
X76384Y20868D01*
X76578Y20674D01*
X76621Y20645D01*
X76672Y20635D01*
X76841D01*
X76891Y20645D01*
X76934Y20674D01*
X77174Y20913D01*
X77237Y20906D01*
X77264Y20866D01*
X77336Y20818D01*
X77421Y20801D01*
X77506Y20818D01*
X77579Y20866D01*
X77627Y20939D01*
X77644Y21024D01*
X77627Y21109D01*
X77579Y21181D01*
X77551Y21200D01*
X77566Y21249D01*
X77898D01*
X77949Y21260D01*
X77992Y21288D01*
X78633Y21930D01*
X78681Y21915D01*
X78682Y21907D01*
X78731Y21835D01*
X78803Y21787D01*
X78888Y21770D01*
X78973Y21787D01*
X79032Y21827D01*
X79098Y21783D01*
X79183Y21766D01*
X79268Y21783D01*
X79340Y21831D01*
X79389Y21903D01*
X79405Y21988D01*
X79389Y22073D01*
X79340Y22145D01*
X79268Y22194D01*
X79235Y22200D01*
X79228Y22235D01*
X79199Y22278D01*
X79070Y22407D01*
X79027Y22436D01*
X78976Y22446D01*
X78631D01*
X78581Y22436D01*
X78538Y22407D01*
X77785Y21655D01*
X77397D01*
X77346Y21645D01*
X77303Y21616D01*
X76756Y21069D01*
X76558Y21267D01*
X76515Y21296D01*
X76497Y21340D01*
X76505Y21352D01*
X76522Y21437D01*
X76505Y21522D01*
X76456Y21594D01*
X76384Y21642D01*
X76299Y21659D01*
X76214Y21642D01*
X76142Y21594D01*
X76116Y21555D01*
X76063Y21545D01*
X76014Y21578D01*
X76012Y21636D01*
X76027Y21646D01*
X76301Y21921D01*
X77793D01*
X77843Y21931D01*
X77886Y21960D01*
X78676Y22749D01*
X79416D01*
X79448Y22710D01*
X79443Y22687D01*
X79460Y22602D01*
X79508Y22530D01*
X79580Y22482D01*
X79665Y22465D01*
X79750Y22482D01*
X79813Y22523D01*
X79876Y22482D01*
X79961Y22465D01*
X80046Y22482D01*
X80118Y22530D01*
X80166Y22602D01*
X80183Y22687D01*
X80166Y22772D01*
X80118Y22844D01*
X80046Y22892D01*
X80015Y22899D01*
X80005Y22944D01*
X79977Y22987D01*
X79849Y23115D01*
X79806Y23144D01*
X79755Y23154D01*
X78563D01*
X78512Y23144D01*
X78469Y23115D01*
X78314Y22960D01*
X78266Y22974D01*
X78260Y23005D01*
X78212Y23078D01*
X78139Y23126D01*
X78054Y23143D01*
X77969Y23126D01*
X77897Y23078D01*
X77849Y23005D01*
X77832Y22920D01*
X77849Y22835D01*
X77897Y22763D01*
X77969Y22715D01*
X78000Y22709D01*
X78015Y22661D01*
X77680Y22326D01*
X77000D01*
X76963Y22376D01*
X76974Y22431D01*
X76957Y22516D01*
X76909Y22588D01*
X76837Y22637D01*
X76819Y22640D01*
X76812Y22668D01*
X76814Y22692D01*
X76880Y22736D01*
X76928Y22809D01*
X76945Y22894D01*
X76928Y22979D01*
X76895Y23029D01*
X76899Y23032D01*
X76948Y23104D01*
X76965Y23189D01*
X76956Y23231D01*
X76997Y23281D01*
X79946D01*
X81836Y21390D01*
X81879Y21362D01*
X81930Y21352D01*
X82114D01*
X82165Y21362D01*
X82208Y21390D01*
X82359Y21541D01*
X82387Y21584D01*
X82397Y21635D01*
Y21659D01*
X82428Y21665D01*
X82500Y21713D01*
X82548Y21785D01*
X82565Y21870D01*
X82548Y21955D01*
X82500Y22027D01*
X82428Y22076D01*
X82343Y22092D01*
X82257Y22076D01*
X82195Y22034D01*
X82132Y22076D01*
X82047Y22092D01*
X81962Y22076D01*
X81890Y22027D01*
X81865Y21990D01*
X81815Y21985D01*
X80153Y23647D01*
X80110Y23676D01*
X80059Y23686D01*
X79499D01*
X79491Y23712D01*
X79491Y23736D01*
X79557Y23780D01*
X79605Y23852D01*
X79622Y23937D01*
X79605Y24022D01*
X79557Y24094D01*
X79543Y24104D01*
X79540Y24120D01*
X79547Y24161D01*
X79608Y24201D01*
X79656Y24274D01*
X79673Y24359D01*
X79656Y24444D01*
X79608Y24516D01*
X79535Y24564D01*
X79463Y24578D01*
X79449Y24650D01*
X79401Y24723D01*
X79329Y24771D01*
X79244Y24788D01*
X79159Y24771D01*
X79086Y24723D01*
X79038Y24650D01*
X79021Y24565D01*
X79038Y24480D01*
X79086Y24408D01*
X79128Y24380D01*
X79128Y24356D01*
X79121Y24325D01*
X79055Y24281D01*
X79007Y24209D01*
X78990Y24124D01*
X79007Y24039D01*
X79055Y23967D01*
X79127Y23918D01*
X79183Y23907D01*
X79194Y23852D01*
X79242Y23780D01*
X79308Y23736D01*
X79308Y23712D01*
X79300Y23686D01*
X76462D01*
X76403Y23745D01*
X76360Y23774D01*
X76309Y23784D01*
X75925D01*
X75874Y23774D01*
X75831Y23745D01*
X75329Y23243D01*
X75301Y23200D01*
X75291Y23150D01*
Y23020D01*
X75162Y22891D01*
X73645D01*
X73522Y23014D01*
X73479Y23043D01*
X73428Y23053D01*
X73080D01*
X73075Y23077D01*
X73027Y23149D01*
X72955Y23198D01*
X72870Y23215D01*
X72785Y23198D01*
X72712Y23149D01*
X72664Y23077D01*
X72647Y22992D01*
X72664Y22907D01*
X72696Y22860D01*
X72687Y22854D01*
X72639Y22782D01*
X72622Y22697D01*
X72639Y22612D01*
X72687Y22540D01*
X72759Y22491D01*
X72844Y22474D01*
X72930Y22491D01*
X73002Y22540D01*
X73050Y22612D01*
X73057Y22648D01*
X73315D01*
X73398Y22565D01*
X73398Y22565D01*
X73439Y22524D01*
X73482Y22496D01*
X73532Y22486D01*
X74440D01*
X74472Y22447D01*
X74463Y22402D01*
X74480Y22316D01*
X74507Y22276D01*
X74511Y22267D01*
X74526Y22247D01*
X74530Y22241D01*
X74533Y22234D01*
X74536Y22229D01*
X74537Y22225D01*
X74538Y22223D01*
Y21903D01*
X74548Y21852D01*
X74577Y21809D01*
X74740Y21646D01*
X74783Y21617D01*
X74834Y21607D01*
X75230D01*
X75245Y21557D01*
X75227Y21545D01*
X75182Y21479D01*
X75115Y21524D01*
X75030Y21541D01*
X74944Y21524D01*
X74872Y21476D01*
X74848Y21440D01*
X74788D01*
X74764Y21476D01*
X74691Y21524D01*
X74606Y21541D01*
X74521Y21524D01*
X74449Y21476D01*
X74447D01*
X74421Y21516D01*
X74349Y21564D01*
X74264Y21581D01*
X74179Y21564D01*
X74107Y21516D01*
X74058Y21443D01*
X74041Y21358D01*
X74043Y21352D01*
X73968Y21337D01*
X73958Y21331D01*
X73944Y21337D01*
X73889Y21418D01*
X73807Y21473D01*
X73711Y21492D01*
X73341D01*
X73330Y21490D01*
X73329Y21491D01*
X73232Y21471D01*
X73150Y21417D01*
X73132Y21398D01*
X73084Y21408D01*
X73078Y21415D01*
X73031Y21486D01*
X72959Y21534D01*
X72874Y21551D01*
X72789Y21534D01*
X72717Y21486D01*
X72710Y21477D01*
X72663Y21496D01*
X72673Y21545D01*
X72656Y21630D01*
X72608Y21703D01*
X72536Y21751D01*
X72451Y21768D01*
X72394Y21756D01*
X72351Y21797D01*
X72358Y21831D01*
X72341Y21916D01*
X72293Y21988D01*
X72221Y22036D01*
X72136Y22053D01*
X72051Y22036D01*
X71979Y21988D01*
X71930Y21916D01*
X71913Y21831D01*
X71930Y21746D01*
X71979Y21673D01*
X72051Y21625D01*
X72136Y21608D01*
X72192Y21620D01*
X72235Y21579D01*
X72228Y21545D01*
X72242Y21476D01*
X72240Y21473D01*
X72203Y21442D01*
X72202Y21442D01*
X72135Y21469D01*
X72047Y21481D01*
X71959Y21469D01*
X71878Y21435D01*
X71807Y21382D01*
X71754Y21311D01*
X71720Y21230D01*
X71708Y21142D01*
X71720Y21054D01*
X71754Y20972D01*
X71807Y20902D01*
X71878Y20848D01*
X71959Y20814D01*
X72047Y20803D01*
X72135Y20814D01*
X72217Y20848D01*
X72287Y20902D01*
X72341Y20972D01*
X72375Y21054D01*
X72386Y21142D01*
X72375Y21230D01*
X72347Y21296D01*
X72348Y21298D01*
X72379Y21335D01*
X72382Y21337D01*
X72451Y21323D01*
X72536Y21340D01*
X72608Y21388D01*
X72614Y21397D01*
X72661Y21378D01*
X72652Y21329D01*
X72669Y21244D01*
X72717Y21171D01*
X72789Y21123D01*
X72835Y21114D01*
X72875Y21060D01*
X72867Y21019D01*
Y20149D01*
X72860Y20140D01*
X72831Y20068D01*
X72820Y19991D01*
X72831Y19913D01*
X72860Y19841D01*
X72908Y19779D01*
X72938Y19749D01*
X72951Y19739D01*
X72934Y19689D01*
X71043D01*
X71041Y19689D01*
X70878Y19701D01*
X70716Y19740D01*
X70562Y19804D01*
X70420Y19891D01*
X70294Y19999D01*
X70186Y20125D01*
X70128Y20220D01*
X70124Y20217D01*
X70111Y20237D01*
X69433Y21401D01*
Y21732D01*
X69433D01*
X69423Y21815D01*
X69391Y21892D01*
X69340Y21958D01*
X69274Y22009D01*
X69197Y22041D01*
X69114Y22052D01*
Y22051D01*
X67484D01*
Y22110D01*
X67522Y22125D01*
X67588Y22176D01*
X67639Y22242D01*
X67671Y22319D01*
X67681Y22402D01*
X67671Y22484D01*
X67639Y22561D01*
X67588Y22627D01*
X67522Y22678D01*
X67445Y22710D01*
X67362Y22721D01*
Y22720D01*
X64787D01*
Y24480D01*
X64837Y24505D01*
X64860Y24487D01*
X64937Y24455D01*
X65020Y24445D01*
X65102Y24455D01*
X65179Y24487D01*
X65245Y24538D01*
X65296Y24604D01*
X65328Y24681D01*
X65339Y24764D01*
X65339D01*
X65339Y24764D01*
Y27362D01*
X65339D01*
X65328Y27445D01*
X65296Y27522D01*
X65245Y27588D01*
X65179Y27639D01*
X65102Y27671D01*
X65020Y27681D01*
X64937Y27671D01*
X64860Y27639D01*
X64837Y27621D01*
X64787Y27646D01*
Y29406D01*
X67362D01*
Y29405D01*
X67445Y29416D01*
X67522Y29448D01*
X67588Y29499D01*
X67639Y29565D01*
X67671Y29642D01*
X67681Y29724D01*
X67671Y29807D01*
X67639Y29884D01*
X67588Y29950D01*
X67522Y30001D01*
X67484Y30016D01*
Y30075D01*
X69114D01*
Y30074D01*
X69197Y30085D01*
X69274Y30117D01*
X69340Y30168D01*
X69391Y30234D01*
X69423Y30311D01*
X69433Y30394D01*
X69433D01*
Y30725D01*
X70111Y31889D01*
X70124Y31909D01*
X70128Y31906D01*
X70186Y32001D01*
X70294Y32127D01*
X70420Y32235D01*
X70562Y32322D01*
X70716Y32386D01*
X70878Y32425D01*
X71041Y32437D01*
X71043Y32437D01*
D02*
G37*
G36*
X72989Y22996D02*
X72992Y22986D01*
X72996Y22978D01*
X73000Y22971D01*
X73006Y22964D01*
X73013Y22959D01*
X73021Y22955D01*
X73030Y22953D01*
X73040Y22951D01*
X73051Y22950D01*
X73000Y22890D01*
X72991Y22890D01*
X72950Y22887D01*
X72940Y22886D01*
X72897Y22877D01*
X72987Y23006D01*
X72989Y22996D01*
D02*
G37*
G36*
X79773Y22818D02*
X79779Y22720D01*
X79781Y22713D01*
X79676Y22805D01*
X79683Y22804D01*
X79689Y22805D01*
X79695Y22806D01*
X79700Y22808D01*
X79704Y22811D01*
X79707Y22814D01*
X79710Y22819D01*
X79711Y22824D01*
X79713Y22829D01*
X79713Y22836D01*
X79773D01*
X79773Y22818D01*
D02*
G37*
G36*
X79914Y22855D02*
X79915Y22845D01*
X79918Y22836D01*
X79922Y22828D01*
X79927Y22822D01*
X79933Y22816D01*
X79940Y22812D01*
X79948Y22808D01*
X79957Y22806D01*
X79967Y22805D01*
X79845Y22710D01*
X79846Y22719D01*
X79850Y22752D01*
X79852Y22794D01*
X79853Y22847D01*
X79913Y22866D01*
X79914Y22855D01*
D02*
G37*
G36*
X72868Y22813D02*
X72884Y22812D01*
X72999Y22810D01*
X73021Y22750D01*
X73010Y22750D01*
X73000Y22748D01*
X72991Y22746D01*
X72983Y22742D01*
X72977Y22737D01*
X72972Y22731D01*
X72968Y22725D01*
X72965Y22717D01*
X72963Y22708D01*
X72963Y22698D01*
X72862Y22814D01*
X72868Y22813D01*
D02*
G37*
G36*
X76256Y23319D02*
X76299Y23291D01*
X76349Y23281D01*
X76487D01*
X76528Y23231D01*
X76520Y23189D01*
X76537Y23104D01*
X76570Y23054D01*
X76565Y23051D01*
X76517Y22979D01*
X76500Y22894D01*
X76517Y22809D01*
X76565Y22736D01*
X76637Y22688D01*
X76656Y22685D01*
X76662Y22657D01*
X76661Y22633D01*
X76595Y22588D01*
X76547Y22516D01*
X76530Y22431D01*
X76541Y22376D01*
X76504Y22326D01*
X76188D01*
X76138Y22316D01*
X76094Y22287D01*
X75820Y22012D01*
X75629D01*
X75597Y22051D01*
X75606Y22096D01*
X75589Y22182D01*
X75541Y22254D01*
X75469Y22302D01*
X75384Y22319D01*
X75299Y22302D01*
X75227Y22254D01*
X75178Y22182D01*
X75161Y22096D01*
X75170Y22051D01*
X75139Y22012D01*
X74947D01*
X74943Y22016D01*
Y22149D01*
X74988Y22179D01*
X74990Y22179D01*
X75075Y22196D01*
X75147Y22244D01*
X75195Y22316D01*
X75212Y22401D01*
X75203Y22447D01*
X75235Y22486D01*
X75275D01*
X75325Y22496D01*
X75368Y22524D01*
X75657Y22813D01*
X75686Y22856D01*
X75696Y22907D01*
Y23003D01*
X75701Y23006D01*
X75726Y22993D01*
X75749Y22976D01*
X75765Y22897D01*
X75813Y22825D01*
X75844Y22804D01*
X75847Y22746D01*
X75798Y22674D01*
X75782Y22589D01*
X75798Y22503D01*
X75847Y22431D01*
X75919Y22383D01*
X76004Y22366D01*
X76089Y22383D01*
X76161Y22431D01*
X76209Y22503D01*
X76226Y22589D01*
X76209Y22674D01*
X76161Y22746D01*
X76130Y22767D01*
X76127Y22825D01*
X76176Y22897D01*
X76192Y22982D01*
X76176Y23067D01*
X76127Y23140D01*
X76055Y23188D01*
X75970Y23205D01*
X75926Y23196D01*
X75901Y23242D01*
X76058Y23399D01*
X76176D01*
X76256Y23319D01*
D02*
G37*
G36*
X74989Y22283D02*
X74974Y22283D01*
X74961Y22282D01*
X74948Y22281D01*
X74936Y22278D01*
X74925Y22275D01*
X74914Y22271D01*
X74905Y22267D01*
X74896Y22262D01*
X74888Y22256D01*
X74880Y22249D01*
X74838Y22292D01*
X74844Y22299D01*
X74850Y22307D01*
X74855Y22316D01*
X74860Y22326D01*
X74864Y22336D01*
X74867Y22347D01*
X74869Y22359D01*
X74871Y22372D01*
X74872Y22386D01*
X74872Y22400D01*
X74989Y22283D01*
D02*
G37*
G36*
X74757Y22308D02*
X74746Y22299D01*
X74737Y22290D01*
X74728Y22281D01*
X74721Y22272D01*
X74715Y22263D01*
X74710Y22253D01*
X74706Y22244D01*
X74703Y22234D01*
X74701Y22224D01*
X74701Y22214D01*
X74641Y22221D01*
X74640Y22231D01*
X74639Y22240D01*
X74636Y22250D01*
X74633Y22261D01*
X74629Y22271D01*
X74624Y22282D01*
X74617Y22293D01*
X74610Y22304D01*
X74593Y22328D01*
X74757Y22308D01*
D02*
G37*
G36*
X78997Y22037D02*
X78920Y22106D01*
X78923Y22105D01*
X78926Y22105D01*
X78928Y22106D01*
X78931Y22107D01*
X78932Y22108D01*
X78934Y22111D01*
X78935Y22113D01*
X78936Y22117D01*
X78936Y22120D01*
X78937Y22125D01*
X78997D01*
X78997Y22037D01*
D02*
G37*
G36*
X79136Y22156D02*
X79138Y22146D01*
X79140Y22137D01*
X79144Y22130D01*
X79149Y22123D01*
X79155Y22117D01*
X79162Y22113D01*
X79170Y22110D01*
X79180Y22107D01*
X79190Y22106D01*
X79067Y22011D01*
X79069Y22020D01*
X79072Y22053D01*
X79075Y22096D01*
X79075Y22148D01*
X79135Y22167D01*
X79136Y22156D01*
D02*
G37*
G36*
X82162Y21838D02*
X82158Y21805D01*
X82156Y21763D01*
X82155Y21710D01*
X82095Y21693D01*
X82094Y21704D01*
X82093Y21713D01*
X82090Y21722D01*
X82086Y21729D01*
X82081Y21736D01*
X82075Y21741D01*
X82068Y21746D01*
X82060Y21749D01*
X82051Y21751D01*
X82040Y21752D01*
X82163Y21847D01*
X82162Y21838D01*
D02*
G37*
G36*
X82349Y21752D02*
X82339Y21751D01*
X82330Y21749D01*
X82322Y21745D01*
X82315Y21741D01*
X82309Y21735D01*
X82304Y21729D01*
X82300Y21721D01*
X82297Y21712D01*
X82295Y21702D01*
X82295Y21691D01*
X82235Y21710D01*
X82235Y21729D01*
X82228Y21838D01*
X82227Y21847D01*
X82349Y21752D01*
D02*
G37*
%LPC*%
G36*
X73868Y31008D02*
X73801Y30999D01*
X73738Y30973D01*
X73684Y30932D01*
X73677Y30921D01*
X73627D01*
X73619Y30932D01*
X73565Y30973D01*
X73502Y30999D01*
X73435Y31008D01*
X73368Y30999D01*
X73305Y30973D01*
X73251Y30932D01*
X73210Y30878D01*
X73184Y30815D01*
X73175Y30748D01*
X73184Y30681D01*
X73210Y30618D01*
X73251Y30564D01*
X73305Y30523D01*
X73368Y30497D01*
X73435Y30488D01*
X73502Y30497D01*
X73565Y30523D01*
X73619Y30564D01*
X73627Y30575D01*
X73677D01*
X73684Y30564D01*
X73738Y30523D01*
X73801Y30497D01*
X73868Y30488D01*
X73935Y30497D01*
X73998Y30523D01*
X74052Y30564D01*
X74093Y30618D01*
X74119Y30681D01*
X74128Y30748D01*
X74119Y30815D01*
X74093Y30878D01*
X74052Y30932D01*
X73998Y30973D01*
X73935Y30999D01*
X73868Y31008D01*
D02*
G37*
G36*
X80866Y31079D02*
X80781Y31062D01*
X80709Y31014D01*
X80661Y30941D01*
X80644Y30856D01*
X80661Y30771D01*
X80709Y30699D01*
X80781Y30651D01*
X80866Y30634D01*
X80951Y30651D01*
X81023Y30699D01*
X81072Y30771D01*
X81089Y30856D01*
X81072Y30941D01*
X81023Y31014D01*
X80951Y31062D01*
X80866Y31079D01*
D02*
G37*
G36*
X80010Y31069D02*
X79925Y31052D01*
X79853Y31004D01*
X79804Y30932D01*
X79787Y30846D01*
X79804Y30761D01*
X79853Y30689D01*
X79925Y30641D01*
X80010Y30624D01*
X80095Y30641D01*
X80167Y30689D01*
X80215Y30761D01*
X80232Y30846D01*
X80215Y30932D01*
X80167Y31004D01*
X80095Y31052D01*
X80010Y31069D01*
D02*
G37*
G36*
X72047Y31423D02*
X71934Y31408D01*
X71828Y31364D01*
X71737Y31294D01*
X71668Y31203D01*
X71624Y31098D01*
X71609Y30984D01*
X71624Y30871D01*
X71668Y30765D01*
X71737Y30674D01*
X71828Y30605D01*
X71934Y30561D01*
X72047Y30546D01*
X72161Y30561D01*
X72266Y30605D01*
X72357Y30674D01*
X72427Y30765D01*
X72471Y30871D01*
X72486Y30984D01*
X72471Y31098D01*
X72427Y31203D01*
X72357Y31294D01*
X72266Y31364D01*
X72161Y31408D01*
X72047Y31423D01*
D02*
G37*
G36*
X69892Y30990D02*
X69807Y30973D01*
X69734Y30925D01*
X69686Y30853D01*
X69669Y30768D01*
X69686Y30683D01*
X69734Y30610D01*
X69807Y30562D01*
X69892Y30545D01*
X69977Y30562D01*
X70049Y30610D01*
X70097Y30683D01*
X70114Y30768D01*
X70097Y30853D01*
X70049Y30925D01*
X69977Y30973D01*
X69892Y30990D01*
D02*
G37*
G36*
X79154Y31079D02*
X79068Y31062D01*
X78996Y31014D01*
X78948Y30941D01*
X78931Y30856D01*
X78948Y30771D01*
X78996Y30699D01*
X79037Y30672D01*
X79035Y30613D01*
X78986Y30580D01*
X78938Y30508D01*
X78921Y30423D01*
X78938Y30338D01*
X78986Y30266D01*
X79059Y30218D01*
X79144Y30201D01*
X79229Y30218D01*
X79301Y30266D01*
X79349Y30338D01*
X79366Y30423D01*
X79349Y30508D01*
X79301Y30580D01*
X79260Y30608D01*
X79262Y30667D01*
X79311Y30699D01*
X79359Y30771D01*
X79376Y30856D01*
X79359Y30941D01*
X79311Y31014D01*
X79239Y31062D01*
X79154Y31079D01*
D02*
G37*
G36*
X76516Y30153D02*
X76431Y30137D01*
X76358Y30088D01*
X76310Y30016D01*
X76293Y29931D01*
X76310Y29846D01*
X76358Y29774D01*
X76431Y29726D01*
X76516Y29709D01*
X76601Y29726D01*
X76673Y29774D01*
X76721Y29846D01*
X76738Y29931D01*
X76721Y30016D01*
X76673Y30088D01*
X76601Y30137D01*
X76516Y30153D01*
D02*
G37*
G36*
X72766Y29996D02*
X72681Y29979D01*
X72608Y29931D01*
X72560Y29859D01*
X72555Y29832D01*
X72539D01*
X72538Y29832D01*
X72459D01*
X72408Y29822D01*
X72365Y29793D01*
X72220Y29647D01*
X72191Y29605D01*
X72181Y29554D01*
Y29006D01*
X72191Y28955D01*
X72220Y28912D01*
X72278Y28854D01*
X72279Y28853D01*
X72505Y28627D01*
X72547Y28598D01*
X72598Y28588D01*
X73331D01*
X74176Y27744D01*
X74148Y27701D01*
X74075Y27716D01*
X73990Y27699D01*
X73918Y27651D01*
X73869Y27578D01*
X73852Y27493D01*
X73854Y27484D01*
X73854Y27483D01*
X73854Y27479D01*
X73853Y27477D01*
X73852Y27475D01*
X73851Y27473D01*
X73850Y27471D01*
X73850Y27470D01*
X73727Y27348D01*
X73696Y27301D01*
X73685Y27247D01*
X73685Y27247D01*
Y26942D01*
X73685Y26942D01*
X73696Y26887D01*
X73727Y26841D01*
X74297Y26271D01*
X74292Y26221D01*
X74262Y26201D01*
X74214Y26128D01*
X74197Y26043D01*
X74214Y25958D01*
X74262Y25886D01*
X74334Y25838D01*
X74419Y25821D01*
X74504Y25838D01*
X74577Y25886D01*
X74597Y25916D01*
X74647Y25921D01*
X74729Y25839D01*
Y25430D01*
X74679Y25417D01*
X74613Y25461D01*
X74528Y25478D01*
X74442Y25461D01*
X74370Y25413D01*
X74322Y25341D01*
X74305Y25256D01*
X74309Y25234D01*
X74265Y25190D01*
X74200D01*
X73796Y25594D01*
Y25982D01*
X73785Y26033D01*
X73757Y26076D01*
X73025Y26807D01*
Y27426D01*
X73015Y27476D01*
X72987Y27519D01*
X72437Y28068D01*
X72442Y28118D01*
X72460Y28130D01*
X72509Y28202D01*
X72526Y28287D01*
X72509Y28372D01*
X72460Y28445D01*
X72388Y28493D01*
X72303Y28510D01*
X72218Y28493D01*
X72151Y28448D01*
X72083Y28493D01*
X71998Y28510D01*
X71913Y28493D01*
X71841Y28445D01*
X71793Y28372D01*
X71776Y28287D01*
X71793Y28202D01*
X71841Y28130D01*
X71913Y28082D01*
X71935Y28078D01*
Y28016D01*
X71945Y27965D01*
X71974Y27922D01*
X72594Y27302D01*
Y26683D01*
X72604Y26632D01*
X72633Y26590D01*
X72882Y26340D01*
X72850Y26302D01*
X72811Y26328D01*
X72726Y26344D01*
X72641Y26328D01*
X72569Y26279D01*
X72521Y26207D01*
X72504Y26122D01*
X72521Y26037D01*
X72569Y25965D01*
X72641Y25917D01*
X72726Y25900D01*
X72811Y25917D01*
X72819Y25922D01*
X72874Y25899D01*
X72885Y25845D01*
X72933Y25773D01*
X73005Y25725D01*
X73091Y25708D01*
X73176Y25725D01*
X73248Y25773D01*
X73286Y25830D01*
X73335Y25844D01*
X73347Y25844D01*
X73364Y25830D01*
Y25470D01*
X73374Y25420D01*
X73403Y25377D01*
X73983Y24797D01*
X74026Y24768D01*
X74076Y24758D01*
X74398D01*
X74448Y24768D01*
X74482Y24745D01*
X74567Y24728D01*
X74652Y24745D01*
X74724Y24794D01*
X74772Y24866D01*
X74788Y24942D01*
X74872Y24925D01*
X74957Y24942D01*
X75029Y24990D01*
X75074Y25058D01*
X75148Y25043D01*
X75233Y25060D01*
X75305Y25108D01*
X75353Y25181D01*
X75355Y25190D01*
X75408Y25200D01*
X75443Y25148D01*
X75515Y25100D01*
X75600Y25083D01*
X75686Y25100D01*
X75758Y25148D01*
X75806Y25220D01*
X75823Y25305D01*
X75806Y25390D01*
X75758Y25462D01*
X75686Y25511D01*
X75600Y25528D01*
X75515Y25511D01*
X75443Y25462D01*
X75395Y25390D01*
X75393Y25381D01*
X75340Y25370D01*
X75305Y25423D01*
X75296Y25429D01*
X75295Y25429D01*
X75290Y25435D01*
X75286Y25441D01*
X75283Y25445D01*
X75281Y25448D01*
X75280Y25451D01*
Y25904D01*
X75304Y25912D01*
X75330Y25912D01*
X75374Y25847D01*
X75446Y25798D01*
X75531Y25782D01*
X75616Y25798D01*
X75688Y25847D01*
X75737Y25919D01*
X75754Y26004D01*
X75737Y26089D01*
X75688Y26161D01*
X75616Y26209D01*
X75605Y26212D01*
X75591Y26259D01*
X75891Y26560D01*
X75920Y26603D01*
X75930Y26654D01*
Y27264D01*
X75920Y27315D01*
X75891Y27357D01*
X75874Y27374D01*
X75873Y27377D01*
X75872Y27381D01*
X75871Y27386D01*
X75870Y27392D01*
X75870Y27400D01*
X75870Y27401D01*
X75872Y27411D01*
X75855Y27497D01*
X75807Y27569D01*
X75735Y27617D01*
X75650Y27634D01*
X75564Y27617D01*
X75492Y27569D01*
X75444Y27497D01*
X75427Y27411D01*
X75444Y27326D01*
X75492Y27254D01*
X75564Y27206D01*
X75650Y27189D01*
X75665Y27141D01*
Y26708D01*
X75054Y26098D01*
X75025Y26055D01*
X75018Y26021D01*
X74994Y26009D01*
X74977Y26005D01*
X74966Y26006D01*
X74153Y26819D01*
X74161Y26882D01*
X74203Y26910D01*
X74251Y26982D01*
X74268Y27067D01*
X74251Y27152D01*
X74203Y27224D01*
X74175Y27242D01*
X74174Y27246D01*
X74179Y27300D01*
X74232Y27336D01*
X74280Y27408D01*
X74297Y27493D01*
X74283Y27566D01*
X74325Y27594D01*
X74539Y27381D01*
Y27256D01*
X74511Y27250D01*
X74439Y27202D01*
X74391Y27130D01*
X74374Y27045D01*
X74391Y26960D01*
X74439Y26887D01*
X74511Y26839D01*
X74596Y26822D01*
X74682Y26839D01*
X74739Y26877D01*
X74807Y26832D01*
X74892Y26815D01*
X74977Y26832D01*
X75049Y26880D01*
X75097Y26952D01*
X75114Y27037D01*
X75097Y27122D01*
X75049Y27195D01*
X74977Y27243D01*
X74970Y27244D01*
Y27505D01*
X74960Y27555D01*
X74931Y27598D01*
X73548Y28981D01*
X73505Y29010D01*
X73455Y29020D01*
X72722D01*
X72612Y29130D01*
Y29246D01*
X72656Y29269D01*
X72681Y29253D01*
X72766Y29236D01*
X72851Y29253D01*
X72923Y29301D01*
X72971Y29374D01*
X72988Y29459D01*
X72971Y29544D01*
X72923Y29616D01*
Y29616D01*
X72971Y29689D01*
X72988Y29774D01*
X72971Y29859D01*
X72923Y29931D01*
X72851Y29979D01*
X72766Y29996D01*
D02*
G37*
G36*
X75423Y29012D02*
X75338Y28995D01*
X75266Y28947D01*
X75218Y28874D01*
X75201Y28789D01*
X75203Y28781D01*
X75141Y28768D01*
X75069Y28720D01*
X75060Y28707D01*
X75013Y28726D01*
X75016Y28740D01*
X74999Y28825D01*
X74951Y28897D01*
X74878Y28946D01*
X74793Y28963D01*
X74708Y28946D01*
X74636Y28897D01*
X74588Y28825D01*
X74571Y28740D01*
X74588Y28655D01*
X74636Y28583D01*
X74708Y28535D01*
X74793Y28518D01*
X74878Y28535D01*
X74951Y28583D01*
X74960Y28597D01*
X75007Y28577D01*
X75004Y28563D01*
X75021Y28478D01*
X75069Y28406D01*
X75141Y28358D01*
X75226Y28341D01*
X75311Y28358D01*
X75384Y28406D01*
X75432Y28478D01*
X75449Y28563D01*
X75447Y28572D01*
X75508Y28584D01*
X75580Y28632D01*
X75629Y28704D01*
X75646Y28789D01*
X75629Y28874D01*
X75580Y28947D01*
X75508Y28995D01*
X75423Y29012D01*
D02*
G37*
G36*
X70945Y29346D02*
X70860Y29329D01*
X70788Y29281D01*
X70739Y29209D01*
X70722Y29124D01*
X70739Y29039D01*
X70788Y28967D01*
Y28966D01*
X70739Y28894D01*
X70722Y28809D01*
X70739Y28724D01*
X70788Y28652D01*
X70860Y28604D01*
X70945Y28587D01*
X71030Y28604D01*
X71102Y28652D01*
X71150Y28724D01*
X71167Y28809D01*
X71150Y28894D01*
X71102Y28966D01*
Y28967D01*
X71150Y29039D01*
X71167Y29124D01*
X71150Y29209D01*
X71102Y29281D01*
X71030Y29329D01*
X70945Y29346D01*
D02*
G37*
G36*
X86831Y28548D02*
Y28547D01*
X86831Y28547D01*
X82500D01*
X82500Y28547D01*
Y28548D01*
X82417Y28537D01*
X82340Y28505D01*
X82274Y28454D01*
X82224Y28388D01*
X82192Y28311D01*
X82181Y28228D01*
X82181D01*
Y23898D01*
X82181D01*
X82192Y23815D01*
X82224Y23738D01*
X82274Y23672D01*
X82340Y23621D01*
X82417Y23589D01*
X82500Y23578D01*
Y23579D01*
X86831D01*
Y23578D01*
X86913Y23589D01*
X86990Y23621D01*
X87056Y23672D01*
X87107Y23738D01*
X87139Y23815D01*
X87150Y23898D01*
X87150D01*
X87150Y23898D01*
Y28228D01*
X87150Y28228D01*
X87150D01*
X87139Y28311D01*
X87107Y28388D01*
X87056Y28454D01*
X86990Y28505D01*
X86913Y28537D01*
X86831Y28548D01*
D02*
G37*
G36*
X95797Y28468D02*
X95730Y28460D01*
X95667Y28434D01*
X95614Y28392D01*
X95572Y28339D01*
X95546Y28276D01*
X95538Y28209D01*
X95546Y28141D01*
X95572Y28079D01*
X95614Y28025D01*
X95667Y27984D01*
X95730Y27958D01*
X95797Y27949D01*
X95864Y27958D01*
X95927Y27984D01*
X95981Y28025D01*
X96022Y28079D01*
X96048Y28141D01*
X96057Y28209D01*
X96048Y28276D01*
X96022Y28339D01*
X95981Y28392D01*
X95927Y28434D01*
X95864Y28460D01*
X95797Y28468D01*
D02*
G37*
G36*
X66073Y28449D02*
X66006Y28440D01*
X65943Y28414D01*
X65889Y28373D01*
X65848Y28319D01*
X65822Y28256D01*
X65813Y28189D01*
X65822Y28122D01*
X65848Y28059D01*
X65889Y28005D01*
X65943Y27964D01*
X66006Y27938D01*
X66073Y27929D01*
X66140Y27938D01*
X66203Y27964D01*
X66256Y28005D01*
X66298Y28059D01*
X66324Y28122D01*
X66333Y28189D01*
X66324Y28256D01*
X66298Y28319D01*
X66256Y28373D01*
X66203Y28414D01*
X66140Y28440D01*
X66073Y28449D01*
D02*
G37*
G36*
X76329Y27850D02*
X76244Y27833D01*
X76171Y27785D01*
X76123Y27713D01*
X76106Y27628D01*
X76123Y27543D01*
X76171Y27471D01*
X76201Y27451D01*
Y27401D01*
X76171Y27382D01*
X76123Y27310D01*
X76106Y27224D01*
X76123Y27139D01*
X76171Y27067D01*
X76244Y27019D01*
X76329Y27002D01*
X76414Y27019D01*
X76486Y27067D01*
X76534Y27139D01*
X76551Y27224D01*
X76534Y27310D01*
X76486Y27382D01*
X76457Y27401D01*
Y27451D01*
X76486Y27471D01*
X76534Y27543D01*
X76551Y27628D01*
X76534Y27713D01*
X76486Y27785D01*
X76414Y27833D01*
X76329Y27850D01*
D02*
G37*
G36*
X66545Y26323D02*
X66478Y26314D01*
X66415Y26288D01*
X66362Y26247D01*
X66320Y26193D01*
X66294Y26130D01*
X66286Y26063D01*
X66294Y25996D01*
X66320Y25933D01*
X66362Y25879D01*
X66415Y25838D01*
X66478Y25812D01*
X66545Y25803D01*
X66612Y25812D01*
X66675Y25838D01*
X66729Y25879D01*
X66770Y25933D01*
X66796Y25996D01*
X66805Y26063D01*
X66796Y26130D01*
X66770Y26193D01*
X66729Y26247D01*
X66675Y26288D01*
X66612Y26314D01*
X66545Y26323D01*
D02*
G37*
G36*
X71171Y26213D02*
X70792D01*
X70742Y26203D01*
X70699Y26174D01*
X70170Y25646D01*
X70124Y25669D01*
X70107Y25754D01*
X70059Y25827D01*
X70015Y25856D01*
X70038Y25889D01*
X70055Y25974D01*
X70038Y26060D01*
X69989Y26132D01*
X69917Y26180D01*
X69832Y26197D01*
X69747Y26180D01*
X69675Y26132D01*
X69627Y26060D01*
X69610Y25974D01*
X69612Y25963D01*
X69612Y25963D01*
X69611Y25955D01*
X69611Y25948D01*
X69610Y25943D01*
X69609Y25939D01*
X69608Y25937D01*
X69582Y25911D01*
X69553Y25868D01*
X69543Y25817D01*
Y25418D01*
X69553Y25368D01*
X69582Y25325D01*
X69724Y25182D01*
X69767Y25154D01*
X69818Y25144D01*
X70223D01*
X70274Y25154D01*
X70316Y25182D01*
X70916Y25782D01*
X71047D01*
X71896Y24932D01*
X71891Y24883D01*
X71860Y24862D01*
X71812Y24790D01*
X71795Y24705D01*
X71812Y24620D01*
X71860Y24547D01*
X71933Y24499D01*
X72018Y24482D01*
X72059Y24491D01*
X72109Y24450D01*
Y24413D01*
X72119Y24363D01*
X72103Y24324D01*
X72080Y24320D01*
X72008Y24271D01*
X71990Y24270D01*
X71511Y24749D01*
X71469Y24777D01*
X71418Y24787D01*
X70712D01*
X70662Y24777D01*
X70619Y24749D01*
X70462Y24592D01*
X70450Y24573D01*
X70391Y24573D01*
X70379Y24592D01*
X70222Y24749D01*
X70179Y24777D01*
X70128Y24787D01*
X69403D01*
X69398Y24810D01*
X69350Y24882D01*
X69278Y24930D01*
X69193Y24947D01*
X69108Y24930D01*
X69036Y24882D01*
X68987Y24810D01*
X68971Y24724D01*
X68987Y24639D01*
X69033Y24572D01*
X68987Y24504D01*
X68971Y24419D01*
X68987Y24334D01*
X69036Y24262D01*
X69108Y24214D01*
X69193Y24197D01*
X69278Y24214D01*
X69350Y24262D01*
X69398Y24334D01*
X69403Y24356D01*
X69986D01*
Y22726D01*
X69996Y22676D01*
X70025Y22633D01*
X70153Y22505D01*
X70196Y22476D01*
X70246Y22466D01*
X70588D01*
X70638Y22476D01*
X70681Y22505D01*
X70816Y22640D01*
X70845Y22683D01*
X70855Y22733D01*
Y24356D01*
X71294D01*
X71845Y23805D01*
X71846Y23804D01*
X71888Y23776D01*
X71922Y23769D01*
X71930Y23767D01*
X71932Y23767D01*
X71939Y23766D01*
X71954D01*
X71960Y23734D01*
X71979Y23705D01*
X71952Y23655D01*
X71436D01*
X71436Y23658D01*
X71388Y23730D01*
X71315Y23778D01*
X71230Y23795D01*
X71145Y23778D01*
X71073Y23730D01*
X71025Y23658D01*
X71008Y23573D01*
X71025Y23488D01*
X71067Y23425D01*
X71025Y23363D01*
X71008Y23278D01*
X71025Y23192D01*
X71073Y23120D01*
X71145Y23072D01*
X71230Y23055D01*
X71315Y23072D01*
X71388Y23120D01*
X71436Y23192D01*
X71442Y23224D01*
X72441D01*
X72492Y23234D01*
X72534Y23263D01*
X72731Y23459D01*
X72760Y23502D01*
X72770Y23553D01*
Y23744D01*
X72814Y23768D01*
X72838Y23751D01*
X72923Y23734D01*
X73008Y23751D01*
X73080Y23799D01*
X73129Y23872D01*
X73146Y23957D01*
X73129Y24042D01*
X73080Y24114D01*
X73008Y24162D01*
X72923Y24179D01*
X72838Y24162D01*
X72814Y24146D01*
X72770Y24169D01*
Y24253D01*
X72760Y24303D01*
X72731Y24346D01*
X72540Y24537D01*
Y24843D01*
X72530Y24894D01*
X72502Y24937D01*
X71264Y26174D01*
X71221Y26203D01*
X71171Y26213D01*
D02*
G37*
G36*
X76476Y26326D02*
X76197D01*
X76129Y26313D01*
X76071Y26274D01*
X76006Y26209D01*
X75958Y26200D01*
X75886Y26151D01*
X75838Y26079D01*
X75821Y25994D01*
X75838Y25909D01*
X75886Y25837D01*
X75958Y25789D01*
X76043Y25772D01*
X76128Y25789D01*
X76148Y25802D01*
X76191Y25738D01*
X76263Y25690D01*
X76348Y25673D01*
X76433Y25690D01*
X76505Y25738D01*
X76513Y25750D01*
X76573D01*
X76593Y25720D01*
X76665Y25672D01*
X76750Y25655D01*
X76835Y25672D01*
X76908Y25720D01*
X76956Y25792D01*
X76965Y25839D01*
X76970Y25845D01*
X77049Y25924D01*
X77818D01*
X77844Y25874D01*
X77829Y25797D01*
X77846Y25712D01*
X77894Y25640D01*
X77966Y25592D01*
X78051Y25575D01*
X78136Y25592D01*
X78208Y25640D01*
X78257Y25712D01*
X78274Y25797D01*
X78258Y25874D01*
X78284Y25924D01*
X78755D01*
X78939Y25740D01*
X78948Y25692D01*
X78996Y25620D01*
X79068Y25572D01*
X79154Y25555D01*
X79239Y25572D01*
X79240Y25573D01*
X79242Y25573D01*
X79280Y25599D01*
X79285Y25599D01*
X79943D01*
X79984Y25572D01*
X80069Y25555D01*
X80154Y25572D01*
X80226Y25620D01*
X80274Y25692D01*
X80291Y25778D01*
X80274Y25863D01*
X80226Y25935D01*
X80154Y25983D01*
X80069Y26000D01*
X79984Y25983D01*
X79944Y25956D01*
X79937Y25956D01*
X79279D01*
X79239Y25983D01*
X79192Y25992D01*
X79187Y25997D01*
X78955Y26229D01*
X78897Y26267D01*
X78829Y26281D01*
X76975D01*
X76907Y26267D01*
X76849Y26229D01*
X76849Y26229D01*
X76749Y26128D01*
X76603Y26274D01*
X76545Y26313D01*
X76476Y26326D01*
D02*
G37*
G36*
X81554Y25359D02*
X81468Y25342D01*
X81396Y25294D01*
X81348Y25221D01*
X81331Y25136D01*
X81348Y25051D01*
X81396Y24979D01*
X81468Y24931D01*
X81554Y24914D01*
X81639Y24931D01*
X81711Y24979D01*
X81759Y25051D01*
X81776Y25136D01*
X81759Y25221D01*
X81711Y25294D01*
X81639Y25342D01*
X81554Y25359D01*
D02*
G37*
G36*
X80344Y25321D02*
X80259Y25304D01*
X80187Y25256D01*
X80181Y25246D01*
X80181Y25246D01*
X80175Y25241D01*
X80169Y25237D01*
X80165Y25234D01*
X80161Y25232D01*
X80159Y25230D01*
X78658D01*
X78607Y25220D01*
X78565Y25192D01*
X78141Y24768D01*
X76857D01*
X76857Y24768D01*
X76160D01*
X76157Y24769D01*
X76154Y24771D01*
X76151Y24773D01*
X76138Y24784D01*
X76132Y24793D01*
X76060Y24841D01*
X75974Y24858D01*
X75889Y24841D01*
X75817Y24793D01*
X75769Y24721D01*
X75752Y24636D01*
X75769Y24551D01*
X75817Y24479D01*
X75877Y24439D01*
X75890Y24421D01*
X75892Y24379D01*
X75858Y24327D01*
X75841Y24242D01*
X75858Y24157D01*
X75906Y24085D01*
X75978Y24037D01*
X76063Y24020D01*
X76148Y24037D01*
X76220Y24085D01*
X76268Y24157D01*
X76285Y24242D01*
X76268Y24327D01*
X76220Y24399D01*
X76180Y24426D01*
X76168Y24485D01*
X76181Y24504D01*
X76525D01*
X76556Y24465D01*
X76549Y24429D01*
X76566Y24344D01*
X76614Y24272D01*
X76687Y24224D01*
X76772Y24207D01*
X76857Y24224D01*
X76929Y24272D01*
X76977Y24344D01*
X76994Y24429D01*
X76987Y24465D01*
X77019Y24504D01*
X78195D01*
X78246Y24514D01*
X78289Y24542D01*
X78713Y24966D01*
X80159D01*
X80161Y24965D01*
X80165Y24963D01*
X80168Y24961D01*
X80181Y24950D01*
X80187Y24941D01*
X80259Y24893D01*
X80344Y24876D01*
X80430Y24893D01*
X80502Y24941D01*
X80550Y25013D01*
X80567Y25098D01*
X80550Y25184D01*
X80502Y25256D01*
X80430Y25304D01*
X80344Y25321D01*
D02*
G37*
G36*
X72147Y26777D02*
X69377D01*
X69325Y26767D01*
X69281Y26737D01*
X69215Y26672D01*
X69186Y26628D01*
X69176Y26576D01*
Y25637D01*
X68566Y25027D01*
X68537Y24983D01*
X68526Y24931D01*
Y23376D01*
X68537Y23324D01*
X68566Y23280D01*
X68625Y23221D01*
X68669Y23192D01*
X68720Y23182D01*
X69129D01*
X69129Y23182D01*
X69131Y23181D01*
X69134Y23179D01*
X69138Y23176D01*
X69143Y23173D01*
X69148Y23169D01*
X69154Y23160D01*
X69226Y23111D01*
X69311Y23095D01*
X69396Y23111D01*
X69468Y23160D01*
X69516Y23232D01*
X69533Y23317D01*
X69516Y23402D01*
X69468Y23474D01*
X69396Y23522D01*
X69311Y23539D01*
X69226Y23522D01*
X69154Y23474D01*
X69148Y23465D01*
X69143Y23461D01*
X69138Y23457D01*
X69134Y23455D01*
X69131Y23453D01*
X69129Y23452D01*
X69129Y23452D01*
X68797D01*
Y24875D01*
X69407Y25485D01*
X69436Y25529D01*
X69446Y25581D01*
Y26507D01*
X72070D01*
Y25757D01*
X72080Y25705D01*
X72109Y25661D01*
X72827Y24943D01*
X72811Y24889D01*
X72769Y24881D01*
X72697Y24832D01*
X72649Y24760D01*
X72632Y24675D01*
X72649Y24590D01*
X72697Y24518D01*
X72769Y24470D01*
X72854Y24453D01*
X72939Y24470D01*
X73012Y24518D01*
X73060Y24590D01*
X73074Y24663D01*
X73091Y24660D01*
X73176Y24676D01*
X73248Y24725D01*
X73296Y24797D01*
X73313Y24882D01*
X73296Y24967D01*
X73248Y25039D01*
X73176Y25087D01*
X73091Y25104D01*
X73077Y25101D01*
X73067Y25101D01*
X73061Y25101D01*
X73056Y25102D01*
X73052Y25102D01*
X73050Y25103D01*
X73050Y25103D01*
X72340Y25813D01*
Y26585D01*
X72330Y26636D01*
X72300Y26680D01*
X72243Y26737D01*
X72199Y26767D01*
X72147Y26777D01*
D02*
G37*
G36*
X80226Y24799D02*
X80141Y24782D01*
X80069Y24734D01*
X80021Y24662D01*
X80004Y24577D01*
X80021Y24492D01*
X80069Y24420D01*
X80113Y24390D01*
Y24330D01*
X80069Y24301D01*
X80021Y24229D01*
X80004Y24144D01*
X80021Y24059D01*
X80069Y23986D01*
X80141Y23938D01*
X80226Y23921D01*
X80311Y23938D01*
X80367Y23915D01*
X80375Y23872D01*
X80423Y23799D01*
X80496Y23751D01*
X80581Y23734D01*
X80666Y23751D01*
X80738Y23799D01*
X80786Y23872D01*
X80803Y23957D01*
X80786Y24042D01*
X80738Y24114D01*
X80666Y24162D01*
X80581Y24179D01*
X80496Y24162D01*
X80440Y24185D01*
X80432Y24229D01*
X80384Y24301D01*
X80340Y24330D01*
Y24390D01*
X80384Y24420D01*
X80432Y24492D01*
X80449Y24577D01*
X80432Y24662D01*
X80384Y24734D01*
X80311Y24782D01*
X80226Y24799D01*
D02*
G37*
G36*
X95797Y24197D02*
X95730Y24188D01*
X95667Y24162D01*
X95614Y24121D01*
X95572Y24067D01*
X95546Y24004D01*
X95538Y23937D01*
X95546Y23870D01*
X95572Y23807D01*
X95614Y23753D01*
X95667Y23712D01*
X95730Y23686D01*
X95797Y23677D01*
X95864Y23686D01*
X95927Y23712D01*
X95981Y23753D01*
X96022Y23807D01*
X96048Y23870D01*
X96057Y23937D01*
X96048Y24004D01*
X96022Y24067D01*
X95981Y24121D01*
X95927Y24162D01*
X95864Y24188D01*
X95797Y24197D01*
D02*
G37*
G36*
X66073D02*
X66006Y24188D01*
X65943Y24162D01*
X65889Y24121D01*
X65848Y24067D01*
X65822Y24004D01*
X65813Y23937D01*
X65822Y23870D01*
X65848Y23807D01*
X65889Y23753D01*
X65943Y23712D01*
X66006Y23686D01*
X66073Y23677D01*
X66140Y23686D01*
X66203Y23712D01*
X66256Y23753D01*
X66298Y23807D01*
X66324Y23870D01*
X66333Y23937D01*
X66324Y24004D01*
X66298Y24067D01*
X66256Y24121D01*
X66203Y24162D01*
X66140Y24188D01*
X66073Y24197D01*
D02*
G37*
G36*
X81063Y23961D02*
X80978Y23944D01*
X80906Y23896D01*
X80858Y23824D01*
X80841Y23739D01*
X80858Y23653D01*
X80906Y23581D01*
X80978Y23533D01*
X81063Y23516D01*
X81148Y23533D01*
X81220Y23581D01*
X81268Y23653D01*
X81285Y23739D01*
X81268Y23824D01*
X81220Y23896D01*
X81148Y23944D01*
X81063Y23961D01*
D02*
G37*
G36*
X72106Y22929D02*
X72021Y22912D01*
X71949Y22864D01*
X71901Y22792D01*
X71884Y22707D01*
X71901Y22622D01*
X71949Y22549D01*
X72021Y22501D01*
X72106Y22484D01*
X72191Y22501D01*
X72264Y22549D01*
X72312Y22622D01*
X72329Y22707D01*
X72312Y22792D01*
X72264Y22864D01*
X72191Y22912D01*
X72106Y22929D01*
D02*
G37*
G36*
X82844Y22850D02*
X82759Y22833D01*
X82687Y22785D01*
X82639Y22713D01*
X82622Y22628D01*
X82639Y22543D01*
X82687Y22471D01*
X82759Y22422D01*
X82844Y22406D01*
X82930Y22422D01*
X83002Y22471D01*
X83050Y22543D01*
X83067Y22628D01*
X83050Y22713D01*
X83002Y22785D01*
X82930Y22833D01*
X82844Y22850D01*
D02*
G37*
G36*
X85915Y22791D02*
X85830Y22774D01*
X85758Y22726D01*
X85710Y22654D01*
X85693Y22569D01*
X85710Y22484D01*
X85758Y22412D01*
X85830Y22363D01*
X85915Y22347D01*
X86000Y22363D01*
X86073Y22412D01*
X86121Y22484D01*
X86138Y22569D01*
X86121Y22654D01*
X86073Y22726D01*
X86000Y22774D01*
X85915Y22791D01*
D02*
G37*
G36*
X87677Y22693D02*
X87592Y22676D01*
X87520Y22628D01*
X87472Y22556D01*
X87455Y22470D01*
X87472Y22385D01*
X87520Y22313D01*
X87592Y22265D01*
X87677Y22248D01*
X87762Y22265D01*
X87834Y22313D01*
X87883Y22385D01*
X87900Y22470D01*
X87883Y22556D01*
X87834Y22628D01*
X87762Y22676D01*
X87677Y22693D01*
D02*
G37*
G36*
X85305Y22565D02*
X85220Y22548D01*
X85148Y22500D01*
X85100Y22428D01*
X85083Y22343D01*
X85100Y22257D01*
X85148Y22185D01*
X85220Y22137D01*
X85305Y22120D01*
X85390Y22137D01*
X85462Y22185D01*
X85511Y22257D01*
X85527Y22343D01*
X85511Y22428D01*
X85462Y22500D01*
X85390Y22548D01*
X85305Y22565D01*
D02*
G37*
G36*
X84577D02*
X84492Y22548D01*
X84420Y22500D01*
X84371Y22428D01*
X84354Y22343D01*
X84371Y22257D01*
X84420Y22185D01*
X84492Y22137D01*
X84577Y22120D01*
X84662Y22137D01*
X84734Y22185D01*
X84782Y22257D01*
X84799Y22343D01*
X84782Y22428D01*
X84734Y22500D01*
X84662Y22548D01*
X84577Y22565D01*
D02*
G37*
G36*
X71278Y21590D02*
X71193Y21574D01*
X71121Y21525D01*
X71073Y21453D01*
X71056Y21368D01*
X71073Y21283D01*
X71121Y21211D01*
X71193Y21163D01*
X71278Y21146D01*
X71363Y21163D01*
X71435Y21211D01*
X71483Y21283D01*
X71500Y21368D01*
X71483Y21453D01*
X71435Y21525D01*
X71363Y21574D01*
X71278Y21590D01*
D02*
G37*
%LPD*%
G36*
X72740Y29658D02*
X72729Y29661D01*
X72693Y29666D01*
X72665Y29668D01*
X72603Y29670D01*
X72585Y29729D01*
X72596Y29730D01*
X72606Y29732D01*
X72615Y29734D01*
X72623Y29738D01*
X72630Y29743D01*
X72635Y29750D01*
X72640Y29757D01*
X72644Y29765D01*
X72647Y29775D01*
X72648Y29785D01*
X72740Y29658D01*
D02*
G37*
G36*
X72648Y29447D02*
X72647Y29457D01*
X72644Y29467D01*
X72640Y29475D01*
X72635Y29483D01*
X72630Y29489D01*
X72623Y29494D01*
X72615Y29498D01*
X72606Y29501D01*
X72596Y29502D01*
X72585Y29503D01*
X72603Y29562D01*
X72619Y29562D01*
X72705Y29568D01*
X72717Y29570D01*
X72740Y29574D01*
X72648Y29447D01*
D02*
G37*
G36*
X72321Y28171D02*
X72310Y28168D01*
X72300Y28165D01*
X72292Y28161D01*
X72284Y28156D01*
X72278Y28150D01*
X72273Y28143D01*
X72269Y28135D01*
X72266Y28126D01*
X72264Y28116D01*
X72264Y28105D01*
X72205Y28121D01*
X72204Y28136D01*
X72201Y28193D01*
X72199Y28207D01*
X72192Y28245D01*
X72189Y28258D01*
X72321Y28171D01*
D02*
G37*
G36*
X72109Y28245D02*
X72102Y28207D01*
X72101Y28193D01*
X72097Y28136D01*
X72097Y28121D01*
X72038Y28105D01*
X72037Y28116D01*
X72035Y28126D01*
X72032Y28135D01*
X72028Y28143D01*
X72023Y28150D01*
X72017Y28156D01*
X72009Y28161D01*
X72001Y28165D01*
X71991Y28168D01*
X71980Y28171D01*
X72112Y28258D01*
X72109Y28245D01*
D02*
G37*
G36*
X74074Y27375D02*
X74062Y27375D01*
X74051Y27374D01*
X74040Y27372D01*
X74029Y27369D01*
X74019Y27366D01*
X74009Y27362D01*
X74000Y27356D01*
X73991Y27351D01*
X73982Y27344D01*
X73974Y27336D01*
X73918Y27393D01*
X73925Y27401D01*
X73932Y27410D01*
X73938Y27418D01*
X73943Y27428D01*
X73947Y27437D01*
X73951Y27448D01*
X73953Y27458D01*
X73955Y27469D01*
X73956Y27480D01*
X73957Y27492D01*
X74074Y27375D01*
D02*
G37*
G36*
X75768Y27396D02*
X75769Y27382D01*
X75770Y27369D01*
X75773Y27357D01*
X75776Y27346D01*
X75780Y27336D01*
X75784Y27326D01*
X75789Y27317D01*
X75795Y27309D01*
X75802Y27302D01*
X75759Y27259D01*
X75752Y27266D01*
X75744Y27272D01*
X75735Y27277D01*
X75725Y27281D01*
X75715Y27285D01*
X75704Y27288D01*
X75692Y27291D01*
X75679Y27292D01*
X75665Y27293D01*
X75651Y27293D01*
X75768Y27410D01*
X75768Y27396D01*
D02*
G37*
G36*
X74868Y27213D02*
X74870Y27203D01*
X74873Y27194D01*
X74877Y27186D01*
X74882Y27178D01*
X74889Y27171D01*
X74897Y27165D01*
X74905Y27159D01*
X74916Y27154D01*
X74927Y27150D01*
X74781Y27078D01*
X74786Y27093D01*
X74804Y27155D01*
X74806Y27166D01*
X74808Y27184D01*
X74808Y27192D01*
X74867Y27224D01*
X74868Y27213D01*
D02*
G37*
G36*
X74700Y27207D02*
X74700Y27191D01*
X74706Y27104D01*
X74708Y27092D01*
X74712Y27070D01*
X74585Y27162D01*
X74596Y27164D01*
X74605Y27166D01*
X74614Y27170D01*
X74621Y27175D01*
X74627Y27181D01*
X74632Y27187D01*
X74636Y27195D01*
X74639Y27204D01*
X74641Y27214D01*
X74641Y27225D01*
X74700Y27207D01*
D02*
G37*
G36*
X75178Y25441D02*
X75180Y25431D01*
X75182Y25421D01*
X75186Y25411D01*
X75191Y25401D01*
X75197Y25391D01*
X75203Y25381D01*
X75211Y25371D01*
X75220Y25360D01*
X75230Y25350D01*
X75065D01*
X75075Y25360D01*
X75084Y25371D01*
X75092Y25381D01*
X75099Y25391D01*
X75104Y25401D01*
X75109Y25411D01*
X75113Y25421D01*
X75116Y25431D01*
X75117Y25441D01*
X75118Y25451D01*
X75178D01*
X75178Y25441D01*
D02*
G37*
G36*
X74912Y25319D02*
X74914Y25308D01*
X74916Y25297D01*
X74919Y25287D01*
X74923Y25277D01*
X74927Y25268D01*
X74933Y25258D01*
X74939Y25249D01*
X74947Y25241D01*
X74955Y25232D01*
X74789D01*
X74797Y25241D01*
X74805Y25249D01*
X74811Y25258D01*
X74817Y25268D01*
X74821Y25277D01*
X74825Y25287D01*
X74828Y25297D01*
X74830Y25308D01*
X74832Y25319D01*
X74832Y25330D01*
X74912D01*
X74912Y25319D01*
D02*
G37*
G36*
X74489Y24862D02*
X74481Y24868D01*
X74473Y24874D01*
X74466Y24878D01*
X74458Y24880D01*
X74451Y24882D01*
X74444Y24882D01*
X74437Y24881D01*
X74431Y24878D01*
X74425Y24875D01*
X74419Y24870D01*
X74378Y24912D01*
X74391Y24925D01*
X74456Y24999D01*
X74463Y25008D01*
X74468Y25016D01*
X74489Y24862D01*
D02*
G37*
G36*
X69831Y25856D02*
X69816Y25856D01*
X69790Y25854D01*
X69778Y25851D01*
X69767Y25848D01*
X69756Y25845D01*
X69746Y25840D01*
X69737Y25835D01*
X69729Y25829D01*
X69722Y25823D01*
X69680Y25864D01*
X69687Y25872D01*
X69693Y25880D01*
X69698Y25889D01*
X69702Y25898D01*
X69706Y25909D01*
X69709Y25920D01*
X69711Y25932D01*
X69713Y25945D01*
X69714Y25959D01*
X69714Y25973D01*
X69831Y25856D01*
D02*
G37*
G36*
X69931Y25555D02*
X69920Y25551D01*
X69909Y25547D01*
X69901Y25542D01*
X69893Y25537D01*
X69887Y25530D01*
X69881Y25523D01*
X69877Y25515D01*
X69874Y25507D01*
X69872Y25497D01*
X69872Y25487D01*
X69813Y25521D01*
X69812Y25529D01*
X69811Y25548D01*
X69809Y25558D01*
X69801Y25592D01*
X69794Y25619D01*
X69789Y25633D01*
X69931Y25555D01*
D02*
G37*
G36*
X69312Y24731D02*
X69315Y24722D01*
X69319Y24713D01*
X69324Y24706D01*
X69330Y24699D01*
X69337Y24694D01*
X69345Y24690D01*
X69354Y24687D01*
X69364Y24685D01*
X69375Y24685D01*
X69360Y24626D01*
X69345Y24626D01*
X69287Y24622D01*
X69274Y24620D01*
X69235Y24613D01*
X69223Y24610D01*
X69310Y24742D01*
X69312Y24731D01*
D02*
G37*
G36*
X69235Y24531D02*
X69274Y24524D01*
X69287Y24522D01*
X69345Y24518D01*
X69360Y24518D01*
X69375Y24459D01*
X69364Y24458D01*
X69354Y24457D01*
X69345Y24454D01*
X69337Y24450D01*
X69330Y24444D01*
X69324Y24438D01*
X69319Y24431D01*
X69315Y24422D01*
X69312Y24412D01*
X69310Y24402D01*
X69223Y24534D01*
X69235Y24531D01*
D02*
G37*
G36*
X72096Y24019D02*
X72091Y24022D01*
X72085Y24025D01*
X72078Y24027D01*
X72071Y24029D01*
X72062Y24031D01*
X72053Y24033D01*
X72032Y24035D01*
X72021Y24035D01*
X72008Y24035D01*
Y24094D01*
X72015Y24095D01*
X72022Y24096D01*
X72027Y24097D01*
X72032Y24099D01*
X72037Y24102D01*
X72040Y24105D01*
X72043Y24109D01*
X72045Y24113D01*
X72047Y24118D01*
X72048Y24124D01*
X72096Y24019D01*
D02*
G37*
G36*
X71918Y23961D02*
X71927Y23954D01*
X71936Y23948D01*
X71946Y23942D01*
X71956Y23938D01*
X71966Y23934D01*
X71977Y23931D01*
X71988Y23929D01*
X71999Y23928D01*
X72010Y23927D01*
X72025Y23927D01*
X72135Y23933D01*
X72143Y23935D01*
X72047Y23814D01*
X72046Y23824D01*
X72044Y23833D01*
X72041Y23841D01*
X72037Y23848D01*
X72031Y23854D01*
X72024Y23859D01*
X72017Y23863D01*
X72008Y23866D01*
X71998Y23868D01*
X71987Y23868D01*
X72005Y23922D01*
X71939Y23868D01*
Y23898D01*
X71910Y23969D01*
X71918Y23961D01*
D02*
G37*
G36*
X71346Y23601D02*
X71351Y23591D01*
X71357Y23582D01*
X71364Y23574D01*
X71371Y23568D01*
X71379Y23562D01*
X71388Y23558D01*
X71397Y23555D01*
X71407Y23553D01*
X71418Y23553D01*
X71389Y23494D01*
X71381Y23494D01*
X71373Y23493D01*
X71363Y23491D01*
X71342Y23486D01*
X71317Y23479D01*
X71273Y23463D01*
X71342Y23613D01*
X71346Y23601D01*
D02*
G37*
G36*
X71261Y23392D02*
X71294Y23389D01*
X71337Y23387D01*
X71389Y23386D01*
X71409Y23327D01*
X71398Y23326D01*
X71388Y23325D01*
X71379Y23322D01*
X71371Y23318D01*
X71365Y23313D01*
X71359Y23307D01*
X71355Y23300D01*
X71352Y23292D01*
X71349Y23283D01*
X71348Y23272D01*
X71252Y23394D01*
X71261Y23392D01*
D02*
G37*
G36*
X76211Y26056D02*
X76202Y26046D01*
X76166Y26005D01*
X76163Y26001D01*
X76162Y25998D01*
X76161Y25995D01*
X76044Y26112D01*
X76047Y26113D01*
X76050Y26114D01*
X76054Y26117D01*
X76059Y26120D01*
X76071Y26130D01*
X76087Y26144D01*
X76105Y26162D01*
X76211Y26056D01*
D02*
G37*
G36*
X76918Y25939D02*
X76909Y25930D01*
X76873Y25889D01*
X76870Y25885D01*
X76869Y25881D01*
X76869Y25879D01*
X76752Y25996D01*
X76754Y25996D01*
X76757Y25998D01*
X76762Y26000D01*
X76766Y26004D01*
X76778Y26013D01*
X76794Y26027D01*
X76812Y26045D01*
X76918Y25939D01*
D02*
G37*
G36*
X76695Y26035D02*
X76731Y26003D01*
X76736Y26000D01*
X76740Y25997D01*
X76744Y25996D01*
X76747Y25996D01*
X76632Y25876D01*
X76632Y25878D01*
X76630Y25882D01*
X76628Y25886D01*
X76624Y25890D01*
X76614Y25902D01*
X76592Y25926D01*
X76582Y25936D01*
X76685Y26045D01*
X76695Y26035D01*
D02*
G37*
G36*
X79101Y25936D02*
X79142Y25900D01*
X79146Y25898D01*
X79150Y25896D01*
X79152Y25896D01*
X79035Y25779D01*
X79035Y25781D01*
X79033Y25785D01*
X79031Y25789D01*
X79028Y25794D01*
X79018Y25806D01*
X79004Y25821D01*
X78986Y25839D01*
X79092Y25945D01*
X79101Y25936D01*
D02*
G37*
G36*
X79985Y25695D02*
X79982Y25696D01*
X79979Y25698D01*
X79974Y25699D01*
X79969Y25700D01*
X79953Y25701D01*
X79932Y25702D01*
X79907Y25703D01*
Y25853D01*
X79920Y25853D01*
X79974Y25856D01*
X79979Y25857D01*
X79982Y25859D01*
X79985Y25860D01*
Y25695D01*
D02*
G37*
G36*
X79240Y25859D02*
X79243Y25857D01*
X79248Y25856D01*
X79254Y25855D01*
X79269Y25854D01*
X79290Y25853D01*
X79316Y25853D01*
Y25703D01*
X79302Y25702D01*
X79248Y25699D01*
X79243Y25698D01*
X79240Y25696D01*
X79238Y25695D01*
Y25860D01*
X79240Y25859D01*
D02*
G37*
G36*
X80260Y25016D02*
X80250Y25026D01*
X80229Y25043D01*
X80219Y25050D01*
X80209Y25056D01*
X80199Y25060D01*
X80189Y25064D01*
X80179Y25067D01*
X80169Y25068D01*
X80159Y25069D01*
Y25128D01*
X80169Y25128D01*
X80179Y25130D01*
X80189Y25133D01*
X80199Y25136D01*
X80209Y25141D01*
X80219Y25147D01*
X80229Y25154D01*
X80239Y25162D01*
X80250Y25171D01*
X80260Y25181D01*
Y25016D01*
D02*
G37*
G36*
X76069Y24708D02*
X76090Y24691D01*
X76100Y24684D01*
X76110Y24679D01*
X76120Y24674D01*
X76130Y24670D01*
X76140Y24667D01*
X76150Y24666D01*
X76160Y24665D01*
X76160Y24606D01*
X76150Y24606D01*
X76140Y24604D01*
X76130Y24602D01*
X76120Y24598D01*
X76110Y24593D01*
X76100Y24587D01*
X76090Y24580D01*
X76079Y24572D01*
X76069Y24563D01*
X76059Y24553D01*
X76059Y24719D01*
X76069Y24708D01*
D02*
G37*
G36*
X72984Y25024D02*
X72992Y25018D01*
X73001Y25013D01*
X73011Y25008D01*
X73021Y25005D01*
X73032Y25002D01*
X73043Y25000D01*
X73055Y24999D01*
X73068Y24999D01*
X73082Y25000D01*
X72973Y24875D01*
X72972Y24889D01*
X72967Y24915D01*
X72964Y24927D01*
X72961Y24938D01*
X72957Y24948D01*
X72952Y24958D01*
X72946Y24966D01*
X72940Y24975D01*
X72933Y24982D01*
X72976Y25031D01*
X72984Y25024D01*
D02*
G37*
G36*
X69227Y23234D02*
X69217Y23244D01*
X69207Y23252D01*
X69197Y23260D01*
X69187Y23266D01*
X69177Y23272D01*
X69167Y23276D01*
X69157Y23280D01*
X69147Y23282D01*
X69137Y23284D01*
X69127Y23284D01*
Y23349D01*
X69137Y23350D01*
X69147Y23351D01*
X69157Y23354D01*
X69167Y23357D01*
X69177Y23362D01*
X69187Y23367D01*
X69197Y23374D01*
X69207Y23382D01*
X69217Y23390D01*
X69227Y23400D01*
Y23234D01*
D02*
G37*
G54D11*
X79883Y22755D02*
X79961Y22677D01*
X79665Y22677D02*
X79743Y22755D01*
X79665Y22677D02*
Y22687D01*
X79961Y22677D02*
Y22687D01*
X74671Y22387D02*
X74685Y22402D01*
X74671Y21903D02*
Y22387D01*
X79743Y22755D02*
Y22836D01*
X79697Y22882D02*
X79743Y22836D01*
X79883Y22755D02*
Y22894D01*
X79755Y23022D02*
X79883Y22894D01*
X78621Y22882D02*
X79697D01*
X78563Y23022D02*
X79755D01*
X77735Y22193D02*
X78563Y23022D01*
X77793Y22053D02*
X78621Y22882D01*
X78689Y22174D02*
X78918D01*
X77898Y21382D02*
X78689Y22174D01*
X78918D02*
X78967Y22125D01*
X75148Y26004D02*
X75797Y26654D01*
X75148Y25266D02*
Y26004D01*
X75797Y26654D02*
Y27264D01*
X74811Y22222D02*
X74990Y22401D01*
X74811Y21961D02*
Y22222D01*
X75563Y23092D02*
X76003Y23531D01*
X75925Y23652D02*
X76309D01*
X75423Y23150D02*
X75925Y23652D01*
X76231Y23531D02*
X76349Y23413D01*
X76003Y23531D02*
X76231D01*
X73532Y22618D02*
X75275D01*
X73590Y22758D02*
X75217D01*
X72870Y22967D02*
Y22992D01*
Y22967D02*
X72916Y22920D01*
X82265Y21635D02*
Y21792D01*
X82114Y21484D02*
X82265Y21635D01*
X81930Y21484D02*
X82114D01*
X80001Y23413D02*
X81930Y21484D01*
X82056Y21624D02*
X82125Y21693D01*
X81988Y21624D02*
X82056D01*
X80059Y23553D02*
X81988Y21624D01*
X82125Y21693D02*
Y21792D01*
X74630Y20675D02*
X74799D01*
X75086Y20962D01*
X74264Y21240D02*
X74688Y20815D01*
X74741D01*
X75028Y21102D01*
X75473Y20908D02*
X75729Y21164D01*
X75531Y20768D02*
X75787Y21024D01*
X75028Y21102D02*
X75226D01*
X75086Y20962D02*
X75168D01*
X75421Y20908D02*
X75473D01*
X75363Y20768D02*
X75531D01*
X75168Y20962D02*
X75363Y20768D01*
X75226Y21102D02*
X75421Y20908D01*
X77840Y21522D02*
X78631Y22314D01*
X74373Y20933D02*
X74630Y20675D01*
X74373Y20933D02*
X74373D01*
X78976Y22314D02*
X79105Y22184D01*
X78631Y22314D02*
X78976D01*
X79105Y22066D02*
Y22184D01*
X74174Y21132D02*
X74373Y20933D01*
X73370Y22780D02*
X73491Y22659D01*
X73491D01*
X73532Y22618D01*
X75275D02*
X75563Y22907D01*
X73428Y22920D02*
X73590Y22758D01*
X75217D02*
X75423Y22965D01*
X75650Y27411D02*
X75797Y27264D01*
X78888Y21992D02*
X78967Y22071D01*
Y22125D01*
X72928Y22780D02*
X73370D01*
X72844Y22697D02*
X72928Y22780D01*
X72916Y22920D02*
X73428D01*
X75423Y22965D02*
Y23150D01*
X75563Y22907D02*
Y23092D01*
X76246Y22053D02*
X77793D01*
X76188Y22193D02*
X77735D01*
X76309Y23652D02*
X76407Y23553D01*
X76349Y23413D02*
X80001D01*
X75875Y21880D02*
X76188Y22193D01*
X74892Y21880D02*
X75875D01*
X74811Y21961D02*
X74892Y21880D01*
X75933Y21740D02*
X76246Y22053D01*
X74671Y21903D02*
X74834Y21740D01*
X75933D01*
X76407Y23553D02*
X80059D01*
X74264Y21240D02*
Y21358D01*
X74054Y21132D02*
X74174D01*
X75729Y21164D02*
X75889D01*
X76066Y20986D01*
X75787Y21024D02*
X75831D01*
X76008Y20846D01*
X76174D01*
X76361Y21033D01*
X76066Y20986D02*
X76116D01*
X76304Y21173D01*
X76464D01*
X76730Y20908D01*
X76361Y21033D02*
X76406D01*
X76672Y20768D01*
X76841D01*
X77455Y21382D02*
X77898D01*
X76730Y20908D02*
X76783D01*
X77397Y21522D02*
X77840D01*
X76783Y20908D02*
X77397Y21522D01*
X76841Y20768D02*
X77455Y21382D01*
G54D13*
X74872Y25148D02*
Y25898D01*
X73828Y27247D02*
X74075Y27493D01*
X73828Y26942D02*
Y27247D01*
Y26942D02*
X74872Y25898D01*
G54D29*
X79665Y22687D02*
D03*
X79961D02*
D03*
X80276Y22667D02*
D03*
X79350D02*
D03*
X72352Y26969D02*
D03*
X73091Y24882D02*
D03*
X85138Y21919D02*
D03*
X69832Y25974D02*
D03*
X69902Y25669D02*
D03*
X69921Y26260D02*
D03*
Y25000D02*
D03*
X69459Y25394D02*
D03*
X80846Y30433D02*
D03*
X73091Y25285D02*
D03*
X74232Y25265D02*
D03*
X74567Y24951D02*
D03*
X74872Y25148D02*
D03*
X76043Y25994D02*
D03*
X74528Y25256D02*
D03*
X75935Y25325D02*
D03*
X75148Y25266D02*
D03*
X75974Y24636D02*
D03*
X76750Y25878D02*
D03*
X74685Y22402D02*
D03*
X74990Y22401D02*
D03*
X72870Y22992D02*
D03*
X82067Y20886D02*
D03*
X82195Y22136D02*
D03*
X82343Y21870D02*
D03*
X81053Y20502D02*
D03*
X83071D02*
D03*
X88533Y21093D02*
D03*
X74764Y20463D02*
D03*
X77156Y20719D02*
D03*
X71014Y27343D02*
D03*
X70935Y26348D02*
D03*
X72165Y23819D02*
D03*
Y24114D02*
D03*
X69193Y24419D02*
D03*
Y24724D02*
D03*
X71683Y23829D02*
D03*
X68937Y24577D02*
D03*
X81339Y21742D02*
D03*
X94341Y23041D02*
D03*
X67392Y24281D02*
D03*
X94331Y29124D02*
D03*
Y28278D02*
D03*
X66565Y27539D02*
D03*
X65551Y27549D02*
D03*
X66565Y24587D02*
D03*
X94321Y23839D02*
D03*
X67392Y27844D02*
D03*
X71467Y22047D02*
D03*
X78169Y31457D02*
D03*
X81467Y32165D02*
D03*
X82500Y32264D02*
D03*
X76457Y32205D02*
D03*
X80610Y25984D02*
D03*
X76043Y26870D02*
D03*
X76516D02*
D03*
X75571Y26880D02*
D03*
X70945Y28494D02*
D03*
X70945Y29449D02*
D03*
X72766Y29154D02*
D03*
X73169Y30236D02*
D03*
X69941Y29449D02*
D03*
X67805Y29409D02*
D03*
X68878D02*
D03*
X67795Y28228D02*
D03*
X68868D02*
D03*
X68878Y23898D02*
D03*
Y22717D02*
D03*
X67805Y23898D02*
D03*
X65482Y23307D02*
D03*
X66663D02*
D03*
X65915Y25472D02*
D03*
Y26654D02*
D03*
X65482Y28819D02*
D03*
X66663D02*
D03*
X95217D02*
D03*
X96398D02*
D03*
X96388Y23307D02*
D03*
X95207D02*
D03*
X87677Y20630D02*
D03*
X75522Y29360D02*
D03*
X77638Y22510D02*
D03*
X82018Y22667D02*
D03*
X66545Y25620D02*
D03*
Y26506D02*
D03*
X66516Y23937D02*
D03*
X65630D02*
D03*
X66516Y28189D02*
D03*
X65630D02*
D03*
X96240Y28209D02*
D03*
X95354D02*
D03*
X96240Y23937D02*
D03*
X95354D02*
D03*
X71319Y22668D02*
D03*
X73150Y26870D02*
D03*
X72766Y30089D02*
D03*
X65551Y24596D02*
D03*
X72854Y23406D02*
D03*
X72766Y29774D02*
D03*
Y29459D02*
D03*
X77638Y23051D02*
D03*
X67805Y22717D02*
D03*
X82047Y21870D02*
D03*
X79429Y21821D02*
D03*
X72303Y28287D02*
D03*
X71998Y28287D02*
D03*
X72431Y28593D02*
D03*
X71860Y28002D02*
D03*
X75650Y27411D02*
D03*
X75148Y26880D02*
D03*
X74892Y27037D02*
D03*
X69880Y24094D02*
D03*
X69882Y23780D02*
D03*
X79980Y20295D02*
D03*
X77923D02*
D03*
X84094D02*
D03*
X79980Y20738D02*
D03*
X79026Y20295D02*
D03*
Y20738D02*
D03*
X74075Y27493D02*
D03*
X74596Y27045D02*
D03*
X74341Y26880D02*
D03*
X71260Y20148D02*
D03*
X70089Y20955D02*
D03*
X69882Y22835D02*
D03*
X69941Y28494D02*
D03*
X71250Y31978D02*
D03*
X70079Y31178D02*
D03*
X73150Y19961D02*
D03*
X72274D02*
D03*
X69311Y23317D02*
D03*
X78642Y21821D02*
D03*
X78888Y21992D02*
D03*
X79183Y21988D02*
D03*
X72648Y20699D02*
D03*
X73740Y21211D02*
D03*
X72844Y22697D02*
D03*
X72776Y22402D02*
D03*
X77638Y21762D02*
D03*
X76083Y23297D02*
D03*
X75906Y21388D02*
D03*
X75679Y22096D02*
D03*
X75305Y20464D02*
D03*
X77648Y25778D02*
D03*
X77648Y25148D02*
D03*
X87008Y22943D02*
D03*
X87018Y20187D02*
D03*
X74498Y20089D02*
D03*
X76850Y20541D02*
D03*
X75020Y22096D02*
D03*
X72854Y24380D02*
D03*
X74242Y22096D02*
D03*
X72972Y22086D02*
D03*
X80344Y25098D02*
D03*
X85305Y20315D02*
D03*
X85315Y20758D02*
D03*
X88819Y20177D02*
D03*
X85915Y20522D02*
D03*
X86093Y21043D02*
D03*
Y22057D02*
D03*
X87411Y21939D02*
D03*
Y21545D02*
D03*
Y21152D02*
D03*
X87018D02*
D03*
Y21939D02*
D03*
Y21545D02*
D03*
X72598Y25659D02*
D03*
X79154Y25778D02*
D03*
X80069D02*
D03*
X77638Y23986D02*
D03*
X77648Y24882D02*
D03*
X88533Y21959D02*
D03*
X86211Y20285D02*
D03*
X89016Y32136D02*
D03*
X89026Y29114D02*
D03*
X88819Y23031D02*
D03*
X89016Y26063D02*
D03*
X67579Y23307D02*
D03*
X67589Y28819D02*
D03*
X73306Y21205D02*
D03*
X73789Y20905D02*
D03*
X74264Y21358D02*
D03*
X74054Y21132D02*
D03*
X71260Y24232D02*
D03*
X71093Y25335D02*
D03*
X71260Y24892D02*
D03*
X71939Y25846D02*
D03*
X70935Y22904D02*
D03*
X71230Y23278D02*
D03*
X72205Y23150D02*
D03*
X71230Y23573D02*
D03*
X70935Y23770D02*
D03*
G54D47*
X73079Y24882D02*
X73091D01*
X72205Y25757D02*
X73079Y24882D01*
X72205Y25757D02*
Y26585D01*
X72147Y26642D02*
X72205Y26585D01*
X69377Y26642D02*
X72147D01*
X68720Y23317D02*
X69311D01*
X68661Y23376D02*
X68720Y23317D01*
X68661Y23376D02*
Y24931D01*
X69311Y26576D02*
X69377Y26642D01*
X69311Y25581D02*
Y26576D01*
X68661Y24931D02*
X69311Y25581D01*
G54D49*
X75906Y21382D02*
Y21388D01*
G54D50*
X69842Y25487D02*
Y25669D01*
X72241Y24413D02*
Y24774D01*
X72470Y23622D02*
Y24184D01*
X72241Y24413D02*
X72470Y24184D01*
X72638Y23553D02*
Y24253D01*
X72408Y24482D02*
X72638Y24253D01*
X72408Y24482D02*
Y24843D01*
X71101Y25914D02*
X72241Y24774D01*
X71171Y26081D02*
X72408Y24843D01*
X78658Y25098D02*
X80344D01*
X78195Y24636D02*
X78658Y25098D01*
X76857Y24636D02*
X78195D01*
X71309Y23356D02*
X72441D01*
X72638Y23553D01*
X72372Y23523D02*
X72470Y23622D01*
X71252Y23523D02*
X72372D01*
X69842Y25487D02*
X69887Y25443D01*
X70154D01*
X70792Y26081D01*
X70223Y25276D02*
X70861Y25914D01*
X69818Y25276D02*
X70223D01*
X69675Y25418D02*
X69818Y25276D01*
X69675Y25817D02*
X69832Y25974D01*
X69675Y25418D02*
Y25817D01*
X69842Y25669D02*
X69902D01*
X70861Y25914D02*
X71101D01*
X70792Y26081D02*
X71171D01*
X71230Y23545D02*
X71252Y23523D01*
X71230Y23278D02*
X71309Y23356D01*
X74319Y25057D02*
X74518Y25256D01*
X74145Y25057D02*
X74319D01*
X74459Y24951D02*
X74567D01*
X74398Y24890D02*
X74459Y24951D01*
X74076Y24890D02*
X74398D01*
X73496Y25470D02*
X74076Y24890D01*
X73663Y25539D02*
X74145Y25057D01*
X74518Y25256D02*
X74528D01*
X75974Y24636D02*
X75974Y24636D01*
X71939Y23898D02*
X71939D01*
X72087D01*
X72008Y24065D02*
X72116D01*
X72165Y24114D01*
X72087Y23898D02*
X72165Y23819D01*
X69262Y24655D02*
X70128D01*
X70285Y24498D01*
X70059Y24488D02*
X70118Y24429D01*
X69262Y24488D02*
X70059D01*
X69193Y24724D02*
X69262Y24655D01*
X69193Y24419D02*
X69262Y24488D01*
X73663Y25539D02*
Y25982D01*
X73496Y25470D02*
Y25913D01*
X72692Y29532D02*
X72766Y29459D01*
X72692Y29700D02*
X72766Y29774D01*
X72539Y29700D02*
X72692D01*
X72372Y28946D02*
X72598Y28720D01*
X71998Y28287D02*
X72067Y28218D01*
X72234Y28218D02*
X72303Y28287D01*
X72893Y26752D02*
X73663Y25982D01*
X74838Y27091D02*
X74892Y27037D01*
X72667Y28888D02*
X73455D01*
X74838Y27505D01*
Y27091D02*
Y27505D01*
X72598Y28720D02*
X73386D01*
X74671Y27435D01*
Y27119D02*
Y27435D01*
X72480Y29075D02*
X72667Y28888D01*
X72372Y28946D02*
Y28947D01*
X72313Y29006D02*
X72372Y28947D01*
X72480Y29075D02*
Y29485D01*
X72528Y29532D01*
X72692D01*
X72313Y29554D02*
X72459Y29700D01*
X72539D01*
X72539Y29700D01*
X72313Y29006D02*
Y29554D01*
X74596Y27045D02*
X74671Y27119D01*
X75974Y24636D02*
X76857D01*
X76857Y24636D01*
X72067Y28016D02*
Y28218D01*
X72726Y26683D02*
X73496Y25913D01*
X72726Y26683D02*
Y27356D01*
X72067Y28016D02*
X72726Y27356D01*
X72893Y26752D02*
Y27426D01*
X72234Y28085D02*
Y28218D01*
Y28085D02*
X72893Y27426D01*
X71418Y24655D02*
X72008Y24065D01*
X71349Y24488D02*
X71939Y23898D01*
X70712Y24655D02*
X71418D01*
X70722Y24429D02*
X70782Y24488D01*
X71349D01*
X70555Y24498D02*
X70712Y24655D01*
X70518Y22765D02*
X70555Y22803D01*
X70315Y22765D02*
X70518D01*
X70285Y22796D02*
X70315Y22765D01*
X70285Y22796D02*
Y24498D01*
X70118Y22726D02*
Y24429D01*
Y22726D02*
X70246Y22598D01*
X70588D01*
X70722Y22733D01*
X71230Y23545D02*
Y23573D01*
X70555Y22803D02*
Y24498D01*
X70722Y22733D02*
Y24429D01*
G54D51*
X73139Y21049D02*
X73329Y21238D01*
X73120Y19991D02*
Y21019D01*
X73341Y21240D02*
X73711D01*
G54D52*
X93720Y26063D02*
D03*
X68130D02*
D03*
G54D53*
X74203Y24370D02*
D03*
X74675Y24400D02*
D03*
X74675Y22982D02*
D03*
X74203Y24134D02*
D03*
X74242Y23691D02*
D03*
X74537D02*
D03*
X74823D02*
D03*
X75148Y24400D02*
D03*
X74675Y24045D02*
D03*
X75148D02*
D03*
X74675Y23337D02*
D03*
X75138Y23691D02*
D03*
X75148Y23346D02*
D03*
X75148Y22982D02*
D03*
X74203Y23189D02*
D03*
Y23425D02*
D03*
G54D60*
X79173Y25738D02*
X79213Y25778D01*
X78829Y26102D02*
X79154Y25778D01*
X76975Y26102D02*
X78829D01*
X76750Y25878D02*
X76975Y26102D01*
X76197Y26148D02*
X76476D01*
X76043Y25994D02*
X76197Y26148D01*
X76476D02*
X76747Y25878D01*
X76750D01*
X79213Y25778D02*
X80069D01*
G54D61*
X85315Y20758D02*
X85679D01*
X85086D02*
X85315D01*
X84249Y19921D02*
X85086Y20758D01*
X74498Y20089D02*
X74665Y19921D01*
X73120Y19991D02*
X73150Y19961D01*
X74370D01*
X74498Y20089D01*
X86555Y20630D02*
X87677D01*
X85925Y20522D02*
X86161Y20285D01*
X85915Y20522D02*
X85925D01*
X85679Y20758D02*
X85915Y20522D01*
X86211Y20285D02*
X86555Y20630D01*
X74665Y19921D02*
X84249D01*
M02*
