M48
;Layer_Color=9474304
;FILE_FORMAT=2:4
INCH,TZ
;TYPE=PLATED
T1F00S00C0.0157
T2F00S00C0.0335
T3F00S00C0.0394
T4F00S00C0.0945
T5F00S00C0.1260
%
T01
X30197Y14409
X30551
X31083Y14252
X31152Y15138
X32047Y14370
X32559
X32913
X33268
X33465Y15118
X35138Y14636
X35523Y14616
X34921Y14311
X36270
X36476Y14626
X36870Y14626
X37264Y14449
X37657Y14537
X38051
X38307Y14843
X38701Y14961
X39094
X39252Y15354
X39843Y14252
X41575
X42677Y14291
X37096Y15404
X47244Y20079
X48228Y21063
Y23031
X47244Y22047
Y24016
X48228Y25000
X47244Y25984
X47874Y29892
Y30472
X48228Y30866
X47047
X49409
X49764Y30463
Y29892
X48819Y29528
X50512Y30866
X45866
X44685
X43504
X42323
X42677Y30472
Y29882
X41732Y29528
X40787Y29882
X40315
Y30472
X40787
X41142Y30866
X39961
X38780
X38425Y30472
Y29882
X39370Y29528
X37598Y30866
X36417
X35236
X34055
X32874
X33228Y30472
Y29882
X32283Y29528
X31339Y29882
Y30472
X31693Y30866
X32894Y28573
X33580Y27726
X34390Y27844
Y27215
X34370Y26732
X33268Y26230
X33180Y25788
X32805Y25646
X32530Y25295
X32165Y25591
X32441Y25984
X32275Y26497
X31959Y26713
X31930Y27274
X31939Y24626
X31929Y23858
X31969Y23169
X31988Y22677
X32717Y23356
Y24409
X33101Y24036
X33484Y24045
X33623Y24420
X35433Y24016
X37394
X36417Y23031
X37394Y22047
X36417Y21063
X37394Y20079
X35433
X35482Y19213
X35492Y18839
X35335Y18445
X34941
X34744Y18110
X34665Y18740
X35531Y18120
X36299Y17657
Y17274
X35974Y17037
X36083Y16378
X35699
X35512Y16053
X36260Y16043
X37077Y16053
X38622Y16063
X36644Y17864
X34094Y17598
X33031Y17638
X32923Y16299
X31880Y16309
X31575Y17717
X31969Y18780
X32766Y19016
X33425Y19606
X34183Y20364
X32744Y20610
X31870Y20335
X32047Y21299
X32667Y21939
X35433Y22047
X38386Y21063
X40354
X41331Y20079
X39370
Y22047
X41331
X40354Y23031
X41331Y24016
X40354Y25000
X41331Y25984
X39370
X38386Y25000
Y23031
X39370Y24016
X42323Y23031
Y21063
X44291
X45268Y20079
X43307
Y22047
X45268
X44291Y23031
X45268Y24016
X44291Y25000
X45268Y25984
X43307
X42323Y25000
X43307Y24016
X46260Y23031
Y21063
Y25000
X36417
X37394Y25984
X35433
X36634Y27224
Y27854
Y28484
X34390
X34675Y15738
X30896Y17244
X30551Y18740
X29331Y18533
X28750Y18652
X28661Y19685
X29537Y19833
X29724Y20984
X28661Y20945
X27598
X26772Y21024
X26732Y20531
Y20138
X26772Y19646
X27598Y19685
X27559Y18622
X26772Y18622
X26024Y18868
Y19262
X25679Y19065
X26378Y20335
X25965Y21368
Y21801
X25620Y21585
X26535Y22520
X26850Y22835
X27224Y22648
Y23031
X27559Y23307
X27598Y22372
X28661Y22067
Y23346
X28681Y24616
X28780Y25669
X29380Y25295
X30571
X30207Y24616
X30827Y23927
X30020Y23484
X29567Y23871
X30709Y22638
X30167Y22003
X30443Y21594
X30748Y21260
X30679Y20423
X27550Y17510
X23583Y17677
X22598Y17520
Y17874
Y18228
X19921Y18406
Y17992
Y17559
X18396Y22638
X19144Y26711
X18465Y27392
X17844Y28351
X17517Y28976
X16545Y28351
X17215Y26890
X19282Y28337
X19675
Y28730
X19282
X19267Y29446
X20247Y27913
X21625Y28652
X22318Y30972
X25340Y31117
X26671Y30827
X26457Y29685
X27087
X27559Y29252
Y28740
X27087Y27795
X26457
X25118
X24488
X24656Y26230
X24646Y25679
X25128Y25079
X26083Y25295
X26535Y25669
Y26339
X27146Y26477
X27511Y26211
X27501Y25788
X27569Y25305
X27303Y24390
X26752Y24626
X26535Y23189
X24646
Y22520
X24488Y29685
X25118
X29134Y29252
X31073Y28573
X30591Y30866
X15315Y30807
Y30217
X15197Y29793
X14656
X14065
X13474
X12884
X12480Y30256
Y30846
X12569Y26486
X13504Y24862
X13937
X13504Y23238
Y22382
X13937Y22372
X12156Y20758
X12165Y17677
X15305Y26654
X15453Y27096
Y27618
Y28140
X15315Y31988
X15197Y32451
X14646
X14055
X13465
X12874
X12480Y32028
Y31437
X17717Y32756
X17520Y36191
X17904Y36202
X18169Y36467
X17234
X18032Y38150
X19341Y35423
X20039Y35039
Y34646
Y34252
X21142Y36102
X21339Y32215
X23622Y32283
X24409Y33543
X25394
X26378
X27362
X28386
X29370
X30591Y33819
X31211Y34213
X30591Y35000
X30906Y35640
X31033Y36122
X30591Y36181
Y37008
X31033Y36654
X30591Y37953
X29370Y35236
X28386
X27362
X26378
X25394
X24409
X26319Y32411
X28209Y31299
X29783Y31850
X30591Y31811
Y32638
X31545Y32756
X32175Y32539
Y33110
X32185Y33632
X32333Y34213
X33130Y34321
Y34843
X33563Y35394
X34272
Y36437
X33563
X32874Y37126
Y37953
X33228Y38346
Y38927
X34055Y37953
X35236
X36417
X37008Y37362
Y36181
Y35000
Y33819
X37835
X38474Y33976
X38986
X38967Y33228
X38494
Y32756
X38967
X39331Y32185
X39695Y32367
X39893Y32698
X40315Y32677
X40561Y31909
X41142Y31654
X41122Y32333
X41457Y32845
X42047Y33346
X41885Y34259
X42416Y34259
X42628Y34843
X42116
X42136Y35591
Y36063
X42608
Y35591
X43346Y35837
X43425Y36634
Y37283
X43504Y37953
X42323
X42677Y38346
Y38937
X40787
X40315
Y38346
X40787
X41142Y37953
Y37165
X40541Y36909
X39961Y37165
X39980Y36486
X39646Y35974
X39055Y35472
X39218Y34560
X38686Y34560
X40079Y34409
X40177Y35276
X41142
X41102Y34409
X40994Y33543
X39961
Y31654
X37677Y31535
Y32185
X37756Y32992
X37008Y32638
X36260Y33031
X36063Y33819
X35000
X34882Y34488
X34075
X34094Y33632
Y33110
X33366Y33130
Y33602
X32894
Y33130
X32795Y32244
X33652Y32254
X34803Y33031
X37008Y31457
X42835Y31850
X44094Y31457
Y32638
Y33819
Y35000
X43228
X45039
X44843Y35787
X44094Y36181
Y37362
X44685Y37953
X45866
X46299Y35787
X46102Y35000
X46220Y34331
X46831Y33425
Y32382
X41772Y36634
X41407Y36452
X41209Y36121
X40787Y36142
X39961Y37953
X38780
X38425Y38346
Y38937
X37598Y37953
X38268Y36969
X31693Y37126
Y36378
X32461Y35906
X31693Y37953
X31339Y38356
Y38927
X47874Y38937
Y38346
X48228Y37953
X47047
X47480Y37008
X48307Y36575
X48927Y36280
Y35709
X48927Y35187
X48770Y34606
X47972Y34498
Y33976
X47539Y33425
Y32382
X48228Y31693
X49409
Y32441
X50069Y32697
X50512Y32638
Y31811
X50069Y32165
X50197Y33179
X50512Y33819
Y35000
X49892Y34606
X50512Y36181
Y37008
Y37953
X49409
X49764Y38346
Y38937
X49311Y36909
X48209Y35689
X47736
Y35217
X48209
X47008Y35197
Y35709
X47028Y34331
X48642Y32913
T02
X17037Y37608
X19006
T03
X19291Y23622
X20866Y23642
X22461Y23632
X24016Y23622
X19400Y38671
X16644
T04
X48642Y18327
X48642Y27854
T05
X14764Y15492
Y34390
X14764Y36713
M30
