G04*
G04 #@! TF.GenerationSoftware,Altium Limited,Altium Designer,18.1.6 (161)*
G04*
G04 Layer_Color=8388736*
%FSLAX24Y24*%
%MOIN*%
G70*
G01*
G75*
%ADD27R,0.0315X0.0315*%
%ADD67R,0.4252X0.6299*%
%ADD68R,0.6309X0.3829*%
%ADD69R,0.0315X0.0315*%
%ADD70R,0.2165X0.0787*%
%ADD71R,1.3701X0.2352*%
%ADD72R,1.3780X0.6693*%
%ADD73R,0.0395X0.0395*%
%ADD74O,0.0276X0.0157*%
%ADD75O,0.0157X0.0276*%
%ADD76R,0.0680X0.0580*%
%ADD77R,0.0671X0.1655*%
%ADD78R,0.0356X0.1734*%
%ADD79R,0.0356X0.1340*%
%ADD80R,0.0395X0.0395*%
%ADD81O,0.0316X0.0218*%
%ADD82O,0.0218X0.0316*%
%ADD83R,0.0216X0.0609*%
%ADD84R,0.0827X0.0236*%
%ADD85R,0.0474X0.1340*%
%ADD86R,0.1261X0.0710*%
%ADD87R,0.2639X0.2442*%
%ADD88R,0.0946X0.0513*%
%ADD89R,0.0493X0.0474*%
%ADD90R,0.0671X0.0828*%
%ADD91R,0.0828X0.0828*%
%ADD92R,0.0474X0.1871*%
%ADD93R,0.1576X0.0474*%
%ADD94R,0.1871X0.0474*%
%ADD95R,0.0474X0.1576*%
%ADD96R,0.0395X0.0356*%
%ADD97R,0.0395X0.0552*%
%ADD98R,0.0631X0.0552*%
%ADD99R,0.1005X0.0552*%
%ADD100R,0.0336X0.0474*%
%ADD101R,0.0513X0.0474*%
%ADD102R,0.0592X0.0769*%
%ADD103R,0.0513X0.0946*%
%ADD104R,0.0474X0.0493*%
%ADD105R,0.1104X0.1104*%
%ADD106R,0.0611X0.0356*%
%ADD107R,0.0828X0.0356*%
G04:AMPARAMS|DCode=108|XSize=82.8mil|YSize=137.9mil|CornerRadius=0mil|HoleSize=0mil|Usage=FLASHONLY|Rotation=90.000|XOffset=0mil|YOffset=0mil|HoleType=Round|Shape=Octagon|*
%AMOCTAGOND108*
4,1,8,-0.0690,-0.0207,-0.0690,0.0207,-0.0483,0.0414,0.0483,0.0414,0.0690,0.0207,0.0690,-0.0207,0.0483,-0.0414,-0.0483,-0.0414,-0.0690,-0.0207,0.0*
%
%ADD108OCTAGOND108*%

%ADD109R,0.0395X0.0316*%
%ADD110R,0.0395X0.0434*%
G04:AMPARAMS|DCode=111|XSize=35.4mil|YSize=19.7mil|CornerRadius=5.9mil|HoleSize=0mil|Usage=FLASHONLY|Rotation=270.000|XOffset=0mil|YOffset=0mil|HoleType=Round|Shape=RoundedRectangle|*
%AMROUNDEDRECTD111*
21,1,0.0354,0.0079,0,0,270.0*
21,1,0.0236,0.0197,0,0,270.0*
1,1,0.0118,-0.0039,-0.0118*
1,1,0.0118,-0.0039,0.0118*
1,1,0.0118,0.0039,0.0118*
1,1,0.0118,0.0039,-0.0118*
%
%ADD111ROUNDEDRECTD111*%
G04:AMPARAMS|DCode=112|XSize=19.7mil|YSize=19.7mil|CornerRadius=5.9mil|HoleSize=0mil|Usage=FLASHONLY|Rotation=90.000|XOffset=0mil|YOffset=0mil|HoleType=Round|Shape=RoundedRectangle|*
%AMROUNDEDRECTD112*
21,1,0.0197,0.0079,0,0,90.0*
21,1,0.0079,0.0197,0,0,90.0*
1,1,0.0118,0.0039,0.0039*
1,1,0.0118,0.0039,-0.0039*
1,1,0.0118,-0.0039,-0.0039*
1,1,0.0118,-0.0039,0.0039*
%
%ADD112ROUNDEDRECTD112*%
G04:AMPARAMS|DCode=113|XSize=35.4mil|YSize=19.7mil|CornerRadius=5.9mil|HoleSize=0mil|Usage=FLASHONLY|Rotation=0.000|XOffset=0mil|YOffset=0mil|HoleType=Round|Shape=RoundedRectangle|*
%AMROUNDEDRECTD113*
21,1,0.0354,0.0079,0,0,0.0*
21,1,0.0236,0.0197,0,0,0.0*
1,1,0.0118,0.0118,-0.0039*
1,1,0.0118,-0.0118,-0.0039*
1,1,0.0118,-0.0118,0.0039*
1,1,0.0118,0.0118,0.0039*
%
%ADD113ROUNDEDRECTD113*%
G04:AMPARAMS|DCode=114|XSize=19.7mil|YSize=19.7mil|CornerRadius=5.9mil|HoleSize=0mil|Usage=FLASHONLY|Rotation=180.000|XOffset=0mil|YOffset=0mil|HoleType=Round|Shape=RoundedRectangle|*
%AMROUNDEDRECTD114*
21,1,0.0197,0.0079,0,0,180.0*
21,1,0.0079,0.0197,0,0,180.0*
1,1,0.0118,-0.0039,0.0039*
1,1,0.0118,0.0039,0.0039*
1,1,0.0118,0.0039,-0.0039*
1,1,0.0118,-0.0039,-0.0039*
%
%ADD114ROUNDEDRECTD114*%
G04:AMPARAMS|DCode=115|XSize=98.6mil|YSize=134mil|CornerRadius=0mil|HoleSize=0mil|Usage=FLASHONLY|Rotation=270.000|XOffset=0mil|YOffset=0mil|HoleType=Round|Shape=Octagon|*
%AMOCTAGOND115*
4,1,8,0.0670,0.0246,0.0670,-0.0246,0.0424,-0.0493,-0.0424,-0.0493,-0.0670,-0.0246,-0.0670,0.0246,-0.0424,0.0493,0.0424,0.0493,0.0670,0.0246,0.0*
%
%ADD115OCTAGOND115*%

G04:AMPARAMS|DCode=116|XSize=86.7mil|YSize=134mil|CornerRadius=0mil|HoleSize=0mil|Usage=FLASHONLY|Rotation=270.000|XOffset=0mil|YOffset=0mil|HoleType=Round|Shape=Octagon|*
%AMOCTAGOND116*
4,1,8,0.0670,0.0217,0.0670,-0.0217,0.0453,-0.0434,-0.0453,-0.0434,-0.0670,-0.0217,-0.0670,0.0217,-0.0453,0.0434,0.0453,0.0434,0.0670,0.0217,0.0*
%
%ADD116OCTAGOND116*%

%ADD117C,0.2049*%
%ADD118C,0.0867*%
%ADD119C,0.1852*%
G36*
X33661Y32835D02*
X32717D01*
X32598Y32953D01*
Y33898D01*
X33661D01*
Y32835D01*
D02*
G37*
G36*
X39262Y33524D02*
Y32579D01*
X39144Y32461D01*
X38199D01*
Y33524D01*
X39262D01*
D02*
G37*
G36*
X41841Y35295D02*
Y36240D01*
X41959Y36358D01*
X42904D01*
Y35295D01*
X41841D01*
D02*
G37*
G36*
X47441Y35984D02*
X48386D01*
X48504Y35866D01*
Y34921D01*
X47441D01*
Y35984D01*
D02*
G37*
G54D27*
X19675Y28730D02*
D03*
X19282Y28337D02*
D03*
G54D67*
X13937Y36220D02*
D03*
G54D68*
X14966Y15497D02*
D03*
G54D69*
X19282Y28730D02*
D03*
X19675Y28337D02*
D03*
G54D70*
X26476Y15945D02*
D03*
G54D71*
X36280Y12889D02*
D03*
G54D72*
X42323Y23031D02*
D03*
G54D73*
X18465Y27746D02*
D03*
Y28337D02*
D03*
X22874Y19075D02*
D03*
Y18484D02*
D03*
X26673Y32835D02*
D03*
Y32244D02*
D03*
X34528Y33455D02*
D03*
Y34045D02*
D03*
X46585Y35364D02*
D03*
Y34774D02*
D03*
X22323Y30620D02*
D03*
Y30030D02*
D03*
X29615Y32781D02*
D03*
Y32190D02*
D03*
X48819Y32303D02*
D03*
Y31713D02*
D03*
X32283Y36516D02*
D03*
Y37106D02*
D03*
X49587Y34596D02*
D03*
Y34006D02*
D03*
X31516Y34222D02*
D03*
Y34813D02*
D03*
X49232Y35689D02*
D03*
Y36280D02*
D03*
X31870Y33130D02*
D03*
Y32539D02*
D03*
G54D74*
X20059Y28238D02*
D03*
Y28435D02*
D03*
Y28632D02*
D03*
Y28829D02*
D03*
X18898D02*
D03*
Y28632D02*
D03*
Y28435D02*
D03*
Y28238D02*
D03*
G54D75*
X19774Y29114D02*
D03*
X19577D02*
D03*
X19380D02*
D03*
X19183D02*
D03*
Y27953D02*
D03*
X19380D02*
D03*
X19577D02*
D03*
X19774D02*
D03*
G54D76*
X17205Y28258D02*
D03*
Y27465D02*
D03*
G54D77*
X28848Y32146D02*
D03*
X27431D02*
D03*
X22323Y28681D02*
D03*
X20906D02*
D03*
G54D78*
X34902Y13189D02*
D03*
X36083D02*
D03*
X36476D02*
D03*
X35689D02*
D03*
X37264D02*
D03*
X35295D02*
D03*
X33720D02*
D03*
X33327D02*
D03*
X32146D02*
D03*
X31358D02*
D03*
X30965D02*
D03*
X32539D02*
D03*
X30571D02*
D03*
X31752D02*
D03*
X32933D02*
D03*
X30177D02*
D03*
X29783D02*
D03*
X42776D02*
D03*
X38445D02*
D03*
X38051D02*
D03*
X37657D02*
D03*
X39232D02*
D03*
X41988D02*
D03*
X41201D02*
D03*
X40413D02*
D03*
X39626D02*
D03*
X41594D02*
D03*
X38839D02*
D03*
X40020D02*
D03*
X40807D02*
D03*
G54D79*
X36870Y13386D02*
D03*
X42382D02*
D03*
G54D80*
X18622Y36171D02*
D03*
X19213D02*
D03*
X16793Y32756D02*
D03*
X17383D02*
D03*
X15453Y29449D02*
D03*
X16043D02*
D03*
X27303Y24094D02*
D03*
X26713D02*
D03*
X12185Y27992D02*
D03*
X12776D02*
D03*
Y27520D02*
D03*
X12185D02*
D03*
X12776Y27047D02*
D03*
X12185D02*
D03*
X32874Y31752D02*
D03*
X32283D02*
D03*
X39970Y32224D02*
D03*
X40561D02*
D03*
X38780Y31752D02*
D03*
X39370D02*
D03*
X48228Y37067D02*
D03*
X48819D02*
D03*
X41132Y36594D02*
D03*
X40541D02*
D03*
X42323Y37067D02*
D03*
X41732D02*
D03*
X38179Y36260D02*
D03*
X38770D02*
D03*
X42923Y32559D02*
D03*
X42333D02*
D03*
X49582Y33494D02*
D03*
X48991D02*
D03*
X31521Y35325D02*
D03*
X32111D02*
D03*
X20490Y30404D02*
D03*
X19900D02*
D03*
X19291Y29852D02*
D03*
X19882D02*
D03*
X18612Y36791D02*
D03*
X19203D02*
D03*
X18475Y28986D02*
D03*
X17885D02*
D03*
X15069Y27096D02*
D03*
X14478D02*
D03*
X15069Y27614D02*
D03*
X14478D02*
D03*
X15069Y28139D02*
D03*
X14478D02*
D03*
X38770Y37028D02*
D03*
X39360D02*
D03*
X42333Y31791D02*
D03*
X41742D02*
D03*
X38780Y35172D02*
D03*
X38189D02*
D03*
X42323Y33647D02*
D03*
X42913D02*
D03*
X38770Y35709D02*
D03*
X38179D02*
D03*
X42333Y33110D02*
D03*
X42923D02*
D03*
X48986Y32913D02*
D03*
X49577D02*
D03*
X32116Y35906D02*
D03*
X31526D02*
D03*
X48401Y34104D02*
D03*
X48991D02*
D03*
X32702Y34715D02*
D03*
X32111D02*
D03*
X41211Y35707D02*
D03*
X40620D02*
D03*
X39892Y33112D02*
D03*
X40482D02*
D03*
G54D81*
X41644Y36211D02*
D03*
Y35955D02*
D03*
Y35699D02*
D03*
Y35443D02*
D03*
X43100D02*
D03*
Y35699D02*
D03*
Y35955D02*
D03*
Y36211D02*
D03*
X38002Y32608D02*
D03*
Y32864D02*
D03*
Y33120D02*
D03*
Y33376D02*
D03*
X39459D02*
D03*
Y33120D02*
D03*
Y32864D02*
D03*
Y32608D02*
D03*
X48701Y35837D02*
D03*
Y35581D02*
D03*
Y35325D02*
D03*
Y35069D02*
D03*
X47244D02*
D03*
Y35325D02*
D03*
Y35581D02*
D03*
Y35837D02*
D03*
X32402Y32982D02*
D03*
Y33238D02*
D03*
Y33494D02*
D03*
Y33750D02*
D03*
X33858D02*
D03*
Y33494D02*
D03*
Y33238D02*
D03*
Y32982D02*
D03*
G54D82*
X41988Y35098D02*
D03*
X42244D02*
D03*
X42500D02*
D03*
X42756D02*
D03*
Y36555D02*
D03*
X42500D02*
D03*
X42244D02*
D03*
X41988D02*
D03*
X39114Y32264D02*
D03*
X38858D02*
D03*
X38602D02*
D03*
X38346D02*
D03*
Y33720D02*
D03*
X38602D02*
D03*
X38858D02*
D03*
X39114D02*
D03*
X48356Y34724D02*
D03*
X48100D02*
D03*
X47844D02*
D03*
X47589D02*
D03*
Y36181D02*
D03*
X47844D02*
D03*
X48100D02*
D03*
X48356D02*
D03*
X32746Y34094D02*
D03*
X33002D02*
D03*
X33258D02*
D03*
X33514D02*
D03*
Y32638D02*
D03*
X33258D02*
D03*
X33002D02*
D03*
X32746D02*
D03*
G54D83*
X18022Y37569D02*
D03*
X18278D02*
D03*
X18533D02*
D03*
X17766D02*
D03*
X17510D02*
D03*
G54D84*
X28110Y21437D02*
D03*
Y21752D02*
D03*
Y18917D02*
D03*
Y19232D02*
D03*
Y20177D02*
D03*
Y20492D02*
D03*
Y23957D02*
D03*
Y23642D02*
D03*
Y23327D02*
D03*
Y23012D02*
D03*
Y22697D02*
D03*
Y22382D02*
D03*
Y22067D02*
D03*
Y21122D02*
D03*
Y20807D02*
D03*
Y19862D02*
D03*
Y19547D02*
D03*
Y18602D02*
D03*
X31339Y18445D02*
D03*
Y18760D02*
D03*
Y19075D02*
D03*
Y19390D02*
D03*
Y19705D02*
D03*
Y20020D02*
D03*
Y20335D02*
D03*
Y20650D02*
D03*
Y20965D02*
D03*
Y21280D02*
D03*
Y21594D02*
D03*
Y21909D02*
D03*
Y22224D02*
D03*
Y22539D02*
D03*
Y22854D02*
D03*
Y23169D02*
D03*
Y23484D02*
D03*
Y23799D02*
D03*
Y25374D02*
D03*
Y25689D02*
D03*
Y26004D02*
D03*
Y26319D02*
D03*
Y26634D02*
D03*
Y26949D02*
D03*
Y27264D02*
D03*
Y27579D02*
D03*
X28110Y27736D02*
D03*
Y27421D02*
D03*
Y27106D02*
D03*
Y26791D02*
D03*
Y26476D02*
D03*
Y26161D02*
D03*
Y25846D02*
D03*
Y25531D02*
D03*
G54D85*
X20260Y18025D02*
D03*
X21260D02*
D03*
X22260D02*
D03*
X24390Y34341D02*
D03*
X25390D02*
D03*
X26390D02*
D03*
X28390D02*
D03*
X27390D02*
D03*
X29390D02*
D03*
X22378Y34754D02*
D03*
X21378D02*
D03*
X20378D02*
D03*
G54D86*
X16457Y32028D02*
D03*
Y30217D02*
D03*
G54D87*
X13898Y31122D02*
D03*
G54D88*
X26772Y29331D02*
D03*
Y28150D02*
D03*
X24803D02*
D03*
Y29331D02*
D03*
G54D89*
X26142Y28740D02*
D03*
X25433D02*
D03*
G54D90*
X18415Y38671D02*
D03*
X17628D02*
D03*
G54D91*
X19282D02*
D03*
X16762D02*
D03*
X16880Y37726D02*
D03*
X19163D02*
D03*
G54D92*
X36673Y31900D02*
D03*
X30256D02*
D03*
Y36919D02*
D03*
X36673D02*
D03*
X50846Y31900D02*
D03*
X44429D02*
D03*
Y36919D02*
D03*
X50846D02*
D03*
X43760Y31900D02*
D03*
X37343D02*
D03*
Y36919D02*
D03*
X43760D02*
D03*
G54D93*
X33465Y31201D02*
D03*
Y37618D02*
D03*
X47638Y31201D02*
D03*
Y37618D02*
D03*
X40551Y31201D02*
D03*
Y37618D02*
D03*
G54D94*
X35974Y31201D02*
D03*
X30955D02*
D03*
Y37618D02*
D03*
X35974D02*
D03*
X50148Y31201D02*
D03*
X45128D02*
D03*
Y37618D02*
D03*
X50148D02*
D03*
X43061Y31201D02*
D03*
X38041D02*
D03*
Y37618D02*
D03*
X43061D02*
D03*
G54D95*
X30256Y34409D02*
D03*
X36673D02*
D03*
X44429Y34409D02*
D03*
X50846D02*
D03*
X37343Y34409D02*
D03*
X43760D02*
D03*
G54D96*
X36339Y28484D02*
D03*
Y27854D02*
D03*
Y27224D02*
D03*
X34685Y27854D02*
D03*
Y27224D02*
D03*
Y28484D02*
D03*
G54D97*
X13504Y24484D02*
D03*
Y22760D02*
D03*
X13937Y23622D02*
D03*
Y22760D02*
D03*
Y24484D02*
D03*
X13504Y23622D02*
D03*
G54D98*
X12165Y26484D02*
D03*
G54D99*
X17628Y26327D02*
D03*
G54D100*
X18140Y23413D02*
D03*
G54D101*
X12106Y21091D02*
D03*
G54D102*
X18012Y22677D02*
D03*
G54D103*
X25000Y25984D02*
D03*
X26181D02*
D03*
Y22835D02*
D03*
X25000D02*
D03*
X48228Y30157D02*
D03*
X49409D02*
D03*
X32874Y38661D02*
D03*
X31693D02*
D03*
X39961Y38661D02*
D03*
X38780D02*
D03*
X41142Y30157D02*
D03*
X42323D02*
D03*
X49409Y38661D02*
D03*
X48228D02*
D03*
X31693Y30157D02*
D03*
X32874D02*
D03*
X42323Y38661D02*
D03*
X41142D02*
D03*
X38780Y30157D02*
D03*
X39961D02*
D03*
G54D104*
X25591Y25354D02*
D03*
Y23465D02*
D03*
X48819Y30787D02*
D03*
X32283Y38031D02*
D03*
X39370Y38031D02*
D03*
X41732Y30787D02*
D03*
X48819Y38031D02*
D03*
X32283Y30787D02*
D03*
X41732Y38031D02*
D03*
X39370Y30787D02*
D03*
G54D105*
X22382Y26713D02*
D03*
X19862D02*
D03*
G54D106*
X48233Y33494D02*
D03*
Y32313D02*
D03*
X32869Y35325D02*
D03*
Y36506D02*
D03*
G54D107*
X48125Y32904D02*
D03*
X32977Y35915D02*
D03*
G54D108*
X47141Y32904D02*
D03*
X33962Y35915D02*
D03*
G54D109*
X39980Y36220D02*
D03*
Y35709D02*
D03*
X39311Y36220D02*
D03*
X41122Y32598D02*
D03*
Y33110D02*
D03*
X41791Y32598D02*
D03*
G54D110*
X39311Y35748D02*
D03*
X41791Y33071D02*
D03*
G54D111*
X50394Y33179D02*
D03*
X50000D02*
D03*
X30709Y35640D02*
D03*
X31102D02*
D03*
G54D112*
X50197Y32864D02*
D03*
Y33494D02*
D03*
X30906Y35955D02*
D03*
Y35325D02*
D03*
G54D113*
X38686Y34756D02*
D03*
Y34363D02*
D03*
X42416Y34062D02*
D03*
Y34456D02*
D03*
G54D114*
X39001Y34560D02*
D03*
X38371D02*
D03*
X42101Y34259D02*
D03*
X42731D02*
D03*
G54D115*
X28346Y28858D02*
D03*
G54D116*
Y17323D02*
D03*
G54D117*
X14764Y36713D02*
D03*
X14764Y34390D02*
D03*
Y15492D02*
D03*
G54D118*
X20866Y23642D02*
D03*
X22461Y23632D02*
D03*
X19291Y23622D02*
D03*
X24016D02*
D03*
G54D119*
X48642Y27854D02*
D03*
X48642Y18327D02*
D03*
M02*
