G04*
G04 #@! TF.GenerationSoftware,Altium Limited,Altium Designer,18.1.6 (161)*
G04*
G04 Layer_Physical_Order=3*
G04 Layer_Color=16440176*
%FSLAX24Y24*%
%MOIN*%
G70*
G01*
G75*
%ADD10C,0.0098*%
%ADD125C,0.0126*%
%ADD129C,0.0209*%
%ADD134C,0.0551*%
%ADD135C,0.0472*%
%ADD136C,0.0787*%
%ADD137C,0.1772*%
%ADD138C,0.0315*%
%ADD139C,0.0130*%
%ADD140C,0.0087*%
%ADD141C,0.0067*%
G36*
X51033Y16979D02*
X43425D01*
Y16981D01*
X43284Y16962D01*
X43153Y16908D01*
X43040Y16822D01*
X42954Y16709D01*
X42900Y16578D01*
X42881Y16437D01*
X42883D01*
Y12598D01*
X34834D01*
Y14499D01*
X34884Y14509D01*
X34890Y14493D01*
X34936Y14434D01*
X34995Y14388D01*
X35064Y14360D01*
X35138Y14350D01*
X35212Y14360D01*
X35281Y14388D01*
X35318Y14417D01*
X35321Y14414D01*
X35380Y14369D01*
X35449Y14340D01*
X35523Y14330D01*
X35597Y14340D01*
X35666Y14369D01*
X35725Y14414D01*
X35770Y14473D01*
X35799Y14542D01*
X35809Y14616D01*
X35799Y14690D01*
X35770Y14759D01*
X35725Y14818D01*
X35666Y14864D01*
X35597Y14892D01*
X35523Y14902D01*
X35449Y14892D01*
X35380Y14864D01*
X35342Y14835D01*
X35340Y14838D01*
X35281Y14883D01*
X35212Y14912D01*
X35138Y14922D01*
X35064Y14912D01*
X34995Y14883D01*
X34936Y14838D01*
X34890Y14779D01*
X34883Y14762D01*
X34832Y14769D01*
X34817Y14880D01*
X34791Y14942D01*
X34827Y14986D01*
X34833Y14985D01*
X36753D01*
X36788Y14951D01*
X36789Y14944D01*
X36774Y14893D01*
X36727Y14874D01*
X36673Y14832D01*
X36619Y14874D01*
X36550Y14902D01*
X36476Y14912D01*
X36402Y14902D01*
X36333Y14874D01*
X36274Y14828D01*
X36229Y14769D01*
X36200Y14700D01*
X36190Y14626D01*
X36200Y14552D01*
X36229Y14483D01*
X36274Y14424D01*
X36333Y14378D01*
X36402Y14350D01*
X36476Y14340D01*
X36550Y14350D01*
X36619Y14378D01*
X36673Y14420D01*
X36727Y14378D01*
X36796Y14350D01*
X36870Y14340D01*
X36944Y14350D01*
X37013Y14378D01*
X37072Y14424D01*
X37118Y14483D01*
X37146Y14552D01*
X37156Y14626D01*
X37146Y14700D01*
X37118Y14769D01*
X37087Y14809D01*
X37111Y14859D01*
X37563D01*
X37573Y14809D01*
X37515Y14785D01*
X37455Y14740D01*
X37410Y14680D01*
X37381Y14611D01*
X37372Y14537D01*
X37381Y14463D01*
X37410Y14394D01*
X37455Y14335D01*
X37515Y14290D01*
X37583Y14261D01*
X37657Y14251D01*
X37731Y14261D01*
X37800Y14290D01*
X37854Y14331D01*
X37908Y14290D01*
X37977Y14261D01*
X38051Y14251D01*
X38125Y14261D01*
X38194Y14290D01*
X38253Y14335D01*
X38299Y14394D01*
X38327Y14463D01*
X38337Y14537D01*
X38327Y14611D01*
X38299Y14680D01*
X38253Y14740D01*
X38194Y14785D01*
X38125Y14814D01*
X38080Y14820D01*
Y14983D01*
X38068Y15045D01*
X38032Y15098D01*
X38032Y15098D01*
X37868Y15263D01*
X37815Y15298D01*
X37753Y15310D01*
X37066D01*
X36988Y15389D01*
X36935Y15424D01*
X36873Y15436D01*
X34952D01*
X34842Y15546D01*
X34790Y15581D01*
X34727Y15594D01*
X33751D01*
X33735Y15609D01*
X33683Y15644D01*
X33620Y15657D01*
X33412D01*
X29987Y19081D01*
X29934Y19117D01*
X29872Y19129D01*
X29108D01*
X29067Y19170D01*
X29014Y19205D01*
X28952Y19218D01*
X28326D01*
X28297Y19247D01*
X28244Y19282D01*
X28182Y19294D01*
X26305D01*
X26300Y19336D01*
X26271Y19405D01*
X26226Y19464D01*
X26167Y19509D01*
X26098Y19538D01*
X26024Y19548D01*
X25950Y19538D01*
X25881Y19509D01*
X25821Y19464D01*
X25776Y19405D01*
X25747Y19336D01*
X25738Y19262D01*
X25747Y19188D01*
X25776Y19119D01*
X25817Y19065D01*
X25776Y19011D01*
X25747Y18942D01*
X25738Y18868D01*
X25747Y18794D01*
X25776Y18725D01*
X25821Y18666D01*
X25881Y18621D01*
X25950Y18592D01*
X26024Y18582D01*
X26098Y18592D01*
X26167Y18621D01*
X26226Y18666D01*
X26271Y18725D01*
X26300Y18794D01*
X26306Y18843D01*
X28063D01*
X28092Y18814D01*
X28144Y18779D01*
X28207Y18767D01*
X28832D01*
X28873Y18726D01*
X28926Y18690D01*
X28988Y18678D01*
X29753D01*
X29879Y18551D01*
X29851Y18509D01*
X29819Y18522D01*
X29724Y18535D01*
X29630Y18522D01*
X29542Y18486D01*
X29466Y18428D01*
X29408Y18352D01*
X29372Y18264D01*
X29359Y18169D01*
X29372Y18075D01*
X29408Y17987D01*
X29466Y17911D01*
X29542Y17853D01*
X29630Y17816D01*
X29724Y17804D01*
X29819Y17816D01*
X29907Y17853D01*
X29983Y17911D01*
X30041Y17987D01*
X30077Y18075D01*
X30090Y18169D01*
X30077Y18264D01*
X30064Y18296D01*
X30106Y18324D01*
X33203Y15227D01*
X33188Y15192D01*
X33179Y15118D01*
X33188Y15044D01*
X33217Y14975D01*
X33262Y14916D01*
X33322Y14871D01*
X33391Y14842D01*
X33465Y14832D01*
X33539Y14842D01*
X33608Y14871D01*
X33667Y14916D01*
X33712Y14975D01*
X33741Y15044D01*
X33750Y15118D01*
X33772Y15143D01*
X33899D01*
X33923Y15093D01*
X33857Y15006D01*
X33805Y14880D01*
X33787Y14744D01*
X33788D01*
Y12598D01*
X29676D01*
Y16112D01*
X29677D01*
X29661Y16282D01*
X29611Y16445D01*
X29531Y16595D01*
X29423Y16726D01*
X29291Y16834D01*
X29141Y16914D01*
X28978Y16964D01*
X28809Y16981D01*
X28640Y16964D01*
X28477Y16914D01*
X28327Y16834D01*
X28298Y16811D01*
X24940D01*
X24932Y16822D01*
X24819Y16908D01*
X24688Y16962D01*
X24547Y16981D01*
Y16979D01*
X18110D01*
Y16981D01*
X17969Y16962D01*
X17838Y16908D01*
X17726Y16822D01*
X17639Y16709D01*
X17585Y16578D01*
X17566Y16437D01*
X17568D01*
Y13731D01*
X11960D01*
Y39222D01*
X51033D01*
Y16979D01*
D02*
G37*
%LPC*%
G36*
X17904Y36488D02*
X17830Y36478D01*
X17761Y36450D01*
X17705Y36406D01*
X17663Y36439D01*
X17594Y36467D01*
X17520Y36477D01*
X17446Y36467D01*
X17377Y36439D01*
X17318Y36393D01*
X17272Y36334D01*
X17244Y36265D01*
X17234Y36191D01*
X17244Y36117D01*
X17272Y36048D01*
X17318Y35989D01*
X17377Y35943D01*
X17446Y35915D01*
X17471Y35911D01*
X17479Y35868D01*
X17517Y35812D01*
X17703Y35626D01*
X17759Y35589D01*
X17825Y35575D01*
X20214D01*
X22703Y33086D01*
X22759Y33049D01*
X22825Y33036D01*
X23217D01*
X24503Y31750D01*
X24559Y31713D01*
X24625Y31699D01*
X26851D01*
X29773Y28778D01*
X29829Y28740D01*
X29895Y28727D01*
X32997D01*
X33705Y28019D01*
Y25327D01*
X33077Y24699D01*
X33039Y24643D01*
X33026Y24577D01*
Y24312D01*
X32958Y24284D01*
X32899Y24238D01*
X32854Y24179D01*
X32825Y24110D01*
X32816Y24036D01*
X32825Y23962D01*
X32854Y23893D01*
X32899Y23834D01*
X32958Y23788D01*
X33027Y23760D01*
X33101Y23750D01*
X33175Y23760D01*
X33244Y23788D01*
X33299Y23830D01*
X33341Y23798D01*
X33410Y23769D01*
X33484Y23759D01*
X33558Y23769D01*
X33627Y23798D01*
X33686Y23843D01*
X33732Y23902D01*
X33760Y23971D01*
X33770Y24045D01*
X33760Y24119D01*
X33732Y24188D01*
X33686Y24247D01*
X33627Y24293D01*
X33558Y24321D01*
X33517Y24327D01*
Y24445D01*
X34146Y25074D01*
X34183Y25130D01*
X34196Y25196D01*
Y26949D01*
X34241Y26971D01*
X34247Y26967D01*
X34316Y26938D01*
X34390Y26929D01*
X34464Y26938D01*
X34533Y26967D01*
X34592Y27012D01*
X34637Y27072D01*
X34666Y27141D01*
X34676Y27215D01*
X34666Y27289D01*
X34637Y27358D01*
X34592Y27417D01*
X34533Y27462D01*
X34464Y27491D01*
X34390Y27500D01*
X34316Y27491D01*
X34247Y27462D01*
X34241Y27458D01*
X34196Y27480D01*
Y27579D01*
X34241Y27601D01*
X34247Y27597D01*
X34316Y27568D01*
X34390Y27559D01*
X34464Y27568D01*
X34533Y27597D01*
X34592Y27642D01*
X34637Y27702D01*
X34666Y27770D01*
X34676Y27844D01*
X34666Y27918D01*
X34637Y27987D01*
X34592Y28047D01*
X34533Y28092D01*
X34464Y28121D01*
X34390Y28130D01*
X34316Y28121D01*
X34247Y28092D01*
X34241Y28088D01*
X34196Y28110D01*
Y28151D01*
X34183Y28217D01*
X34175Y28228D01*
X34212Y28263D01*
X34247Y28237D01*
X34316Y28208D01*
X34390Y28198D01*
X34464Y28208D01*
X34533Y28237D01*
X34592Y28282D01*
X34637Y28341D01*
X34666Y28410D01*
X34676Y28484D01*
X34666Y28558D01*
X34637Y28627D01*
X34592Y28686D01*
X34533Y28732D01*
X34464Y28760D01*
X34390Y28770D01*
X34316Y28760D01*
X34247Y28732D01*
X34188Y28686D01*
X34142Y28627D01*
X34114Y28558D01*
X34104Y28484D01*
X34114Y28410D01*
X34138Y28351D01*
X34096Y28323D01*
X33251Y29167D01*
X33195Y29205D01*
X33129Y29218D01*
X30027D01*
X27105Y32140D01*
X27049Y32177D01*
X26983Y32190D01*
X24757D01*
X23471Y33476D01*
X23415Y33513D01*
X23349Y33526D01*
X22957D01*
X20468Y36016D01*
X20412Y36053D01*
X20346Y36066D01*
X18199D01*
X18172Y36108D01*
X18180Y36128D01*
X18190Y36202D01*
X18180Y36276D01*
X18151Y36345D01*
X18106Y36404D01*
X18047Y36450D01*
X17978Y36478D01*
X17904Y36488D01*
D02*
G37*
G36*
X48307Y36861D02*
X48233Y36851D01*
X48164Y36822D01*
X48105Y36777D01*
X48059Y36718D01*
X48031Y36649D01*
X48021Y36575D01*
X48031Y36501D01*
X48059Y36432D01*
X48105Y36373D01*
X48164Y36327D01*
X48233Y36299D01*
X48307Y36289D01*
X48381Y36299D01*
X48450Y36327D01*
X48509Y36373D01*
X48555Y36432D01*
X48583Y36501D01*
X48593Y36575D01*
X48583Y36649D01*
X48555Y36718D01*
X48509Y36777D01*
X48450Y36822D01*
X48381Y36851D01*
X48307Y36861D01*
D02*
G37*
G36*
X48927Y36565D02*
X48853Y36556D01*
X48784Y36527D01*
X48725Y36482D01*
X48680Y36422D01*
X48651Y36354D01*
X48641Y36280D01*
X48651Y36206D01*
X48680Y36137D01*
X48725Y36077D01*
X48784Y36032D01*
X48853Y36003D01*
X48927Y35994D01*
X49001Y36003D01*
X49070Y36032D01*
X49129Y36077D01*
X49175Y36137D01*
X49203Y36206D01*
X49213Y36280D01*
X49203Y36354D01*
X49175Y36422D01*
X49129Y36482D01*
X49070Y36527D01*
X49001Y36556D01*
X48927Y36565D01*
D02*
G37*
G36*
X31033Y36939D02*
X30959Y36930D01*
X30891Y36901D01*
X30831Y36856D01*
X30786Y36797D01*
X30757Y36728D01*
X30748Y36654D01*
X30757Y36580D01*
X30786Y36511D01*
X30831Y36451D01*
X30875Y36418D01*
X30879Y36405D01*
Y36371D01*
X30875Y36358D01*
X30831Y36324D01*
X30786Y36265D01*
X30757Y36196D01*
X30748Y36122D01*
X30757Y36048D01*
X30786Y35979D01*
X30831Y35920D01*
X30891Y35874D01*
X30959Y35846D01*
X31033Y35836D01*
X31107Y35846D01*
X31176Y35874D01*
X31236Y35920D01*
X31281Y35979D01*
X31310Y36048D01*
X31319Y36122D01*
X31310Y36196D01*
X31281Y36265D01*
X31236Y36324D01*
X31192Y36358D01*
X31188Y36371D01*
Y36405D01*
X31192Y36418D01*
X31236Y36451D01*
X31281Y36511D01*
X31310Y36580D01*
X31319Y36654D01*
X31310Y36728D01*
X31281Y36797D01*
X31236Y36856D01*
X31176Y36901D01*
X31107Y36930D01*
X31033Y36939D01*
D02*
G37*
G36*
X41407Y36738D02*
X41333Y36728D01*
X41265Y36699D01*
X41205Y36654D01*
X41160Y36595D01*
X41131Y36526D01*
X41122Y36452D01*
X41129Y36395D01*
X41066Y36369D01*
X41007Y36323D01*
X40962Y36264D01*
X40933Y36195D01*
X40923Y36121D01*
X40933Y36047D01*
X40962Y35978D01*
X41007Y35919D01*
X41066Y35873D01*
X41135Y35845D01*
X41209Y35835D01*
X41283Y35845D01*
X41352Y35873D01*
X41411Y35919D01*
X41457Y35978D01*
X41485Y36047D01*
X41495Y36121D01*
X41488Y36178D01*
X41550Y36204D01*
X41610Y36250D01*
X41655Y36309D01*
X41684Y36378D01*
X41693Y36452D01*
X41684Y36526D01*
X41655Y36595D01*
X41610Y36654D01*
X41550Y36699D01*
X41481Y36728D01*
X41407Y36738D01*
D02*
G37*
G36*
X14764Y37826D02*
X14590Y37813D01*
X14420Y37772D01*
X14258Y37705D01*
X14109Y37614D01*
X13976Y37500D01*
X13863Y37367D01*
X13771Y37218D01*
X13705Y37057D01*
X13664Y36887D01*
X13650Y36713D01*
X13664Y36538D01*
X13705Y36368D01*
X13771Y36207D01*
X13863Y36058D01*
X13976Y35925D01*
X14109Y35812D01*
X14258Y35720D01*
X14420Y35653D01*
X14590Y35613D01*
X14764Y35599D01*
X14938Y35613D01*
X15108Y35653D01*
X15269Y35720D01*
X15418Y35812D01*
X15551Y35925D01*
X15665Y36058D01*
X15756Y36207D01*
X15823Y36368D01*
X15864Y36538D01*
X15877Y36713D01*
X15864Y36887D01*
X15823Y37057D01*
X15756Y37218D01*
X15665Y37367D01*
X15551Y37500D01*
X15418Y37614D01*
X15269Y37705D01*
X15108Y37772D01*
X14938Y37813D01*
X14764Y37826D01*
D02*
G37*
G36*
X29370Y35522D02*
X29296Y35512D01*
X29227Y35484D01*
X29168Y35438D01*
X29122Y35379D01*
X29094Y35310D01*
X29084Y35236D01*
X29094Y35162D01*
X29122Y35093D01*
X29168Y35034D01*
X29227Y34989D01*
X29296Y34960D01*
X29370Y34950D01*
X29444Y34960D01*
X29513Y34989D01*
X29572Y35034D01*
X29618Y35093D01*
X29646Y35162D01*
X29656Y35236D01*
X29646Y35310D01*
X29618Y35379D01*
X29572Y35438D01*
X29513Y35484D01*
X29444Y35512D01*
X29370Y35522D01*
D02*
G37*
G36*
X27362D02*
X27288Y35512D01*
X27219Y35484D01*
X27160Y35438D01*
X27115Y35379D01*
X27086Y35310D01*
X27076Y35236D01*
X27086Y35162D01*
X27115Y35093D01*
X27160Y35034D01*
X27219Y34989D01*
X27288Y34960D01*
X27362Y34950D01*
X27436Y34960D01*
X27505Y34989D01*
X27564Y35034D01*
X27610Y35093D01*
X27638Y35162D01*
X27648Y35236D01*
X27638Y35310D01*
X27610Y35379D01*
X27564Y35438D01*
X27505Y35484D01*
X27436Y35512D01*
X27362Y35522D01*
D02*
G37*
G36*
X26378D02*
X26304Y35512D01*
X26235Y35484D01*
X26176Y35438D01*
X26130Y35379D01*
X26102Y35310D01*
X26092Y35236D01*
X26102Y35162D01*
X26130Y35093D01*
X26176Y35034D01*
X26235Y34989D01*
X26304Y34960D01*
X26378Y34950D01*
X26452Y34960D01*
X26521Y34989D01*
X26580Y35034D01*
X26626Y35093D01*
X26654Y35162D01*
X26664Y35236D01*
X26654Y35310D01*
X26626Y35379D01*
X26580Y35438D01*
X26521Y35484D01*
X26452Y35512D01*
X26378Y35522D01*
D02*
G37*
G36*
X25394D02*
X25320Y35512D01*
X25251Y35484D01*
X25192Y35438D01*
X25146Y35379D01*
X25118Y35310D01*
X25108Y35236D01*
X25118Y35162D01*
X25146Y35093D01*
X25192Y35034D01*
X25251Y34989D01*
X25320Y34960D01*
X25394Y34950D01*
X25468Y34960D01*
X25537Y34989D01*
X25596Y35034D01*
X25641Y35093D01*
X25670Y35162D01*
X25680Y35236D01*
X25670Y35310D01*
X25641Y35379D01*
X25596Y35438D01*
X25537Y35484D01*
X25468Y35512D01*
X25394Y35522D01*
D02*
G37*
G36*
X24409D02*
X24335Y35512D01*
X24266Y35484D01*
X24207Y35438D01*
X24162Y35379D01*
X24133Y35310D01*
X24124Y35236D01*
X24133Y35162D01*
X24162Y35093D01*
X24207Y35034D01*
X24266Y34989D01*
X24335Y34960D01*
X24409Y34950D01*
X24483Y34960D01*
X24552Y34989D01*
X24612Y35034D01*
X24657Y35093D01*
X24686Y35162D01*
X24695Y35236D01*
X24686Y35310D01*
X24657Y35379D01*
X24612Y35438D01*
X24552Y35484D01*
X24483Y35512D01*
X24409Y35522D01*
D02*
G37*
G36*
X39218Y34846D02*
X39144Y34836D01*
X39075Y34807D01*
X39015Y34762D01*
X38970Y34703D01*
X38941Y34634D01*
X38932Y34560D01*
X38941Y34486D01*
X38970Y34417D01*
X39015Y34357D01*
X39075Y34312D01*
X39144Y34283D01*
X39218Y34274D01*
X39292Y34283D01*
X39361Y34312D01*
X39420Y34357D01*
X39465Y34417D01*
X39494Y34486D01*
X39504Y34560D01*
X39494Y34634D01*
X39465Y34703D01*
X39420Y34762D01*
X39361Y34807D01*
X39292Y34836D01*
X39218Y34846D01*
D02*
G37*
G36*
X41885Y34545D02*
X41811Y34535D01*
X41742Y34507D01*
X41683Y34461D01*
X41637Y34402D01*
X41609Y34333D01*
X41599Y34259D01*
X41609Y34185D01*
X41637Y34116D01*
X41683Y34057D01*
X41742Y34012D01*
X41811Y33983D01*
X41885Y33973D01*
X41959Y33983D01*
X42028Y34012D01*
X42087Y34057D01*
X42132Y34116D01*
X42161Y34185D01*
X42171Y34259D01*
X42161Y34333D01*
X42132Y34402D01*
X42087Y34461D01*
X42028Y34507D01*
X41959Y34535D01*
X41885Y34545D01*
D02*
G37*
G36*
X20039Y35325D02*
X19965Y35316D01*
X19896Y35287D01*
X19837Y35242D01*
X19792Y35182D01*
X19763Y35113D01*
X19753Y35039D01*
X19763Y34965D01*
X19792Y34896D01*
X19833Y34843D01*
X19792Y34789D01*
X19763Y34720D01*
X19753Y34646D01*
X19763Y34572D01*
X19792Y34503D01*
X19833Y34449D01*
X19792Y34395D01*
X19763Y34326D01*
X19753Y34252D01*
X19763Y34178D01*
X19792Y34109D01*
X19837Y34050D01*
X19896Y34004D01*
X19965Y33976D01*
X20039Y33966D01*
X20113Y33976D01*
X20182Y34004D01*
X20242Y34050D01*
X20287Y34109D01*
X20316Y34178D01*
X20325Y34252D01*
X20316Y34326D01*
X20287Y34395D01*
X20246Y34449D01*
X20287Y34503D01*
X20316Y34572D01*
X20325Y34646D01*
X20316Y34720D01*
X20287Y34789D01*
X20246Y34843D01*
X20287Y34896D01*
X20316Y34965D01*
X20325Y35039D01*
X20316Y35113D01*
X20287Y35182D01*
X20242Y35242D01*
X20182Y35287D01*
X20113Y35316D01*
X20039Y35325D01*
D02*
G37*
G36*
X14764Y35503D02*
X14590Y35490D01*
X14420Y35449D01*
X14258Y35382D01*
X14109Y35291D01*
X13976Y35177D01*
X13863Y35044D01*
X13771Y34895D01*
X13705Y34734D01*
X13664Y34564D01*
X13650Y34390D01*
X13664Y34216D01*
X13705Y34046D01*
X13771Y33884D01*
X13863Y33735D01*
X13976Y33602D01*
X14109Y33489D01*
X14258Y33397D01*
X14420Y33331D01*
X14590Y33290D01*
X14764Y33276D01*
X14938Y33290D01*
X15108Y33331D01*
X15269Y33397D01*
X15418Y33489D01*
X15551Y33602D01*
X15665Y33735D01*
X15756Y33884D01*
X15823Y34046D01*
X15864Y34216D01*
X15877Y34390D01*
X15864Y34564D01*
X15823Y34734D01*
X15756Y34895D01*
X15665Y35044D01*
X15551Y35177D01*
X15418Y35291D01*
X15269Y35382D01*
X15108Y35449D01*
X14938Y35490D01*
X14764Y35503D01*
D02*
G37*
G36*
X29370Y33829D02*
X29296Y33819D01*
X29227Y33791D01*
X29168Y33745D01*
X29122Y33686D01*
X29094Y33617D01*
X29084Y33543D01*
X29094Y33469D01*
X29122Y33400D01*
X29168Y33341D01*
X29227Y33296D01*
X29296Y33267D01*
X29370Y33257D01*
X29444Y33267D01*
X29513Y33296D01*
X29572Y33341D01*
X29618Y33400D01*
X29646Y33469D01*
X29656Y33543D01*
X29646Y33617D01*
X29618Y33686D01*
X29572Y33745D01*
X29513Y33791D01*
X29444Y33819D01*
X29370Y33829D01*
D02*
G37*
G36*
X27362D02*
X27288Y33819D01*
X27219Y33791D01*
X27160Y33745D01*
X27115Y33686D01*
X27086Y33617D01*
X27076Y33543D01*
X27086Y33469D01*
X27115Y33400D01*
X27160Y33341D01*
X27219Y33296D01*
X27288Y33267D01*
X27362Y33257D01*
X27436Y33267D01*
X27505Y33296D01*
X27564Y33341D01*
X27610Y33400D01*
X27638Y33469D01*
X27648Y33543D01*
X27638Y33617D01*
X27610Y33686D01*
X27564Y33745D01*
X27505Y33791D01*
X27436Y33819D01*
X27362Y33829D01*
D02*
G37*
G36*
X26378D02*
X26304Y33819D01*
X26235Y33791D01*
X26176Y33745D01*
X26130Y33686D01*
X26102Y33617D01*
X26092Y33543D01*
X26102Y33469D01*
X26130Y33400D01*
X26176Y33341D01*
X26235Y33296D01*
X26304Y33267D01*
X26378Y33257D01*
X26452Y33267D01*
X26521Y33296D01*
X26580Y33341D01*
X26626Y33400D01*
X26654Y33469D01*
X26664Y33543D01*
X26654Y33617D01*
X26626Y33686D01*
X26580Y33745D01*
X26521Y33791D01*
X26452Y33819D01*
X26378Y33829D01*
D02*
G37*
G36*
X25394D02*
X25320Y33819D01*
X25251Y33791D01*
X25192Y33745D01*
X25146Y33686D01*
X25118Y33617D01*
X25108Y33543D01*
X25118Y33469D01*
X25146Y33400D01*
X25192Y33341D01*
X25251Y33296D01*
X25320Y33267D01*
X25394Y33257D01*
X25468Y33267D01*
X25537Y33296D01*
X25596Y33341D01*
X25641Y33400D01*
X25670Y33469D01*
X25680Y33543D01*
X25670Y33617D01*
X25641Y33686D01*
X25596Y33745D01*
X25537Y33791D01*
X25468Y33819D01*
X25394Y33829D01*
D02*
G37*
G36*
X24409D02*
X24335Y33819D01*
X24266Y33791D01*
X24207Y33745D01*
X24162Y33686D01*
X24133Y33617D01*
X24124Y33543D01*
X24133Y33469D01*
X24162Y33400D01*
X24207Y33341D01*
X24266Y33296D01*
X24335Y33267D01*
X24409Y33257D01*
X24483Y33267D01*
X24552Y33296D01*
X24612Y33341D01*
X24657Y33400D01*
X24686Y33469D01*
X24695Y33543D01*
X24686Y33617D01*
X24657Y33686D01*
X24612Y33745D01*
X24552Y33791D01*
X24483Y33819D01*
X24409Y33829D01*
D02*
G37*
G36*
X31545Y33042D02*
X31471Y33032D01*
X31402Y33004D01*
X31343Y32958D01*
X31298Y32899D01*
X31269Y32830D01*
X31259Y32756D01*
X31269Y32682D01*
X31298Y32613D01*
X31343Y32554D01*
X31402Y32508D01*
X31471Y32480D01*
X31545Y32470D01*
X31619Y32480D01*
X31688Y32508D01*
X31747Y32554D01*
X31793Y32613D01*
X31821Y32682D01*
X31831Y32756D01*
X31821Y32830D01*
X31793Y32899D01*
X31747Y32958D01*
X31688Y33004D01*
X31619Y33032D01*
X31545Y33042D01*
D02*
G37*
G36*
X32175Y32825D02*
X32101Y32816D01*
X32032Y32787D01*
X31973Y32742D01*
X31928Y32682D01*
X31899Y32613D01*
X31889Y32539D01*
X31899Y32465D01*
X31928Y32396D01*
X31973Y32337D01*
X32032Y32292D01*
X32101Y32263D01*
X32175Y32253D01*
X32249Y32263D01*
X32318Y32292D01*
X32377Y32337D01*
X32423Y32396D01*
X32451Y32465D01*
X32461Y32539D01*
X32451Y32613D01*
X32423Y32682D01*
X32377Y32742D01*
X32318Y32787D01*
X32249Y32816D01*
X32175Y32825D01*
D02*
G37*
G36*
X39893Y32984D02*
X39819Y32974D01*
X39750Y32945D01*
X39691Y32900D01*
X39646Y32841D01*
X39617Y32772D01*
X39607Y32698D01*
X39615Y32641D01*
X39552Y32615D01*
X39493Y32569D01*
X39447Y32510D01*
X39419Y32441D01*
X39409Y32367D01*
X39419Y32293D01*
X39447Y32224D01*
X39493Y32165D01*
X39552Y32120D01*
X39621Y32091D01*
X39695Y32081D01*
X39769Y32091D01*
X39838Y32120D01*
X39897Y32165D01*
X39942Y32224D01*
X39971Y32293D01*
X39981Y32367D01*
X39973Y32424D01*
X40036Y32450D01*
X40095Y32496D01*
X40141Y32555D01*
X40169Y32624D01*
X40179Y32698D01*
X40169Y32772D01*
X40141Y32841D01*
X40095Y32900D01*
X40036Y32945D01*
X39967Y32974D01*
X39893Y32984D01*
D02*
G37*
G36*
X32795Y32530D02*
X32721Y32520D01*
X32652Y32492D01*
X32593Y32446D01*
X32548Y32387D01*
X32519Y32318D01*
X32509Y32244D01*
X32519Y32170D01*
X32548Y32101D01*
X32593Y32042D01*
X32652Y31996D01*
X32721Y31968D01*
X32795Y31958D01*
X32869Y31968D01*
X32938Y31996D01*
X32997Y32042D01*
X33043Y32101D01*
X33071Y32170D01*
X33081Y32244D01*
X33071Y32318D01*
X33043Y32387D01*
X32997Y32446D01*
X32938Y32492D01*
X32869Y32520D01*
X32795Y32530D01*
D02*
G37*
G36*
X21339Y32500D02*
X21265Y32491D01*
X21196Y32462D01*
X21136Y32417D01*
X21091Y32358D01*
X21062Y32289D01*
X21053Y32215D01*
X21054Y32204D01*
X18337Y29487D01*
X16066D01*
X15992Y29472D01*
X15930Y29430D01*
X14554Y28055D01*
X14512Y27992D01*
X14497Y27918D01*
Y26933D01*
X12846Y25281D01*
X12804Y25219D01*
X12790Y25145D01*
Y22234D01*
X12804Y22161D01*
X12846Y22098D01*
X13122Y21822D01*
X13184Y21781D01*
X13258Y21766D01*
X16447D01*
X16521Y21781D01*
X16583Y21822D01*
X18190Y23429D01*
X18809D01*
X18837Y23360D01*
X18921Y23251D01*
X19029Y23168D01*
X19156Y23116D01*
X19291Y23098D01*
X19427Y23116D01*
X19553Y23168D01*
X19662Y23251D01*
X19745Y23360D01*
X19798Y23486D01*
X19816Y23622D01*
X19798Y23758D01*
X19769Y23827D01*
X20096Y24154D01*
X20614D01*
X20624Y24104D01*
X20604Y24096D01*
X20496Y24012D01*
X20412Y23904D01*
X20360Y23777D01*
X20342Y23642D01*
X20360Y23506D01*
X20412Y23380D01*
X20496Y23271D01*
X20604Y23188D01*
X20730Y23135D01*
X20866Y23118D01*
X21002Y23135D01*
X21128Y23188D01*
X21237Y23271D01*
X21320Y23380D01*
X21372Y23506D01*
X21390Y23642D01*
X21372Y23777D01*
X21344Y23847D01*
X21452Y23955D01*
X21997D01*
X22019Y23910D01*
X22007Y23894D01*
X21954Y23768D01*
X21936Y23632D01*
X21954Y23496D01*
X22007Y23370D01*
X22090Y23261D01*
X22199Y23178D01*
X22325Y23126D01*
X22461Y23108D01*
X22596Y23126D01*
X22664Y23154D01*
X23809Y22008D01*
X23872Y21966D01*
X23947Y21951D01*
X24902D01*
X24976Y21966D01*
X25039Y22008D01*
X25277Y22246D01*
X26135D01*
X26281Y22101D01*
X26289Y22095D01*
X26318Y22066D01*
X26381Y22024D01*
X26456Y22009D01*
X26460Y22010D01*
X27232D01*
X27303Y21939D01*
X27366Y21897D01*
X27441Y21882D01*
X28248D01*
X28322Y21897D01*
X28385Y21939D01*
X28614Y22168D01*
X28709D01*
X29420Y21457D01*
X29483Y21415D01*
X29557Y21400D01*
X30235D01*
X30241Y21392D01*
X30300Y21347D01*
X30369Y21318D01*
X30443Y21309D01*
X30517Y21318D01*
X30586Y21347D01*
X30645Y21392D01*
X30691Y21452D01*
X30719Y21520D01*
X30725Y21563D01*
X30777Y21581D01*
X32534Y19824D01*
Y19586D01*
X32547Y19523D01*
X32582Y19471D01*
X34774Y17279D01*
X34827Y17243D01*
X34889Y17231D01*
X36019D01*
X36023Y17200D01*
X36052Y17131D01*
X36097Y17071D01*
X36156Y17026D01*
X36225Y16997D01*
X36299Y16988D01*
X36373Y16997D01*
X36442Y17026D01*
X36501Y17071D01*
X36547Y17131D01*
X36575Y17200D01*
X36585Y17274D01*
X36575Y17348D01*
X36547Y17417D01*
X36509Y17466D01*
X36547Y17515D01*
X36575Y17583D01*
X36585Y17657D01*
X36575Y17731D01*
X36547Y17800D01*
X36501Y17860D01*
X36442Y17905D01*
X36373Y17934D01*
X36299Y17943D01*
X36225Y17934D01*
X36156Y17905D01*
X36097Y17860D01*
X36052Y17800D01*
X36023Y17731D01*
X36017Y17682D01*
X35008D01*
X32985Y19705D01*
Y19944D01*
X32973Y20006D01*
X32938Y20059D01*
X29899Y23097D01*
X29847Y23132D01*
X29784Y23145D01*
X27919D01*
X27857Y23132D01*
X27804Y23097D01*
X27772Y23065D01*
X27506D01*
X27501Y23105D01*
X27472Y23174D01*
X27427Y23234D01*
X27367Y23279D01*
X27298Y23308D01*
X27224Y23317D01*
X27150Y23308D01*
X27081Y23279D01*
X27022Y23234D01*
X26977Y23174D01*
X26948Y23105D01*
X26939Y23031D01*
X26948Y22957D01*
X26977Y22889D01*
X27014Y22840D01*
X26977Y22791D01*
X26948Y22722D01*
X26939Y22648D01*
X26948Y22574D01*
X26977Y22505D01*
X27019Y22449D01*
X27016Y22432D01*
X27000Y22399D01*
X26533D01*
X26397Y22536D01*
X26392Y22543D01*
X26356Y22579D01*
X26293Y22621D01*
X26219Y22636D01*
X25197D01*
X25122Y22621D01*
X25059Y22579D01*
X24821Y22340D01*
X24027D01*
X22939Y23429D01*
X22967Y23496D01*
X22985Y23632D01*
X22967Y23768D01*
X22915Y23894D01*
X22902Y23910D01*
X22924Y23955D01*
X23592D01*
X23614Y23910D01*
X23584Y23871D01*
X23535Y23751D01*
X23531Y23720D01*
X24501D01*
X24497Y23751D01*
X24447Y23871D01*
X24417Y23910D01*
X24439Y23955D01*
X26983D01*
X27017Y23932D01*
X27091Y23918D01*
X28773D01*
X29342Y23348D01*
X29405Y23306D01*
X29478Y23292D01*
X29810D01*
X29818Y23282D01*
X29877Y23237D01*
X29946Y23208D01*
X30020Y23198D01*
X30094Y23208D01*
X30163Y23237D01*
X30222Y23282D01*
X30253Y23322D01*
X30313Y23333D01*
X34873Y18772D01*
X34870Y18748D01*
X34858Y18717D01*
X34798Y18692D01*
X34739Y18647D01*
X34693Y18588D01*
X34665Y18519D01*
X34655Y18445D01*
X34665Y18371D01*
X34693Y18302D01*
X34739Y18243D01*
X34798Y18197D01*
X34867Y18169D01*
X34941Y18159D01*
X35015Y18169D01*
X35084Y18197D01*
X35138Y18239D01*
X35192Y18197D01*
X35261Y18169D01*
X35335Y18159D01*
X35409Y18169D01*
X35478Y18197D01*
X35537Y18243D01*
X35582Y18302D01*
X35611Y18371D01*
X35621Y18445D01*
X35611Y18519D01*
X35582Y18588D01*
X35537Y18647D01*
X35478Y18692D01*
X35409Y18721D01*
X35363Y18727D01*
Y18853D01*
X35353Y18905D01*
X35373Y18930D01*
X35392Y18943D01*
X35408Y18936D01*
X35482Y18927D01*
X35556Y18936D01*
X35625Y18965D01*
X35684Y19010D01*
X35730Y19070D01*
X35758Y19139D01*
X35768Y19213D01*
X35758Y19287D01*
X35730Y19356D01*
X35684Y19415D01*
X35625Y19460D01*
X35556Y19489D01*
X35482Y19499D01*
X35408Y19489D01*
X35339Y19460D01*
X35280Y19415D01*
X35235Y19356D01*
X35206Y19287D01*
X35196Y19213D01*
X35205Y19150D01*
X35175Y19129D01*
X35160Y19124D01*
X28098Y26185D01*
X28046Y26220D01*
X27983Y26233D01*
X27909D01*
X27906Y26233D01*
X27794D01*
X27787Y26285D01*
X27758Y26354D01*
X27713Y26414D01*
X27654Y26459D01*
X27585Y26488D01*
X27511Y26497D01*
X27437Y26488D01*
X27368Y26459D01*
X27308Y26414D01*
X27263Y26354D01*
X27234Y26285D01*
X27225Y26211D01*
X27234Y26137D01*
X27263Y26068D01*
X27308Y26009D01*
X27281Y25967D01*
X27253Y25931D01*
X27225Y25862D01*
X27215Y25788D01*
X27225Y25714D01*
X27253Y25645D01*
X27299Y25586D01*
X27358Y25540D01*
X27427Y25512D01*
X27501Y25502D01*
X27575Y25512D01*
X27644Y25540D01*
X27703Y25586D01*
X27748Y25645D01*
X27777Y25714D01*
X27786Y25782D01*
X27864D01*
X29868Y23777D01*
X29858Y23717D01*
X29818Y23686D01*
X29810Y23677D01*
X29558D01*
X28989Y24246D01*
X28926Y24288D01*
X28852Y24303D01*
X27625D01*
X27584Y24353D01*
X27589Y24390D01*
X27579Y24464D01*
X27551Y24533D01*
X27505Y24592D01*
X27446Y24637D01*
X27377Y24666D01*
X27303Y24676D01*
X27229Y24666D01*
X27160Y24637D01*
X27101Y24592D01*
X27060Y24539D01*
X22682D01*
X22663Y24585D01*
X24686Y26609D01*
X28119Y26609D01*
X28673Y26055D01*
X28735Y26013D01*
X28809Y25998D01*
X31485D01*
X31881Y25602D01*
X31879Y25591D01*
X31889Y25517D01*
X31918Y25448D01*
X31963Y25388D01*
X32022Y25343D01*
X32091Y25314D01*
X32165Y25305D01*
X32239Y25314D01*
X32308Y25343D01*
X32368Y25388D01*
X32413Y25448D01*
X32442Y25517D01*
X32451Y25591D01*
X32446Y25629D01*
X32477Y25670D01*
X32482Y25673D01*
X32519Y25646D01*
X32529Y25572D01*
X32558Y25503D01*
X32603Y25443D01*
X32662Y25398D01*
X32731Y25370D01*
X32805Y25360D01*
X32879Y25370D01*
X32948Y25398D01*
X33007Y25443D01*
X33053Y25503D01*
X33064Y25529D01*
X33106Y25512D01*
X33180Y25502D01*
X33254Y25512D01*
X33323Y25540D01*
X33382Y25586D01*
X33428Y25645D01*
X33456Y25714D01*
X33466Y25788D01*
X33456Y25862D01*
X33428Y25931D01*
X33405Y25961D01*
X33411Y25983D01*
X33470Y26028D01*
X33515Y26087D01*
X33544Y26156D01*
X33554Y26230D01*
X33544Y26304D01*
X33515Y26373D01*
X33470Y26432D01*
X33460Y26440D01*
Y27628D01*
X33446Y27702D01*
X33404Y27764D01*
X32784Y28384D01*
X32721Y28426D01*
X32648Y28441D01*
X31187D01*
X31113Y28426D01*
X31051Y28384D01*
X30414Y27748D01*
X30160D01*
X30134Y27798D01*
X30173Y27892D01*
X30189Y28012D01*
X30173Y28132D01*
X30127Y28244D01*
X30053Y28340D01*
X29957Y28414D01*
X29845Y28461D01*
X29724Y28476D01*
X29604Y28461D01*
X29492Y28414D01*
X29396Y28340D01*
X29322Y28244D01*
X29276Y28132D01*
X29260Y28012D01*
X29273Y27911D01*
X29226Y27887D01*
X28532Y28581D01*
X28469Y28623D01*
X28396Y28638D01*
X24065D01*
X23991Y28623D01*
X23929Y28581D01*
X21589Y26242D01*
X17623D01*
X15737Y28128D01*
X15739Y28140D01*
X15729Y28214D01*
X15700Y28283D01*
X15655Y28342D01*
X15596Y28387D01*
X15527Y28416D01*
X15524Y28416D01*
X15508Y28464D01*
X16146Y29102D01*
X18416D01*
X18490Y29116D01*
X18553Y29158D01*
X21325Y31930D01*
X21339Y31929D01*
X21413Y31938D01*
X21482Y31967D01*
X21541Y32012D01*
X21586Y32072D01*
X21615Y32141D01*
X21624Y32215D01*
X21615Y32289D01*
X21586Y32358D01*
X21541Y32417D01*
X21482Y32462D01*
X21413Y32491D01*
X21339Y32500D01*
D02*
G37*
G36*
X50069Y32983D02*
X49995Y32973D01*
X49926Y32944D01*
X49867Y32899D01*
X49821Y32840D01*
X49793Y32771D01*
X49783Y32697D01*
X49793Y32623D01*
X49821Y32554D01*
X49867Y32495D01*
X49911Y32461D01*
X49915Y32448D01*
Y32414D01*
X49911Y32401D01*
X49867Y32368D01*
X49821Y32308D01*
X49793Y32239D01*
X49783Y32165D01*
X49793Y32091D01*
X49821Y32022D01*
X49867Y31963D01*
X49926Y31918D01*
X49995Y31889D01*
X50069Y31879D01*
X50143Y31889D01*
X50212Y31918D01*
X50271Y31963D01*
X50317Y32022D01*
X50345Y32091D01*
X50355Y32165D01*
X50345Y32239D01*
X50317Y32308D01*
X50271Y32368D01*
X50227Y32401D01*
X50223Y32414D01*
Y32448D01*
X50227Y32461D01*
X50271Y32495D01*
X50317Y32554D01*
X50345Y32623D01*
X50355Y32697D01*
X50345Y32771D01*
X50317Y32840D01*
X50271Y32899D01*
X50212Y32944D01*
X50143Y32973D01*
X50069Y32983D01*
D02*
G37*
G36*
X17844Y28637D02*
X17770Y28627D01*
X17702Y28599D01*
X17642Y28553D01*
X17597Y28494D01*
X17568Y28425D01*
X17559Y28351D01*
X17568Y28277D01*
X17597Y28208D01*
X17642Y28149D01*
X17702Y28104D01*
X17770Y28075D01*
X17844Y28065D01*
X17918Y28075D01*
X17987Y28104D01*
X18047Y28149D01*
X18092Y28208D01*
X18121Y28277D01*
X18130Y28351D01*
X18121Y28425D01*
X18092Y28494D01*
X18047Y28553D01*
X17987Y28599D01*
X17918Y28627D01*
X17844Y28637D01*
D02*
G37*
G36*
X16545D02*
X16471Y28627D01*
X16402Y28599D01*
X16343Y28553D01*
X16298Y28494D01*
X16269Y28425D01*
X16259Y28351D01*
X16269Y28277D01*
X16298Y28208D01*
X16343Y28149D01*
X16402Y28104D01*
X16471Y28075D01*
X16545Y28065D01*
X16619Y28075D01*
X16688Y28104D01*
X16747Y28149D01*
X16793Y28208D01*
X16821Y28277D01*
X16831Y28351D01*
X16821Y28425D01*
X16793Y28494D01*
X16747Y28553D01*
X16688Y28599D01*
X16619Y28627D01*
X16545Y28637D01*
D02*
G37*
G36*
X36634Y28140D02*
X36560Y28131D01*
X36491Y28102D01*
X36432Y28056D01*
X36386Y27997D01*
X36358Y27928D01*
X36348Y27854D01*
X36358Y27780D01*
X36386Y27711D01*
X36432Y27652D01*
X36491Y27607D01*
X36560Y27578D01*
X36634Y27568D01*
X36708Y27578D01*
X36777Y27607D01*
X36836Y27652D01*
X36881Y27711D01*
X36910Y27780D01*
X36920Y27854D01*
X36910Y27928D01*
X36881Y27997D01*
X36836Y28056D01*
X36777Y28102D01*
X36708Y28131D01*
X36634Y28140D01*
D02*
G37*
G36*
Y27510D02*
X36560Y27501D01*
X36491Y27472D01*
X36432Y27427D01*
X36386Y27367D01*
X36358Y27298D01*
X36348Y27224D01*
X36358Y27150D01*
X36386Y27081D01*
X36432Y27022D01*
X36491Y26977D01*
X36560Y26948D01*
X36634Y26939D01*
X36708Y26948D01*
X36777Y26977D01*
X36836Y27022D01*
X36881Y27081D01*
X36910Y27150D01*
X36920Y27224D01*
X36910Y27298D01*
X36881Y27367D01*
X36836Y27427D01*
X36777Y27472D01*
X36708Y27501D01*
X36634Y27510D01*
D02*
G37*
G36*
X24501Y23524D02*
X24114D01*
Y23137D01*
X24145Y23141D01*
X24265Y23191D01*
X24368Y23270D01*
X24447Y23373D01*
X24497Y23493D01*
X24501Y23524D01*
D02*
G37*
G36*
X23917D02*
X23531D01*
X23535Y23493D01*
X23584Y23373D01*
X23664Y23270D01*
X23767Y23191D01*
X23887Y23141D01*
X23917Y23137D01*
Y23524D01*
D02*
G37*
G36*
X31969Y23455D02*
X31895Y23445D01*
X31826Y23417D01*
X31766Y23371D01*
X31721Y23312D01*
X31692Y23243D01*
X31683Y23169D01*
X31692Y23095D01*
X31721Y23026D01*
X31766Y22967D01*
X31826Y22922D01*
X31895Y22893D01*
X31969Y22883D01*
X32043Y22893D01*
X32111Y22922D01*
X32171Y22967D01*
X32216Y23026D01*
X32245Y23095D01*
X32254Y23169D01*
X32245Y23243D01*
X32216Y23312D01*
X32171Y23371D01*
X32111Y23417D01*
X32043Y23445D01*
X31969Y23455D01*
D02*
G37*
G36*
X19921Y18691D02*
X19847Y18682D01*
X19778Y18653D01*
X19719Y18608D01*
X19674Y18548D01*
X19645Y18480D01*
X19635Y18406D01*
X19645Y18332D01*
X19674Y18263D01*
X19693Y18237D01*
X19716Y18199D01*
X19693Y18160D01*
X19674Y18135D01*
X19645Y18066D01*
X19635Y17992D01*
X19645Y17918D01*
X19674Y17849D01*
X19703Y17812D01*
X19714Y17776D01*
X19703Y17740D01*
X19674Y17702D01*
X19645Y17633D01*
X19635Y17559D01*
X19645Y17485D01*
X19674Y17416D01*
X19719Y17357D01*
X19778Y17311D01*
X19847Y17283D01*
X19921Y17273D01*
X19995Y17283D01*
X20064Y17311D01*
X20123Y17357D01*
X20169Y17416D01*
X20197Y17485D01*
X20207Y17559D01*
X20197Y17633D01*
X20169Y17702D01*
X20140Y17740D01*
X20128Y17776D01*
X20140Y17812D01*
X20169Y17849D01*
X20197Y17918D01*
X20207Y17992D01*
X20197Y18066D01*
X20169Y18135D01*
X20150Y18160D01*
X20126Y18199D01*
X20150Y18237D01*
X20169Y18263D01*
X20197Y18332D01*
X20207Y18406D01*
X20197Y18480D01*
X20169Y18548D01*
X20123Y18608D01*
X20064Y18653D01*
X19995Y18682D01*
X19921Y18691D01*
D02*
G37*
G36*
X22598Y18514D02*
X22524Y18505D01*
X22455Y18476D01*
X22396Y18431D01*
X22351Y18371D01*
X22322Y18302D01*
X22313Y18228D01*
X22322Y18154D01*
X22351Y18085D01*
X22377Y18051D01*
X22351Y18017D01*
X22322Y17948D01*
X22313Y17874D01*
X22322Y17800D01*
X22351Y17731D01*
X22377Y17697D01*
X22351Y17663D01*
X22322Y17594D01*
X22313Y17520D01*
X22322Y17446D01*
X22351Y17377D01*
X22396Y17318D01*
X22455Y17272D01*
X22524Y17244D01*
X22598Y17234D01*
X22672Y17244D01*
X22741Y17272D01*
X22801Y17318D01*
X22846Y17377D01*
X22875Y17446D01*
X22884Y17520D01*
X22875Y17594D01*
X22846Y17663D01*
X22820Y17697D01*
X22846Y17731D01*
X22875Y17800D01*
X22884Y17874D01*
X22875Y17948D01*
X22846Y18017D01*
X22820Y18051D01*
X22846Y18085D01*
X22875Y18154D01*
X22884Y18228D01*
X22875Y18302D01*
X22846Y18371D01*
X22801Y18431D01*
X22741Y18476D01*
X22672Y18505D01*
X22598Y18514D01*
D02*
G37*
G36*
X25965Y22087D02*
X25891Y22077D01*
X25822Y22049D01*
X25762Y22003D01*
X25717Y21944D01*
X25688Y21875D01*
X25679Y21801D01*
X25688Y21727D01*
X25717Y21658D01*
X25762Y21599D01*
Y21570D01*
X25717Y21511D01*
X25688Y21442D01*
X25679Y21368D01*
X25688Y21294D01*
X25717Y21225D01*
X25762Y21166D01*
X25822Y21121D01*
X25891Y21092D01*
X25965Y21082D01*
X26039Y21092D01*
X26108Y21121D01*
X26167Y21166D01*
X26212Y21225D01*
X26241Y21294D01*
X26249Y21359D01*
X26935D01*
X27198Y21096D01*
X27251Y21060D01*
X27313Y21048D01*
X28859D01*
X30022Y19885D01*
X30075Y19850D01*
X30137Y19837D01*
X31073D01*
X34282Y16629D01*
X34282Y16629D01*
X34334Y16594D01*
X34397Y16582D01*
X34397Y16582D01*
X35435D01*
X35459Y16532D01*
X35451Y16521D01*
X35423Y16452D01*
X35413Y16378D01*
X35423Y16304D01*
X35451Y16235D01*
X35497Y16176D01*
X35556Y16130D01*
X35625Y16102D01*
X35699Y16092D01*
X35773Y16102D01*
X35842Y16130D01*
X35891Y16168D01*
X35940Y16130D01*
X36009Y16102D01*
X36083Y16092D01*
X36157Y16102D01*
X36226Y16130D01*
X36285Y16176D01*
X36330Y16235D01*
X36359Y16304D01*
X36369Y16378D01*
X36359Y16452D01*
X36330Y16521D01*
X36285Y16580D01*
X36226Y16626D01*
X36157Y16654D01*
X36112Y16660D01*
X36104Y16699D01*
X36069Y16752D01*
X35835Y16985D01*
X35783Y17020D01*
X35720Y17033D01*
X34516D01*
X31308Y20241D01*
X31255Y20276D01*
X31193Y20289D01*
X30256D01*
X29093Y21452D01*
X29041Y21487D01*
X28978Y21499D01*
X27433D01*
X27169Y21763D01*
X27116Y21798D01*
X27054Y21810D01*
X26249D01*
X26241Y21875D01*
X26212Y21944D01*
X26167Y22003D01*
X26108Y22049D01*
X26039Y22077D01*
X25965Y22087D01*
D02*
G37*
G36*
X31152Y15424D02*
X31078Y15414D01*
X31009Y15385D01*
X30949Y15340D01*
X30904Y15281D01*
X30875Y15212D01*
X30866Y15138D01*
X30875Y15064D01*
X30904Y14995D01*
X30949Y14936D01*
X31009Y14890D01*
X31078Y14862D01*
X31152Y14852D01*
X31226Y14862D01*
X31295Y14890D01*
X31354Y14936D01*
X31399Y14995D01*
X31428Y15064D01*
X31437Y15138D01*
X31428Y15212D01*
X31399Y15281D01*
X31354Y15340D01*
X31295Y15385D01*
X31226Y15414D01*
X31152Y15424D01*
D02*
G37*
G36*
X26732Y20817D02*
X26658Y20808D01*
X26589Y20779D01*
X26530Y20734D01*
X26485Y20674D01*
X26456Y20605D01*
X26446Y20531D01*
X26456Y20457D01*
X26485Y20389D01*
X26526Y20335D01*
X26485Y20281D01*
X26456Y20212D01*
X26446Y20138D01*
X26456Y20064D01*
X26485Y19995D01*
X26530Y19936D01*
X26589Y19890D01*
X26658Y19862D01*
X26732Y19852D01*
X26806Y19862D01*
X26875Y19890D01*
X26934Y19936D01*
X26980Y19995D01*
X27008Y20064D01*
X27015Y20111D01*
X28370D01*
X29186Y19294D01*
X29239Y19259D01*
X29301Y19247D01*
X30443D01*
X33711Y15980D01*
X33764Y15944D01*
X33826Y15932D01*
X34862D01*
X35245Y15549D01*
X35298Y15513D01*
X35360Y15501D01*
X35360Y15501D01*
X38281D01*
X38533Y15249D01*
X38527Y15184D01*
X38499Y15163D01*
X38453Y15104D01*
X38425Y15035D01*
X38415Y14961D01*
X38425Y14887D01*
X38453Y14818D01*
X38499Y14758D01*
X38558Y14713D01*
X38627Y14684D01*
X38701Y14675D01*
X38775Y14684D01*
X38844Y14713D01*
X38898Y14754D01*
X38952Y14713D01*
X39020Y14684D01*
X39094Y14675D01*
X39168Y14684D01*
X39237Y14713D01*
X39297Y14758D01*
X39342Y14818D01*
X39371Y14887D01*
X39380Y14961D01*
X39371Y15035D01*
X39342Y15104D01*
X39297Y15163D01*
X39237Y15208D01*
X39168Y15237D01*
X39120Y15243D01*
X39111Y15292D01*
X39076Y15344D01*
X38515Y15904D01*
X38463Y15940D01*
X38400Y15952D01*
X35479D01*
X35096Y16335D01*
X35043Y16371D01*
X34981Y16383D01*
X33945D01*
X30678Y19650D01*
X30625Y19686D01*
X30563Y19698D01*
X29421D01*
X28604Y20515D01*
X28551Y20550D01*
X28489Y20562D01*
X27014D01*
X27008Y20605D01*
X26980Y20674D01*
X26934Y20734D01*
X26875Y20779D01*
X26806Y20808D01*
X26732Y20817D01*
D02*
G37*
G36*
X30551Y14695D02*
X30477Y14686D01*
X30408Y14657D01*
X30374Y14631D01*
X30340Y14657D01*
X30271Y14686D01*
X30197Y14695D01*
X30123Y14686D01*
X30054Y14657D01*
X29995Y14612D01*
X29949Y14552D01*
X29921Y14483D01*
X29911Y14409D01*
X29921Y14335D01*
X29949Y14266D01*
X29995Y14207D01*
X30054Y14162D01*
X30123Y14133D01*
X30197Y14124D01*
X30271Y14133D01*
X30340Y14162D01*
X30374Y14188D01*
X30408Y14162D01*
X30477Y14133D01*
X30551Y14124D01*
X30625Y14133D01*
X30694Y14162D01*
X30753Y14207D01*
X30799Y14266D01*
X30827Y14335D01*
X30837Y14409D01*
X30827Y14483D01*
X30799Y14552D01*
X30753Y14612D01*
X30694Y14657D01*
X30625Y14686D01*
X30551Y14695D01*
D02*
G37*
G36*
X33268Y14656D02*
X33194Y14646D01*
X33125Y14618D01*
X33091Y14591D01*
X33056Y14618D01*
X32987Y14646D01*
X32913Y14656D01*
X32839Y14646D01*
X32770Y14618D01*
X32736Y14591D01*
X32702Y14618D01*
X32633Y14646D01*
X32559Y14656D01*
X32485Y14646D01*
X32416Y14618D01*
X32357Y14572D01*
X32311Y14513D01*
X32283Y14444D01*
X32273Y14370D01*
X32283Y14296D01*
X32311Y14227D01*
X32357Y14168D01*
X32416Y14122D01*
X32485Y14094D01*
X32559Y14084D01*
X32633Y14094D01*
X32702Y14122D01*
X32736Y14149D01*
X32770Y14122D01*
X32839Y14094D01*
X32913Y14084D01*
X32987Y14094D01*
X33056Y14122D01*
X33091Y14149D01*
X33125Y14122D01*
X33194Y14094D01*
X33268Y14084D01*
X33342Y14094D01*
X33411Y14122D01*
X33470Y14168D01*
X33515Y14227D01*
X33544Y14296D01*
X33554Y14370D01*
X33544Y14444D01*
X33515Y14513D01*
X33470Y14572D01*
X33411Y14618D01*
X33342Y14646D01*
X33268Y14656D01*
D02*
G37*
G36*
X14764Y16606D02*
X14590Y16592D01*
X14420Y16551D01*
X14258Y16484D01*
X14109Y16393D01*
X13976Y16280D01*
X13863Y16147D01*
X13771Y15998D01*
X13705Y15836D01*
X13664Y15666D01*
X13650Y15492D01*
X13664Y15318D01*
X13705Y15148D01*
X13771Y14987D01*
X13863Y14838D01*
X13976Y14705D01*
X14109Y14591D01*
X14258Y14500D01*
X14420Y14433D01*
X14590Y14392D01*
X14764Y14378D01*
X14938Y14392D01*
X15108Y14433D01*
X15269Y14500D01*
X15418Y14591D01*
X15551Y14705D01*
X15665Y14838D01*
X15756Y14987D01*
X15823Y15148D01*
X15864Y15318D01*
X15877Y15492D01*
X15864Y15666D01*
X15823Y15836D01*
X15756Y15998D01*
X15665Y16147D01*
X15551Y16280D01*
X15418Y16393D01*
X15269Y16484D01*
X15108Y16551D01*
X14938Y16592D01*
X14764Y16606D01*
D02*
G37*
%LPD*%
G36*
X28241Y27717D02*
X28221Y27671D01*
X24300D01*
X24280Y27721D01*
X24441Y27882D01*
X28076D01*
X28241Y27717D01*
D02*
G37*
G36*
X15176Y28069D02*
X15177Y28066D01*
X15205Y27997D01*
X15251Y27938D01*
X15288Y27909D01*
X15289Y27906D01*
Y27851D01*
X15288Y27849D01*
X15251Y27820D01*
X15205Y27761D01*
X15177Y27692D01*
X15167Y27618D01*
X15177Y27544D01*
X15205Y27475D01*
X15251Y27416D01*
X15288Y27387D01*
X15289Y27385D01*
Y27330D01*
X15288Y27327D01*
X15251Y27299D01*
X15205Y27239D01*
X15177Y27170D01*
X15167Y27096D01*
X15177Y27022D01*
X15205Y26953D01*
X15251Y26894D01*
X15310Y26849D01*
X15379Y26820D01*
X15453Y26811D01*
X15465Y26812D01*
X16743Y25534D01*
X16723Y25488D01*
X13937D01*
X13863Y25473D01*
X13801Y25432D01*
X13516Y25147D01*
X13504Y25148D01*
X13430Y25138D01*
X13361Y25110D01*
X13302Y25064D01*
X13256Y25005D01*
X13228Y24936D01*
X13225Y24915D01*
X13175Y24918D01*
Y25065D01*
X14826Y26717D01*
X14868Y26779D01*
X14883Y26853D01*
Y27838D01*
X15129Y28085D01*
X15176Y28069D01*
D02*
G37*
G36*
X19754Y24358D02*
X19496Y24100D01*
X19427Y24128D01*
X19291Y24146D01*
X19156Y24128D01*
X19029Y24076D01*
X18921Y23993D01*
X18837Y23884D01*
X18809Y23815D01*
X18110D01*
X18037Y23800D01*
X17974Y23758D01*
X16367Y22151D01*
X13747D01*
X13723Y22201D01*
X13752Y22239D01*
X13780Y22308D01*
X13790Y22382D01*
X13780Y22456D01*
X13752Y22525D01*
X13706Y22584D01*
X13647Y22629D01*
X13578Y22658D01*
X13504Y22668D01*
X13492Y22666D01*
X13417Y22741D01*
Y22916D01*
X13467Y22957D01*
X13504Y22952D01*
X13578Y22962D01*
X13647Y22991D01*
X13706Y23036D01*
X13752Y23095D01*
X13780Y23164D01*
X13790Y23238D01*
X13788Y23250D01*
X14942Y24404D01*
X19735D01*
X19754Y24358D01*
D02*
G37*
G36*
X30430Y21929D02*
X30412Y21876D01*
X30369Y21871D01*
X30300Y21842D01*
X30241Y21797D01*
X30235Y21789D01*
X29638D01*
X28927Y22500D01*
X28864Y22542D01*
X28790Y22557D01*
X28533D01*
X28459Y22542D01*
X28396Y22500D01*
X28167Y22271D01*
X27522D01*
X27451Y22342D01*
X27410Y22370D01*
X27404Y22428D01*
X27405Y22429D01*
X27427Y22445D01*
X27472Y22505D01*
X27501Y22574D01*
X27506Y22614D01*
X27892D01*
X27954Y22626D01*
X28007Y22662D01*
X28039Y22694D01*
X29665D01*
X30430Y21929D01*
D02*
G37*
G54D10*
X26624Y16076D02*
X26690Y16142D01*
X26821D01*
X26886Y16076D01*
Y16010D01*
X26821Y15945D01*
X26755D01*
X26821D01*
X26886Y15879D01*
Y15814D01*
X26821Y15748D01*
X26690D01*
X26624Y15814D01*
G54D125*
X14690Y26853D02*
Y27918D01*
X12982Y25145D02*
X14690Y26853D01*
X12982Y22234D02*
Y25145D01*
Y22234D02*
X13258Y21959D01*
X13224Y22661D02*
X13504Y22382D01*
X13224Y22661D02*
Y23549D01*
X14498Y24823D01*
X22264D01*
X16066Y29294D02*
X18416D01*
X14690Y27918D02*
X16066Y29294D01*
X21337Y32215D02*
X21339D01*
X18416Y29294D02*
X21337Y32215D01*
X24065Y28445D02*
X28396D01*
X24185Y28260D02*
X28280D01*
X24361Y28075D02*
X28156D01*
X21847Y25561D02*
X24361Y28075D01*
X24230Y27478D02*
X28413D01*
X22047Y25295D02*
X24230Y27478D01*
X13937Y25295D02*
X22047D01*
X24380Y27274D02*
X28331D01*
X22165Y25059D02*
X24380Y27274D01*
X14134Y25059D02*
X22165D01*
X24488Y27047D02*
X28277D01*
X22264Y24823D02*
X24488Y27047D01*
X14862Y24596D02*
X22402D01*
X32648Y28248D02*
X33268Y27628D01*
X31187Y28248D02*
X32648D01*
X30494Y27555D02*
X31187Y28248D01*
X32563Y28012D02*
X32988Y27587D01*
X31309Y28012D02*
X32563D01*
X30600Y27303D02*
X31309Y28012D01*
X32447Y27795D02*
X32801Y27441D01*
X31419Y27795D02*
X32447D01*
X30711Y27087D02*
X31419Y27795D01*
X32275Y26497D02*
Y26869D01*
X32152Y26992D02*
X32275Y26869D01*
X31303Y26992D02*
X32152D01*
X32334Y27554D02*
X32589Y27299D01*
X31511Y27554D02*
X32334D01*
X30817Y26860D02*
X31511Y27554D01*
X30955Y26644D02*
X31303Y26992D01*
X31673Y26427D02*
X31959Y26713D01*
X29285Y27555D02*
X30494D01*
X28396Y28445D02*
X29285Y27555D01*
X29237Y27303D02*
X30600D01*
X28280Y28260D02*
X29237Y27303D01*
X29144Y27087D02*
X30711D01*
X28156Y28075D02*
X29144Y27087D01*
X29031Y26860D02*
X30817D01*
X28413Y27478D02*
X29031Y26860D01*
X28961Y26644D02*
X30955D01*
X28331Y27274D02*
X28961Y26644D01*
X28897Y26427D02*
X31673D01*
X28277Y27047D02*
X28897Y26427D01*
X31565Y26191D02*
X32165Y25591D01*
X28809Y26191D02*
X31565D01*
X28199Y26801D02*
X28809Y26191D01*
X24606Y26801D02*
X28199Y26801D01*
X17543Y26049D02*
X21669D01*
X15453Y28140D02*
X17543Y26049D01*
X15453Y27618D02*
X17264Y25807D01*
X21732D01*
X16988Y25561D02*
X21847D01*
X15453Y27096D02*
X16988Y25561D01*
X32988Y25980D02*
X33180Y25788D01*
X32988Y25980D02*
Y27587D01*
X33268Y26230D02*
Y27628D01*
X22402Y24596D02*
X24606Y26801D01*
X32801Y25650D02*
X32805Y25646D01*
X32801Y25650D02*
Y27441D01*
X32589Y26083D02*
Y27299D01*
X32490Y25984D02*
X32589Y26083D01*
X27091Y24110D02*
X28852D01*
X18110Y23622D02*
X19291D01*
X16447Y21959D02*
X18110Y23622D01*
X13258Y21959D02*
X16447D01*
X21732Y25807D02*
X24185Y28260D01*
X21669Y26049D02*
X24065Y28445D01*
X13504Y23238D02*
X14862Y24596D01*
X13937Y24862D02*
X14134Y25059D01*
X13504Y24862D02*
X13937Y25295D01*
X29478Y23484D02*
X30020D01*
X28852Y24110D02*
X29478Y23484D01*
X27053Y24148D02*
X27091Y24110D01*
X21372Y24148D02*
X27053D01*
X20866Y23642D02*
X21372Y24148D01*
X27260Y24346D02*
X27303Y24390D01*
X20016Y24346D02*
X27260D01*
X19291Y23622D02*
X20016Y24346D01*
G54D129*
X32441Y25984D02*
X32490D01*
G54D134*
X16644Y38671D02*
D03*
X19400D02*
D03*
G54D135*
X19006Y37608D02*
D03*
X17037D02*
D03*
G54D136*
X20866Y23642D02*
D03*
X22461Y23632D02*
D03*
X19291Y23622D02*
D03*
X24016D02*
D03*
G54D137*
X48642Y27854D02*
D03*
X48642Y18327D02*
D03*
G54D138*
X26378Y20335D02*
D03*
X15305Y26654D02*
D03*
X21339Y32215D02*
D03*
X19144Y26711D02*
D03*
X19675Y28337D02*
D03*
X19282D02*
D03*
Y28730D02*
D03*
X19267Y29446D02*
D03*
X19675Y28730D02*
D03*
X26671Y30827D02*
D03*
X25340Y31117D02*
D03*
X26319Y32411D02*
D03*
X29783Y31850D02*
D03*
X27087Y29685D02*
D03*
X25128Y25079D02*
D03*
X36260Y16043D02*
D03*
X35699Y16378D02*
D03*
X33031Y17638D02*
D03*
X17717Y32756D02*
D03*
X17215Y26890D02*
D03*
X28386Y33543D02*
D03*
Y35236D02*
D03*
X48819Y29528D02*
D03*
X32283D02*
D03*
X39370D02*
D03*
X41732D02*
D03*
X47480Y37008D02*
D03*
X49311Y36909D02*
D03*
X35433Y20079D02*
D03*
X36417Y21063D02*
D03*
X37394Y20079D02*
D03*
X38386Y21063D02*
D03*
X42323D02*
D03*
X41331Y20079D02*
D03*
X40354Y21063D02*
D03*
X39370Y20079D02*
D03*
X46260Y21063D02*
D03*
X45268Y20079D02*
D03*
X44291Y21063D02*
D03*
X43307Y20079D02*
D03*
X48228Y21063D02*
D03*
X47244Y20079D02*
D03*
X35433Y22047D02*
D03*
X36417Y23031D02*
D03*
X37394Y22047D02*
D03*
X38386Y23031D02*
D03*
X42323D02*
D03*
X41331Y22047D02*
D03*
X40354Y23031D02*
D03*
X39370Y22047D02*
D03*
X46260Y23031D02*
D03*
X45268Y22047D02*
D03*
X44291Y23031D02*
D03*
X43307Y22047D02*
D03*
X22318Y30972D02*
D03*
X48228Y23031D02*
D03*
X47244Y22047D02*
D03*
X35433Y24016D02*
D03*
X36417Y25000D02*
D03*
X37394Y24016D02*
D03*
X38386Y25000D02*
D03*
X42323D02*
D03*
X41331Y24016D02*
D03*
X40354Y25000D02*
D03*
X39370Y24016D02*
D03*
X46260Y25000D02*
D03*
X45268Y24016D02*
D03*
X44291Y25000D02*
D03*
X43307Y24016D02*
D03*
X17517Y28976D02*
D03*
X20247Y27913D02*
D03*
X48228Y25000D02*
D03*
X47244Y24016D02*
D03*
Y25984D02*
D03*
X41102Y34409D02*
D03*
X21625Y28652D02*
D03*
X43307Y25984D02*
D03*
X12165Y17677D02*
D03*
X45268Y25984D02*
D03*
X40079Y34409D02*
D03*
X39370Y25984D02*
D03*
X23622Y32283D02*
D03*
X41331Y25984D02*
D03*
X19341Y35423D02*
D03*
X18032Y38150D02*
D03*
X37394Y25984D02*
D03*
X21142Y36102D02*
D03*
X35433Y25984D02*
D03*
X29567Y23871D02*
D03*
X34370Y26732D02*
D03*
X33580Y27726D02*
D03*
X31073Y28573D02*
D03*
X32894D02*
D03*
X33652Y32254D02*
D03*
X33366Y33130D02*
D03*
X43228Y35000D02*
D03*
X37835Y33819D02*
D03*
X40787Y36142D02*
D03*
X40315Y32677D02*
D03*
X40994Y33543D02*
D03*
X39961D02*
D03*
X41142Y35276D02*
D03*
X40177D02*
D03*
X39331Y32185D02*
D03*
X37756Y32992D02*
D03*
X38986Y33976D02*
D03*
X47008Y35709D02*
D03*
Y35197D02*
D03*
X48927Y35187D02*
D03*
X42116Y34843D02*
D03*
X43346Y35837D02*
D03*
X41772Y36634D02*
D03*
X32185Y33632D02*
D03*
X34094Y33110D02*
D03*
Y33632D02*
D03*
X47736Y35689D02*
D03*
X33130Y34321D02*
D03*
X32333Y34213D02*
D03*
X38474Y33976D02*
D03*
X33366Y33602D02*
D03*
X32894Y33130D02*
D03*
X32175Y33110D02*
D03*
X34272Y35394D02*
D03*
X31211Y34213D02*
D03*
X33130Y34843D02*
D03*
X39961Y37953D02*
D03*
Y37165D02*
D03*
X39646Y35974D02*
D03*
X41142Y37165D02*
D03*
Y37953D02*
D03*
X35000Y33819D02*
D03*
X34803Y33031D02*
D03*
X32894Y33602D02*
D03*
X34882Y34488D02*
D03*
X37008Y32638D02*
D03*
X38494Y32756D02*
D03*
X37677Y32185D02*
D03*
Y31535D02*
D03*
X38494Y33228D02*
D03*
X38686Y34560D02*
D03*
X40541Y36909D02*
D03*
X38967Y33228D02*
D03*
X42136Y36063D02*
D03*
X43425Y37283D02*
D03*
Y36634D02*
D03*
X43504Y37953D02*
D03*
X37008Y35000D02*
D03*
X33563Y35394D02*
D03*
X44094Y37362D02*
D03*
X40787Y38346D02*
D03*
X40315Y38937D02*
D03*
X40787D02*
D03*
X44094Y36181D02*
D03*
X42608Y36063D02*
D03*
X42136Y35591D02*
D03*
X42608D02*
D03*
X38780Y37953D02*
D03*
X45039Y35000D02*
D03*
X42628Y34843D02*
D03*
X44843Y35787D02*
D03*
X48228Y30866D02*
D03*
X45866D02*
D03*
X48228Y31693D02*
D03*
Y37953D02*
D03*
X45866D02*
D03*
X38268Y36969D02*
D03*
X46220Y34331D02*
D03*
X47028D02*
D03*
X37598Y37953D02*
D03*
X39055Y35472D02*
D03*
X42323Y37953D02*
D03*
X44094Y31457D02*
D03*
Y32638D02*
D03*
Y33819D02*
D03*
Y35000D02*
D03*
X44685Y30866D02*
D03*
Y37953D02*
D03*
X46102Y35000D02*
D03*
X46299Y35787D02*
D03*
X47047Y30866D02*
D03*
Y37953D02*
D03*
X47972Y33976D02*
D03*
X48770Y34606D02*
D03*
X49409Y30866D02*
D03*
Y31693D02*
D03*
Y32441D02*
D03*
Y37953D02*
D03*
X50512Y30866D02*
D03*
Y31811D02*
D03*
Y32638D02*
D03*
Y33819D02*
D03*
Y35000D02*
D03*
Y36181D02*
D03*
Y37008D02*
D03*
Y37953D02*
D03*
X50197Y33179D02*
D03*
X42677Y38937D02*
D03*
Y38346D02*
D03*
X47874D02*
D03*
Y38937D02*
D03*
X49764Y38346D02*
D03*
Y38937D02*
D03*
X38425D02*
D03*
Y38346D02*
D03*
X40315D02*
D03*
X49764Y29892D02*
D03*
Y30463D02*
D03*
X47874Y29892D02*
D03*
Y30472D02*
D03*
X39980Y36486D02*
D03*
X46831Y33425D02*
D03*
Y32382D02*
D03*
X47539D02*
D03*
Y33425D02*
D03*
X48642Y32913D02*
D03*
X49892Y34606D02*
D03*
X47972Y34498D02*
D03*
X48927Y35709D02*
D03*
X30679Y20423D02*
D03*
X30167Y22003D02*
D03*
X30591Y33819D02*
D03*
X28209Y31299D02*
D03*
X34055Y30866D02*
D03*
X33228Y30472D02*
D03*
X26083Y25295D02*
D03*
X27146Y26477D02*
D03*
X27511Y26211D02*
D03*
X31959Y26713D02*
D03*
X15453Y28140D02*
D03*
Y27618D02*
D03*
Y27096D02*
D03*
X28780Y25669D02*
D03*
X33180Y25788D02*
D03*
X33268Y26230D02*
D03*
X32805Y25646D02*
D03*
X32275Y26497D02*
D03*
X27569Y25305D02*
D03*
X31339Y29882D02*
D03*
X17904Y36202D02*
D03*
X18169Y36467D02*
D03*
X17234D02*
D03*
X17520Y36191D02*
D03*
X33623Y24420D02*
D03*
X33101Y24036D02*
D03*
X33484Y24045D02*
D03*
X30748Y21260D02*
D03*
X27559Y18622D02*
D03*
X36083Y16378D02*
D03*
X27224Y22648D02*
D03*
Y23031D02*
D03*
X27598Y22372D02*
D03*
X28661Y20945D02*
D03*
X26732Y20138D02*
D03*
Y20531D02*
D03*
X28661Y19685D02*
D03*
X26024Y18868D02*
D03*
Y19262D02*
D03*
X36270Y14311D02*
D03*
X38701Y14961D02*
D03*
X39094D02*
D03*
X37657Y14537D02*
D03*
X38051D02*
D03*
X35531Y18120D02*
D03*
X35335Y18445D02*
D03*
X34941D02*
D03*
X35974Y17037D02*
D03*
X36299Y17274D02*
D03*
Y17657D02*
D03*
X35512Y16053D02*
D03*
X36634Y28484D02*
D03*
X26752Y24626D02*
D03*
X24646Y23189D02*
D03*
X30020Y23484D02*
D03*
X27501Y25788D02*
D03*
X34921Y14311D02*
D03*
X37264Y14449D02*
D03*
X35492Y18839D02*
D03*
X34744Y18110D02*
D03*
X34665Y18740D02*
D03*
X34094Y17598D02*
D03*
X36644Y17864D02*
D03*
X38622Y16063D02*
D03*
X39252Y15354D02*
D03*
X28750Y18652D02*
D03*
X34183Y20364D02*
D03*
X27550Y17510D02*
D03*
X32047Y14370D02*
D03*
X31988Y22677D02*
D03*
X30827Y23927D02*
D03*
X32667Y21939D02*
D03*
X29380Y25295D02*
D03*
X30207Y24616D02*
D03*
X27303Y24390D02*
D03*
X28681Y24616D02*
D03*
X25679Y19065D02*
D03*
X26772Y18622D02*
D03*
X13937Y22372D02*
D03*
X31870Y20335D02*
D03*
X32717Y23356D02*
D03*
X24488Y27795D02*
D03*
X28661Y22067D02*
D03*
X30443Y21594D02*
D03*
X13937Y24862D02*
D03*
X32165Y25591D02*
D03*
X13504Y23238D02*
D03*
Y24862D02*
D03*
Y22382D02*
D03*
X26850Y22835D02*
D03*
X27559Y23307D02*
D03*
X25965Y21368D02*
D03*
Y21801D02*
D03*
X31969Y18780D02*
D03*
X31880Y16309D02*
D03*
X42835Y31850D02*
D03*
X42047Y33346D02*
D03*
X39961Y31654D02*
D03*
X41142D02*
D03*
X38425Y30472D02*
D03*
X38780Y30866D02*
D03*
X31339Y30472D02*
D03*
X30591Y30866D02*
D03*
X27559Y29252D02*
D03*
X38967Y32756D02*
D03*
X34075Y34488D02*
D03*
X32874Y37126D02*
D03*
X31693Y36378D02*
D03*
X30591Y36181D02*
D03*
X30906Y35640D02*
D03*
X30591Y35000D02*
D03*
X31693Y37126D02*
D03*
X32461Y35906D02*
D03*
X31693Y30866D02*
D03*
X43504D02*
D03*
X42323D02*
D03*
X32766Y19016D02*
D03*
X15315Y31988D02*
D03*
Y30807D02*
D03*
Y30217D02*
D03*
X12480Y32028D02*
D03*
Y31437D02*
D03*
Y30846D02*
D03*
Y30256D02*
D03*
X15197Y32451D02*
D03*
Y29793D02*
D03*
X12884D02*
D03*
X13474D02*
D03*
X14065D02*
D03*
X14656D02*
D03*
X14646Y32451D02*
D03*
X14055D02*
D03*
X13465D02*
D03*
X12874D02*
D03*
X24488Y29685D02*
D03*
X25118D02*
D03*
X26457D02*
D03*
X25118Y27795D02*
D03*
X26457D02*
D03*
X24656Y26230D02*
D03*
X24646Y25679D02*
D03*
X18465Y27392D02*
D03*
X18396Y22638D02*
D03*
X12156Y20758D02*
D03*
X12569Y26486D02*
D03*
X30591Y37953D02*
D03*
Y37008D02*
D03*
Y31811D02*
D03*
Y32638D02*
D03*
X42677Y29882D02*
D03*
X40787D02*
D03*
X40315D02*
D03*
X38425D02*
D03*
X33228D02*
D03*
X40315Y30472D02*
D03*
X40787D02*
D03*
X42677D02*
D03*
X41142Y30866D02*
D03*
X39961D02*
D03*
X37598D02*
D03*
X36417Y37953D02*
D03*
Y30866D02*
D03*
X37008Y31457D02*
D03*
Y37362D02*
D03*
Y36181D02*
D03*
Y33819D02*
D03*
X35236Y30866D02*
D03*
X32874D02*
D03*
X35236Y37953D02*
D03*
X34055D02*
D03*
X31693D02*
D03*
X32874D02*
D03*
X33228Y38346D02*
D03*
Y38927D02*
D03*
X31339Y38356D02*
D03*
Y38927D02*
D03*
X40561Y31909D02*
D03*
X47736Y35217D02*
D03*
X48209D02*
D03*
Y35689D02*
D03*
X42416Y34259D02*
D03*
X30551Y18740D02*
D03*
X31939Y24626D02*
D03*
X23583Y17677D02*
D03*
X26772Y21024D02*
D03*
Y19646D02*
D03*
X29724Y20984D02*
D03*
X29537Y19833D02*
D03*
X30896Y17244D02*
D03*
X30709Y22638D02*
D03*
X32047Y21299D02*
D03*
X38307Y14843D02*
D03*
X37096Y15404D02*
D03*
X37077Y16053D02*
D03*
X29331Y18533D02*
D03*
X26535Y22520D02*
D03*
X27598Y20945D02*
D03*
X32923Y16299D02*
D03*
X31083Y14252D02*
D03*
X26535Y23189D02*
D03*
X25620Y21585D02*
D03*
X41457Y32845D02*
D03*
X34272Y36437D02*
D03*
X33563D02*
D03*
X41122Y32333D02*
D03*
X27087Y27795D02*
D03*
X32441Y25984D02*
D03*
X27559Y28740D02*
D03*
X29134Y29252D02*
D03*
X34675Y15738D02*
D03*
X24646Y22520D02*
D03*
X26535Y26339D02*
D03*
Y25669D02*
D03*
X32717Y24409D02*
D03*
X30571Y25295D02*
D03*
X32530D02*
D03*
X36063Y33819D02*
D03*
X36260Y33031D02*
D03*
X42677Y14291D02*
D03*
X33425Y19606D02*
D03*
X31929Y23858D02*
D03*
X28661Y23346D02*
D03*
X27598Y19685D02*
D03*
X32744Y20610D02*
D03*
X39843Y14252D02*
D03*
X41575D02*
D03*
X31575Y17717D02*
D03*
G54D139*
X24902Y22146D02*
X25197Y22441D01*
X23947Y22146D02*
X24902D01*
X22461Y23632D02*
X23947Y22146D01*
X25197Y22441D02*
X26219D01*
X26421Y22238D02*
X26456Y22204D01*
X26419Y22238D02*
X26421D01*
X26254Y22403D02*
X26419Y22238D01*
X26254Y22403D02*
Y22406D01*
X26219Y22441D02*
X26254Y22406D01*
X26457Y22205D02*
X27313D01*
X26456Y22204D02*
X26457Y22205D01*
X29557Y21594D02*
X30443D01*
X28790Y22362D02*
X29557Y21594D01*
X28533Y22362D02*
X28790D01*
X28248Y22077D02*
X28533Y22362D01*
X27441Y22077D02*
X28248D01*
X30443Y21594D02*
X30443Y21594D01*
X27313Y22205D02*
X27441Y22077D01*
G54D140*
X17885Y35894D02*
X20346D01*
X22886Y33354D02*
X23349D01*
X20346Y35894D02*
X22886Y33354D01*
X22825Y33208D02*
X23289D01*
X20285Y35748D02*
X22825Y33208D01*
X17825Y35748D02*
X20285D01*
X23289Y33208D02*
X24625Y31872D01*
X23349Y33354D02*
X24685Y32018D01*
X26983D02*
X29956Y29045D01*
X26923Y31872D02*
X29895Y28900D01*
X24625Y31872D02*
X26923D01*
X24685Y32018D02*
X26983D01*
X29895Y28900D02*
X33069D01*
X29956Y29045D02*
X33129D01*
X17785Y35994D02*
X17885Y35894D01*
X17639Y35934D02*
X17825Y35748D01*
X33069Y28900D02*
X33878Y28091D01*
X33129Y29045D02*
X34024Y28151D01*
X33878Y25256D02*
Y28091D01*
X33199Y24577D02*
X33878Y25256D01*
X34024Y25196D02*
Y28151D01*
X33344Y24516D02*
X34024Y25196D01*
X33344Y24185D02*
Y24516D01*
X33199Y24133D02*
Y24577D01*
X33344Y24185D02*
X33484Y24045D01*
X33101Y24036D02*
X33199Y24133D01*
X17639Y35934D02*
Y36072D01*
X17785Y35994D02*
Y36083D01*
X17904Y36202D01*
X17520Y36191D02*
X17639Y36072D01*
G54D141*
X34833Y15148D02*
X36821D01*
X34675Y15305D02*
X34833Y15148D01*
X34885Y15274D02*
X36873D01*
X34727Y15431D02*
X34885Y15274D01*
X35699Y16378D02*
X35828Y16507D01*
X35954Y16507D02*
X36083Y16378D01*
X35954Y16507D02*
Y16637D01*
X33683Y15431D02*
X34727D01*
X33620Y15494D02*
X33683Y15431D01*
X33344Y15494D02*
X33620D01*
X29872Y18967D02*
X33344Y15494D01*
X33631Y15305D02*
X34675D01*
X33568Y15368D02*
X33631Y15305D01*
X33361Y15368D02*
X33568D01*
X33327Y15334D02*
X33361Y15368D01*
X29820Y18841D02*
X33327Y15334D01*
X30563Y19535D02*
X33878Y16220D01*
X29353Y19535D02*
X30563D01*
X28489Y20400D02*
X29353Y19535D01*
X30511Y19409D02*
X33826Y16094D01*
X29301Y19409D02*
X30511D01*
X28437Y20274D02*
X29301Y19409D01*
X31193Y20126D02*
X34449Y16870D01*
X30189Y20126D02*
X31193D01*
X28978Y21337D02*
X30189Y20126D01*
X31141Y20000D02*
X34397Y16744D01*
X30137Y20000D02*
X31141D01*
X28926Y21211D02*
X30137Y20000D01*
X28988Y18841D02*
X29820D01*
X28900Y18929D02*
X28988Y18841D01*
X28207Y18929D02*
X28900D01*
X29041Y18967D02*
X29872D01*
X28952Y19055D02*
X29041Y18967D01*
X28259Y19055D02*
X28952D01*
X29732Y22856D02*
X32697Y19892D01*
X27971Y22856D02*
X29732D01*
X32697Y19586D02*
Y19892D01*
X29784Y22982D02*
X32823Y19944D01*
X27919Y22982D02*
X29784D01*
X32823Y19638D02*
Y19944D01*
X27892Y22777D02*
X27971Y22856D01*
X27840Y22903D02*
X27919Y22982D01*
X27353Y22903D02*
X27840D01*
X27353Y22777D02*
X27892D01*
X27490Y25797D02*
X27637Y25944D01*
X37791Y14671D02*
Y14931D01*
X37917Y14671D02*
Y14983D01*
X27511Y26189D02*
Y26211D01*
X27637Y25944D02*
X27931D01*
X27511Y26189D02*
X27628Y26071D01*
X27931Y25944D02*
X35075Y18801D01*
X36999Y15148D02*
X37753D01*
X37917Y14983D01*
X37701Y15022D02*
X37791Y14931D01*
X36947Y15022D02*
X37701D01*
X27224Y22648D02*
X27353Y22777D01*
X27224Y23031D02*
X27353Y22903D01*
X27313Y21211D02*
X28926D01*
X27365Y21337D02*
X28978D01*
X26868Y20274D02*
X28437D01*
X26732Y20531D02*
X26864Y20400D01*
X36941Y15028D02*
X36947Y15022D01*
X36941Y15028D02*
X36941D01*
X36821Y15148D02*
X36941Y15028D01*
X36993Y15154D02*
X36999Y15148D01*
X36993Y15154D02*
X36993D01*
X36873Y15274D02*
X36993Y15154D01*
X35201Y18579D02*
X35335Y18445D01*
X35720Y16870D02*
X35954Y16637D01*
X35828Y16507D02*
Y16585D01*
X35668Y16744D02*
X35828Y16585D01*
X34397Y16744D02*
X35668D01*
X34981Y16220D02*
X35412Y15790D01*
X34929Y16094D02*
X35360Y15664D01*
X35201Y18579D02*
Y18853D01*
X27983Y26070D02*
X35201Y18853D01*
X27906Y26070D02*
X27983D01*
X27906Y26071D02*
X27906Y26070D01*
X27628Y26071D02*
X27906D01*
X35075Y18579D02*
Y18801D01*
X27499Y25788D02*
X27501D01*
X27490Y25797D02*
X27499Y25788D01*
X27628Y26071D02*
X27629Y26070D01*
X38348Y15664D02*
X38835Y15177D01*
X35360Y15664D02*
X38348D01*
X38400Y15790D02*
X38961Y15229D01*
X35412Y15790D02*
X38400D01*
X34941Y18445D02*
X35075Y18579D01*
X32823Y19638D02*
X34941Y17520D01*
X32697Y19586D02*
X34889Y17394D01*
X36161Y17520D02*
X36299Y17657D01*
X36179Y17394D02*
X36299Y17274D01*
X34889Y17394D02*
X36179D01*
X34449Y16870D02*
X35720D01*
X37917Y14671D02*
X38051Y14537D01*
X37657D02*
X37791Y14671D01*
X38701Y14961D02*
X38835Y15094D01*
X38961Y15094D02*
X39094Y14961D01*
X38961Y15094D02*
Y15229D01*
X28130Y19006D02*
X28207Y18929D01*
X28182Y19132D02*
X28259Y19055D01*
X26024Y18868D02*
X26161Y19006D01*
X26024Y19262D02*
X26154Y19132D01*
X34941Y17520D02*
X36161D01*
X26864Y20400D02*
X28489D01*
X26732Y20138D02*
X26868Y20274D01*
X27054Y21648D02*
X27365Y21337D01*
X26118Y21648D02*
X27054D01*
X26118Y21522D02*
X27002D01*
X27313Y21211D01*
X26154Y19132D02*
X28182D01*
X26161Y19006D02*
X28130D01*
X33878Y16220D02*
X34981D01*
X33826Y16094D02*
X34929D01*
X25965Y21801D02*
X26118Y21648D01*
X25965Y21368D02*
X26118Y21522D01*
X38835Y15094D02*
Y15177D01*
M02*
