G04*
G04 #@! TF.GenerationSoftware,Altium Limited,Altium Designer,18.1.6 (161)*
G04*
G04 Layer_Physical_Order=4*
G04 Layer_Color=16711680*
%FSLAX24Y24*%
%MOIN*%
G70*
G01*
G75*
%ADD10C,0.0098*%
%ADD18C,0.0394*%
%ADD121R,0.0276X0.1654*%
%ADD122R,0.0276X0.1260*%
%ADD124C,0.0295*%
%ADD125C,0.0126*%
%ADD126C,0.0591*%
%ADD127C,0.0157*%
%ADD129C,0.0209*%
%ADD130C,0.0102*%
%ADD133C,0.1969*%
%ADD134C,0.0551*%
%ADD135C,0.0472*%
%ADD136C,0.0787*%
%ADD137C,0.1772*%
%ADD138C,0.0315*%
%ADD142C,0.0600*%
%ADD143C,0.0276*%
G36*
X51033Y16979D02*
X43425D01*
Y16981D01*
X43284Y16962D01*
X43153Y16908D01*
X43040Y16822D01*
X42954Y16709D01*
X42900Y16578D01*
X42881Y16437D01*
X42883D01*
Y14142D01*
X42512D01*
Y14116D01*
X42480D01*
Y13189D01*
X42283D01*
Y14116D01*
X42252D01*
Y14142D01*
X41331D01*
Y14116D01*
X41299D01*
Y13189D01*
X41102D01*
Y14116D01*
X40905D01*
Y13189D01*
X40709D01*
Y14116D01*
X40677D01*
Y14142D01*
X39756D01*
Y14116D01*
X39724D01*
Y13189D01*
X39528D01*
Y14116D01*
X39331D01*
Y13189D01*
X39134D01*
Y14116D01*
X39102D01*
Y14142D01*
X39002D01*
X38966Y14195D01*
X38953Y14208D01*
X39109Y14365D01*
X39148Y14424D01*
X39162Y14493D01*
Y14684D01*
X39168Y14684D01*
X39237Y14713D01*
X39297Y14758D01*
X39342Y14818D01*
X39371Y14887D01*
X39380Y14961D01*
X39371Y15035D01*
X39342Y15104D01*
X39297Y15163D01*
X39237Y15208D01*
X39168Y15237D01*
X39094Y15247D01*
X39020Y15237D01*
X38952Y15208D01*
X38898Y15167D01*
X38844Y15208D01*
X38775Y15237D01*
X38701Y15247D01*
X38627Y15237D01*
X38558Y15208D01*
X38499Y15163D01*
X38453Y15104D01*
X38425Y15035D01*
X38415Y14961D01*
X38425Y14887D01*
X38453Y14818D01*
X38499Y14758D01*
X38558Y14713D01*
X38627Y14684D01*
X38627Y14684D01*
X38632Y14635D01*
X38465Y14468D01*
X38426Y14410D01*
X38412Y14341D01*
Y14268D01*
X38317Y14173D01*
X38296Y14142D01*
X38181D01*
Y14116D01*
X38150D01*
Y13189D01*
X37953D01*
Y14116D01*
X37921D01*
Y14142D01*
X37394D01*
Y14116D01*
X37362D01*
Y13189D01*
X37165D01*
Y14116D01*
X37134D01*
Y14142D01*
X37033D01*
X36998Y14195D01*
X36938Y14255D01*
Y14349D01*
X36944Y14350D01*
X37013Y14378D01*
X37072Y14424D01*
X37118Y14483D01*
X37146Y14552D01*
X37156Y14626D01*
X37146Y14700D01*
X37118Y14769D01*
X37072Y14828D01*
X37013Y14874D01*
X36944Y14902D01*
X36870Y14912D01*
X36796Y14902D01*
X36727Y14874D01*
X36673Y14832D01*
X36619Y14874D01*
X36550Y14902D01*
X36476Y14912D01*
X36402Y14902D01*
X36333Y14874D01*
X36274Y14828D01*
X36229Y14769D01*
X36200Y14700D01*
X36190Y14626D01*
X36200Y14552D01*
X36229Y14483D01*
X36274Y14424D01*
X36333Y14378D01*
X36402Y14350D01*
X36409Y14349D01*
Y14255D01*
X36349Y14195D01*
X36313Y14142D01*
X36213D01*
Y14116D01*
X36181D01*
Y13189D01*
X35984D01*
Y14116D01*
X35953D01*
Y14142D01*
X35852D01*
X35817Y14195D01*
X35732Y14280D01*
Y14292D01*
X35718Y14361D01*
X35697Y14393D01*
X35725Y14414D01*
X35770Y14473D01*
X35799Y14542D01*
X35809Y14616D01*
X35799Y14690D01*
X35770Y14759D01*
X35725Y14818D01*
X35666Y14864D01*
X35597Y14892D01*
X35523Y14902D01*
X35449Y14892D01*
X35380Y14864D01*
X35342Y14835D01*
X35340Y14838D01*
X35281Y14883D01*
X35212Y14912D01*
X35138Y14922D01*
X35064Y14912D01*
X34995Y14883D01*
X34936Y14838D01*
X34890Y14779D01*
X34883Y14762D01*
X34832Y14769D01*
X34817Y14880D01*
X34765Y15006D01*
X34682Y15115D01*
X34573Y15198D01*
X34447Y15250D01*
X34311Y15268D01*
X34175Y15250D01*
X34049Y15198D01*
X33940Y15115D01*
X33890Y15049D01*
X33828Y15050D01*
X33749Y15129D01*
X33741Y15192D01*
X33712Y15261D01*
X33667Y15320D01*
X33608Y15366D01*
X33539Y15394D01*
X33465Y15404D01*
X33391Y15394D01*
X33322Y15366D01*
X33262Y15320D01*
X33217Y15261D01*
X33188Y15192D01*
X33179Y15118D01*
X33188Y15044D01*
X33217Y14975D01*
X33262Y14916D01*
X33322Y14871D01*
X33391Y14842D01*
X33454Y14834D01*
X33461Y14827D01*
X33458Y14801D01*
X33405Y14769D01*
X33378Y14780D01*
X33268Y14795D01*
X32979D01*
X32969Y14864D01*
X32927Y14966D01*
X32859Y15054D01*
X30399Y17515D01*
X30311Y17582D01*
X30209Y17625D01*
X30099Y17639D01*
X28198D01*
X28088Y17625D01*
X27986Y17582D01*
X27898Y17515D01*
X27737Y17354D01*
X26288D01*
X25153Y18489D01*
X25065Y18557D01*
X24962Y18599D01*
X24852Y18614D01*
X22598D01*
X22488Y18599D01*
X22386Y18557D01*
X22298Y18489D01*
X22230Y18401D01*
X22188Y18299D01*
X22174Y18189D01*
Y17874D01*
Y17520D01*
X22188Y17410D01*
X22230Y17307D01*
X22298Y17219D01*
X22386Y17152D01*
X22488Y17109D01*
X22598Y17095D01*
X22708Y17109D01*
X22811Y17152D01*
X22899Y17219D01*
X22966Y17307D01*
X23009Y17410D01*
X23023Y17520D01*
Y17764D01*
X24676D01*
X25583Y16857D01*
X25564Y16811D01*
X24940D01*
X24932Y16822D01*
X24819Y16908D01*
X24688Y16962D01*
X24547Y16981D01*
Y16979D01*
X18157D01*
X18110Y16981D01*
X18110Y16981D01*
Y17520D01*
X11960Y17520D01*
Y21810D01*
X12010Y21820D01*
X12011Y21816D01*
X12063Y21748D01*
X13589Y20223D01*
X13656Y20171D01*
X13735Y20138D01*
X13819Y20127D01*
X18438D01*
X19596Y18969D01*
Y18406D01*
Y17992D01*
Y17559D01*
X19607Y17475D01*
X19639Y17396D01*
X19691Y17329D01*
X19758Y17277D01*
X19837Y17245D01*
X19921Y17233D01*
X20006Y17245D01*
X20084Y17277D01*
X20152Y17329D01*
X20203Y17396D01*
X20236Y17475D01*
X20247Y17559D01*
Y17992D01*
Y18406D01*
Y19104D01*
X20236Y19189D01*
X20203Y19267D01*
X20152Y19335D01*
X18803Y20683D01*
X18736Y20735D01*
X18657Y20767D01*
X18573Y20778D01*
X13954D01*
X12619Y22113D01*
Y25248D01*
X13340Y25970D01*
X13392Y26037D01*
X13425Y26116D01*
X13436Y26200D01*
Y26912D01*
X20270Y33746D01*
X20321Y33814D01*
X20354Y33892D01*
X20365Y33976D01*
Y34252D01*
Y34646D01*
Y35039D01*
X20354Y35124D01*
X20321Y35202D01*
X20270Y35270D01*
X20202Y35321D01*
X20124Y35354D01*
X20039Y35365D01*
X19955Y35354D01*
X19877Y35321D01*
X19809Y35270D01*
X19757Y35202D01*
X19725Y35124D01*
X19714Y35039D01*
Y34646D01*
Y34111D01*
X12880Y27277D01*
X12828Y27210D01*
X12796Y27132D01*
X12785Y27047D01*
Y26335D01*
X12063Y25613D01*
X12011Y25546D01*
X12010Y25542D01*
X11960Y25552D01*
Y32677D01*
X16142D01*
Y39222D01*
X51033D01*
Y16979D01*
D02*
G37*
G36*
X32134Y14578D02*
Y14370D01*
X32149Y14260D01*
X32177Y14192D01*
X32144Y14142D01*
X31094D01*
Y14116D01*
X31063D01*
Y13189D01*
X30866D01*
Y14116D01*
X30835D01*
Y14142D01*
X30806D01*
Y14283D01*
X30827Y14335D01*
X30837Y14409D01*
X30827Y14483D01*
X30799Y14552D01*
X30753Y14612D01*
X30694Y14657D01*
X30625Y14686D01*
X30551Y14695D01*
X30477Y14686D01*
X30408Y14657D01*
X30402Y14652D01*
X30360Y14662D01*
X30348Y14711D01*
X30582Y14945D01*
X30942D01*
X30949Y14936D01*
X31009Y14890D01*
X31078Y14862D01*
X31152Y14852D01*
X31226Y14862D01*
X31295Y14890D01*
X31354Y14936D01*
X31399Y14995D01*
X31428Y15064D01*
X31437Y15138D01*
X31428Y15212D01*
X31426Y15215D01*
X31469Y15243D01*
X32134Y14578D01*
D02*
G37*
%LPC*%
G36*
X17904Y36488D02*
X17830Y36478D01*
X17761Y36450D01*
X17705Y36406D01*
X17663Y36439D01*
X17594Y36467D01*
X17520Y36477D01*
X17446Y36467D01*
X17377Y36439D01*
X17318Y36393D01*
X17272Y36334D01*
X17244Y36265D01*
X17234Y36191D01*
X17244Y36117D01*
X17272Y36048D01*
X17318Y35989D01*
X17377Y35943D01*
X17446Y35915D01*
X17520Y35905D01*
X17594Y35915D01*
X17663Y35943D01*
X17719Y35987D01*
X17761Y35954D01*
X17830Y35926D01*
X17904Y35916D01*
X17978Y35926D01*
X18047Y35954D01*
X18106Y36000D01*
X18151Y36059D01*
X18180Y36128D01*
X18190Y36202D01*
X18180Y36276D01*
X18151Y36345D01*
X18106Y36404D01*
X18047Y36450D01*
X17978Y36478D01*
X17904Y36488D01*
D02*
G37*
G36*
X27362Y35522D02*
X27288Y35512D01*
X27219Y35484D01*
X27160Y35438D01*
X27115Y35379D01*
X27086Y35310D01*
X27076Y35236D01*
X27086Y35162D01*
X27115Y35093D01*
X27160Y35034D01*
X27219Y34989D01*
X27288Y34960D01*
X27362Y34950D01*
X27436Y34960D01*
X27505Y34989D01*
X27564Y35034D01*
X27610Y35093D01*
X27638Y35162D01*
X27648Y35236D01*
X27638Y35310D01*
X27610Y35379D01*
X27564Y35438D01*
X27505Y35484D01*
X27436Y35512D01*
X27362Y35522D01*
D02*
G37*
G36*
X26378D02*
X26304Y35512D01*
X26235Y35484D01*
X26176Y35438D01*
X26130Y35379D01*
X26102Y35310D01*
X26092Y35236D01*
X26102Y35162D01*
X26130Y35093D01*
X26176Y35034D01*
X26235Y34989D01*
X26304Y34960D01*
X26378Y34950D01*
X26452Y34960D01*
X26521Y34989D01*
X26580Y35034D01*
X26626Y35093D01*
X26654Y35162D01*
X26664Y35236D01*
X26654Y35310D01*
X26626Y35379D01*
X26580Y35438D01*
X26521Y35484D01*
X26452Y35512D01*
X26378Y35522D01*
D02*
G37*
G36*
X25394D02*
X25320Y35512D01*
X25251Y35484D01*
X25192Y35438D01*
X25146Y35379D01*
X25118Y35310D01*
X25108Y35236D01*
X25118Y35162D01*
X25146Y35093D01*
X25192Y35034D01*
X25251Y34989D01*
X25320Y34960D01*
X25394Y34950D01*
X25468Y34960D01*
X25537Y34989D01*
X25596Y35034D01*
X25641Y35093D01*
X25670Y35162D01*
X25680Y35236D01*
X25670Y35310D01*
X25641Y35379D01*
X25596Y35438D01*
X25537Y35484D01*
X25468Y35512D01*
X25394Y35522D01*
D02*
G37*
G36*
X24409D02*
X24335Y35512D01*
X24266Y35484D01*
X24207Y35438D01*
X24162Y35379D01*
X24133Y35310D01*
X24124Y35236D01*
X24133Y35162D01*
X24162Y35093D01*
X24207Y35034D01*
X24266Y34989D01*
X24335Y34960D01*
X24409Y34950D01*
X24483Y34960D01*
X24552Y34989D01*
X24612Y35034D01*
X24657Y35093D01*
X24686Y35162D01*
X24695Y35236D01*
X24686Y35310D01*
X24657Y35379D01*
X24612Y35438D01*
X24552Y35484D01*
X24483Y35512D01*
X24409Y35522D01*
D02*
G37*
G36*
X43720Y38593D02*
X43202D01*
X43131Y38584D01*
X43064Y38556D01*
X43007Y38512D01*
X42359Y37865D01*
X39843D01*
X39771Y37855D01*
X39705Y37828D01*
X39647Y37784D01*
X38493Y36630D01*
X38450Y36573D01*
X38422Y36506D01*
X38413Y36435D01*
Y35089D01*
X38422Y35017D01*
X38450Y34951D01*
X38493Y34893D01*
X38970Y34417D01*
X38970Y34417D01*
X39015Y34357D01*
X39075Y34312D01*
X39075Y34312D01*
X39249Y34138D01*
Y33888D01*
X38337D01*
X38265Y33879D01*
X38199Y33851D01*
X38141Y33807D01*
X37986Y33652D01*
X37150D01*
X37078Y33643D01*
X37012Y33615D01*
X36954Y33571D01*
X36317Y32933D01*
X32293D01*
X32222Y32924D01*
X32155Y32896D01*
X32098Y32853D01*
X32061Y32815D01*
X31935D01*
X31900Y32851D01*
Y35531D01*
X31891Y35603D01*
X31863Y35669D01*
X31819Y35727D01*
X31309Y36236D01*
Y36579D01*
X31310Y36580D01*
X31319Y36654D01*
X31310Y36728D01*
X31281Y36797D01*
X31236Y36856D01*
X31176Y36901D01*
X31107Y36930D01*
X31033Y36939D01*
X30959Y36930D01*
X30891Y36901D01*
X30831Y36856D01*
X30786Y36797D01*
X30757Y36728D01*
X30748Y36654D01*
X30757Y36580D01*
X30757Y36579D01*
Y36196D01*
X30757Y36196D01*
X30748Y36122D01*
X30757Y36048D01*
X30786Y35979D01*
X30831Y35920D01*
X30891Y35874D01*
X30891Y35874D01*
X31348Y35417D01*
Y32962D01*
X31343Y32958D01*
X31298Y32899D01*
X31269Y32830D01*
X31259Y32756D01*
X31269Y32682D01*
X31298Y32613D01*
X31256Y32589D01*
X31095Y32751D01*
Y34242D01*
X31079Y34322D01*
X31033Y34390D01*
X29348Y36075D01*
X29280Y36120D01*
X29200Y36136D01*
X24121D01*
X24041Y36120D01*
X23974Y36075D01*
X22884Y34985D01*
X22839Y34918D01*
X22823Y34838D01*
Y33996D01*
X21326Y32499D01*
X21265Y32491D01*
X21196Y32462D01*
X21136Y32417D01*
X21091Y32358D01*
X21062Y32289D01*
X21053Y32215D01*
X21062Y32141D01*
X21091Y32072D01*
X21136Y32012D01*
X21196Y31967D01*
X21265Y31938D01*
X21339Y31929D01*
X21413Y31938D01*
X21482Y31967D01*
X21541Y32012D01*
X21586Y32072D01*
X21615Y32141D01*
X21623Y32206D01*
X23179Y33762D01*
X23224Y33829D01*
X23240Y33909D01*
Y34751D01*
X24208Y35719D01*
X29114D01*
X29275Y35558D01*
X29263Y35499D01*
X29227Y35484D01*
X29168Y35438D01*
X29122Y35379D01*
X29094Y35310D01*
X29084Y35236D01*
X29094Y35162D01*
X29122Y35093D01*
X29168Y35034D01*
X29227Y34989D01*
X29296Y34960D01*
X29370Y34950D01*
X29444Y34960D01*
X29513Y34989D01*
X29572Y35034D01*
X29618Y35093D01*
X29633Y35129D01*
X29692Y35141D01*
X30677Y34156D01*
Y32664D01*
X30693Y32584D01*
X30738Y32517D01*
X30770Y32485D01*
X30760Y32453D01*
X30747Y32437D01*
X30405D01*
X29996Y32846D01*
Y33683D01*
X29981Y33756D01*
X29939Y33819D01*
X29655Y34103D01*
X29593Y34145D01*
X29519Y34159D01*
X27785D01*
X27712Y34145D01*
X27649Y34103D01*
X27374Y33828D01*
X27362Y33829D01*
X27288Y33819D01*
X27260Y33808D01*
X27209Y33841D01*
Y33918D01*
X27195Y33992D01*
X27153Y34054D01*
X26787Y34420D01*
X26725Y34462D01*
X26651Y34477D01*
X25579D01*
X25506Y34462D01*
X25443Y34420D01*
X24759Y33736D01*
X24619D01*
X24612Y33745D01*
X24552Y33791D01*
X24483Y33819D01*
X24409Y33829D01*
X24335Y33819D01*
X24266Y33791D01*
X24207Y33745D01*
X24162Y33686D01*
X24133Y33617D01*
X24124Y33543D01*
X24133Y33469D01*
X24162Y33400D01*
X24207Y33341D01*
X24266Y33296D01*
X24335Y33267D01*
X24409Y33257D01*
X24483Y33267D01*
X24552Y33296D01*
X24612Y33341D01*
X24619Y33351D01*
X24839D01*
X24912Y33365D01*
X24975Y33407D01*
X25068Y33500D01*
X25116Y33484D01*
X25118Y33469D01*
X25146Y33400D01*
X25192Y33341D01*
X25251Y33296D01*
X25320Y33267D01*
X25394Y33257D01*
X25468Y33267D01*
X25537Y33296D01*
X25596Y33341D01*
X25641Y33400D01*
X25670Y33469D01*
X25680Y33543D01*
X25678Y33555D01*
X25926Y33803D01*
X26169D01*
X26186Y33753D01*
X26176Y33745D01*
X26130Y33686D01*
X26102Y33617D01*
X26092Y33543D01*
X26102Y33469D01*
X26130Y33400D01*
X26176Y33341D01*
X26185Y33334D01*
Y33140D01*
X26200Y33066D01*
X26242Y33004D01*
X27029Y32216D01*
X27092Y32174D01*
X27165Y32160D01*
X27578D01*
X29712Y30025D01*
X29775Y29983D01*
X29848Y29969D01*
X33538D01*
X34197Y29310D01*
Y28694D01*
X34188Y28686D01*
X34142Y28627D01*
X34114Y28558D01*
X34104Y28484D01*
X34114Y28410D01*
X34142Y28341D01*
X34188Y28282D01*
X34247Y28237D01*
X34316Y28208D01*
X34373Y28201D01*
X34394Y28171D01*
X34398Y28149D01*
X34382Y28129D01*
X34316Y28121D01*
X34247Y28092D01*
X34188Y28047D01*
X34142Y27987D01*
X34114Y27918D01*
X34104Y27844D01*
X34114Y27770D01*
X34142Y27702D01*
X34188Y27642D01*
X34247Y27597D01*
X34316Y27568D01*
X34349Y27564D01*
X34374Y27510D01*
X34365Y27497D01*
X34316Y27491D01*
X34247Y27462D01*
X34188Y27417D01*
X34142Y27358D01*
X34114Y27289D01*
X34104Y27215D01*
X34114Y27141D01*
X34142Y27072D01*
X34188Y27012D01*
X34247Y26967D01*
X34316Y26938D01*
X34390Y26929D01*
X34464Y26938D01*
X34533Y26967D01*
X34592Y27012D01*
X34637Y27072D01*
X34666Y27141D01*
X34676Y27215D01*
X34674Y27226D01*
X35254Y27807D01*
X35296Y27869D01*
X35311Y27943D01*
Y28231D01*
X35361Y28242D01*
X35395Y28191D01*
X36350Y27236D01*
X36348Y27224D01*
X36358Y27150D01*
X36386Y27081D01*
X36432Y27022D01*
X36491Y26977D01*
X36560Y26948D01*
X36634Y26939D01*
X36708Y26948D01*
X36777Y26977D01*
X36836Y27022D01*
X36881Y27081D01*
X36910Y27150D01*
X36920Y27224D01*
X36910Y27298D01*
X36881Y27367D01*
X36836Y27427D01*
X36777Y27472D01*
X36708Y27501D01*
X36658Y27507D01*
X36650Y27520D01*
X36675Y27574D01*
X36708Y27578D01*
X36777Y27607D01*
X36836Y27652D01*
X36881Y27711D01*
X36910Y27780D01*
X36920Y27854D01*
X36910Y27928D01*
X36881Y27997D01*
X36836Y28056D01*
X36777Y28102D01*
X36708Y28131D01*
X36634Y28140D01*
X36622Y28139D01*
X36069Y28692D01*
Y29783D01*
X36054Y29857D01*
X36012Y29920D01*
X34418Y31514D01*
X34355Y31556D01*
X34281Y31571D01*
X33790D01*
X33726Y31635D01*
X33745Y31681D01*
X39779D01*
X39859Y31697D01*
X39927Y31742D01*
X40197Y32012D01*
X40242Y32080D01*
X40258Y32160D01*
Y32542D01*
X40242Y32622D01*
X40197Y32689D01*
X40188Y32698D01*
X40689Y33199D01*
X40734Y33266D01*
X40750Y33346D01*
Y35367D01*
X41220Y35837D01*
X41269Y35843D01*
X41319Y35812D01*
Y35217D01*
Y34550D01*
X41328Y34478D01*
X41355Y34412D01*
X41399Y34354D01*
X41637Y34117D01*
X41637Y34116D01*
X41683Y34057D01*
X41742Y34012D01*
X41811Y33983D01*
X41885Y33973D01*
X41959Y33983D01*
X42028Y34012D01*
X42087Y34057D01*
X42132Y34116D01*
X42161Y34185D01*
X42171Y34259D01*
X42161Y34333D01*
X42132Y34402D01*
X42087Y34461D01*
X42028Y34507D01*
X42027Y34507D01*
X41870Y34664D01*
Y34941D01*
X42766D01*
X42837Y34950D01*
X42904Y34978D01*
X42961Y35021D01*
X43126Y35187D01*
X43942D01*
X44013Y35196D01*
X44080Y35224D01*
X44137Y35267D01*
X44824Y35954D01*
X47425D01*
X47457Y35922D01*
X47514Y35878D01*
X47581Y35851D01*
X47652Y35841D01*
X48779D01*
X48850Y35851D01*
X48917Y35878D01*
X48937Y35894D01*
X49143Y35687D01*
Y33346D01*
X49153Y33275D01*
X49180Y33208D01*
X49224Y33151D01*
X49793Y32583D01*
Y32240D01*
X49793Y32239D01*
X49783Y32165D01*
X49793Y32091D01*
X49821Y32022D01*
X49867Y31963D01*
X49926Y31918D01*
X49995Y31889D01*
X50069Y31879D01*
X50143Y31889D01*
X50212Y31918D01*
X50271Y31963D01*
X50317Y32022D01*
X50345Y32091D01*
X50355Y32165D01*
X50345Y32239D01*
X50345Y32240D01*
Y32622D01*
X50345Y32623D01*
X50355Y32697D01*
X50345Y32771D01*
X50317Y32840D01*
X50271Y32899D01*
X50212Y32944D01*
X50211Y32945D01*
X49695Y33461D01*
Y35801D01*
X49686Y35873D01*
X49658Y35939D01*
X49614Y35996D01*
X49203Y36408D01*
Y36762D01*
X49194Y36833D01*
X49166Y36900D01*
X49122Y36957D01*
X48404Y37675D01*
X48347Y37719D01*
X48280Y37747D01*
X48209Y37756D01*
X44671D01*
X43916Y38512D01*
X43858Y38556D01*
X43792Y38584D01*
X43720Y38593D01*
D02*
G37*
G36*
X17844Y28637D02*
X17770Y28627D01*
X17702Y28599D01*
X17642Y28553D01*
X17597Y28494D01*
X17568Y28425D01*
X17559Y28351D01*
X17568Y28277D01*
X17597Y28208D01*
X17642Y28149D01*
X17702Y28104D01*
X17770Y28075D01*
X17844Y28065D01*
X17918Y28075D01*
X17987Y28104D01*
X18047Y28149D01*
X18092Y28208D01*
X18121Y28277D01*
X18130Y28351D01*
X18121Y28425D01*
X18092Y28494D01*
X18047Y28553D01*
X17987Y28599D01*
X17918Y28627D01*
X17844Y28637D01*
D02*
G37*
G36*
X16545D02*
X16471Y28627D01*
X16402Y28599D01*
X16343Y28553D01*
X16298Y28494D01*
X16269Y28425D01*
X16259Y28351D01*
X16269Y28277D01*
X16298Y28208D01*
X16343Y28149D01*
X16402Y28104D01*
X16471Y28075D01*
X16545Y28065D01*
X16619Y28075D01*
X16688Y28104D01*
X16747Y28149D01*
X16793Y28208D01*
X16821Y28277D01*
X16831Y28351D01*
X16821Y28425D01*
X16793Y28494D01*
X16747Y28553D01*
X16688Y28599D01*
X16619Y28627D01*
X16545Y28637D01*
D02*
G37*
G36*
X29724Y28476D02*
X29604Y28461D01*
X29492Y28414D01*
X29396Y28340D01*
X29322Y28244D01*
X29276Y28132D01*
X29260Y28012D01*
X29276Y27892D01*
X29322Y27780D01*
X29396Y27683D01*
X29492Y27609D01*
X29604Y27563D01*
X29724Y27547D01*
X29845Y27563D01*
X29957Y27609D01*
X30053Y27683D01*
X30127Y27780D01*
X30173Y27892D01*
X30189Y28012D01*
X30173Y28132D01*
X30127Y28244D01*
X30053Y28340D01*
X29957Y28414D01*
X29845Y28461D01*
X29724Y28476D01*
D02*
G37*
G36*
X15453Y28426D02*
X15379Y28416D01*
X15310Y28387D01*
X15251Y28342D01*
X15205Y28283D01*
X15177Y28214D01*
X15167Y28140D01*
X15177Y28066D01*
X15205Y27997D01*
X15251Y27938D01*
X15288Y27909D01*
X15289Y27906D01*
Y27851D01*
X15288Y27849D01*
X15251Y27820D01*
X15205Y27761D01*
X15177Y27692D01*
X15167Y27618D01*
X15177Y27544D01*
X15205Y27475D01*
X15251Y27416D01*
X15288Y27387D01*
X15289Y27385D01*
Y27330D01*
X15288Y27327D01*
X15251Y27299D01*
X15205Y27239D01*
X15177Y27170D01*
X15167Y27096D01*
X15177Y27022D01*
X15205Y26953D01*
X15251Y26894D01*
X15310Y26849D01*
X15379Y26820D01*
X15453Y26811D01*
X15527Y26820D01*
X15596Y26849D01*
X15655Y26894D01*
X15700Y26953D01*
X15729Y27022D01*
X15739Y27096D01*
X15729Y27170D01*
X15700Y27239D01*
X15655Y27299D01*
X15618Y27327D01*
X15616Y27330D01*
Y27385D01*
X15618Y27387D01*
X15655Y27416D01*
X15700Y27475D01*
X15729Y27544D01*
X15739Y27618D01*
X15729Y27692D01*
X15700Y27761D01*
X15655Y27820D01*
X15618Y27849D01*
X15616Y27851D01*
Y27906D01*
X15618Y27909D01*
X15655Y27938D01*
X15700Y27997D01*
X15729Y28066D01*
X15739Y28140D01*
X15729Y28214D01*
X15700Y28283D01*
X15655Y28342D01*
X15596Y28387D01*
X15527Y28416D01*
X15453Y28426D01*
D02*
G37*
G36*
X31959Y26999D02*
X31885Y26989D01*
X31816Y26960D01*
X31756Y26915D01*
X31711Y26856D01*
X31682Y26787D01*
X31673Y26713D01*
X31682Y26639D01*
X31711Y26570D01*
X31756Y26510D01*
X31816Y26465D01*
X31885Y26436D01*
X31959Y26427D01*
X31997Y26432D01*
X31998Y26423D01*
X32027Y26354D01*
X32072Y26295D01*
X32132Y26249D01*
X32201Y26221D01*
X32205Y26220D01*
X32224Y26167D01*
X32193Y26127D01*
X32165Y26058D01*
X32155Y25984D01*
X32163Y25924D01*
X32164Y25909D01*
X32127Y25871D01*
X32091Y25867D01*
X32022Y25838D01*
X31963Y25793D01*
X31918Y25734D01*
X31889Y25665D01*
X31879Y25591D01*
X31889Y25517D01*
X31918Y25448D01*
X31963Y25388D01*
X32022Y25343D01*
X32091Y25314D01*
X32165Y25305D01*
X32239Y25314D01*
X32308Y25343D01*
X32368Y25388D01*
X32413Y25448D01*
X32442Y25517D01*
X32451Y25591D01*
X32446Y25629D01*
X32477Y25670D01*
X32482Y25673D01*
X32519Y25646D01*
X32529Y25572D01*
X32558Y25503D01*
X32603Y25443D01*
X32662Y25398D01*
X32731Y25370D01*
X32805Y25360D01*
X32879Y25370D01*
X32948Y25398D01*
X33007Y25443D01*
X33053Y25503D01*
X33064Y25529D01*
X33106Y25512D01*
X33180Y25502D01*
X33254Y25512D01*
X33323Y25540D01*
X33382Y25586D01*
X33428Y25645D01*
X33456Y25714D01*
X33466Y25788D01*
X33456Y25862D01*
X33428Y25931D01*
X33405Y25961D01*
X33411Y25983D01*
X33470Y26028D01*
X33515Y26087D01*
X33544Y26156D01*
X33554Y26230D01*
X33544Y26304D01*
X33515Y26373D01*
X33470Y26432D01*
X33411Y26478D01*
X33342Y26506D01*
X33268Y26516D01*
X33194Y26506D01*
X33125Y26478D01*
X33066Y26432D01*
X33020Y26373D01*
X32992Y26304D01*
X32982Y26230D01*
X32992Y26156D01*
X33020Y26087D01*
X33043Y26057D01*
X33037Y26036D01*
X32978Y25990D01*
X32933Y25931D01*
X32921Y25904D01*
X32879Y25922D01*
X32805Y25932D01*
X32770Y25927D01*
X32725Y25971D01*
X32727Y25984D01*
X32717Y26058D01*
X32689Y26127D01*
X32643Y26186D01*
X32584Y26232D01*
X32515Y26260D01*
X32511Y26261D01*
X32492Y26314D01*
X32522Y26354D01*
X32551Y26423D01*
X32561Y26497D01*
X32551Y26571D01*
X32522Y26640D01*
X32477Y26699D01*
X32418Y26744D01*
X32349Y26773D01*
X32275Y26783D01*
X32236Y26778D01*
X32235Y26787D01*
X32206Y26856D01*
X32161Y26915D01*
X32102Y26960D01*
X32033Y26989D01*
X31959Y26999D01*
D02*
G37*
G36*
X27511Y26497D02*
X27437Y26488D01*
X27368Y26459D01*
X27308Y26414D01*
X27263Y26354D01*
X27234Y26285D01*
X27225Y26211D01*
X27234Y26137D01*
X27263Y26068D01*
X27308Y26009D01*
X27281Y25967D01*
X27253Y25931D01*
X27225Y25862D01*
X27215Y25788D01*
X27225Y25714D01*
X27253Y25645D01*
X27299Y25586D01*
X27358Y25540D01*
X27427Y25512D01*
X27501Y25502D01*
X27575Y25512D01*
X27644Y25540D01*
X27703Y25586D01*
X27748Y25645D01*
X27777Y25714D01*
X27787Y25788D01*
X27777Y25862D01*
X27748Y25931D01*
X27726Y25960D01*
X27713Y26009D01*
X27758Y26068D01*
X27787Y26137D01*
X27797Y26211D01*
X27787Y26285D01*
X27758Y26354D01*
X27713Y26414D01*
X27654Y26459D01*
X27585Y26488D01*
X27511Y26497D01*
D02*
G37*
G36*
X13937Y25148D02*
X13863Y25138D01*
X13794Y25110D01*
X13756Y25081D01*
X13720Y25069D01*
X13685Y25081D01*
X13647Y25110D01*
X13578Y25138D01*
X13504Y25148D01*
X13430Y25138D01*
X13361Y25110D01*
X13302Y25064D01*
X13256Y25005D01*
X13228Y24936D01*
X13218Y24862D01*
X13228Y24788D01*
X13256Y24719D01*
X13302Y24660D01*
X13361Y24615D01*
X13430Y24586D01*
X13504Y24576D01*
X13578Y24586D01*
X13647Y24615D01*
X13685Y24643D01*
X13720Y24655D01*
X13756Y24643D01*
X13794Y24615D01*
X13863Y24586D01*
X13937Y24576D01*
X14011Y24586D01*
X14080Y24615D01*
X14139Y24660D01*
X14185Y24719D01*
X14213Y24788D01*
X14223Y24862D01*
X14213Y24936D01*
X14185Y25005D01*
X14139Y25064D01*
X14080Y25110D01*
X14011Y25138D01*
X13937Y25148D01*
D02*
G37*
G36*
X33484Y24331D02*
X33410Y24321D01*
X33341Y24293D01*
X33287Y24251D01*
X33244Y24284D01*
X33175Y24312D01*
X33101Y24322D01*
X33027Y24312D01*
X32958Y24284D01*
X32899Y24238D01*
X32854Y24179D01*
X32825Y24110D01*
X32816Y24036D01*
X32825Y23962D01*
X32854Y23893D01*
X32899Y23834D01*
X32958Y23788D01*
X33027Y23760D01*
X33101Y23750D01*
X33175Y23760D01*
X33244Y23788D01*
X33299Y23830D01*
X33341Y23798D01*
X33410Y23769D01*
X33484Y23759D01*
X33558Y23769D01*
X33627Y23798D01*
X33686Y23843D01*
X33732Y23902D01*
X33760Y23971D01*
X33770Y24045D01*
X33760Y24119D01*
X33732Y24188D01*
X33686Y24247D01*
X33627Y24293D01*
X33558Y24321D01*
X33484Y24331D01*
D02*
G37*
G36*
X27303Y24676D02*
X27229Y24666D01*
X27160Y24637D01*
X27101Y24592D01*
X27056Y24533D01*
X27027Y24464D01*
X27017Y24390D01*
X27027Y24316D01*
X27056Y24247D01*
X27101Y24188D01*
X27160Y24142D01*
X27229Y24114D01*
X27303Y24104D01*
X27377Y24114D01*
X27446Y24142D01*
X27505Y24188D01*
X27551Y24247D01*
X27579Y24316D01*
X27589Y24390D01*
X27579Y24464D01*
X27551Y24533D01*
X27505Y24592D01*
X27446Y24637D01*
X27377Y24666D01*
X27303Y24676D01*
D02*
G37*
G36*
X24114Y24107D02*
Y23720D01*
X24501D01*
X24497Y23751D01*
X24447Y23871D01*
X24368Y23974D01*
X24265Y24053D01*
X24145Y24103D01*
X24114Y24107D01*
D02*
G37*
G36*
X23917D02*
X23887Y24103D01*
X23767Y24053D01*
X23664Y23974D01*
X23584Y23871D01*
X23535Y23751D01*
X23531Y23720D01*
X23917D01*
Y24107D01*
D02*
G37*
G36*
X30020Y23770D02*
X29946Y23760D01*
X29877Y23732D01*
X29818Y23686D01*
X29772Y23627D01*
X29744Y23558D01*
X29734Y23484D01*
X29744Y23410D01*
X29772Y23341D01*
X29818Y23282D01*
X29877Y23237D01*
X29946Y23208D01*
X30020Y23198D01*
X30094Y23208D01*
X30163Y23237D01*
X30222Y23282D01*
X30267Y23341D01*
X30296Y23410D01*
X30306Y23484D01*
X30296Y23558D01*
X30267Y23627D01*
X30222Y23686D01*
X30163Y23732D01*
X30094Y23760D01*
X30020Y23770D01*
D02*
G37*
G36*
X24501Y23524D02*
X24114D01*
Y23137D01*
X24145Y23141D01*
X24265Y23191D01*
X24368Y23270D01*
X24447Y23373D01*
X24497Y23493D01*
X24501Y23524D01*
D02*
G37*
G36*
X23917D02*
X23531D01*
X23535Y23493D01*
X23584Y23373D01*
X23664Y23270D01*
X23767Y23191D01*
X23887Y23141D01*
X23917Y23137D01*
Y23524D01*
D02*
G37*
G36*
X20866Y24166D02*
X20730Y24148D01*
X20604Y24096D01*
X20496Y24012D01*
X20412Y23904D01*
X20360Y23777D01*
X20342Y23642D01*
X20360Y23506D01*
X20412Y23380D01*
X20496Y23271D01*
X20604Y23188D01*
X20730Y23135D01*
X20866Y23118D01*
X21002Y23135D01*
X21128Y23188D01*
X21237Y23271D01*
X21320Y23380D01*
X21372Y23506D01*
X21390Y23642D01*
X21372Y23777D01*
X21320Y23904D01*
X21237Y24012D01*
X21128Y24096D01*
X21002Y24148D01*
X20866Y24166D01*
D02*
G37*
G36*
X22461Y24156D02*
X22325Y24138D01*
X22199Y24086D01*
X22090Y24003D01*
X22007Y23894D01*
X21954Y23768D01*
X21936Y23632D01*
X21954Y23496D01*
X22007Y23370D01*
X22090Y23261D01*
X22199Y23178D01*
X22325Y23126D01*
X22461Y23108D01*
X22596Y23126D01*
X22723Y23178D01*
X22831Y23261D01*
X22915Y23370D01*
X22967Y23496D01*
X22985Y23632D01*
X22967Y23768D01*
X22915Y23894D01*
X22831Y24003D01*
X22723Y24086D01*
X22596Y24138D01*
X22461Y24156D01*
D02*
G37*
G36*
X19291Y24146D02*
X19156Y24128D01*
X19029Y24076D01*
X18921Y23993D01*
X18837Y23884D01*
X18785Y23758D01*
X18767Y23622D01*
X18785Y23486D01*
X18837Y23360D01*
X18921Y23251D01*
X19029Y23168D01*
X19156Y23116D01*
X19291Y23098D01*
X19427Y23116D01*
X19553Y23168D01*
X19662Y23251D01*
X19745Y23360D01*
X19798Y23486D01*
X19816Y23622D01*
X19798Y23758D01*
X19745Y23884D01*
X19662Y23993D01*
X19553Y24076D01*
X19427Y24128D01*
X19291Y24146D01*
D02*
G37*
G36*
X13504Y23524D02*
X13430Y23514D01*
X13361Y23486D01*
X13302Y23440D01*
X13256Y23381D01*
X13228Y23312D01*
X13218Y23238D01*
X13228Y23164D01*
X13256Y23095D01*
X13302Y23036D01*
X13361Y22991D01*
X13430Y22962D01*
X13504Y22952D01*
X13578Y22962D01*
X13647Y22991D01*
X13706Y23036D01*
X13752Y23095D01*
X13780Y23164D01*
X13790Y23238D01*
X13780Y23312D01*
X13752Y23381D01*
X13706Y23440D01*
X13647Y23486D01*
X13578Y23514D01*
X13504Y23524D01*
D02*
G37*
G36*
X27224Y23317D02*
X27150Y23308D01*
X27081Y23279D01*
X27022Y23234D01*
X26977Y23174D01*
X26948Y23105D01*
X26939Y23031D01*
X26948Y22957D01*
X26977Y22889D01*
X27014Y22840D01*
X26977Y22791D01*
X26948Y22722D01*
X26939Y22648D01*
X26948Y22574D01*
X26977Y22505D01*
X27022Y22445D01*
X27081Y22400D01*
X27150Y22371D01*
X27224Y22362D01*
X27298Y22371D01*
X27367Y22400D01*
X27427Y22445D01*
X27472Y22505D01*
X27501Y22574D01*
X27510Y22648D01*
X27501Y22722D01*
X27472Y22791D01*
X27434Y22840D01*
X27472Y22889D01*
X27501Y22957D01*
X27510Y23031D01*
X27501Y23105D01*
X27472Y23174D01*
X27427Y23234D01*
X27367Y23279D01*
X27298Y23308D01*
X27224Y23317D01*
D02*
G37*
G36*
X13504Y22668D02*
X13430Y22658D01*
X13361Y22629D01*
X13302Y22584D01*
X13256Y22525D01*
X13228Y22456D01*
X13218Y22382D01*
X13228Y22308D01*
X13256Y22239D01*
X13302Y22180D01*
X13361Y22134D01*
X13430Y22106D01*
X13504Y22096D01*
X13578Y22106D01*
X13647Y22134D01*
X13706Y22180D01*
X13752Y22239D01*
X13780Y22308D01*
X13790Y22382D01*
X13780Y22456D01*
X13752Y22525D01*
X13706Y22584D01*
X13647Y22629D01*
X13578Y22658D01*
X13504Y22668D01*
D02*
G37*
G36*
X30443Y21880D02*
X30369Y21871D01*
X30300Y21842D01*
X30241Y21797D01*
X30195Y21737D01*
X30167Y21668D01*
X30157Y21594D01*
X30167Y21520D01*
X30195Y21452D01*
X30241Y21392D01*
X30300Y21347D01*
X30369Y21318D01*
X30443Y21309D01*
X30517Y21318D01*
X30586Y21347D01*
X30645Y21392D01*
X30691Y21452D01*
X30719Y21520D01*
X30729Y21594D01*
X30719Y21668D01*
X30691Y21737D01*
X30645Y21797D01*
X30586Y21842D01*
X30517Y21871D01*
X30443Y21880D01*
D02*
G37*
G36*
X25965Y22087D02*
X25891Y22077D01*
X25822Y22049D01*
X25762Y22003D01*
X25717Y21944D01*
X25688Y21875D01*
X25679Y21801D01*
X25688Y21727D01*
X25717Y21658D01*
X25762Y21599D01*
Y21570D01*
X25717Y21511D01*
X25688Y21442D01*
X25679Y21368D01*
X25688Y21294D01*
X25717Y21225D01*
X25762Y21166D01*
X25822Y21121D01*
X25891Y21092D01*
X25965Y21082D01*
X26039Y21092D01*
X26108Y21121D01*
X26167Y21166D01*
X26212Y21225D01*
X26241Y21294D01*
X26250Y21368D01*
X26241Y21442D01*
X26212Y21511D01*
X26167Y21570D01*
Y21599D01*
X26212Y21658D01*
X26241Y21727D01*
X26250Y21801D01*
X26241Y21875D01*
X26212Y21944D01*
X26167Y22003D01*
X26108Y22049D01*
X26039Y22077D01*
X25965Y22087D01*
D02*
G37*
G36*
X26732Y20817D02*
X26658Y20808D01*
X26589Y20779D01*
X26530Y20734D01*
X26485Y20674D01*
X26456Y20605D01*
X26446Y20531D01*
X26456Y20457D01*
X26485Y20389D01*
X26526Y20335D01*
X26485Y20281D01*
X26456Y20212D01*
X26446Y20138D01*
X26456Y20064D01*
X26485Y19995D01*
X26530Y19936D01*
X26589Y19890D01*
X26658Y19862D01*
X26732Y19852D01*
X26806Y19862D01*
X26875Y19890D01*
X26934Y19936D01*
X26980Y19995D01*
X27008Y20064D01*
X27018Y20138D01*
X27008Y20212D01*
X26980Y20281D01*
X26939Y20335D01*
X26980Y20389D01*
X27008Y20457D01*
X27018Y20531D01*
X27008Y20605D01*
X26980Y20674D01*
X26934Y20734D01*
X26875Y20779D01*
X26806Y20808D01*
X26732Y20817D01*
D02*
G37*
G36*
X31969Y23455D02*
X31895Y23445D01*
X31826Y23417D01*
X31766Y23371D01*
X31721Y23312D01*
X31692Y23243D01*
X31683Y23169D01*
X31692Y23095D01*
X31721Y23026D01*
X31766Y22967D01*
X31826Y22922D01*
X31895Y22893D01*
X31958Y22885D01*
X34926Y19917D01*
Y19905D01*
X34942Y19825D01*
X34987Y19757D01*
X35274Y19471D01*
Y19406D01*
X35235Y19356D01*
X35206Y19287D01*
X35196Y19213D01*
X35206Y19139D01*
X35235Y19070D01*
X35280Y19010D01*
X35339Y18965D01*
X35408Y18936D01*
X35482Y18927D01*
X35556Y18936D01*
X35625Y18965D01*
X35684Y19010D01*
X35730Y19070D01*
X35758Y19139D01*
X35768Y19213D01*
X35758Y19287D01*
X35730Y19356D01*
X35691Y19406D01*
Y19557D01*
X35675Y19637D01*
X35630Y19705D01*
X35344Y19991D01*
Y20003D01*
X35328Y20083D01*
X35282Y20151D01*
X32253Y23180D01*
X32245Y23243D01*
X32216Y23312D01*
X32171Y23371D01*
X32111Y23417D01*
X32043Y23445D01*
X31969Y23455D01*
D02*
G37*
G36*
X35335Y18731D02*
X35261Y18721D01*
X35192Y18692D01*
X35138Y18651D01*
X35084Y18692D01*
X35015Y18721D01*
X34941Y18731D01*
X34867Y18721D01*
X34798Y18692D01*
X34739Y18647D01*
X34693Y18588D01*
X34665Y18519D01*
X34655Y18445D01*
X34665Y18371D01*
X34693Y18302D01*
X34739Y18243D01*
X34798Y18197D01*
X34867Y18169D01*
X34941Y18159D01*
X35015Y18169D01*
X35084Y18197D01*
X35138Y18239D01*
X35192Y18197D01*
X35261Y18169D01*
X35335Y18159D01*
X35409Y18169D01*
X35478Y18197D01*
X35537Y18243D01*
X35582Y18302D01*
X35611Y18371D01*
X35621Y18445D01*
X35611Y18519D01*
X35582Y18588D01*
X35537Y18647D01*
X35478Y18692D01*
X35409Y18721D01*
X35335Y18731D01*
D02*
G37*
G36*
X26024Y19548D02*
X25950Y19538D01*
X25881Y19509D01*
X25821Y19464D01*
X25776Y19405D01*
X25747Y19336D01*
X25738Y19262D01*
X25747Y19188D01*
X25776Y19119D01*
X25817Y19065D01*
X25776Y19011D01*
X25747Y18942D01*
X25738Y18868D01*
X25747Y18794D01*
X25776Y18725D01*
X25821Y18666D01*
X25881Y18621D01*
X25950Y18592D01*
X26024Y18582D01*
X26098Y18592D01*
X26167Y18621D01*
X26226Y18666D01*
X26271Y18725D01*
X26300Y18794D01*
X26310Y18868D01*
X26300Y18942D01*
X26271Y19011D01*
X26230Y19065D01*
X26271Y19119D01*
X26300Y19188D01*
X26310Y19262D01*
X26300Y19336D01*
X26271Y19405D01*
X26226Y19464D01*
X26167Y19509D01*
X26098Y19538D01*
X26024Y19548D01*
D02*
G37*
G36*
X29724Y18535D02*
X29630Y18522D01*
X29542Y18486D01*
X29466Y18428D01*
X29408Y18352D01*
X29372Y18264D01*
X29359Y18169D01*
X29372Y18075D01*
X29408Y17987D01*
X29466Y17911D01*
X29542Y17853D01*
X29630Y17816D01*
X29724Y17804D01*
X29819Y17816D01*
X29907Y17853D01*
X29983Y17911D01*
X30041Y17987D01*
X30077Y18075D01*
X30090Y18169D01*
X30077Y18264D01*
X30041Y18352D01*
X29983Y18428D01*
X29907Y18486D01*
X29819Y18522D01*
X29724Y18535D01*
D02*
G37*
G36*
X36299Y17943D02*
X36225Y17934D01*
X36156Y17905D01*
X36097Y17860D01*
X36052Y17800D01*
X36023Y17731D01*
X36013Y17657D01*
X36023Y17583D01*
X36052Y17515D01*
X36089Y17466D01*
X36052Y17417D01*
X36023Y17348D01*
X36013Y17274D01*
X36023Y17200D01*
X36052Y17131D01*
X36097Y17071D01*
X36156Y17026D01*
X36225Y16997D01*
X36299Y16988D01*
X36373Y16997D01*
X36442Y17026D01*
X36501Y17071D01*
X36547Y17131D01*
X36575Y17200D01*
X36585Y17274D01*
X36575Y17348D01*
X36547Y17417D01*
X36509Y17466D01*
X36547Y17515D01*
X36575Y17583D01*
X36585Y17657D01*
X36575Y17731D01*
X36547Y17800D01*
X36501Y17860D01*
X36442Y17905D01*
X36373Y17934D01*
X36299Y17943D01*
D02*
G37*
G36*
X36083Y16664D02*
X36009Y16654D01*
X35940Y16626D01*
X35891Y16588D01*
X35842Y16626D01*
X35773Y16654D01*
X35699Y16664D01*
X35625Y16654D01*
X35556Y16626D01*
X35497Y16580D01*
X35451Y16521D01*
X35423Y16452D01*
X35413Y16378D01*
X35423Y16304D01*
X35451Y16235D01*
X35497Y16176D01*
X35556Y16130D01*
X35625Y16102D01*
X35699Y16092D01*
X35773Y16102D01*
X35842Y16130D01*
X35891Y16168D01*
X35940Y16130D01*
X36009Y16102D01*
X36083Y16092D01*
X36157Y16102D01*
X36226Y16130D01*
X36285Y16176D01*
X36330Y16235D01*
X36359Y16304D01*
X36369Y16378D01*
X36359Y16452D01*
X36330Y16521D01*
X36285Y16580D01*
X36226Y16626D01*
X36157Y16654D01*
X36083Y16664D01*
D02*
G37*
G36*
X38051Y14823D02*
X37977Y14814D01*
X37908Y14785D01*
X37854Y14744D01*
X37800Y14785D01*
X37731Y14814D01*
X37657Y14823D01*
X37583Y14814D01*
X37515Y14785D01*
X37455Y14740D01*
X37410Y14680D01*
X37381Y14611D01*
X37372Y14537D01*
X37381Y14463D01*
X37410Y14394D01*
X37455Y14335D01*
X37515Y14290D01*
X37583Y14261D01*
X37657Y14251D01*
X37731Y14261D01*
X37800Y14290D01*
X37854Y14331D01*
X37908Y14290D01*
X37977Y14261D01*
X38051Y14251D01*
X38125Y14261D01*
X38194Y14290D01*
X38253Y14335D01*
X38299Y14394D01*
X38327Y14463D01*
X38337Y14537D01*
X38327Y14611D01*
X38299Y14680D01*
X38253Y14740D01*
X38194Y14785D01*
X38125Y14814D01*
X38051Y14823D01*
D02*
G37*
%LPD*%
G36*
X44362Y37285D02*
X44419Y37241D01*
X44486Y37214D01*
X44557Y37204D01*
X48094D01*
X48390Y36909D01*
X48380Y36855D01*
X48376Y36852D01*
X48307Y36861D01*
X48264Y36855D01*
X48228Y36862D01*
X44043D01*
X43829Y37077D01*
X43761Y37122D01*
X43681Y37138D01*
X41378D01*
X41298Y37122D01*
X41230Y37077D01*
X40925Y36772D01*
X40880Y36704D01*
X40864Y36624D01*
Y36257D01*
X40880Y36178D01*
X40916Y36123D01*
X40394Y35601D01*
X40348Y35533D01*
X40333Y35453D01*
Y33433D01*
X39882Y32982D01*
X39851Y32978D01*
X39801Y33017D01*
Y34252D01*
X39792Y34323D01*
X39764Y34390D01*
X39720Y34447D01*
X39465Y34702D01*
X39465Y34703D01*
X39420Y34762D01*
X39361Y34807D01*
X39360Y34807D01*
X38965Y35203D01*
Y36320D01*
X39957Y37313D01*
X42474D01*
X42545Y37322D01*
X42612Y37350D01*
X42669Y37393D01*
X43316Y38041D01*
X43606D01*
X44362Y37285D01*
D02*
G37*
G36*
X43809Y36506D02*
X43877Y36461D01*
X43957Y36445D01*
X44463D01*
X44484Y36395D01*
X43828Y35739D01*
X43012D01*
X42940Y35729D01*
X42874Y35702D01*
X42817Y35658D01*
X42651Y35493D01*
X41870D01*
Y36265D01*
X41861Y36336D01*
X41834Y36403D01*
X41790Y36460D01*
X41655Y36594D01*
X41655Y36595D01*
X41610Y36654D01*
X41588Y36670D01*
X41605Y36720D01*
X42982D01*
X43032Y36711D01*
X43081Y36720D01*
X43595D01*
X43809Y36506D01*
D02*
G37*
G36*
X39249Y32537D02*
X39259Y32465D01*
X39286Y32399D01*
X39330Y32342D01*
X39447Y32225D01*
X39447Y32224D01*
X39493Y32165D01*
X39514Y32148D01*
X39497Y32099D01*
X33620D01*
X33494Y32224D01*
X33426Y32270D01*
X33346Y32286D01*
X33076D01*
X33071Y32318D01*
X33062Y32340D01*
X33090Y32381D01*
X36431D01*
X36503Y32391D01*
X36569Y32418D01*
X36626Y32462D01*
X37264Y33100D01*
X38100D01*
X38172Y33109D01*
X38238Y33137D01*
X38296Y33181D01*
X38451Y33336D01*
X39249D01*
Y32537D01*
D02*
G37*
G36*
X29151Y33724D02*
X29122Y33686D01*
X29094Y33617D01*
X29084Y33543D01*
X29094Y33469D01*
X29122Y33400D01*
X29168Y33341D01*
X29177Y33334D01*
Y31928D01*
X29131Y31909D01*
X27877Y33163D01*
X27815Y33205D01*
X27741Y33219D01*
X27446D01*
X27436Y33267D01*
X27505Y33296D01*
X27564Y33341D01*
X27610Y33400D01*
X27638Y33469D01*
X27648Y33543D01*
X27647Y33555D01*
X27865Y33774D01*
X29127D01*
X29151Y33724D01*
D02*
G37*
G36*
X29625Y32692D02*
X29667Y32629D01*
X30189Y32108D01*
X30251Y32066D01*
X30325Y32051D01*
X30674D01*
X30956Y31770D01*
X30936Y31724D01*
X29695D01*
X29563Y31857D01*
Y32749D01*
X29613Y32754D01*
X29625Y32692D01*
D02*
G37*
G36*
X33463Y30400D02*
X33444Y30354D01*
X29928D01*
X29376Y30907D01*
X29395Y30953D01*
X32910D01*
X33463Y30400D01*
D02*
G37*
G36*
X35339Y29705D02*
Y29427D01*
X35289Y29415D01*
X35254Y29467D01*
X33799Y30923D01*
X33818Y30969D01*
X34075D01*
X35339Y29705D01*
D02*
G37*
G54D10*
X27352Y15748D02*
Y16142D01*
X27156Y15945D01*
X27418D01*
G54D18*
X20039Y34252D02*
Y34646D01*
Y35039D01*
Y33976D02*
Y34252D01*
X18573Y20453D02*
X19921Y19104D01*
X13819Y20453D02*
X18573D01*
X13110Y27047D02*
X20039Y33976D01*
X13110Y26200D02*
Y27047D01*
X12293Y21978D02*
Y25383D01*
Y21978D02*
X13819Y20453D01*
X12293Y25383D02*
X13110Y26200D01*
X19921Y18406D02*
Y19104D01*
Y17992D02*
Y18406D01*
Y17559D02*
Y17992D01*
G54D121*
X37264Y13189D02*
D03*
X35689D02*
D03*
X31358D02*
D03*
X30571D02*
D03*
X33327D02*
D03*
X32146D02*
D03*
X31752D02*
D03*
X36083D02*
D03*
X34902D02*
D03*
X32539D02*
D03*
X33720D02*
D03*
X30965D02*
D03*
X30177D02*
D03*
X35295D02*
D03*
X36476D02*
D03*
X32933D02*
D03*
X36870D02*
D03*
X40020D02*
D03*
X38051D02*
D03*
X39232D02*
D03*
X38445D02*
D03*
X41201D02*
D03*
X42382D02*
D03*
X40807D02*
D03*
X40413D02*
D03*
X42776D02*
D03*
X37657D02*
D03*
X38839D02*
D03*
X39626D02*
D03*
X41988D02*
D03*
X41594D02*
D03*
G54D122*
X29783Y13386D02*
D03*
G54D124*
X31821Y32539D02*
X32175D01*
X31624Y32736D02*
X31821Y32539D01*
X31624Y32736D02*
Y35531D01*
X48209Y37480D02*
X48927Y36762D01*
X44557Y37480D02*
X48209D01*
X43720Y38317D02*
X44557Y37480D01*
X36431Y32657D02*
X37150Y33376D01*
X32293Y32657D02*
X36431D01*
X41594Y35217D02*
X42766D01*
X43012Y35463D01*
X43942D01*
X44710Y36230D01*
X37150Y33376D02*
X38100D01*
X38337Y33612D01*
X39518D01*
X47539Y36230D02*
X47652Y36117D01*
X44710Y36230D02*
X47539D01*
X41594Y35217D02*
Y36265D01*
Y34550D02*
Y35217D01*
X48779Y36117D02*
X48941Y36280D01*
X47652Y36117D02*
X48779D01*
X39525Y32537D02*
X39695Y32367D01*
X41594Y34550D02*
X41885Y34259D01*
X39525Y32537D02*
Y34252D01*
X39218Y34560D02*
X39525Y34252D01*
X38689Y36435D02*
X39843Y37589D01*
X38689Y35089D02*
Y36435D01*
X39843Y37589D02*
X42474D01*
X38689Y35089D02*
X39218Y34560D01*
X48927Y36280D02*
Y36762D01*
X43202Y38317D02*
X43720D01*
X42474Y37589D02*
X43202Y38317D01*
X41407Y36452D02*
X41594Y36265D01*
X32175Y32539D02*
X32293Y32657D01*
X31033Y36122D02*
X31624Y35531D01*
X50069Y32165D02*
Y32697D01*
X49419Y33346D02*
X50069Y32697D01*
X49419Y33346D02*
Y35801D01*
X48941Y36280D02*
X49419Y35801D01*
X48927Y36280D02*
X48941D01*
X31033Y36122D02*
Y36654D01*
G54D125*
X29519Y33967D02*
X29803Y33683D01*
Y32766D02*
Y33683D01*
Y32766D02*
X30325Y32244D01*
X26651Y34284D02*
X27017Y33918D01*
X25579Y34284D02*
X26651D01*
X24839Y33543D02*
X25579Y34284D01*
X24409Y33543D02*
X24839D01*
X29848Y30161D02*
X33618D01*
X27657Y32352D02*
X29848Y30161D01*
X27165Y32352D02*
X27657D01*
X29238Y31146D02*
X32990D01*
X27707Y32677D02*
X29238Y31146D01*
X27275Y32677D02*
X27707D01*
X29437Y31331D02*
X33118D01*
X27741Y33027D02*
X29437Y31331D01*
X27335Y33027D02*
X27741D01*
X29616Y31532D02*
X33248D01*
X29370Y31777D02*
X29616Y31532D01*
X29370Y31777D02*
Y33543D01*
X26752Y33201D02*
X27275Y32677D01*
X26378Y33140D02*
Y33543D01*
Y33140D02*
X27165Y32352D01*
X25394Y33543D02*
X25846Y33996D01*
X26554D01*
X26752Y33798D01*
Y33201D02*
Y33798D01*
X27017Y33345D02*
X27335Y33027D01*
X27017Y33345D02*
Y33918D01*
X27362Y33543D02*
X27785Y33967D01*
X29519D01*
X35876Y28612D02*
X36634Y27854D01*
X35531Y28327D02*
X36634Y27224D01*
X34390Y27215D02*
X35118Y27943D01*
X34390Y27844D02*
X34754Y28209D01*
X31246Y31752D02*
X33337D01*
X30754Y32244D02*
X31246Y31752D01*
X30325Y32244D02*
X30754D01*
X33337Y31752D02*
X33711Y31378D01*
X35876Y28612D02*
Y29783D01*
X34281Y31378D02*
X35876Y29783D01*
X33711Y31378D02*
X34281D01*
X33248Y31532D02*
X33618Y31161D01*
X35118Y27943D02*
Y29331D01*
X34754Y28209D02*
Y29382D01*
X34155Y31161D02*
X35531Y29785D01*
X33618Y31161D02*
X34155D01*
X32990Y31146D02*
X34754Y29382D01*
X34390Y28484D02*
Y29390D01*
X33618Y30161D02*
X34390Y29390D01*
X35531Y28327D02*
Y29785D01*
X33118Y31331D02*
X35118Y29331D01*
X29783Y14419D02*
X30502Y15138D01*
X31152D01*
X29783Y13386D02*
Y14419D01*
G54D126*
X32559Y14370D02*
Y14754D01*
X22598Y18189D02*
X24852D01*
X27913Y16929D02*
X28198Y17214D01*
X26112Y16929D02*
X27913D01*
X24852Y18189D02*
X26112Y16929D01*
X28198Y17214D02*
X30099D01*
X22598Y17874D02*
Y18189D01*
Y17520D02*
Y17874D01*
X32913Y14370D02*
X33268D01*
X30099Y17214D02*
X32559Y14754D01*
Y14370D02*
X32913D01*
G54D127*
X21339Y32215D02*
Y32216D01*
X23031Y33909D01*
Y34838D01*
X30886Y32664D02*
Y34242D01*
X29200Y35928D02*
X30886Y34242D01*
X24121Y35928D02*
X29200D01*
X32677Y32126D02*
X32795Y32244D01*
X31424Y32126D02*
X32677D01*
X30886Y32664D02*
X31424Y32126D01*
X23031Y34838D02*
X24121Y35928D01*
X33465Y15118D02*
Y15118D01*
Y15118D02*
X33701Y14882D01*
Y13209D02*
Y14882D01*
X35482Y19213D02*
Y19557D01*
X35135Y19905D02*
X35482Y19557D01*
X35135Y19905D02*
Y20003D01*
X31969Y23169D02*
X35135Y20003D01*
X43957Y36654D02*
X48228D01*
X43681Y36929D02*
X43957Y36654D01*
X48228D02*
X48307Y36575D01*
X33533Y31890D02*
X39779D01*
X33346Y32077D02*
X33533Y31890D01*
X32963Y32077D02*
X33346D01*
X41073Y36624D02*
X41378Y36929D01*
X41073Y36257D02*
Y36624D01*
Y36257D02*
X41209Y36121D01*
X39893Y32698D02*
X40049Y32542D01*
Y32160D02*
Y32542D01*
X39779Y31890D02*
X40049Y32160D01*
X40541Y35453D02*
X41209Y36121D01*
X40541Y33346D02*
Y35453D01*
X32795Y32244D02*
X32963Y32077D01*
X41378Y36929D02*
X43041D01*
X43681D01*
X43032Y36919D02*
X43041Y36929D01*
X39893Y32698D02*
X40541Y33346D01*
X33701Y13209D02*
X33720Y13189D01*
G54D129*
X36083Y14124D02*
X36270Y14311D01*
X39232Y14272D02*
X39646D01*
X39232Y13189D02*
Y14272D01*
X36083Y13189D02*
Y14124D01*
X34902Y14291D02*
X34921Y14311D01*
X34902Y13189D02*
Y14291D01*
X37264Y13189D02*
Y14449D01*
X37264Y13189D02*
X37264Y13189D01*
X42402Y14291D02*
X42677D01*
X42382Y14272D02*
X42402Y14291D01*
X42382Y13189D02*
Y14272D01*
X40807Y14232D02*
X41201D01*
X40807Y13189D02*
Y14232D01*
X41220Y14252D02*
X41575D01*
X41201Y14232D02*
X41220Y14252D01*
X41201Y13189D02*
Y14232D01*
X39646Y14272D02*
X39823D01*
X39626Y14252D02*
X39646Y14272D01*
X39626Y13189D02*
Y14252D01*
X39823Y14272D02*
X39843Y14252D01*
X38051Y13189D02*
Y14154D01*
X30965Y14134D02*
X31083Y14252D01*
X30965Y13189D02*
Y14134D01*
X30571Y13189D02*
Y14390D01*
X30551Y14409D02*
X30571Y14390D01*
X30197Y14409D02*
X30551D01*
X30177Y14390D02*
X30197Y14409D01*
X30177Y13189D02*
Y14390D01*
G54D130*
X36476Y14626D02*
X36590Y14513D01*
X35138Y14636D02*
X35247Y14527D01*
X38981Y14493D02*
Y14847D01*
X38760Y14271D02*
X38981Y14493D01*
X38760Y14146D02*
Y14271D01*
X38814Y14562D02*
Y14847D01*
X38593Y14341D02*
X38814Y14562D01*
X38593Y14193D02*
Y14341D01*
X38445Y14045D02*
X38593Y14193D01*
X38445Y13189D02*
Y14045D01*
X38760Y14146D02*
X38839Y14067D01*
X35414Y14429D02*
X35551Y14292D01*
Y14205D02*
X35689Y14067D01*
X35551Y14205D02*
Y14292D01*
X35247Y14360D02*
X35384Y14222D01*
Y14156D02*
Y14222D01*
X35295Y14067D02*
X35384Y14156D01*
X35414Y14429D02*
Y14507D01*
X35247Y14360D02*
Y14527D01*
X35689Y13189D02*
Y14067D01*
X35295Y13189D02*
Y14067D01*
X35414Y14507D02*
X35523Y14616D01*
X36870Y13189D02*
Y14067D01*
X36757Y14180D02*
X36870Y14067D01*
X36476Y13189D02*
Y14067D01*
X36590Y14180D01*
X36757Y14180D02*
Y14513D01*
X36870Y14626D01*
X36590Y14180D02*
Y14513D01*
X38839Y13189D02*
Y14067D01*
X38981Y14847D02*
X39094Y14961D01*
X38701D02*
X38814Y14847D01*
G54D133*
X14764Y36713D02*
D03*
X14764Y34390D02*
D03*
Y15492D02*
D03*
G54D134*
X16644Y38671D02*
D03*
X19400D02*
D03*
G54D135*
X19006Y37608D02*
D03*
X17037D02*
D03*
G54D136*
X20866Y23642D02*
D03*
X22461Y23632D02*
D03*
X19291Y23622D02*
D03*
X24016D02*
D03*
G54D137*
X48642Y27854D02*
D03*
X48642Y18327D02*
D03*
G54D138*
X26378Y20335D02*
D03*
X15305Y26654D02*
D03*
X21339Y32215D02*
D03*
X19144Y26711D02*
D03*
X19675Y28337D02*
D03*
X19282D02*
D03*
Y28730D02*
D03*
X19267Y29446D02*
D03*
X19675Y28730D02*
D03*
X20039Y34646D02*
D03*
Y34252D02*
D03*
X27362Y33543D02*
D03*
X26671Y30827D02*
D03*
X25340Y31117D02*
D03*
X26319Y32411D02*
D03*
X29783Y31850D02*
D03*
X27087Y29685D02*
D03*
X25128Y25079D02*
D03*
X36476Y14626D02*
D03*
X35138Y14636D02*
D03*
X36260Y16043D02*
D03*
X35699Y16378D02*
D03*
X33031Y17638D02*
D03*
X33465Y15118D02*
D03*
X17717Y32756D02*
D03*
X17215Y26890D02*
D03*
X24409Y35236D02*
D03*
X29370D02*
D03*
X26378Y33543D02*
D03*
X25394D02*
D03*
X24409D02*
D03*
X29370D02*
D03*
X28386D02*
D03*
Y35236D02*
D03*
X27362D02*
D03*
X26378D02*
D03*
X25394D02*
D03*
X22598Y18228D02*
D03*
Y17874D02*
D03*
Y17520D02*
D03*
X48819Y29528D02*
D03*
X32283D02*
D03*
X39370D02*
D03*
X41732D02*
D03*
X47480Y37008D02*
D03*
X49311Y36909D02*
D03*
X35433Y20079D02*
D03*
X36417Y21063D02*
D03*
X37394Y20079D02*
D03*
X38386Y21063D02*
D03*
X42323D02*
D03*
X41331Y20079D02*
D03*
X40354Y21063D02*
D03*
X39370Y20079D02*
D03*
X46260Y21063D02*
D03*
X45268Y20079D02*
D03*
X44291Y21063D02*
D03*
X43307Y20079D02*
D03*
X48228Y21063D02*
D03*
X47244Y20079D02*
D03*
X35433Y22047D02*
D03*
X36417Y23031D02*
D03*
X37394Y22047D02*
D03*
X38386Y23031D02*
D03*
X42323D02*
D03*
X41331Y22047D02*
D03*
X40354Y23031D02*
D03*
X39370Y22047D02*
D03*
X46260Y23031D02*
D03*
X45268Y22047D02*
D03*
X44291Y23031D02*
D03*
X43307Y22047D02*
D03*
X22318Y30972D02*
D03*
X48228Y23031D02*
D03*
X47244Y22047D02*
D03*
X35433Y24016D02*
D03*
X36417Y25000D02*
D03*
X37394Y24016D02*
D03*
X38386Y25000D02*
D03*
X42323D02*
D03*
X41331Y24016D02*
D03*
X40354Y25000D02*
D03*
X39370Y24016D02*
D03*
X46260Y25000D02*
D03*
X45268Y24016D02*
D03*
X44291Y25000D02*
D03*
X43307Y24016D02*
D03*
X17517Y28976D02*
D03*
X20247Y27913D02*
D03*
X48228Y25000D02*
D03*
X47244Y24016D02*
D03*
Y25984D02*
D03*
X41102Y34409D02*
D03*
X21625Y28652D02*
D03*
X43307Y25984D02*
D03*
X12165Y17677D02*
D03*
X45268Y25984D02*
D03*
X40079Y34409D02*
D03*
X39370Y25984D02*
D03*
X23622Y32283D02*
D03*
X41331Y25984D02*
D03*
X19341Y35423D02*
D03*
X18032Y38150D02*
D03*
X37394Y25984D02*
D03*
X21142Y36102D02*
D03*
X35433Y25984D02*
D03*
X29567Y23871D02*
D03*
X34370Y26732D02*
D03*
X33580Y27726D02*
D03*
X31073Y28573D02*
D03*
X32894D02*
D03*
X33652Y32254D02*
D03*
X33366Y33130D02*
D03*
X43228Y35000D02*
D03*
X37835Y33819D02*
D03*
X40787Y36142D02*
D03*
X40315Y32677D02*
D03*
X40994Y33543D02*
D03*
X39961D02*
D03*
X41142Y35276D02*
D03*
X40177D02*
D03*
X39331Y32185D02*
D03*
X37756Y32992D02*
D03*
X38986Y33976D02*
D03*
X47008Y35709D02*
D03*
Y35197D02*
D03*
X48927Y35187D02*
D03*
X42116Y34843D02*
D03*
X43346Y35837D02*
D03*
X41772Y36634D02*
D03*
X32185Y33632D02*
D03*
X34094Y33110D02*
D03*
Y33632D02*
D03*
X35482Y19213D02*
D03*
X47736Y35689D02*
D03*
X39695Y32367D02*
D03*
X33130Y34321D02*
D03*
X32333Y34213D02*
D03*
X38474Y33976D02*
D03*
X33366Y33602D02*
D03*
X32894Y33130D02*
D03*
X32795Y32244D02*
D03*
X32175Y33110D02*
D03*
X34272Y35394D02*
D03*
X31211Y34213D02*
D03*
X33130Y34843D02*
D03*
X31545Y32756D02*
D03*
X39961Y37953D02*
D03*
Y37165D02*
D03*
X39646Y35974D02*
D03*
X41142Y37165D02*
D03*
X41407Y36452D02*
D03*
X41142Y37953D02*
D03*
X35000Y33819D02*
D03*
X34803Y33031D02*
D03*
X32894Y33602D02*
D03*
X34882Y34488D02*
D03*
X37008Y32638D02*
D03*
X38494Y32756D02*
D03*
X37677Y32185D02*
D03*
Y31535D02*
D03*
X38494Y33228D02*
D03*
X38686Y34560D02*
D03*
X40541Y36909D02*
D03*
X38967Y33228D02*
D03*
X42136Y36063D02*
D03*
X43425Y37283D02*
D03*
Y36634D02*
D03*
X43504Y37953D02*
D03*
X37008Y35000D02*
D03*
X33563Y35394D02*
D03*
X44094Y37362D02*
D03*
X40787Y38346D02*
D03*
X40315Y38937D02*
D03*
X40787D02*
D03*
X44094Y36181D02*
D03*
X42608Y36063D02*
D03*
X42136Y35591D02*
D03*
X42608D02*
D03*
X38780Y37953D02*
D03*
X45039Y35000D02*
D03*
X42628Y34843D02*
D03*
X44843Y35787D02*
D03*
X48228Y30866D02*
D03*
X45866D02*
D03*
X48228Y31693D02*
D03*
Y37953D02*
D03*
X45866D02*
D03*
X38268Y36969D02*
D03*
X46220Y34331D02*
D03*
X47028D02*
D03*
X37598Y37953D02*
D03*
X39055Y35472D02*
D03*
X42323Y37953D02*
D03*
X44094Y31457D02*
D03*
Y32638D02*
D03*
Y33819D02*
D03*
Y35000D02*
D03*
X44685Y30866D02*
D03*
Y37953D02*
D03*
X46102Y35000D02*
D03*
X46299Y35787D02*
D03*
X47047Y30866D02*
D03*
Y37953D02*
D03*
X47972Y33976D02*
D03*
X48770Y34606D02*
D03*
X49409Y30866D02*
D03*
Y31693D02*
D03*
Y32441D02*
D03*
Y37953D02*
D03*
X50512Y30866D02*
D03*
Y31811D02*
D03*
Y32638D02*
D03*
Y33819D02*
D03*
Y35000D02*
D03*
Y36181D02*
D03*
Y37008D02*
D03*
Y37953D02*
D03*
X39218Y34560D02*
D03*
X50197Y33179D02*
D03*
X42677Y38937D02*
D03*
Y38346D02*
D03*
X47874D02*
D03*
Y38937D02*
D03*
X49764Y38346D02*
D03*
Y38937D02*
D03*
X38425D02*
D03*
Y38346D02*
D03*
X40315D02*
D03*
X49764Y29892D02*
D03*
Y30463D02*
D03*
X47874Y29892D02*
D03*
Y30472D02*
D03*
X39980Y36486D02*
D03*
X46831Y33425D02*
D03*
Y32382D02*
D03*
X47539D02*
D03*
Y33425D02*
D03*
X48642Y32913D02*
D03*
X49892Y34606D02*
D03*
X50069Y32165D02*
D03*
Y32697D02*
D03*
X48927Y36280D02*
D03*
X47972Y34498D02*
D03*
X48927Y35709D02*
D03*
X41209Y36121D02*
D03*
X48307Y36575D02*
D03*
X30679Y20423D02*
D03*
X30167Y22003D02*
D03*
X30591Y33819D02*
D03*
X28209Y31299D02*
D03*
X34055Y30866D02*
D03*
X33228Y30472D02*
D03*
X26083Y25295D02*
D03*
X27146Y26477D02*
D03*
X27511Y26211D02*
D03*
X31930Y27274D02*
D03*
X31959Y26713D02*
D03*
X15453Y28140D02*
D03*
Y27618D02*
D03*
Y27096D02*
D03*
X28780Y25669D02*
D03*
X33180Y25788D02*
D03*
X33268Y26230D02*
D03*
X32805Y25646D02*
D03*
X32275Y26497D02*
D03*
X27569Y25305D02*
D03*
X31339Y29882D02*
D03*
X17904Y36202D02*
D03*
X18169Y36467D02*
D03*
X17234D02*
D03*
X17520Y36191D02*
D03*
X33623Y24420D02*
D03*
X33101Y24036D02*
D03*
X33484Y24045D02*
D03*
X30748Y21260D02*
D03*
X27559Y18622D02*
D03*
X36083Y16378D02*
D03*
X27224Y22648D02*
D03*
Y23031D02*
D03*
X27598Y22372D02*
D03*
X28661Y20945D02*
D03*
X26732Y20138D02*
D03*
Y20531D02*
D03*
X28661Y19685D02*
D03*
X26024Y18868D02*
D03*
Y19262D02*
D03*
X35523Y14616D02*
D03*
X36270Y14311D02*
D03*
X36870Y14626D02*
D03*
X38701Y14961D02*
D03*
X39094D02*
D03*
X37657Y14537D02*
D03*
X38051D02*
D03*
X35531Y18120D02*
D03*
X35335Y18445D02*
D03*
X34941D02*
D03*
X35974Y17037D02*
D03*
X36299Y17274D02*
D03*
Y17657D02*
D03*
X35512Y16053D02*
D03*
X34390Y28484D02*
D03*
Y27844D02*
D03*
Y27215D02*
D03*
X36634Y28484D02*
D03*
Y27854D02*
D03*
Y27224D02*
D03*
X33268Y14370D02*
D03*
X26752Y24626D02*
D03*
X24646Y23189D02*
D03*
X30020Y23484D02*
D03*
X27501Y25788D02*
D03*
X34921Y14311D02*
D03*
X37264Y14449D02*
D03*
X35492Y18839D02*
D03*
X34744Y18110D02*
D03*
X34665Y18740D02*
D03*
X34094Y17598D02*
D03*
X36644Y17864D02*
D03*
X38622Y16063D02*
D03*
X39252Y15354D02*
D03*
X19921Y17559D02*
D03*
Y17992D02*
D03*
Y18406D02*
D03*
X20039Y35039D02*
D03*
X28750Y18652D02*
D03*
X34183Y20364D02*
D03*
X27550Y17510D02*
D03*
X32047Y14370D02*
D03*
X31152Y15138D02*
D03*
X31988Y22677D02*
D03*
X30827Y23927D02*
D03*
X31969Y23169D02*
D03*
X32667Y21939D02*
D03*
X29380Y25295D02*
D03*
X30207Y24616D02*
D03*
X27303Y24390D02*
D03*
X28681Y24616D02*
D03*
X25679Y19065D02*
D03*
X26772Y18622D02*
D03*
X17844Y28351D02*
D03*
X13937Y22372D02*
D03*
X31870Y20335D02*
D03*
X32717Y23356D02*
D03*
X24488Y27795D02*
D03*
X28661Y22067D02*
D03*
X30443Y21594D02*
D03*
X13937Y24862D02*
D03*
X32165Y25591D02*
D03*
X13504Y23238D02*
D03*
Y24862D02*
D03*
Y22382D02*
D03*
X32913Y14370D02*
D03*
X32559D02*
D03*
X26850Y22835D02*
D03*
X27559Y23307D02*
D03*
X25965Y21368D02*
D03*
Y21801D02*
D03*
X31969Y18780D02*
D03*
X31880Y16309D02*
D03*
X42835Y31850D02*
D03*
X42047Y33346D02*
D03*
X39961Y31654D02*
D03*
X41142D02*
D03*
X39893Y32698D02*
D03*
X38425Y30472D02*
D03*
X38780Y30866D02*
D03*
X31339Y30472D02*
D03*
X30591Y30866D02*
D03*
X27559Y29252D02*
D03*
X38967Y32756D02*
D03*
X34075Y34488D02*
D03*
X32874Y37126D02*
D03*
X31693Y36378D02*
D03*
X30591Y36181D02*
D03*
X30906Y35640D02*
D03*
X30591Y35000D02*
D03*
X31693Y37126D02*
D03*
X32461Y35906D02*
D03*
X31693Y30866D02*
D03*
X43504D02*
D03*
X42323D02*
D03*
X32766Y19016D02*
D03*
X15315Y31988D02*
D03*
Y30807D02*
D03*
Y30217D02*
D03*
X12480Y32028D02*
D03*
Y31437D02*
D03*
Y30846D02*
D03*
Y30256D02*
D03*
X15197Y32451D02*
D03*
Y29793D02*
D03*
X12884D02*
D03*
X13474D02*
D03*
X14065D02*
D03*
X14656D02*
D03*
X14646Y32451D02*
D03*
X14055D02*
D03*
X13465D02*
D03*
X12874D02*
D03*
X24488Y29685D02*
D03*
X25118D02*
D03*
X26457D02*
D03*
X25118Y27795D02*
D03*
X26457D02*
D03*
X24656Y26230D02*
D03*
X24646Y25679D02*
D03*
X18465Y27392D02*
D03*
X18396Y22638D02*
D03*
X12156Y20758D02*
D03*
X12569Y26486D02*
D03*
X30591Y37953D02*
D03*
Y37008D02*
D03*
X31033Y36654D02*
D03*
Y36122D02*
D03*
X30591Y31811D02*
D03*
Y32638D02*
D03*
X42677Y29882D02*
D03*
X40787D02*
D03*
X40315D02*
D03*
X38425D02*
D03*
X33228D02*
D03*
X40315Y30472D02*
D03*
X40787D02*
D03*
X42677D02*
D03*
X41142Y30866D02*
D03*
X39961D02*
D03*
X37598D02*
D03*
X36417Y37953D02*
D03*
Y30866D02*
D03*
X37008Y31457D02*
D03*
Y37362D02*
D03*
Y36181D02*
D03*
Y33819D02*
D03*
X35236Y30866D02*
D03*
X32874D02*
D03*
X35236Y37953D02*
D03*
X34055D02*
D03*
X31693D02*
D03*
X32874D02*
D03*
X33228Y38346D02*
D03*
Y38927D02*
D03*
X31339Y38356D02*
D03*
Y38927D02*
D03*
X40561Y31909D02*
D03*
X47736Y35217D02*
D03*
X48209D02*
D03*
Y35689D02*
D03*
X41885Y34259D02*
D03*
X42416Y34259D02*
D03*
X32175Y32539D02*
D03*
X16545Y28351D02*
D03*
X30551Y18740D02*
D03*
X31939Y24626D02*
D03*
X23583Y17677D02*
D03*
X26772Y21024D02*
D03*
Y19646D02*
D03*
X29724Y20984D02*
D03*
X29537Y19833D02*
D03*
X30896Y17244D02*
D03*
X30709Y22638D02*
D03*
X32047Y21299D02*
D03*
X38307Y14843D02*
D03*
X37096Y15404D02*
D03*
X37077Y16053D02*
D03*
X29331Y18533D02*
D03*
X26535Y22520D02*
D03*
X27598Y20945D02*
D03*
X32923Y16299D02*
D03*
X31083Y14252D02*
D03*
X26535Y23189D02*
D03*
X25620Y21585D02*
D03*
X41457Y32845D02*
D03*
X34272Y36437D02*
D03*
X33563D02*
D03*
X41122Y32333D02*
D03*
X27087Y27795D02*
D03*
X32441Y25984D02*
D03*
X27559Y28740D02*
D03*
X29134Y29252D02*
D03*
X34675Y15738D02*
D03*
X24646Y22520D02*
D03*
X26535Y26339D02*
D03*
Y25669D02*
D03*
X32717Y24409D02*
D03*
X30571Y25295D02*
D03*
X32530D02*
D03*
X36063Y33819D02*
D03*
X36260Y33031D02*
D03*
X42677Y14291D02*
D03*
X33425Y19606D02*
D03*
X31929Y23858D02*
D03*
X28661Y23346D02*
D03*
X27598Y19685D02*
D03*
X32744Y20610D02*
D03*
X39843Y14252D02*
D03*
X41575D02*
D03*
X31575Y17717D02*
D03*
X30197Y14409D02*
D03*
X30551D02*
D03*
G54D142*
X14764Y15492D02*
D03*
G54D143*
X33327Y13189D02*
Y14311D01*
X33268Y14370D02*
X33327Y14311D01*
X32933Y13189D02*
Y14311D01*
M02*
