G04*
G04 #@! TF.GenerationSoftware,Altium Limited,Altium Designer,18.1.6 (161)*
G04*
G04 Layer_Color=16777215*
%FSLAX24Y24*%
%MOIN*%
G70*
G01*
G75*
%ADD11C,0.0079*%
%ADD15C,0.0100*%
%ADD16C,0.0059*%
%ADD146C,0.0008*%
%ADD147C,0.0010*%
%ADD148C,0.0039*%
%ADD149C,0.0010*%
%ADD150C,0.0008*%
%ADD151C,0.0012*%
G36*
X33740Y11811D02*
X33937Y12008D01*
X33937Y12362D01*
X29528D01*
Y12008D01*
X29724Y11811D01*
X33740D01*
D02*
G37*
G36*
X43031Y12008D02*
X42835Y11811D01*
X34882D01*
X34685Y12008D01*
X34685Y12362D01*
X43031D01*
X43031Y12008D01*
D02*
G37*
G54D11*
X23491Y12493D02*
X23425Y12559D01*
X23294D01*
X23228Y12493D01*
Y12231D01*
X23294Y12165D01*
X23425D01*
X23491Y12231D01*
X23622Y12559D02*
Y12165D01*
Y12362D01*
X23688Y12428D01*
X23819D01*
X23884Y12362D01*
Y12165D01*
X24081Y12428D02*
X24212D01*
X24278Y12362D01*
Y12165D01*
X24081D01*
X24015Y12231D01*
X24081Y12297D01*
X24278D01*
X24409Y12165D02*
Y12428D01*
X24475D01*
X24540Y12362D01*
Y12165D01*
Y12362D01*
X24606Y12428D01*
X24671Y12362D01*
Y12165D01*
X24868D02*
Y12493D01*
Y12362D01*
X24803D01*
X24934D01*
X24868D01*
Y12493D01*
X24934Y12559D01*
X25327Y12165D02*
X25196D01*
X25131Y12231D01*
Y12362D01*
X25196Y12428D01*
X25327D01*
X25393Y12362D01*
Y12297D01*
X25131D01*
X25524Y12428D02*
Y12165D01*
Y12297D01*
X25590Y12362D01*
X25655Y12428D01*
X25721D01*
X26115Y12165D02*
X25983D01*
X25918Y12231D01*
Y12362D01*
X25983Y12428D01*
X26115D01*
X26180Y12362D01*
Y12297D01*
X25918D01*
X26574Y12559D02*
Y12165D01*
X26377D01*
X26311Y12231D01*
Y12362D01*
X26377Y12428D01*
X26574D01*
X27164D02*
X27295D01*
X27361Y12362D01*
Y12165D01*
X27164D01*
X27098Y12231D01*
X27164Y12297D01*
X27361D01*
X27492Y12428D02*
Y12165D01*
Y12297D01*
X27558Y12362D01*
X27623Y12428D01*
X27689D01*
X28082Y12165D02*
X27951D01*
X27886Y12231D01*
Y12362D01*
X27951Y12428D01*
X28082D01*
X28148Y12362D01*
Y12297D01*
X27886D01*
X28345Y12428D02*
X28476D01*
X28542Y12362D01*
Y12165D01*
X28345D01*
X28279Y12231D01*
X28345Y12297D01*
X28542D01*
X23491Y11496D02*
X23228Y11758D01*
X23622Y11496D02*
X23884Y11758D01*
X24606Y11496D02*
Y11890D01*
X24409Y11693D01*
X24671D01*
X24803Y11824D02*
X24868Y11890D01*
X24999D01*
X25065Y11824D01*
Y11562D01*
X24999Y11496D01*
X24868D01*
X24803Y11562D01*
Y11824D01*
X25590Y11693D02*
X25852D01*
X25721Y11824D02*
Y11562D01*
X25983Y11693D02*
X26246D01*
X26639Y11890D02*
X26377D01*
Y11693D01*
X26508Y11758D01*
X26574D01*
X26639Y11693D01*
Y11562D01*
X26574Y11496D01*
X26443D01*
X26377Y11562D01*
X27426Y11890D02*
Y11496D01*
X27230D01*
X27164Y11562D01*
Y11693D01*
X27230Y11758D01*
X27426D01*
X27754Y11496D02*
X27623D01*
X27558Y11562D01*
Y11693D01*
X27623Y11758D01*
X27754D01*
X27820Y11693D01*
Y11627D01*
X27558D01*
X28082Y11365D02*
X28148D01*
X28214Y11430D01*
Y11758D01*
X28017D01*
X27951Y11693D01*
Y11562D01*
X28017Y11496D01*
X28214D01*
G54D15*
X36576Y22823D02*
Y22723D01*
X36476D01*
X36676D01*
X36576D01*
Y22423D01*
X36676Y22323D01*
X36976Y22923D02*
Y22323D01*
Y22623D01*
X37076Y22723D01*
X37276D01*
X37376Y22623D01*
Y22323D01*
X37876D02*
X37676D01*
X37576Y22423D01*
Y22623D01*
X37676Y22723D01*
X37876D01*
X37976Y22623D01*
Y22523D01*
X37576D01*
X38176Y22723D02*
Y22323D01*
Y22523D01*
X38276Y22623D01*
X38376Y22723D01*
X38476D01*
X38776Y22323D02*
Y22723D01*
X38876D01*
X38976Y22623D01*
Y22323D01*
Y22623D01*
X39076Y22723D01*
X39176Y22623D01*
Y22323D01*
X39475Y22723D02*
X39675D01*
X39775Y22623D01*
Y22323D01*
X39475D01*
X39375Y22423D01*
X39475Y22523D01*
X39775D01*
X39975Y22323D02*
X40175D01*
X40075D01*
Y22923D01*
X39975D01*
X40475Y22123D02*
Y22723D01*
X40775D01*
X40875Y22623D01*
Y22423D01*
X40775Y22323D01*
X40475D01*
X41175Y22723D02*
X41375D01*
X41475Y22623D01*
Y22323D01*
X41175D01*
X41075Y22423D01*
X41175Y22523D01*
X41475D01*
X42075Y22923D02*
Y22323D01*
X41775D01*
X41675Y22423D01*
Y22623D01*
X41775Y22723D01*
X42075D01*
X42874Y22323D02*
X43074D01*
X42974D01*
Y22923D01*
X42874Y22823D01*
X43774Y22923D02*
X43374D01*
Y22623D01*
X43574Y22723D01*
X43674D01*
X43774Y22623D01*
Y22423D01*
X43674Y22323D01*
X43474D01*
X43374Y22423D01*
X43974Y22723D02*
X44374Y22323D01*
X44174Y22523D01*
X44374Y22723D01*
X43974Y22323D01*
X44574Y22823D02*
X44674Y22923D01*
X44874D01*
X44974Y22823D01*
Y22723D01*
X44874Y22623D01*
X44774D01*
X44874D01*
X44974Y22523D01*
Y22423D01*
X44874Y22323D01*
X44674D01*
X44574Y22423D01*
X45174Y22823D02*
X45274Y22923D01*
X45473D01*
X45573Y22823D01*
Y22423D01*
X45473Y22323D01*
X45274D01*
X45174Y22423D01*
Y22823D01*
X45773Y22723D02*
X46173Y22323D01*
X45973Y22523D01*
X46173Y22723D01*
X45773Y22323D01*
X46373Y22823D02*
X46473Y22923D01*
X46673D01*
X46773Y22823D01*
Y22423D01*
X46673Y22323D01*
X46473D01*
X46373Y22423D01*
Y22823D01*
X46973Y22323D02*
Y22423D01*
X47073D01*
Y22323D01*
X46973D01*
X47873Y22923D02*
X47473D01*
Y22623D01*
X47673Y22723D01*
X47773D01*
X47873Y22623D01*
Y22423D01*
X47773Y22323D01*
X47573D01*
X47473Y22423D01*
X48073Y22323D02*
Y22723D01*
X48173D01*
X48273Y22623D01*
Y22323D01*
Y22623D01*
X48373Y22723D01*
X48472Y22623D01*
Y22323D01*
X48672D02*
Y22723D01*
X48772D01*
X48872Y22623D01*
Y22323D01*
Y22623D01*
X48972Y22723D01*
X49072Y22623D01*
Y22323D01*
X37904Y23312D02*
Y23912D01*
X38203D01*
X38303Y23812D01*
Y23612D01*
X38203Y23512D01*
X37904D01*
X38503Y23312D02*
X38703D01*
X38603D01*
Y23912D01*
X38503D01*
X39103Y23712D02*
X39303D01*
X39403Y23612D01*
Y23312D01*
X39103D01*
X39003Y23412D01*
X39103Y23512D01*
X39403D01*
X40003Y23712D02*
X39703D01*
X39603Y23612D01*
Y23412D01*
X39703Y23312D01*
X40003D01*
X40503D02*
X40303D01*
X40203Y23412D01*
Y23612D01*
X40303Y23712D01*
X40503D01*
X40603Y23612D01*
Y23512D01*
X40203D01*
X40803Y23312D02*
Y23712D01*
X40903D01*
X41003Y23612D01*
Y23312D01*
Y23612D01*
X41103Y23712D01*
X41202Y23612D01*
Y23312D01*
X41702D02*
X41502D01*
X41402Y23412D01*
Y23612D01*
X41502Y23712D01*
X41702D01*
X41802Y23612D01*
Y23512D01*
X41402D01*
X42002Y23312D02*
Y23712D01*
X42302D01*
X42402Y23612D01*
Y23312D01*
X42702Y23812D02*
Y23712D01*
X42602D01*
X42802D01*
X42702D01*
Y23412D01*
X42802Y23312D01*
X43802D02*
Y23812D01*
Y23612D01*
X43702D01*
X43902D01*
X43802D01*
Y23812D01*
X43902Y23912D01*
X44301Y23312D02*
X44501D01*
X44601Y23412D01*
Y23612D01*
X44501Y23712D01*
X44301D01*
X44202Y23612D01*
Y23412D01*
X44301Y23312D01*
X44801Y23712D02*
Y23312D01*
Y23512D01*
X44901Y23612D01*
X45001Y23712D01*
X45101D01*
G54D16*
X28711Y12254D02*
X29203Y12008D01*
X28730Y11782D02*
X29203Y12008D01*
X23071D02*
X29203D01*
G54D146*
X19990Y28219D02*
G03*
X19990Y28219I-98J0D01*
G01*
X21063Y23612D02*
G03*
X21063Y23612I-197J0D01*
G01*
X22638Y23602D02*
G03*
X22638Y23602I-197J0D01*
G01*
X19341Y23622D02*
G03*
X19341Y23622I-197J0D01*
G01*
X12165Y27943D02*
G03*
X12165Y28041I0J49D01*
G01*
X12795D02*
G03*
X12795Y27943I0J-49D01*
G01*
X12352Y28120D02*
G03*
X12352Y28120I-10J0D01*
G01*
Y27648D02*
G03*
X12352Y27648I-10J0D01*
G01*
X12795Y27569D02*
G03*
X12795Y27470I0J-49D01*
G01*
X12165D02*
G03*
X12165Y27569I0J49D01*
G01*
X12352Y27175D02*
G03*
X12352Y27175I-10J0D01*
G01*
X12795Y27096D02*
G03*
X12795Y26998I0J-49D01*
G01*
X12165D02*
G03*
X12165Y27096I0J49D01*
G01*
X24213Y23622D02*
G03*
X24213Y23622I-197J0D01*
G01*
X20069Y27943D02*
Y29124D01*
X18888Y27943D02*
Y29124D01*
Y27943D02*
X20069D01*
X18888Y29124D02*
X20069D01*
X41585Y35039D02*
X43159D01*
Y36614D01*
X41585D02*
X43159D01*
X41585Y35039D02*
Y36614D01*
X39518Y32205D02*
Y33780D01*
X37943Y32205D02*
X39518D01*
X37943D02*
Y33780D01*
X39518D01*
X20210Y17533D02*
X20310D01*
X20160Y17582D02*
Y22582D01*
X20360Y17582D02*
Y22582D01*
X20160Y17582D02*
X20161D01*
X20359D02*
X20360D01*
X20161D02*
X20210Y17533D01*
X20310D02*
X20359Y17582D01*
X20161Y22582D02*
X20210Y22631D01*
X20310D02*
X20359Y22582D01*
X20160D02*
X20161D01*
X20359D02*
X20360D01*
X20210Y22631D02*
X20310D01*
X21210D02*
X21310D01*
X21359Y22582D02*
X21360D01*
X21160D02*
X21161D01*
X21310Y22631D02*
X21359Y22582D01*
X21161D02*
X21210Y22631D01*
X21310Y17533D02*
X21359Y17582D01*
X21161D02*
X21210Y17533D01*
X21359Y17582D02*
X21360D01*
X21160D02*
X21161D01*
X21360D02*
Y22582D01*
X21160Y17582D02*
Y22582D01*
X21210Y17533D02*
X21310D01*
X22210Y22631D02*
X22310D01*
X22359Y22582D02*
X22360D01*
X22160D02*
X22161D01*
X22310Y22631D02*
X22359Y22582D01*
X22161D02*
X22210Y22631D01*
X22310Y17533D02*
X22359Y17582D01*
X22161D02*
X22210Y17533D01*
X22359Y17582D02*
X22360D01*
X22160D02*
X22161D01*
X22360D02*
Y22582D01*
X22160Y17582D02*
Y22582D01*
X22210Y17533D02*
X22310D01*
X13228Y29823D02*
X15669D01*
X13228D02*
Y32421D01*
X15669D01*
Y29823D02*
Y32421D01*
X14764Y30098D02*
Y32146D01*
X13150D02*
X14764D01*
X12756Y31752D02*
X13150Y32146D01*
X12756Y30492D02*
Y31752D01*
Y30492D02*
X13150Y30098D01*
X14764D01*
X15669Y32185D02*
X16772D01*
Y31870D02*
Y32185D01*
X15669Y31870D02*
X16772D01*
X15669Y30374D02*
X16772D01*
Y30059D02*
Y30374D01*
X15669Y30059D02*
X16772D01*
X18730Y37293D02*
X19478D01*
X18730D02*
Y37943D01*
X18022D02*
X18730D01*
X19478Y37293D02*
Y39459D01*
X19242D02*
X19478D01*
X19242D02*
Y39695D01*
X18022D02*
X19242D01*
X19380Y39459D02*
Y39518D01*
X19557Y39695D01*
X19596Y39656D01*
Y39616D02*
Y39656D01*
X19478Y39498D02*
X19596Y39616D01*
X19478Y39459D02*
Y39498D01*
X16565Y39459D02*
Y39498D01*
X16447Y39616D02*
X16565Y39498D01*
X16447Y39616D02*
Y39656D01*
X16486Y39695D01*
X16663Y39518D01*
Y39459D02*
Y39518D01*
X16801Y39695D02*
X18022D01*
X16801Y39459D02*
Y39695D01*
X16565Y39459D02*
X16801D01*
X16565Y37293D02*
Y39459D01*
X17313Y37943D02*
X18022D01*
X17313Y37293D02*
Y37943D01*
X16565Y37293D02*
X17313D01*
X16270Y39242D02*
X19774D01*
X47185Y36240D02*
X48760D01*
Y34665D02*
Y36240D01*
X47185Y34665D02*
X48760D01*
X47185D02*
Y36240D01*
X32343Y32579D02*
X33917D01*
X32343D02*
Y34154D01*
X33917D01*
Y32579D02*
Y34154D01*
X12165Y28041D02*
Y28150D01*
Y27835D02*
Y27943D01*
X12795Y28041D02*
Y28150D01*
Y27835D02*
Y27943D01*
X12520Y27913D02*
Y28071D01*
X12402Y27992D02*
X12520Y28071D01*
X12402Y27992D02*
X12520Y27913D01*
X12402D02*
Y28071D01*
Y27441D02*
Y27598D01*
Y27520D02*
X12520Y27441D01*
X12402Y27520D02*
X12520Y27598D01*
Y27441D02*
Y27598D01*
X12795Y27362D02*
Y27470D01*
Y27569D02*
Y27677D01*
X12165Y27362D02*
Y27470D01*
Y27569D02*
Y27677D01*
X12402Y26969D02*
Y27126D01*
Y27047D02*
X12520Y26969D01*
X12402Y27047D02*
X12520Y27126D01*
Y26969D02*
Y27126D01*
X12795Y26890D02*
Y26998D01*
Y27096D02*
Y27205D01*
X12165Y26890D02*
Y26998D01*
Y27096D02*
Y27205D01*
X24340Y33848D02*
X24440D01*
X24290Y33898D02*
Y38898D01*
X24490Y33898D02*
Y38898D01*
X24290Y33898D02*
X24291D01*
X24489D02*
X24490D01*
X24291D02*
X24340Y33848D01*
X24440D02*
X24489Y33898D01*
X24291Y38898D02*
X24340Y38947D01*
X24440D02*
X24489Y38898D01*
X24290D02*
X24291D01*
X24489D02*
X24490D01*
X24340Y38947D02*
X24440D01*
X25340D02*
X25440D01*
X25489Y38898D02*
X25490D01*
X25290D02*
X25291D01*
X25440Y38947D02*
X25489Y38898D01*
X25291D02*
X25340Y38947D01*
X25440Y33848D02*
X25489Y33898D01*
X25291D02*
X25340Y33848D01*
X25489Y33898D02*
X25490D01*
X25290D02*
X25291D01*
X25490D02*
Y38898D01*
X25290Y33898D02*
Y38898D01*
X25340Y33848D02*
X25440D01*
X26340Y38947D02*
X26440D01*
X26489Y38898D02*
X26490D01*
X26290D02*
X26291D01*
X26440Y38947D02*
X26489Y38898D01*
X26291D02*
X26340Y38947D01*
X26440Y33848D02*
X26489Y33898D01*
X26291D02*
X26340Y33848D01*
X26489Y33898D02*
X26490D01*
X26290D02*
X26291D01*
X26490D02*
Y38898D01*
X26290Y33898D02*
Y38898D01*
X26340Y33848D02*
X26440D01*
X27340Y38947D02*
X27440D01*
X27489Y38898D02*
X27490D01*
X27290D02*
X27291D01*
X27440Y38947D02*
X27489Y38898D01*
X27291D02*
X27340Y38947D01*
X27440Y33848D02*
X27489Y33898D01*
X27291D02*
X27340Y33848D01*
X27489Y33898D02*
X27490D01*
X27290D02*
X27291D01*
X27490D02*
Y38898D01*
X27290Y33898D02*
Y38898D01*
X27340Y33848D02*
X27440D01*
X28340Y38947D02*
X28440D01*
X28489Y38898D02*
X28490D01*
X28290D02*
X28291D01*
X28440Y38947D02*
X28489Y38898D01*
X28291D02*
X28340Y38947D01*
X28440Y33848D02*
X28489Y33898D01*
X28291D02*
X28340Y33848D01*
X28489Y33898D02*
X28490D01*
X28290D02*
X28291D01*
X28490D02*
Y38898D01*
X28290Y33898D02*
Y38898D01*
X28340Y33848D02*
X28440D01*
X29340Y38947D02*
X29440D01*
X29489Y38898D02*
X29490D01*
X29290D02*
X29291D01*
X29440Y38947D02*
X29489Y38898D01*
X29291D02*
X29340Y38947D01*
X29440Y33848D02*
X29489Y33898D01*
X29291D02*
X29340Y33848D01*
X29489Y33898D02*
X29490D01*
X29290D02*
X29291D01*
X29490D02*
Y38898D01*
X29290Y33898D02*
Y38898D01*
X29340Y33848D02*
X29440D01*
X22328Y34262D02*
X22428D01*
X22278Y34311D02*
Y39311D01*
X22478Y34311D02*
Y39311D01*
X22278Y34311D02*
X22279D01*
X22477D02*
X22478D01*
X22279D02*
X22328Y34262D01*
X22428D02*
X22477Y34311D01*
X22279Y39311D02*
X22328Y39360D01*
X22428D02*
X22477Y39311D01*
X22278D02*
X22279D01*
X22477D02*
X22478D01*
X22328Y39360D02*
X22428D01*
X21328Y34262D02*
X21428D01*
X21278Y34311D02*
Y39311D01*
X21478Y34311D02*
Y39311D01*
X21278Y34311D02*
X21279D01*
X21477D02*
X21478D01*
X21279D02*
X21328Y34262D01*
X21428D02*
X21477Y34311D01*
X21279Y39311D02*
X21328Y39360D01*
X21428D02*
X21477Y39311D01*
X21278D02*
X21279D01*
X21477D02*
X21478D01*
X21328Y39360D02*
X21428D01*
X20328D02*
X20428D01*
X20477Y39311D02*
X20478D01*
X20278D02*
X20279D01*
X20428Y39360D02*
X20477Y39311D01*
X20279D02*
X20328Y39360D01*
X20428Y34262D02*
X20477Y34311D01*
X20279D02*
X20328Y34262D01*
X20477Y34311D02*
X20478D01*
X20278D02*
X20279D01*
X20478D02*
Y39311D01*
X20278Y34311D02*
Y39311D01*
X20328Y34262D02*
X20428D01*
X11496Y26484D02*
X16260D01*
X17402Y25343D01*
Y21760D02*
Y25343D01*
X11496Y21760D02*
X17402D01*
X11496D02*
Y26484D01*
X11929Y26642D02*
X18228D01*
X11929Y20972D02*
Y26642D01*
Y20972D02*
X18228D01*
Y26642D01*
X21988Y25886D02*
Y27579D01*
X22106Y25886D02*
Y27579D01*
X19685Y25866D02*
X22559D01*
Y27559D01*
X19695D02*
X22559D01*
X19695Y25866D02*
Y27559D01*
X46782Y33258D02*
X46900D01*
X46663Y33140D02*
X46782Y33258D01*
X46663Y32667D02*
Y33140D01*
Y32667D02*
X46782Y32549D01*
X46900D01*
X47923Y33593D02*
X48317D01*
Y33435D02*
Y33593D01*
X47923Y33435D02*
X48317D01*
X47923Y32372D02*
X48317D01*
Y32215D02*
Y32372D01*
X47923Y32215D02*
X48317D01*
X47923Y33002D02*
X48317D01*
Y32805D02*
Y33002D01*
X47923Y32805D02*
X48317D01*
X46900Y31998D02*
X47923D01*
X46900D02*
Y33809D01*
X47923D01*
Y31998D02*
Y33809D01*
X34203Y35561D02*
X34321D01*
X34439Y35679D01*
Y36152D01*
X34321Y36270D02*
X34439Y36152D01*
X34203Y36270D02*
X34321D01*
X32785Y35226D02*
X33179D01*
X32785D02*
Y35384D01*
X33179D01*
X32785Y36447D02*
X33179D01*
X32785D02*
Y36604D01*
X33179D01*
X32785Y35817D02*
X33179D01*
X32785D02*
Y36014D01*
X33179D01*
Y36821D02*
X34203D01*
Y35010D02*
Y36821D01*
X33179Y35010D02*
X34203D01*
X33179D02*
Y36821D01*
X50118Y32913D02*
X50276D01*
X50079Y33051D02*
Y33307D01*
X50315Y33051D02*
Y33307D01*
X50276Y32874D02*
Y32913D01*
X50118Y32874D02*
Y32913D01*
X50049Y33022D02*
X50079Y33051D01*
X50049Y33337D02*
X50079Y33307D01*
X50315D02*
X50344Y33337D01*
X50315Y33051D02*
X50344Y33022D01*
X50118Y33445D02*
X50276D01*
Y33484D01*
X50118Y33445D02*
Y33484D01*
X30827Y35906D02*
X30984D01*
X31024Y35512D02*
Y35768D01*
X30787Y35512D02*
Y35768D01*
X30827Y35906D02*
Y35945D01*
X30984Y35906D02*
Y35945D01*
X31024Y35768D02*
X31053Y35797D01*
X31024Y35512D02*
X31053Y35482D01*
X30758D02*
X30787Y35512D01*
X30758Y35797D02*
X30787Y35768D01*
X30827Y35374D02*
X30984D01*
X30827Y35335D02*
Y35374D01*
X30984Y35335D02*
Y35374D01*
X38952Y34481D02*
Y34638D01*
X38558Y34441D02*
X38814D01*
X38558Y34678D02*
X38814D01*
X38952Y34638D02*
X38991D01*
X38952Y34481D02*
X38991D01*
X38814Y34441D02*
X38844Y34412D01*
X38529D02*
X38558Y34441D01*
X38529Y34707D02*
X38558Y34678D01*
X38814D02*
X38844Y34707D01*
X38420Y34481D02*
Y34638D01*
X38381D02*
X38420D01*
X38381Y34481D02*
X38420D01*
X42150Y34181D02*
Y34338D01*
X42288Y34377D02*
X42544D01*
X42288Y34141D02*
X42544D01*
X42111Y34181D02*
X42150D01*
X42111Y34338D02*
X42150D01*
X42259Y34407D02*
X42288Y34377D01*
X42544D02*
X42574Y34407D01*
X42544Y34141D02*
X42574Y34112D01*
X42259D02*
X42288Y34141D01*
X42682Y34181D02*
Y34338D01*
Y34181D02*
X42721D01*
X42682Y34338D02*
X42721D01*
X17457Y37530D02*
X17589D01*
Y37628D01*
X17523Y37595D01*
X17490D01*
X17457Y37628D01*
Y37694D01*
X17490Y37726D01*
X17556D01*
X17589Y37694D01*
X18533Y37766D02*
X18468D01*
X18501D01*
Y37569D01*
X18533Y37602D01*
G54D147*
X29124Y32146D02*
G03*
X29124Y32146I-984J0D01*
G01*
X22598Y28681D02*
G03*
X22598Y28681I-984J0D01*
G01*
G54D148*
X41890Y36407D02*
G03*
X41890Y36407I-98J0D01*
G01*
X39409Y32411D02*
G03*
X39409Y32411I-98J0D01*
G01*
X48652Y36033D02*
G03*
X48652Y36033I-98J0D01*
G01*
X32648Y32785D02*
G03*
X32648Y32785I-98J0D01*
G01*
X29055Y28996D02*
X31535D01*
Y27736D02*
Y28996D01*
Y23957D02*
Y25217D01*
Y17185D02*
Y18287D01*
X29055Y17185D02*
X31535D01*
X27913Y17854D02*
Y18445D01*
Y24114D02*
Y25374D01*
Y27894D02*
Y28327D01*
X18389Y28094D02*
X18356Y28061D01*
Y27995D01*
X18389Y27963D01*
X18520D01*
X18553Y27995D01*
Y28061D01*
X18520Y28094D01*
X18389Y28159D02*
X18356Y28192D01*
Y28258D01*
X18389Y28291D01*
X18422D01*
X18454Y28258D01*
Y28225D01*
Y28258D01*
X18487Y28291D01*
X18520D01*
X18553Y28258D01*
Y28192D01*
X18520Y28159D01*
X19364Y28652D02*
Y28488D01*
X19397Y28455D01*
X19462D01*
X19495Y28488D01*
Y28652D01*
X19561Y28455D02*
X19626D01*
X19594D01*
Y28652D01*
X19561Y28619D01*
X17139Y27887D02*
X17106Y27854D01*
Y27789D01*
X17139Y27756D01*
X17270D01*
X17303Y27789D01*
Y27854D01*
X17270Y27887D01*
X17303Y27953D02*
Y28018D01*
Y27985D01*
X17106D01*
X17139Y27953D01*
X27972Y32234D02*
Y32037D01*
X28104D01*
X28169Y32201D02*
X28202Y32234D01*
X28268D01*
X28300Y32201D01*
Y32169D01*
X28268Y32136D01*
X28235D01*
X28268D01*
X28300Y32103D01*
Y32070D01*
X28268Y32037D01*
X28202D01*
X28169Y32070D01*
X21457Y29134D02*
Y28937D01*
X21588D01*
X21785D02*
X21653D01*
X21785Y29068D01*
Y29101D01*
X21752Y29134D01*
X21686D01*
X21653Y29101D01*
X22441Y18556D02*
Y18491D01*
Y18524D01*
X22605D01*
X22638Y18491D01*
Y18458D01*
X22605Y18425D01*
X22638Y18753D02*
Y18622D01*
X22507Y18753D01*
X22474D01*
X22441Y18720D01*
Y18655D01*
X22474Y18622D01*
Y18819D02*
X22539Y18884D01*
X18819Y36256D02*
Y36059D01*
X18950D01*
X19016D02*
X19081D01*
X19048D01*
Y36256D01*
X19016Y36223D01*
X42018Y35945D02*
Y35781D01*
X42051Y35748D01*
X42116D01*
X42149Y35781D01*
Y35945D01*
X42346D02*
X42280Y35912D01*
X42214Y35846D01*
Y35781D01*
X42247Y35748D01*
X42313D01*
X42346Y35781D01*
Y35814D01*
X42313Y35846D01*
X42214D01*
X42411Y35748D02*
Y35879D01*
X42477Y35945D01*
X42542Y35879D01*
Y35748D01*
Y35846D01*
X42411D01*
X38484Y33090D02*
Y32926D01*
X38517Y32894D01*
X38583D01*
X38615Y32926D01*
Y33090D01*
X38812D02*
X38747Y33058D01*
X38681Y32992D01*
Y32926D01*
X38714Y32894D01*
X38779D01*
X38812Y32926D01*
Y32959D01*
X38779Y32992D01*
X38681D01*
X38878Y33090D02*
Y32894D01*
X38976D01*
X39009Y32926D01*
Y32959D01*
X38976Y32992D01*
X38878D01*
X38976D01*
X39009Y33025D01*
Y33058D01*
X38976Y33090D01*
X38878D01*
X21676Y19872D02*
X21611D01*
X21644D01*
Y19708D01*
X21611Y19675D01*
X21578D01*
X21545Y19708D01*
X21873Y19675D02*
X21742D01*
X21873Y19806D01*
Y19839D01*
X21840Y19872D01*
X21775D01*
X21742Y19839D01*
X14222Y31197D02*
Y31033D01*
X14255Y31000D01*
X14321D01*
X14354Y31033D01*
Y31197D01*
X14550Y31000D02*
X14419D01*
X14550Y31131D01*
Y31164D01*
X14518Y31197D01*
X14452D01*
X14419Y31164D01*
X16991Y32821D02*
X16959Y32854D01*
X16893D01*
X16860Y32821D01*
Y32690D01*
X16893Y32657D01*
X16959D01*
X16991Y32690D01*
X17057Y32657D02*
X17123D01*
X17090D01*
Y32854D01*
X17057Y32821D01*
X17221D02*
X17254Y32854D01*
X17319D01*
X17352Y32821D01*
Y32690D01*
X17319Y32657D01*
X17254D01*
X17221Y32690D01*
Y32821D01*
X15712Y29505D02*
X15679Y29537D01*
X15614D01*
X15581Y29505D01*
Y29373D01*
X15614Y29341D01*
X15679D01*
X15712Y29373D01*
X15777D02*
X15810Y29341D01*
X15876D01*
X15909Y29373D01*
Y29505D01*
X15876Y29537D01*
X15810D01*
X15777Y29505D01*
Y29472D01*
X15810Y29439D01*
X15909D01*
X26585Y28602D02*
X26716Y28406D01*
Y28602D02*
X26585Y28406D01*
X26781Y28570D02*
X26814Y28602D01*
X26880D01*
X26913Y28570D01*
Y28537D01*
X26880Y28504D01*
X26847D01*
X26880D01*
X26913Y28471D01*
Y28438D01*
X26880Y28406D01*
X26814D01*
X26781Y28438D01*
X24646Y28602D02*
X24777Y28406D01*
Y28602D02*
X24646Y28406D01*
X24941D02*
Y28602D01*
X24842Y28504D01*
X24974D01*
X20089Y39163D02*
Y39065D01*
X20039D01*
X20023Y39081D01*
Y39114D01*
X20039Y39131D01*
X20089D01*
X19925Y39081D02*
X19941Y39065D01*
X19974D01*
X19990Y39081D01*
Y39147D01*
X19974Y39163D01*
X19941D01*
X19925Y39147D01*
X19892Y39065D02*
Y39163D01*
X19843D01*
X19826Y39147D01*
Y39131D01*
X19843Y39114D01*
X19892D01*
X19843D01*
X19826Y39098D01*
Y39081D01*
X19843Y39065D01*
X19892D01*
X19629D02*
X19695D01*
Y39163D01*
X19629D01*
X19695Y39114D02*
X19662D01*
X19531Y39065D02*
Y39163D01*
X19580D01*
X19597Y39147D01*
Y39114D01*
X19580Y39098D01*
X19531D01*
X19465Y39196D02*
X19449D01*
X19433Y39180D01*
Y39098D01*
X19482D01*
X19498Y39114D01*
Y39147D01*
X19482Y39163D01*
X19433D01*
X19351D02*
X19383D01*
X19400Y39147D01*
Y39114D01*
X19383Y39098D01*
X19351D01*
X19334Y39114D01*
Y39131D01*
X19400D01*
X17874Y38199D02*
X18005Y38002D01*
Y38199D02*
X17874Y38002D01*
X18071D02*
X18136D01*
X18104D01*
Y38199D01*
X18071Y38166D01*
X26599Y32572D02*
X26566Y32539D01*
Y32474D01*
X26599Y32441D01*
X26730D01*
X26763Y32474D01*
Y32539D01*
X26730Y32572D01*
X26763Y32638D02*
Y32703D01*
Y32671D01*
X26566D01*
X26599Y32638D01*
X26763Y32933D02*
Y32802D01*
X26631Y32933D01*
X26599D01*
X26566Y32900D01*
Y32835D01*
X26599Y32802D01*
X20795Y23419D02*
X20763Y23386D01*
Y23320D01*
X20795Y23287D01*
X20927D01*
X20959Y23320D01*
Y23386D01*
X20927Y23419D01*
X20861D01*
Y23353D01*
X20959Y23484D02*
X20763D01*
Y23583D01*
X20795Y23615D01*
X20861D01*
X20894Y23583D01*
Y23484D01*
X20763Y23681D02*
Y23747D01*
Y23714D01*
X20959D01*
Y23681D01*
Y23747D01*
X20763Y23943D02*
Y23878D01*
X20795Y23845D01*
X20927D01*
X20959Y23878D01*
Y23943D01*
X20927Y23976D01*
X20795D01*
X20763Y23943D01*
X20795Y24042D02*
X20763Y24075D01*
Y24140D01*
X20795Y24173D01*
X20828D01*
X20861Y24140D01*
Y24107D01*
Y24140D01*
X20894Y24173D01*
X20927D01*
X20959Y24140D01*
Y24075D01*
X20927Y24042D01*
X20959Y24239D02*
X20763D01*
Y24337D01*
X20795Y24370D01*
X20861D01*
X20894Y24337D01*
Y24239D01*
X22375Y23374D02*
X22343Y23342D01*
Y23276D01*
X22375Y23243D01*
X22507D01*
X22539Y23276D01*
Y23342D01*
X22507Y23374D01*
X22441D01*
Y23309D01*
X22539Y23440D02*
X22343D01*
Y23538D01*
X22375Y23571D01*
X22441D01*
X22474Y23538D01*
Y23440D01*
X22343Y23637D02*
Y23702D01*
Y23670D01*
X22539D01*
Y23637D01*
Y23702D01*
X22343Y23899D02*
Y23834D01*
X22375Y23801D01*
X22507D01*
X22539Y23834D01*
Y23899D01*
X22507Y23932D01*
X22375D01*
X22343Y23899D01*
X22375Y23998D02*
X22343Y24030D01*
Y24096D01*
X22375Y24129D01*
X22408D01*
X22441Y24096D01*
X22474Y24129D01*
X22507D01*
X22539Y24096D01*
Y24030D01*
X22507Y23998D01*
X22474D01*
X22441Y24030D01*
X22408Y23998D01*
X22375D01*
X22441Y24030D02*
Y24096D01*
X19216Y23365D02*
X19183Y23332D01*
Y23266D01*
X19216Y23234D01*
X19347D01*
X19380Y23266D01*
Y23332D01*
X19347Y23365D01*
X19282D01*
Y23299D01*
X19380Y23430D02*
X19183D01*
Y23529D01*
X19216Y23562D01*
X19282D01*
X19314Y23529D01*
Y23430D01*
X19183Y23627D02*
Y23693D01*
Y23660D01*
X19380D01*
Y23627D01*
Y23693D01*
X19183Y23890D02*
Y23824D01*
X19216Y23791D01*
X19347D01*
X19380Y23824D01*
Y23890D01*
X19347Y23922D01*
X19216D01*
X19183Y23890D01*
X19216Y23988D02*
X19183Y24021D01*
Y24086D01*
X19216Y24119D01*
X19249D01*
X19282Y24086D01*
Y24054D01*
Y24086D01*
X19314Y24119D01*
X19347D01*
X19380Y24086D01*
Y24021D01*
X19347Y23988D01*
X19380Y24185D02*
X19183D01*
X19380Y24316D01*
X19183D01*
X26831Y24035D02*
Y24232D01*
X26929D01*
X26962Y24199D01*
Y24134D01*
X26929Y24101D01*
X26831D01*
X26896D02*
X26962Y24035D01*
X27159Y24232D02*
X27093Y24199D01*
X27027Y24134D01*
Y24068D01*
X27060Y24035D01*
X27126D01*
X27159Y24068D01*
Y24101D01*
X27126Y24134D01*
X27027D01*
X47697Y35551D02*
Y35387D01*
X47730Y35354D01*
X47795D01*
X47828Y35387D01*
Y35551D01*
X48025D02*
X47894D01*
Y35453D01*
X47959Y35486D01*
X47992D01*
X48025Y35453D01*
Y35387D01*
X47992Y35354D01*
X47926D01*
X47894Y35387D01*
X48090Y35354D02*
Y35486D01*
X48156Y35551D01*
X48222Y35486D01*
Y35354D01*
Y35453D01*
X48090D01*
X33012Y33012D02*
X33176D01*
X33209Y33045D01*
Y33110D01*
X33176Y33143D01*
X33012D01*
Y33340D02*
Y33209D01*
X33110D01*
X33077Y33274D01*
Y33307D01*
X33110Y33340D01*
X33176D01*
X33209Y33307D01*
Y33241D01*
X33176Y33209D01*
X33012Y33405D02*
X33209D01*
Y33504D01*
X33176Y33537D01*
X33143D01*
X33110Y33504D01*
Y33405D01*
Y33504D01*
X33077Y33537D01*
X33045D01*
X33012Y33504D01*
Y33405D01*
X30318Y31276D02*
X30285Y31309D01*
X30220D01*
X30187Y31276D01*
Y31243D01*
X30220Y31211D01*
X30285D01*
X30318Y31178D01*
Y31145D01*
X30285Y31112D01*
X30220D01*
X30187Y31145D01*
X30384Y31309D02*
Y31112D01*
Y31211D01*
X30417Y31243D01*
X30482D01*
X30515Y31211D01*
Y31112D01*
X30581D02*
X30646D01*
X30613D01*
Y31243D01*
X30581D01*
X30843Y31112D02*
X30777D01*
X30745Y31145D01*
Y31211D01*
X30777Y31243D01*
X30843D01*
X30876Y31211D01*
Y31178D01*
X30745D01*
X30941Y31112D02*
X31007D01*
X30974D01*
Y31309D01*
X30941D01*
X31237D02*
Y31112D01*
X31138D01*
X31105Y31145D01*
Y31211D01*
X31138Y31243D01*
X31237D01*
X31302Y31276D02*
X31335Y31309D01*
X31401D01*
X31433Y31276D01*
Y31243D01*
X31401Y31211D01*
X31368D01*
X31401D01*
X31433Y31178D01*
Y31145D01*
X31401Y31112D01*
X31335D01*
X31302Y31145D01*
X44541Y31217D02*
X44508Y31250D01*
X44442D01*
X44409Y31217D01*
Y31184D01*
X44442Y31152D01*
X44508D01*
X44541Y31119D01*
Y31086D01*
X44508Y31053D01*
X44442D01*
X44409Y31086D01*
X44606Y31250D02*
Y31053D01*
Y31152D01*
X44639Y31184D01*
X44705D01*
X44737Y31152D01*
Y31053D01*
X44803D02*
X44869D01*
X44836D01*
Y31184D01*
X44803D01*
X45065Y31053D02*
X45000D01*
X44967Y31086D01*
Y31152D01*
X45000Y31184D01*
X45065D01*
X45098Y31152D01*
Y31119D01*
X44967D01*
X45164Y31053D02*
X45229D01*
X45197D01*
Y31250D01*
X45164D01*
X45459D02*
Y31053D01*
X45361D01*
X45328Y31086D01*
Y31152D01*
X45361Y31184D01*
X45459D01*
X45656Y31053D02*
X45525D01*
X45656Y31184D01*
Y31217D01*
X45623Y31250D01*
X45557D01*
X45525Y31217D01*
X11033Y28103D02*
Y27906D01*
X11165D01*
X11361Y28103D02*
X11230D01*
Y27906D01*
X11361D01*
X11230Y28005D02*
X11296D01*
X11427Y28103D02*
Y27906D01*
X11525D01*
X11558Y27939D01*
Y28070D01*
X11525Y28103D01*
X11427D01*
X11624Y28070D02*
X11657Y28103D01*
X11722D01*
X11755Y28070D01*
Y28038D01*
X11722Y28005D01*
X11689D01*
X11722D01*
X11755Y27972D01*
Y27939D01*
X11722Y27906D01*
X11657D01*
X11624Y27939D01*
X11033Y27618D02*
Y27421D01*
X11165D01*
X11361Y27618D02*
X11230D01*
Y27421D01*
X11361D01*
X11230Y27520D02*
X11296D01*
X11427Y27618D02*
Y27421D01*
X11525D01*
X11558Y27454D01*
Y27585D01*
X11525Y27618D01*
X11427D01*
X11755Y27421D02*
X11624D01*
X11755Y27552D01*
Y27585D01*
X11722Y27618D01*
X11657D01*
X11624Y27585D01*
X11033Y27150D02*
Y26953D01*
X11165D01*
X11361Y27150D02*
X11230D01*
Y26953D01*
X11361D01*
X11230Y27052D02*
X11296D01*
X11427Y27150D02*
Y26953D01*
X11525D01*
X11558Y26986D01*
Y27117D01*
X11525Y27150D01*
X11427D01*
X11624Y26953D02*
X11689D01*
X11657D01*
Y27150D01*
X11624Y27117D01*
X37484Y31217D02*
X37451Y31250D01*
X37385D01*
X37352Y31217D01*
Y31184D01*
X37385Y31152D01*
X37451D01*
X37484Y31119D01*
Y31086D01*
X37451Y31053D01*
X37385D01*
X37352Y31086D01*
X37549Y31250D02*
Y31053D01*
Y31152D01*
X37582Y31184D01*
X37648D01*
X37680Y31152D01*
Y31053D01*
X37746D02*
X37812D01*
X37779D01*
Y31184D01*
X37746D01*
X38008Y31053D02*
X37943D01*
X37910Y31086D01*
Y31152D01*
X37943Y31184D01*
X38008D01*
X38041Y31152D01*
Y31119D01*
X37910D01*
X38107Y31053D02*
X38172D01*
X38140D01*
Y31250D01*
X38107D01*
X38402D02*
Y31053D01*
X38303D01*
X38271Y31086D01*
Y31152D01*
X38303Y31184D01*
X38402D01*
X38467Y31053D02*
X38533D01*
X38500D01*
Y31250D01*
X38467Y31217D01*
X26742Y36255D02*
X26873Y36058D01*
Y36255D02*
X26742Y36058D01*
X26939Y36222D02*
X26972Y36255D01*
X27037D01*
X27070Y36222D01*
Y36189D01*
X27037Y36156D01*
X27070Y36124D01*
Y36091D01*
X27037Y36058D01*
X26972D01*
X26939Y36091D01*
Y36124D01*
X26972Y36156D01*
X26939Y36189D01*
Y36222D01*
X26972Y36156D02*
X27037D01*
X21883Y36675D02*
X21818D01*
X21850D01*
Y36511D01*
X21818Y36478D01*
X21785D01*
X21752Y36511D01*
X21949Y36478D02*
X22014D01*
X21982D01*
Y36675D01*
X21949Y36642D01*
X35236Y27953D02*
X35367Y27756D01*
Y27953D02*
X35236Y27756D01*
X35433D02*
X35499D01*
X35466D01*
Y27953D01*
X35433Y27920D01*
X35597D02*
X35630Y27953D01*
X35695D01*
X35728Y27920D01*
Y27789D01*
X35695Y27756D01*
X35630D01*
X35597Y27789D01*
Y27920D01*
X14961Y23730D02*
X15092Y23533D01*
Y23730D02*
X14961Y23533D01*
X15157Y23566D02*
X15190Y23533D01*
X15256D01*
X15289Y23566D01*
Y23697D01*
X15256Y23730D01*
X15190D01*
X15157Y23697D01*
Y23665D01*
X15190Y23632D01*
X15289D01*
X23981Y23458D02*
X23948Y23425D01*
Y23360D01*
X23981Y23327D01*
X24112D01*
X24145Y23360D01*
Y23425D01*
X24112Y23458D01*
X24046D01*
Y23392D01*
X24145Y23524D02*
X23948D01*
X24145Y23655D01*
X23948D01*
Y23720D02*
X24145D01*
Y23819D01*
X24112Y23852D01*
X23981D01*
X23948Y23819D01*
Y23720D01*
X24145Y23917D02*
Y23983D01*
Y23950D01*
X23948D01*
X23981Y23917D01*
X32365Y31818D02*
X32333Y31850D01*
X32267D01*
X32234Y31818D01*
Y31686D01*
X32267Y31654D01*
X32333D01*
X32365Y31686D01*
X32562Y31654D02*
X32431D01*
X32562Y31785D01*
Y31818D01*
X32529Y31850D01*
X32464D01*
X32431Y31818D01*
X32759Y31850D02*
X32628D01*
Y31752D01*
X32693Y31785D01*
X32726D01*
X32759Y31752D01*
Y31686D01*
X32726Y31654D01*
X32661D01*
X32628Y31686D01*
X32825Y31850D02*
Y31654D01*
X32923D01*
X32956Y31686D01*
Y31719D01*
X32923Y31752D01*
X32825D01*
X32923D01*
X32956Y31785D01*
Y31818D01*
X32923Y31850D01*
X32825D01*
X34462Y33566D02*
X34429Y33533D01*
Y33468D01*
X34462Y33435D01*
X34593D01*
X34626Y33468D01*
Y33533D01*
X34593Y33566D01*
X34626Y33632D02*
Y33697D01*
Y33665D01*
X34429D01*
X34462Y33632D01*
X34429Y33796D02*
Y33927D01*
X34462D01*
X34593Y33796D01*
X34626D01*
X34429Y33993D02*
X34626D01*
Y34091D01*
X34593Y34124D01*
X34560D01*
X34528Y34091D01*
Y33993D01*
Y34091D01*
X34495Y34124D01*
X34462D01*
X34429Y34091D01*
Y33993D01*
X40013Y32300D02*
X39980Y32333D01*
X39915D01*
X39882Y32300D01*
Y32169D01*
X39915Y32136D01*
X39980D01*
X40013Y32169D01*
X40210Y32136D02*
X40079D01*
X40210Y32267D01*
Y32300D01*
X40177Y32333D01*
X40111D01*
X40079Y32300D01*
X40374Y32136D02*
Y32333D01*
X40275Y32234D01*
X40407D01*
X40472Y32333D02*
Y32136D01*
X40571D01*
X40603Y32169D01*
Y32201D01*
X40571Y32234D01*
X40472D01*
X40571D01*
X40603Y32267D01*
Y32300D01*
X40571Y32333D01*
X40472D01*
X38871Y31818D02*
X38839Y31850D01*
X38773D01*
X38740Y31818D01*
Y31686D01*
X38773Y31654D01*
X38839D01*
X38871Y31686D01*
X39068Y31654D02*
X38937D01*
X39068Y31785D01*
Y31818D01*
X39035Y31850D01*
X38970D01*
X38937Y31818D01*
X39134Y31654D02*
X39199D01*
X39167D01*
Y31850D01*
X39134Y31818D01*
X39298Y31850D02*
Y31654D01*
X39396D01*
X39429Y31686D01*
Y31719D01*
X39396Y31752D01*
X39298D01*
X39396D01*
X39429Y31785D01*
Y31818D01*
X39396Y31850D01*
X39298D01*
X48300Y37113D02*
X48268Y37146D01*
X48202D01*
X48169Y37113D01*
Y36982D01*
X48202Y36949D01*
X48268D01*
X48300Y36982D01*
X48497Y36949D02*
X48366D01*
X48497Y37080D01*
Y37113D01*
X48464Y37146D01*
X48399D01*
X48366Y37113D01*
X48694Y37146D02*
X48563D01*
Y37047D01*
X48628Y37080D01*
X48661D01*
X48694Y37047D01*
Y36982D01*
X48661Y36949D01*
X48596D01*
X48563Y36982D01*
X48760Y36949D02*
Y37080D01*
X48825Y37146D01*
X48891Y37080D01*
Y36949D01*
Y37047D01*
X48760D01*
X46519Y34905D02*
X46486Y34872D01*
Y34806D01*
X46519Y34774D01*
X46650D01*
X46683Y34806D01*
Y34872D01*
X46650Y34905D01*
X46683Y34970D02*
Y35036D01*
Y35003D01*
X46486D01*
X46519Y34970D01*
X46486Y35134D02*
Y35266D01*
X46519D01*
X46650Y35134D01*
X46683D01*
Y35331D02*
X46552D01*
X46486Y35397D01*
X46552Y35462D01*
X46683D01*
X46585D01*
Y35331D01*
X40604Y36641D02*
X40571Y36674D01*
X40505D01*
X40472Y36641D01*
Y36510D01*
X40505Y36477D01*
X40571D01*
X40604Y36510D01*
X40800Y36477D02*
X40669D01*
X40800Y36608D01*
Y36641D01*
X40768Y36674D01*
X40702D01*
X40669Y36641D01*
X40964Y36477D02*
Y36674D01*
X40866Y36575D01*
X40997D01*
X41063Y36477D02*
Y36608D01*
X41128Y36674D01*
X41194Y36608D01*
Y36477D01*
Y36575D01*
X41063D01*
X41844Y37132D02*
X41811Y37165D01*
X41745D01*
X41713Y37132D01*
Y37001D01*
X41745Y36969D01*
X41811D01*
X41844Y37001D01*
X42041Y36969D02*
X41909D01*
X42041Y37100D01*
Y37132D01*
X42008Y37165D01*
X41942D01*
X41909Y37132D01*
X42106Y36969D02*
X42172D01*
X42139D01*
Y37165D01*
X42106Y37132D01*
X42270Y36969D02*
Y37100D01*
X42336Y37165D01*
X42401Y37100D01*
Y36969D01*
Y37067D01*
X42270D01*
X38199Y36348D02*
Y36152D01*
X38330D01*
X38494D02*
Y36348D01*
X38396Y36250D01*
X38527D01*
X38592Y36152D02*
Y36283D01*
X38658Y36348D01*
X38724Y36283D01*
Y36152D01*
Y36250D01*
X38592D01*
X42392Y32657D02*
Y32461D01*
X42523D01*
X42687D02*
Y32657D01*
X42589Y32559D01*
X42720D01*
X42785Y32657D02*
Y32461D01*
X42884D01*
X42916Y32493D01*
Y32526D01*
X42884Y32559D01*
X42785D01*
X42884D01*
X42916Y32592D01*
Y32625D01*
X42884Y32657D01*
X42785D01*
X48996Y33583D02*
Y33386D01*
X49127D01*
X49324Y33583D02*
X49193D01*
Y33484D01*
X49258Y33517D01*
X49291D01*
X49324Y33484D01*
Y33419D01*
X49291Y33386D01*
X49226D01*
X49193Y33419D01*
X49390Y33386D02*
Y33517D01*
X49455Y33583D01*
X49521Y33517D01*
Y33386D01*
Y33484D01*
X49390D01*
X31555Y35413D02*
Y35217D01*
X31686D01*
X31883Y35413D02*
X31752D01*
Y35315D01*
X31818Y35348D01*
X31850D01*
X31883Y35315D01*
Y35249D01*
X31850Y35217D01*
X31785D01*
X31752Y35249D01*
X31949Y35413D02*
Y35217D01*
X32047D01*
X32080Y35249D01*
Y35282D01*
X32047Y35315D01*
X31949D01*
X32047D01*
X32080Y35348D01*
Y35381D01*
X32047Y35413D01*
X31949D01*
X25404Y25837D02*
X25535Y25640D01*
Y25837D02*
X25404Y25640D01*
X25600D02*
X25666D01*
X25633D01*
Y25837D01*
X25600Y25804D01*
X25764Y25640D02*
X25830D01*
X25797D01*
Y25837D01*
X25764Y25804D01*
X25433Y22126D02*
X25564Y21929D01*
Y22126D02*
X25433Y21929D01*
X25630D02*
X25695D01*
X25663D01*
Y22126D01*
X25630Y22093D01*
X25925Y21929D02*
X25794D01*
X25925Y22060D01*
Y22093D01*
X25892Y22126D01*
X25827D01*
X25794Y22093D01*
X19998Y30246D02*
Y30443D01*
X20097D01*
X20130Y30410D01*
Y30344D01*
X20097Y30312D01*
X19998D01*
X20064D02*
X20130Y30246D01*
X20326Y30443D02*
X20195D01*
Y30344D01*
X20261Y30377D01*
X20294D01*
X20326Y30344D01*
Y30279D01*
X20294Y30246D01*
X20228D01*
X20195Y30279D01*
X19441Y29749D02*
Y29946D01*
X19540D01*
X19572Y29913D01*
Y29848D01*
X19540Y29815D01*
X19441D01*
X19507D02*
X19572Y29749D01*
X19736D02*
Y29946D01*
X19638Y29848D01*
X19769D01*
X18930Y36857D02*
X18898Y36890D01*
X18832D01*
X18799Y36857D01*
Y36726D01*
X18832Y36693D01*
X18898D01*
X18930Y36726D01*
X19127Y36693D02*
X18996D01*
X19127Y36824D01*
Y36857D01*
X19094Y36890D01*
X19029D01*
X18996Y36857D01*
X22252Y30407D02*
X22219Y30374D01*
Y30308D01*
X22252Y30276D01*
X22383D01*
X22416Y30308D01*
Y30374D01*
X22383Y30407D01*
X22219Y30472D02*
Y30604D01*
X22252D01*
X22383Y30472D01*
X22416D01*
X21047Y26818D02*
X21014Y26850D01*
X20948D01*
X20915Y26818D01*
Y26686D01*
X20948Y26654D01*
X21014D01*
X21047Y26686D01*
X21112Y26818D02*
X21145Y26850D01*
X21211D01*
X21243Y26818D01*
Y26785D01*
X21211Y26752D01*
X21243Y26719D01*
Y26686D01*
X21211Y26654D01*
X21145D01*
X21112Y26686D01*
Y26719D01*
X21145Y26752D01*
X21112Y26785D01*
Y26818D01*
X21145Y26752D02*
X21211D01*
X18250Y29057D02*
X18217Y29090D01*
X18152D01*
X18119Y29057D01*
Y28926D01*
X18152Y28893D01*
X18217D01*
X18250Y28926D01*
X18414Y28893D02*
Y29090D01*
X18316Y28991D01*
X18447D01*
X14631Y26998D02*
Y27195D01*
X14729D01*
X14762Y27162D01*
Y27096D01*
X14729Y27064D01*
X14631D01*
X14697D02*
X14762Y26998D01*
X14828Y27195D02*
X14959D01*
Y27162D01*
X14828Y27031D01*
Y26998D01*
X14616Y27516D02*
Y27713D01*
X14715D01*
X14747Y27680D01*
Y27614D01*
X14715Y27582D01*
X14616D01*
X14682D02*
X14747Y27516D01*
X14813Y27680D02*
X14846Y27713D01*
X14911D01*
X14944Y27680D01*
Y27647D01*
X14911Y27614D01*
X14944Y27582D01*
Y27549D01*
X14911Y27516D01*
X14846D01*
X14813Y27549D01*
Y27582D01*
X14846Y27614D01*
X14813Y27647D01*
Y27680D01*
X14846Y27614D02*
X14911D01*
X14596Y28012D02*
Y28209D01*
X14695D01*
X14728Y28176D01*
Y28110D01*
X14695Y28077D01*
X14596D01*
X14662D02*
X14728Y28012D01*
X14793Y28045D02*
X14826Y28012D01*
X14892D01*
X14924Y28045D01*
Y28176D01*
X14892Y28209D01*
X14826D01*
X14793Y28176D01*
Y28143D01*
X14826Y28110D01*
X14924D01*
X29549Y32558D02*
X29517Y32525D01*
Y32459D01*
X29549Y32427D01*
X29681D01*
X29713Y32459D01*
Y32525D01*
X29681Y32558D01*
X29713Y32623D02*
Y32689D01*
Y32656D01*
X29517D01*
X29549Y32623D01*
X29713Y32787D02*
Y32853D01*
Y32820D01*
X29517D01*
X29549Y32787D01*
X48773Y31844D02*
X48740Y31811D01*
Y31745D01*
X48773Y31713D01*
X48904D01*
X48937Y31745D01*
Y31811D01*
X48904Y31844D01*
X48937Y31909D02*
Y31975D01*
Y31942D01*
X48740D01*
X48773Y31909D01*
Y32073D02*
X48740Y32106D01*
Y32172D01*
X48773Y32205D01*
X48806D01*
X48839Y32172D01*
Y32139D01*
Y32172D01*
X48871Y32205D01*
X48904D01*
X48937Y32172D01*
Y32106D01*
X48904Y32073D01*
X48937Y32270D02*
X48806D01*
X48740Y32336D01*
X48806Y32401D01*
X48937D01*
X48839D01*
Y32270D01*
X32228Y36617D02*
X32195Y36585D01*
Y36519D01*
X32228Y36486D01*
X32359D01*
X32392Y36519D01*
Y36585D01*
X32359Y36617D01*
X32392Y36683D02*
Y36749D01*
Y36716D01*
X32195D01*
X32228Y36683D01*
Y36847D02*
X32195Y36880D01*
Y36945D01*
X32228Y36978D01*
X32261D01*
X32293Y36945D01*
Y36913D01*
Y36945D01*
X32326Y36978D01*
X32359D01*
X32392Y36945D01*
Y36880D01*
X32359Y36847D01*
X32195Y37044D02*
X32392D01*
Y37142D01*
X32359Y37175D01*
X32326D01*
X32293Y37142D01*
Y37044D01*
Y37142D01*
X32261Y37175D01*
X32228D01*
X32195Y37142D01*
Y37044D01*
X38871Y37103D02*
X38839Y37136D01*
X38773D01*
X38740Y37103D01*
Y36972D01*
X38773Y36939D01*
X38839D01*
X38871Y36972D01*
X38937Y36939D02*
X39003D01*
X38970D01*
Y37136D01*
X38937Y37103D01*
X39199Y36939D02*
Y37136D01*
X39101Y37037D01*
X39232D01*
X39298Y36939D02*
Y37070D01*
X39363Y37136D01*
X39429Y37070D01*
Y36939D01*
Y37037D01*
X39298D01*
X41854Y31867D02*
X41821Y31900D01*
X41755D01*
X41722Y31867D01*
Y31736D01*
X41755Y31703D01*
X41821D01*
X41854Y31736D01*
X41919Y31703D02*
X41985D01*
X41952D01*
Y31900D01*
X41919Y31867D01*
X42182Y31703D02*
Y31900D01*
X42083Y31801D01*
X42214D01*
X42280Y31900D02*
Y31703D01*
X42378D01*
X42411Y31736D01*
Y31768D01*
X42378Y31801D01*
X42280D01*
X42378D01*
X42411Y31834D01*
Y31867D01*
X42378Y31900D01*
X42280D01*
X38300Y35233D02*
X38268Y35266D01*
X38202D01*
X38169Y35233D01*
Y35102D01*
X38202Y35069D01*
X38268D01*
X38300Y35102D01*
X38366Y35069D02*
X38432D01*
X38399D01*
Y35266D01*
X38366Y35233D01*
X38661Y35266D02*
X38530D01*
Y35167D01*
X38596Y35200D01*
X38628D01*
X38661Y35167D01*
Y35102D01*
X38628Y35069D01*
X38563D01*
X38530Y35102D01*
X38727Y35069D02*
Y35200D01*
X38792Y35266D01*
X38858Y35200D01*
Y35069D01*
Y35167D01*
X38727D01*
X42454Y33707D02*
X42421Y33740D01*
X42356D01*
X42323Y33707D01*
Y33576D01*
X42356Y33543D01*
X42421D01*
X42454Y33576D01*
X42520Y33543D02*
X42585D01*
X42552D01*
Y33740D01*
X42520Y33707D01*
X42815Y33740D02*
X42684D01*
Y33642D01*
X42749Y33674D01*
X42782D01*
X42815Y33642D01*
Y33576D01*
X42782Y33543D01*
X42716D01*
X42684Y33576D01*
X42880Y33740D02*
Y33543D01*
X42979D01*
X43012Y33576D01*
Y33609D01*
X42979Y33642D01*
X42880D01*
X42979D01*
X43012Y33674D01*
Y33707D01*
X42979Y33740D01*
X42880D01*
X38291Y35774D02*
X38258Y35807D01*
X38192D01*
X38159Y35774D01*
Y35643D01*
X38192Y35610D01*
X38258D01*
X38291Y35643D01*
X38356Y35610D02*
X38422D01*
X38389D01*
Y35807D01*
X38356Y35774D01*
X38651Y35807D02*
X38586Y35774D01*
X38520Y35709D01*
Y35643D01*
X38553Y35610D01*
X38619D01*
X38651Y35643D01*
Y35676D01*
X38619Y35709D01*
X38520D01*
X38717Y35610D02*
Y35741D01*
X38783Y35807D01*
X38848Y35741D01*
Y35610D01*
Y35709D01*
X38717D01*
X42434Y33186D02*
X42402Y33218D01*
X42336D01*
X42303Y33186D01*
Y33054D01*
X42336Y33022D01*
X42402D01*
X42434Y33054D01*
X42500Y33022D02*
X42566D01*
X42533D01*
Y33218D01*
X42500Y33186D01*
X42795Y33218D02*
X42730Y33186D01*
X42664Y33120D01*
Y33054D01*
X42697Y33022D01*
X42762D01*
X42795Y33054D01*
Y33087D01*
X42762Y33120D01*
X42664D01*
X42861Y33218D02*
Y33022D01*
X42959D01*
X42992Y33054D01*
Y33087D01*
X42959Y33120D01*
X42861D01*
X42959D01*
X42992Y33153D01*
Y33186D01*
X42959Y33218D01*
X42861D01*
X49531Y34127D02*
X49498Y34094D01*
Y34029D01*
X49531Y33996D01*
X49662D01*
X49695Y34029D01*
Y34094D01*
X49662Y34127D01*
X49695Y34193D02*
Y34258D01*
Y34226D01*
X49498D01*
X49531Y34193D01*
Y34357D02*
X49498Y34390D01*
Y34455D01*
X49531Y34488D01*
X49564D01*
X49596Y34455D01*
X49629Y34488D01*
X49662D01*
X49695Y34455D01*
Y34390D01*
X49662Y34357D01*
X49629D01*
X49596Y34390D01*
X49564Y34357D01*
X49531D01*
X49596Y34390D02*
Y34455D01*
X49695Y34554D02*
X49564D01*
X49498Y34619D01*
X49564Y34685D01*
X49695D01*
X49596D01*
Y34554D01*
X31470Y34334D02*
X31437Y34301D01*
Y34236D01*
X31470Y34203D01*
X31601D01*
X31634Y34236D01*
Y34301D01*
X31601Y34334D01*
X31634Y34400D02*
Y34465D01*
Y34432D01*
X31437D01*
X31470Y34400D01*
Y34564D02*
X31437Y34596D01*
Y34662D01*
X31470Y34695D01*
X31503D01*
X31535Y34662D01*
X31568Y34695D01*
X31601D01*
X31634Y34662D01*
Y34596D01*
X31601Y34564D01*
X31568D01*
X31535Y34596D01*
X31503Y34564D01*
X31470D01*
X31535Y34596D02*
Y34662D01*
X31437Y34760D02*
X31634D01*
Y34859D01*
X31601Y34892D01*
X31568D01*
X31535Y34859D01*
Y34760D01*
Y34859D01*
X31503Y34892D01*
X31470D01*
X31437Y34859D01*
Y34760D01*
X49117Y32969D02*
X49085Y33002D01*
X49019D01*
X48986Y32969D01*
Y32838D01*
X49019Y32805D01*
X49085D01*
X49117Y32838D01*
X49183Y32805D02*
X49249D01*
X49216D01*
Y33002D01*
X49183Y32969D01*
X49347Y32838D02*
X49380Y32805D01*
X49445D01*
X49478Y32838D01*
Y32969D01*
X49445Y33002D01*
X49380D01*
X49347Y32969D01*
Y32936D01*
X49380Y32904D01*
X49478D01*
X49544Y32805D02*
Y32936D01*
X49609Y33002D01*
X49675Y32936D01*
Y32805D01*
Y32904D01*
X49544D01*
X31519Y35961D02*
X31486Y35994D01*
X31421D01*
X31388Y35961D01*
Y35830D01*
X31421Y35797D01*
X31486D01*
X31519Y35830D01*
X31585Y35797D02*
X31650D01*
X31617D01*
Y35994D01*
X31585Y35961D01*
X31749Y35830D02*
X31781Y35797D01*
X31847D01*
X31880Y35830D01*
Y35961D01*
X31847Y35994D01*
X31781D01*
X31749Y35961D01*
Y35928D01*
X31781Y35896D01*
X31880D01*
X31945Y35994D02*
Y35797D01*
X32044D01*
X32077Y35830D01*
Y35863D01*
X32044Y35896D01*
X31945D01*
X32044D01*
X32077Y35928D01*
Y35961D01*
X32044Y35994D01*
X31945D01*
X49147Y35781D02*
X49114Y35748D01*
Y35682D01*
X49147Y35650D01*
X49278D01*
X49311Y35682D01*
Y35748D01*
X49278Y35781D01*
X49311Y35978D02*
Y35846D01*
X49180Y35978D01*
X49147D01*
X49114Y35945D01*
Y35879D01*
X49147Y35846D01*
Y36043D02*
X49114Y36076D01*
Y36142D01*
X49147Y36174D01*
X49180D01*
X49213Y36142D01*
Y36109D01*
Y36142D01*
X49245Y36174D01*
X49278D01*
X49311Y36142D01*
Y36076D01*
X49278Y36043D01*
X49311Y36240D02*
X49180D01*
X49114Y36306D01*
X49180Y36371D01*
X49311D01*
X49213D01*
Y36240D01*
X31785Y32612D02*
X31752Y32579D01*
Y32513D01*
X31785Y32480D01*
X31916D01*
X31949Y32513D01*
Y32579D01*
X31916Y32612D01*
X31949Y32808D02*
Y32677D01*
X31818Y32808D01*
X31785D01*
X31752Y32775D01*
Y32710D01*
X31785Y32677D01*
Y32874D02*
X31752Y32907D01*
Y32972D01*
X31785Y33005D01*
X31818D01*
X31850Y32972D01*
Y32939D01*
Y32972D01*
X31883Y33005D01*
X31916D01*
X31949Y32972D01*
Y32907D01*
X31916Y32874D01*
X31752Y33071D02*
X31949D01*
Y33169D01*
X31916Y33202D01*
X31883D01*
X31850Y33169D01*
Y33071D01*
Y33169D01*
X31818Y33202D01*
X31785D01*
X31752Y33169D01*
Y33071D01*
X48448Y34160D02*
X48415Y34193D01*
X48350D01*
X48317Y34160D01*
Y34029D01*
X48350Y33996D01*
X48415D01*
X48448Y34029D01*
X48645Y33996D02*
X48514D01*
X48645Y34127D01*
Y34160D01*
X48612Y34193D01*
X48547D01*
X48514Y34160D01*
X48710D02*
X48743Y34193D01*
X48809D01*
X48842Y34160D01*
Y34029D01*
X48809Y33996D01*
X48743D01*
X48710Y34029D01*
Y34160D01*
X48907Y33996D02*
Y34127D01*
X48973Y34193D01*
X49038Y34127D01*
Y33996D01*
Y34094D01*
X48907D01*
X32100Y34770D02*
X32067Y34803D01*
X32001D01*
X31969Y34770D01*
Y34639D01*
X32001Y34606D01*
X32067D01*
X32100Y34639D01*
X32296Y34606D02*
X32165D01*
X32296Y34737D01*
Y34770D01*
X32264Y34803D01*
X32198D01*
X32165Y34770D01*
X32362D02*
X32395Y34803D01*
X32460D01*
X32493Y34770D01*
Y34639D01*
X32460Y34606D01*
X32395D01*
X32362Y34639D01*
Y34770D01*
X32559Y34803D02*
Y34606D01*
X32657D01*
X32690Y34639D01*
Y34672D01*
X32657Y34705D01*
X32559D01*
X32657D01*
X32690Y34737D01*
Y34770D01*
X32657Y34803D01*
X32559D01*
X47062Y32982D02*
Y32818D01*
X47095Y32785D01*
X47160D01*
X47193Y32818D01*
Y32982D01*
X47259Y32949D02*
X47292Y32982D01*
X47357D01*
X47390Y32949D01*
Y32917D01*
X47357Y32884D01*
X47324D01*
X47357D01*
X47390Y32851D01*
Y32818D01*
X47357Y32785D01*
X47292D01*
X47259Y32818D01*
X47456Y32785D02*
Y32917D01*
X47521Y32982D01*
X47587Y32917D01*
Y32785D01*
Y32884D01*
X47456D01*
X33489Y36033D02*
Y35869D01*
X33522Y35837D01*
X33588D01*
X33620Y35869D01*
Y36033D01*
X33686Y36001D02*
X33719Y36033D01*
X33784D01*
X33817Y36001D01*
Y35968D01*
X33784Y35935D01*
X33752D01*
X33784D01*
X33817Y35902D01*
Y35869D01*
X33784Y35837D01*
X33719D01*
X33686Y35869D01*
X33883Y36033D02*
Y35837D01*
X33981D01*
X34014Y35869D01*
Y35902D01*
X33981Y35935D01*
X33883D01*
X33981D01*
X34014Y35968D01*
Y36001D01*
X33981Y36033D01*
X33883D01*
X39537Y35581D02*
X39701D01*
X39734Y35614D01*
Y35679D01*
X39701Y35712D01*
X39537D01*
X39734Y35876D02*
X39537D01*
X39636Y35777D01*
Y35909D01*
X39734Y35974D02*
X39603D01*
X39537Y36040D01*
X39603Y36105D01*
X39734D01*
X39636D01*
Y35974D01*
X41319Y32677D02*
X41483D01*
X41516Y32710D01*
Y32776D01*
X41483Y32808D01*
X41319D01*
X41516Y32972D02*
X41319D01*
X41417Y32874D01*
Y33005D01*
X41319Y33071D02*
X41516D01*
Y33169D01*
X41483Y33202D01*
X41450D01*
X41417Y33169D01*
Y33071D01*
Y33169D01*
X41385Y33202D01*
X41352D01*
X41319Y33169D01*
Y33071D01*
X48583Y29449D02*
X48714Y29252D01*
Y29449D02*
X48583Y29252D01*
X48779D02*
X48845D01*
X48812D01*
Y29449D01*
X48779Y29416D01*
X48943D02*
X48976Y29449D01*
X49042D01*
X49075Y29416D01*
Y29383D01*
X49042Y29350D01*
X49009D01*
X49042D01*
X49075Y29318D01*
Y29285D01*
X49042Y29252D01*
X48976D01*
X48943Y29285D01*
X49140Y29252D02*
Y29383D01*
X49206Y29449D01*
X49271Y29383D01*
Y29252D01*
Y29350D01*
X49140D01*
X31969Y38553D02*
X32100Y38356D01*
Y38553D02*
X31969Y38356D01*
X32165D02*
X32231D01*
X32198D01*
Y38553D01*
X32165Y38520D01*
X32329D02*
X32362Y38553D01*
X32428D01*
X32460Y38520D01*
Y38487D01*
X32428Y38455D01*
X32395D01*
X32428D01*
X32460Y38422D01*
Y38389D01*
X32428Y38356D01*
X32362D01*
X32329Y38389D01*
X32526Y38553D02*
Y38356D01*
X32624D01*
X32657Y38389D01*
Y38422D01*
X32624Y38455D01*
X32526D01*
X32624D01*
X32657Y38487D01*
Y38520D01*
X32624Y38553D01*
X32526D01*
X39065Y38573D02*
X39196Y38376D01*
Y38573D02*
X39065Y38376D01*
X39262D02*
X39327D01*
X39295D01*
Y38573D01*
X39262Y38540D01*
X39524Y38376D02*
Y38573D01*
X39426Y38474D01*
X39557D01*
X39623Y38376D02*
Y38507D01*
X39688Y38573D01*
X39754Y38507D01*
Y38376D01*
Y38474D01*
X39623D01*
X41417Y29409D02*
X41549Y29213D01*
Y29409D02*
X41417Y29213D01*
X41614D02*
X41680D01*
X41647D01*
Y29409D01*
X41614Y29377D01*
X41876Y29213D02*
Y29409D01*
X41778Y29311D01*
X41909D01*
X41975Y29409D02*
Y29213D01*
X42073D01*
X42106Y29245D01*
Y29278D01*
X42073Y29311D01*
X41975D01*
X42073D01*
X42106Y29344D01*
Y29377D01*
X42073Y29409D01*
X41975D01*
X48445Y38543D02*
X48576Y38346D01*
Y38543D02*
X48445Y38346D01*
X48642D02*
X48707D01*
X48674D01*
Y38543D01*
X48642Y38510D01*
X48937Y38543D02*
X48806D01*
Y38445D01*
X48871Y38478D01*
X48904D01*
X48937Y38445D01*
Y38379D01*
X48904Y38346D01*
X48838D01*
X48806Y38379D01*
X49002Y38346D02*
Y38478D01*
X49068Y38543D01*
X49134Y38478D01*
Y38346D01*
Y38445D01*
X49002D01*
X31939Y29468D02*
X32070Y29272D01*
Y29468D02*
X31939Y29272D01*
X32136D02*
X32201D01*
X32169D01*
Y29468D01*
X32136Y29436D01*
X32431Y29468D02*
X32300D01*
Y29370D01*
X32365Y29403D01*
X32398D01*
X32431Y29370D01*
Y29304D01*
X32398Y29272D01*
X32333D01*
X32300Y29304D01*
X32497Y29468D02*
Y29272D01*
X32595D01*
X32628Y29304D01*
Y29337D01*
X32595Y29370D01*
X32497D01*
X32595D01*
X32628Y29403D01*
Y29436D01*
X32595Y29468D01*
X32497D01*
X41368Y38543D02*
X41499Y38346D01*
Y38543D02*
X41368Y38346D01*
X41565D02*
X41630D01*
X41598D01*
Y38543D01*
X41565Y38510D01*
X41860Y38543D02*
X41794Y38510D01*
X41729Y38445D01*
Y38379D01*
X41762Y38346D01*
X41827D01*
X41860Y38379D01*
Y38412D01*
X41827Y38445D01*
X41729D01*
X41926Y38346D02*
Y38478D01*
X41991Y38543D01*
X42057Y38478D01*
Y38346D01*
Y38445D01*
X41926D01*
X39134Y29449D02*
X39265Y29252D01*
Y29449D02*
X39134Y29252D01*
X39331D02*
X39396D01*
X39363D01*
Y29449D01*
X39331Y29416D01*
X39626Y29449D02*
X39560Y29416D01*
X39495Y29350D01*
Y29285D01*
X39527Y29252D01*
X39593D01*
X39626Y29285D01*
Y29318D01*
X39593Y29350D01*
X39495D01*
X39691Y29449D02*
Y29252D01*
X39790D01*
X39823Y29285D01*
Y29318D01*
X39790Y29350D01*
X39691D01*
X39790D01*
X39823Y29383D01*
Y29416D01*
X39790Y29449D01*
X39691D01*
X50098Y32904D02*
Y33035D01*
X50131D01*
X50262Y32904D01*
X50295D01*
Y33035D01*
Y33232D02*
Y33100D01*
X50164Y33232D01*
X50131D01*
X50098Y33199D01*
Y33133D01*
X50131Y33100D01*
X50295Y33297D02*
X50164D01*
X50098Y33363D01*
X50164Y33428D01*
X50295D01*
X50197D01*
Y33297D01*
X30807Y35404D02*
Y35535D01*
X30840D01*
X30971Y35404D01*
X31004D01*
Y35535D01*
Y35732D02*
Y35600D01*
X30873Y35732D01*
X30840D01*
X30807Y35699D01*
Y35633D01*
X30840Y35600D01*
X30807Y35797D02*
X31004D01*
Y35896D01*
X30971Y35928D01*
X30938D01*
X30906Y35896D01*
Y35797D01*
Y35896D01*
X30873Y35928D01*
X30840D01*
X30807Y35896D01*
Y35797D01*
X38445Y34655D02*
X38576D01*
Y34623D01*
X38445Y34491D01*
Y34459D01*
X38576D01*
X38642D02*
X38707D01*
X38674D01*
Y34655D01*
X38642Y34623D01*
X38806Y34459D02*
Y34590D01*
X38871Y34655D01*
X38937Y34590D01*
Y34459D01*
Y34557D01*
X38806D01*
X42146Y34350D02*
X42277D01*
Y34318D01*
X42146Y34186D01*
Y34154D01*
X42277D01*
X42342D02*
X42408D01*
X42375D01*
Y34350D01*
X42342Y34318D01*
X42506Y34350D02*
Y34154D01*
X42605D01*
X42638Y34186D01*
Y34219D01*
X42605Y34252D01*
X42506D01*
X42605D01*
X42638Y34285D01*
Y34318D01*
X42605Y34350D01*
X42506D01*
X40682Y35764D02*
X40650Y35797D01*
X40584D01*
X40551Y35764D01*
Y35633D01*
X40584Y35600D01*
X40650D01*
X40682Y35633D01*
X40879Y35600D02*
X40748D01*
X40879Y35732D01*
Y35764D01*
X40846Y35797D01*
X40781D01*
X40748Y35764D01*
X41076Y35600D02*
X40945D01*
X41076Y35732D01*
Y35764D01*
X41043Y35797D01*
X40978D01*
X40945Y35764D01*
X41142Y35600D02*
Y35732D01*
X41207Y35797D01*
X41273Y35732D01*
Y35600D01*
Y35699D01*
X41142D01*
X40239Y32843D02*
X40207Y32876D01*
X40141D01*
X40108Y32843D01*
Y32712D01*
X40141Y32679D01*
X40207D01*
X40239Y32712D01*
X40436Y32679D02*
X40305D01*
X40436Y32810D01*
Y32843D01*
X40403Y32876D01*
X40338D01*
X40305Y32843D01*
X40633Y32679D02*
X40502D01*
X40633Y32810D01*
Y32843D01*
X40600Y32876D01*
X40535D01*
X40502Y32843D01*
X40699Y32876D02*
Y32679D01*
X40797D01*
X40830Y32712D01*
Y32744D01*
X40797Y32777D01*
X40699D01*
X40797D01*
X40830Y32810D01*
Y32843D01*
X40797Y32876D01*
X40699D01*
G54D149*
X26870Y28740D02*
G03*
X26870Y28740I-98J0D01*
G01*
X27165D02*
G03*
X27165Y28740I-394J0D01*
G01*
X24902D02*
G03*
X24902Y28740I-98J0D01*
G01*
X25197D02*
G03*
X25197Y28740I-394J0D01*
G01*
X25689Y25984D02*
G03*
X25689Y25984I-98J0D01*
G01*
X25984D02*
G03*
X25984Y25984I-394J0D01*
G01*
X25689Y22835D02*
G03*
X25689Y22835I-98J0D01*
G01*
X25984D02*
G03*
X25984Y22835I-394J0D01*
G01*
X39588Y36280D02*
G03*
X39588Y36280I-60J0D01*
G01*
X41635Y32539D02*
G03*
X41635Y32539I-60J0D01*
G01*
X49213Y30157D02*
G03*
X49213Y30157I-394J0D01*
G01*
X48917D02*
G03*
X48917Y30157I-98J0D01*
G01*
X32677Y38661D02*
G03*
X32677Y38661I-394J0D01*
G01*
X32382D02*
G03*
X32382Y38661I-98J0D01*
G01*
X39764Y38661D02*
G03*
X39764Y38661I-394J0D01*
G01*
X39469D02*
G03*
X39469Y38661I-98J0D01*
G01*
X42126Y30157D02*
G03*
X42126Y30157I-394J0D01*
G01*
X41831D02*
G03*
X41831Y30157I-98J0D01*
G01*
X49213Y38661D02*
G03*
X49213Y38661I-394J0D01*
G01*
X48917D02*
G03*
X48917Y38661I-98J0D01*
G01*
X32677Y30157D02*
G03*
X32677Y30157I-394J0D01*
G01*
X32382D02*
G03*
X32382Y30157I-98J0D01*
G01*
X42126Y38661D02*
G03*
X42126Y38661I-394J0D01*
G01*
X41831D02*
G03*
X41831Y38661I-98J0D01*
G01*
X39764Y30157D02*
G03*
X39764Y30157I-394J0D01*
G01*
X39469D02*
G03*
X39469Y30157I-98J0D01*
G01*
X22712Y18583D02*
X23031D01*
X22714Y18979D02*
X23034D01*
X22714Y18460D02*
X23034D01*
X22714D02*
Y19100D01*
X23034D01*
Y18460D02*
Y19100D01*
X18597Y36011D02*
X19237D01*
Y36331D01*
X18597D02*
X19237D01*
X18597Y36011D02*
Y36331D01*
X19117Y36011D02*
Y36331D01*
X18720Y36014D02*
Y36334D01*
X20758Y19324D02*
Y20324D01*
X22770Y19324D02*
Y20324D01*
X19758Y19324D02*
Y20324D01*
X22770D01*
X19758Y19324D02*
X22770D01*
X26260Y29252D02*
X27283D01*
Y28228D02*
Y29252D01*
X26260Y28228D02*
X27283D01*
X26260D02*
Y29252D01*
X24291Y28228D02*
X25315D01*
X24291D02*
Y29252D01*
X25315D01*
Y28228D02*
Y29252D01*
X26811Y23937D02*
Y24257D01*
X27207Y23934D02*
Y24254D01*
X26688Y23934D02*
Y24254D01*
X27328D01*
Y23934D02*
Y24254D01*
X26688Y23934D02*
X27328D01*
X24888Y35640D02*
Y36640D01*
X29888Y35640D02*
Y36640D01*
X23888Y35640D02*
Y36640D01*
X29888D01*
X23888Y35640D02*
X29888D01*
X19876Y36053D02*
X22888D01*
X19876Y37053D02*
X22888D01*
X19876Y36053D02*
Y37053D01*
X22888Y36053D02*
Y37053D01*
X20876Y36053D02*
Y37053D01*
X38154Y36100D02*
X38794D01*
Y36420D01*
X38154D02*
X38794D01*
X38154Y36100D02*
Y36420D01*
X38674Y36100D02*
Y36420D01*
X38278Y36102D02*
Y36422D01*
X42308Y32719D02*
X42948D01*
X42308Y32399D02*
Y32719D01*
Y32399D02*
X42948D01*
Y32719D01*
X42429Y32399D02*
Y32719D01*
X42825Y32397D02*
Y32717D01*
X48966Y33654D02*
X49606D01*
X48966Y33334D02*
Y33654D01*
Y33334D02*
X49606D01*
Y33654D01*
X49087Y33334D02*
Y33654D01*
X49483Y33332D02*
Y33652D01*
X31496Y35165D02*
X32136D01*
Y35485D01*
X31496D02*
X32136D01*
X31496Y35165D02*
Y35485D01*
X32015Y35165D02*
Y35485D01*
X31619Y35167D02*
Y35487D01*
X25079Y25472D02*
Y26496D01*
X26102D01*
Y25472D02*
Y26496D01*
X25079Y25472D02*
X26102D01*
Y22323D02*
Y23346D01*
X25079Y22323D02*
X26102D01*
X25079D02*
Y23346D01*
X26102D01*
X19998Y30246D02*
Y30566D01*
X20395Y30244D02*
Y30564D01*
X19875Y30244D02*
Y30564D01*
X20515D01*
Y30244D02*
Y30564D01*
X19875Y30244D02*
X20515D01*
X19783Y29690D02*
Y30010D01*
X19387Y29692D02*
Y30012D01*
X19907Y29692D02*
Y30012D01*
X19267Y29692D02*
X19907D01*
X19267D02*
Y30012D01*
X19907D01*
X14454Y27256D02*
X15094D01*
X14454Y26936D02*
Y27256D01*
Y26936D02*
X15094D01*
Y27256D01*
X14574Y26936D02*
Y27256D01*
X14970Y26934D02*
Y27254D01*
X14454Y27774D02*
X15094D01*
X14454Y27454D02*
Y27774D01*
Y27454D02*
X15094D01*
Y27774D01*
X14574Y27454D02*
Y27774D01*
X14970Y27451D02*
Y27771D01*
X14454Y28299D02*
X15094D01*
X14454Y27979D02*
Y28299D01*
Y27979D02*
X15094D01*
Y28299D01*
X14574Y27979D02*
Y28299D01*
X14970Y27977D02*
Y28297D01*
X39232Y36161D02*
X39390D01*
X39232D02*
Y36280D01*
X39390D01*
X39902D02*
X40059D01*
Y36161D02*
Y36280D01*
X39902Y36161D02*
X40059D01*
X39902Y35650D02*
X40059D01*
Y35768D01*
X39902D02*
X40059D01*
X39232Y35650D02*
X39390D01*
X39232D02*
Y35886D01*
X39390D01*
X39232Y36181D02*
Y36260D01*
X39902Y35571D02*
Y36358D01*
X39390Y35571D02*
X39902D01*
X39390D02*
Y36358D01*
X39902D01*
X41713Y32657D02*
X41870D01*
Y32539D02*
Y32657D01*
X41713Y32539D02*
X41870D01*
X41043D02*
X41201D01*
X41043D02*
Y32657D01*
X41201D01*
X41043Y33169D02*
X41201D01*
X41043Y33051D02*
Y33169D01*
Y33051D02*
X41201D01*
X41713Y33169D02*
X41870D01*
Y32933D02*
Y33169D01*
X41713Y32933D02*
X41870D01*
Y32559D02*
Y32638D01*
X41201Y32461D02*
Y33248D01*
X41713D01*
Y32461D02*
Y33248D01*
X41201Y32461D02*
X41713D01*
X48307Y30669D02*
X49331D01*
X48307Y29646D02*
Y30669D01*
Y29646D02*
X49331D01*
Y30669D01*
X31772Y38150D02*
X32795D01*
Y39173D01*
X31772D02*
X32795D01*
X31772Y38150D02*
Y39173D01*
X38858Y38150D02*
X39882D01*
Y39173D01*
X38858D02*
X39882D01*
X38858Y38150D02*
Y39173D01*
X41220Y30669D02*
X42244D01*
X41220Y29646D02*
Y30669D01*
Y29646D02*
X42244D01*
Y30669D01*
X48307Y38150D02*
X49331D01*
Y39173D01*
X48307D02*
X49331D01*
X48307Y38150D02*
Y39173D01*
X31772Y30669D02*
X32795D01*
X31772Y29646D02*
Y30669D01*
Y29646D02*
X32795D01*
Y30669D01*
X41220Y38150D02*
X42244D01*
Y39173D01*
X41220D02*
X42244D01*
X41220Y38150D02*
Y39173D01*
X38858Y30669D02*
X39882D01*
X38858Y29646D02*
Y30669D01*
Y29646D02*
X39882D01*
Y30669D01*
X50049Y32874D02*
X50344D01*
Y33484D01*
X50049D02*
X50344D01*
X50049Y32874D02*
Y33484D01*
X30758Y35945D02*
X31053D01*
X30758Y35335D02*
Y35945D01*
Y35335D02*
X31053D01*
Y35945D01*
X38991Y34412D02*
Y34707D01*
X38381D02*
X38991D01*
X38381Y34412D02*
Y34707D01*
Y34412D02*
X38991D01*
X42111Y34112D02*
Y34407D01*
Y34112D02*
X42721D01*
Y34407D01*
X42111D02*
X42721D01*
G54D150*
X18622Y27726D02*
Y28356D01*
X18307D02*
X18622D01*
X18307Y27726D02*
Y28356D01*
Y27726D02*
X18622D01*
X18307Y27884D02*
X18622D01*
X18307Y28199D02*
X18622D01*
X17451Y27471D02*
Y28258D01*
X16959Y27471D02*
X17451D01*
X16959D02*
Y28258D01*
X17451D01*
X16959Y28061D02*
X17451D01*
X16969Y27668D02*
X17451D01*
X16931Y32598D02*
Y32913D01*
X17246Y32598D02*
Y32913D01*
X17403Y32598D02*
Y32913D01*
X16773Y32598D02*
X17403D01*
X16773D02*
Y32913D01*
X17403D01*
X15433Y29291D02*
X16063D01*
Y29606D01*
X15433D02*
X16063D01*
X15433Y29291D02*
Y29606D01*
X15591Y29291D02*
Y29606D01*
X15906Y29291D02*
Y29606D01*
X26516Y32697D02*
X26831D01*
X26516Y32382D02*
X26831D01*
X26516Y32224D02*
X26831D01*
X26516D02*
Y32854D01*
X26831D01*
Y32224D02*
Y32854D01*
X12165Y27835D02*
X12795D01*
X12165Y28150D02*
X12795D01*
X12303Y27835D02*
Y28150D01*
X12657Y27835D02*
Y28150D01*
Y27362D02*
Y27677D01*
X12303Y27362D02*
Y27677D01*
X12165D02*
X12795D01*
X12165Y27362D02*
X12795D01*
X12657Y26890D02*
Y27205D01*
X12303Y26890D02*
Y27205D01*
X12165D02*
X12795D01*
X12165Y26890D02*
X12795D01*
X32264Y31909D02*
X32894D01*
X32264Y31594D02*
Y31909D01*
Y31594D02*
X32894D01*
Y31909D01*
X32736Y31594D02*
Y31909D01*
X32421Y31594D02*
Y31909D01*
X34685Y33435D02*
Y34065D01*
X34370D02*
X34685D01*
X34370Y33435D02*
Y34065D01*
Y33435D02*
X34685D01*
X34370Y33593D02*
X34685D01*
X34370Y33907D02*
X34685D01*
X39951Y32067D02*
X40581D01*
Y32382D01*
X39951D02*
X40581D01*
X39951Y32067D02*
Y32382D01*
X40108Y32067D02*
Y32382D01*
X40423Y32067D02*
Y32382D01*
X38760Y31594D02*
X39390D01*
Y31909D01*
X38760D02*
X39390D01*
X38760Y31594D02*
Y31909D01*
X38917Y31594D02*
Y31909D01*
X39232Y31594D02*
Y31909D01*
X48209Y36909D02*
X48839D01*
Y37224D01*
X48209D02*
X48839D01*
X48209Y36909D02*
Y37224D01*
X48366Y36909D02*
Y37224D01*
X48681Y36909D02*
Y37224D01*
X46427Y34754D02*
Y35384D01*
Y34754D02*
X46742D01*
Y35384D01*
X46427D02*
X46742D01*
X46427Y35226D02*
X46742D01*
X46427Y34911D02*
X46742D01*
X40522Y36752D02*
X41152D01*
X40522Y36437D02*
Y36752D01*
Y36437D02*
X41152D01*
Y36752D01*
X40994Y36437D02*
Y36752D01*
X40679Y36437D02*
Y36752D01*
X41713Y37224D02*
X42343D01*
X41713Y36909D02*
Y37224D01*
Y36909D02*
X42343D01*
Y37224D01*
X42185Y36909D02*
Y37224D01*
X41870Y36909D02*
Y37224D01*
X18593Y36634D02*
X19222D01*
Y36949D01*
X18593D02*
X19222D01*
X18593Y36634D02*
Y36949D01*
X18750Y36634D02*
Y36949D01*
X19065Y36634D02*
Y36949D01*
X22165Y30010D02*
Y30640D01*
Y30010D02*
X22480D01*
Y30640D01*
X22165D02*
X22480D01*
X22165Y30482D02*
X22480D01*
X22165Y30167D02*
X22480D01*
X17865Y29144D02*
X18495D01*
X17865Y28829D02*
Y29144D01*
Y28829D02*
X18495D01*
Y29144D01*
X18337Y28829D02*
Y29144D01*
X18023Y28829D02*
Y29144D01*
X29457Y32643D02*
X29772D01*
X29457Y32328D02*
X29772D01*
X29457Y32171D02*
X29772D01*
X29457D02*
Y32801D01*
X29772D01*
Y32171D02*
Y32801D01*
X48661Y32165D02*
X48976D01*
X48661Y31850D02*
X48976D01*
X48661Y31693D02*
X48976D01*
X48661D02*
Y32323D01*
X48976D01*
Y31693D02*
Y32323D01*
X32126Y36654D02*
X32441D01*
X32126Y36969D02*
X32441D01*
X32126Y37126D02*
X32441D01*
Y36496D02*
Y37126D01*
X32126Y36496D02*
X32441D01*
X32126D02*
Y37126D01*
X38907Y36870D02*
Y37185D01*
X39222Y36870D02*
Y37185D01*
X39380Y36870D02*
Y37185D01*
X38750Y36870D02*
X39380D01*
X38750D02*
Y37185D01*
X39380D01*
X42195Y31634D02*
Y31949D01*
X41880Y31634D02*
Y31949D01*
X41722Y31634D02*
Y31949D01*
X42352D01*
Y31634D02*
Y31949D01*
X41722Y31634D02*
X42352D01*
X38642Y35015D02*
Y35330D01*
X38327Y35015D02*
Y35330D01*
X38169Y35015D02*
Y35330D01*
X38799D01*
Y35015D02*
Y35330D01*
X38169Y35015D02*
X38799D01*
X42461Y33489D02*
Y33804D01*
X42776Y33489D02*
Y33804D01*
X42933Y33489D02*
Y33804D01*
X42303Y33489D02*
X42933D01*
X42303D02*
Y33804D01*
X42933D01*
X38632Y35551D02*
Y35866D01*
X38317Y35551D02*
Y35866D01*
X38159Y35551D02*
Y35866D01*
X38789D01*
Y35551D02*
Y35866D01*
X38159Y35551D02*
X38789D01*
X42470Y32953D02*
Y33268D01*
X42785Y32953D02*
Y33268D01*
X42943Y32953D02*
Y33268D01*
X42313Y32953D02*
X42943D01*
X42313D02*
Y33268D01*
X42943D01*
X49429Y34459D02*
X49744D01*
X49429Y34144D02*
X49744D01*
X49429Y33986D02*
X49744D01*
X49429D02*
Y34616D01*
X49744D01*
Y33986D02*
Y34616D01*
X31358Y34360D02*
X31673D01*
X31358Y34675D02*
X31673D01*
X31358Y34833D02*
X31673D01*
Y34203D02*
Y34833D01*
X31358Y34203D02*
X31673D01*
X31358D02*
Y34833D01*
X49124Y32756D02*
Y33071D01*
X49439Y32756D02*
Y33071D01*
X49596Y32756D02*
Y33071D01*
X48967Y32756D02*
X49596D01*
X48967D02*
Y33071D01*
X49596D01*
X31978Y35748D02*
Y36063D01*
X31663Y35748D02*
Y36063D01*
X31506Y35748D02*
Y36063D01*
X32136D01*
Y35748D02*
Y36063D01*
X31506Y35748D02*
X32136D01*
X49075Y35827D02*
X49390D01*
X49075Y36142D02*
X49390D01*
X49075Y36299D02*
X49390D01*
Y35669D02*
Y36299D01*
X49075Y35669D02*
X49390D01*
X49075D02*
Y36299D01*
X31713Y32992D02*
X32028D01*
X31713Y32677D02*
X32028D01*
X31713Y32520D02*
X32028D01*
X31713D02*
Y33150D01*
X32028D01*
Y32520D02*
Y33150D01*
X48538Y33947D02*
Y34262D01*
X48853Y33947D02*
Y34262D01*
X49011Y33947D02*
Y34262D01*
X48381Y33947D02*
X49011D01*
X48381D02*
Y34262D01*
X49011D01*
X32564Y34557D02*
Y34872D01*
X32249Y34557D02*
Y34872D01*
X32092Y34557D02*
Y34872D01*
X32721D01*
Y34557D02*
Y34872D01*
X32092Y34557D02*
X32721D01*
X41073Y35550D02*
Y35865D01*
X40758Y35550D02*
Y35865D01*
X40600Y35550D02*
Y35865D01*
X41230D01*
Y35550D02*
Y35865D01*
X40600Y35550D02*
X41230D01*
X40030Y32954D02*
Y33269D01*
X40344Y32954D02*
Y33269D01*
X40502Y32954D02*
Y33269D01*
X39872Y32954D02*
X40502D01*
X39872D02*
Y33269D01*
X40502D01*
G54D151*
X34567Y28386D02*
X35059D01*
X34567D02*
Y28583D01*
X35059D01*
X34606Y28602D02*
X35059D01*
Y28366D02*
Y28602D01*
X34606Y28366D02*
X35059D01*
X34528Y28681D02*
X34606Y28602D01*
X34528Y28287D02*
X34606Y28366D01*
X35965Y28583D02*
X36457D01*
Y28386D02*
Y28583D01*
X35965Y28386D02*
X36457D01*
X35965Y28366D02*
X36417D01*
X35965D02*
Y28602D01*
X36417D01*
X36417Y28366D02*
X36496Y28287D01*
X36417Y28602D02*
X36496Y28681D01*
X35965Y27953D02*
X36457D01*
Y27756D02*
Y27953D01*
X35965Y27756D02*
X36457D01*
X35965Y27736D02*
X36417D01*
X35965D02*
Y27972D01*
X36417D01*
X36417Y27736D02*
X36496Y27657D01*
X36417Y27972D02*
X36496Y28051D01*
X34567Y27756D02*
X35059D01*
X34567D02*
Y27953D01*
X35059D01*
X34606Y27972D02*
X35059D01*
Y27736D02*
Y27972D01*
X34606Y27736D02*
X35059D01*
X34528Y28051D02*
X34606Y27972D01*
X34528Y27657D02*
X34606Y27736D01*
X34567Y27126D02*
X35059D01*
X34567D02*
Y27323D01*
X35059D01*
X34606Y27343D02*
X35059D01*
Y27106D02*
Y27343D01*
X34606Y27106D02*
X35059D01*
X34528Y27421D02*
X34606Y27343D01*
X34528Y27028D02*
X34606Y27106D01*
X36417Y27343D02*
X36496Y27421D01*
X36417Y27106D02*
X36496Y27028D01*
X35965Y27343D02*
X36417D01*
X35965Y27106D02*
Y27343D01*
Y27106D02*
X36417D01*
X35965Y27126D02*
X36457D01*
Y27323D01*
X35965D02*
X36457D01*
X34390Y27598D02*
X35118D01*
Y28110D01*
X34390Y27598D02*
Y28110D01*
X35118D01*
X35906D02*
X36634D01*
X35906Y27598D02*
Y28110D01*
X36634Y27598D02*
Y28110D01*
X35906Y27598D02*
X36634D01*
X35906Y27480D02*
X36634D01*
X35906Y26969D02*
Y27480D01*
X36634Y26969D02*
Y27480D01*
X35906Y26969D02*
X36634D01*
X35906Y28740D02*
X36634D01*
X35906Y28228D02*
Y28740D01*
X36634Y28228D02*
Y28740D01*
X35906Y28228D02*
X36634D01*
X34390D02*
X35118D01*
Y28740D01*
X34390Y28228D02*
Y28740D01*
X35118D01*
X34390Y27480D02*
X35118D01*
X34390Y26969D02*
Y27480D01*
X34528Y28799D02*
X36496D01*
Y26909D02*
Y28799D01*
X34528Y26909D02*
X36496D01*
X35118Y26969D02*
Y27480D01*
X34390Y26969D02*
X35118D01*
X34528Y26909D02*
Y28799D01*
M02*
